999
dxfrw 0.6.3
  0
SECTION
  2
HEADER
  9
$ACADVER
  1
AC1021
  9
$DWGCODEPAGE
  3
ANSI_1252
  9
$INSBASE
 10
0
 20
0
 30
0
  9
$EXTMIN
 10
0
 20
0
 30
0
  9
$EXTMAX
 10
1913.556744792775
 20
600
 30
0
  9
$LIMMIN
 10
0
 20
0
  9
$LIMMAX
 10
12
 20
9
  9
$ORTHOMODE
 70
    0
  9
$REGENMODE
 70
    1
  9
$FILLMODE
 70
    1
  9
$QTEXTMODE
 70
    0
  9
$MIRRTEXT
 70
    0
  9
$LTSCALE
 40
1
  9
$ATTMODE
 70
    1
  9
$TEXTSIZE
 40
0.2
  9
$TRACEWID
 40
0.05
  9
$TEXTSTYLE
  7
Standard
  9
$CLAYER
  8
0
  9
$CELTYPE
  6
ByLayer
  9
$CECOLOR
 62
  256
  9
$CELTSCALE
 40
1
  9
$DISPSILH
 70
    0
  9
$DIMSCALE
 40
1
  9
$DIMASZ
 40
2.5
  9
$DIMEXO
 40
0.625
  9
$DIMDLI
 40
5
  9
$DIMRND
 40
0
  9
$DIMDLE
 40
0
  9
$DIMEXE
 40
1.25
  9
$DIMTP
 40
0
  9
$DIMTM
 40
0
  9
$DIMTXT
 40
2.5
  9
$DIMCEN
 40
0.09
  9
$DIMTSZ
 40
0
  9
$DIMTOL
 70
    0
  9
$DIMLIM
 70
    0
  9
$DIMTIH
 70
    1
  9
$DIMTOH
 70
    1
  9
$DIMSE1
 70
    0
  9
$DIMSE2
 70
    0
  9
$DIMTAD
 70
    0
  9
$DIMZIN
 70
    8
  9
$DIMBLK
  1

  9
$DIMASO
 70
    1
  9
$DIMSHO
 70
    1
  9
$DIMPOST
  1

  9
$DIMAPOST
  1

  9
$DIMALT
 70
    0
  9
$DIMALTD
 70
    2
  9
$DIMALTF
 40
25.4
  9
$DIMLFAC
 40
1
  9
$DIMTOFL
 70
    0
  9
$DIMTVP
 40
0
  9
$DIMTIX
 70
    0
  9
$DIMSOXD
 70
    0
  9
$DIMSAH
 70
    0
  9
$DIMBLK1
  1

  9
$DIMBLK2
  1

  9
$DIMSTYLE
  2
Standard
  9
$DIMCLRD
 70
    0
  9
$DIMCLRE
 70
    0
  9
$DIMCLRT
 70
    0
  9
$DIMTFAC
 40
1
  9
$DIMGAP
 40
0.625
  9
$DIMJUST
 70
    0
  9
$DIMSD1
 70
    0
  9
$DIMSD2
 70
    0
  9
$DIMTOLJ
 70
    1
  9
$DIMTZIN
 70
    0
  9
$DIMALTZ
 70
    0
  9
$DIMALTTZ
 70
    0
  9
$DIMUPT
 70
    0
  9
$DIMDEC
 70
    4
  9
$DIMTDEC
 70
    4
  9
$DIMALTU
 70
    2
  9
$DIMALTTD
 70
    2
  9
$DIMTXSTY
  7
Standard
  9
$DIMAUNIT
 70
    0
  9
$DIMADEC
 70
    0
  9
$DIMALTRND
 40
0
  9
$DIMAZIN
 70
    2
  9
$DIMDSEP
 70
   46
  9
$DIMATFIT
 70
    3
  9
$DIMFRAC
 70
    0
  9
$DIMLDRBLK
  1

  9
$DIMLUNIT
 70
    2
  9
$DIMLWD
 70
   -2
  9
$DIMLWE
 70
   -2
  9
$DIMTMOVE
 70
    0
  9
$DIMFXL
 40
1
  9
$DIMFXLON
 70
    0
  9
$DIMJOGANG
 40
0.7853981633974483
  9
$DIMTFILL
 70
    0
  9
$DIMTFILLCLR
 70
    0
  9
$DIMARCSYM
 70
    0
  9
$DIMLTYPE
  6

  9
$DIMLTEX1
  6

  9
$DIMLTEX2
  6

  9
$LUNITS
 70
    2
  9
$LUPREC
 70
    4
  9
$SKETCHINC
 40
0.1
  9
$FILLETRAD
 40
0.5
  9
$AUNITS
 70
    0
  9
$AUPREC
 70
    0
  9
$MENU
  1
.
  9
$ELEVATION
 40
0
  9
$PELEVATION
 40
0
  9
$THICKNESS
 40
0
  9
$LIMCHECK
 70
    0
  9
$CHAMFERA
 40
0
  9
$CHAMFERB
 40
0
  9
$CHAMFERC
 40
0
  9
$CHAMFERD
 40
0
  9
$SKPOLY
 70
    0
  9
$USRTIMER
 70
    1
  9
$ANGBASE
 50
0
  9
$ANGDIR
 70
    0
  9
$PDMODE
 70
    0
  9
$PDSIZE
 40
0
  9
$PLINEWID
 40
0
  9
$SPLFRAME
 70
    0
  9
$SPLINETYPE
 70
    6
  9
$SPLINESEGS
 70
    8
  9
$HANDSEED
  5
20000
  9
$SURFTAB1
 70
    6
  9
$SURFTAB2
 70
    6
  9
$SURFTYPE
 70
    6
  9
$SURFU
 70
    6
  9
$SURFV
 70
    6
  9
$UCSBASE
  2

  9
$UCSNAME
  2

  9
$UCSORG
 10
0
 20
0
 30
0
  9
$UCSXDIR
 10
1
 20
0
 30
0
  9
$UCSYDIR
 10
0
 20
1
 30
0
  9
$UCSORTHOREF
  2

  9
$UCSORTHOVIEW
 70
    0
  9
$UCSORGTOP
 10
0
 20
0
 30
0
  9
$UCSORGBOTTOM
 10
0
 20
0
 30
0
  9
$UCSORGLEFT
 10
0
 20
0
 30
0
  9
$UCSORGRIGHT
 10
0
 20
0
 30
0
  9
$UCSORGFRONT
 10
0
 20
0
 30
0
  9
$UCSORGBACK
 10
0
 20
0
 30
0
  9
$PUCSBASE
  2

  9
$PUCSNAME
  2

  9
$PUCSORG
 10
0
 20
0
 30
0
  9
$PUCSXDIR
 10
1
 20
0
 30
0
  9
$PUCSYDIR
 10
0
 20
1
 30
0
  9
$PUCSORTHOREF
  2

  9
$PUCSORTHOVIEW
 70
    0
  9
$PUCSORGTOP
 10
0
 20
0
 30
0
  9
$PUCSORGBOTTOM
 10
0
 20
0
 30
0
  9
$PUCSORGLEFT
 10
0
 20
0
 30
0
  9
$PUCSORGRIGHT
 10
0
 20
0
 30
0
  9
$PUCSORGFRONT
 10
0
 20
0
 30
0
  9
$PUCSORGBACK
 10
0
 20
0
 30
0
  9
$USERI1
 70
    0
  9
$USERI2
 70
    0
  9
$USERI3
 70
    0
  9
$USERI4
 70
    0
  9
$USERI5
 70
    0
  9
$USERR1
 40
0
  9
$USERR2
 40
0
  9
$USERR3
 40
0
  9
$USERR4
 40
0
  9
$USERR5
 40
0
  9
$WORLDVIEW
 70
    1
  9
$SHADEDGE
 70
    3
  9
$SHADEDIF
 70
   70
  9
$TILEMODE
 70
    1
  9
$MAXACTVP
 70
   64
  9
$PINSBASE
 10
0
 20
0
 30
0
  9
$PLIMCHECK
 70
    0
  9
$PEXTMIN
 10
0
 20
0
 30
0
  9
$PEXTMAX
 10
0
 20
0
 30
0
  9
$GRIDMODE
 70
    0
  9
$SNAPSTYLE
 70
    0
  9
$PLIMMIN
 10
-20
 20
-7.5
  9
$PLIMMAX
 10
277
 20
202.5
  9
$UNITMODE
 70
    0
  9
$VISRETAIN
 70
    1
  9
$PLINEGEN
 70
    0
  9
$PSLTSCALE
 70
    1
  9
$TREEDEPTH
 70
 3020
  9
$CMLSTYLE
  2
Standard
  9
$CMLJUST
 70
    0
  9
$CMLSCALE
 40
1
  9
$PROXYGRAPHICS
 70
    1
  9
$MEASUREMENT
 70
    1
  9
$CELWEIGHT
370
   -1
  9
$ENDCAPS
280
    0
  9
$JOINSTYLE
280
    0
  9
$LWDISPLAY
290
    0
  9
$INSUNITS
 70
    4
  9
$HYPERLINKBASE
  1

  9
$STYLESHEET
  1

  9
$XEDIT
290
    1
  9
$CEPSNTYPE
380
    0
  9
$PSTYLEMODE
290
    1
  9
$EXTNAMES
290
    1
  9
$PSVPSCALE
 40
0
  9
$OLESTARTUP
290
    0
  9
$SORTENTS
280
  127
  9
$INDEXCTL
280
    0
  9
$HIDETEXT
280
    1
  9
$XCLIPFRAME
290
    2
  9
$HALOGAP
280
    0
  9
$OBSCOLOR
 70
  257
  9
$OBSLTYPE
280
    0
  9
$INTERSECTIONDISPLAY
280
    0
  9
$INTERSECTIONCOLOR
 70
  257
  9
$DIMASSOC
280
    2
  9
$PROJECTNAME
  1

  9
$CAMERADISPLAY
290
    0
  9
$LENSLENGTH
 40
50
  9
$CAMERAHEIGHT
 40
0
  9
$STEPSPERSEC
 40
2
  9
$STEPSIZE
 40
6
  9
$3DDWFPREC
 40
2
  9
$PSOLWIDTH
 40
0.25
  9
$PSOLHEIGHT
 40
4
  9
$LOFTANG1
 40
1.570796326794897
  9
$LOFTANG2
 40
1.570796326794897
  9
$LOFTMAG1
 40
0
  9
$LOFTMAG2
 40
0
  9
$LOFTPARAM
 70
    7
  9
$LOFTNORMALS
280
    1
  9
$LATITUDE
 40
37.795
  9
$LONGITUDE
 40
-122.394
  9
$NORTHDIRECTION
 40
0
  9
$TIMEZONE
 70
-8000
  9
$LIGHTGLYPHDISPLAY
280
    1
  9
$TILEMODELIGHTSYNCH
280
    1
  9
$SOLIDHIST
280
    0
  9
$SHOWHIST
280
    1
  9
$DWFFRAME
280
    2
  9
$DGNFRAME
280
    2
  9
$REALWORLDSCALE
290
    1
  9
$INTERFERECOLOR
 62
  256
  9
$CSHADOW
280
    0
  9
$SHADOWPLANELOCATION
 40
0
  0
ENDSEC
  0
SECTION
  2
CLASSES
  0
ENDSEC
  0
SECTION
  2
TABLES
  0
TABLE
  2
VPORT
  5
8
330
0
100
AcDbSymbolTable
 70
    1
  0
VPORT
  5
31
330
2
100
AcDbSymbolTableRecord
100
AcDbViewportTableRecord
  2
*ACTIVE
 70
    0
 10
0
 20
0
 11
1
 21
1
 12
975.1443061923811
 22
447.034117484074
 13
0
 23
0
 14
10
 24
10
 15
10
 25
10
 16
0
 26
0
 36
1
 17
0
 27
0
 37
0
 40
1231.761228874587
 41
1.954106280193237
 42
50
 43
0
 44
0
 50
0
 51
0
 71
    0
 72
  100
 73
    1
 74
    3
 75
    0
 76
    0
 77
    0
 78
    0
281
    0
 65
    1
110
0
120
0
130
0
111
1
121
0
131
0
112
0
122
1
132
0
 79
    0
146
0
348
10020
 60
    7
 61
    5
292
1
282
    1
141
0
142
0
 63
  250
421
3358443
  0
ENDTAB
  0
TABLE
  2
LTYPE
  5
5
330
0
100
AcDbSymbolTable
 70
    4
  0
LTYPE
  5
14
330
5
100
AcDbSymbolTableRecord
100
AcDbLinetypeTableRecord
  2
ByBlock
 70
    0
  3

 72
   65
 73
    0
 40
0
  0
LTYPE
  5
15
330
5
100
AcDbSymbolTableRecord
100
AcDbLinetypeTableRecord
  2
ByLayer
 70
    0
  3

 72
   65
 73
    0
 40
0
  0
LTYPE
  5
16
330
5
100
AcDbSymbolTableRecord
100
AcDbLinetypeTableRecord
  2
Continuous
 70
    0
  3
Solid line
 72
   65
 73
    0
 40
0
  0
LTYPE
  5
32
330
5
100
AcDbSymbolTableRecord
100
AcDbLinetypeTableRecord
  2
DOT
 70
    0
  3
Dot . . . . . . . . . . . . . . . . . . . . . .
 72
   65
 73
    2
 40
6.35
 49
0
 74
    0
 49
-6.35
 74
    0
  0
LTYPE
  5
33
330
5
100
AcDbSymbolTableRecord
100
AcDbLinetypeTableRecord
  2
DOTTINY
 70
    0
  3
Dot (.15x) .....................................
 72
   65
 73
    2
 40
0.9525
 49
0
 74
    0
 49
-0.9525
 74
    0
  0
LTYPE
  5
34
330
5
100
AcDbSymbolTableRecord
100
AcDbLinetypeTableRecord
  2
DOT2
 70
    0
  3
Dot (.5x) .....................................
 72
   65
 73
    2
 40
3.175
 49
0
 74
    0
 49
-3.175
 74
    0
  0
LTYPE
  5
35
330
5
100
AcDbSymbolTableRecord
100
AcDbLinetypeTableRecord
  2
DOTX2
 70
    0
  3
Dot (2x) .  .  .  .  .  .  .  .  .  .  .  .  .
 72
   65
 73
    2
 40
12.7
 49
0
 74
    0
 49
-12.7
 74
    0
  0
LTYPE
  5
36
330
5
100
AcDbSymbolTableRecord
100
AcDbLinetypeTableRecord
  2
DASHED
 70
    0
  3
Dashed _ _ _ _ _ _ _ _ _ _ _ _ _ _ _ _ _
 72
   65
 73
    2
 40
19.05
 49
12.7
 74
    0
 49
-6.35
 74
    0
  0
LTYPE
  5
37
330
5
100
AcDbSymbolTableRecord
100
AcDbLinetypeTableRecord
  2
DASHEDTINY
 70
    0
  3
Dashed (.15x) _ _ _ _ _ _ _ _ _ _ _ _ _ _ _ _ _
 72
   65
 73
    2
 40
2.8575
 49
1.905
 74
    0
 49
-0.9525
 74
    0
  0
LTYPE
  5
38
330
5
100
AcDbSymbolTableRecord
100
AcDbLinetypeTableRecord
  2
DASHED2
 70
    0
  3
Dashed (.5x) _ _ _ _ _ _ _ _ _ _ _ _ _ _ _ _ _
 72
   65
 73
    2
 40
9.524999999999999
 49
6.35
 74
    0
 49
-3.175
 74
    0
  0
LTYPE
  5
39
330
5
100
AcDbSymbolTableRecord
100
AcDbLinetypeTableRecord
  2
DASHEDX2
 70
    0
  3
Dashed (2x) ____  ____  ____  ____  ____  ___
 72
   65
 73
    2
 40
38.09999999999999
 49
25.4
 74
    0
 49
-12.7
 74
    0
  0
LTYPE
  5
3A
330
5
100
AcDbSymbolTableRecord
100
AcDbLinetypeTableRecord
  2
DASHDOT
 70
    0
  3
Dash dot __ . __ . __ . __ . __ . __ . __ . __
 72
   65
 73
    4
 40
25.4
 49
12.7
 74
    0
 49
-6.35
 74
    0
 49
0
 74
    0
 49
-6.35
 74
    0
  0
LTYPE
  5
3B
330
5
100
AcDbSymbolTableRecord
100
AcDbLinetypeTableRecord
  2
DASHDOTTINY
 70
    0
  3
Dash dot (.15x) _._._._._._._._._._._._._._._.
 72
   65
 73
    4
 40
3.81
 49
1.905
 74
    0
 49
-0.9525
 74
    0
 49
0
 74
    0
 49
-0.9525
 74
    0
  0
LTYPE
  5
3C
330
5
100
AcDbSymbolTableRecord
100
AcDbLinetypeTableRecord
  2
DASHDOT2
 70
    0
  3
Dash dot (.5x) _._._._._._._._._._._._._._._.
 72
   65
 73
    4
 40
12.7
 49
6.35
 74
    0
 49
-3.175
 74
    0
 49
0
 74
    0
 49
-3.175
 74
    0
  0
LTYPE
  5
3D
330
5
100
AcDbSymbolTableRecord
100
AcDbLinetypeTableRecord
  2
DASHDOTX2
 70
    0
  3
Dash dot (2x) ____  .  ____  .  ____  .  ___
 72
   65
 73
    4
 40
50.8
 49
25.4
 74
    0
 49
-12.7
 74
    0
 49
0
 74
    0
 49
-12.7
 74
    0
  0
LTYPE
  5
3E
330
5
100
AcDbSymbolTableRecord
100
AcDbLinetypeTableRecord
  2
DIVIDE
 70
    0
  3
Divide ____ . . ____ . . ____ . . ____ . . ____
 72
   65
 73
    6
 40
31.75
 49
12.7
 74
    0
 49
-6.35
 74
    0
 49
0
 74
    0
 49
-6.35
 74
    0
 49
0
 74
    0
 49
-6.35
 74
    0
  0
LTYPE
  5
3F
330
5
100
AcDbSymbolTableRecord
100
AcDbLinetypeTableRecord
  2
DIVIDETINY
 70
    0
  3
Divide (.15x) __..__..__..__..__..__..__..__.._
 72
   65
 73
    6
 40
4.7625
 49
1.905
 74
    0
 49
-0.9525
 74
    0
 49
0
 74
    0
 49
-0.9525
 74
    0
 49
0
 74
    0
 49
-0.9525
 74
    0
  0
LTYPE
  5
40
330
5
100
AcDbSymbolTableRecord
100
AcDbLinetypeTableRecord
  2
DIVIDE2
 70
    0
  3
Divide (.5x) __..__..__..__..__..__..__..__.._
 72
   65
 73
    6
 40
15.875
 49
6.35
 74
    0
 49
-3.175
 74
    0
 49
0
 74
    0
 49
-3.175
 74
    0
 49
0
 74
    0
 49
-3.175
 74
    0
  0
LTYPE
  5
41
330
5
100
AcDbSymbolTableRecord
100
AcDbLinetypeTableRecord
  2
DIVIDEX2
 70
    0
  3
Divide (2x) ________  .  .  ________  .  .  _
 72
   65
 73
    6
 40
63.5
 49
25.4
 74
    0
 49
-12.7
 74
    0
 49
0
 74
    0
 49
-12.7
 74
    0
 49
0
 74
    0
 49
-12.7
 74
    0
  0
LTYPE
  5
42
330
5
100
AcDbSymbolTableRecord
100
AcDbLinetypeTableRecord
  2
BORDER
 70
    0
  3
Border __ __ . __ __ . __ __ . __ __ . __ __ .
 72
   65
 73
    6
 40
44.45
 49
12.7
 74
    0
 49
-6.35
 74
    0
 49
12.7
 74
    0
 49
-6.35
 74
    0
 49
0
 74
    0
 49
-6.35
 74
    0
  0
LTYPE
  5
43
330
5
100
AcDbSymbolTableRecord
100
AcDbLinetypeTableRecord
  2
BORDERTINY
 70
    0
  3
Border (.15x) __.__.__.__.__.__.__.__.__.__.__.
 72
   65
 73
    6
 40
6.6675
 49
1.905
 74
    0
 49
-0.9525
 74
    0
 49
1.905
 74
    0
 49
-0.9525
 74
    0
 49
0
 74
    0
 49
-0.9525
 74
    0
  0
LTYPE
  5
44
330
5
100
AcDbSymbolTableRecord
100
AcDbLinetypeTableRecord
  2
BORDER2
 70
    0
  3
Border (.5x) __.__.__.__.__.__.__.__.__.__.__.
 72
   65
 73
    6
 40
22.225
 49
6.35
 74
    0
 49
-3.175
 74
    0
 49
6.35
 74
    0
 49
-3.175
 74
    0
 49
0
 74
    0
 49
-3.175
 74
    0
  0
LTYPE
  5
45
330
5
100
AcDbSymbolTableRecord
100
AcDbLinetypeTableRecord
  2
BORDERX2
 70
    0
  3
Border (2x) ____  ____  .  ____  ____  .  ___
 72
   65
 73
    6
 40
88.89999999999999
 49
25.4
 74
    0
 49
-12.7
 74
    0
 49
25.4
 74
    0
 49
-12.7
 74
    0
 49
0
 74
    0
 49
-12.7
 74
    0
  0
LTYPE
  5
46
330
5
100
AcDbSymbolTableRecord
100
AcDbLinetypeTableRecord
  2
CENTER
 70
    0
  3
Center ____ _ ____ _ ____ _ ____ _ ____ _ ____
 72
   65
 73
    4
 40
50.8
 49
31.75
 74
    0
 49
-6.35
 74
    0
 49
6.35
 74
    0
 49
-6.35
 74
    0
  0
LTYPE
  5
47
330
5
100
AcDbSymbolTableRecord
100
AcDbLinetypeTableRecord
  2
CENTERTINY
 70
    0
  3
Center (.15x) ___ _ ___ _ ___ _ ___ _ ___ _ ___
 72
   65
 73
    4
 40
7.619999999999999
 49
4.7625
 74
    0
 49
-0.9525
 74
    0
 49
0.9525
 74
    0
 49
-0.9525
 74
    0
  0
LTYPE
  5
48
330
5
100
AcDbSymbolTableRecord
100
AcDbLinetypeTableRecord
  2
CENTER2
 70
    0
  3
Center (.5x) ___ _ ___ _ ___ _ ___ _ ___ _ ___
 72
   65
 73
    4
 40
28.575
 49
19.05
 74
    0
 49
-3.175
 74
    0
 49
3.175
 74
    0
 49
-3.175
 74
    0
  0
LTYPE
  5
49
330
5
100
AcDbSymbolTableRecord
100
AcDbLinetypeTableRecord
  2
CENTERX2
 70
    0
  3
Center (2x) ________  __  ________  __  _____
 72
   65
 73
    4
 40
101.6
 49
63.5
 74
    0
 49
-12.7
 74
    0
 49
12.7
 74
    0
 49
-12.7
 74
    0
  0
ENDTAB
  0
TABLE
  2
LAYER
  5
2
330
0
100
AcDbSymbolTable
 70
    1
  0
LAYER
  5
10
330
2
100
AcDbSymbolTableRecord
100
AcDbLayerTableRecord
  2
0
 70
    0
 62
    7
  6
CONTINUOUS
370
   25
390
F
  0
ENDTAB
  0
TABLE
  2
STYLE
  5
3
330
0
100
AcDbSymbolTable
 70
    3
  0
STYLE
  5
4A
330
2
100
AcDbSymbolTableRecord
100
AcDbTextStyleTableRecord
  2
Standard
 70
    0
 40
0
 41
1
 50
0
 71
    0
 42
1
  3
txt
  4

  0
ENDTAB
  0
TABLE
  2
VIEW
  5
6
330
0
100
AcDbSymbolTable
 70
    0
  0
ENDTAB
  0
TABLE
  2
UCS
  5
7
330
0
100
AcDbSymbolTable
 70
    0
  0
ENDTAB
  0
TABLE
  2
APPID
  5
9
330
0
100
AcDbSymbolTable
 70
    1
  0
APPID
  5
12
330
9
100
AcDbSymbolTableRecord
100
AcDbRegAppTableRecord
  2
ACAD
 70
    0
  0
APPID
  5
4B
330
9
100
AcDbSymbolTableRecord
100
AcDbRegAppTableRecord
  2
LibreCad
 70
    0
  0
ENDTAB
  0
TABLE
  2
DIMSTYLE
  5
A
330
0
100
AcDbSymbolTable
 70
    1
100
AcDbDimStyleTable
 71
    1
  0
DIMSTYLE
105
4C
330
A
100
AcDbSymbolTableRecord
100
AcDbDimStyleTableRecord
  2
Standard
 70
    0
 40
1
 41
2.5
 42
0.625
 43
0.38
 44
1.25
 45
0
 46
0
 47
0
 48
0
 49
1
140
2.5
141
0.09
142
0
143
25.4
144
1
145
0
146
1
147
0.625
148
0
 71
    0
 72
    0
 73
    1
 74
    1
 75
    0
 76
    0
 77
    0
 78
    8
 79
    2
170
    0
171
    2
172
    0
173
    0
174
    0
175
    0
176
    0
177
    0
178
    0
179
    0
271
    4
272
    4
273
    2
274
    2
275
    0
276
    0
277
    2
278
   46
279
    0
280
    0
281
    0
282
    0
283
    1
284
    0
285
    0
286
    0
288
    0
289
    3
340
Standard
341

371
   -2
372
   -2
  0
ENDTAB
  0
TABLE
  2
BLOCK_RECORD
  5
1
330
0
100
AcDbSymbolTable
 70
    2
  0
BLOCK_RECORD
  5
1F
330
1
100
AcDbSymbolTableRecord
100
AcDbBlockTableRecord
  2
*Model_Space
 70
    0
280
    1
281
    0
  0
BLOCK_RECORD
  5
1E
330
1
100
AcDbSymbolTableRecord
100
AcDbBlockTableRecord
  2
*Paper_Space
 70
    0
280
    1
281
    0
  0
ENDTAB
  0
ENDSEC
  0
SECTION
  2
BLOCKS
  0
BLOCK
  5
20
330
1F
100
AcDbEntity
  8
0
100
AcDbBlockBegin
  2
*Model_Space
 70
    0
 10
0
 20
0
 30
0
  3
*Model_Space
  1

  0
ENDBLK
  5
21
330
1F
100
AcDbEntity
  8
0
100
AcDbBlockEnd
  0
BLOCK
  5
1C
330
1B
100
AcDbEntity
  8
0
100
AcDbBlockBegin
  2
*Paper_Space
 70
    0
 10
0
 20
0
 30
0
  3
*Paper_Space
  1

  0
ENDBLK
  5
1D
330
1F
100
AcDbEntity
  8
0
100
AcDbBlockEnd
  0
ENDSEC
  0
SECTION
  2
ENTITIES
  0
LWPOLYLINE
  5
4D
100
AcDbEntity
  8
0
  6
ByLayer
 62
  256
370
   -1
100
AcDbPolyline
 90
    8
 70
    1
 43
0
 10
68.91421356237294
 20
93.5
 10
68.91421356237294
 20
93.49999999999996
 10
68.91421356237296
 20
230.4999999999999
 10
68.91421356237301
 20
230.4999999999999
 10
247.6715728752537
 20
230.4999999999999
 10
251.0857864376268
 20
230.4999999999999
 10
251.0857864376268
 20
93.49999999999994
 10
247.6715728752537
 20
93.49999999999996
  0
LWPOLYLINE
  5
4E
100
AcDbEntity
  8
0
  6
ByLayer
 62
  256
370
   -1
100
AcDbPolyline
 90
    4
 70
    1
 43
0
 10
68.91421356237296
 20
237.9
 10
68.91421356237296
 20
295.9
 10
251.0857864376268
 20
295.9
 10
251.0857864376268
 20
237.9
  0
LWPOLYLINE
  5
4F
100
AcDbEntity
  8
0
  6
ByLayer
 62
  256
370
   -1
100
AcDbPolyline
 90
    8
 70
    1
 43
0
 10
61.51421356237296
 20
93.49999999999994
 10
38.5142135623732
 20
104.2250761375649
 10
28.51421356237319
 20
119.2250761375649
 10
3.514213562373186
 20
130.8827675914399
 10
3.514213562373186
 20
193.11723240856
 10
28.5142135623733
 20
204.774923862435
 10
38.5142135623733
 20
219.774923862435
 10
61.51421356237296
 20
230.4999999999999
  0
CIRCLE
  5
50
100
AcDbEntity
  8
0
  6
ByLayer
 62
  256
370
   -1
100
AcDbCircle
 10
35.272549773145
 20
288.5524600000001
 40
2.249999999999996
  0
LWPOLYLINE
  5
51
100
AcDbEntity
  8
0
  6
ByLayer
 62
  256
370
   -1
100
AcDbPolyline
 90
    4
 70
    1
 43
0
 10
123.0000000000022
 20
21.09999999999999
 10
123.0000000000023
 20
33.09999999999989
 42
0.9999999999999999
 10
116.9999999999975
 20
33.09999999999989
 10
116.9999999999975
 20
21.09999999999999
 42
0.9999999999999999
  0
LWPOLYLINE
  5
52
100
AcDbEntity
  8
0
  6
ByLayer
 62
  256
370
   -1
100
AcDbPolyline
 90
    4
 70
    1
 43
0
 10
169.9999999999999
 20
40.59999999999989
 10
199.9999999999999
 20
40.59999999999989
 42
0.9999999999999999
 10
199.9999999999999
 20
46.59999999999999
 10
169.9999999999999
 20
46.59999999999999
 42
0.9999999999999999
  0
CIRCLE
  5
53
100
AcDbEntity
  8
0
  6
ByLayer
 62
  256
370
   -1
100
AcDbCircle
 10
44.8617535623732
 20
108.9092450692638
 40
2.250000000000001
  0
LWPOLYLINE
  5
54
100
AcDbEntity
  8
0
  6
ByLayer
 62
  256
370
   -1
100
AcDbPolyline
 90
    4
 70
    1
 43
0
 10
144.9999999999999
 20
63.09999999999989
 10
174.9999999999999
 20
63.09999999999991
 42
0.9999999999999999
 10
174.9999999999999
 20
69.09999999999994
 10
144.9999999999999
 20
69.09999999999994
 42
0.9999999999999999
  0
CIRCLE
  5
55
100
AcDbEntity
  8
0
  6
ByLayer
 62
  256
370
   -1
100
AcDbCircle
 10
44.86175356237329
 20
215.0907549307361
 40
2.249999999999996
  0
LWPOLYLINE
  5
56
100
AcDbEntity
  8
0
  6
ByLayer
 62
  256
370
   -1
100
AcDbPolyline
 90
    4
 70
    1
 43
0
 10
144.9999999999999
 20
18.09999999999991
 10
174.9999999999999
 20
18.09999999999999
 42
0.9999999999999999
 10
174.9999999999999
 20
24.09999999999989
 10
144.9999999999999
 20
24.09999999999999
 42
0.9999999999999999
  0
CIRCLE
  5
57
100
AcDbEntity
  8
0
  6
ByLayer
 62
  256
370
   -1
100
AcDbCircle
 10
10.8617535623732
 20
178.09220808846
 40
2.249999999999996
  0
LWPOLYLINE
  5
58
100
AcDbEntity
  8
0
  6
ByLayer
 62
  256
370
   -1
100
AcDbPolyline
 90
    4
 70
    1
 43
0
 10
119.9999999999999
 20
40.59999999999989
 10
149.9999999999999
 20
40.59999999999989
 42
0.9999999999999999
 10
149.9999999999999
 20
46.59999999999999
 10
119.9999999999999
 20
46.59999999999989
 42
0.9999999999999999
  0
CIRCLE
  5
59
100
AcDbEntity
  8
0
  6
ByLayer
 62
  256
370
   -1
100
AcDbCircle
 10
10.8617535623732
 20
145.9077919115399
 40
2.250000000000001
  0
LWPOLYLINE
  5
5A
100
AcDbEntity
  8
0
  6
ByLayer
 62
  256
370
   -1
100
AcDbPolyline
 90
    4
 70
    1
 43
0
 10
202.9999999999999
 20
54.09999999999992
 10
202.9999999999999
 20
66.09999999999994
 42
0.9999999999999999
 10
196.9999999999999
 20
66.09999999999994
 10
197
 20
54.09999999999992
 42
0.9999999999999999
  0
LWPOLYLINE
  5
5B
100
AcDbEntity
  8
0
  6
ByLayer
 62
  256
370
   -1
100
AcDbPolyline
 90
    4
 70
    1
 43
0
 10
122.9999999999972
 20
54.09999999999989
 10
122.9999999999972
 20
66.09999999999989
 42
0.9999999999999999
 10
117.0000000000026
 20
66.09999999999989
 10
117.0000000000026
 20
54.09999999999989
 42
0.9999999999999999
  0
LWPOLYLINE
  5
5C
100
AcDbEntity
  8
0
  6
ByLayer
 62
  256
370
   -1
100
AcDbPolyline
 90
    4
 70
    1
 43
0
 10
203.0000000000002
 20
21.09999999999999
 10
202.9999999999998
 20
33.09999999999999
 42
0.9999999999999997
 10
196.9999999999993
 20
33.0999999999998
 10
196.9999999999996
 20
21.09999999999991
 42
0.999999999999999
  0
LWPOLYLINE
  5
5D
100
AcDbEntity
  8
0
  6
ByLayer
 62
  256
370
   -1
100
AcDbPolyline
 90
   12
 70
    1
 43
0
 10
68.91421356237296
 20
28.09999999999989
 10
68.91421356237296
 20
86.09999999999994
 10
251.0857864376268
 20
86.09999999999994
 10
251.0857864376268
 20
28.09999999999989
 10
233.8516893285813
 20
28.09999999999989
 42
0.1494510013491316
 10
229.3781461008153
 20
26.7323005804402
 10
197.8520784087036
 20
5.467699419559697
 42
-0.149451001349137
 10
193.3785351809375
 20
4.099999999999993
 10
126.6214648190623
 20
4.099999999999993
 42
-0.1494510013491315
 10
122.1479215912963
 20
5.467699419559696
 10
90.62185389918444
 20
26.7323005804402
 42
0.1494510013491296
 10
86.14831067141841
 20
28.09999999999989
  0
LWPOLYLINE
  5
5E
100
AcDbEntity
  8
0
  6
ByLayer
 62
  256
370
   -1
100
AcDbPolyline
 90
    5
 70
    1
 43
0
 10
50.789137424808
 20
63.10000000000022
 10
61.51421356237293
 20
86.09999999999994
 10
61.51421356237293
 20
28.09999999999989
 10
24.1314459709329
 20
28.10000000000019
 10
35.789137424808
 20
53.10000000000022
  0
LWPOLYLINE
  5
5F
100
AcDbEntity
  8
0
  6
ByLayer
 62
  256
370
   -1
100
AcDbPolyline
 90
    5
 70
    1
 43
0
 10
269.2108625751918
 20
260.9
 10
258.4857864376268
 20
237.9
 10
258.4857864376268
 20
295.9
 10
295.8685540290671
 20
295.8999999999999
 10
284.2108625751919
 20
270.8999999999998
  0
LWPOLYLINE
  5
60
100
AcDbEntity
  8
0
  6
ByLayer
 62
  256
370
   -1
100
AcDbPolyline
 90
    5
 70
    1
 43
0
 10
50.789137424808
 20
260.8999999999998
 10
61.51421356237296
 20
237.9
 10
61.51421356237296
 20
295.9
 10
24.1314459709327
 20
295.9
 10
35.7891374248079
 20
270.8999999999998
  0
CIRCLE
  5
61
100
AcDbEntity
  8
0
  6
ByLayer
 62
  256
370
   -1
100
AcDbCircle
 10
35.2725497731452
 20
35.4475400000002
 40
2.25
  0
LWPOLYLINE
  5
62
100
AcDbEntity
  8
0
  6
ByLayer
 62
  256
370
   -1
100
AcDbPolyline
 90
    8
 70
    1
 43
0
 10
281.4857864376269
 20
104.2250761375648
 10
258.4857864376268
 20
93.49999999999987
 10
258.4857864376268
 20
230.4999999999999
 10
281.4857864376268
 20
219.7749238624349
 10
291.4857864376268
 20
204.7749238624349
 10
316.4857864376268
 20
193.1172324085599
 10
316.4857864376268
 20
130.8827675914399
 10
291.4857864376269
 20
119.2250761375648
  0
CIRCLE
  5
63
100
AcDbEntity
  8
0
  6
ByLayer
 62
  256
370
   -1
100
AcDbCircle
 10
284.7274502268548
 20
288.5524599999999
 40
2.249999999999996
  0
CIRCLE
  5
64
100
AcDbEntity
  8
0
  6
ByLayer
 62
  256
370
   -1
100
AcDbCircle
 10
309.1382464376268
 20
145.9077919115398
 40
2.250000000000001
  0
CIRCLE
  5
65
100
AcDbEntity
  8
0
  6
ByLayer
 62
  256
370
   -1
100
AcDbCircle
 10
309.1382464376268
 20
178.0922080884599
 40
2.249999999999996
  0
LWPOLYLINE
  5
66
100
AcDbEntity
  8
0
  6
ByLayer
 62
  256
370
   -1
100
AcDbPolyline
 90
    5
 70
    1
 43
0
 10
258.4857864376268
 20
86.09999999999988
 10
269.2108625751917
 20
63.09999999999984
 10
284.2108625751917
 20
53.09999999999984
 10
295.8685540290667
 20
28.0999999999998
 10
258.4857864376268
 20
28.09999999999989
  0
CIRCLE
  5
67
100
AcDbEntity
  8
0
  6
ByLayer
 62
  256
370
   -1
100
AcDbCircle
 10
275.1382464376268
 20
215.0907549307361
 40
2.249999999999996
  0
CIRCLE
  5
68
100
AcDbEntity
  8
0
  6
ByLayer
 62
  256
370
   -1
100
AcDbCircle
 10
275.1382464376268
 20
108.9092450692637
 40
2.250000000000001
  0
LWPOLYLINE
  5
69
100
AcDbEntity
  8
0
  6
ByLayer
 62
  256
370
   -1
100
AcDbPolyline
 90
    4
 70
    1
 43
0
 10
68.91421356237296
 20
230.4999999999999
 10
68.91421356237296
 20
237.9
 10
251.0857864376268
 20
237.9
 10
251.0857864376268
 20
230.4999999999999
  0
LWPOLYLINE
  5
6A
100
AcDbEntity
  8
0
  6
ByLayer
 62
  256
370
   -1
100
AcDbPolyline
 90
    4
 70
    1
 43
0
 10
68.91421356237294
 20
93.5
 10
68.91421356237294
 20
86.09999999999994
 10
251.0857864376268
 20
86.09999999999994
 10
251.0857864376268
 20
93.49999999999993
  0
CIRCLE
  5
6B
100
AcDbEntity
  8
0
  6
ByLayer
 62
  256
370
   -1
100
AcDbCircle
 10
284.7274502268544
 20
35.4475399999998
 40
2.25
  0
LWPOLYLINE
  5
6C
100
AcDbEntity
  8
0
  6
ByLayer
 62
  256
370
   -1
100
AcDbPolyline
 90
    4
 70
    1
 43
0
 10
61.51421356237296
 20
93.49999999999994
 10
61.51421356237297
 20
230.4999999999999
 10
68.91421356237301
 20
230.4999999999999
 10
68.91421356237294
 20
93.5
  0
LWPOLYLINE
  5
6D
100
AcDbEntity
  8
0
  6
ByLayer
 62
  256
370
   -1
100
AcDbPolyline
 90
    4
 70
    1
 43
0
 10
258.4857864376268
 20
230.4999999999999
 10
258.4857864376268
 20
93.5
 10
251.0857864376269
 20
93.49999999999986
 10
251.0857864376268
 20
230.4999999999999
  0
LWPOLYLINE
  5
6E
100
AcDbEntity
  8
0
  6
ByLayer
 62
  256
370
   -1
100
AcDbPolyline
 90
    4
 70
    1
 43
0
 10
258.4857864376269
 20
295.9
 10
258.4857864376268
 20
237.9
 10
251.0857864376268
 20
237.9
 10
251.0857864376269
 20
295.9
  0
LWPOLYLINE
  5
6F
100
AcDbEntity
  8
0
  6
ByLayer
 62
  256
370
   -1
100
AcDbPolyline
 90
    4
 70
    1
 43
0
 10
61.51421356237293
 20
295.9
 10
61.51421356237297
 20
237.9
 10
68.91421356237294
 20
237.9000000000001
 10
68.91421356237294
 20
295.9
  0
LWPOLYLINE
  5
70
100
AcDbEntity
  8
0
  6
ByLayer
 62
  256
370
   -1
100
AcDbPolyline
 90
    4
 70
    1
 43
0
 10
61.5142135623729
 20
28.09999999999989
 10
61.51421356237293
 20
86.09999999999994
 10
68.91421356237294
 20
86.09999999999984
 10
68.91421356237288
 20
28.09999999999999
  0
LWPOLYLINE
  5
71
100
AcDbEntity
  8
0
  6
ByLayer
 62
  256
370
   -1
100
AcDbPolyline
 90
    4
 70
    1
 43
0
 10
258.4857864376268
 20
28.09999999999989
 10
258.4857864376268
 20
86.09999999999988
 10
251.0857864376268
 20
86.09999999999994
 10
251.0857864376268
 20
28.09999999999989
  0
LINE
  5
72
100
AcDbEntity
  8
0
  6
ByLayer
 62
  256
370
   -1
100
AcDbLine
 10
254.7857864376268
 20
89.79999999999998
 11
65.21421356237296
 21
89.79999999999998
  0
LINE
  5
73
100
AcDbEntity
  8
0
  6
ByLayer
 62
  256
370
   -1
100
AcDbLine
 10
65.21421356237296
 20
89.79999999999998
 11
65.21421356237296
 21
234.2
  0
LINE
  5
74
100
AcDbEntity
  8
0
  6
ByLayer
 62
  256
370
   -1
100
AcDbLine
 10
65.21421356237296
 20
234.2
 11
254.7857864376268
 21
234.2
  0
CIRCLE
  5
75
100
AcDbEntity
  8
0
  6
ByLayer
 62
  256
370
   -1
100
AcDbCircle
 10
49.71100892548159
 20
195.5240000000019
 40
4.249999999999998
  0
LINE
  5
76
100
AcDbEntity
  8
0
  6
ByLayer
 62
  256
370
   -1
100
AcDbLine
 10
254.7857864376268
 20
234.2
 11
254.7857864376268
 21
89.79999999999998
  0
CIRCLE
  5
77
100
AcDbEntity
  8
0
  6
ByLayer
 62
  256
370
   -1
100
AcDbCircle
 10
45.4902135623712
 20
38.2967953631086
 40
4.25
  0
LINE
  5
78
100
AcDbEntity
  8
0
  6
ByLayer
 62
  256
370
   -1
100
AcDbLine
 10
65.21421356237296
 20
234.2
 11
65.21421356237293
 21
295.9
  0
LINE
  5
79
100
AcDbEntity
  8
0
  6
ByLayer
 62
  256
370
   -1
100
AcDbLine
 10
254.7857864376268
 20
234.2
 11
254.7857864376269
 21
295.9
  0
LINE
  5
7A
100
AcDbEntity
  8
0
  6
ByLayer
 62
  256
370
   -1
100
AcDbLine
 10
254.7857864376268
 20
89.79999999999998
 11
254.7857864376268
 21
28.09999999999989
  0
LINE
  5
7B
100
AcDbEntity
  8
0
  6
ByLayer
 62
  256
370
   -1
100
AcDbLine
 10
65.21421356237296
 20
89.79999999999998
 11
65.21421356237289
 21
28.09999999999989
  0
LWPOLYLINE
  5
7C
100
AcDbEntity
  8
0
  6
ByLayer
 62
  256
370
   -1
100
AcDbPolyline
 90
    4
 70
    1
 43
0
 10
0
 20
0
 10
1000
 20
0
 10
1000
 20
600
 10
0
 20
600
  0
LWPOLYLINE
  5
7D
100
AcDbEntity
  8
0
  6
ByLayer
 62
  256
370
   -1
100
AcDbPolyline
 90
    8
 70
    1
 43
0
 10
68.91421356237294
 20
390.9513940209204
 10
68.91421356237294
 20
390.9513940209204
 10
68.91421356237296
 20
527.9513940209204
 10
68.91421356237301
 20
527.9513940209204
 10
247.6715728752537
 20
527.9513940209204
 10
251.0857864376268
 20
527.9513940209204
 10
251.0857864376268
 20
390.9513940209204
 10
247.6715728752537
 20
390.9513940209204
  0
LWPOLYLINE
  5
7E
100
AcDbEntity
  8
0
  6
ByLayer
 62
  256
370
   -1
100
AcDbPolyline
 90
    4
 70
    1
 43
0
 10
68.91421356237296
 20
535.3513940209205
 10
68.91421356237296
 20
593.3513940209205
 10
251.0857864376268
 20
593.3513940209205
 10
251.0857864376268
 20
535.3513940209205
  0
LWPOLYLINE
  5
7F
100
AcDbEntity
  8
0
  6
ByLayer
 62
  256
370
   -1
100
AcDbPolyline
 90
    8
 70
    1
 43
0
 10
61.51421356237296
 20
390.9513940209204
 10
38.5142135623732
 20
401.6764701584853
 10
28.51421356237319
 20
416.6764701584853
 10
3.514213562373186
 20
428.3341616123603
 10
3.514213562373186
 20
490.5686264294804
 10
28.5142135623733
 20
502.2263178833554
 10
38.5142135623733
 20
517.2263178833555
 10
61.51421356237296
 20
527.9513940209204
  0
CIRCLE
  5
80
100
AcDbEntity
  8
0
  6
ByLayer
 62
  256
370
   -1
100
AcDbCircle
 10
35.272549773145
 20
586.0038540209205
 40
2.249999999999996
  0
LWPOLYLINE
  5
81
100
AcDbEntity
  8
0
  6
ByLayer
 62
  256
370
   -1
100
AcDbPolyline
 90
    4
 70
    1
 43
0
 10
123.0000000000022
 20
318.5513940209204
 10
123.0000000000023
 20
330.5513940209203
 42
0.9999999999999999
 10
116.9999999999975
 20
330.5513940209203
 10
116.9999999999975
 20
318.5513940209204
 42
0.9999999999999999
  0
LWPOLYLINE
  5
82
100
AcDbEntity
  8
0
  6
ByLayer
 62
  256
370
   -1
100
AcDbPolyline
 90
    4
 70
    1
 43
0
 10
169.9999999999999
 20
338.0513940209203
 10
199.9999999999999
 20
338.0513940209203
 42
0.9999999999999999
 10
199.9999999999999
 20
344.0513940209204
 10
169.9999999999999
 20
344.0513940209204
 42
0.9999999999999999
  0
CIRCLE
  5
83
100
AcDbEntity
  8
0
  6
ByLayer
 62
  256
370
   -1
100
AcDbCircle
 10
44.8617535623732
 20
406.3606390901842
 40
2.250000000000001
  0
LWPOLYLINE
  5
84
100
AcDbEntity
  8
0
  6
ByLayer
 62
  256
370
   -1
100
AcDbPolyline
 90
    4
 70
    1
 43
0
 10
144.9999999999999
 20
360.5513940209203
 10
174.9999999999999
 20
360.5513940209203
 42
0.9999999999999999
 10
174.9999999999999
 20
366.5513940209204
 10
144.9999999999999
 20
366.5513940209203
 42
0.9999999999999999
  0
CIRCLE
  5
85
100
AcDbEntity
  8
0
  6
ByLayer
 62
  256
370
   -1
100
AcDbCircle
 10
44.86175356237329
 20
512.5421489516565
 40
2.249999999999996
  0
LWPOLYLINE
  5
86
100
AcDbEntity
  8
0
  6
ByLayer
 62
  256
370
   -1
100
AcDbPolyline
 90
    4
 70
    1
 43
0
 10
144.9999999999999
 20
315.5513940209203
 10
174.9999999999999
 20
315.5513940209204
 42
0.9999999999999999
 10
174.9999999999999
 20
321.5513940209203
 10
144.9999999999999
 20
321.5513940209204
 42
0.9999999999999999
  0
CIRCLE
  5
87
100
AcDbEntity
  8
0
  6
ByLayer
 62
  256
370
   -1
100
AcDbCircle
 10
10.8617535623732
 20
475.5436021093805
 40
2.249999999999996
  0
LWPOLYLINE
  5
88
100
AcDbEntity
  8
0
  6
ByLayer
 62
  256
370
   -1
100
AcDbPolyline
 90
    4
 70
    1
 43
0
 10
119.9999999999999
 20
338.0513940209203
 10
149.9999999999999
 20
338.0513940209203
 42
0.9999999999999999
 10
149.9999999999999
 20
344.0513940209204
 10
119.9999999999999
 20
344.0513940209203
 42
0.9999999999999999
  0
CIRCLE
  5
89
100
AcDbEntity
  8
0
  6
ByLayer
 62
  256
370
   -1
100
AcDbCircle
 10
10.8617535623732
 20
443.3591859324603
 40
2.250000000000001
  0
LWPOLYLINE
  5
8A
100
AcDbEntity
  8
0
  6
ByLayer
 62
  256
370
   -1
100
AcDbPolyline
 90
    4
 70
    1
 43
0
 10
202.9999999999999
 20
351.5513940209203
 10
202.9999999999999
 20
363.5513940209204
 42
0.9999999999999999
 10
196.9999999999999
 20
363.5513940209204
 10
197
 20
351.5513940209203
 42
0.9999999999999999
  0
LWPOLYLINE
  5
8B
100
AcDbEntity
  8
0
  6
ByLayer
 62
  256
370
   -1
100
AcDbPolyline
 90
    4
 70
    1
 43
0
 10
122.9999999999972
 20
351.5513940209203
 10
122.9999999999972
 20
363.5513940209203
 42
0.9999999999999999
 10
117.0000000000026
 20
363.5513940209203
 10
117.0000000000026
 20
351.5513940209203
 42
0.9999999999999999
  0
LWPOLYLINE
  5
8C
100
AcDbEntity
  8
0
  6
ByLayer
 62
  256
370
   -1
100
AcDbPolyline
 90
    4
 70
    1
 43
0
 10
203.0000000000002
 20
318.5513940209204
 10
202.9999999999998
 20
330.5513940209204
 42
0.9999999999999997
 10
196.9999999999993
 20
330.5513940209202
 10
196.9999999999996
 20
318.5513940209203
 42
0.999999999999999
  0
LWPOLYLINE
  5
8D
100
AcDbEntity
  8
0
  6
ByLayer
 62
  256
370
   -1
100
AcDbPolyline
 90
   12
 70
    1
 43
0
 10
68.91421356237296
 20
325.5513940209203
 10
68.91421356237296
 20
383.5513940209204
 10
251.0857864376268
 20
383.5513940209204
 10
251.0857864376268
 20
325.5513940209203
 10
233.8516893285813
 20
325.5513940209203
 42
0.1494510013491316
 10
229.3781461008153
 20
324.1836946013606
 10
197.8520784087036
 20
302.9190934404801
 42
-0.149451001349137
 10
193.3785351809375
 20
301.5513940209204
 10
126.6214648190623
 20
301.5513940209204
 42
-0.1494510013491315
 10
122.1479215912963
 20
302.9190934404801
 10
90.62185389918444
 20
324.1836946013606
 42
0.1494510013491296
 10
86.14831067141841
 20
325.5513940209203
  0
LWPOLYLINE
  5
8E
100
AcDbEntity
  8
0
  6
ByLayer
 62
  256
370
   -1
100
AcDbPolyline
 90
    5
 70
    1
 43
0
 10
50.789137424808
 20
360.5513940209206
 10
61.51421356237293
 20
383.5513940209204
 10
61.51421356237293
 20
325.5513940209203
 10
24.1314459709329
 20
325.5513940209206
 10
35.789137424808
 20
350.5513940209206
  0
LWPOLYLINE
  5
8F
100
AcDbEntity
  8
0
  6
ByLayer
 62
  256
370
   -1
100
AcDbPolyline
 90
    5
 70
    1
 43
0
 10
269.2108625751918
 20
558.3513940209205
 10
258.4857864376268
 20
535.3513940209205
 10
258.4857864376268
 20
593.3513940209205
 10
295.8685540290671
 20
593.3513940209203
 10
284.2108625751919
 20
568.3513940209202
  0
LWPOLYLINE
  5
90
100
AcDbEntity
  8
0
  6
ByLayer
 62
  256
370
   -1
100
AcDbPolyline
 90
    5
 70
    1
 43
0
 10
50.789137424808
 20
558.3513940209202
 10
61.51421356237296
 20
535.3513940209205
 10
61.51421356237296
 20
593.3513940209205
 10
24.1314459709327
 20
593.3513940209205
 10
35.7891374248079
 20
568.3513940209202
  0
CIRCLE
  5
91
100
AcDbEntity
  8
0
  6
ByLayer
 62
  256
370
   -1
100
AcDbCircle
 10
35.2725497731452
 20
332.8989340209206
 40
2.25
  0
LWPOLYLINE
  5
92
100
AcDbEntity
  8
0
  6
ByLayer
 62
  256
370
   -1
100
AcDbPolyline
 90
    8
 70
    1
 43
0
 10
281.4857864376269
 20
401.6764701584852
 10
258.4857864376268
 20
390.9513940209203
 10
258.4857864376268
 20
527.9513940209204
 10
281.4857864376268
 20
517.2263178833553
 10
291.4857864376268
 20
502.2263178833553
 10
316.4857864376268
 20
490.5686264294803
 10
316.4857864376268
 20
428.3341616123603
 10
291.4857864376269
 20
416.6764701584852
  0
CIRCLE
  5
93
100
AcDbEntity
  8
0
  6
ByLayer
 62
  256
370
   -1
100
AcDbCircle
 10
284.7274502268548
 20
586.0038540209202
 40
2.249999999999996
  0
CIRCLE
  5
94
100
AcDbEntity
  8
0
  6
ByLayer
 62
  256
370
   -1
100
AcDbCircle
 10
309.1382464376268
 20
443.3591859324602
 40
2.250000000000001
  0
CIRCLE
  5
95
100
AcDbEntity
  8
0
  6
ByLayer
 62
  256
370
   -1
100
AcDbCircle
 10
309.1382464376268
 20
475.5436021093803
 40
2.249999999999996
  0
LWPOLYLINE
  5
96
100
AcDbEntity
  8
0
  6
ByLayer
 62
  256
370
   -1
100
AcDbPolyline
 90
    5
 70
    1
 43
0
 10
258.4857864376268
 20
383.5513940209203
 10
269.2108625751917
 20
360.5513940209203
 10
284.2108625751917
 20
350.5513940209203
 10
295.8685540290667
 20
325.5513940209202
 10
258.4857864376268
 20
325.5513940209203
  0
CIRCLE
  5
97
100
AcDbEntity
  8
0
  6
ByLayer
 62
  256
370
   -1
100
AcDbCircle
 10
275.1382464376268
 20
512.5421489516565
 40
2.249999999999996
  0
CIRCLE
  5
98
100
AcDbEntity
  8
0
  6
ByLayer
 62
  256
370
   -1
100
AcDbCircle
 10
275.1382464376268
 20
406.3606390901841
 40
2.250000000000001
  0
LWPOLYLINE
  5
99
100
AcDbEntity
  8
0
  6
ByLayer
 62
  256
370
   -1
100
AcDbPolyline
 90
    4
 70
    1
 43
0
 10
68.91421356237296
 20
527.9513940209204
 10
68.91421356237296
 20
535.3513940209205
 10
251.0857864376268
 20
535.3513940209205
 10
251.0857864376268
 20
527.9513940209204
  0
LWPOLYLINE
  5
9A
100
AcDbEntity
  8
0
  6
ByLayer
 62
  256
370
   -1
100
AcDbPolyline
 90
    4
 70
    1
 43
0
 10
68.91421356237294
 20
390.9513940209204
 10
68.91421356237294
 20
383.5513940209204
 10
251.0857864376268
 20
383.5513940209204
 10
251.0857864376268
 20
390.9513940209204
  0
CIRCLE
  5
9B
100
AcDbEntity
  8
0
  6
ByLayer
 62
  256
370
   -1
100
AcDbCircle
 10
284.7274502268544
 20
332.8989340209202
 40
2.25
  0
LWPOLYLINE
  5
9C
100
AcDbEntity
  8
0
  6
ByLayer
 62
  256
370
   -1
100
AcDbPolyline
 90
    4
 70
    1
 43
0
 10
61.51421356237296
 20
390.9513940209204
 10
61.51421356237297
 20
527.9513940209204
 10
68.91421356237301
 20
527.9513940209204
 10
68.91421356237294
 20
390.9513940209204
  0
LWPOLYLINE
  5
9D
100
AcDbEntity
  8
0
  6
ByLayer
 62
  256
370
   -1
100
AcDbPolyline
 90
    4
 70
    1
 43
0
 10
258.4857864376268
 20
527.9513940209204
 10
258.4857864376268
 20
390.9513940209204
 10
251.0857864376269
 20
390.9513940209202
 10
251.0857864376268
 20
527.9513940209204
  0
LWPOLYLINE
  5
9E
100
AcDbEntity
  8
0
  6
ByLayer
 62
  256
370
   -1
100
AcDbPolyline
 90
    4
 70
    1
 43
0
 10
258.4857864376269
 20
593.3513940209205
 10
258.4857864376268
 20
535.3513940209205
 10
251.0857864376268
 20
535.3513940209205
 10
251.0857864376269
 20
593.3513940209205
  0
LWPOLYLINE
  5
9F
100
AcDbEntity
  8
0
  6
ByLayer
 62
  256
370
   -1
100
AcDbPolyline
 90
    4
 70
    1
 43
0
 10
61.51421356237293
 20
593.3513940209205
 10
61.51421356237297
 20
535.3513940209205
 10
68.91421356237294
 20
535.3513940209205
 10
68.91421356237294
 20
593.3513940209205
  0
LWPOLYLINE
  5
A0
100
AcDbEntity
  8
0
  6
ByLayer
 62
  256
370
   -1
100
AcDbPolyline
 90
    4
 70
    1
 43
0
 10
61.5142135623729
 20
325.5513940209203
 10
61.51421356237293
 20
383.5513940209204
 10
68.91421356237294
 20
383.5513940209203
 10
68.91421356237288
 20
325.5513940209204
  0
LWPOLYLINE
  5
A1
100
AcDbEntity
  8
0
  6
ByLayer
 62
  256
370
   -1
100
AcDbPolyline
 90
    4
 70
    1
 43
0
 10
258.4857864376268
 20
325.5513940209203
 10
258.4857864376268
 20
383.5513940209203
 10
251.0857864376268
 20
383.5513940209204
 10
251.0857864376268
 20
325.5513940209203
  0
LINE
  5
A2
100
AcDbEntity
  8
0
  6
ByLayer
 62
  256
370
   -1
100
AcDbLine
 10
254.7857864376268
 20
387.2513940209204
 11
65.21421356237296
 21
387.2513940209204
  0
LINE
  5
A3
100
AcDbEntity
  8
0
  6
ByLayer
 62
  256
370
   -1
100
AcDbLine
 10
65.21421356237296
 20
387.2513940209204
 11
65.21421356237296
 21
531.6513940209204
  0
LINE
  5
A4
100
AcDbEntity
  8
0
  6
ByLayer
 62
  256
370
   -1
100
AcDbLine
 10
65.21421356237296
 20
531.6513940209204
 11
254.7857864376268
 21
531.6513940209204
  0
CIRCLE
  5
A5
100
AcDbEntity
  8
0
  6
ByLayer
 62
  256
370
   -1
100
AcDbCircle
 10
49.71100892548159
 20
492.9753940209223
 40
4.249999999999998
  0
LINE
  5
A6
100
AcDbEntity
  8
0
  6
ByLayer
 62
  256
370
   -1
100
AcDbLine
 10
254.7857864376268
 20
531.6513940209204
 11
254.7857864376268
 21
387.2513940209204
  0
CIRCLE
  5
A7
100
AcDbEntity
  8
0
  6
ByLayer
 62
  256
370
   -1
100
AcDbCircle
 10
45.4902135623712
 20
335.748189384029
 40
4.25
  0
LINE
  5
A8
100
AcDbEntity
  8
0
  6
ByLayer
 62
  256
370
   -1
100
AcDbLine
 10
65.21421356237296
 20
531.6513940209204
 11
65.21421356237293
 21
593.3513940209205
  0
LINE
  5
A9
100
AcDbEntity
  8
0
  6
ByLayer
 62
  256
370
   -1
100
AcDbLine
 10
254.7857864376268
 20
531.6513940209204
 11
254.7857864376269
 21
593.3513940209205
  0
LINE
  5
AA
100
AcDbEntity
  8
0
  6
ByLayer
 62
  256
370
   -1
100
AcDbLine
 10
254.7857864376268
 20
387.2513940209204
 11
254.7857864376268
 21
325.5513940209203
  0
LINE
  5
AB
100
AcDbEntity
  8
0
  6
ByLayer
 62
  256
370
   -1
100
AcDbLine
 10
65.21421356237296
 20
387.2513940209204
 11
65.21421356237289
 21
325.5513940209203
  0
LWPOLYLINE
  5
AC
100
AcDbEntity
  8
0
  6
ByLayer
 62
  256
370
   -1
100
AcDbPolyline
 90
    8
 70
    1
 43
0
 10
388.3284052334026
 20
93.5
 10
388.3284052334026
 20
93.49999999999996
 10
388.3284052334027
 20
230.4999999999999
 10
388.3284052334027
 20
230.4999999999999
 10
567.0857645462834
 20
230.4999999999999
 10
570.4999781086565
 20
230.4999999999999
 10
570.4999781086565
 20
93.49999999999994
 10
567.0857645462834
 20
93.49999999999996
  0
LWPOLYLINE
  5
AD
100
AcDbEntity
  8
0
  6
ByLayer
 62
  256
370
   -1
100
AcDbPolyline
 90
    4
 70
    1
 43
0
 10
388.3284052334027
 20
237.9
 10
388.3284052334027
 20
295.9
 10
570.4999781086565
 20
295.9
 10
570.4999781086565
 20
237.9
  0
LWPOLYLINE
  5
AE
100
AcDbEntity
  8
0
  6
ByLayer
 62
  256
370
   -1
100
AcDbPolyline
 90
    8
 70
    1
 43
0
 10
380.9284052334027
 20
93.49999999999994
 10
357.9284052334029
 20
104.2250761375649
 10
347.9284052334029
 20
119.2250761375649
 10
322.9284052334029
 20
130.8827675914399
 10
322.9284052334029
 20
193.11723240856
 10
347.928405233403
 20
204.774923862435
 10
357.928405233403
 20
219.774923862435
 10
380.9284052334027
 20
230.4999999999999
  0
CIRCLE
  5
AF
100
AcDbEntity
  8
0
  6
ByLayer
 62
  256
370
   -1
100
AcDbCircle
 10
354.6867414441747
 20
288.5524600000001
 40
2.249999999999996
  0
LWPOLYLINE
  5
B0
100
AcDbEntity
  8
0
  6
ByLayer
 62
  256
370
   -1
100
AcDbPolyline
 90
    4
 70
    1
 43
0
 10
442.4141916710319
 20
21.09999999999999
 10
442.414191671032
 20
33.09999999999989
 42
0.9999999999999999
 10
436.4141916710272
 20
33.09999999999989
 10
436.4141916710273
 20
21.09999999999999
 42
0.9999999999999999
  0
LWPOLYLINE
  5
B1
100
AcDbEntity
  8
0
  6
ByLayer
 62
  256
370
   -1
100
AcDbPolyline
 90
    4
 70
    1
 43
0
 10
489.4141916710296
 20
40.59999999999989
 10
519.4141916710296
 20
40.59999999999989
 42
0.9999999999999999
 10
519.4141916710296
 20
46.59999999999999
 10
489.4141916710296
 20
46.59999999999999
 42
0.9999999999999999
  0
CIRCLE
  5
B2
100
AcDbEntity
  8
0
  6
ByLayer
 62
  256
370
   -1
100
AcDbCircle
 10
364.2759452334029
 20
108.9092450692638
 40
2.250000000000001
  0
LWPOLYLINE
  5
B3
100
AcDbEntity
  8
0
  6
ByLayer
 62
  256
370
   -1
100
AcDbPolyline
 90
    4
 70
    1
 43
0
 10
464.4141916710296
 20
63.09999999999989
 10
494.4141916710296
 20
63.09999999999991
 42
0.9999999999999999
 10
494.4141916710296
 20
69.09999999999994
 10
464.4141916710296
 20
69.09999999999994
 42
0.9999999999999999
  0
CIRCLE
  5
B4
100
AcDbEntity
  8
0
  6
ByLayer
 62
  256
370
   -1
100
AcDbCircle
 10
364.275945233403
 20
215.0907549307361
 40
2.249999999999996
  0
LWPOLYLINE
  5
B5
100
AcDbEntity
  8
0
  6
ByLayer
 62
  256
370
   -1
100
AcDbPolyline
 90
    4
 70
    1
 43
0
 10
464.4141916710296
 20
18.09999999999991
 10
494.4141916710296
 20
18.09999999999999
 42
0.9999999999999999
 10
494.4141916710296
 20
24.09999999999989
 10
464.4141916710296
 20
24.09999999999999
 42
0.9999999999999999
  0
CIRCLE
  5
B6
100
AcDbEntity
  8
0
  6
ByLayer
 62
  256
370
   -1
100
AcDbCircle
 10
330.2759452334029
 20
178.09220808846
 40
2.249999999999996
  0
LWPOLYLINE
  5
B7
100
AcDbEntity
  8
0
  6
ByLayer
 62
  256
370
   -1
100
AcDbPolyline
 90
    4
 70
    1
 43
0
 10
439.4141916710296
 20
40.59999999999989
 10
469.4141916710296
 20
40.59999999999989
 42
0.9999999999999999
 10
469.4141916710296
 20
46.59999999999999
 10
439.4141916710296
 20
46.59999999999989
 42
0.9999999999999999
  0
CIRCLE
  5
B8
100
AcDbEntity
  8
0
  6
ByLayer
 62
  256
370
   -1
100
AcDbCircle
 10
330.2759452334029
 20
145.9077919115399
 40
2.250000000000001
  0
LWPOLYLINE
  5
B9
100
AcDbEntity
  8
0
  6
ByLayer
 62
  256
370
   -1
100
AcDbPolyline
 90
    4
 70
    1
 43
0
 10
522.4141916710296
 20
54.09999999999992
 10
522.4141916710296
 20
66.09999999999994
 42
0.9999999999999999
 10
516.4141916710296
 20
66.09999999999994
 10
516.4141916710296
 20
54.09999999999992
 42
0.9999999999999999
  0
LWPOLYLINE
  5
BA
100
AcDbEntity
  8
0
  6
ByLayer
 62
  256
370
   -1
100
AcDbPolyline
 90
    4
 70
    1
 43
0
 10
442.4141916710269
 20
54.09999999999989
 10
442.4141916710269
 20
66.09999999999989
 42
0.9999999999999999
 10
436.4141916710323
 20
66.09999999999989
 10
436.4141916710323
 20
54.09999999999989
 42
0.9999999999999999
  0
LWPOLYLINE
  5
BB
100
AcDbEntity
  8
0
  6
ByLayer
 62
  256
370
   -1
100
AcDbPolyline
 90
    4
 70
    1
 43
0
 10
522.4141916710299
 20
21.09999999999999
 10
522.4141916710295
 20
33.09999999999999
 42
0.9999999999999997
 10
516.414191671029
 20
33.0999999999998
 10
516.4141916710292
 20
21.09999999999991
 42
0.999999999999999
  0
LWPOLYLINE
  5
BC
100
AcDbEntity
  8
0
  6
ByLayer
 62
  256
370
   -1
100
AcDbPolyline
 90
   12
 70
    1
 43
0
 10
388.3284052334027
 20
28.09999999999989
 10
388.3284052334027
 20
86.09999999999994
 10
570.4999781086565
 20
86.09999999999994
 10
570.4999781086565
 20
28.09999999999989
 10
553.265880999611
 20
28.09999999999989
 42
0.1494510013491316
 10
548.792337771845
 20
26.7323005804402
 10
517.2662700797333
 20
5.467699419559697
 42
-0.149451001349137
 10
512.7927268519672
 20
4.099999999999993
 10
446.035656490092
 20
4.099999999999993
 42
-0.1494510013491315
 10
441.562113262326
 20
5.467699419559696
 10
410.0360455702141
 20
26.7323005804402
 42
0.1494510013491296
 10
405.5625023424481
 20
28.09999999999989
  0
LWPOLYLINE
  5
BD
100
AcDbEntity
  8
0
  6
ByLayer
 62
  256
370
   -1
100
AcDbPolyline
 90
    5
 70
    1
 43
0
 10
370.2033290958377
 20
63.10000000000022
 10
380.9284052334026
 20
86.09999999999994
 10
380.9284052334026
 20
28.09999999999989
 10
343.5456376419626
 20
28.10000000000019
 10
355.2033290958377
 20
53.10000000000022
  0
LWPOLYLINE
  5
BE
100
AcDbEntity
  8
0
  6
ByLayer
 62
  256
370
   -1
100
AcDbPolyline
 90
    5
 70
    1
 43
0
 10
588.6250542462215
 20
260.9
 10
577.8999781086566
 20
237.9
 10
577.8999781086566
 20
295.9
 10
615.2827457000968
 20
295.8999999999999
 10
603.6250542462217
 20
270.8999999999998
  0
LWPOLYLINE
  5
BF
100
AcDbEntity
  8
0
  6
ByLayer
 62
  256
370
   -1
100
AcDbPolyline
 90
    5
 70
    1
 43
0
 10
370.2033290958377
 20
260.8999999999998
 10
380.9284052334027
 20
237.9
 10
380.9284052334027
 20
295.9
 10
343.5456376419624
 20
295.9
 10
355.2033290958376
 20
270.8999999999998
  0
CIRCLE
  5
C0
100
AcDbEntity
  8
0
  6
ByLayer
 62
  256
370
   -1
100
AcDbCircle
 10
354.6867414441749
 20
35.4475400000002
 40
2.25
  0
LWPOLYLINE
  5
C1
100
AcDbEntity
  8
0
  6
ByLayer
 62
  256
370
   -1
100
AcDbPolyline
 90
    8
 70
    1
 43
0
 10
600.8999781086566
 20
104.2250761375648
 10
577.8999781086566
 20
93.49999999999987
 10
577.8999781086566
 20
230.4999999999999
 10
600.8999781086566
 20
219.7749238624349
 10
610.8999781086566
 20
204.7749238624349
 10
635.8999781086566
 20
193.1172324085599
 10
635.8999781086566
 20
130.8827675914399
 10
610.8999781086566
 20
119.2250761375648
  0
CIRCLE
  5
C2
100
AcDbEntity
  8
0
  6
ByLayer
 62
  256
370
   -1
100
AcDbCircle
 10
604.1416418978845
 20
288.5524599999999
 40
2.249999999999996
  0
CIRCLE
  5
C3
100
AcDbEntity
  8
0
  6
ByLayer
 62
  256
370
   -1
100
AcDbCircle
 10
628.5524381086565
 20
145.9077919115398
 40
2.250000000000001
  0
CIRCLE
  5
C4
100
AcDbEntity
  8
0
  6
ByLayer
 62
  256
370
   -1
100
AcDbCircle
 10
628.5524381086565
 20
178.0922080884599
 40
2.249999999999996
  0
LWPOLYLINE
  5
C5
100
AcDbEntity
  8
0
  6
ByLayer
 62
  256
370
   -1
100
AcDbPolyline
 90
    5
 70
    1
 43
0
 10
577.8999781086566
 20
86.09999999999988
 10
588.6250542462215
 20
63.09999999999984
 10
603.6250542462215
 20
53.09999999999984
 10
615.2827457000964
 20
28.0999999999998
 10
577.8999781086566
 20
28.09999999999989
  0
CIRCLE
  5
C6
100
AcDbEntity
  8
0
  6
ByLayer
 62
  256
370
   -1
100
AcDbCircle
 10
594.5524381086565
 20
215.0907549307361
 40
2.249999999999996
  0
CIRCLE
  5
C7
100
AcDbEntity
  8
0
  6
ByLayer
 62
  256
370
   -1
100
AcDbCircle
 10
594.5524381086565
 20
108.9092450692637
 40
2.250000000000001
  0
LWPOLYLINE
  5
C8
100
AcDbEntity
  8
0
  6
ByLayer
 62
  256
370
   -1
100
AcDbPolyline
 90
    4
 70
    1
 43
0
 10
388.3284052334027
 20
230.4999999999999
 10
388.3284052334027
 20
237.9
 10
570.4999781086565
 20
237.9
 10
570.4999781086565
 20
230.4999999999999
  0
LWPOLYLINE
  5
C9
100
AcDbEntity
  8
0
  6
ByLayer
 62
  256
370
   -1
100
AcDbPolyline
 90
    4
 70
    1
 43
0
 10
388.3284052334026
 20
93.5
 10
388.3284052334026
 20
86.09999999999994
 10
570.4999781086565
 20
86.09999999999994
 10
570.4999781086565
 20
93.49999999999993
  0
CIRCLE
  5
CA
100
AcDbEntity
  8
0
  6
ByLayer
 62
  256
370
   -1
100
AcDbCircle
 10
604.141641897884
 20
35.4475399999998
 40
2.25
  0
LWPOLYLINE
  5
CB
100
AcDbEntity
  8
0
  6
ByLayer
 62
  256
370
   -1
100
AcDbPolyline
 90
    4
 70
    1
 43
0
 10
380.9284052334027
 20
93.49999999999994
 10
380.9284052334027
 20
230.4999999999999
 10
388.3284052334027
 20
230.4999999999999
 10
388.3284052334026
 20
93.5
  0
LWPOLYLINE
  5
CC
100
AcDbEntity
  8
0
  6
ByLayer
 62
  256
370
   -1
100
AcDbPolyline
 90
    4
 70
    1
 43
0
 10
577.8999781086566
 20
230.4999999999999
 10
577.8999781086566
 20
93.5
 10
570.4999781086566
 20
93.49999999999986
 10
570.4999781086565
 20
230.4999999999999
  0
LWPOLYLINE
  5
CD
100
AcDbEntity
  8
0
  6
ByLayer
 62
  256
370
   -1
100
AcDbPolyline
 90
    4
 70
    1
 43
0
 10
577.8999781086566
 20
295.9
 10
577.8999781086566
 20
237.9
 10
570.4999781086565
 20
237.9
 10
570.4999781086566
 20
295.9
  0
LWPOLYLINE
  5
CE
100
AcDbEntity
  8
0
  6
ByLayer
 62
  256
370
   -1
100
AcDbPolyline
 90
    4
 70
    1
 43
0
 10
380.9284052334026
 20
295.9
 10
380.9284052334027
 20
237.9
 10
388.3284052334026
 20
237.9000000000001
 10
388.3284052334026
 20
295.9
  0
LWPOLYLINE
  5
CF
100
AcDbEntity
  8
0
  6
ByLayer
 62
  256
370
   -1
100
AcDbPolyline
 90
    4
 70
    1
 43
0
 10
380.9284052334026
 20
28.09999999999989
 10
380.9284052334026
 20
86.09999999999994
 10
388.3284052334026
 20
86.09999999999984
 10
388.3284052334026
 20
28.09999999999999
  0
LWPOLYLINE
  5
D0
100
AcDbEntity
  8
0
  6
ByLayer
 62
  256
370
   -1
100
AcDbPolyline
 90
    4
 70
    1
 43
0
 10
577.8999781086566
 20
28.09999999999989
 10
577.8999781086566
 20
86.09999999999988
 10
570.4999781086565
 20
86.09999999999994
 10
570.4999781086565
 20
28.09999999999989
  0
LINE
  5
D1
100
AcDbEntity
  8
0
  6
ByLayer
 62
  256
370
   -1
100
AcDbLine
 10
574.1999781086565
 20
89.79999999999998
 11
384.6284052334026
 21
89.79999999999998
  0
LINE
  5
D2
100
AcDbEntity
  8
0
  6
ByLayer
 62
  256
370
   -1
100
AcDbLine
 10
384.6284052334026
 20
89.79999999999998
 11
384.6284052334026
 21
234.2
  0
LINE
  5
D3
100
AcDbEntity
  8
0
  6
ByLayer
 62
  256
370
   -1
100
AcDbLine
 10
384.6284052334026
 20
234.2
 11
574.1999781086565
 21
234.2
  0
CIRCLE
  5
D4
100
AcDbEntity
  8
0
  6
ByLayer
 62
  256
370
   -1
100
AcDbCircle
 10
369.1252005965113
 20
195.5240000000019
 40
4.249999999999998
  0
LINE
  5
D5
100
AcDbEntity
  8
0
  6
ByLayer
 62
  256
370
   -1
100
AcDbLine
 10
574.1999781086565
 20
234.2
 11
574.1999781086565
 21
89.79999999999998
  0
CIRCLE
  5
D6
100
AcDbEntity
  8
0
  6
ByLayer
 62
  256
370
   -1
100
AcDbCircle
 10
364.9044052334009
 20
38.2967953631086
 40
4.25
  0
LINE
  5
D7
100
AcDbEntity
  8
0
  6
ByLayer
 62
  256
370
   -1
100
AcDbLine
 10
384.6284052334026
 20
234.2
 11
384.6284052334026
 21
295.9
  0
LINE
  5
D8
100
AcDbEntity
  8
0
  6
ByLayer
 62
  256
370
   -1
100
AcDbLine
 10
574.1999781086565
 20
234.2
 11
574.1999781086566
 21
295.9
  0
LINE
  5
D9
100
AcDbEntity
  8
0
  6
ByLayer
 62
  256
370
   -1
100
AcDbLine
 10
574.1999781086565
 20
89.79999999999998
 11
574.1999781086565
 21
28.09999999999989
  0
LINE
  5
DA
100
AcDbEntity
  8
0
  6
ByLayer
 62
  256
370
   -1
100
AcDbLine
 10
384.6284052334026
 20
89.79999999999998
 11
384.6284052334026
 21
28.09999999999989
  0
LWPOLYLINE
  5
DB
100
AcDbEntity
  8
0
  6
ByLayer
 62
  256
370
   -1
100
AcDbPolyline
 90
    8
 70
    1
 43
0
 10
388.3284052334026
 20
390.9513940209204
 10
388.3284052334026
 20
390.9513940209204
 10
388.3284052334027
 20
527.9513940209204
 10
388.3284052334027
 20
527.9513940209204
 10
567.0857645462834
 20
527.9513940209204
 10
570.4999781086565
 20
527.9513940209204
 10
570.4999781086565
 20
390.9513940209204
 10
567.0857645462834
 20
390.9513940209204
  0
LWPOLYLINE
  5
DC
100
AcDbEntity
  8
0
  6
ByLayer
 62
  256
370
   -1
100
AcDbPolyline
 90
    4
 70
    1
 43
0
 10
388.3284052334027
 20
535.3513940209205
 10
388.3284052334027
 20
593.3513940209205
 10
570.4999781086565
 20
593.3513940209205
 10
570.4999781086565
 20
535.3513940209205
  0
LWPOLYLINE
  5
DD
100
AcDbEntity
  8
0
  6
ByLayer
 62
  256
370
   -1
100
AcDbPolyline
 90
    8
 70
    1
 43
0
 10
380.9284052334027
 20
390.9513940209204
 10
357.9284052334029
 20
401.6764701584853
 10
347.9284052334029
 20
416.6764701584853
 10
322.9284052334029
 20
428.3341616123603
 10
322.9284052334029
 20
490.5686264294804
 10
347.928405233403
 20
502.2263178833554
 10
357.928405233403
 20
517.2263178833555
 10
380.9284052334027
 20
527.9513940209204
  0
CIRCLE
  5
DE
100
AcDbEntity
  8
0
  6
ByLayer
 62
  256
370
   -1
100
AcDbCircle
 10
354.6867414441747
 20
586.0038540209205
 40
2.249999999999996
  0
LWPOLYLINE
  5
DF
100
AcDbEntity
  8
0
  6
ByLayer
 62
  256
370
   -1
100
AcDbPolyline
 90
    4
 70
    1
 43
0
 10
442.4141916710319
 20
318.5513940209204
 10
442.414191671032
 20
330.5513940209203
 42
0.9999999999999999
 10
436.4141916710272
 20
330.5513940209203
 10
436.4141916710273
 20
318.5513940209204
 42
0.9999999999999999
  0
LWPOLYLINE
  5
E0
100
AcDbEntity
  8
0
  6
ByLayer
 62
  256
370
   -1
100
AcDbPolyline
 90
    4
 70
    1
 43
0
 10
489.4141916710296
 20
338.0513940209203
 10
519.4141916710296
 20
338.0513940209203
 42
0.9999999999999999
 10
519.4141916710296
 20
344.0513940209204
 10
489.4141916710296
 20
344.0513940209204
 42
0.9999999999999999
  0
CIRCLE
  5
E1
100
AcDbEntity
  8
0
  6
ByLayer
 62
  256
370
   -1
100
AcDbCircle
 10
364.2759452334029
 20
406.3606390901842
 40
2.250000000000001
  0
LWPOLYLINE
  5
E2
100
AcDbEntity
  8
0
  6
ByLayer
 62
  256
370
   -1
100
AcDbPolyline
 90
    4
 70
    1
 43
0
 10
464.4141916710296
 20
360.5513940209203
 10
494.4141916710296
 20
360.5513940209203
 42
0.9999999999999999
 10
494.4141916710296
 20
366.5513940209204
 10
464.4141916710296
 20
366.5513940209203
 42
0.9999999999999999
  0
CIRCLE
  5
E3
100
AcDbEntity
  8
0
  6
ByLayer
 62
  256
370
   -1
100
AcDbCircle
 10
364.275945233403
 20
512.5421489516565
 40
2.249999999999996
  0
LWPOLYLINE
  5
E4
100
AcDbEntity
  8
0
  6
ByLayer
 62
  256
370
   -1
100
AcDbPolyline
 90
    4
 70
    1
 43
0
 10
464.4141916710296
 20
315.5513940209203
 10
494.4141916710296
 20
315.5513940209204
 42
0.9999999999999999
 10
494.4141916710296
 20
321.5513940209203
 10
464.4141916710296
 20
321.5513940209204
 42
0.9999999999999999
  0
CIRCLE
  5
E5
100
AcDbEntity
  8
0
  6
ByLayer
 62
  256
370
   -1
100
AcDbCircle
 10
330.2759452334029
 20
475.5436021093805
 40
2.249999999999996
  0
LWPOLYLINE
  5
E6
100
AcDbEntity
  8
0
  6
ByLayer
 62
  256
370
   -1
100
AcDbPolyline
 90
    4
 70
    1
 43
0
 10
439.4141916710296
 20
338.0513940209203
 10
469.4141916710296
 20
338.0513940209203
 42
0.9999999999999999
 10
469.4141916710296
 20
344.0513940209204
 10
439.4141916710296
 20
344.0513940209203
 42
0.9999999999999999
  0
CIRCLE
  5
E7
100
AcDbEntity
  8
0
  6
ByLayer
 62
  256
370
   -1
100
AcDbCircle
 10
330.2759452334029
 20
443.3591859324603
 40
2.250000000000001
  0
LWPOLYLINE
  5
E8
100
AcDbEntity
  8
0
  6
ByLayer
 62
  256
370
   -1
100
AcDbPolyline
 90
    4
 70
    1
 43
0
 10
522.4141916710296
 20
351.5513940209203
 10
522.4141916710296
 20
363.5513940209204
 42
0.9999999999999999
 10
516.4141916710296
 20
363.5513940209204
 10
516.4141916710296
 20
351.5513940209203
 42
0.9999999999999999
  0
LWPOLYLINE
  5
E9
100
AcDbEntity
  8
0
  6
ByLayer
 62
  256
370
   -1
100
AcDbPolyline
 90
    4
 70
    1
 43
0
 10
442.4141916710269
 20
351.5513940209203
 10
442.4141916710269
 20
363.5513940209203
 42
0.9999999999999999
 10
436.4141916710323
 20
363.5513940209203
 10
436.4141916710323
 20
351.5513940209203
 42
0.9999999999999999
  0
LWPOLYLINE
  5
EA
100
AcDbEntity
  8
0
  6
ByLayer
 62
  256
370
   -1
100
AcDbPolyline
 90
    4
 70
    1
 43
0
 10
522.4141916710299
 20
318.5513940209204
 10
522.4141916710295
 20
330.5513940209204
 42
0.9999999999999997
 10
516.414191671029
 20
330.5513940209202
 10
516.4141916710292
 20
318.5513940209203
 42
0.999999999999999
  0
LWPOLYLINE
  5
EB
100
AcDbEntity
  8
0
  6
ByLayer
 62
  256
370
   -1
100
AcDbPolyline
 90
   12
 70
    1
 43
0
 10
388.3284052334027
 20
325.5513940209203
 10
388.3284052334027
 20
383.5513940209204
 10
570.4999781086565
 20
383.5513940209204
 10
570.4999781086565
 20
325.5513940209203
 10
553.265880999611
 20
325.5513940209203
 42
0.1494510013491316
 10
548.792337771845
 20
324.1836946013606
 10
517.2662700797333
 20
302.9190934404801
 42
-0.149451001349137
 10
512.7927268519672
 20
301.5513940209204
 10
446.035656490092
 20
301.5513940209204
 42
-0.1494510013491315
 10
441.562113262326
 20
302.9190934404801
 10
410.0360455702141
 20
324.1836946013606
 42
0.1494510013491296
 10
405.5625023424481
 20
325.5513940209203
  0
LWPOLYLINE
  5
EC
100
AcDbEntity
  8
0
  6
ByLayer
 62
  256
370
   -1
100
AcDbPolyline
 90
    5
 70
    1
 43
0
 10
370.2033290958377
 20
360.5513940209206
 10
380.9284052334026
 20
383.5513940209204
 10
380.9284052334026
 20
325.5513940209203
 10
343.5456376419626
 20
325.5513940209206
 10
355.2033290958377
 20
350.5513940209206
  0
LWPOLYLINE
  5
ED
100
AcDbEntity
  8
0
  6
ByLayer
 62
  256
370
   -1
100
AcDbPolyline
 90
    5
 70
    1
 43
0
 10
588.6250542462215
 20
558.3513940209205
 10
577.8999781086566
 20
535.3513940209205
 10
577.8999781086566
 20
593.3513940209205
 10
615.2827457000968
 20
593.3513940209203
 10
603.6250542462217
 20
568.3513940209202
  0
LWPOLYLINE
  5
EE
100
AcDbEntity
  8
0
  6
ByLayer
 62
  256
370
   -1
100
AcDbPolyline
 90
    5
 70
    1
 43
0
 10
370.2033290958377
 20
558.3513940209202
 10
380.9284052334027
 20
535.3513940209205
 10
380.9284052334027
 20
593.3513940209205
 10
343.5456376419624
 20
593.3513940209205
 10
355.2033290958376
 20
568.3513940209202
  0
CIRCLE
  5
EF
100
AcDbEntity
  8
0
  6
ByLayer
 62
  256
370
   -1
100
AcDbCircle
 10
354.6867414441749
 20
332.8989340209206
 40
2.25
  0
LWPOLYLINE
  5
F0
100
AcDbEntity
  8
0
  6
ByLayer
 62
  256
370
   -1
100
AcDbPolyline
 90
    8
 70
    1
 43
0
 10
600.8999781086566
 20
401.6764701584852
 10
577.8999781086566
 20
390.9513940209203
 10
577.8999781086566
 20
527.9513940209204
 10
600.8999781086566
 20
517.2263178833553
 10
610.8999781086566
 20
502.2263178833553
 10
635.8999781086566
 20
490.5686264294803
 10
635.8999781086566
 20
428.3341616123603
 10
610.8999781086566
 20
416.6764701584852
  0
CIRCLE
  5
F1
100
AcDbEntity
  8
0
  6
ByLayer
 62
  256
370
   -1
100
AcDbCircle
 10
604.1416418978845
 20
586.0038540209202
 40
2.249999999999996
  0
CIRCLE
  5
F2
100
AcDbEntity
  8
0
  6
ByLayer
 62
  256
370
   -1
100
AcDbCircle
 10
628.5524381086565
 20
443.3591859324602
 40
2.250000000000001
  0
CIRCLE
  5
F3
100
AcDbEntity
  8
0
  6
ByLayer
 62
  256
370
   -1
100
AcDbCircle
 10
628.5524381086565
 20
475.5436021093803
 40
2.249999999999996
  0
LWPOLYLINE
  5
F4
100
AcDbEntity
  8
0
  6
ByLayer
 62
  256
370
   -1
100
AcDbPolyline
 90
    5
 70
    1
 43
0
 10
577.8999781086566
 20
383.5513940209203
 10
588.6250542462215
 20
360.5513940209203
 10
603.6250542462215
 20
350.5513940209203
 10
615.2827457000964
 20
325.5513940209202
 10
577.8999781086566
 20
325.5513940209203
  0
CIRCLE
  5
F5
100
AcDbEntity
  8
0
  6
ByLayer
 62
  256
370
   -1
100
AcDbCircle
 10
594.5524381086565
 20
512.5421489516565
 40
2.249999999999996
  0
CIRCLE
  5
F6
100
AcDbEntity
  8
0
  6
ByLayer
 62
  256
370
   -1
100
AcDbCircle
 10
594.5524381086565
 20
406.3606390901841
 40
2.250000000000001
  0
LWPOLYLINE
  5
F7
100
AcDbEntity
  8
0
  6
ByLayer
 62
  256
370
   -1
100
AcDbPolyline
 90
    4
 70
    1
 43
0
 10
388.3284052334027
 20
527.9513940209204
 10
388.3284052334027
 20
535.3513940209205
 10
570.4999781086565
 20
535.3513940209205
 10
570.4999781086565
 20
527.9513940209204
  0
LWPOLYLINE
  5
F8
100
AcDbEntity
  8
0
  6
ByLayer
 62
  256
370
   -1
100
AcDbPolyline
 90
    4
 70
    1
 43
0
 10
388.3284052334026
 20
390.9513940209204
 10
388.3284052334026
 20
383.5513940209204
 10
570.4999781086565
 20
383.5513940209204
 10
570.4999781086565
 20
390.9513940209204
  0
CIRCLE
  5
F9
100
AcDbEntity
  8
0
  6
ByLayer
 62
  256
370
   -1
100
AcDbCircle
 10
604.141641897884
 20
332.8989340209202
 40
2.25
  0
LWPOLYLINE
  5
FA
100
AcDbEntity
  8
0
  6
ByLayer
 62
  256
370
   -1
100
AcDbPolyline
 90
    4
 70
    1
 43
0
 10
380.9284052334027
 20
390.9513940209204
 10
380.9284052334027
 20
527.9513940209204
 10
388.3284052334027
 20
527.9513940209204
 10
388.3284052334026
 20
390.9513940209204
  0
LWPOLYLINE
  5
FB
100
AcDbEntity
  8
0
  6
ByLayer
 62
  256
370
   -1
100
AcDbPolyline
 90
    4
 70
    1
 43
0
 10
577.8999781086566
 20
527.9513940209204
 10
577.8999781086566
 20
390.9513940209204
 10
570.4999781086566
 20
390.9513940209202
 10
570.4999781086565
 20
527.9513940209204
  0
LWPOLYLINE
  5
FC
100
AcDbEntity
  8
0
  6
ByLayer
 62
  256
370
   -1
100
AcDbPolyline
 90
    4
 70
    1
 43
0
 10
577.8999781086566
 20
593.3513940209205
 10
577.8999781086566
 20
535.3513940209205
 10
570.4999781086565
 20
535.3513940209205
 10
570.4999781086566
 20
593.3513940209205
  0
LWPOLYLINE
  5
FD
100
AcDbEntity
  8
0
  6
ByLayer
 62
  256
370
   -1
100
AcDbPolyline
 90
    4
 70
    1
 43
0
 10
380.9284052334026
 20
593.3513940209205
 10
380.9284052334027
 20
535.3513940209205
 10
388.3284052334026
 20
535.3513940209205
 10
388.3284052334026
 20
593.3513940209205
  0
LWPOLYLINE
  5
FE
100
AcDbEntity
  8
0
  6
ByLayer
 62
  256
370
   -1
100
AcDbPolyline
 90
    4
 70
    1
 43
0
 10
380.9284052334026
 20
325.5513940209203
 10
380.9284052334026
 20
383.5513940209204
 10
388.3284052334026
 20
383.5513940209203
 10
388.3284052334026
 20
325.5513940209204
  0
LWPOLYLINE
  5
FF
100
AcDbEntity
  8
0
  6
ByLayer
 62
  256
370
   -1
100
AcDbPolyline
 90
    4
 70
    1
 43
0
 10
577.8999781086566
 20
325.5513940209203
 10
577.8999781086566
 20
383.5513940209203
 10
570.4999781086565
 20
383.5513940209204
 10
570.4999781086565
 20
325.5513940209203
  0
LINE
  5
100
100
AcDbEntity
  8
0
  6
ByLayer
 62
  256
370
   -1
100
AcDbLine
 10
574.1999781086565
 20
387.2513940209204
 11
384.6284052334026
 21
387.2513940209204
  0
LINE
  5
101
100
AcDbEntity
  8
0
  6
ByLayer
 62
  256
370
   -1
100
AcDbLine
 10
384.6284052334026
 20
387.2513940209204
 11
384.6284052334026
 21
531.6513940209204
  0
LINE
  5
102
100
AcDbEntity
  8
0
  6
ByLayer
 62
  256
370
   -1
100
AcDbLine
 10
384.6284052334026
 20
531.6513940209204
 11
574.1999781086565
 21
531.6513940209204
  0
CIRCLE
  5
103
100
AcDbEntity
  8
0
  6
ByLayer
 62
  256
370
   -1
100
AcDbCircle
 10
369.1252005965113
 20
492.9753940209223
 40
4.249999999999998
  0
LINE
  5
104
100
AcDbEntity
  8
0
  6
ByLayer
 62
  256
370
   -1
100
AcDbLine
 10
574.1999781086565
 20
531.6513940209204
 11
574.1999781086565
 21
387.2513940209204
  0
CIRCLE
  5
105
100
AcDbEntity
  8
0
  6
ByLayer
 62
  256
370
   -1
100
AcDbCircle
 10
364.9044052334009
 20
335.748189384029
 40
4.25
  0
LINE
  5
106
100
AcDbEntity
  8
0
  6
ByLayer
 62
  256
370
   -1
100
AcDbLine
 10
384.6284052334026
 20
531.6513940209204
 11
384.6284052334026
 21
593.3513940209205
  0
LINE
  5
107
100
AcDbEntity
  8
0
  6
ByLayer
 62
  256
370
   -1
100
AcDbLine
 10
574.1999781086565
 20
531.6513940209204
 11
574.1999781086566
 21
593.3513940209205
  0
LINE
  5
108
100
AcDbEntity
  8
0
  6
ByLayer
 62
  256
370
   -1
100
AcDbLine
 10
574.1999781086565
 20
387.2513940209204
 11
574.1999781086565
 21
325.5513940209203
  0
LINE
  5
109
100
AcDbEntity
  8
0
  6
ByLayer
 62
  256
370
   -1
100
AcDbLine
 10
384.6284052334026
 20
387.2513940209204
 11
384.6284052334026
 21
325.5513940209203
  0
LWPOLYLINE
  5
10A
100
AcDbEntity
  8
0
  6
ByLayer
 62
  256
370
   -1
100
AcDbPolyline
 90
    8
 70
    1
 43
0
 10
707.7425969044323
 20
93.5
 10
707.7425969044323
 20
93.49999999999996
 10
707.7425969044324
 20
230.4999999999999
 10
707.7425969044324
 20
230.4999999999999
 10
886.4999562173131
 20
230.4999999999999
 10
889.9141697796862
 20
230.4999999999999
 10
889.9141697796862
 20
93.49999999999994
 10
886.4999562173131
 20
93.49999999999996
  0
LWPOLYLINE
  5
10B
100
AcDbEntity
  8
0
  6
ByLayer
 62
  256
370
   -1
100
AcDbPolyline
 90
    4
 70
    1
 43
0
 10
707.7425969044324
 20
237.9
 10
707.7425969044324
 20
295.9
 10
889.9141697796862
 20
295.9
 10
889.9141697796862
 20
237.9
  0
LWPOLYLINE
  5
10C
100
AcDbEntity
  8
0
  6
ByLayer
 62
  256
370
   -1
100
AcDbPolyline
 90
    8
 70
    1
 43
0
 10
700.3425969044324
 20
93.49999999999994
 10
677.3425969044326
 20
104.2250761375649
 10
667.3425969044326
 20
119.2250761375649
 10
642.3425969044326
 20
130.8827675914399
 10
642.3425969044326
 20
193.11723240856
 10
667.3425969044326
 20
204.774923862435
 10
677.3425969044326
 20
219.774923862435
 10
700.3425969044324
 20
230.4999999999999
  0
CIRCLE
  5
10D
100
AcDbEntity
  8
0
  6
ByLayer
 62
  256
370
   -1
100
AcDbCircle
 10
674.1009331152044
 20
288.5524600000001
 40
2.249999999999996
  0
LWPOLYLINE
  5
10E
100
AcDbEntity
  8
0
  6
ByLayer
 62
  256
370
   -1
100
AcDbPolyline
 90
    4
 70
    1
 43
0
 10
761.8283833420616
 20
21.09999999999999
 10
761.8283833420617
 20
33.09999999999989
 42
0.9999999999999999
 10
755.8283833420569
 20
33.09999999999989
 10
755.8283833420569
 20
21.09999999999999
 42
0.9999999999999999
  0
LWPOLYLINE
  5
10F
100
AcDbEntity
  8
0
  6
ByLayer
 62
  256
370
   -1
100
AcDbPolyline
 90
    4
 70
    1
 43
0
 10
808.8283833420593
 20
40.59999999999989
 10
838.8283833420593
 20
40.59999999999989
 42
0.9999999999999999
 10
838.8283833420593
 20
46.59999999999999
 10
808.8283833420593
 20
46.59999999999999
 42
0.9999999999999999
  0
CIRCLE
  5
110
100
AcDbEntity
  8
0
  6
ByLayer
 62
  256
370
   -1
100
AcDbCircle
 10
683.6901369044326
 20
108.9092450692638
 40
2.250000000000001
  0
LWPOLYLINE
  5
111
100
AcDbEntity
  8
0
  6
ByLayer
 62
  256
370
   -1
100
AcDbPolyline
 90
    4
 70
    1
 43
0
 10
783.8283833420593
 20
63.09999999999989
 10
813.8283833420593
 20
63.09999999999991
 42
0.9999999999999999
 10
813.8283833420593
 20
69.09999999999994
 10
783.8283833420593
 20
69.09999999999994
 42
0.9999999999999999
  0
CIRCLE
  5
112
100
AcDbEntity
  8
0
  6
ByLayer
 62
  256
370
   -1
100
AcDbCircle
 10
683.6901369044327
 20
215.0907549307361
 40
2.249999999999996
  0
LWPOLYLINE
  5
113
100
AcDbEntity
  8
0
  6
ByLayer
 62
  256
370
   -1
100
AcDbPolyline
 90
    4
 70
    1
 43
0
 10
783.8283833420593
 20
18.09999999999991
 10
813.8283833420593
 20
18.09999999999999
 42
0.9999999999999999
 10
813.8283833420593
 20
24.09999999999989
 10
783.8283833420593
 20
24.09999999999999
 42
0.9999999999999999
  0
CIRCLE
  5
114
100
AcDbEntity
  8
0
  6
ByLayer
 62
  256
370
   -1
100
AcDbCircle
 10
649.6901369044326
 20
178.09220808846
 40
2.249999999999996
  0
LWPOLYLINE
  5
115
100
AcDbEntity
  8
0
  6
ByLayer
 62
  256
370
   -1
100
AcDbPolyline
 90
    4
 70
    1
 43
0
 10
758.8283833420593
 20
40.59999999999989
 10
788.8283833420593
 20
40.59999999999989
 42
0.9999999999999999
 10
788.8283833420593
 20
46.59999999999999
 10
758.8283833420593
 20
46.59999999999989
 42
0.9999999999999999
  0
CIRCLE
  5
116
100
AcDbEntity
  8
0
  6
ByLayer
 62
  256
370
   -1
100
AcDbCircle
 10
649.6901369044326
 20
145.9077919115399
 40
2.250000000000001
  0
LWPOLYLINE
  5
117
100
AcDbEntity
  8
0
  6
ByLayer
 62
  256
370
   -1
100
AcDbPolyline
 90
    4
 70
    1
 43
0
 10
841.8283833420593
 20
54.09999999999992
 10
841.8283833420593
 20
66.09999999999994
 42
0.9999999999999999
 10
835.8283833420593
 20
66.09999999999994
 10
835.8283833420594
 20
54.09999999999992
 42
0.9999999999999999
  0
LWPOLYLINE
  5
118
100
AcDbEntity
  8
0
  6
ByLayer
 62
  256
370
   -1
100
AcDbPolyline
 90
    4
 70
    1
 43
0
 10
761.8283833420566
 20
54.09999999999989
 10
761.8283833420566
 20
66.09999999999989
 42
0.9999999999999999
 10
755.828383342062
 20
66.09999999999989
 10
755.828383342062
 20
54.09999999999989
 42
0.9999999999999999
  0
LWPOLYLINE
  5
119
100
AcDbEntity
  8
0
  6
ByLayer
 62
  256
370
   -1
100
AcDbPolyline
 90
    4
 70
    1
 43
0
 10
841.8283833420596
 20
21.09999999999999
 10
841.8283833420592
 20
33.09999999999999
 42
0.9999999999999997
 10
835.8283833420587
 20
33.0999999999998
 10
835.8283833420589
 20
21.09999999999991
 42
0.999999999999999
  0
LWPOLYLINE
  5
11A
100
AcDbEntity
  8
0
  6
ByLayer
 62
  256
370
   -1
100
AcDbPolyline
 90
   12
 70
    1
 43
0
 10
707.7425969044324
 20
28.09999999999989
 10
707.7425969044324
 20
86.09999999999994
 10
889.9141697796862
 20
86.09999999999994
 10
889.9141697796862
 20
28.09999999999989
 10
872.6800726706407
 20
28.09999999999989
 42
0.1494510013491316
 10
868.2065294428746
 20
26.7323005804402
 10
836.680461750763
 20
5.467699419559697
 42
-0.149451001349137
 10
832.2069185229968
 20
4.099999999999993
 10
765.4498481611217
 20
4.099999999999993
 42
-0.1494510013491315
 10
760.9763049333557
 20
5.467699419559696
 10
729.4502372412439
 20
26.7323005804402
 42
0.1494510013491296
 10
724.9766940134778
 20
28.09999999999989
  0
LWPOLYLINE
  5
11B
100
AcDbEntity
  8
0
  6
ByLayer
 62
  256
370
   -1
100
AcDbPolyline
 90
    5
 70
    1
 43
0
 10
689.6175207668674
 20
63.10000000000022
 10
700.3425969044323
 20
86.09999999999994
 10
700.3425969044323
 20
28.09999999999989
 10
662.9598293129923
 20
28.10000000000019
 10
674.6175207668674
 20
53.10000000000022
  0
LWPOLYLINE
  5
11C
100
AcDbEntity
  8
0
  6
ByLayer
 62
  256
370
   -1
100
AcDbPolyline
 90
    5
 70
    1
 43
0
 10
908.0392459172513
 20
260.9
 10
897.3141697796862
 20
237.9
 10
897.3141697796862
 20
295.9
 10
934.6969373711265
 20
295.8999999999999
 10
923.0392459172513
 20
270.8999999999998
  0
LWPOLYLINE
  5
11D
100
AcDbEntity
  8
0
  6
ByLayer
 62
  256
370
   -1
100
AcDbPolyline
 90
    5
 70
    1
 43
0
 10
689.6175207668674
 20
260.8999999999998
 10
700.3425969044324
 20
237.9
 10
700.3425969044324
 20
295.9
 10
662.959829312992
 20
295.9
 10
674.6175207668673
 20
270.8999999999998
  0
CIRCLE
  5
11E
100
AcDbEntity
  8
0
  6
ByLayer
 62
  256
370
   -1
100
AcDbCircle
 10
674.1009331152046
 20
35.4475400000002
 40
2.25
  0
LWPOLYLINE
  5
11F
100
AcDbEntity
  8
0
  6
ByLayer
 62
  256
370
   -1
100
AcDbPolyline
 90
    8
 70
    1
 43
0
 10
920.3141697796864
 20
104.2250761375648
 10
897.3141697796862
 20
93.49999999999987
 10
897.3141697796862
 20
230.4999999999999
 10
920.3141697796862
 20
219.7749238624349
 10
930.3141697796862
 20
204.7749238624349
 10
955.3141697796862
 20
193.1172324085599
 10
955.3141697796862
 20
130.8827675914399
 10
930.3141697796864
 20
119.2250761375648
  0
CIRCLE
  5
120
100
AcDbEntity
  8
0
  6
ByLayer
 62
  256
370
   -1
100
AcDbCircle
 10
923.5558335689142
 20
288.5524599999999
 40
2.249999999999996
  0
CIRCLE
  5
121
100
AcDbEntity
  8
0
  6
ByLayer
 62
  256
370
   -1
100
AcDbCircle
 10
947.9666297796862
 20
145.9077919115398
 40
2.250000000000001
  0
CIRCLE
  5
122
100
AcDbEntity
  8
0
  6
ByLayer
 62
  256
370
   -1
100
AcDbCircle
 10
947.9666297796862
 20
178.0922080884599
 40
2.249999999999996
  0
LWPOLYLINE
  5
123
100
AcDbEntity
  8
0
  6
ByLayer
 62
  256
370
   -1
100
AcDbPolyline
 90
    5
 70
    1
 43
0
 10
897.3141697796862
 20
86.09999999999988
 10
908.039245917251
 20
63.09999999999984
 10
923.039245917251
 20
53.09999999999984
 10
934.6969373711261
 20
28.0999999999998
 10
897.3141697796862
 20
28.09999999999989
  0
CIRCLE
  5
124
100
AcDbEntity
  8
0
  6
ByLayer
 62
  256
370
   -1
100
AcDbCircle
 10
913.9666297796862
 20
215.0907549307361
 40
2.249999999999996
  0
CIRCLE
  5
125
100
AcDbEntity
  8
0
  6
ByLayer
 62
  256
370
   -1
100
AcDbCircle
 10
913.9666297796862
 20
108.9092450692637
 40
2.250000000000001
  0
LWPOLYLINE
  5
126
100
AcDbEntity
  8
0
  6
ByLayer
 62
  256
370
   -1
100
AcDbPolyline
 90
    4
 70
    1
 43
0
 10
707.7425969044324
 20
230.4999999999999
 10
707.7425969044324
 20
237.9
 10
889.9141697796862
 20
237.9
 10
889.9141697796862
 20
230.4999999999999
  0
LWPOLYLINE
  5
127
100
AcDbEntity
  8
0
  6
ByLayer
 62
  256
370
   -1
100
AcDbPolyline
 90
    4
 70
    1
 43
0
 10
707.7425969044323
 20
93.5
 10
707.7425969044323
 20
86.09999999999994
 10
889.9141697796862
 20
86.09999999999994
 10
889.9141697796862
 20
93.49999999999993
  0
CIRCLE
  5
128
100
AcDbEntity
  8
0
  6
ByLayer
 62
  256
370
   -1
100
AcDbCircle
 10
923.5558335689138
 20
35.4475399999998
 40
2.25
  0
LWPOLYLINE
  5
129
100
AcDbEntity
  8
0
  6
ByLayer
 62
  256
370
   -1
100
AcDbPolyline
 90
    4
 70
    1
 43
0
 10
700.3425969044324
 20
93.49999999999994
 10
700.3425969044324
 20
230.4999999999999
 10
707.7425969044324
 20
230.4999999999999
 10
707.7425969044323
 20
93.5
  0
LWPOLYLINE
  5
12A
100
AcDbEntity
  8
0
  6
ByLayer
 62
  256
370
   -1
100
AcDbPolyline
 90
    4
 70
    1
 43
0
 10
897.3141697796862
 20
230.4999999999999
 10
897.3141697796862
 20
93.5
 10
889.9141697796863
 20
93.49999999999986
 10
889.9141697796862
 20
230.4999999999999
  0
LWPOLYLINE
  5
12B
100
AcDbEntity
  8
0
  6
ByLayer
 62
  256
370
   -1
100
AcDbPolyline
 90
    4
 70
    1
 43
0
 10
897.3141697796864
 20
295.9
 10
897.3141697796862
 20
237.9
 10
889.9141697796862
 20
237.9
 10
889.9141697796863
 20
295.9
  0
LWPOLYLINE
  5
12C
100
AcDbEntity
  8
0
  6
ByLayer
 62
  256
370
   -1
100
AcDbPolyline
 90
    4
 70
    1
 43
0
 10
700.3425969044323
 20
295.9
 10
700.3425969044324
 20
237.9
 10
707.7425969044323
 20
237.9000000000001
 10
707.7425969044323
 20
295.9
  0
LWPOLYLINE
  5
12D
100
AcDbEntity
  8
0
  6
ByLayer
 62
  256
370
   -1
100
AcDbPolyline
 90
    4
 70
    1
 43
0
 10
700.3425969044323
 20
28.09999999999989
 10
700.3425969044323
 20
86.09999999999994
 10
707.7425969044323
 20
86.09999999999984
 10
707.7425969044323
 20
28.09999999999999
  0
LWPOLYLINE
  5
12E
100
AcDbEntity
  8
0
  6
ByLayer
 62
  256
370
   -1
100
AcDbPolyline
 90
    4
 70
    1
 43
0
 10
897.3141697796862
 20
28.09999999999989
 10
897.3141697796862
 20
86.09999999999988
 10
889.9141697796862
 20
86.09999999999994
 10
889.9141697796862
 20
28.09999999999989
  0
LINE
  5
12F
100
AcDbEntity
  8
0
  6
ByLayer
 62
  256
370
   -1
100
AcDbLine
 10
893.6141697796862
 20
89.79999999999998
 11
704.0425969044323
 21
89.79999999999998
  0
LINE
  5
130
100
AcDbEntity
  8
0
  6
ByLayer
 62
  256
370
   -1
100
AcDbLine
 10
704.0425969044323
 20
89.79999999999998
 11
704.0425969044323
 21
234.2
  0
LINE
  5
131
100
AcDbEntity
  8
0
  6
ByLayer
 62
  256
370
   -1
100
AcDbLine
 10
704.0425969044323
 20
234.2
 11
893.6141697796862
 21
234.2
  0
CIRCLE
  5
132
100
AcDbEntity
  8
0
  6
ByLayer
 62
  256
370
   -1
100
AcDbCircle
 10
688.539392267541
 20
195.5240000000019
 40
4.249999999999998
  0
LINE
  5
133
100
AcDbEntity
  8
0
  6
ByLayer
 62
  256
370
   -1
100
AcDbLine
 10
893.6141697796862
 20
234.2
 11
893.6141697796862
 21
89.79999999999998
  0
CIRCLE
  5
134
100
AcDbEntity
  8
0
  6
ByLayer
 62
  256
370
   -1
100
AcDbCircle
 10
684.3185969044306
 20
38.2967953631086
 40
4.25
  0
LINE
  5
135
100
AcDbEntity
  8
0
  6
ByLayer
 62
  256
370
   -1
100
AcDbLine
 10
704.0425969044323
 20
234.2
 11
704.0425969044323
 21
295.9
  0
LINE
  5
136
100
AcDbEntity
  8
0
  6
ByLayer
 62
  256
370
   -1
100
AcDbLine
 10
893.6141697796862
 20
234.2
 11
893.6141697796863
 21
295.9
  0
LINE
  5
137
100
AcDbEntity
  8
0
  6
ByLayer
 62
  256
370
   -1
100
AcDbLine
 10
893.6141697796862
 20
89.79999999999998
 11
893.6141697796862
 21
28.09999999999989
  0
LINE
  5
138
100
AcDbEntity
  8
0
  6
ByLayer
 62
  256
370
   -1
100
AcDbLine
 10
704.0425969044323
 20
89.79999999999998
 11
704.0425969044322
 21
28.09999999999989
  0
LWPOLYLINE
  5
139
100
AcDbEntity
  8
0
  6
ByLayer
 62
  256
370
   -1
100
AcDbPolyline
 90
    8
 70
    1
 43
0
 10
707.7425969044323
 20
390.9513940209204
 10
707.7425969044323
 20
390.9513940209204
 10
707.7425969044324
 20
527.9513940209204
 10
707.7425969044324
 20
527.9513940209204
 10
886.4999562173131
 20
527.9513940209204
 10
889.9141697796862
 20
527.9513940209204
 10
889.9141697796862
 20
390.9513940209204
 10
886.4999562173131
 20
390.9513940209204
  0
LWPOLYLINE
  5
13A
100
AcDbEntity
  8
0
  6
ByLayer
 62
  256
370
   -1
100
AcDbPolyline
 90
    4
 70
    1
 43
0
 10
707.7425969044324
 20
535.3513940209205
 10
707.7425969044324
 20
593.3513940209205
 10
889.9141697796862
 20
593.3513940209205
 10
889.9141697796862
 20
535.3513940209205
  0
LWPOLYLINE
  5
13B
100
AcDbEntity
  8
0
  6
ByLayer
 62
  256
370
   -1
100
AcDbPolyline
 90
    8
 70
    1
 43
0
 10
700.3425969044324
 20
390.9513940209204
 10
677.3425969044326
 20
401.6764701584853
 10
667.3425969044326
 20
416.6764701584853
 10
642.3425969044326
 20
428.3341616123603
 10
642.3425969044326
 20
490.5686264294804
 10
667.3425969044326
 20
502.2263178833554
 10
677.3425969044326
 20
517.2263178833555
 10
700.3425969044324
 20
527.9513940209204
  0
CIRCLE
  5
13C
100
AcDbEntity
  8
0
  6
ByLayer
 62
  256
370
   -1
100
AcDbCircle
 10
674.1009331152044
 20
586.0038540209205
 40
2.249999999999996
  0
LWPOLYLINE
  5
13D
100
AcDbEntity
  8
0
  6
ByLayer
 62
  256
370
   -1
100
AcDbPolyline
 90
    4
 70
    1
 43
0
 10
761.8283833420616
 20
318.5513940209204
 10
761.8283833420617
 20
330.5513940209203
 42
0.9999999999999999
 10
755.8283833420569
 20
330.5513940209203
 10
755.8283833420569
 20
318.5513940209204
 42
0.9999999999999999
  0
LWPOLYLINE
  5
13E
100
AcDbEntity
  8
0
  6
ByLayer
 62
  256
370
   -1
100
AcDbPolyline
 90
    4
 70
    1
 43
0
 10
808.8283833420593
 20
338.0513940209203
 10
838.8283833420593
 20
338.0513940209203
 42
0.9999999999999999
 10
838.8283833420593
 20
344.0513940209204
 10
808.8283833420593
 20
344.0513940209204
 42
0.9999999999999999
  0
CIRCLE
  5
13F
100
AcDbEntity
  8
0
  6
ByLayer
 62
  256
370
   -1
100
AcDbCircle
 10
683.6901369044326
 20
406.3606390901842
 40
2.250000000000001
  0
LWPOLYLINE
  5
140
100
AcDbEntity
  8
0
  6
ByLayer
 62
  256
370
   -1
100
AcDbPolyline
 90
    4
 70
    1
 43
0
 10
783.8283833420593
 20
360.5513940209203
 10
813.8283833420593
 20
360.5513940209203
 42
0.9999999999999999
 10
813.8283833420593
 20
366.5513940209204
 10
783.8283833420593
 20
366.5513940209203
 42
0.9999999999999999
  0
CIRCLE
  5
141
100
AcDbEntity
  8
0
  6
ByLayer
 62
  256
370
   -1
100
AcDbCircle
 10
683.6901369044327
 20
512.5421489516565
 40
2.249999999999996
  0
LWPOLYLINE
  5
142
100
AcDbEntity
  8
0
  6
ByLayer
 62
  256
370
   -1
100
AcDbPolyline
 90
    4
 70
    1
 43
0
 10
783.8283833420593
 20
315.5513940209203
 10
813.8283833420593
 20
315.5513940209204
 42
0.9999999999999999
 10
813.8283833420593
 20
321.5513940209203
 10
783.8283833420593
 20
321.5513940209204
 42
0.9999999999999999
  0
CIRCLE
  5
143
100
AcDbEntity
  8
0
  6
ByLayer
 62
  256
370
   -1
100
AcDbCircle
 10
649.6901369044326
 20
475.5436021093805
 40
2.249999999999996
  0
LWPOLYLINE
  5
144
100
AcDbEntity
  8
0
  6
ByLayer
 62
  256
370
   -1
100
AcDbPolyline
 90
    4
 70
    1
 43
0
 10
758.8283833420593
 20
338.0513940209203
 10
788.8283833420593
 20
338.0513940209203
 42
0.9999999999999999
 10
788.8283833420593
 20
344.0513940209204
 10
758.8283833420593
 20
344.0513940209203
 42
0.9999999999999999
  0
CIRCLE
  5
145
100
AcDbEntity
  8
0
  6
ByLayer
 62
  256
370
   -1
100
AcDbCircle
 10
649.6901369044326
 20
443.3591859324603
 40
2.250000000000001
  0
LWPOLYLINE
  5
146
100
AcDbEntity
  8
0
  6
ByLayer
 62
  256
370
   -1
100
AcDbPolyline
 90
    4
 70
    1
 43
0
 10
841.8283833420593
 20
351.5513940209203
 10
841.8283833420593
 20
363.5513940209204
 42
0.9999999999999999
 10
835.8283833420593
 20
363.5513940209204
 10
835.8283833420594
 20
351.5513940209203
 42
0.9999999999999999
  0
LWPOLYLINE
  5
147
100
AcDbEntity
  8
0
  6
ByLayer
 62
  256
370
   -1
100
AcDbPolyline
 90
    4
 70
    1
 43
0
 10
761.8283833420566
 20
351.5513940209203
 10
761.8283833420566
 20
363.5513940209203
 42
0.9999999999999999
 10
755.828383342062
 20
363.5513940209203
 10
755.828383342062
 20
351.5513940209203
 42
0.9999999999999999
  0
LWPOLYLINE
  5
148
100
AcDbEntity
  8
0
  6
ByLayer
 62
  256
370
   -1
100
AcDbPolyline
 90
    4
 70
    1
 43
0
 10
841.8283833420596
 20
318.5513940209204
 10
841.8283833420592
 20
330.5513940209204
 42
0.9999999999999997
 10
835.8283833420587
 20
330.5513940209202
 10
835.8283833420589
 20
318.5513940209203
 42
0.999999999999999
  0
LWPOLYLINE
  5
149
100
AcDbEntity
  8
0
  6
ByLayer
 62
  256
370
   -1
100
AcDbPolyline
 90
   12
 70
    1
 43
0
 10
707.7425969044324
 20
325.5513940209203
 10
707.7425969044324
 20
383.5513940209204
 10
889.9141697796862
 20
383.5513940209204
 10
889.9141697796862
 20
325.5513940209203
 10
872.6800726706407
 20
325.5513940209203
 42
0.1494510013491316
 10
868.2065294428746
 20
324.1836946013606
 10
836.680461750763
 20
302.9190934404801
 42
-0.149451001349137
 10
832.2069185229968
 20
301.5513940209204
 10
765.4498481611217
 20
301.5513940209204
 42
-0.1494510013491315
 10
760.9763049333557
 20
302.9190934404801
 10
729.4502372412439
 20
324.1836946013606
 42
0.1494510013491296
 10
724.9766940134778
 20
325.5513940209203
  0
LWPOLYLINE
  5
14A
100
AcDbEntity
  8
0
  6
ByLayer
 62
  256
370
   -1
100
AcDbPolyline
 90
    5
 70
    1
 43
0
 10
689.6175207668674
 20
360.5513940209206
 10
700.3425969044323
 20
383.5513940209204
 10
700.3425969044323
 20
325.5513940209203
 10
662.9598293129923
 20
325.5513940209206
 10
674.6175207668674
 20
350.5513940209206
  0
LWPOLYLINE
  5
14B
100
AcDbEntity
  8
0
  6
ByLayer
 62
  256
370
   -1
100
AcDbPolyline
 90
    5
 70
    1
 43
0
 10
908.0392459172513
 20
558.3513940209205
 10
897.3141697796862
 20
535.3513940209205
 10
897.3141697796862
 20
593.3513940209205
 10
934.6969373711265
 20
593.3513940209203
 10
923.0392459172513
 20
568.3513940209202
  0
LWPOLYLINE
  5
14C
100
AcDbEntity
  8
0
  6
ByLayer
 62
  256
370
   -1
100
AcDbPolyline
 90
    5
 70
    1
 43
0
 10
689.6175207668674
 20
558.3513940209202
 10
700.3425969044324
 20
535.3513940209205
 10
700.3425969044324
 20
593.3513940209205
 10
662.959829312992
 20
593.3513940209205
 10
674.6175207668673
 20
568.3513940209202
  0
CIRCLE
  5
14D
100
AcDbEntity
  8
0
  6
ByLayer
 62
  256
370
   -1
100
AcDbCircle
 10
674.1009331152046
 20
332.8989340209206
 40
2.25
  0
LWPOLYLINE
  5
14E
100
AcDbEntity
  8
0
  6
ByLayer
 62
  256
370
   -1
100
AcDbPolyline
 90
    8
 70
    1
 43
0
 10
920.3141697796864
 20
401.6764701584852
 10
897.3141697796862
 20
390.9513940209203
 10
897.3141697796862
 20
527.9513940209204
 10
920.3141697796862
 20
517.2263178833553
 10
930.3141697796862
 20
502.2263178833553
 10
955.3141697796862
 20
490.5686264294803
 10
955.3141697796862
 20
428.3341616123603
 10
930.3141697796864
 20
416.6764701584852
  0
CIRCLE
  5
14F
100
AcDbEntity
  8
0
  6
ByLayer
 62
  256
370
   -1
100
AcDbCircle
 10
923.5558335689142
 20
586.0038540209202
 40
2.249999999999996
  0
CIRCLE
  5
150
100
AcDbEntity
  8
0
  6
ByLayer
 62
  256
370
   -1
100
AcDbCircle
 10
947.9666297796862
 20
443.3591859324602
 40
2.250000000000001
  0
CIRCLE
  5
151
100
AcDbEntity
  8
0
  6
ByLayer
 62
  256
370
   -1
100
AcDbCircle
 10
947.9666297796862
 20
475.5436021093803
 40
2.249999999999996
  0
LWPOLYLINE
  5
152
100
AcDbEntity
  8
0
  6
ByLayer
 62
  256
370
   -1
100
AcDbPolyline
 90
    5
 70
    1
 43
0
 10
897.3141697796862
 20
383.5513940209203
 10
908.039245917251
 20
360.5513940209203
 10
923.039245917251
 20
350.5513940209203
 10
934.6969373711261
 20
325.5513940209202
 10
897.3141697796862
 20
325.5513940209203
  0
CIRCLE
  5
153
100
AcDbEntity
  8
0
  6
ByLayer
 62
  256
370
   -1
100
AcDbCircle
 10
913.9666297796862
 20
512.5421489516565
 40
2.249999999999996
  0
CIRCLE
  5
154
100
AcDbEntity
  8
0
  6
ByLayer
 62
  256
370
   -1
100
AcDbCircle
 10
913.9666297796862
 20
406.3606390901841
 40
2.250000000000001
  0
LWPOLYLINE
  5
155
100
AcDbEntity
  8
0
  6
ByLayer
 62
  256
370
   -1
100
AcDbPolyline
 90
    4
 70
    1
 43
0
 10
707.7425969044324
 20
527.9513940209204
 10
707.7425969044324
 20
535.3513940209205
 10
889.9141697796862
 20
535.3513940209205
 10
889.9141697796862
 20
527.9513940209204
  0
LWPOLYLINE
  5
156
100
AcDbEntity
  8
0
  6
ByLayer
 62
  256
370
   -1
100
AcDbPolyline
 90
    4
 70
    1
 43
0
 10
707.7425969044323
 20
390.9513940209204
 10
707.7425969044323
 20
383.5513940209204
 10
889.9141697796862
 20
383.5513940209204
 10
889.9141697796862
 20
390.9513940209204
  0
CIRCLE
  5
157
100
AcDbEntity
  8
0
  6
ByLayer
 62
  256
370
   -1
100
AcDbCircle
 10
923.5558335689138
 20
332.8989340209202
 40
2.25
  0
LWPOLYLINE
  5
158
100
AcDbEntity
  8
0
  6
ByLayer
 62
  256
370
   -1
100
AcDbPolyline
 90
    4
 70
    1
 43
0
 10
700.3425969044324
 20
390.9513940209204
 10
700.3425969044324
 20
527.9513940209204
 10
707.7425969044324
 20
527.9513940209204
 10
707.7425969044323
 20
390.9513940209204
  0
LWPOLYLINE
  5
159
100
AcDbEntity
  8
0
  6
ByLayer
 62
  256
370
   -1
100
AcDbPolyline
 90
    4
 70
    1
 43
0
 10
897.3141697796862
 20
527.9513940209204
 10
897.3141697796862
 20
390.9513940209204
 10
889.9141697796863
 20
390.9513940209202
 10
889.9141697796862
 20
527.9513940209204
  0
LWPOLYLINE
  5
15A
100
AcDbEntity
  8
0
  6
ByLayer
 62
  256
370
   -1
100
AcDbPolyline
 90
    4
 70
    1
 43
0
 10
897.3141697796864
 20
593.3513940209205
 10
897.3141697796862
 20
535.3513940209205
 10
889.9141697796862
 20
535.3513940209205
 10
889.9141697796863
 20
593.3513940209205
  0
LWPOLYLINE
  5
15B
100
AcDbEntity
  8
0
  6
ByLayer
 62
  256
370
   -1
100
AcDbPolyline
 90
    4
 70
    1
 43
0
 10
700.3425969044323
 20
593.3513940209205
 10
700.3425969044324
 20
535.3513940209205
 10
707.7425969044323
 20
535.3513940209205
 10
707.7425969044323
 20
593.3513940209205
  0
LWPOLYLINE
  5
15C
100
AcDbEntity
  8
0
  6
ByLayer
 62
  256
370
   -1
100
AcDbPolyline
 90
    4
 70
    1
 43
0
 10
700.3425969044323
 20
325.5513940209203
 10
700.3425969044323
 20
383.5513940209204
 10
707.7425969044323
 20
383.5513940209203
 10
707.7425969044323
 20
325.5513940209204
  0
LWPOLYLINE
  5
15D
100
AcDbEntity
  8
0
  6
ByLayer
 62
  256
370
   -1
100
AcDbPolyline
 90
    4
 70
    1
 43
0
 10
897.3141697796862
 20
325.5513940209203
 10
897.3141697796862
 20
383.5513940209203
 10
889.9141697796862
 20
383.5513940209204
 10
889.9141697796862
 20
325.5513940209203
  0
LINE
  5
15E
100
AcDbEntity
  8
0
  6
ByLayer
 62
  256
370
   -1
100
AcDbLine
 10
893.6141697796862
 20
387.2513940209204
 11
704.0425969044323
 21
387.2513940209204
  0
LINE
  5
15F
100
AcDbEntity
  8
0
  6
ByLayer
 62
  256
370
   -1
100
AcDbLine
 10
704.0425969044323
 20
387.2513940209204
 11
704.0425969044323
 21
531.6513940209204
  0
LINE
  5
160
100
AcDbEntity
  8
0
  6
ByLayer
 62
  256
370
   -1
100
AcDbLine
 10
704.0425969044323
 20
531.6513940209204
 11
893.6141697796862
 21
531.6513940209204
  0
CIRCLE
  5
161
100
AcDbEntity
  8
0
  6
ByLayer
 62
  256
370
   -1
100
AcDbCircle
 10
688.539392267541
 20
492.9753940209223
 40
4.249999999999998
  0
LINE
  5
162
100
AcDbEntity
  8
0
  6
ByLayer
 62
  256
370
   -1
100
AcDbLine
 10
893.6141697796862
 20
531.6513940209204
 11
893.6141697796862
 21
387.2513940209204
  0
CIRCLE
  5
163
100
AcDbEntity
  8
0
  6
ByLayer
 62
  256
370
   -1
100
AcDbCircle
 10
684.3185969044306
 20
335.748189384029
 40
4.25
  0
LINE
  5
164
100
AcDbEntity
  8
0
  6
ByLayer
 62
  256
370
   -1
100
AcDbLine
 10
704.0425969044323
 20
531.6513940209204
 11
704.0425969044323
 21
593.3513940209205
  0
LINE
  5
165
100
AcDbEntity
  8
0
  6
ByLayer
 62
  256
370
   -1
100
AcDbLine
 10
893.6141697796862
 20
531.6513940209204
 11
893.6141697796863
 21
593.3513940209205
  0
LINE
  5
166
100
AcDbEntity
  8
0
  6
ByLayer
 62
  256
370
   -1
100
AcDbLine
 10
893.6141697796862
 20
387.2513940209204
 11
893.6141697796862
 21
325.5513940209203
  0
LINE
  5
167
100
AcDbEntity
  8
0
  6
ByLayer
 62
  256
370
   -1
100
AcDbLine
 10
704.0425969044323
 20
387.2513940209204
 11
704.0425969044322
 21
325.5513940209203
  0
ENDSEC
  0
SECTION
  2
OBJECTS
  0
DICTIONARY
  5
C
330
0
100
AcDbDictionary
281
    1
  3
ACAD_GROUP
350
D
  0
DICTIONARY
  5
D
330
C
100
AcDbDictionary
281
    1
  0
PLOTSETTINGS
  5
168
100
AcDbPlotSettings
  6
1x1
 40
0
 41
0
 42
0
 43
0
  0
ENDSEC
  0
EOF
