<svg xmlns="http://www.w3.org/2000/svg" viewBox="0 0 2307.89 1649.45"><title>ISCAPE_ENCLOSURES_PROTOS_ALL [Converted]</title><rect x="458.42" y="299.59" width="24.16" height="8.5" style="fill:none;stroke:#000;stroke-linecap:round;stroke-linejoin:round;stroke-width:0.28346458077430725px"/><rect x="627.56" y="299.59" width="24.16" height="8.5" style="fill:none;stroke:#000;stroke-linecap:round;stroke-linejoin:round;stroke-width:0.28346458077430725px"/><rect x="530.91" y="299.59" width="48.32" height="8.5" style="fill:none;stroke:#000;stroke-linecap:round;stroke-linejoin:round;stroke-width:0.28346458077430725px"/><path d="M704.25,390.72a9.35,9.35,0,0,1,9.35,9.35v26.85a83.15,83.15,0,1,1-166.3,0V400.07a9.35,9.35,0,0,1,9.35-9.35H704.25Z" transform="translate(-75.38 -68.45)" style="fill:none;stroke:#000;stroke-linecap:round;stroke-linejoin:round;stroke-width:0.28346458077430725px"/><circle cx="678.78" cy="372.29" r="4.25" transform="translate(-143.89 506.08) rotate(-43.89)" style="fill:none;stroke:#000;stroke-linecap:round;stroke-linejoin:round;stroke-width:0.28346458077430725px"/><circle cx="582.13" cy="372.29" r="4.25" transform="translate(-165.12 465.31) rotate(-46.11)" style="fill:none;stroke:#000;stroke-linecap:round;stroke-linejoin:round;stroke-width:0.28346458077430725px"/><circle cx="630.46" cy="426.92" r="134.65" transform="translate(-88.55 -48.33) rotate(-1.81)" style="fill:none;stroke:#000;stroke-linecap:round;stroke-linejoin:round;stroke-width:0.28346458077430725px"/><path d="M926,873.33v6.52h-2.55a0.73,0.73,0,0,0-.85.85v28.7a0.48,0.48,0,0,0,.57.57h19.2v24.09h24.16V621.94a9.35,9.35,0,0,0-9.35-9.35H782.62a9.35,9.35,0,0,0-9.35,9.35V934.06h24.16V910h19.2a0.48,0.48,0,0,0,.57-0.57V880.7a0.73,0.73,0,0,0-.85-0.85H813.8v-6.52h2.55a0.73,0.73,0,0,0,.85-0.85V853.69a4.39,4.39,0,1,1,8.79,0v18.79a0.73,0.73,0,0,0,.85.85h2.55v6.52h-2.55a0.73,0.73,0,0,0-.85.85v28.7a0.48,0.48,0,0,0,.57.57h19.2v24.09h48.32V910h19.2a0.48,0.48,0,0,0,.57-0.57V880.7a0.73,0.73,0,0,0-.85-0.85h-2.55v-6.52H913a0.73,0.73,0,0,0,.85-0.85V853.69a4.39,4.39,0,1,1,8.79,0v18.79a0.73,0.73,0,0,0,.85.85H926Z" transform="translate(-75.38 -68.45)" style="fill:none;stroke:#000;stroke-linecap:round;stroke-linejoin:round;stroke-width:0.28346458077430725px"/><path d="M956.6,694v20.32a3.53,3.53,0,1,1-7.05,0V694A3.53,3.53,0,1,1,956.6,694Z" transform="translate(-75.38 -68.45)" style="fill:none;stroke:#000;stroke-linecap:round;stroke-linejoin:round;stroke-width:0.28346458077430725px"/><path d="M790.3,694v20.32a3.53,3.53,0,1,1-7.05,0V694A3.53,3.53,0,1,1,790.3,694Z" transform="translate(-75.38 -68.45)" style="fill:none;stroke:#000;stroke-linecap:round;stroke-linejoin:round;stroke-width:0.28346458077430725px"/><line x1="850.66" y1="810.97" x2="850.66" y2="805.31" style="fill:none;stroke:#000;stroke-linecap:round;stroke-linejoin:round;stroke-width:0.28346458077430725px"/><line x1="835.07" y1="805.31" x2="835.07" y2="810.97" style="fill:none;stroke:#000;stroke-linecap:round;stroke-linejoin:round;stroke-width:0.28346458077430725px"/><line x1="754.01" y1="805.31" x2="754.01" y2="810.97" style="fill:none;stroke:#000;stroke-linecap:round;stroke-linejoin:round;stroke-width:0.28346458077430725px"/><line x1="738.42" y1="810.97" x2="738.42" y2="805.31" style="fill:none;stroke:#000;stroke-linecap:round;stroke-linejoin:round;stroke-width:0.28346458077430725px"/><circle cx="782.04" cy="565.46" r="3.54" style="fill:none;stroke:#000;stroke-linecap:round;stroke-linejoin:round;stroke-width:0.28346458077430725px"/><circle cx="867.65" cy="565.53" r="3.54" style="fill:none;stroke:#000;stroke-linecap:round;stroke-linejoin:round;stroke-width:0.28346458077430725px"/><circle cx="867.65" cy="706.72" r="3.54" style="fill:none;stroke:#000;stroke-linecap:round;stroke-linejoin:round;stroke-width:0.28346458077430725px"/><circle cx="718.97" cy="689.3" r="3.54" style="fill:none;stroke:#000;stroke-linecap:round;stroke-linejoin:round;stroke-width:0.28346458077430725px"/><circle cx="869.92" cy="807.62" r="13.19" transform="translate(-209.3 1372.69) rotate(-75.13)" style="fill:none;stroke:#000;stroke-linecap:round;stroke-linejoin:round;stroke-width:0.28346458077430725px"/><circle cx="678.78" cy="692.48" r="4.25" transform="translate(-365.86 595.5) rotate(-43.89)" style="fill:none;stroke:#000;stroke-linecap:round;stroke-linejoin:round;stroke-width:0.28346458077430725px"/><circle cx="582.13" cy="692.48" r="4.25" transform="translate(-395.88 563.53) rotate(-46.11)" style="fill:none;stroke:#000;stroke-linecap:round;stroke-linejoin:round;stroke-width:0.28346458077430725px"/><rect x="627.56" y="619.78" width="24.16" height="8.5" style="fill:none;stroke:#000;stroke-linecap:round;stroke-linejoin:round;stroke-width:0.28346458077430725px"/><rect x="458.42" y="619.78" width="24.16" height="8.5" style="fill:none;stroke:#000;stroke-linecap:round;stroke-linejoin:round;stroke-width:0.28346458077430725px"/><rect x="530.91" y="619.78" width="48.32" height="8.5" style="fill:none;stroke:#000;stroke-linecap:round;stroke-linejoin:round;stroke-width:0.28346458077430725px"/><path d="M556.66,710.9H704.25a9.35,9.35,0,0,1,9.35,9.35v26.85a83.15,83.15,0,1,1-166.3,0V720.26A9.35,9.35,0,0,1,556.66,710.9Z" transform="translate(-75.38 -68.45)" style="fill:none;stroke:#000;stroke-linecap:round;stroke-linejoin:round;stroke-width:0.28346458077430725px"/><path d="M523.52,814.41l1.13,2,24.55-14.17-7.09-12.27L517.56,804.1l1.13,2a0.48,0.48,0,0,1-.21.77L513.06,810a1.42,1.42,0,0,1-2-.57A134.65,134.65,0,0,1,624.73,612.58a1.42,1.42,0,0,1,1.48,1.42v6.27a0.48,0.48,0,0,1-.57.57h-2.27v28.35h14.17V620.84h-2.27a0.48,0.48,0,0,1-.57-0.57V614a1.42,1.42,0,0,1,1.48-1.42A134.65,134.65,0,0,1,749.82,809.41a1.42,1.42,0,0,1-2,.57l-5.43-3.14a0.48,0.48,0,0,1-.21-0.77l1.13-2L718.8,789.93l-7.09,12.27,24.55,14.17,1.13-2a0.48,0.48,0,0,1,.77-0.21l5.43,3.14a1.42,1.42,0,0,1,.49,2,134.65,134.65,0,0,1-227.27,0,1.42,1.42,0,0,1,.49-2l5.43-3.14A0.48,0.48,0,0,1,523.52,814.41Z" transform="translate(-75.38 -68.45)" style="fill:none;stroke:#000;stroke-linecap:round;stroke-linejoin:round;stroke-width:0.28346458077430725px"/><path d="M991.64,396.38a9.35,9.35,0,0,1,9.35,9.35v26.85a83.15,83.15,0,1,1-166.3,0V405.74a9.35,9.35,0,0,1,9.35-9.35H991.64Z" transform="translate(-75.38 -68.45)" style="fill:none;stroke:#000;stroke-linecap:round;stroke-linejoin:round;stroke-width:0.28346458077430725px"/><circle cx="966.16" cy="377.96" r="4.25" transform="translate(-67.56 706.89) rotate(-43.89)" style="fill:none;stroke:#000;stroke-linecap:round;stroke-linejoin:round;stroke-width:0.28346458077430725px"/><circle cx="869.52" cy="377.96" r="4.25" transform="translate(-81.05 674.17) rotate(-46.11)" style="fill:none;stroke:#000;stroke-linecap:round;stroke-linejoin:round;stroke-width:0.28346458077430725px"/><circle cx="842.46" cy="364.14" r="140.31" style="fill:none;stroke:#000;stroke-linecap:round;stroke-linejoin:round;stroke-width:0.28346458077430725px"/><circle cx="842.46" cy="234.1" r="1.42" style="fill:none;stroke:#000;stroke-linecap:round;stroke-linejoin:round;stroke-width:0.28346458077430725px"/><circle cx="805.22" cy="497.61" r="1.42" transform="translate(-216.31 400.82) rotate(-30)" style="fill:none;stroke:#000;stroke-linecap:round;stroke-linejoin:round;stroke-width:0.28346458077430725px"/><circle cx="1030.46" cy="497.61" r="1.42" transform="matrix(0.5, -0.87, 0.87, 0.5, 8.89, 1072.74)" style="fill:none;stroke:#000;stroke-linecap:round;stroke-linejoin:round;stroke-width:0.28346458077430725px"/><circle cx="1849.28" cy="386.46" r="4.25" transform="translate(213.39 1382.91) rotate(-46.11)" style="fill:none;stroke:#000;stroke-linecap:round;stroke-linejoin:round;stroke-width:0.28346458077430725px"/><line x1="2120" y1="833.66" x2="2120" y2="839.33" style="fill:none;stroke:#000;stroke-linecap:round;stroke-linejoin:round;stroke-width:0.28346458077430725px"/><line x1="2135.59" y1="839.33" x2="2135.59" y2="833.66" style="fill:none;stroke:#000;stroke-linecap:round;stroke-linejoin:round;stroke-width:0.28346458077430725px"/><path d="M2075.23,722.4v20.32a3.53,3.53,0,1,1-7.05,0V722.4A3.53,3.53,0,1,1,2075.23,722.4Z" transform="translate(-75.38 -68.45)" style="fill:none;stroke:#000;stroke-linecap:round;stroke-linejoin:round;stroke-width:0.28346458077430725px"/><path d="M2241.53,722.4v20.32a3.53,3.53,0,0,1-7.05,0V722.4A3.53,3.53,0,0,1,2241.53,722.4Z" transform="translate(-75.38 -68.45)" style="fill:none;stroke:#000;stroke-linecap:round;stroke-linejoin:round;stroke-width:0.28346458077430725px"/><path d="M2211,901.69v6.52h-2.55a0.73,0.73,0,0,0-.85.85v28.7a0.48,0.48,0,0,0,.57.57h19.2v24.09h24.16V650.3a9.35,9.35,0,0,0-9.35-9.35H2067.56a9.35,9.35,0,0,0-9.35,9.35V962.42h24.16V938.33h19.2a0.48,0.48,0,0,0,.57-0.57v-28.7a0.73,0.73,0,0,0-.85-0.85h-2.55v-6.52h2.55a0.73,0.73,0,0,0,.85-0.85V882a4.39,4.39,0,1,1,8.79,0v18.79a0.73,0.73,0,0,0,.85.85h2.55v6.52h-2.55a0.73,0.73,0,0,0-.85.85v28.7a0.48,0.48,0,0,0,.57.57h19.2v24.09H2179V938.33h19.2a0.48,0.48,0,0,0,.57-0.57v-28.7a0.73,0.73,0,0,0-.85-0.85h-2.55v-6.52h2.55a0.73,0.73,0,0,0,.85-0.85V882a4.39,4.39,0,1,1,8.79,0v18.79a0.73,0.73,0,0,0,.85.85H2211Z" transform="translate(-75.38 -68.45)" style="fill:none;stroke:#000;stroke-linecap:round;stroke-linejoin:round;stroke-width:0.28346458077430725px"/><path d="M1901.87,614v6.28a0.48,0.48,0,0,0,.57.57h2.27V649.2h-14.17V620.85h2.27a0.48,0.48,0,0,0,.57-0.57V614a1.42,1.42,0,0,0-1.47-1.42,148.82,148.82,0,0,0-125.95,218.09,1.42,1.42,0,0,0,2,.57l5.44-3.14a0.48,0.48,0,0,0,.21-0.77l-1.13-2L1797,811.19l7.09,12.27-24.55,14.17-1.13-2a0.48,0.48,0,0,0-.77-0.21l-5.44,3.14a1.42,1.42,0,0,0-.49,2,148.82,148.82,0,0,0,251.85,0,1.42,1.42,0,0,0-.49-2l-5.44-3.14a0.48,0.48,0,0,0-.77.21l-1.13,2-24.55-14.17,7.09-12.27,24.55,14.17-1.13,2a0.48,0.48,0,0,0,.21.77l5.44,3.14a1.42,1.42,0,0,0,2-.57,148.82,148.82,0,0,0-125.9-218.12A1.42,1.42,0,0,0,1901.87,614Z" transform="translate(-75.38 -68.45)" style="fill:none;stroke:#000;stroke-linecap:round;stroke-linejoin:round;stroke-width:0.28346458077430725px"/><circle cx="1637.43" cy="706.66" r="4.25" transform="translate(-107.96 1264.02) rotate(-43.89)" style="fill:none;stroke:#000;stroke-linecap:round;stroke-linejoin:round;stroke-width:0.28346458077430725px"/><circle cx="1540.78" cy="706.66" r="4.25" transform="translate(-112.02 1258.8) rotate(-46.11)" style="fill:none;stroke:#000;stroke-linecap:round;stroke-linejoin:round;stroke-width:0.28346458077430725px"/><rect x="1586.21" y="633.96" width="24.16" height="8.5" style="fill:none;stroke:#000;stroke-linecap:round;stroke-linejoin:round;stroke-width:0.28346458077430725px"/><rect x="1417.08" y="633.96" width="24.16" height="8.5" style="fill:none;stroke:#000;stroke-linecap:round;stroke-linejoin:round;stroke-width:0.28346458077430725px"/><rect x="1489.56" y="633.96" width="48.32" height="8.5" style="fill:none;stroke:#000;stroke-linecap:round;stroke-linejoin:round;stroke-width:0.28346458077430725px"/><path d="M1515.31,725.09h147.59a9.35,9.35,0,0,1,9.35,9.35v26.85a83.15,83.15,0,0,1-166.3,0V734.44A9.35,9.35,0,0,1,1515.31,725.09Z" transform="translate(-75.38 -68.45)" style="fill:none;stroke:#000;stroke-linecap:round;stroke-linejoin:round;stroke-width:0.28346458077430725px"/><path d="M1593.38,614v6.28a0.48,0.48,0,0,0,.57.57h2.27V649.2H1582V620.85h2.27a0.48,0.48,0,0,0,.57-0.57V614a1.42,1.42,0,0,0-1.47-1.42,148.82,148.82,0,0,0-125.95,218.09,1.42,1.42,0,0,0,2,.57l5.44-3.14a0.48,0.48,0,0,0,.21-0.77l-1.13-2,24.55-14.17,7.09,12.27L1471,837.64l-1.13-2a0.48,0.48,0,0,0-.77-0.21l-5.44,3.14a1.42,1.42,0,0,0-.49,2,148.82,148.82,0,0,0,251.85,0,1.42,1.42,0,0,0-.49-2l-5.44-3.14a0.48,0.48,0,0,0-.77.21l-1.13,2-24.55-14.17,7.09-12.27,24.55,14.17-1.13,2a0.48,0.48,0,0,0,.21.77l5.44,3.14a1.42,1.42,0,0,0,2-.57,148.82,148.82,0,0,0-125.9-218.12A1.42,1.42,0,0,0,1593.38,614Z" transform="translate(-75.38 -68.45)" style="fill:none;stroke:#000;stroke-linecap:round;stroke-linejoin:round;stroke-width:0.28346458077430725px"/><line x1="2038.94" y1="833.66" x2="2038.94" y2="839.33" style="fill:none;stroke:#000;stroke-linecap:round;stroke-linejoin:round;stroke-width:0.28346458077430725px"/><circle cx="1945.93" cy="386.46" r="4.25" transform="translate(200.18 1388.47) rotate(-43.89)" style="fill:none;stroke:#000;stroke-linecap:round;stroke-linejoin:round;stroke-width:0.28346458077430725px"/><path d="M1971.4,404.89a9.35,9.35,0,0,1,9.35,9.35v26.85a83.15,83.15,0,0,1-166.3,0V414.24a9.35,9.35,0,0,1,9.35-9.35H1971.4Z" transform="translate(-75.38 -68.45)" style="fill:none;stroke:#000;stroke-linecap:round;stroke-linejoin:round;stroke-width:0.28346458077430725px"/><rect x="1798.06" y="313.76" width="48.32" height="8.5" style="fill:none;stroke:#000;stroke-linecap:round;stroke-linejoin:round;stroke-width:0.28346458077430725px"/><rect x="1894.71" y="313.76" width="24.16" height="8.5" style="fill:none;stroke:#000;stroke-linecap:round;stroke-linejoin:round;stroke-width:0.28346458077430725px"/><rect x="1725.57" y="313.76" width="24.16" height="8.5" style="fill:none;stroke:#000;stroke-linecap:round;stroke-linejoin:round;stroke-width:0.28346458077430725px"/><circle cx="1897.6" cy="441.09" r="148.82" transform="translate(-88.37 -8.3) rotate(-1.81)" style="fill:none;stroke:#000;stroke-linecap:round;stroke-linejoin:round;stroke-width:0.28346458077430725px"/><path d="M2289.74,410.56a9.35,9.35,0,0,1,9.35,9.35v26.85a83.15,83.15,0,0,1-166.3,0V419.91a9.35,9.35,0,0,1,9.35-9.35h147.59Z" transform="translate(-75.38 -68.45)" style="fill:none;stroke:#000;stroke-linecap:round;stroke-linejoin:round;stroke-width:0.28346458077430725px"/><circle cx="2264.27" cy="392.13" r="4.25" transform="translate(285.15 1610.72) rotate(-43.89)" style="fill:none;stroke:#000;stroke-linecap:round;stroke-linejoin:round;stroke-width:0.28346458077430725px"/><circle cx="2167.62" cy="392.13" r="4.25" transform="translate(306.96 1614.08) rotate(-46.11)" style="fill:none;stroke:#000;stroke-linecap:round;stroke-linejoin:round;stroke-width:0.28346458077430725px"/><circle cx="2140.56" cy="378.31" r="154.49" style="fill:none;stroke:#000;stroke-linecap:round;stroke-linejoin:round;stroke-width:0.28346458077430725px"/><circle cx="2140.56" cy="233.91" r="1.42" style="fill:none;stroke:#000;stroke-linecap:round;stroke-linejoin:round;stroke-width:0.28346458077430725px"/><circle cx="2090.88" cy="518.97" r="1.42" transform="matrix(0.87, -0.5, 0.5, 0.87, -54.73, 1046.56)" style="fill:none;stroke:#000;stroke-linecap:round;stroke-linejoin:round;stroke-width:0.28346458077430725px"/><circle cx="2341.01" cy="518.97" r="1.42" transform="translate(645.7 2218.42) rotate(-60)" style="fill:none;stroke:#000;stroke-linecap:round;stroke-linejoin:round;stroke-width:0.28346458077430725px"/><path d="M1823.81,725.09H1971.4a9.35,9.35,0,0,1,9.35,9.35v26.85a83.15,83.15,0,0,1-166.3,0V734.44A9.35,9.35,0,0,1,1823.81,725.09Z" transform="translate(-75.38 -68.45)" style="fill:none;stroke:#000;stroke-linecap:round;stroke-linejoin:round;stroke-width:0.28346458077430725px"/><rect x="1798.06" y="633.96" width="48.32" height="8.5" style="fill:none;stroke:#000;stroke-linecap:round;stroke-linejoin:round;stroke-width:0.28346458077430725px"/><rect x="1725.57" y="633.96" width="24.16" height="8.5" style="fill:none;stroke:#000;stroke-linecap:round;stroke-linejoin:round;stroke-width:0.28346458077430725px"/><rect x="1894.71" y="633.96" width="24.16" height="8.5" style="fill:none;stroke:#000;stroke-linecap:round;stroke-linejoin:round;stroke-width:0.28346458077430725px"/><circle cx="1849.28" cy="706.66" r="4.25" transform="translate(-17.39 1481.13) rotate(-46.11)" style="fill:none;stroke:#000;stroke-linecap:round;stroke-linejoin:round;stroke-width:0.28346458077430725px"/><circle cx="1945.93" cy="706.66" r="4.25" transform="translate(-21.8 1477.89) rotate(-43.89)" style="fill:none;stroke:#000;stroke-linecap:round;stroke-linejoin:round;stroke-width:0.28346458077430725px"/><circle cx="2154.86" cy="835.98" r="13.19" transform="translate(718.46 2635.67) rotate(-75.13)" style="fill:none;stroke:#000;stroke-linecap:round;stroke-linejoin:round;stroke-width:0.28346458077430725px"/><circle cx="2003.91" cy="717.66" r="3.54" style="fill:none;stroke:#000;stroke-linecap:round;stroke-linejoin:round;stroke-width:0.28346458077430725px"/><circle cx="2152.59" cy="735.08" r="3.54" style="fill:none;stroke:#000;stroke-linecap:round;stroke-linejoin:round;stroke-width:0.28346458077430725px"/><circle cx="2152.59" cy="593.89" r="3.54" style="fill:none;stroke:#000;stroke-linecap:round;stroke-linejoin:round;stroke-width:0.28346458077430725px"/><circle cx="2066.98" cy="593.82" r="3.54" style="fill:none;stroke:#000;stroke-linecap:round;stroke-linejoin:round;stroke-width:0.28346458077430725px"/><line x1="2023.35" y1="839.33" x2="2023.35" y2="833.66" style="fill:none;stroke:#000;stroke-linecap:round;stroke-linejoin:round;stroke-width:0.28346458077430725px"/><text transform="translate(1318.55 72.98)" style="font-size:85px;font-family:Helvetica">SCK 1.5-2.1 <tspan x="486.63" y="0" style="letter-spacing:-6px">1</tspan><tspan x="527.64" y="0">10 diameter</tspan></text><text transform="translate(0 72.98)" style="font-size:85px;font-family:Helvetica">SCK 1.5-2.1 100 diameter</text><text transform="translate(521.18 1176.98)" style="font-size:85px;font-family:Helvetica">SCK 1.5-2.1 <tspan x="486.63" y="0" style="letter-spacing:-6px">1</tspan><tspan x="527.64" y="0">10 diameter + GAS PRO BOARD</tspan></text><path d="M1073.74,1557.68a0.92,0.92,0,1,0-.92.92A0.79,0.79,0,0,0,1073.74,1557.68Z" transform="translate(-75.38 -68.45)" style="fill:none;stroke:#000;stroke-linecap:round;stroke-linejoin:round;stroke-width:0.28346458077430725px"/><circle cx="1051.02" cy="1337.91" r="1.42" style="fill:none;stroke:#000;stroke-linecap:round;stroke-linejoin:round;stroke-width:0.28346458077430725px"/><circle cx="1051.02" cy="1482.31" r="32.6" style="fill:none;stroke:#000;stroke-linecap:round;stroke-linejoin:round;stroke-width:0.28346458077430725px"/><circle cx="1051.02" cy="1482.31" r="154.49" style="fill:none;stroke:#000;stroke-linecap:round;stroke-linejoin:round;stroke-width:0.28346458077430725px"/><circle cx="1051.01" cy="1546.37" r="3.83" style="fill:none;stroke:#000;stroke-linecap:round;stroke-linejoin:round;stroke-width:0.28346458077430725px"/><circle cx="1070.92" cy="1518.73" r="3.83" transform="translate(-855.18 1618.37) rotate(-60)" style="fill:none;stroke:#000;stroke-linecap:round;stroke-linejoin:round;stroke-width:0.28346458077430725px"/><circle cx="1051.02" cy="1597.16" r="21.26" style="fill:none;stroke:#000;stroke-linecap:round;stroke-linejoin:round;stroke-width:0.28346458077430725px"/><circle cx="1251.46" cy="1622.97" r="1.42" transform="translate(-855.18 1826.85) rotate(-60)" style="fill:none;stroke:#000;stroke-linecap:round;stroke-linejoin:round;stroke-width:0.28346458077430725px"/><circle cx="1001.34" cy="1622.97" r="1.42" transform="translate(-752.7 649.64) rotate(-30)" style="fill:none;stroke:#000;stroke-linecap:round;stroke-linejoin:round;stroke-width:0.28346458077430725px"/><circle cx="1078.07" cy="1496.13" r="4.25" transform="translate(-822.95 1167.5) rotate(-46.11)" style="fill:none;stroke:#000;stroke-linecap:round;stroke-linejoin:round;stroke-width:0.28346458077430725px"/><circle cx="1174.72" cy="1496.13" r="4.25" transform="translate(-784.47 1163.76) rotate(-43.89)" style="fill:none;stroke:#000;stroke-linecap:round;stroke-linejoin:round;stroke-width:0.28346458077430725px"/><circle cx="1186.46" cy="1522.57" r="3.83" transform="translate(-677.72 728.78) rotate(-30)" style="fill:none;stroke:#000;stroke-linecap:round;stroke-linejoin:round;stroke-width:0.28346458077430725px"/><path d="M2342.61,1657v6.52h-2.55a0.73,0.73,0,0,0-.85.85v28.7a0.48,0.48,0,0,0,.57.57H2359v24.09h24.16V1405.63a9.35,9.35,0,0,0-9.35-9.35H2199.19a9.35,9.35,0,0,0-9.35,9.35v312.12H2214v-24.09h19.2a0.48,0.48,0,0,0,.57-0.57v-28.7a0.73,0.73,0,0,0-.85-0.85h-2.55V1657h2.55a0.73,0.73,0,0,0,.85-0.85v-18.79a4.39,4.39,0,1,1,8.79,0v18.79a0.73,0.73,0,0,0,.85.85H2246v6.52h-2.55a0.73,0.73,0,0,0-.85.85v28.7a0.48,0.48,0,0,0,.57.57h19.2v24.09h48.32v-24.09h19.2a0.48,0.48,0,0,0,.57-0.57v-28.7a0.73,0.73,0,0,0-.85-0.85H2327V1657h2.55a0.73,0.73,0,0,0,.85-0.85v-18.79a4.39,4.39,0,1,1,8.79,0v18.79a0.73,0.73,0,0,0,.85.85h2.55Z" transform="translate(-75.38 -68.45)" style="fill:none;stroke:#000;stroke-linecap:round;stroke-linejoin:round;stroke-width:0.28346458077430725px"/><path d="M2373.16,1477.74v20.32a3.53,3.53,0,0,1-7.05,0v-20.32A3.53,3.53,0,0,1,2373.16,1477.74Z" transform="translate(-75.38 -68.45)" style="fill:none;stroke:#000;stroke-linecap:round;stroke-linejoin:round;stroke-width:0.28346458077430725px"/><path d="M2206.86,1477.74v20.32a3.53,3.53,0,0,1-7.05,0v-20.32A3.53,3.53,0,0,1,2206.86,1477.74Z" transform="translate(-75.38 -68.45)" style="fill:none;stroke:#000;stroke-linecap:round;stroke-linejoin:round;stroke-width:0.28346458077430725px"/><line x1="2267.22" y1="1594.67" x2="2267.22" y2="1589" style="fill:none;stroke:#000;stroke-linecap:round;stroke-linejoin:round;stroke-width:0.28346458077430725px"/><line x1="2251.63" y1="1589" x2="2251.63" y2="1594.67" style="fill:none;stroke:#000;stroke-linecap:round;stroke-linejoin:round;stroke-width:0.28346458077430725px"/><line x1="2170.57" y1="1589" x2="2170.57" y2="1594.67" style="fill:none;stroke:#000;stroke-linecap:round;stroke-linejoin:round;stroke-width:0.28346458077430725px"/><line x1="2154.98" y1="1594.67" x2="2154.98" y2="1589" style="fill:none;stroke:#000;stroke-linecap:round;stroke-linejoin:round;stroke-width:0.28346458077430725px"/><circle cx="2198.61" cy="1349.15" r="3.54" style="fill:none;stroke:#000;stroke-linecap:round;stroke-linejoin:round;stroke-width:0.28346458077430725px"/><circle cx="2284.22" cy="1349.22" r="3.54" style="fill:none;stroke:#000;stroke-linecap:round;stroke-linejoin:round;stroke-width:0.28346458077430725px"/><circle cx="2284.22" cy="1490.41" r="3.54" style="fill:none;stroke:#000;stroke-linecap:round;stroke-linejoin:round;stroke-width:0.28346458077430725px"/><circle cx="2135.54" cy="1472.99" r="3.54" style="fill:none;stroke:#000;stroke-linecap:round;stroke-linejoin:round;stroke-width:0.28346458077430725px"/><circle cx="2286.49" cy="1591.32" r="13.19" transform="translate(86.28 3324.37) rotate(-75.13)" style="fill:none;stroke:#000;stroke-linecap:round;stroke-linejoin:round;stroke-width:0.28346458077430725px"/><circle cx="1964.84" cy="1585.71" r="21.26" style="fill:none;stroke:#000;stroke-linecap:round;stroke-linejoin:round;stroke-width:0.28346458077430725px"/><circle cx="1964.84" cy="1476.54" r="38.27" style="fill:none;stroke:#000;stroke-linecap:round;stroke-linejoin:round;stroke-width:0.28346458077430725px"/><circle cx="2088.55" cy="1490.36" r="4.25" transform="translate(-525.25 1795.63) rotate(-43.89)" style="fill:none;stroke:#000;stroke-linecap:round;stroke-linejoin:round;stroke-width:0.28346458077430725px"/><circle cx="1991.9" cy="1490.36" r="4.25" transform="translate(-538.45 1824.33) rotate(-46.11)" style="fill:none;stroke:#000;stroke-linecap:round;stroke-linejoin:round;stroke-width:0.28346458077430725px"/><rect x="2037.32" y="1417.65" width="24.16" height="8.5" style="fill:none;stroke:#000;stroke-linecap:round;stroke-linejoin:round;stroke-width:0.28346458077430725px"/><rect x="1868.19" y="1417.65" width="24.16" height="8.5" style="fill:none;stroke:#000;stroke-linecap:round;stroke-linejoin:round;stroke-width:0.28346458077430725px"/><rect x="1940.67" y="1417.65" width="48.32" height="8.5" style="fill:none;stroke:#000;stroke-linecap:round;stroke-linejoin:round;stroke-width:0.28346458077430725px"/><path d="M2044.49,1397.69V1404a0.48,0.48,0,0,0,.57.57h2.27v28.35h-14.17v-28.35h2.27a0.48,0.48,0,0,0,.57-0.57v-6.29a1.42,1.42,0,0,0-1.47-1.42,148.82,148.82,0,0,0-125.95,218.09,1.42,1.42,0,0,0,2,.57l5.44-3.14a0.48,0.48,0,0,0,.21-0.77l-1.13-2,24.55-14.17,7.09,12.27-24.55,14.17-1.13-2a0.48,0.48,0,0,0-.77-0.21l-5.44,3.14a1.42,1.42,0,0,0-.49,2,148.82,148.82,0,0,0,251.85,0,1.42,1.42,0,0,0-.49-2l-5.44-3.14a0.48,0.48,0,0,0-.77.21l-1.13,2-24.55-14.17,7.09-12.27,24.55,14.17-1.13,2a0.48,0.48,0,0,0,.21.77l5.44,3.14a1.42,1.42,0,0,0,2-.57A148.82,148.82,0,0,0,2046,1396.28,1.42,1.42,0,0,0,2044.49,1397.69Z" transform="translate(-75.38 -68.45)" style="fill:none;stroke:#000;stroke-linecap:round;stroke-linejoin:round;stroke-width:0.28346458077430725px"/><circle cx="1666.03" cy="1585.71" r="21.26" style="fill:none;stroke:#000;stroke-linecap:round;stroke-linejoin:round;stroke-width:0.28346458077430725px"/><circle cx="1801.47" cy="1516.8" r="3.83" transform="translate(-592.43 1035.5) rotate(-30)" style="fill:none;stroke:#000;stroke-linecap:round;stroke-linejoin:round;stroke-width:0.28346458077430725px"/><circle cx="1666.03" cy="1540.59" r="3.83" style="fill:none;stroke:#000;stroke-linecap:round;stroke-linejoin:round;stroke-width:0.28346458077430725px"/><circle cx="1685.94" cy="1512.96" r="3.83" transform="translate(-542.67 2148.09) rotate(-60)" style="fill:none;stroke:#000;stroke-linecap:round;stroke-linejoin:round;stroke-width:0.28346458077430725px"/><circle cx="1666.03" cy="1476.54" r="32.6" style="fill:none;stroke:#000;stroke-linecap:round;stroke-linejoin:round;stroke-width:0.28346458077430725px"/><path d="M1745.68,1397.69V1404a0.48,0.48,0,0,0,.57.57h2.27v28.35h-14.17v-28.35h2.27a0.48,0.48,0,0,0,.57-0.57v-6.29a1.42,1.42,0,0,0-1.47-1.42,148.82,148.82,0,0,0-125.95,218.09,1.42,1.42,0,0,0,2,.57l5.44-3.14a0.48,0.48,0,0,0,.21-0.77l-1.13-2,24.55-14.17,7.09,12.27-24.55,14.17-1.13-2a0.48,0.48,0,0,0-.77-0.21l-5.44,3.14a1.42,1.42,0,0,0-.49,2,148.82,148.82,0,0,0,251.85,0,1.42,1.42,0,0,0-.49-2l-5.44-3.14a0.48,0.48,0,0,0-.77.21l-1.13,2-24.55-14.17,7.09-12.27,24.55,14.17-1.13,2a0.48,0.48,0,0,0,.21.77l5.44,3.14a1.42,1.42,0,0,0,2-.57,148.82,148.82,0,0,0-125.9-218.12A1.42,1.42,0,0,0,1745.68,1397.69Z" transform="translate(-75.38 -68.45)" style="fill:none;stroke:#000;stroke-linecap:round;stroke-linejoin:round;stroke-width:0.28346458077430725px"/><rect x="1641.86" y="1417.65" width="48.32" height="8.5" style="fill:none;stroke:#000;stroke-linecap:round;stroke-linejoin:round;stroke-width:0.28346458077430725px"/><rect x="1569.38" y="1417.65" width="24.16" height="8.5" style="fill:none;stroke:#000;stroke-linecap:round;stroke-linejoin:round;stroke-width:0.28346458077430725px"/><rect x="1738.51" y="1417.65" width="24.16" height="8.5" style="fill:none;stroke:#000;stroke-linecap:round;stroke-linejoin:round;stroke-width:0.28346458077430725px"/><circle cx="1693.09" cy="1490.36" r="4.25" transform="translate(-630.12 1608.97) rotate(-46.11)" style="fill:none;stroke:#000;stroke-linecap:round;stroke-linejoin:round;stroke-width:0.28346458077430725px"/><circle cx="1789.74" cy="1490.36" r="4.25" transform="translate(-608.7 1588.49) rotate(-43.89)" style="fill:none;stroke:#000;stroke-linecap:round;stroke-linejoin:round;stroke-width:0.28346458077430725px"/><path d="M1491.55,1557.57a0.92,0.92,0,1,0-.92.92A0.79,0.79,0,0,0,1491.55,1557.57Z" transform="translate(-75.38 -68.45)" style="fill:none;stroke:#000;stroke-linecap:round;stroke-linejoin:round;stroke-width:0.28346458077430725px"/><path d="M1493.29,1557.69a0.92,0.92,0,1,1,.77,1A0.79,0.79,0,0,1,1493.29,1557.69Z" transform="translate(-75.38 -68.45)" style="fill:none;stroke:#000;stroke-linecap:round;stroke-linejoin:round;stroke-width:0.28346458077430725px"/><path d="M1384.33,1557.68a0.92,0.92,0,1,0-.92.92A0.79,0.79,0,0,0,1384.33,1557.68Z" transform="translate(-75.38 -68.45)" style="fill:none;stroke:#000;stroke-linecap:round;stroke-linejoin:round;stroke-width:0.28346458077430725px"/><path d="M1445.18,1466.18a0.92,0.92,0,1,0-1.16.6A0.79,0.79,0,0,0,1445.18,1466.18Z" transform="translate(-75.38 -68.45)" style="fill:none;stroke:#000;stroke-linecap:round;stroke-linejoin:round;stroke-width:0.28346458077430725px"/><circle cx="1436.99" cy="1488.86" r="21.26" transform="translate(-520.04 559.56) rotate(-21.43)" style="fill:none;stroke:#000;stroke-linecap:round;stroke-linejoin:round;stroke-width:0.28346458077430725px"/><path d="M1439.64,1464.89a0.92,0.92,0,1,1,.77,1A0.79,0.79,0,0,1,1439.64,1464.89Z" transform="translate(-75.38 -68.45)" style="fill:none;stroke:#000;stroke-linecap:round;stroke-linejoin:round;stroke-width:0.28346458077430725px"/><path d="M1437.91,1464.76a0.92,0.92,0,1,0-.92.92A0.79,0.79,0,0,0,1437.91,1464.76Z" transform="translate(-75.38 -68.45)" style="fill:none;stroke:#000;stroke-linecap:round;stroke-linejoin:round;stroke-width:0.28346458077430725px"/><circle cx="1361.6" cy="1337.91" r="1.42" style="fill:none;stroke:#000;stroke-linecap:round;stroke-linejoin:round;stroke-width:0.28346458077430725px"/><circle cx="1311.93" cy="1622.97" r="1.42" transform="translate(-711.09 804.93) rotate(-30)" style="fill:none;stroke:#000;stroke-linecap:round;stroke-linejoin:round;stroke-width:0.28346458077430725px"/><circle cx="1562.05" cy="1622.97" r="1.42" transform="translate(-699.88 2095.83) rotate(-60)" style="fill:none;stroke:#000;stroke-linecap:round;stroke-linejoin:round;stroke-width:0.28346458077430725px"/><circle cx="1383.41" cy="1581.77" r="21.26" transform="translate(-753.54 1920.49) rotate(-60)" style="fill:none;stroke:#000;stroke-linecap:round;stroke-linejoin:round;stroke-width:0.28346458077430725px"/><circle cx="1436.99" cy="1488.86" r="21.26" transform="translate(-626.68 847.4) rotate(-29.94)" style="fill:none;stroke:#000;stroke-linecap:round;stroke-linejoin:round;stroke-width:0.28346458077430725px"/><circle cx="1415.25" cy="1513.21" r="21.26" style="fill:none;stroke:#000;stroke-linecap:round;stroke-linejoin:round;stroke-width:0.28346458077430725px"/><circle cx="1361.6" cy="1597.16" r="21.26" style="fill:none;stroke:#000;stroke-linecap:round;stroke-linejoin:round;stroke-width:0.28346458077430725px"/><circle cx="1536.45" cy="1493.34" r="21.26" transform="translate(-616.21 899.84) rotate(-30)" style="fill:none;stroke:#000;stroke-linecap:round;stroke-linejoin:round;stroke-width:0.28346458077430725px"/><circle cx="1337.53" cy="1493.34" r="21.26" transform="translate(-699.89 1836.55) rotate(-60)" style="fill:none;stroke:#000;stroke-linecap:round;stroke-linejoin:round;stroke-width:0.28346458077430725px"/><circle cx="1361.6" cy="1482.31" r="154.49" style="fill:none;stroke:#000;stroke-linecap:round;stroke-linejoin:round;stroke-width:0.28346458077430725px"/><circle cx="1381.51" cy="1518.73" r="4.25" transform="translate(-746.15 1393.14) rotate(-46.11)" style="fill:none;stroke:#000;stroke-linecap:round;stroke-linejoin:round;stroke-width:0.28346458077430725px"/><circle cx="1436.99" cy="1614.82" r="4.25" transform="translate(-798.39 1462.58) rotate(-46.11)" style="fill:none;stroke:#000;stroke-linecap:round;stroke-linejoin:round;stroke-width:0.28346458077430725px"/><circle cx="1361.6" cy="1482.31" r="7.09" style="fill:none;stroke:#000;stroke-linecap:round;stroke-linejoin:round;stroke-width:0.28346458077430725px"/><circle cx="1497.04" cy="1522.57" r="4.25" transform="translate(-713.48 1477.57) rotate(-46.11)" style="fill:none;stroke:#000;stroke-linecap:round;stroke-linejoin:round;stroke-width:0.28346458077430725px"/><circle cx="772.17" cy="1490.46" r="4.25" transform="translate(-912.71 945.29) rotate(-46.11)" style="fill:none;stroke:#000;stroke-linecap:round;stroke-linejoin:round;stroke-width:0.28346458077430725px"/><circle cx="868.82" cy="1490.46" r="4.25" transform="translate(-865.97 950.11) rotate(-43.89)" style="fill:none;stroke:#000;stroke-linecap:round;stroke-linejoin:round;stroke-width:0.28346458077430725px"/><rect x="720.94" y="1417.76" width="48.32" height="8.5" style="fill:none;stroke:#000;stroke-linecap:round;stroke-linejoin:round;stroke-width:0.28346458077430725px"/><rect x="817.59" y="1417.76" width="24.16" height="8.5" style="fill:none;stroke:#000;stroke-linecap:round;stroke-linejoin:round;stroke-width:0.28346458077430725px"/><rect x="648.46" y="1417.76" width="24.16" height="8.5" style="fill:none;stroke:#000;stroke-linecap:round;stroke-linejoin:round;stroke-width:0.28346458077430725px"/><circle cx="820.49" cy="1545.09" r="148.82" transform="translate(-123.77 -41.77) rotate(-1.81)" style="fill:none;stroke:#000;stroke-linecap:round;stroke-linejoin:round;stroke-width:0.28346458077430725px"/><circle cx="745.11" cy="1585.82" r="21.26" style="fill:none;stroke:#000;stroke-linecap:round;stroke-linejoin:round;stroke-width:0.28346458077430725px"/><circle cx="745.11" cy="1476.65" r="32.6" style="fill:none;stroke:#000;stroke-linecap:round;stroke-linejoin:round;stroke-width:0.28346458077430725px"/></svg>