%TF.GenerationSoftware,KiCad,Pcbnew,(5.0.2-5)-5*%
%TF.CreationDate,2019-04-17T13:51:17+02:00*%
%TF.ProjectId,PowerSupply,506f7765-7253-4757-9070-6c792e6b6963,rev?*%
%TF.SameCoordinates,Original*%
%TF.FileFunction,Soldermask,Bot*%
%TF.FilePolarity,Negative*%
%FSLAX46Y46*%
G04 Gerber Fmt 4.6, Leading zero omitted, Abs format (unit mm)*
G04 Created by KiCad (PCBNEW (5.0.2-5)-5) date 2019 April 17, Wednesday 13:51:17*
%MOMM*%
%LPD*%
G01*
G04 APERTURE LIST*
%ADD10C,0.150000*%
G04 APERTURE END LIST*
D10*
G36*
X166986821Y-109061313D02*
X166986824Y-109061314D01*
X166986825Y-109061314D01*
X167147239Y-109109975D01*
X167147241Y-109109976D01*
X167147244Y-109109977D01*
X167295078Y-109188995D01*
X167424659Y-109295341D01*
X167531005Y-109424922D01*
X167610023Y-109572756D01*
X167610024Y-109572759D01*
X167610025Y-109572761D01*
X167658686Y-109733175D01*
X167658687Y-109733179D01*
X167675117Y-109900000D01*
X167658687Y-110066821D01*
X167658686Y-110066824D01*
X167658686Y-110066825D01*
X167633993Y-110148228D01*
X167610023Y-110227244D01*
X167531005Y-110375078D01*
X167424659Y-110504659D01*
X167295078Y-110611005D01*
X167147244Y-110690023D01*
X167147241Y-110690024D01*
X167147239Y-110690025D01*
X166986825Y-110738686D01*
X166986824Y-110738686D01*
X166986821Y-110738687D01*
X166861804Y-110751000D01*
X166778196Y-110751000D01*
X166653179Y-110738687D01*
X166653176Y-110738686D01*
X166653175Y-110738686D01*
X166492761Y-110690025D01*
X166492759Y-110690024D01*
X166492756Y-110690023D01*
X166344922Y-110611005D01*
X166215341Y-110504659D01*
X166108995Y-110375078D01*
X166029977Y-110227244D01*
X166006008Y-110148228D01*
X165981314Y-110066825D01*
X165981314Y-110066824D01*
X165981313Y-110066821D01*
X165964883Y-109900000D01*
X165981313Y-109733179D01*
X165981314Y-109733175D01*
X166029975Y-109572761D01*
X166029976Y-109572759D01*
X166029977Y-109572756D01*
X166108995Y-109424922D01*
X166215341Y-109295341D01*
X166344922Y-109188995D01*
X166492756Y-109109977D01*
X166492759Y-109109976D01*
X166492761Y-109109975D01*
X166653175Y-109061314D01*
X166653176Y-109061314D01*
X166653179Y-109061313D01*
X166778196Y-109049000D01*
X166861804Y-109049000D01*
X166986821Y-109061313D01*
X166986821Y-109061313D01*
G37*
G36*
X159448228Y-109081703D02*
X159603100Y-109145853D01*
X159742481Y-109238985D01*
X159861015Y-109357519D01*
X159954147Y-109496900D01*
X160018297Y-109651772D01*
X160051000Y-109816184D01*
X160051000Y-109983816D01*
X160018297Y-110148228D01*
X159954147Y-110303100D01*
X159861015Y-110442481D01*
X159742481Y-110561015D01*
X159603100Y-110654147D01*
X159448228Y-110718297D01*
X159283816Y-110751000D01*
X159116184Y-110751000D01*
X158951772Y-110718297D01*
X158796900Y-110654147D01*
X158657519Y-110561015D01*
X158538985Y-110442481D01*
X158445853Y-110303100D01*
X158381703Y-110148228D01*
X158349000Y-109983816D01*
X158349000Y-109816184D01*
X158381703Y-109651772D01*
X158445853Y-109496900D01*
X158538985Y-109357519D01*
X158657519Y-109238985D01*
X158796900Y-109145853D01*
X158951772Y-109081703D01*
X159116184Y-109049000D01*
X159283816Y-109049000D01*
X159448228Y-109081703D01*
X159448228Y-109081703D01*
G37*
G36*
X180303567Y-104974959D02*
X180434072Y-105000918D01*
X180679939Y-105102759D01*
X180883515Y-105238785D01*
X180901215Y-105250612D01*
X181089388Y-105438785D01*
X181089390Y-105438788D01*
X181237241Y-105660061D01*
X181339082Y-105905928D01*
X181391000Y-106166938D01*
X181391000Y-106433062D01*
X181339082Y-106694072D01*
X181237241Y-106939939D01*
X181097291Y-107149388D01*
X181089388Y-107161215D01*
X180901215Y-107349388D01*
X180901212Y-107349390D01*
X180679939Y-107497241D01*
X180434072Y-107599082D01*
X180303567Y-107625041D01*
X180173063Y-107651000D01*
X179906937Y-107651000D01*
X179776433Y-107625041D01*
X179645928Y-107599082D01*
X179400061Y-107497241D01*
X179178788Y-107349390D01*
X179178785Y-107349388D01*
X178990612Y-107161215D01*
X178982709Y-107149388D01*
X178842759Y-106939939D01*
X178740918Y-106694072D01*
X178689000Y-106433062D01*
X178689000Y-106166938D01*
X178740918Y-105905928D01*
X178842759Y-105660061D01*
X178990610Y-105438788D01*
X178990612Y-105438785D01*
X179178785Y-105250612D01*
X179196485Y-105238785D01*
X179400061Y-105102759D01*
X179645928Y-105000918D01*
X179776433Y-104974959D01*
X179906937Y-104949000D01*
X180173063Y-104949000D01*
X180303567Y-104974959D01*
X180303567Y-104974959D01*
G37*
G36*
X176391000Y-107651000D02*
X173689000Y-107651000D01*
X173689000Y-104949000D01*
X176391000Y-104949000D01*
X176391000Y-107651000D01*
X176391000Y-107651000D01*
G37*
G36*
X140063567Y-104774959D02*
X140194072Y-104800918D01*
X140439939Y-104902759D01*
X140586843Y-105000918D01*
X140661215Y-105050612D01*
X140849388Y-105238785D01*
X140849390Y-105238788D01*
X140997241Y-105460061D01*
X141099082Y-105705928D01*
X141151000Y-105966938D01*
X141151000Y-106233062D01*
X141099082Y-106494072D01*
X140997241Y-106739939D01*
X140863604Y-106939939D01*
X140849388Y-106961215D01*
X140661215Y-107149388D01*
X140661212Y-107149390D01*
X140439939Y-107297241D01*
X140194072Y-107399082D01*
X140063567Y-107425041D01*
X139933063Y-107451000D01*
X139666937Y-107451000D01*
X139536433Y-107425041D01*
X139405928Y-107399082D01*
X139160061Y-107297241D01*
X138938788Y-107149390D01*
X138938785Y-107149388D01*
X138750612Y-106961215D01*
X138736396Y-106939939D01*
X138602759Y-106739939D01*
X138500918Y-106494072D01*
X138449000Y-106233062D01*
X138449000Y-105966938D01*
X138500918Y-105705928D01*
X138602759Y-105460061D01*
X138750610Y-105238788D01*
X138750612Y-105238785D01*
X138938785Y-105050612D01*
X139013157Y-105000918D01*
X139160061Y-104902759D01*
X139405928Y-104800918D01*
X139536433Y-104774959D01*
X139666937Y-104749000D01*
X139933063Y-104749000D01*
X140063567Y-104774959D01*
X140063567Y-104774959D01*
G37*
G36*
X136151000Y-107451000D02*
X133449000Y-107451000D01*
X133449000Y-104749000D01*
X136151000Y-104749000D01*
X136151000Y-107451000D01*
X136151000Y-107451000D01*
G37*
G36*
X164077396Y-102185546D02*
X164250466Y-102257234D01*
X164406230Y-102361312D01*
X164538688Y-102493770D01*
X164642766Y-102649534D01*
X164714454Y-102822604D01*
X164751000Y-103006333D01*
X164751000Y-103193667D01*
X164714454Y-103377396D01*
X164642766Y-103550466D01*
X164538688Y-103706230D01*
X164406230Y-103838688D01*
X164250466Y-103942766D01*
X164077396Y-104014454D01*
X163893667Y-104051000D01*
X163706333Y-104051000D01*
X163522604Y-104014454D01*
X163349534Y-103942766D01*
X163193770Y-103838688D01*
X163061312Y-103706230D01*
X162957234Y-103550466D01*
X162885546Y-103377396D01*
X162849000Y-103193667D01*
X162849000Y-103006333D01*
X162885546Y-102822604D01*
X162957234Y-102649534D01*
X163061312Y-102493770D01*
X163193770Y-102361312D01*
X163349534Y-102257234D01*
X163522604Y-102185546D01*
X163706333Y-102149000D01*
X163893667Y-102149000D01*
X164077396Y-102185546D01*
X164077396Y-102185546D01*
G37*
G36*
X162211000Y-104051000D02*
X160309000Y-104051000D01*
X160309000Y-102149000D01*
X162211000Y-102149000D01*
X162211000Y-104051000D01*
X162211000Y-104051000D01*
G37*
G36*
X128259485Y-95568996D02*
X128259487Y-95568997D01*
X128259488Y-95568997D01*
X128423102Y-95636768D01*
X128496255Y-95667069D01*
X128709342Y-95809449D01*
X128890551Y-95990658D01*
X129032931Y-96203745D01*
X129131004Y-96440515D01*
X129181000Y-96691861D01*
X129181000Y-96948139D01*
X129131004Y-97199485D01*
X129032931Y-97436255D01*
X128890551Y-97649342D01*
X128709342Y-97830551D01*
X128709339Y-97830553D01*
X128496255Y-97972931D01*
X128259488Y-98071003D01*
X128259487Y-98071003D01*
X128259485Y-98071004D01*
X128008139Y-98121000D01*
X127751861Y-98121000D01*
X127500515Y-98071004D01*
X127500513Y-98071003D01*
X127500512Y-98071003D01*
X127263745Y-97972931D01*
X127050661Y-97830553D01*
X127050658Y-97830551D01*
X126869449Y-97649342D01*
X126727069Y-97436255D01*
X126628996Y-97199485D01*
X126579000Y-96948139D01*
X126579000Y-96691861D01*
X126628996Y-96440515D01*
X126727069Y-96203745D01*
X126869449Y-95990658D01*
X127050658Y-95809449D01*
X127263745Y-95667069D01*
X127336898Y-95636768D01*
X127500512Y-95568997D01*
X127500513Y-95568997D01*
X127500515Y-95568996D01*
X127751861Y-95519000D01*
X128008139Y-95519000D01*
X128259485Y-95568996D01*
X128259485Y-95568996D01*
G37*
G36*
X196552527Y-94888736D02*
X196652410Y-94908604D01*
X196934674Y-95025521D01*
X197188705Y-95195259D01*
X197404741Y-95411295D01*
X197574479Y-95665326D01*
X197648504Y-95844040D01*
X197691396Y-95947591D01*
X197742349Y-96203745D01*
X197751000Y-96247240D01*
X197751000Y-96552760D01*
X197691396Y-96852410D01*
X197574479Y-97134674D01*
X197404741Y-97388705D01*
X197188705Y-97604741D01*
X196934674Y-97774479D01*
X196652410Y-97891396D01*
X196552527Y-97911264D01*
X196352762Y-97951000D01*
X196047238Y-97951000D01*
X195847473Y-97911264D01*
X195747590Y-97891396D01*
X195465326Y-97774479D01*
X195211295Y-97604741D01*
X194995259Y-97388705D01*
X194825521Y-97134674D01*
X194708604Y-96852410D01*
X194649000Y-96552760D01*
X194649000Y-96247240D01*
X194657652Y-96203745D01*
X194708604Y-95947591D01*
X194751496Y-95844040D01*
X194825521Y-95665326D01*
X194995259Y-95411295D01*
X195211295Y-95195259D01*
X195465326Y-95025521D01*
X195747590Y-94908604D01*
X195847473Y-94888736D01*
X196047238Y-94849000D01*
X196352762Y-94849000D01*
X196552527Y-94888736D01*
X196552527Y-94888736D01*
G37*
G36*
X118552527Y-94888736D02*
X118652410Y-94908604D01*
X118934674Y-95025521D01*
X119188705Y-95195259D01*
X119404741Y-95411295D01*
X119574479Y-95665326D01*
X119648504Y-95844040D01*
X119691396Y-95947591D01*
X119742349Y-96203745D01*
X119751000Y-96247240D01*
X119751000Y-96552760D01*
X119691396Y-96852410D01*
X119574479Y-97134674D01*
X119404741Y-97388705D01*
X119188705Y-97604741D01*
X118934674Y-97774479D01*
X118652410Y-97891396D01*
X118552527Y-97911264D01*
X118352762Y-97951000D01*
X118047238Y-97951000D01*
X117847473Y-97911264D01*
X117747590Y-97891396D01*
X117465326Y-97774479D01*
X117211295Y-97604741D01*
X116995259Y-97388705D01*
X116825521Y-97134674D01*
X116708604Y-96852410D01*
X116649000Y-96552760D01*
X116649000Y-96247240D01*
X116657652Y-96203745D01*
X116708604Y-95947591D01*
X116751496Y-95844040D01*
X116825521Y-95665326D01*
X116995259Y-95411295D01*
X117211295Y-95195259D01*
X117465326Y-95025521D01*
X117747590Y-94908604D01*
X117847473Y-94888736D01*
X118047238Y-94849000D01*
X118352762Y-94849000D01*
X118552527Y-94888736D01*
X118552527Y-94888736D01*
G37*
G36*
X140235734Y-93843232D02*
X140445202Y-93929996D01*
X140633723Y-94055962D01*
X140794038Y-94216277D01*
X140920004Y-94404798D01*
X141006768Y-94614266D01*
X141051000Y-94836635D01*
X141051000Y-95063365D01*
X141006768Y-95285734D01*
X140920004Y-95495202D01*
X140794038Y-95683723D01*
X140633723Y-95844038D01*
X140445202Y-95970004D01*
X140235734Y-96056768D01*
X140013365Y-96101000D01*
X139786635Y-96101000D01*
X139564266Y-96056768D01*
X139354798Y-95970004D01*
X139166277Y-95844038D01*
X139005962Y-95683723D01*
X138879996Y-95495202D01*
X138793232Y-95285734D01*
X138749000Y-95063365D01*
X138749000Y-94836635D01*
X138793232Y-94614266D01*
X138879996Y-94404798D01*
X139005962Y-94216277D01*
X139166277Y-94055962D01*
X139354798Y-93929996D01*
X139564266Y-93843232D01*
X139786635Y-93799000D01*
X140013365Y-93799000D01*
X140235734Y-93843232D01*
X140235734Y-93843232D01*
G37*
G36*
X146265734Y-93423232D02*
X146475202Y-93509996D01*
X146663723Y-93635962D01*
X146824038Y-93796277D01*
X146950004Y-93984798D01*
X147036768Y-94194266D01*
X147081000Y-94416635D01*
X147081000Y-94643365D01*
X147036768Y-94865734D01*
X146950004Y-95075202D01*
X146824038Y-95263723D01*
X146663723Y-95424038D01*
X146475202Y-95550004D01*
X146265734Y-95636768D01*
X146043365Y-95681000D01*
X145816635Y-95681000D01*
X145594266Y-95636768D01*
X145384798Y-95550004D01*
X145196277Y-95424038D01*
X145035962Y-95263723D01*
X144909996Y-95075202D01*
X144823232Y-94865734D01*
X144779000Y-94643365D01*
X144779000Y-94416635D01*
X144823232Y-94194266D01*
X144909996Y-93984798D01*
X145035962Y-93796277D01*
X145196277Y-93635962D01*
X145384798Y-93509996D01*
X145594266Y-93423232D01*
X145816635Y-93379000D01*
X146043365Y-93379000D01*
X146265734Y-93423232D01*
X146265734Y-93423232D01*
G37*
G36*
X184765734Y-93423232D02*
X184975202Y-93509996D01*
X185163723Y-93635962D01*
X185324038Y-93796277D01*
X185450004Y-93984798D01*
X185536768Y-94194266D01*
X185581000Y-94416635D01*
X185581000Y-94643365D01*
X185536768Y-94865734D01*
X185450004Y-95075202D01*
X185324038Y-95263723D01*
X185163723Y-95424038D01*
X184975202Y-95550004D01*
X184765734Y-95636768D01*
X184543365Y-95681000D01*
X184316635Y-95681000D01*
X184094266Y-95636768D01*
X183884798Y-95550004D01*
X183696277Y-95424038D01*
X183535962Y-95263723D01*
X183409996Y-95075202D01*
X183323232Y-94865734D01*
X183279000Y-94643365D01*
X183279000Y-94416635D01*
X183323232Y-94194266D01*
X183409996Y-93984798D01*
X183535962Y-93796277D01*
X183696277Y-93635962D01*
X183884798Y-93509996D01*
X184094266Y-93423232D01*
X184316635Y-93379000D01*
X184543365Y-93379000D01*
X184765734Y-93423232D01*
X184765734Y-93423232D01*
G37*
G36*
X173255734Y-87493232D02*
X173465202Y-87579996D01*
X173653723Y-87705962D01*
X173814038Y-87866277D01*
X173940004Y-88054798D01*
X174026768Y-88264266D01*
X174071000Y-88486635D01*
X174071000Y-88713365D01*
X174026768Y-88935734D01*
X173940004Y-89145202D01*
X173814038Y-89333723D01*
X173653723Y-89494038D01*
X173465202Y-89620004D01*
X173255734Y-89706768D01*
X173033365Y-89751000D01*
X172806635Y-89751000D01*
X172584266Y-89706768D01*
X172374798Y-89620004D01*
X172186277Y-89494038D01*
X172025962Y-89333723D01*
X171899996Y-89145202D01*
X171813232Y-88935734D01*
X171769000Y-88713365D01*
X171769000Y-88486635D01*
X171813232Y-88264266D01*
X171899996Y-88054798D01*
X172025962Y-87866277D01*
X172186277Y-87705962D01*
X172374798Y-87579996D01*
X172584266Y-87493232D01*
X172806635Y-87449000D01*
X173033365Y-87449000D01*
X173255734Y-87493232D01*
X173255734Y-87493232D01*
G37*
G36*
X184765734Y-85423232D02*
X184975202Y-85509996D01*
X185163723Y-85635962D01*
X185324038Y-85796277D01*
X185450004Y-85984798D01*
X185536768Y-86194266D01*
X185581000Y-86416635D01*
X185581000Y-86643365D01*
X185536768Y-86865734D01*
X185450004Y-87075202D01*
X185324038Y-87263723D01*
X185163723Y-87424038D01*
X184975202Y-87550004D01*
X184765734Y-87636768D01*
X184543365Y-87681000D01*
X184316635Y-87681000D01*
X184094266Y-87636768D01*
X183884798Y-87550004D01*
X183696277Y-87424038D01*
X183535962Y-87263723D01*
X183409996Y-87075202D01*
X183323232Y-86865734D01*
X183279000Y-86643365D01*
X183279000Y-86416635D01*
X183323232Y-86194266D01*
X183409996Y-85984798D01*
X183535962Y-85796277D01*
X183696277Y-85635962D01*
X183884798Y-85509996D01*
X184094266Y-85423232D01*
X184316635Y-85379000D01*
X184543365Y-85379000D01*
X184765734Y-85423232D01*
X184765734Y-85423232D01*
G37*
G36*
X146265734Y-82673232D02*
X146475202Y-82759996D01*
X146663723Y-82885962D01*
X146824038Y-83046277D01*
X146950004Y-83234798D01*
X147036768Y-83444266D01*
X147081000Y-83666635D01*
X147081000Y-83893365D01*
X147036768Y-84115734D01*
X146950004Y-84325202D01*
X146824038Y-84513723D01*
X146663723Y-84674038D01*
X146475202Y-84800004D01*
X146265734Y-84886768D01*
X146043365Y-84931000D01*
X145816635Y-84931000D01*
X145594266Y-84886768D01*
X145384798Y-84800004D01*
X145196277Y-84674038D01*
X145035962Y-84513723D01*
X144909996Y-84325202D01*
X144823232Y-84115734D01*
X144779000Y-83893365D01*
X144779000Y-83666635D01*
X144823232Y-83444266D01*
X144909996Y-83234798D01*
X145035962Y-83046277D01*
X145196277Y-82885962D01*
X145384798Y-82759996D01*
X145594266Y-82673232D01*
X145816635Y-82629000D01*
X146043365Y-82629000D01*
X146265734Y-82673232D01*
X146265734Y-82673232D01*
G37*
G36*
X173255734Y-74793232D02*
X173465202Y-74879996D01*
X173653723Y-75005962D01*
X173814038Y-75166277D01*
X173940004Y-75354798D01*
X174026768Y-75564266D01*
X174071000Y-75786635D01*
X174071000Y-76013365D01*
X174026768Y-76235734D01*
X173940004Y-76445202D01*
X173814038Y-76633723D01*
X173653723Y-76794038D01*
X173465202Y-76920004D01*
X173255734Y-77006768D01*
X173033365Y-77051000D01*
X172806635Y-77051000D01*
X172584266Y-77006768D01*
X172374798Y-76920004D01*
X172186277Y-76794038D01*
X172025962Y-76633723D01*
X171899996Y-76445202D01*
X171813232Y-76235734D01*
X171769000Y-76013365D01*
X171769000Y-75786635D01*
X171813232Y-75564266D01*
X171899996Y-75354798D01*
X172025962Y-75166277D01*
X172186277Y-75005962D01*
X172374798Y-74879996D01*
X172584266Y-74793232D01*
X172806635Y-74749000D01*
X173033365Y-74749000D01*
X173255734Y-74793232D01*
X173255734Y-74793232D01*
G37*
G36*
X140235734Y-74793232D02*
X140445202Y-74879996D01*
X140633723Y-75005962D01*
X140794038Y-75166277D01*
X140920004Y-75354798D01*
X141006768Y-75564266D01*
X141051000Y-75786635D01*
X141051000Y-76013365D01*
X141006768Y-76235734D01*
X140920004Y-76445202D01*
X140794038Y-76633723D01*
X140633723Y-76794038D01*
X140445202Y-76920004D01*
X140235734Y-77006768D01*
X140013365Y-77051000D01*
X139786635Y-77051000D01*
X139564266Y-77006768D01*
X139354798Y-76920004D01*
X139166277Y-76794038D01*
X139005962Y-76633723D01*
X138879996Y-76445202D01*
X138793232Y-76235734D01*
X138749000Y-76013365D01*
X138749000Y-75786635D01*
X138793232Y-75564266D01*
X138879996Y-75354798D01*
X139005962Y-75166277D01*
X139166277Y-75005962D01*
X139354798Y-74879996D01*
X139564266Y-74793232D01*
X139786635Y-74749000D01*
X140013365Y-74749000D01*
X140235734Y-74793232D01*
X140235734Y-74793232D01*
G37*
G36*
X128259485Y-72968996D02*
X128259487Y-72968997D01*
X128259488Y-72968997D01*
X128496255Y-73067069D01*
X128709342Y-73209449D01*
X128890551Y-73390658D01*
X129032931Y-73603745D01*
X129131004Y-73840515D01*
X129181000Y-74091861D01*
X129181000Y-74348139D01*
X129131004Y-74599485D01*
X129032931Y-74836255D01*
X128890551Y-75049342D01*
X128709342Y-75230551D01*
X128709339Y-75230553D01*
X128496255Y-75372931D01*
X128259488Y-75471003D01*
X128259487Y-75471003D01*
X128259485Y-75471004D01*
X128008139Y-75521000D01*
X127751861Y-75521000D01*
X127500515Y-75471004D01*
X127500513Y-75471003D01*
X127500512Y-75471003D01*
X127263745Y-75372931D01*
X127050661Y-75230553D01*
X127050658Y-75230551D01*
X126869449Y-75049342D01*
X126727069Y-74836255D01*
X126628996Y-74599485D01*
X126579000Y-74348139D01*
X126579000Y-74091861D01*
X126628996Y-73840515D01*
X126727069Y-73603745D01*
X126869449Y-73390658D01*
X127050658Y-73209449D01*
X127263745Y-73067069D01*
X127500512Y-72968997D01*
X127500513Y-72968997D01*
X127500515Y-72968996D01*
X127751861Y-72919000D01*
X128008139Y-72919000D01*
X128259485Y-72968996D01*
X128259485Y-72968996D01*
G37*
M02*
