%TF.GenerationSoftware,KiCad,Pcbnew,(5.0.2-5)-5*%
%TF.CreationDate,2019-04-17T13:51:17+02:00*%
%TF.ProjectId,PowerSupply,506f7765-7253-4757-9070-6c792e6b6963,rev?*%
%TF.SameCoordinates,Original*%
%TF.FileFunction,Profile,NP*%
%FSLAX46Y46*%
G04 Gerber Fmt 4.6, Leading zero omitted, Abs format (unit mm)*
G04 Created by KiCad (PCBNEW (5.0.2-5)-5) date 2019 April 17, Wednesday 13:51:17*
%MOMM*%
%LPD*%
G01*
G04 APERTURE LIST*
%ADD10C,0.150000*%
G04 APERTURE END LIST*
D10*
X199500000Y-85100000D02*
G75*
G02X193400000Y-79000000I0J6100000D01*
G01*
X193000000Y-117000000D02*
G75*
G02X191000000Y-119000000I-2000000J0D01*
G01*
X123100000Y-119000000D02*
G75*
G02X121100000Y-117000000I0J2000000D01*
G01*
X190700000Y-73400000D02*
X191300000Y-73400000D01*
X191200000Y-73400000D02*
G75*
G02X193400000Y-75600000I0J-2200000D01*
G01*
X190700000Y-73400000D02*
G75*
G02X188500000Y-71200000I0J2200000D01*
G01*
X199400000Y-85100000D02*
G75*
G02X201900000Y-87600000I0J-2500000D01*
G01*
X115400000Y-84600000D02*
X116500000Y-84600000D01*
X114400000Y-107500000D02*
G75*
G02X112400000Y-105518936I0J2000091D01*
G01*
X121100145Y-113769951D02*
G75*
G03X114400000Y-107500000I-6881118J-638342D01*
G01*
X193000000Y-112400000D02*
G75*
G02X197200000Y-108200000I4200000J0D01*
G01*
X121400000Y-71200000D02*
G75*
G02X123600000Y-69000000I2200000J0D01*
G01*
X186300000Y-69000000D02*
G75*
G02X188500000Y-71200000I0J-2200000D01*
G01*
X121400000Y-71200000D02*
X121400000Y-80400000D01*
X186300000Y-69000000D02*
X123600000Y-69000000D01*
X193400000Y-79000000D02*
X193400000Y-75600000D01*
X201900000Y-105300000D02*
X201900000Y-87700000D01*
X201900000Y-105300000D02*
G75*
G02X199000000Y-108200000I-2900000J0D01*
G01*
X197200000Y-108200000D02*
X199000000Y-108200000D01*
X193000000Y-117000000D02*
X193000000Y-112400000D01*
X123100000Y-119000000D02*
X191000000Y-119000000D01*
X121100000Y-113800000D02*
X121100000Y-117100000D01*
X112400000Y-87600000D02*
X112400000Y-105500000D01*
X112400000Y-87600000D02*
G75*
G02X115400000Y-84600000I3000000J0D01*
G01*
X117200000Y-84600000D02*
X116500000Y-84600000D01*
X121400000Y-80400000D02*
G75*
G02X117200000Y-84600000I-4200000J0D01*
G01*
M02*
