<?xml version="1.0" standalone="no"?>
 <!DOCTYPE svg PUBLIC "-//W3C//DTD SVG 1.1//EN" 
 "http://www.w3.org/Graphics/SVG/1.1/DTD/svg11.dtd"> 
<svg xmlns="http://www.w3.org/2000/svg" version="1.1" 
    width="8.96366cm" height="5.01396cm" viewBox="0 0 35290 19740 ">
<title>SVG Picture created as PowerSupply-brd.svg date 2020/08/04 20:29:29 </title>
  <desc>Picture generated by PCBNEW </desc>
<g style="fill:#000000; fill-opacity:1;stroke:#000000; stroke-opacity:1;
stroke-linecap:round; stroke-linejoin:round; "
 transform="translate(0 0) scale(1 1)">
</g>
<g style="fill:#000000; fill-opacity:0.0; 
stroke:#000000; stroke-width:-0.000393701; stroke-opacity:1; 
stroke-linecap:round; stroke-linejoin:round;">
</g>
<g style="fill:#000000; fill-opacity:0.0; 
stroke:#000000; stroke-width:59.0551; stroke-opacity:1; 
stroke-linecap:round; stroke-linejoin:round;">
<path d="M31919.3 3966.54 A2401.57 2401.57 0.0 0 0 34320.9 6368.11 " />
<path d="M30974.4 19714.6 A787.402 787.402 0.0 0 0 31761.8 18927.2 " />
<path d="M3454.72 18927.2 A787.402 787.402 0.0 0 0 4242.13 19714.6 " />
<path d="M30856 1761
L31053 1761
" />
<path d="M31919.3 2627.95 A866.142 866.142 0.0 0 0 31053.1 1761.81 " />
<path d="M29990.2 895.67 A866.142 866.142 0.0 0 0 30856.3 1761.81 " />
<path d="M35265.7 7352.36 A984.252 984.252 0.0 0 0 34320.8 6368.9 " />
<path d="M1210 6171
L1643 6171
" />
<path d="M29.528 14399.6 A787.402 787.402 0.0 0 0 816.93 15187 " />
<path d="M3454.78 17655.5 A2720.73 2720.73 0.0 0 0 816.93 15187 " />
<path d="M33415.4 15462.6 A1653.54 1653.54 0.0 0 0 31761.8 17116.1 " />
<path d="M4438.98 29.528 A866.142 866.142 0.0 0 0 3572.84 895.67 " />
<path d="M29990.2 895.67 A866.142 866.142 0.0 0 0 29124 29.528 " />
<path d="M3572 895
L3572 4517
" />
<path d="M29124 29
L4438 29
" />
<path d="M31919 3966
L31919 2627
" />
<path d="M35265 14320
L35265 7352
" />
<path d="M34124 15462.6 A1141.73 1141.73 0.0 0 0 35265.7 14320.9 " />
<path d="M33415 15462
L34124 15462
" />
<path d="M31761 18927
L31761 17116
" />
<path d="M4242 19714
L30974 19714
" />
<path d="M3454 17655
L3454 18927
" />
<path d="M29 7352
L29 14399
" />
<path d="M1210.63 6171.26 A1181.1 1181.1 0.0 0 0 29.528 7352.36 " />
<path d="M1919 6171
L1643 6171
" />
<path d="M1919.29 6171.26 A1653.54 1653.54 0.0 0 0 3572.84 4517.72 " />
<g >
</g>
<g >
</g>
<g >
</g>
<g >
</g>
<g >
</g>
<g >
</g>
<g >
</g>
<g >
</g>
<g >
</g>
<g >
</g>
<g >
</g>
<g >
</g>
</g> 
</svg>
