999
dxfrw 0.6.3
  0
SECTION
  2
HEADER
  9
$ACADVER
  1
AC1021
  9
$DWGCODEPAGE
  3
ANSI_1252
  9
$INSBASE
 10
0
 20
0
 30
0
  9
$EXTMIN
 10
3.53026353635326
 20
4.275460631635359
 30
0
  9
$EXTMAX
 10
264.7496232539474
 20
284.3232474739754
 30
0
  9
$LIMMIN
 10
0
 20
0
  9
$LIMMAX
 10
420
 20
297
  9
$ORTHOMODE
 70
    0
  9
$REGENMODE
 70
    1
  9
$FILLMODE
 70
    1
  9
$QTEXTMODE
 70
    0
  9
$MIRRTEXT
 70
    0
  9
$LTSCALE
 40
1
  9
$ATTMODE
 70
    0
  9
$TEXTSIZE
 40
2.5
  9
$TRACEWID
 40
15.68
  9
$TEXTSTYLE
  7
STANDARD
  9
$CLAYER
  8
BEND
  9
$CELTYPE
  6
BYLAYER
  9
$CECOLOR
 62
  256
  9
$CELTSCALE
 40
1
  9
$DISPSILH
 70
    0
  9
$DIMSCALE
 40
2.5
  9
$DIMASZ
 40
2.5
  9
$DIMEXO
 40
0.625
  9
$DIMDLI
 40
3.75
  9
$DIMRND
 40
0
  9
$DIMDLE
 40
0
  9
$DIMEXE
 40
1.25
  9
$DIMTP
 40
0
  9
$DIMTM
 40
0
  9
$DIMTXT
 40
2.5
  9
$DIMCEN
 40
2.5
  9
$DIMTSZ
 40
0
  9
$DIMTOL
 70
    0
  9
$DIMLIM
 70
    0
  9
$DIMTIH
 70
    0
  9
$DIMTOH
 70
    0
  9
$DIMSE1
 70
    0
  9
$DIMSE2
 70
    0
  9
$DIMTAD
 70
    1
  9
$DIMZIN
 70
    8
  9
$DIMBLK
  1

  9
$DIMASO
 70
    1
  9
$DIMSHO
 70
    1
  9
$DIMPOST
  1

  9
$DIMAPOST
  1

  9
$DIMALT
 70
    0
  9
$DIMALTD
 70
    3
  9
$DIMALTF
 40
0.03937
  9
$DIMLFAC
 40
1
  9
$DIMTOFL
 70
    1
  9
$DIMTVP
 40
0
  9
$DIMTIX
 70
    0
  9
$DIMSOXD
 70
    0
  9
$DIMSAH
 70
    0
  9
$DIMBLK1
  1

  9
$DIMBLK2
  1

  9
$DIMSTYLE
  2
Standard
  9
$DIMCLRD
 70
    0
  9
$DIMCLRE
 70
    0
  9
$DIMCLRT
 70
    0
  9
$DIMTFAC
 40
1
  9
$DIMGAP
 40
0.625
  9
$DIMJUST
 70
    0
  9
$DIMSD1
 70
    0
  9
$DIMSD2
 70
    0
  9
$DIMTOLJ
 70
    0
  9
$DIMTZIN
 70
    8
  9
$DIMALTZ
 70
    0
  9
$DIMALTTZ
 70
    0
  9
$DIMUPT
 70
    0
  9
$DIMDEC
 70
    2
  9
$DIMTDEC
 70
    2
  9
$DIMALTU
 70
    2
  9
$DIMALTTD
 70
    3
  9
$DIMTXSTY
  7
STANDARD
  9
$DIMAUNIT
 70
    0
  9
$DIMADEC
 70
    0
  9
$DIMALTRND
 40
0
  9
$DIMAZIN
 70
    0
  9
$DIMDSEP
 70
   44
  9
$DIMATFIT
 70
    3
  9
$DIMFRAC
 70
    0
  9
$DIMLDRBLK
  1
STANDARD
  9
$DIMLUNIT
 70
    2
  9
$DIMLWD
 70
   -2
  9
$DIMLWE
 70
   -2
  9
$DIMTMOVE
 70
    0
  9
$DIMFXL
 40
1
  9
$DIMFXLON
 70
    0
  9
$DIMJOGANG
 40
0.7854
  9
$DIMTFILL
 70
    0
  9
$DIMTFILLCLR
 70
    0
  9
$DIMARCSYM
 70
    0
  9
$DIMLTYPE
  6

  9
$DIMLTEX1
  6

  9
$DIMLTEX2
  6

  9
$LUNITS
 70
    2
  9
$LUPREC
 70
    4
  9
$SKETCHINC
 40
1
  9
$FILLETRAD
 40
0
  9
$AUNITS
 70
    0
  9
$AUPREC
 70
    2
  9
$MENU
  1
.
  9
$ELEVATION
 40
0
  9
$PELEVATION
 40
0
  9
$THICKNESS
 40
0
  9
$LIMCHECK
 70
    0
  9
$CHAMFERA
 40
0
  9
$CHAMFERB
 40
0
  9
$CHAMFERC
 40
0
  9
$CHAMFERD
 40
0
  9
$SKPOLY
 70
    0
  9
$USRTIMER
 70
    1
  9
$ANGBASE
 50
0
  9
$ANGDIR
 70
    0
  9
$PDMODE
 70
   34
  9
$PDSIZE
 40
0
  9
$PLINEWID
 40
0
  9
$SPLFRAME
 70
    0
  9
$SPLINETYPE
 70
    2
  9
$SPLINESEGS
 70
    8
  9
$HANDSEED
  5
20000
  9
$SURFTAB1
 70
    6
  9
$SURFTAB2
 70
    6
  9
$SURFTYPE
 70
    6
  9
$SURFU
 70
    6
  9
$SURFV
 70
    6
  9
$UCSBASE
  2

  9
$UCSNAME
  2

  9
$UCSORG
 10
0
 20
0
 30
0
  9
$UCSXDIR
 10
1
 20
0
 30
0
  9
$UCSYDIR
 10
0
 20
1
 30
0
  9
$UCSORTHOREF
  2

  9
$UCSORTHOVIEW
 70
    0
  9
$UCSORGTOP
 10
0
 20
0
 30
0
  9
$UCSORGBOTTOM
 10
0
 20
0
 30
0
  9
$UCSORGLEFT
 10
0
 20
0
 30
0
  9
$UCSORGRIGHT
 10
0
 20
0
 30
0
  9
$UCSORGFRONT
 10
0
 20
0
 30
0
  9
$UCSORGBACK
 10
0
 20
0
 30
0
  9
$PUCSBASE
  2

  9
$PUCSNAME
  2

  9
$PUCSORG
 10
0
 20
0
 30
0
  9
$PUCSXDIR
 10
1
 20
0
 30
0
  9
$PUCSYDIR
 10
0
 20
1
 30
0
  9
$PUCSORTHOREF
  2

  9
$PUCSORTHOVIEW
 70
    0
  9
$PUCSORGTOP
 10
0
 20
0
 30
0
  9
$PUCSORGBOTTOM
 10
0
 20
0
 30
0
  9
$PUCSORGLEFT
 10
0
 20
0
 30
0
  9
$PUCSORGRIGHT
 10
0
 20
0
 30
0
  9
$PUCSORGFRONT
 10
0
 20
0
 30
0
  9
$PUCSORGBACK
 10
0
 20
0
 30
0
  9
$USERI1
 70
    0
  9
$USERI2
 70
    0
  9
$USERI3
 70
    0
  9
$USERI4
 70
    0
  9
$USERI5
 70
    0
  9
$USERR1
 40
0
  9
$USERR2
 40
0
  9
$USERR3
 40
0
  9
$USERR4
 40
0
  9
$USERR5
 40
0
  9
$WORLDVIEW
 70
    1
  9
$SHADEDGE
 70
    3
  9
$SHADEDIF
 70
   70
  9
$TILEMODE
 70
    1
  9
$MAXACTVP
 70
   64
  9
$PINSBASE
 10
0
 20
0
 30
0
  9
$PLIMCHECK
 70
    0
  9
$PEXTMIN
 10
0
 20
0
 30
0
  9
$PEXTMAX
 10
0
 20
0
 30
0
  9
$GRIDMODE
 70
    1
  9
$SNAPSTYLE
 70
    0
  9
$PLIMMIN
 10
0
 20
0
  9
$PLIMMAX
 10
297
 20
210
  9
$UNITMODE
 70
    0
  9
$VISRETAIN
 70
    1
  9
$PLINEGEN
 70
    0
  9
$PSLTSCALE
 70
    1
  9
$TREEDEPTH
 70
 3020
  9
$CMLSTYLE
  2
Standard
  9
$CMLJUST
 70
    0
  9
$CMLSCALE
 40
20
  9
$PROXYGRAPHICS
 70
    1
  9
$MEASUREMENT
 70
    1
  9
$CELWEIGHT
370
   -1
  9
$ENDCAPS
280
    0
  9
$JOINSTYLE
280
    0
  9
$LWDISPLAY
290
    0
  9
$INSUNITS
 70
    4
  9
$HYPERLINKBASE
  1

  9
$STYLESHEET
  1

  9
$XEDIT
290
    1
  9
$CEPSNTYPE
380
    0
  9
$PSTYLEMODE
290
    1
  9
$EXTNAMES
290
    1
  9
$PSVPSCALE
 40
1
  9
$OLESTARTUP
290
    0
  9
$SORTENTS
280
  127
  9
$INDEXCTL
280
    0
  9
$HIDETEXT
280
    1
  9
$XCLIPFRAME
290
    0
  9
$HALOGAP
280
    0
  9
$OBSCOLOR
 70
  257
  9
$OBSLTYPE
280
    0
  9
$INTERSECTIONDISPLAY
280
    0
  9
$INTERSECTIONCOLOR
 70
  257
  9
$DIMASSOC
280
    1
  9
$PROJECTNAME
  1

  9
$CAMERADISPLAY
290
    0
  9
$LENSLENGTH
 40
50
  9
$CAMERAHEIGHT
 40
0
  9
$STEPSPERSEC
 40
2
  9
$STEPSIZE
 40
50
  9
$3DDWFPREC
 40
2
  9
$PSOLWIDTH
 40
5
  9
$PSOLHEIGHT
 40
80
  9
$LOFTANG1
 40
1.570796326794897
  9
$LOFTANG2
 40
1.570796326794897
  9
$LOFTMAG1
 40
0
  9
$LOFTMAG2
 40
0
  9
$LOFTPARAM
 70
    7
  9
$LOFTNORMALS
280
    1
  9
$LATITUDE
 40
1
  9
$LONGITUDE
 40
1
  9
$NORTHDIRECTION
 40
0
  9
$TIMEZONE
 70
-8000
  9
$LIGHTGLYPHDISPLAY
280
    1
  9
$TILEMODELIGHTSYNCH
280
    1
  9
$SOLIDHIST
280
    1
  9
$SHOWHIST
280
    1
  9
$DWFFRAME
280
    2
  9
$DGNFRAME
280
    0
  9
$REALWORLDSCALE
290
    1
  9
$INTERFERECOLOR
 62
    1
  9
$CSHADOW
280
    0
  9
$SHADOWPLANELOCATION
 40
0
  0
ENDSEC
  0
SECTION
  2
CLASSES
  0
ENDSEC
  0
SECTION
  2
TABLES
  0
TABLE
  2
VPORT
  5
8
330
0
100
AcDbSymbolTable
 70
    1
  0
VPORT
  5
31
330
2
100
AcDbSymbolTableRecord
100
AcDbViewportTableRecord
  2
*ACTIVE
 70
    0
 10
0
 20
0
 11
1
 21
1
 12
354.4306076498906
 22
224.1963590299991
 13
0
 23
0
 14
10
 24
10
 15
10
 25
10
 16
0
 26
0
 36
1
 17
0
 27
0
 37
0
 40
657.0438750000897
 41
1.676130389064143
 42
50
 43
0
 44
0
 50
0
 51
0
 71
    0
 72
  100
 73
    1
 74
    3
 75
    0
 76
    1
 77
    0
 78
    0
281
    0
 65
    1
110
0
120
0
130
0
111
1
121
0
131
0
112
0
122
1
132
0
 79
    0
146
0
348
10020
 60
    7
 61
    5
292
1
282
    1
141
0
142
0
 63
  250
421
3358443
  0
ENDTAB
  0
TABLE
  2
LTYPE
  5
5
330
0
100
AcDbSymbolTable
 70
    4
  0
LTYPE
  5
14
330
5
100
AcDbSymbolTableRecord
100
AcDbLinetypeTableRecord
  2
ByBlock
 70
    0
  3

 72
   65
 73
    0
 40
0
  0
LTYPE
  5
15
330
5
100
AcDbSymbolTableRecord
100
AcDbLinetypeTableRecord
  2
ByLayer
 70
    0
  3

 72
   65
 73
    0
 40
0
  0
LTYPE
  5
16
330
5
100
AcDbSymbolTableRecord
100
AcDbLinetypeTableRecord
  2
Continuous
 70
    0
  3
Solid line
 72
   65
 73
    0
 40
0
  0
LTYPE
  5
32
330
5
100
AcDbSymbolTableRecord
100
AcDbLinetypeTableRecord
  2
DOT
 70
    0
  3
Dot . . . . . . . . . . . . . . . . . . . . . .
 72
   65
 73
    2
 40
6.35
 49
0
 74
    0
 49
-6.35
 74
    0
  0
LTYPE
  5
33
330
5
100
AcDbSymbolTableRecord
100
AcDbLinetypeTableRecord
  2
DOTTINY
 70
    0
  3
Dot (.15x) .....................................
 72
   65
 73
    2
 40
0.9525
 49
0
 74
    0
 49
-0.9525
 74
    0
  0
LTYPE
  5
34
330
5
100
AcDbSymbolTableRecord
100
AcDbLinetypeTableRecord
  2
DOT2
 70
    0
  3
Dot (.5x) .....................................
 72
   65
 73
    2
 40
3.175
 49
0
 74
    0
 49
-3.175
 74
    0
  0
LTYPE
  5
35
330
5
100
AcDbSymbolTableRecord
100
AcDbLinetypeTableRecord
  2
DOTX2
 70
    0
  3
Dot (2x) .  .  .  .  .  .  .  .  .  .  .  .  .
 72
   65
 73
    2
 40
12.7
 49
0
 74
    0
 49
-12.7
 74
    0
  0
LTYPE
  5
36
330
5
100
AcDbSymbolTableRecord
100
AcDbLinetypeTableRecord
  2
DASHED
 70
    0
  3
Dashed _ _ _ _ _ _ _ _ _ _ _ _ _ _ _ _ _
 72
   65
 73
    2
 40
19.05
 49
12.7
 74
    0
 49
-6.35
 74
    0
  0
LTYPE
  5
37
330
5
100
AcDbSymbolTableRecord
100
AcDbLinetypeTableRecord
  2
DASHEDTINY
 70
    0
  3
Dashed (.15x) _ _ _ _ _ _ _ _ _ _ _ _ _ _ _ _ _
 72
   65
 73
    2
 40
2.8575
 49
1.905
 74
    0
 49
-0.9525
 74
    0
  0
LTYPE
  5
38
330
5
100
AcDbSymbolTableRecord
100
AcDbLinetypeTableRecord
  2
DASHED2
 70
    0
  3
Dashed (.5x) _ _ _ _ _ _ _ _ _ _ _ _ _ _ _ _ _
 72
   65
 73
    2
 40
9.524999999999999
 49
6.35
 74
    0
 49
-3.175
 74
    0
  0
LTYPE
  5
39
330
5
100
AcDbSymbolTableRecord
100
AcDbLinetypeTableRecord
  2
DASHEDX2
 70
    0
  3
Dashed (2x) ____  ____  ____  ____  ____  ___
 72
   65
 73
    2
 40
38.09999999999999
 49
25.4
 74
    0
 49
-12.7
 74
    0
  0
LTYPE
  5
3A
330
5
100
AcDbSymbolTableRecord
100
AcDbLinetypeTableRecord
  2
DASHDOT
 70
    0
  3
Dash dot __ . __ . __ . __ . __ . __ . __ . __
 72
   65
 73
    4
 40
25.4
 49
12.7
 74
    0
 49
-6.35
 74
    0
 49
0
 74
    0
 49
-6.35
 74
    0
  0
LTYPE
  5
3B
330
5
100
AcDbSymbolTableRecord
100
AcDbLinetypeTableRecord
  2
DASHDOTTINY
 70
    0
  3
Dash dot (.15x) _._._._._._._._._._._._._._._.
 72
   65
 73
    4
 40
3.81
 49
1.905
 74
    0
 49
-0.9525
 74
    0
 49
0
 74
    0
 49
-0.9525
 74
    0
  0
LTYPE
  5
3C
330
5
100
AcDbSymbolTableRecord
100
AcDbLinetypeTableRecord
  2
DASHDOT2
 70
    0
  3
Dash dot (.5x) _._._._._._._._._._._._._._._.
 72
   65
 73
    4
 40
12.7
 49
6.35
 74
    0
 49
-3.175
 74
    0
 49
0
 74
    0
 49
-3.175
 74
    0
  0
LTYPE
  5
3D
330
5
100
AcDbSymbolTableRecord
100
AcDbLinetypeTableRecord
  2
DASHDOTX2
 70
    0
  3
Dash dot (2x) ____  .  ____  .  ____  .  ___
 72
   65
 73
    4
 40
50.8
 49
25.4
 74
    0
 49
-12.7
 74
    0
 49
0
 74
    0
 49
-12.7
 74
    0
  0
LTYPE
  5
3E
330
5
100
AcDbSymbolTableRecord
100
AcDbLinetypeTableRecord
  2
DIVIDE
 70
    0
  3
Divide ____ . . ____ . . ____ . . ____ . . ____
 72
   65
 73
    6
 40
31.75
 49
12.7
 74
    0
 49
-6.35
 74
    0
 49
0
 74
    0
 49
-6.35
 74
    0
 49
0
 74
    0
 49
-6.35
 74
    0
  0
LTYPE
  5
3F
330
5
100
AcDbSymbolTableRecord
100
AcDbLinetypeTableRecord
  2
DIVIDETINY
 70
    0
  3
Divide (.15x) __..__..__..__..__..__..__..__.._
 72
   65
 73
    6
 40
4.7625
 49
1.905
 74
    0
 49
-0.9525
 74
    0
 49
0
 74
    0
 49
-0.9525
 74
    0
 49
0
 74
    0
 49
-0.9525
 74
    0
  0
LTYPE
  5
40
330
5
100
AcDbSymbolTableRecord
100
AcDbLinetypeTableRecord
  2
DIVIDE2
 70
    0
  3
Divide (.5x) __..__..__..__..__..__..__..__.._
 72
   65
 73
    6
 40
15.875
 49
6.35
 74
    0
 49
-3.175
 74
    0
 49
0
 74
    0
 49
-3.175
 74
    0
 49
0
 74
    0
 49
-3.175
 74
    0
  0
LTYPE
  5
41
330
5
100
AcDbSymbolTableRecord
100
AcDbLinetypeTableRecord
  2
DIVIDEX2
 70
    0
  3
Divide (2x) ________  .  .  ________  .  .  _
 72
   65
 73
    6
 40
63.5
 49
25.4
 74
    0
 49
-12.7
 74
    0
 49
0
 74
    0
 49
-12.7
 74
    0
 49
0
 74
    0
 49
-12.7
 74
    0
  0
LTYPE
  5
42
330
5
100
AcDbSymbolTableRecord
100
AcDbLinetypeTableRecord
  2
BORDER
 70
    0
  3
Border __ __ . __ __ . __ __ . __ __ . __ __ .
 72
   65
 73
    6
 40
44.45
 49
12.7
 74
    0
 49
-6.35
 74
    0
 49
12.7
 74
    0
 49
-6.35
 74
    0
 49
0
 74
    0
 49
-6.35
 74
    0
  0
LTYPE
  5
43
330
5
100
AcDbSymbolTableRecord
100
AcDbLinetypeTableRecord
  2
BORDERTINY
 70
    0
  3
Border (.15x) __.__.__.__.__.__.__.__.__.__.__.
 72
   65
 73
    6
 40
6.6675
 49
1.905
 74
    0
 49
-0.9525
 74
    0
 49
1.905
 74
    0
 49
-0.9525
 74
    0
 49
0
 74
    0
 49
-0.9525
 74
    0
  0
LTYPE
  5
44
330
5
100
AcDbSymbolTableRecord
100
AcDbLinetypeTableRecord
  2
BORDER2
 70
    0
  3
Border (.5x) __.__.__.__.__.__.__.__.__.__.__.
 72
   65
 73
    6
 40
22.225
 49
6.35
 74
    0
 49
-3.175
 74
    0
 49
6.35
 74
    0
 49
-3.175
 74
    0
 49
0
 74
    0
 49
-3.175
 74
    0
  0
LTYPE
  5
45
330
5
100
AcDbSymbolTableRecord
100
AcDbLinetypeTableRecord
  2
BORDERX2
 70
    0
  3
Border (2x) ____  ____  .  ____  ____  .  ___
 72
   65
 73
    6
 40
88.89999999999999
 49
25.4
 74
    0
 49
-12.7
 74
    0
 49
25.4
 74
    0
 49
-12.7
 74
    0
 49
0
 74
    0
 49
-12.7
 74
    0
  0
LTYPE
  5
46
330
5
100
AcDbSymbolTableRecord
100
AcDbLinetypeTableRecord
  2
CENTER
 70
    0
  3
Center ____ _ ____ _ ____ _ ____ _ ____ _ ____
 72
   65
 73
    4
 40
50.8
 49
31.75
 74
    0
 49
-6.35
 74
    0
 49
6.35
 74
    0
 49
-6.35
 74
    0
  0
LTYPE
  5
47
330
5
100
AcDbSymbolTableRecord
100
AcDbLinetypeTableRecord
  2
CENTERTINY
 70
    0
  3
Center (.15x) ___ _ ___ _ ___ _ ___ _ ___ _ ___
 72
   65
 73
    4
 40
7.619999999999999
 49
4.7625
 74
    0
 49
-0.9525
 74
    0
 49
0.9525
 74
    0
 49
-0.9525
 74
    0
  0
LTYPE
  5
48
330
5
100
AcDbSymbolTableRecord
100
AcDbLinetypeTableRecord
  2
CENTER2
 70
    0
  3
Center (.5x) ___ _ ___ _ ___ _ ___ _ ___ _ ___
 72
   65
 73
    4
 40
28.575
 49
19.05
 74
    0
 49
-3.175
 74
    0
 49
3.175
 74
    0
 49
-3.175
 74
    0
  0
LTYPE
  5
49
330
5
100
AcDbSymbolTableRecord
100
AcDbLinetypeTableRecord
  2
CENTERX2
 70
    0
  3
Center (2x) ________  __  ________  __  _____
 72
   65
 73
    4
 40
101.6
 49
63.5
 74
    0
 49
-12.7
 74
    0
 49
12.7
 74
    0
 49
-12.7
 74
    0
  0
ENDTAB
  0
TABLE
  2
LAYER
  5
2
330
0
100
AcDbSymbolTable
 70
    1
  0
LAYER
  5
10
330
2
100
AcDbSymbolTableRecord
100
AcDbLayerTableRecord
  2
0
 70
    1
 62
  176
420
  128
  6
CONTINUOUS
370
   -3
390
F
  0
LAYER
  5
4A
330
2
100
AcDbSymbolTableRecord
100
AcDbLayerTableRecord
  2
BEND
 70
    0
 62
  176
420
  128
  6
CONTINUOUS
370
   -3
390
F
  0
LAYER
  5
4B
330
2
100
AcDbSymbolTableRecord
100
AcDbLayerTableRecord
  2
BEND_EXTENT
 70
    1
 62
    7
  6
CONTINUOUS
370
   -3
390
F
  0
LAYER
  5
4C
330
2
100
AcDbSymbolTableRecord
100
AcDbLayerTableRecord
  2
INTERIOR_PROFILES
 70
    0
 62
    3
  6
CONTINUOUS
370
   -3
390
F
  0
LAYER
  5
4D
330
2
100
AcDbSymbolTableRecord
100
AcDbLayerTableRecord
  2
OUTER_PROFILES
 70
    0
 62
    1
  6
CONTINUOUS
370
   -3
390
F
  0
ENDTAB
  0
TABLE
  2
STYLE
  5
3
330
0
100
AcDbSymbolTable
 70
    3
  0
STYLE
  5
4E
330
2
100
AcDbSymbolTableRecord
100
AcDbTextStyleTableRecord
  2
Standard
 70
    0
 40
0
 41
1
 50
0
 71
    0
 42
1
  3
txt
  4

  0
ENDTAB
  0
TABLE
  2
VIEW
  5
6
330
0
100
AcDbSymbolTable
 70
    0
  0
ENDTAB
  0
TABLE
  2
UCS
  5
7
330
0
100
AcDbSymbolTable
 70
    0
  0
ENDTAB
  0
TABLE
  2
APPID
  5
9
330
0
100
AcDbSymbolTable
 70
    1
  0
APPID
  5
12
330
9
100
AcDbSymbolTableRecord
100
AcDbRegAppTableRecord
  2
ACAD
 70
    0
  0
APPID
  5
4F
330
9
100
AcDbSymbolTableRecord
100
AcDbRegAppTableRecord
  2
LibreCad
 70
    0
  0
ENDTAB
  0
TABLE
  2
DIMSTYLE
  5
A
330
0
100
AcDbSymbolTable
 70
    1
100
AcDbDimStyleTable
 71
    1
  0
DIMSTYLE
105
50
330
A
100
AcDbSymbolTableRecord
100
AcDbDimStyleTableRecord
  2
Standard
 70
    0
 40
2.5
 41
2.5
 42
0.625
 43
0.38
 44
1.25
 45
0
 46
0
 47
0
 48
0
 49
1
140
2.5
141
0.09
142
0
143
25.4
144
1
145
0
146
1
147
0.625
148
0
 71
    0
 72
    0
 73
    0
 74
    1
 75
    0
 76
    0
 77
    0
 78
    8
 79
    0
170
    0
171
    2
172
    0
173
    0
174
    0
175
    0
176
    0
177
    0
178
    0
179
    0
271
    2
272
    4
273
    2
274
    2
275
    0
276
    0
277
    2
278
   44
279
    0
280
    0
281
    0
282
    0
283
    1
284
    0
285
    0
286
    0
288
    0
289
    3
340
STANDARD
341

371
   -2
372
   -2
  0
ENDTAB
  0
TABLE
  2
BLOCK_RECORD
  5
1
330
0
100
AcDbSymbolTable
 70
    2
  0
BLOCK_RECORD
  5
1F
330
1
100
AcDbSymbolTableRecord
100
AcDbBlockTableRecord
  2
*Model_Space
 70
    0
280
    1
281
    0
  0
BLOCK_RECORD
  5
1E
330
1
100
AcDbSymbolTableRecord
100
AcDbBlockTableRecord
  2
*Paper_Space
 70
    0
280
    1
281
    0
  0
ENDTAB
  0
ENDSEC
  0
SECTION
  2
BLOCKS
  0
BLOCK
  5
20
330
1F
100
AcDbEntity
  8
0
100
AcDbBlockBegin
  2
*Model_Space
 70
    0
 10
0
 20
0
 30
0
  3
*Model_Space
  1

  0
ENDBLK
  5
21
330
1F
100
AcDbEntity
  8
0
100
AcDbBlockEnd
  0
BLOCK
  5
1C
330
1B
100
AcDbEntity
  8
0
100
AcDbBlockBegin
  2
*Paper_Space
 70
    0
 10
0
 20
0
 30
0
  3
*Paper_Space
  1

  0
ENDBLK
  5
1D
330
1F
100
AcDbEntity
  8
0
100
AcDbBlockEnd
  0
ENDSEC
  0
SECTION
  2
ENTITIES
  0
LINE
  5
51
100
AcDbEntity
  8
BEND_EXTENT
  6
ByLayer
 62
  256
370
   -1
100
AcDbLine
 10
179.6021273090331
 20
262.0477868423386
 11
179.6021273090331
 21
204.0477868423386
  0
LINE
  5
52
100
AcDbEntity
  8
BEND_EXTENT
  6
ByLayer
 62
  256
370
   -1
100
AcDbLine
 10
37.38276759143929
 20
204.0477868423386
 11
37.3827675914393
 21
262.0477868423386
  0
LINE
  5
53
100
AcDbEntity
  8
BEND_EXTENT
  6
ByLayer
 62
  256
370
   -1
100
AcDbLine
 10
41.90666101260881
 20
262.1512495174829
 11
41.90666101260881
 21
204.0477868423386
  0
LINE
  5
54
100
AcDbEntity
  8
BEND_EXTENT
  6
ByLayer
 62
  256
370
   -1
100
AcDbLine
 10
41.90666101260881
 20
204.0477868423386
 11
175.0782338878627
 21
204.0477868423386
  0
LINE
  5
55
100
AcDbEntity
  8
BEND_EXTENT
  6
ByLayer
 62
  256
370
   -1
100
AcDbLine
 10
175.0782338878627
 20
204.0477868423386
 11
175.0782338878627
 21
262.1512495174828
  0
LINE
  5
56
100
AcDbEntity
  8
BEND_EXTENT
  6
ByLayer
 62
  256
370
   -1
100
AcDbLine
 10
179.6021273090297
 20
57.99999999999999
 11
179.6021273090297
 21
0
  0
LINE
  5
57
100
AcDbEntity
  8
BEND_EXTENT
  6
ByLayer
 62
  256
370
   -1
100
AcDbLine
 10
175.0782338878627
 20
0
 11
175.0782338878627
 21
57.99999999999999
  0
LINE
  5
58
100
AcDbEntity
  8
BEND_EXTENT
  6
ByLayer
 62
  256
370
   -1
100
AcDbLine
 10
175.0782338878627
 20
57.99999999999999
 11
41.90666101260882
 21
57.99999999999999
  0
LINE
  5
59
100
AcDbEntity
  8
BEND_EXTENT
  6
ByLayer
 62
  256
370
   -1
100
AcDbLine
 10
41.90666101260882
 20
57.99999999999999
 11
41.90666101260882
 21
0
  0
LINE
  5
5A
100
AcDbEntity
  8
BEND_EXTENT
  6
ByLayer
 62
  256
370
   -1
100
AcDbLine
 10
37.38276759144027
 20
0
 11
37.38276759144028
 21
58.00000000000004
  0
LINE
  5
5B
100
AcDbEntity
  8
BEND_EXTENT
  6
ByLayer
 62
  256
370
   -1
100
AcDbLine
 10
41.90666101260882
 20
62.52389342116928
 11
175.0782338878627
 21
62.52389342116928
  0
LINE
  5
5C
100
AcDbEntity
  8
BEND_EXTENT
  6
ByLayer
 62
  256
370
   -1
100
AcDbLine
 10
175.0782338878627
 20
199.5238934211693
 11
41.90666101260881
 21
199.5238934211693
  0
LINE
  5
5D
100
AcDbEntity
  8
BEND_EXTENT
  6
ByLayer
 62
  256
370
   -1
100
AcDbLine
 10
37.38276759143952
 20
62.52389342116928
 11
37.38276759143952
 21
199.5238934211693
  0
LINE
  5
5E
100
AcDbEntity
  8
BEND_EXTENT
  6
ByLayer
 62
  256
370
   -1
100
AcDbLine
 10
41.90666101260881
 20
199.5238934211693
 11
41.90666101260879
 21
62.52389342116928
  0
LINE
  5
5F
100
AcDbEntity
  8
BEND_EXTENT
  6
ByLayer
 62
  256
370
   -1
100
AcDbLine
 10
179.6021273090319
 20
199.5238934211693
 11
179.6021273090319
 21
62.52389342116928
  0
LINE
  5
60
100
AcDbEntity
  8
BEND_EXTENT
  6
ByLayer
 62
  256
370
   -1
100
AcDbLine
 10
175.0782338878627
 20
62.52389342116928
 11
175.0782338878627
 21
199.5238934211693
  0
LWPOLYLINE
  5
61
100
AcDbEntity
  8
INTERIOR_PROFILES
  6
ByLayer
 62
  256
370
   -1
100
AcDbPolyline
 90
    4
 70
    1
 43
0
 10
171.1399433951516
 20
259.3232474739789
 10
171.1399433951609
 20
267.3232474739789
 42
-0.9999999999999901
 10
177.1399433951561
 20
267.3232474739718
 10
177.1399433951468
 20
259.3232474739721
 42
-1
  0
LWPOLYLINE
  5
62
100
AcDbEntity
  8
INTERIOR_PROFILES
  6
ByLayer
 62
  256
370
   -1
100
AcDbPolyline
 90
    4
 70
    1
 43
0
 10
94.13994339514846
 20
251.8232474739754
 10
124.1399433951484
 20
251.8232474739755
 42
-0.9999999999999977
 10
124.1399433951485
 20
245.8232474739755
 10
94.13994339514838
 20
245.8232474739756
 42
-0.9999999999999948
  0
LWPOLYLINE
  5
63
100
AcDbEntity
  8
INTERIOR_PROFILES
  6
ByLayer
 62
  256
370
   -1
100
AcDbPolyline
 90
    4
 70
    1
 43
0
 10
119.1399433951511
 20
233.3232474739755
 10
149.139943395151
 20
233.3232474739755
 42
-0.9999999999999999
 10
149.139943395151
 20
227.3232474739754
 10
119.1399433951511
 20
227.3232474739755
 42
-0.9999999999999999
  0
LWPOLYLINE
  5
64
100
AcDbEntity
  8
INTERIOR_PROFILES
  6
ByLayer
 62
  256
370
   -1
100
AcDbPolyline
 90
    4
 70
    1
 43
0
 10
119.1399433951511
 20
270.3232474739755
 10
149.139943395151
 20
270.3232474739754
 42
-0.9999999999999999
 10
149.139943395151
 20
264.3232474739756
 10
119.139943395151
 20
264.3232474739755
 42
-0.9999999999999972
  0
LWPOLYLINE
  5
65
100
AcDbEntity
  8
INTERIOR_PROFILES
  6
ByLayer
 62
  256
370
   -1
100
AcDbPolyline
 90
    4
 70
    1
 43
0
 10
144.1399433951536
 20
251.8232474739998
 10
174.1399433951536
 20
251.8232474739998
 42
-0.9999999999999999
 10
174.1399433951536
 20
245.8232474739512
 10
144.1399433951536
 20
245.8232474739512
 42
-0.9999999999999997
  0
LWPOLYLINE
  5
66
100
AcDbEntity
  8
INTERIOR_PROFILES
  6
ByLayer
 62
  256
370
   -1
100
AcDbPolyline
 90
    4
 70
    1
 43
0
 10
91.13994339515088
 20
230.3232474739807
 10
91.13994339516466
 20
238.3232474739807
 42
-0.9999999999999999
 10
97.13994339516046
 20
238.3232474739704
 10
97.13994339514667
 20
230.3232474739703
 42
-0.9999999999999999
  0
LWPOLYLINE
  5
67
100
AcDbEntity
  8
INTERIOR_PROFILES
  6
ByLayer
 62
  256
370
   -1
100
AcDbPolyline
 90
    4
 70
    1
 43
0
 10
171.1399433951515
 20
230.3232474739773
 10
171.1399433951564
 20
238.3232474739796
 42
-1
 10
177.139943395151
 20
238.3232474739759
 10
177.139943395146
 20
230.3232474739736
 42
-0.999999999999995
  0
LWPOLYLINE
  5
68
100
AcDbEntity
  8
INTERIOR_PROFILES
  6
ByLayer
 62
  256
370
   -1
100
AcDbPolyline
 90
    4
 70
    1
 43
0
 10
91.13994339513016
 20
259.3232474739781
 10
91.13994339513714
 20
267.3232474739781
 42
-1.00000000000001
 10
97.13994339515907
 20
267.323247473973
 10
97.13994339515227
 20
259.323247473973
 42
-1.000000000000005
  0
LINE
  5
69
100
AcDbEntity
  8
OUTER_PROFILES
  6
ByLayer
 62
  256
370
   -1
100
AcDbLine
 10
196.3513334879202
 20
268.666393224483
 11
183.0376249889356
 21
281.9801017234678
  0
ARC
  5
6A
100
AcDbEntity
  8
OUTER_PROFILES
  6
ByLayer
 62
  256
370
   -1
100
AcDbCircle
 10
177.3807707394432
 20
276.3232474739754
 40
8.000000000000005
100
AcDbArc
 50
44.9999999999999
 51
90.00000000000031
  0
LINE
  5
6B
100
AcDbEntity
  8
OUTER_PROFILES
  6
ByLayer
 62
  256
370
   -1
100
AcDbLine
 10
177.3807707394432
 20
284.3232474739754
 11
90.89911605085877
 21
284.3232474739754
  0
ARC
  5
6C
100
AcDbEntity
  8
OUTER_PROFILES
  6
ByLayer
 62
  256
370
   -1
100
AcDbCircle
 10
90.89911605085888
 20
276.3232474739755
 40
7.99999999999997
100
AcDbArc
 50
90.00000000000041
 51
135.000000000001
  0
LINE
  5
6D
100
AcDbEntity
  8
OUTER_PROFILES
  6
ByLayer
 62
  256
370
   -1
100
AcDbLine
 10
85.24226180136637
 20
281.9801017234677
 11
71.92855330238197
 21
268.666393224483
  0
ARC
  5
6E
100
AcDbEntity
  8
OUTER_PROFILES
  6
ByLayer
 62
  256
370
   -1
100
AcDbCircle
 10
66.27169905288957
 20
274.3232474739755
 40
7.999999999999961
100
AcDbArc
 50
279.2247298614764
 51
315.0000000000005
  0
LINE
  5
6F
100
AcDbEntity
  8
OUTER_PROFILES
  6
ByLayer
 62
  256
370
   -1
100
AcDbLine
 10
67.55415695752407
 20
266.4267101491196
 11
63.03026353635366
 21
266.3232474739754
  0
LINE
  5
70
100
AcDbEntity
  8
OUTER_PROFILES
  6
ByLayer
 62
  256
370
   -1
100
AcDbLine
 10
205.2496232539475
 20
266.3232474739754
 11
200.725729832778
 21
266.4267101491196
  0
ARC
  5
71
100
AcDbEntity
  8
OUTER_PROFILES
  6
ByLayer
 62
  256
370
   -1
100
AcDbCircle
 10
202.0081877374126
 20
274.3232474739755
 40
7.999999999999974
100
AcDbArc
 50
224.9999999999995
 51
260.7752701385226
  0
CIRCLE
  5
72
100
AcDbEntity
  8
INTERIOR_PROFILES
  6
ByLayer
 62
  256
370
   -1
100
AcDbCircle
 10
35.28859974712597
 20
258.975707473977
 40
2.250000000000014
  0
CIRCLE
  5
73
100
AcDbEntity
  8
INTERIOR_PROFILES
  6
ByLayer
 62
  256
370
   -1
100
AcDbCircle
 10
35.28859974712907
 20
11.62300063163537
 40
2.249999999999979
  0
LINE
  5
74
100
AcDbEntity
  8
BEND
  6
ByLayer
 62
  256
370
   -1
100
AcDbLine
 10
63.79221024694056
 20
4.2754606316367
 11
63.79221024694056
 21
62.27546063163674
  0
LINE
  5
75
100
AcDbEntity
  8
BEND
  6
ByLayer
 62
  256
370
   -1
100
AcDbLine
 10
63.79221024693888
 20
208.3232474739755
 11
63.79221024693888
 21
266.3749788115475
  0
CIRCLE
  5
76
100
AcDbEntity
  8
INTERIOR_PROFILES
  6
ByLayer
 62
  256
370
   -1
100
AcDbCircle
 10
44.87780353635327
 20
188.3901089835423
 40
2.250000000000014
  0
CIRCLE
  5
77
100
AcDbEntity
  8
INTERIOR_PROFILES
  6
ByLayer
 62
  256
370
   -1
100
AcDbCircle
 10
44.87780353635335
 20
82.20859912206993
 40
2.249999999999996
  0
CIRCLE
  5
78
100
AcDbEntity
  8
INTERIOR_PROFILES
  6
ByLayer
 62
  256
370
   -1
100
AcDbCircle
 10
10.87780353635327
 20
119.207145964346
 40
2.249999999999996
  0
CIRCLE
  5
79
100
AcDbEntity
  8
INTERIOR_PROFILES
  6
ByLayer
 62
  256
370
   -1
100
AcDbCircle
 10
10.87780353635327
 20
151.3915621412661
 40
2.249999999999996
  0
LINE
  5
7A
100
AcDbEntity
  8
BEND
  6
ByLayer
 62
  256
370
   -1
100
AcDbLine
 10
63.79221024693948
 20
66.79935405280607
 11
63.79221024693948
 21
203.7993540528061
  0
LINE
  5
7B
100
AcDbEntity
  8
OUTER_PROFILES
  6
ByLayer
 62
  256
370
   -1
100
AcDbLine
 10
24.14749594491377
 20
266.3232474739769
 11
35.80518739878877
 21
241.3232474739769
  0
LINE
  5
7C
100
AcDbEntity
  8
OUTER_PROFILES
  6
ByLayer
 62
  256
370
   -1
100
AcDbLine
 10
35.80518739878877
 20
241.3232474739769
 11
50.80518739878877
 21
231.3232474739769
  0
LINE
  5
7D
100
AcDbEntity
  8
OUTER_PROFILES
  6
ByLayer
 62
  256
370
   -1
100
AcDbLine
 10
50.80518739878877
 20
231.3232474739769
 11
61.53026353635366
 21
208.3232474739755
  0
LINE
  5
7E
100
AcDbEntity
  8
OUTER_PROFILES
  6
ByLayer
 62
  256
370
   -1
100
AcDbLine
 10
61.53026353635366
 20
208.3232474739755
 11
66.05415695752407
 21
208.3232474739755
  0
LINE
  5
7F
100
AcDbEntity
  8
OUTER_PROFILES
  6
ByLayer
 62
  256
370
   -1
100
AcDbLine
 10
66.05415695752407
 20
208.3232474739755
 11
66.05415695752407
 21
203.7993540528061
  0
LINE
  5
80
100
AcDbEntity
  8
OUTER_PROFILES
  6
ByLayer
 62
  256
370
   -1
100
AcDbLine
 10
66.05415695752407
 20
203.7993540528061
 11
61.53026353635485
 21
203.7993540528061
  0
LINE
  5
81
100
AcDbEntity
  8
OUTER_PROFILES
  6
ByLayer
 62
  256
370
   -1
100
AcDbLine
 10
61.53026353635485
 20
203.7993540528061
 11
38.53026353635326
 21
193.0742779152412
  0
LINE
  5
82
100
AcDbEntity
  8
OUTER_PROFILES
  6
ByLayer
 62
  256
370
   -1
100
AcDbLine
 10
38.53026353635326
 20
193.0742779152412
 11
28.53026353635326
 21
178.0742779152412
  0
LINE
  5
83
100
AcDbEntity
  8
OUTER_PROFILES
  6
ByLayer
 62
  256
370
   -1
100
AcDbLine
 10
28.53026353635326
 20
178.0742779152412
 11
3.53026353635326
 21
166.4165864613662
  0
LINE
  5
84
100
AcDbEntity
  8
OUTER_PROFILES
  6
ByLayer
 62
  256
370
   -1
100
AcDbLine
 10
3.53026353635326
 20
166.4165864613662
 11
3.53026353635326
 21
104.1821216442461
  0
LINE
  5
85
100
AcDbEntity
  8
OUTER_PROFILES
  6
ByLayer
 62
  256
370
   -1
100
AcDbLine
 10
3.53026353635326
 20
104.1821216442461
 11
28.53026353635337
 21
92.52443019037101
  0
LINE
  5
86
100
AcDbEntity
  8
OUTER_PROFILES
  6
ByLayer
 62
  256
370
   -1
100
AcDbLine
 10
28.53026353635337
 20
92.52443019037101
 11
38.53026353635337
 21
77.52443019037098
  0
LINE
  5
87
100
AcDbEntity
  8
OUTER_PROFILES
  6
ByLayer
 62
  256
370
   -1
100
AcDbLine
 10
38.53026353635337
 20
77.52443019037098
 11
61.53026353635485
 21
66.79935405280607
  0
LINE
  5
88
100
AcDbEntity
  8
OUTER_PROFILES
  6
ByLayer
 62
  256
370
   -1
100
AcDbLine
 10
61.53026353635485
 20
66.79935405280607
 11
66.05415695752407
 21
66.79935405280607
  0
LINE
  5
89
100
AcDbEntity
  8
OUTER_PROFILES
  6
ByLayer
 62
  256
370
   -1
100
AcDbLine
 10
66.05415695752407
 20
66.79935405280607
 11
66.05415695752407
 21
62.27546063163676
  0
LINE
  5
8A
100
AcDbEntity
  8
OUTER_PROFILES
  6
ByLayer
 62
  256
370
   -1
100
AcDbLine
 10
66.05415695752407
 20
62.27546063163676
 11
61.53026353635707
 21
62.27546063163676
  0
LINE
  5
8B
100
AcDbEntity
  8
OUTER_PROFILES
  6
ByLayer
 62
  256
370
   -1
100
AcDbLine
 10
61.53026353635707
 20
62.27546063163676
 11
50.80518739879196
 21
39.27546063163535
  0
LINE
  5
8C
100
AcDbEntity
  8
OUTER_PROFILES
  6
ByLayer
 62
  256
370
   -1
100
AcDbLine
 10
50.80518739879196
 20
39.27546063163535
 11
35.80518739879196
 21
29.27546063163543
  0
LINE
  5
8D
100
AcDbEntity
  8
OUTER_PROFILES
  6
ByLayer
 62
  256
370
   -1
100
AcDbLine
 10
35.80518739879196
 20
29.27546063163543
 11
24.14749594491676
 21
4.275460631635492
  0
LINE
  5
8E
100
AcDbEntity
  8
OUTER_PROFILES
  6
ByLayer
 62
  256
370
   -1
100
AcDbLine
 10
63.03026353635366
 20
266.3232474739754
 11
24.14749594491377
 21
266.3232474739769
  0
CIRCLE
  5
8F
100
AcDbEntity
  8
INTERIOR_PROFILES
  6
ByLayer
 62
  256
370
   -1
100
AcDbCircle
 10
222.7736232539492
 20
256.1264521108668
 40
4.25
  0
CIRCLE
  5
90
100
AcDbEntity
  8
INTERIOR_PROFILES
  6
ByLayer
 62
  256
370
   -1
100
AcDbCircle
 10
232.9912870431752
 20
258.9757074739758
 40
2.25
  0
CIRCLE
  5
91
100
AcDbEntity
  8
INTERIOR_PROFILES
  6
ByLayer
 62
  256
370
   -1
100
AcDbCircle
 10
232.9912870431745
 20
11.62300063163669
 40
2.249999999999996
  0
LINE
  5
92
100
AcDbEntity
  8
BEND
  6
ByLayer
 62
  256
370
   -1
100
AcDbLine
 10
204.4876765433623
 20
62.27546063163681
 11
204.4876765433623
 21
4.275460631636771
  0
LINE
  5
93
100
AcDbEntity
  8
BEND
  6
ByLayer
 62
  256
370
   -1
100
AcDbLine
 10
204.4876765433627
 20
266.3749788115475
 11
204.4876765433627
 21
208.3232474739755
  0
CIRCLE
  5
94
100
AcDbEntity
  8
INTERIOR_PROFILES
  6
ByLayer
 62
  256
370
   -1
100
AcDbCircle
 10
218.5528278908387
 20
101.7753540528042
 40
4.250000000000007
  0
CIRCLE
  5
95
100
AcDbEntity
  8
INTERIOR_PROFILES
  6
ByLayer
 62
  256
370
   -1
100
AcDbCircle
 10
223.4020832539475
 20
188.3901089835423
 40
2.250000000000014
  0
CIRCLE
  5
96
100
AcDbEntity
  8
INTERIOR_PROFILES
  6
ByLayer
 62
  256
370
   -1
100
AcDbCircle
 10
223.4020832539475
 20
82.20859912206993
 40
2.249999999999996
  0
CIRCLE
  5
97
100
AcDbEntity
  8
INTERIOR_PROFILES
  6
ByLayer
 62
  256
370
   -1
100
AcDbCircle
 10
257.4020832539475
 20
119.2071459643461
 40
2.249999999999996
  0
CIRCLE
  5
98
100
AcDbEntity
  8
INTERIOR_PROFILES
  6
ByLayer
 62
  256
370
   -1
100
AcDbCircle
 10
257.4020832539475
 20
151.3915621412661
 40
2.249999999999996
  0
LINE
  5
99
100
AcDbEntity
  8
BEND
  6
ByLayer
 62
  256
370
   -1
100
AcDbLine
 10
204.4876765433626
 20
203.7993540528061
 11
204.4876765433626
 21
66.79935405280607
  0
LINE
  5
9A
100
AcDbEntity
  8
OUTER_PROFILES
  6
ByLayer
 62
  256
370
   -1
100
AcDbLine
 10
244.1323908453868
 20
4.275460631636771
 11
232.4746993915116
 21
29.27546063163671
  0
LINE
  5
9B
100
AcDbEntity
  8
OUTER_PROFILES
  6
ByLayer
 62
  256
370
   -1
100
AcDbLine
 10
232.4746993915116
 20
29.27546063163671
 11
217.4746993915116
 21
39.27546063163664
  0
LINE
  5
9C
100
AcDbEntity
  8
OUTER_PROFILES
  6
ByLayer
 62
  256
370
   -1
100
AcDbLine
 10
217.4746993915116
 20
39.27546063163664
 11
206.7496232539465
 21
62.27546063163683
  0
LINE
  5
9D
100
AcDbEntity
  8
OUTER_PROFILES
  6
ByLayer
 62
  256
370
   -1
100
AcDbLine
 10
206.7496232539465
 20
62.27546063163683
 11
202.2257298327779
 21
62.27546063163676
  0
LINE
  5
9E
100
AcDbEntity
  8
OUTER_PROFILES
  6
ByLayer
 62
  256
370
   -1
100
AcDbLine
 10
202.2257298327779
 20
62.27546063163676
 11
202.2257298327779
 21
66.79935405280607
  0
LINE
  5
9F
100
AcDbEntity
  8
OUTER_PROFILES
  6
ByLayer
 62
  256
370
   -1
100
AcDbLine
 10
202.2257298327779
 20
66.79935405280607
 11
206.7496232539472
 21
66.79935405280607
  0
LINE
  5
A0
100
AcDbEntity
  8
OUTER_PROFILES
  6
ByLayer
 62
  256
370
   -1
100
AcDbLine
 10
206.7496232539472
 20
66.79935405280607
 11
229.7496232539474
 21
77.52443019037098
  0
LINE
  5
A1
100
AcDbEntity
  8
OUTER_PROFILES
  6
ByLayer
 62
  256
370
   -1
100
AcDbLine
 10
229.7496232539474
 20
77.52443019037098
 11
239.7496232539474
 21
92.52443019037101
  0
LINE
  5
A2
100
AcDbEntity
  8
OUTER_PROFILES
  6
ByLayer
 62
  256
370
   -1
100
AcDbLine
 10
239.7496232539474
 20
92.52443019037101
 11
264.7496232539474
 21
104.1821216442461
  0
LINE
  5
A3
100
AcDbEntity
  8
OUTER_PROFILES
  6
ByLayer
 62
  256
370
   -1
100
AcDbLine
 10
264.7496232539474
 20
104.1821216442461
 11
264.7496232539472
 21
166.4165864613662
  0
LINE
  5
A4
100
AcDbEntity
  8
OUTER_PROFILES
  6
ByLayer
 62
  256
370
   -1
100
AcDbLine
 10
264.7496232539472
 20
166.4165864613662
 11
239.7496232539475
 21
178.0742779152412
  0
LINE
  5
A5
100
AcDbEntity
  8
OUTER_PROFILES
  6
ByLayer
 62
  256
370
   -1
100
AcDbLine
 10
239.7496232539475
 20
178.0742779152412
 11
229.7496232539475
 21
193.0742779152412
  0
LINE
  5
A6
100
AcDbEntity
  8
OUTER_PROFILES
  6
ByLayer
 62
  256
370
   -1
100
AcDbLine
 10
229.7496232539475
 20
193.0742779152412
 11
206.7496232539472
 21
203.7993540528061
  0
LINE
  5
A7
100
AcDbEntity
  8
OUTER_PROFILES
  6
ByLayer
 62
  256
370
   -1
100
AcDbLine
 10
206.7496232539472
 20
203.7993540528061
 11
202.225729832778
 21
203.7993540528061
  0
LINE
  5
A8
100
AcDbEntity
  8
OUTER_PROFILES
  6
ByLayer
 62
  256
370
   -1
100
AcDbLine
 10
202.225729832778
 20
203.7993540528061
 11
202.225729832778
 21
208.3232474739755
  0
LINE
  5
A9
100
AcDbEntity
  8
OUTER_PROFILES
  6
ByLayer
 62
  256
370
   -1
100
AcDbLine
 10
202.225729832778
 20
208.3232474739755
 11
206.7496232539475
 21
208.3232474739755
  0
LINE
  5
AA
100
AcDbEntity
  8
OUTER_PROFILES
  6
ByLayer
 62
  256
370
   -1
100
AcDbLine
 10
206.7496232539475
 20
208.3232474739755
 11
217.4746993915124
 21
231.3232474739758
  0
LINE
  5
AB
100
AcDbEntity
  8
OUTER_PROFILES
  6
ByLayer
 62
  256
370
   -1
100
AcDbLine
 10
217.4746993915124
 20
231.3232474739758
 11
232.4746993915124
 21
241.3232474739758
  0
LINE
  5
AC
100
AcDbEntity
  8
OUTER_PROFILES
  6
ByLayer
 62
  256
370
   -1
100
AcDbLine
 10
232.4746993915124
 20
241.3232474739758
 11
244.1323908453875
 21
266.3232474739755
  0
LINE
  5
AD
100
AcDbEntity
  8
BEND
  6
ByLayer
 62
  256
370
   -1
100
AcDbLine
 10
67.55415695752407
 20
206.0613007633908
 11
66.05415695752407
 21
206.0613007633908
  0
LINE
  5
AE
100
AcDbEntity
  8
BEND
  6
ByLayer
 62
  256
370
   -1
100
AcDbLine
 10
67.55415695752407
 20
206.0613007633908
 11
202.225729832778
 21
206.0613007633908
  0
LINE
  5
AF
100
AcDbEntity
  8
OUTER_PROFILES
  6
ByLayer
 62
  256
370
   -1
100
AcDbLine
 10
244.1323908453875
 20
266.3232474739755
 11
205.2496232539475
 21
266.3232474739754
  0
LINE
  5
B0
100
AcDbEntity
  8
OUTER_PROFILES
  6
ByLayer
 62
  256
370
   -1
100
AcDbLine
 10
24.14749594491667
 20
4.275460631635359
 11
244.1323908453868
 21
4.275460631636771
  0
LINE
  5
B1
100
AcDbEntity
  8
BEND
  6
ByLayer
 62
  256
370
   -1
100
AcDbLine
 10
202.2257298327779
 20
64.53740734222139
 11
66.05415695752407
 21
64.53740734222139
  0
ENDSEC
  0
SECTION
  2
OBJECTS
  0
DICTIONARY
  5
C
330
0
100
AcDbDictionary
281
    1
  3
ACAD_GROUP
350
D
  0
DICTIONARY
  5
D
330
C
100
AcDbDictionary
281
    1
  0
PLOTSETTINGS
  5
B2
100
AcDbPlotSettings
  6
1x1
 40
0
 41
0
 42
0
 43
0
  0
ENDSEC
  0
EOF
