0
SECTION
2
HEADER
9
$INSUNITS
70
4
9
$ACADVER
1
AC1014
9
$HANDSEED
5
FFFF
0
ENDSEC
0
SECTION
2
TABLES
0
TABLE
2
VPORT
5
8
100
AcDbSymbolTable
0
ENDTAB
0
TABLE
2
LTYPE
5
5
100
AcDbSymbolTable
0
LTYPE
5
14
100
AcDbSymbolTableRecord
100
AcDbLinetypeTableRecord
2
BYBLOCK
70
0
0
LTYPE
5
15
100
AcDbSymbolTableRecord
100
AcDbLinetypeTableRecord
2
BYLAYER
70
0
0
ENDTAB
0
TABLE
2
LAYER
5
2
100
AcDbSymbolTable
70
2
0
LAYER
5
50
100
AcDbSymbolTableRecord
100
AcDbLayerTableRecord
2
0
70
0
6
CONTINUOUS
0
ENDTAB
0
TABLE
2
STYLE
5
3
100
AcDbSymbolTable
70
1
0
STYLE
5
11
100
AcDbSymbolTableRecord
100
AcDbTextStyleTableRecord
2
STANDARD
70
0
0
ENDTAB
0
TABLE
2
VIEW
5
6
100
AcDbSymbolTable
70
0
0
ENDTAB
0
TABLE
2
UCS
5
7
100
AcDbSymbolTable
70
0
0
ENDTAB
0
TABLE
2
APPID
5
9
100
AcDbSymbolTable
70
2
0
APPID
5
12
100
AcDbSymbolTableRecord
100
AcDbRegAppTableRecord
2
ACAD
70
0
0
ENDTAB
0
TABLE
2
DIMSTYLE
5
A
100
AcDbSymbolTable
70
1
0
ENDTAB
0
TABLE
2
BLOCK_RECORD
5
1
100
AcDbSymbolTable
70
1
0
BLOCK_RECORD
5
1F
100
AcDbSymbolTableRecord
100
AcDbBlockTableRecord
2
*MODEL_SPACE
0
BLOCK_RECORD
5
1B
100
AcDbSymbolTableRecord
100
AcDbBlockTableRecord
2
*PAPER_SPACE
0
ENDTAB
0
ENDSEC
0
SECTION
2
BLOCKS
0
BLOCK
5
20
100
AcDbEntity
100
AcDbBlockBegin
2
*MODEL_SPACE
0
ENDBLK
5
21
100
AcDbEntity
100
AcDbBlockEnd
0
BLOCK
5
1C
100
AcDbEntity
100
AcDbBlockBegin
2
*PAPER_SPACE
0
ENDBLK
5
1D
100
AcDbEntity
100
AcDbBlockEnd
0
ENDSEC
0
SECTION
2
ENTITIES
0
CIRCLE
5
100
100
AcDbEntity
8
0
100
AcDbCircle
10
-4.0410927399904981
20
-79.257585432302392
30
0
40
1.9999999999999829
210
0
220
-0
230
1
0
LWPOLYLINE
5
101
100
AcDbEntity
8
0
100
AcDbPolyline
90
8
70
1
43
0.0
10
51.497552496717589
20
-51.221746951494183
10
51.497552496717589
20
-56.22174695149419
42
0.41421356237309509
10
51.997552496717589
20
-56.72174695149419
10
52.997552496717589
20
-56.721746951494197
42
0.41421356237309509
10
53.497552496717589
20
-56.221746951494197
10
53.497552496717589
20
-51.22174695149419
42
0.41421356237309509
10
52.997552496717589
20
-50.721746951494197
10
51.997552496717589
20
-50.721746951494183
42
0.41421356237309509
0
LWPOLYLINE
5
102
100
AcDbEntity
8
0
100
AcDbPolyline
90
8
70
1
43
0.0
10
2.7788601181078354
20
10.809654844048854
10
2.7788601181078354
20
9.8096548440488558
42
0.41421356237309509
10
3.2788601181078345
20
9.3096548440488558
10
8.2788601181078345
20
9.3096548440488558
42
0.41421356237309509
10
8.7788601181078345
20
9.8096548440488558
10
8.7788601181078345
20
10.809654844048854
42
0.41421356237309509
10
8.2788601181078327
20
11.309654844048856
10
3.2788601181078354
20
11.309654844048856
42
0.41421356237309509
0
LWPOLYLINE
5
103
100
AcDbEntity
8
0
100
AcDbPolyline
90
8
70
1
43
0.0
10
2.7788601181078354
20
-3.1903451559511451
10
2.7788601181078354
20
-4.190345155951146
42
0.41421356237309509
10
3.2788601181078358
20
-4.690345155951146
10
8.2788601181078363
20
-4.690345155951146
42
0.41421356237309537
10
8.7788601181078363
20
-4.1903451559511451
10
8.7788601181078363
20
-3.1903451559511442
42
0.41421356237309509
10
8.2788601181078363
20
-2.6903451559511451
10
3.2788601181078354
20
-2.6903451559511455
42
0.41421356237309509
0
LWPOLYLINE
5
104
100
AcDbEntity
8
0
100
AcDbPolyline
90
8
70
1
43
0.0
10
51.497552496717589
20
-29.625594375616746
10
51.497552496717589
20
-34.625594375616757
42
0.41421356237309509
10
51.997552496717589
20
-35.125594375616757
10
52.997552496717589
20
-35.125594375616757
42
0.41421356237309509
10
53.497552496717589
20
-34.625594375616757
10
53.497552496717589
20
-29.625594375616746
42
0.41421356237309509
10
52.997552496717589
20
-29.12559437561675
10
51.997552496717589
20
-29.12559437561675
42
0.41421356237309509
0
LWPOLYLINE
5
105
100
AcDbEntity
8
0
100
AcDbPolyline
90
8
70
1
43
0.0
10
52.997552496717589
20
-7.5294417997393044
10
51.997552496717589
20
-7.5294417997393044
42
0.41421356237309509
10
51.497552496717589
20
-8.0294417997393062
10
51.497552496717589
20
-13.029441799739308
42
0.41421356237309509
10
51.997552496717589
20
-13.529441799739308
10
52.997552496717589
20
-13.529441799739308
42
0.41421356237309509
10
53.497552496717589
20
-13.029441799739308
10
53.497552496717589
20
-8.0294417997393062
42
0.41421356237309509
0
LWPOLYLINE
5
106
100
AcDbEntity
8
0
100
AcDbPolyline
90
8
70
1
43
0.0
10
45.164940140557796
20
-56.72174695149419
10
46.027277372653259
20
-56.72174695149419
42
0.41421356237309509
10
46.527277372653259
20
-56.221746951494197
10
46.527277372653259
20
-51.22174695149419
42
0.41421356237309509
10
46.027277372653259
20
-50.721746951494197
10
45.164940140557796
20
-50.721746951494183
42
0.41421356237309509
10
44.664940140557796
20
-51.221746951494183
10
44.664940140557796
20
-56.22174695149419
42
0.41421356237309509
0
LWPOLYLINE
5
107
100
AcDbEntity
8
0
100
AcDbPolyline
90
8
70
1
43
0.0
10
-22.721139881892167
20
9.3096548440488558
10
-17.721139881892164
20
9.3096548440488558
42
0.41421356237309509
10
-17.221139881892164
20
9.8096548440488558
10
-17.221139881892167
20
10.809654844048854
42
0.41421356237309509
10
-17.721139881892167
20
11.309654844048856
10
-22.721139881892167
20
11.309654844048856
42
0.41421356237309509
10
-23.221139881892164
20
10.809654844048854
10
-23.221139881892164
20
9.8096548440488558
42
0.41421356237309509
0
LWPOLYLINE
5
108
100
AcDbEntity
8
0
100
AcDbPolyline
90
8
70
1
43
0.0
10
-23.221139881892164
20
-3.1903451559511451
10
-23.221139881892164
20
-4.190345155951146
42
0.41421356237309509
10
-22.721139881892167
20
-4.690345155951146
10
-17.721139881892164
20
-4.690345155951146
42
0.4142135623730947
10
-17.221139881892164
20
-4.190345155951146
10
-17.221139881892167
20
-3.1903451559511451
42
0.41421356237309509
10
-17.721139881892167
20
-2.6903451559511455
10
-22.721139881892167
20
-2.6903451559511455
42
0.41421356237309509
0
LWPOLYLINE
5
109
100
AcDbEntity
8
0
100
AcDbPolyline
90
8
70
1
43
0.0
10
45.164940140557796
20
-35.125594375616757
10
46.027277372653259
20
-35.125594375616757
42
0.41421356237309509
10
46.527277372653259
20
-34.625594375616757
10
46.527277372653259
20
-29.625594375616746
42
0.41421356237309509
10
46.027277372653259
20
-29.12559437561675
10
45.164940140557796
20
-29.12559437561675
42
0.41421356237309509
10
44.664940140557796
20
-29.625594375616746
10
44.664940140557796
20
-34.625594375616757
42
0.41421356237309509
0
LWPOLYLINE
5
110
100
AcDbEntity
8
0
100
AcDbPolyline
90
8
70
1
43
0.0
10
46.527277372653259
20
-13.029441799739308
10
46.527277372653259
20
-8.0294417997393062
42
0.41421356237309509
10
46.027277372653259
20
-7.5294417997393062
10
45.164940140557796
20
-7.5294417997393044
42
0.41421356237309509
10
44.664940140557796
20
-8.0294417997393062
10
44.664940140557796
20
-13.029441799739308
42
0.41421356237309509
10
45.164940140557796
20
-13.529441799739308
10
46.027277372653259
20
-13.529441799739308
42
0.41421356237309509
0
CIRCLE
5
111
100
AcDbEntity
8
0
100
AcDbCircle
10
-4.0410927399904812
20
79.257585432302392
30
0
40
1.9999999999999996
210
0
220
-0
230
1
0
CIRCLE
5
112
100
AcDbEntity
8
0
100
AcDbCircle
10
47.180844775455
20
50.262696585467275
30
0
40
1.4999999999999947
210
0
220
-0
230
1
0
CIRCLE
5
113
100
AcDbEntity
8
0
100
AcDbCircle
10
47.180844775455867
20
18.362696585467276
30
0
40
1.5000000000000036
210
0
220
-0
230
1
0
CIRCLE
5
114
100
AcDbEntity
8
0
100
AcDbCircle
10
15.280844775454998
20
50.262696585466422
30
0
40
1.4999999999999991
210
0
220
-0
230
1
0
CIRCLE
5
115
100
AcDbEntity
8
0
100
AcDbCircle
10
15.28084477545586
20
18.362696585466413
30
0
40
1.5000000000000013
210
0
220
-0
230
1
0
CIRCLE
5
116
100
AcDbEntity
8
0
100
AcDbCircle
10
20.848868055568182
20
-24.804545509322871
30
0
40
1.4999999999999991
210
0
220
-0
230
1
0
CIRCLE
5
117
100
AcDbEntity
8
0
100
AcDbCircle
10
20.848868055568182
20
-44.804545509322871
30
0
40
1.4999999999999991
210
0
220
-0
230
1
0
CIRCLE
5
118
100
AcDbEntity
8
0
100
AcDbCircle
10
29.182201388901518
20
-44.804545509322871
30
0
40
1.4999999999999991
210
0
220
-0
230
1
0
CIRCLE
5
119
100
AcDbEntity
8
0
100
AcDbCircle
10
12.515534722234847
20
-24.804545509322871
30
0
40
1.4999999999999991
210
0
220
-0
230
1
0
CIRCLE
5
120
100
AcDbEntity
8
0
100
AcDbCircle
10
29.182201388901518
20
-24.804545509322871
30
0
40
1.4999999999999991
210
0
220
-0
230
1
0
LWPOLYLINE
5
121
100
AcDbEntity
8
0
100
AcDbPolyline
90
8
70
1
43
0.0
10
-17.837696965469181
20
-32.304545509322871
10
-17.837696965469181
20
-37.304545509322871
42
0.41421356237309509
10
-15.837696965469181
20
-39.304545509322878
10
38.964540174200984
20
-39.304545509322885
42
0.41421356237309509
10
40.964540174200991
20
-37.304545509322878
10
40.964540174200991
20
-32.304545509322871
42
0.41421356237309509
10
38.964540174200984
20
-30.304545509322871
10
-15.837696965469181
20
-30.304545509322871
42
0.41421356237309509
0
CIRCLE
5
122
100
AcDbEntity
8
0
100
AcDbCircle
10
37.515534722234847
20
-44.804545509322871
30
0
40
1.4999999999999991
210
0
220
-0
230
1
0
CIRCLE
5
123
100
AcDbEntity
8
0
100
AcDbCircle
10
12.515534722234847
20
-44.804545509322871
30
0
40
1.4999999999999991
210
0
220
-0
230
1
0
CIRCLE
5
124
100
AcDbEntity
8
0
100
AcDbCircle
10
37.515534722234847
20
-24.804545509322871
30
0
40
1.4999999999999991
210
0
220
-0
230
1
0
CIRCLE
5
125
100
AcDbEntity
8
0
100
AcDbCircle
10
-40.837741888266279
20
43.962973514488617
30
0
40
2.1509999999999962
210
0
220
-0
230
1
0
CIRCLE
5
126
100
AcDbEntity
8
0
100
AcDbCircle
10
-20.517741888266343
20
23.68964712103843
30
0
40
2.150999999999994
210
0
220
-0
230
1
0
CIRCLE
5
127
100
AcDbEntity
8
0
100
AcDbCircle
10
-20.517741888266343
20
43.962973514488667
30
0
40
2.150999999999994
210
0
220
-0
230
1
0
CIRCLE
5
128
100
AcDbEntity
8
0
100
AcDbCircle
10
-40.791068281716591
20
23.68964712103843
30
0
40
2.1509999999999962
210
0
220
-0
230
1
0
CIRCLE
5
129
100
AcDbEntity
8
0
100
AcDbCircle
10
45
20
0
30
0
40
2.0000000000000018
210
0
220
-0
230
1
0
CIRCLE
5
130
100
AcDbEntity
8
0
100
AcDbCircle
10
-45
20
0
30
0
40
2.0000000000000018
210
0
220
-0
230
1
0
CIRCLE
5
131
100
AcDbEntity
8
0
100
AcDbCircle
10
0
20
-69.999999999999986
30
0
40
2.0000000000000018
210
0
220
-0
230
1
0
CIRCLE
5
132
100
AcDbEntity
8
0
100
AcDbCircle
10
-1.7144488953513282e-14
20
69.999999999999986
30
0
40
2.0000000000000018
210
0
220
-0
230
1
0
LWPOLYLINE
5
133
100
AcDbEntity
8
0
100
AcDbPolyline
90
72
70
1
43
0.0
10
43.848564081625028
20
83.948564081625037
42
-0.41421356237309243
10
45.848564081625028
20
81.948564081625065
10
45.848564081625028
20
81.749999999999986
42
0.13496971754874457
10
47.380941817802608
20
76.176665821876867
10
45.941659993697719
20
74.737383997772014
42
0.10531490996721711
10
49.737383997771865
20
70.94165999369784
10
51.176665821876746
20
72.380941817802707
42
0.13496971754874529
10
56.749999999999936
20
70.848564081625113
10
56.948564081625072
20
70.848564081625099
42
-0.4142135623730937
10
58.948564081625065
20
68.848564081625113
10
58.948564081625094
20
-68.848564081625071
42
-0.41421356237309109
10
56.948564081625086
20
-70.848564081625071
10
56.749999999999964
20
-70.848564081625071
42
0.13496971754874862
10
51.176665821876739
20
-72.380941817802665
10
49.737383997771857
20
-70.941659993697812
42
0.10531490996721951
10
45.941659993697712
20
-74.737383997772014
10
47.380941817802608
20
-76.176665821876867
42
0.13496971754874709
10
45.848564081625049
20
-81.749999999999986
10
45.848564081625049
20
-81.948564081625079
42
-0.41421356237309509
10
43.848564081625057
20
-83.948564081625079
10
42.541092739990454
20
-83.948564081625079
42
-0.41421356237309509
10
40.541092739990461
20
-81.948564081625079
10
40.541092739990461
20
-75.948564081625037
42
0.41421356237309509
10
38.541092739990461
20
-73.948564081625037
10
9.5410927399904626
20
-73.948564081625022
42
0.41421356237309509
10
7.5410927399904626
20
-75.948564081625022
10
7.5410927399904555
20
-81.948564081625079
42
-0.41421356237309537
10
5.5410927399904608
20
-83.948564081625079
10
-5.5410927399904963
20
-83.948564081625079
42
-0.41421356237309537
10
-7.5410927399904981
20
-81.948564081625079
10
-7.5410927399904999
20
-75.948564081625037
42
0.41421356237309509
10
-9.5410927399904999
20
-73.948564081625037
10
-38.541092739990496
20
-73.948564081625022
42
0.41421356237309509
10
-40.541092739990496
20
-75.948564081625022
10
-40.541092739990489
20
-81.948564081625079
42
-0.41421356237309243
10
-42.541092739990496
20
-83.948564081625079
10
-43.848564081625057
20
-83.948564081625079
42
-0.41421356237309509
10
-45.848564081625049
20
-81.948564081625079
10
-45.848564081625049
20
-81.75
42
0.13496971754874568
10
-47.380941817802587
20
-76.176665821876881
10
-45.941659993697698
20
-74.737383997772056
42
0.10531490996721951
10
-49.737383997771843
20
-70.941659993697854
10
-51.176665821876732
20
-72.380941817802707
42
0.13496971754874915
10
-56.749999999999936
20
-70.848564081625085
10
-56.948564081625072
20
-70.848564081625099
42
-0.41421356237308854
10
-58.948564081625065
20
-68.848564081625085
10
-58.948564081625072
20
68.848564081625085
42
-0.41421356237309243
10
-56.948564081625079
20
70.848564081625085
10
-56.749999999999936
20
70.848564081625085
42
0.13496971754874698
10
-51.176665821876739
20
72.380941817802693
10
-49.737383997771857
20
70.94165999369784
42
0.10531490996721758
10
-45.941659993697726
20
74.737383997772
10
-47.380941817802622
20
76.176665821876867
42
0.13496971754874534
10
-45.848564081625049
20
81.749999999999986
10
-45.848564081625042
20
81.948564081625065
42
-0.41421356237309243
10
-43.848564081625049
20
83.948564081625037
10
-42.541092739990496
20
83.948564081625037
42
-0.41421356237309243
10
-40.541092739990496
20
81.948564081625051
10
-40.541092739990496
20
75.948564081625022
42
0.41421356237309509
10
-38.541092739990496
20
73.948564081625022
10
-9.5410927399904963
20
73.948564081625022
42
0.41421356237309509
10
-7.5410927399904972
20
75.948564081625022
10
-7.5410927399904821
20
81.948564081625065
42
-0.41421356237309537
10
-5.5410927399905052
20
83.948564081625037
10
5.5410927399904697
20
83.948564081625051
42
-0.41421356237309537
10
7.5410927399904626
20
81.948564081625065
10
7.5410927399904644
20
75.948564081625037
42
0.41421356237309509
10
9.5410927399904644
20
73.948564081625037
10
38.541092739990461
20
73.948564081625022
42
0.41421356237309509
10
40.541092739990461
20
75.948564081625022
10
40.541092739990454
20
81.948564081625065
42
-0.41421356237309243
10
42.541092739990461
20
83.948564081625051
0
LWPOLYLINE
5
134
100
AcDbEntity
8
0
100
AcDbPolyline
90
8
70
1
43
0.0
10
53.497552496717596
20
-56.221746951494197
42
-0.41421356237307422
10
52.997552496717589
20
-56.721746951494211
10
51.997552496717589
20
-56.721746951494197
42
-0.41421356237307422
10
51.497552496717574
20
-56.22174695149419
10
51.497552496717574
20
-51.221746951494183
42
-0.41421356237307422
10
51.997552496717589
20
-50.721746951494175
10
52.997552496717589
20
-50.721746951494197
42
-0.41421356237307422
10
53.497552496717589
20
-51.22174695149419
0
LWPOLYLINE
5
135
100
AcDbEntity
8
0
100
AcDbPolyline
90
8
70
1
43
0.0
10
45.164940140557796
20
-56.721746951494197
42
-0.41421356237307422
10
44.664940140557789
20
-56.22174695149419
10
44.664940140557789
20
-51.221746951494183
42
-0.41421356237307422
10
45.164940140557796
20
-50.721746951494175
10
46.027277372653259
20
-50.721746951494197
42
-0.41421356237307422
10
46.527277372653259
20
-51.22174695149419
10
46.527277372653245
20
-56.221746951494197
42
-0.41421356237307422
10
46.027277372653259
20
-56.72174695149419
0
LWPOLYLINE
5
136
100
AcDbEntity
8
0
100
AcDbPolyline
90
8
70
1
43
0.0
10
51.497552496717596
20
-29.625594375616746
42
-0.4142135623730977
10
51.997552496717589
20
-29.12559437561675
10
52.997552496717589
20
-29.12559437561675
42
-0.41421356237309509
10
53.497552496717589
20
-29.625594375616746
10
53.497552496717589
20
-34.625594375616757
42
-0.41421356237309509
10
52.997552496717589
20
-35.125594375616757
10
51.997552496717589
20
-35.125594375616757
42
-0.4142135623730977
10
51.497552496717589
20
-34.625594375616757
0
LWPOLYLINE
5
137
100
AcDbEntity
8
0
100
AcDbPolyline
90
8
70
1
43
0.0
10
44.664940140557796
20
-29.625594375616746
42
-0.41421356237309509
10
45.164940140557796
20
-29.12559437561675
10
46.027277372653259
20
-29.125594375616743
42
-0.4142135623730977
10
46.527277372653259
20
-29.625594375616746
10
46.527277372653245
20
-34.625594375616757
42
-0.4142135623730977
10
46.027277372653259
20
-35.125594375616757
10
45.164940140557796
20
-35.125594375616757
42
-0.41421356237309509
10
44.664940140557796
20
-34.625594375616757
0
LWPOLYLINE
5
138
100
AcDbEntity
8
0
100
AcDbPolyline
90
8
70
1
43
0.0
10
44.664940140557796
20
-8.0294417997393062
42
-0.4142135623730937
10
45.164940140557796
20
-7.5294417997393044
10
46.027277372653259
20
-7.5294417997393062
42
-0.41421356237309637
10
46.527277372653259
20
-8.0294417997393062
10
46.527277372653259
20
-13.029441799739308
42
-0.4142135623730977
10
46.027277372653259
20
-13.529441799739308
10
45.164940140557796
20
-13.529441799739306
42
-0.41421356237309509
10
44.664940140557796
20
-13.029441799739308
0
LWPOLYLINE
5
139
100
AcDbEntity
8
0
100
AcDbPolyline
90
8
70
1
43
0.0
10
51.497552496717589
20
-8.0294417997393062
42
-0.41421356237309637
10
51.997552496717589
20
-7.5294417997393044
10
52.997552496717589
20
-7.5294417997393097
42
-0.4142135623730937
10
53.497552496717589
20
-8.0294417997393062
10
53.497552496717589
20
-13.029441799739308
42
-0.41421356237309509
10
52.997552496717589
20
-13.529441799739308
10
51.997552496717589
20
-13.52944179973931
42
-0.4142135623730977
10
51.497552496717589
20
-13.029441799739308
0
LWPOLYLINE
5
140
100
AcDbEntity
8
0
100
AcDbPolyline
90
8
70
1
43
0.0
10
-23.221139881892164
20
10.809654844048854
42
-0.41421356237309637
10
-22.721139881892167
20
11.309654844048854
10
-17.721139881892167
20
11.309654844048854
42
-0.4142135623730977
10
-17.221139881892171
20
10.809654844048854
10
-17.221139881892164
20
9.8096548440488558
42
-0.41421356237309176
10
-17.721139881892164
20
9.3096548440488558
10
-22.721139881892167
20
9.3096548440488576
42
-0.41421356237309509
10
-23.221139881892164
20
9.8096548440488558
0
LWPOLYLINE
5
141
100
AcDbEntity
8
0
100
AcDbPolyline
90
8
70
1
43
0.0
10
2.7788601181078358
20
10.809654844048854
42
-0.41421356237309409
10
3.2788601181078345
20
11.309654844048856
10
8.2788601181078327
20
11.30965484404885
42
-0.4142135623730977
10
8.7788601181078345
20
10.809654844048854
10
8.7788601181078363
20
9.8096548440488558
42
-0.4142135623730957
10
8.2788601181078345
20
9.3096548440488558
10
3.2788601181078354
20
9.3096548440488576
42
-0.4142135623730957
10
2.7788601181078354
20
9.8096548440488558
0
LWPOLYLINE
5
142
100
AcDbEntity
8
0
100
AcDbPolyline
90
8
70
1
43
0.0
10
2.7788601181078345
20
-3.1903451559511451
42
-0.41421356237309337
10
3.2788601181078358
20
-2.6903451559511451
10
8.2788601181078363
20
-2.6903451559511442
42
-0.41421356237309337
10
8.7788601181078363
20
-3.1903451559511442
10
8.7788601181078363
20
-4.1903451559511451
42
-0.41421356237309409
10
8.2788601181078363
20
-4.690345155951146
10
3.2788601181078358
20
-4.6903451559511469
42
-0.41421356237309337
10
2.7788601181078354
20
-4.190345155951146
0
LWPOLYLINE
5
143
100
AcDbEntity
8
0
100
AcDbPolyline
90
8
70
1
43
0.0
10
-23.221139881892164
20
-3.190345155951146
42
-0.4142135623730957
10
-22.721139881892167
20
-2.6903451559511451
10
-17.721139881892167
20
-2.6903451559511455
42
-0.4142135623730947
10
-17.221139881892167
20
-3.1903451559511451
10
-17.221139881892164
20
-4.190345155951146
42
-0.41421356237309209
10
-17.721139881892164
20
-4.690345155951146
10
-22.721139881892167
20
-4.690345155951146
42
-0.41421356237309598
10
-23.221139881892164
20
-4.190345155951146
0
CIRCLE
5
144
100
AcDbEntity
8
0
100
AcDbCircle
10
-4.0410927399904981
20
-79.257585432302392
30
0
40
1.9999999999999829
210
0
220
0
230
1
0
CIRCLE
5
145
100
AcDbEntity
8
0
100
AcDbCircle
10
-4.0410927399904812
20
79.257585432302392
30
0
40
1.9999999999999998
210
0
220
0
230
1
0
CIRCLE
5
146
100
AcDbEntity
8
0
100
AcDbCircle
10
47.180844775455
20
50.262696585467275
30
0
40
1.4999999999999947
210
0
220
0
230
1
0
CIRCLE
5
147
100
AcDbEntity
8
0
100
AcDbCircle
10
47.180844775455867
20
18.362696585467276
30
0
40
1.5000000000000036
210
0
220
0
230
1
0
CIRCLE
5
148
100
AcDbEntity
8
0
100
AcDbCircle
10
15.280844775454998
20
50.262696585466422
30
0
40
1.4999999999999991
210
0
220
0
230
1
0
CIRCLE
5
149
100
AcDbEntity
8
0
100
AcDbCircle
10
15.28084477545586
20
18.362696585466413
30
0
40
1.5000000000000013
210
0
220
0
230
1
0
LWPOLYLINE
5
150
100
AcDbEntity
8
0
100
AcDbPolyline
90
72
70
1
43
0.0
10
43.848564081625028
20
83.948564081625051
42
-0.41421356237309509
10
45.848564081625021
20
81.948564081625065
10
45.848564081625028
20
81.749999999999986
42
0.1349697175487454
10
47.380941817802608
20
76.176665821876867
10
45.941659993697712
20
74.737383997772014
42
0.10531490996721794
10
49.737383997771857
20
70.94165999369784
10
51.176665821876746
20
72.380941817802707
42
0.13496971754874698
10
56.749999999999936
20
70.848564081625113
10
56.948564081625072
20
70.848564081625099
42
-0.4142135623730937
10
58.948564081625072
20
68.848564081625113
10
58.948564081625079
20
-68.848564081625071
42
-0.41421356237309509
10
56.948564081625086
20
-70.848564081625071
10
56.749999999999964
20
-70.848564081625071
42
0.13496971754874762
10
51.176665821876739
20
-72.380941817802665
10
49.737383997771857
20
-70.941659993697812
42
0.10531490996721841
10
45.941659993697705
20
-74.737383997772014
10
47.380941817802608
20
-76.176665821876867
42
0.13496971754874534
10
45.848564081625049
20
-81.749999999999986
10
45.848564081625049
20
-81.948564081625079
42
-0.41421356237309509
10
43.848564081625057
20
-83.948564081625079
10
42.541092739990454
20
-83.948564081625079
42
-0.41421356237309509
10
40.541092739990461
20
-81.948564081625079
10
40.541092739990461
20
-75.948564081625037
42
0.41421356237309176
10
38.541092739990461
20
-73.948564081625037
10
9.5410927399904644
20
-73.948564081625037
42
0.41421356237309337
10
7.5410927399904555
20
-75.948564081625022
10
7.5410927399904537
20
-81.948564081625079
42
-0.4142135623730952
10
5.5410927399904608
20
-83.948564081625079
10
-5.5410927399904963
20
-83.948564081625079
42
-0.41421356237309509
10
-7.5410927399904972
20
-81.948564081625079
10
-7.5410927399904981
20
-75.948564081625037
42
0.41421356237309409
10
-9.5410927399904999
20
-73.948564081625037
10
-38.541092739990496
20
-73.948564081625022
42
0.41421356237309243
10
-40.541092739990496
20
-75.948564081625022
10
-40.541092739990489
20
-81.948564081625079
42
-0.41421356237309509
10
-42.541092739990496
20
-83.948564081625094
10
-43.848564081625057
20
-83.948564081625079
42
-0.41421356237309509
10
-45.848564081625049
20
-81.948564081625079
10
-45.848564081625049
20
-81.75
42
0.13496971754874473
10
-47.380941817802587
20
-76.176665821876895
10
-45.941659993697698
20
-74.737383997772056
42
0.10531490996721884
10
-49.737383997771843
20
-70.94165999369784
10
-51.176665821876725
20
-72.380941817802707
42
0.13496971754874781
10
-56.749999999999936
20
-70.848564081625071
10
-56.948564081625072
20
-70.848564081625085
42
-0.41421356237309243
10
-58.948564081625065
20
-68.848564081625085
10
-58.948564081625072
20
68.848564081625085
42
-0.41421356237309509
10
-56.948564081625079
20
70.848564081625085
10
-56.749999999999936
20
70.848564081625085
42
0.13496971754874704
10
-51.176665821876739
20
72.380941817802693
10
-49.737383997771865
20
70.94165999369784
42
0.10531490996721794
10
-45.941659993697726
20
74.737383997772
10
-47.380941817802622
20
76.176665821876867
42
0.13496971754874557
10
-45.848564081625049
20
81.749999999999986
10
-45.848564081625057
20
81.948564081625065
42
-0.41421356237309509
10
-43.848564081625049
20
83.948564081625079
10
-42.541092739990496
20
83.948564081625037
42
-0.41421356237309509
10
-40.541092739990503
20
81.948564081625051
10
-40.541092739990496
20
75.948564081625022
42
0.41421356237309243
10
-38.541092739990496
20
73.948564081625022
10
-9.5410927399904963
20
73.948564081625037
42
0.41421356237309276
10
-7.541092739990491
20
75.948564081625022
10
-7.5410927399904937
20
81.948564081625065
42
-0.41421356237309437
10
-5.5410927399905052
20
83.948564081625051
10
5.5410927399904697
20
83.948564081625051
42
-0.41421356237309437
10
7.5410927399904644
20
81.948564081625065
10
7.5410927399904626
20
75.948564081625037
42
0.41421356237309409
10
9.5410927399904644
20
73.948564081625037
10
38.541092739990461
20
73.948564081625037
42
0.41421356237309243
10
40.541092739990461
20
75.948564081625022
10
40.541092739990454
20
81.948564081625065
42
-0.41421356237309509
10
42.541092739990461
20
83.948564081625079
0
CIRCLE
5
151
100
AcDbEntity
8
0
100
AcDbCircle
10
-1.7144488953513282e-14
20
69.999999999999986
30
0
40
2.0000000000000018
210
0
220
0
230
1
0
CIRCLE
5
152
100
AcDbEntity
8
0
100
AcDbCircle
10
0
20
-69.999999999999986
30
0
40
2.0000000000000018
210
0
220
0
230
1
0
CIRCLE
5
153
100
AcDbEntity
8
0
100
AcDbCircle
10
-45
20
0
30
0
40
2.0000000000000018
210
0
220
0
230
1
0
CIRCLE
5
154
100
AcDbEntity
8
0
100
AcDbCircle
10
45
20
0
30
0
40
2.0000000000000018
210
0
220
0
230
1
0
CIRCLE
5
155
100
AcDbEntity
8
0
100
AcDbCircle
10
-40.791068281716591
20
23.68964712103843
30
0
40
2.1509999999999962
210
0
220
0
230
1
0
CIRCLE
5
156
100
AcDbEntity
8
0
100
AcDbCircle
10
-20.517741888266343
20
43.962973514488667
30
0
40
2.150999999999994
210
0
220
0
230
1
0
CIRCLE
5
157
100
AcDbEntity
8
0
100
AcDbCircle
10
-20.517741888266343
20
23.68964712103843
30
0
40
2.150999999999994
210
0
220
0
230
1
0
CIRCLE
5
158
100
AcDbEntity
8
0
100
AcDbCircle
10
-40.837741888266279
20
43.962973514488617
30
0
40
2.1509999999999962
210
0
220
0
230
1
0
CIRCLE
5
159
100
AcDbEntity
8
0
100
AcDbCircle
10
37.515534722234847
20
-24.804545509322871
30
0
40
1.4999999999999991
210
0
220
0
230
1
0
CIRCLE
5
160
100
AcDbEntity
8
0
100
AcDbCircle
10
12.515534722234847
20
-44.804545509322871
30
0
40
1.4999999999999991
210
0
220
0
230
1
0
CIRCLE
5
161
100
AcDbEntity
8
0
100
AcDbCircle
10
37.515534722234847
20
-44.804545509322871
30
0
40
1.4999999999999991
210
0
220
0
230
1
0
LWPOLYLINE
5
162
100
AcDbEntity
8
0
100
AcDbPolyline
90
8
70
1
43
0.0
10
-17.837696965469181
20
-37.304545509322871
10
-17.837696965469181
20
-32.304545509322871
42
-0.41421356237309337
10
-15.837696965469181
20
-30.304545509322871
10
38.964540174200984
20
-30.304545509322875
42
-0.41421356237309176
10
40.964540174200991
20
-32.304545509322871
10
40.964540174200998
20
-37.304545509322878
42
-0.41421356237309176
10
38.964540174200984
20
-39.304545509322885
10
-15.837696965469181
20
-39.304545509322878
42
-0.41421356237309337
0
CIRCLE
5
163
100
AcDbEntity
8
0
100
AcDbCircle
10
29.182201388901518
20
-24.804545509322871
30
0
40
1.4999999999999991
210
0
220
0
230
1
0
CIRCLE
5
164
100
AcDbEntity
8
0
100
AcDbCircle
10
12.515534722234847
20
-24.804545509322871
30
0
40
1.4999999999999991
210
0
220
0
230
1
0
CIRCLE
5
165
100
AcDbEntity
8
0
100
AcDbCircle
10
29.182201388901518
20
-44.804545509322871
30
0
40
1.4999999999999991
210
0
220
0
230
1
0
CIRCLE
5
166
100
AcDbEntity
8
0
100
AcDbCircle
10
20.848868055568182
20
-44.804545509322871
30
0
40
1.4999999999999991
210
0
220
0
230
1
0
CIRCLE
5
167
100
AcDbEntity
8
0
100
AcDbCircle
10
20.848868055568182
20
-24.804545509322871
30
0
40
1.4999999999999991
210
0
220
0
230
1
0
ENDSEC
0
SECTION
2
OBJECTS
0
DICTIONARY
5
C
100
AcDbDictionary
3
ACAD_GROUP
350
D
3
ACAD_MLINESTYLE
350
17
0
DICTIONARY
5
D
100
AcDbDictionary
0
DICTIONARY
5
1A
330
C
100
AcDbDictionary
0
DICTIONARY
5
17
100
AcDbDictionary
0
ENDSEC
0
EOF
