0
SECTION
2
HEADER
9
$INSUNITS
70
4
9
$ACADVER
1
AC1014
9
$HANDSEED
5
FFFF
0
ENDSEC
0
SECTION
2
TABLES
0
TABLE
2
VPORT
5
8
100
AcDbSymbolTable
0
ENDTAB
0
TABLE
2
LTYPE
5
5
100
AcDbSymbolTable
0
LTYPE
5
14
100
AcDbSymbolTableRecord
100
AcDbLinetypeTableRecord
2
BYBLOCK
70
0
0
LTYPE
5
15
100
AcDbSymbolTableRecord
100
AcDbLinetypeTableRecord
2
BYLAYER
70
0
0
ENDTAB
0
TABLE
2
LAYER
5
2
100
AcDbSymbolTable
70
2
0
LAYER
5
50
100
AcDbSymbolTableRecord
100
AcDbLayerTableRecord
2
0
70
0
6
CONTINUOUS
0
ENDTAB
0
TABLE
2
STYLE
5
3
100
AcDbSymbolTable
70
1
0
STYLE
5
11
100
AcDbSymbolTableRecord
100
AcDbTextStyleTableRecord
2
STANDARD
70
0
0
ENDTAB
0
TABLE
2
VIEW
5
6
100
AcDbSymbolTable
70
0
0
ENDTAB
0
TABLE
2
UCS
5
7
100
AcDbSymbolTable
70
0
0
ENDTAB
0
TABLE
2
APPID
5
9
100
AcDbSymbolTable
70
2
0
APPID
5
12
100
AcDbSymbolTableRecord
100
AcDbRegAppTableRecord
2
ACAD
70
0
0
ENDTAB
0
TABLE
2
DIMSTYLE
5
A
100
AcDbSymbolTable
70
1
0
ENDTAB
0
TABLE
2
BLOCK_RECORD
5
1
100
AcDbSymbolTable
70
1
0
BLOCK_RECORD
5
1F
100
AcDbSymbolTableRecord
100
AcDbBlockTableRecord
2
*MODEL_SPACE
0
BLOCK_RECORD
5
1B
100
AcDbSymbolTableRecord
100
AcDbBlockTableRecord
2
*PAPER_SPACE
0
ENDTAB
0
ENDSEC
0
SECTION
2
BLOCKS
0
BLOCK
5
20
100
AcDbEntity
100
AcDbBlockBegin
2
*MODEL_SPACE
0
ENDBLK
5
21
100
AcDbEntity
100
AcDbBlockEnd
0
BLOCK
5
1C
100
AcDbEntity
100
AcDbBlockBegin
2
*PAPER_SPACE
0
ENDBLK
5
1D
100
AcDbEntity
100
AcDbBlockEnd
0
ENDSEC
0
SECTION
2
ENTITIES
0
CIRCLE
5
100
100
AcDbEntity
8
0
100
AcDbCircle
10
49.247535849256977
20
59.988815728127733
30
0
40
1.999999999999984
210
0
220
-0
230
1
0
CIRCLE
5
101
100
AcDbEntity
8
0
100
AcDbCircle
10
-52.948564081625058
20
-15.948564081625051
30
0
40
2.0000000000000018
210
0
220
-0
230
1
0
LWPOLYLINE
5
102
100
AcDbEntity
8
0
100
AcDbPolyline
90
75
70
1
43
0.0
10
-7.0410927399904031
20
-81.857585432302344
42
-0.41421356237309409
10
-6.0410927399904102
20
-80.857585432302344
10
-5.5377556947001292
20
-80.857585432302358
42
-0.13132595943346695
10
-5.0388680431302486
20
-80.990918765635698
42
1.7294857518113711
10
-5.0388680431301767
20
-77.524252098969058
42
-0.1313259594334717
10
-5.5377556947000217
20
-77.657585432302369
10
-6.0410927399904129
20
-77.657585432302369
42
-0.41421356237309537
10
-7.041092739990412
20
-76.657585432302383
10
-7.0410927399904431
20
-23.94856408162509
42
0.4142135623730957
10
-9.0410927399904431
20
-21.948564081625079
10
-38.541092739990567
20
-21.948564081625076
42
0.4142135623730957
10
-40.541092739990575
20
-23.948564081625079
10
-40.541092739990489
20
-81.948564081625079
42
-0.41421356237309243
10
-42.541092739990496
20
-83.948564081625079
10
-43.848564081625057
20
-83.948564081625079
42
-0.41421356237309509
10
-45.848564081625042
20
-81.948564081625079
10
-45.848564081625049
20
-81.749999999999986
42
0.13496971754874509
10
-47.380941817802544
20
-76.176665821876838
10
-45.941659993697698
20
-74.737383997772056
42
0.10531490996721897
10
-49.737383997771822
20
-70.941659993697812
10
-51.176665821876732
20
-72.380941817802707
42
0.13496971754874768
10
-56.749999999999929
20
-70.848564081625085
10
-56.948564081625072
20
-70.848564081625099
42
-0.41421356237308854
10
-58.948564081625065
20
-68.848564081625085
10
-58.948564081625072
20
68.848564081625085
42
-0.4142135623730937
10
-56.948564081625072
20
70.848564081625085
10
-56.749999999999936
20
70.848564081625085
42
0.13496971754874709
10
-51.176665821876767
20
72.380941817802693
10
-49.737383997771857
20
70.94165999369784
42
0.10531490996721828
10
-45.941659993697741
20
74.737383997772
10
-47.380941817802622
20
76.176665821876867
42
0.13496971754874654
10
-45.848564081625057
20
81.749999999999986
10
-45.848564081625042
20
81.948564081625065
42
-0.41421356237309243
10
-43.848564081625049
20
83.948564081625037
10
-42.541092739990496
20
83.948564081625037
42
-0.41421356237309243
10
-40.541092739990489
20
81.948564081625051
10
-40.541092739990496
20
75.948564081625022
42
0.41421356237309243
10
-38.541092739990496
20
73.948564081625022
10
-9.0410927399904981
20
73.948564081625022
42
0.41421356237309509
10
-7.0410927399904963
20
75.948564081625022
10
-7.041092739990499
20
76.657585432302398
42
-0.4142135623730947
10
-6.0410927399905034
20
77.657585432302398
10
-5.5377556947000661
20
77.657585432302398
42
-0.13132595943350489
10
-5.0388680431302149
20
77.524252098969072
42
1.7294857518113727
10
-5.0388680431302557
20
80.990918765635712
42
-0.13132595943347009
10
-5.5377556947001292
20
80.857585432302386
10
-6.041092739990499
20
80.857585432302386
42
-0.41421356237309409
10
-7.0410927399904999
20
81.857585432302372
10
-7.0410927399905106
20
81.948564081625065
42
-0.41421356237309076
10
-5.0410927399905292
20
83.948564081625037
10
5.5410927399904697
20
83.948564081625051
42
-0.41421356237309537
10
7.5410927399904626
20
81.948564081625065
10
7.5410927399904644
20
75.948564081625037
42
0.41421356237309259
10
9.5410927399904644
20
73.948564081625037
10
36.541092739990461
20
73.948564081625022
42
-0.41421356237309243
10
38.541092739990461
20
71.948564081625022
10
38.541092739990461
20
67.592204147580659
42
0.41421356237309509
10
40.541092739990461
20
65.592204147580659
10
53.448564081625072
20
65.592204147580659
42
-0.41421356237309109
10
55.448564081625079
20
63.592204147580667
10
55.448564081625079
20
-57.380716777610118
42
-0.2170781951740457
10
54.180567260970598
20
-60.163688779957205
42
0.21707819517404658
10
53.492933745101901
20
-61.672891950948056
10
53.492933745101908
20
-66.848564081625057
42
-0.41421356237308982
10
51.492933745101908
20
-68.848564081625057
10
40.541092739990461
20
-68.848564081625042
42
0.41421356237309509
10
38.541092739990461
20
-70.848564081625057
10
38.541092739990468
20
-71.948564081625022
42
-0.41421356237309243
10
36.541092739990461
20
-73.948564081625037
10
9.5410927399904626
20
-73.948564081625022
42
0.41421356237309309
10
7.5410927399904626
20
-75.948564081625022
10
7.5410927399904555
20
-81.948564081625079
42
-0.41421356237309537
10
5.5410927399904608
20
-83.948564081625079
10
-5.0410927399904093
20
-83.948564081625079
42
-0.41421356237309537
10
-7.0410927399904102
20
-81.948564081625079
0
CIRCLE
5
103
100
AcDbEntity
8
0
100
AcDbCircle
10
-55.120740788819241
20
13.575868411853943
30
0
40
1.3750000000000018
210
0
220
-0
230
1
0
CIRCLE
5
104
100
AcDbEntity
8
0
100
AcDbCircle
10
-55.120740788819248
20
62.575868411853939
30
0
40
1.3750000000000107
210
0
220
-0
230
1
0
LWPOLYLINE
5
105
100
AcDbEntity
8
0
100
AcDbPolyline
90
16
70
1
43
0.0
10
2.3792592111809618
20
1.3713591404911085
10
-18.497891927281252
20
1.3713591404911085
42
0.41421356237309509
10
-18.997891927281252
20
0.87135914049110852
10
-18.997891927281252
20
-0.055488343209199389
42
-0.41421356237309109
10
-19.497891927281252
20
-0.5554883432091996
10
-54.620740788819248
20
-0.5554883432091996
42
0.4142135623730952
10
-55.120740788819241
20
-1.0554883432091999
10
-55.120740788819241
20
-4.2017933758085837
42
0.41421356237309509
10
-54.620740788819248
20
-4.7017933758085837
10
-19.497891927281252
20
-4.7017933758085864
42
-0.41421356237309437
10
-18.997891927281252
20
-5.2017933758085828
10
-18.997891927281252
20
-6.1286408595088915
42
0.4142135623730937
10
-18.497891927281252
20
-6.6286408595088915
10
2.3792592111809618
20
-6.6286408595088915
42
0.41421356237309437
10
2.8792592111809601
20
-6.1286408595088915
10
2.8792592111809601
20
0.87135914049110796
42
0.41421356237309415
0
CIRCLE
5
106
100
AcDbEntity
8
0
100
AcDbCircle
10
0.17365644637795441
20
-64.252958398111559
30
0
40
1.3799999999999546
210
0
220
-0
230
1
0
LWPOLYLINE
5
107
100
AcDbEntity
8
0
100
AcDbPolyline
90
2
70
1
43
0.0
10
-1.2063435536216363
20
-14.513102444406085
42
-0.41400444842883782
10
0.17365644659923854
20
-13.133102444421462
42
-2.4142135621188907
0
LWPOLYLINE
5
108
100
AcDbEntity
8
0
100
AcDbPolyline
90
2
70
1
43
0.0
10
31.068919920616423
20
-63.131131287792968
42
-1.1781896009078188
10
29.143411322136096
20
-65.056639886481534
42
-0.84833123846229785
0
CIRCLE
5
109
100
AcDbEntity
8
0
100
AcDbCircle
10
52.624251991407753
20
-20.597104444423277
30
0
40
1.3800000000000168
210
0
220
-0
230
1
0
LWPOLYLINE
5
110
100
AcDbEntity
8
0
100
AcDbPolyline
90
18
70
1
43
0.0
10
26.207660182548373
20
-6.2007344124212738
42
-0.41421356237309409
10
27.207660182548373
20
-5.2007344124212738
10
45.180844775455959
20
-5.2007344124212738
42
0.41421356237309509
10
47.180844775455959
20
-3.2007344124212733
10
47.180844775455959
20
12.599884771777747
42
-0.31943172447443791
10
48.525107070537899
20
14.489331268069394
42
0.31943172447444251
10
51.280844775455861
20
18.362696585467386
10
51.280844775455002
20
50.262696585467381
42
0.4142135623730957
10
47.180844775454887
20
54.362696585467276
10
15.280844775454883
20
54.362696585466416
42
0.4142135623730957
10
11.180844775455004
20
50.262696585466308
10
11.180844775455864
20
18.362696585466292
42
0.31943172447443613
10
13.936582480373961
20
14.48933126806849
42
-0.31943172447444501
10
15.280844775455957
20
12.599884771776818
10
15.280844775455957
20
-8.706981815776242
42
0.41421356237309509
10
16.280844775455957
20
-9.706981815776242
10
25.207660182548373
20
-9.7069818157762402
42
0.41421356237309509
10
26.207660182548373
20
-8.7069818157762402
0
CIRCLE
5
111
100
AcDbEntity
8
0
100
AcDbCircle
10
2.8792592111809512
20
62.575868411853939
30
0
40
1.3750000000000062
210
0
220
-0
230
1
0
CIRCLE
5
112
100
AcDbEntity
8
0
100
AcDbCircle
10
2.8792592111809601
20
13.575868411853937
30
0
40
1.3750000000000089
210
0
220
-0
230
1
0
LWPOLYLINE
5
113
100
AcDbEntity
8
0
100
AcDbPolyline
90
8
70
1
43
0.0
10
-0.49074078881908179
20
65.575868411853961
10
-51.750740788819257
20
65.575868411853961
42
0.41421356237309509
10
-52.25074078881925
20
65.075868411853975
10
-52.250740788819243
20
60.075868411853961
42
0.41421356237309509
10
-51.750740788819243
20
59.575868411853961
10
-0.4907407888190729
20
59.575868411853968
42
0.41421356237309476
10
0.0092592111809270596
20
60.075868411853968
10
0.0092592111809174094
20
65.075868411853975
42
0.41421356237309448
0
ENDSEC
0
SECTION
2
OBJECTS
0
DICTIONARY
5
C
100
AcDbDictionary
3
ACAD_GROUP
350
D
3
ACAD_MLINESTYLE
350
17
0
DICTIONARY
5
D
100
AcDbDictionary
0
DICTIONARY
5
1A
330
C
100
AcDbDictionary
0
DICTIONARY
5
17
100
AcDbDictionary
0
ENDSEC
0
EOF
