0
SECTION
2
HEADER
9
$INSUNITS
70
4
9
$ACADVER
1
AC1014
9
$HANDSEED
5
FFFF
0
ENDSEC
0
SECTION
2
TABLES
0
TABLE
2
VPORT
5
8
100
AcDbSymbolTable
0
ENDTAB
0
TABLE
2
LTYPE
5
5
100
AcDbSymbolTable
0
LTYPE
5
14
100
AcDbSymbolTableRecord
100
AcDbLinetypeTableRecord
2
BYBLOCK
70
0
0
LTYPE
5
15
100
AcDbSymbolTableRecord
100
AcDbLinetypeTableRecord
2
BYLAYER
70
0
0
ENDTAB
0
TABLE
2
LAYER
5
2
100
AcDbSymbolTable
70
2
0
LAYER
5
50
100
AcDbSymbolTableRecord
100
AcDbLayerTableRecord
2
0
70
0
6
CONTINUOUS
0
ENDTAB
0
TABLE
2
STYLE
5
3
100
AcDbSymbolTable
70
1
0
STYLE
5
11
100
AcDbSymbolTableRecord
100
AcDbTextStyleTableRecord
2
STANDARD
70
0
0
ENDTAB
0
TABLE
2
VIEW
5
6
100
AcDbSymbolTable
70
0
0
ENDTAB
0
TABLE
2
UCS
5
7
100
AcDbSymbolTable
70
0
0
ENDTAB
0
TABLE
2
APPID
5
9
100
AcDbSymbolTable
70
2
0
APPID
5
12
100
AcDbSymbolTableRecord
100
AcDbRegAppTableRecord
2
ACAD
70
0
0
ENDTAB
0
TABLE
2
DIMSTYLE
5
A
100
AcDbSymbolTable
70
1
0
ENDTAB
0
TABLE
2
BLOCK_RECORD
5
1
100
AcDbSymbolTable
70
1
0
BLOCK_RECORD
5
1F
100
AcDbSymbolTableRecord
100
AcDbBlockTableRecord
2
*MODEL_SPACE
0
BLOCK_RECORD
5
1B
100
AcDbSymbolTableRecord
100
AcDbBlockTableRecord
2
*PAPER_SPACE
0
ENDTAB
0
ENDSEC
0
SECTION
2
BLOCKS
0
BLOCK
5
20
100
AcDbEntity
100
AcDbBlockBegin
2
*MODEL_SPACE
0
ENDBLK
5
21
100
AcDbEntity
100
AcDbBlockEnd
0
BLOCK
5
1C
100
AcDbEntity
100
AcDbBlockBegin
2
*PAPER_SPACE
0
ENDBLK
5
1D
100
AcDbEntity
100
AcDbBlockEnd
0
ENDSEC
0
SECTION
2
ENTITIES
0
CIRCLE
5
100
100
AcDbEntity
8
0
100
AcDbCircle
10
61.097722362222143
20
-119.20569980239291
30
0
40
3.6000000000000068
210
-4.3193048818990222e-30
220
-2.3704856326137826e-44
230
1
0
CIRCLE
5
101
100
AcDbEntity
8
0
100
AcDbCircle
10
61.097722362222143
20
-119.20569980239291
30
0
40
1.6000000000000054
210
-4.3193048818990138e-30
220
-1.5777218104420474e-30
230
1
0
CIRCLE
5
102
100
AcDbEntity
8
0
100
AcDbCircle
10
61.097722362222143
20
-119.20569980239291
30
0
40
1.7500000000000002
210
0
220
0
230
1
0
CIRCLE
5
103
100
AcDbEntity
8
0
100
AcDbCircle
10
61.097722362222143
20
-119.20569980239291
30
0
40
4.25
210
0
220
0
230
1
0
LWPOLYLINE
5
104
100
AcDbEntity
8
0
100
AcDbPolyline
90
8
70
1
43
0.0
10
53.663977422494384
20
-108.56494303811159
10
53.663977422494384
20
-113.92536708821768
42
-0.41421356237309509
10
52.663977422494419
20
-114.92536708821766
10
50.163977422494419
20
-114.92536708821763
42
-0.41421356237309509
10
49.163977422494376
20
-113.9253670882176
10
49.163977422494376
20
-108.56494303811152
42
-0.41421356237309509
10
50.163977422494355
20
-107.56494303811154
10
52.663977422494327
20
-107.56494303811154
42
-0.41421356237309509
0
LINE
5
105
100
AcDbEntity
8
0
100
AcDbLine
10
47.347722362222143
20
-105.96068383026702
30
0
11
47.347722362222143
21
-78.105699802392948
31
0
0
LINE
5
106
100
AcDbEntity
8
0
100
AcDbLine
10
49.347722362222157
20
-76.105699802392934
30
8.6333687933957617e-45
11
54.997722362221921
21
-76.105699802392934
31
3.5557284489208168e-44
0
LINE
5
107
100
AcDbEntity
8
0
100
AcDbLine
10
56.497722362221985
20
-77.605699802392991
30
6.4789573228487926e-30
11
56.497722362221985
21
-86.061226542966608
31
0
0
LINE
5
108
100
AcDbEntity
8
0
100
AcDbLine
10
63.497722362221992
20
-93.061226542966608
30
0
11
64.347722362222143
21
-93.061226542966608
31
0
0
LINE
5
109
100
AcDbEntity
8
0
100
AcDbLine
10
65.347722362222143
20
-94.061226542966608
30
0
11
65.347722362222143
21
-119.20569980239291
31
0
0
LINE
5
110
100
AcDbEntity
8
0
100
AcDbLine
10
47.347722362222171
20
-121.45569980239296
30
0
11
47.347722362222157
21
-114.95586739078743
31
0
0
LINE
5
111
100
AcDbEntity
8
0
100
AcDbLine
10
47.347722362222143
20
-105.96068383026702
30
0
11
47.347722362222157
21
-114.95586739078743
31
0
0
CIRCLE
5
112
100
AcDbEntity
8
0
100
AcDbCircle
10
54.997722362221921
20
-77.605699802392991
30
0
40
1.5000000000000622
210
-4.3193048818990166e-30
220
-2.3704856326137796e-44
230
1
0
ARC
5
113
100
AcDbEntity
8
0
100
AcDbCircle
10
63.497722362222007
20
-86.06122654296658
30
0
40
7.0000000000000195
210
0
220
0
230
1
100
AcDbArc
50
180
51
269.99999999999989
0
ARC
5
114
100
AcDbEntity
8
0
100
AcDbCircle
10
64.347722362222143
20
-94.061226542966608
30
0
40
0.99999999999999645
210
0
220
-0
230
1
100
AcDbArc
50
0
51
90
0
ARC
5
115
100
AcDbEntity
8
0
100
AcDbCircle
10
49.347722362222157
20
-78.105699802392948
30
8.6333687933958439e-45
40
2.0000000000000107
210
-4.3166843966978989e-45
220
4.0449599306097209e-59
230
1
100
AcDbArc
50
90
51
180
0
ARC
5
116
100
AcDbEntity
8
0
100
AcDbCircle
10
61.097722362222143
20
-119.20569980239291
30
0
40
4.2500000000000071
210
-0
220
0
230
1
100
AcDbArc
50
-90
51
0
0
CIRCLE
5
117
100
AcDbEntity
8
0
100
AcDbCircle
10
51.663977422494007
20
-119.12071066373909
30
0
40
1.4999999999999996
210
-9.0264694119538115e-32
220
4.8102692026683961e-46
230
1
0
CIRCLE
5
118
100
AcDbEntity
8
0
100
AcDbCircle
10
51.663977422494007
20
-119.12071066373909
30
0
40
1.3500000000000001
210
0
220
0
230
1
0
CIRCLE
5
119
100
AcDbEntity
8
0
100
AcDbCircle
10
51.663977422494007
20
-94.120710663739089
30
0
40
1.3500000000000001
210
0
220
0
230
1
0
LINE
5
120
100
AcDbEntity
8
0
100
AcDbLine
10
51.663977422494007
20
-119.12071066373909
30
0
11
51.663977422494007
21
-94.120710663739089
31
0
0
LINE
5
121
100
AcDbEntity
8
0
100
AcDbLine
10
55.663977422494384
20
-114.92536708821761
30
-4.4408920985006262e-15
11
55.663977422494419
21
-107.56494303811154
31
-4.4408920985006262e-15
0
LINE
5
122
100
AcDbEntity
8
0
100
AcDbLine
10
52.54905598874263
20
-131.59307315486382
30
0
11
55.699987178062997
21
-131.59307315486382
31
0
0
LINE
5
123
100
AcDbEntity
8
0
100
AcDbLine
10
56.699987178062997
20
-130.59307315486382
30
0
11
56.699987178062997
21
-126.4556998023929
31
0
0
LINE
5
124
100
AcDbEntity
8
0
100
AcDbLine
10
61.097722362222143
20
-123.45569980239291
30
0
11
59.699987178062983
21
-123.4556998023929
31
0
0
ARC
5
125
100
AcDbEntity
8
0
100
AcDbCircle
10
55.699987178062997
20
-130.59307315486382
30
0
40
0.99999999999999645
210
0
220
0
230
1
100
AcDbArc
50
-90
51
0
0
ARC
5
126
100
AcDbEntity
8
0
100
AcDbCircle
10
59.699987178062976
20
-126.45569980239289
30
0
40
2.9999999999999893
210
0
220
-0
230
1
100
AcDbArc
50
89.999999999999858
51
180
0
LINE
5
127
100
AcDbEntity
8
0
100
AcDbLine
10
47.347722362222171
20
-121.45569980239296
30
0
11
47.347722362222257
21
-130.59307315486382
31
0
0
LINE
5
128
100
AcDbEntity
8
0
100
AcDbLine
10
48.34772236222225
20
-131.59307315486382
30
0
11
52.54905598874263
21
-131.59307315486382
31
0
0
ARC
5
129
100
AcDbEntity
8
0
100
AcDbCircle
10
48.347722362222257
20
-130.59307315486379
30
0
40
1.0000000000000053
210
0
220
0
230
1
100
AcDbArc
50
180
51
269.9999999999996
0
ENDSEC
0
SECTION
2
OBJECTS
0
DICTIONARY
5
C
100
AcDbDictionary
3
ACAD_GROUP
350
D
3
ACAD_MLINESTYLE
350
17
0
DICTIONARY
5
D
100
AcDbDictionary
0
DICTIONARY
5
1A
330
C
100
AcDbDictionary
0
DICTIONARY
5
17
100
AcDbDictionary
0
ENDSEC
0
EOF
