0
SECTION
2
HEADER
9
$INSUNITS
70
4
9
$ACADVER
1
AC1014
9
$HANDSEED
5
FFFF
0
ENDSEC
0
SECTION
2
TABLES
0
TABLE
2
VPORT
5
8
100
AcDbSymbolTable
0
ENDTAB
0
TABLE
2
LTYPE
5
5
100
AcDbSymbolTable
0
LTYPE
5
14
100
AcDbSymbolTableRecord
100
AcDbLinetypeTableRecord
2
BYBLOCK
70
0
0
LTYPE
5
15
100
AcDbSymbolTableRecord
100
AcDbLinetypeTableRecord
2
BYLAYER
70
0
0
ENDTAB
0
TABLE
2
LAYER
5
2
100
AcDbSymbolTable
70
2
0
LAYER
5
50
100
AcDbSymbolTableRecord
100
AcDbLayerTableRecord
2
0
70
0
6
CONTINUOUS
0
ENDTAB
0
TABLE
2
STYLE
5
3
100
AcDbSymbolTable
70
1
0
STYLE
5
11
100
AcDbSymbolTableRecord
100
AcDbTextStyleTableRecord
2
STANDARD
70
0
0
ENDTAB
0
TABLE
2
VIEW
5
6
100
AcDbSymbolTable
70
0
0
ENDTAB
0
TABLE
2
UCS
5
7
100
AcDbSymbolTable
70
0
0
ENDTAB
0
TABLE
2
APPID
5
9
100
AcDbSymbolTable
70
2
0
APPID
5
12
100
AcDbSymbolTableRecord
100
AcDbRegAppTableRecord
2
ACAD
70
0
0
ENDTAB
0
TABLE
2
DIMSTYLE
5
A
100
AcDbSymbolTable
70
1
0
ENDTAB
0
TABLE
2
BLOCK_RECORD
5
1
100
AcDbSymbolTable
70
1
0
BLOCK_RECORD
5
1F
100
AcDbSymbolTableRecord
100
AcDbBlockTableRecord
2
*MODEL_SPACE
0
BLOCK_RECORD
5
1B
100
AcDbSymbolTableRecord
100
AcDbBlockTableRecord
2
*PAPER_SPACE
0
ENDTAB
0
ENDSEC
0
SECTION
2
BLOCKS
0
BLOCK
5
20
100
AcDbEntity
100
AcDbBlockBegin
2
*MODEL_SPACE
0
ENDBLK
5
21
100
AcDbEntity
100
AcDbBlockEnd
0
BLOCK
5
1C
100
AcDbEntity
100
AcDbBlockBegin
2
*PAPER_SPACE
0
ENDBLK
5
1D
100
AcDbEntity
100
AcDbBlockEnd
0
ENDSEC
0
SECTION
2
ENTITIES
0
LWPOLYLINE
5
100
100
AcDbEntity
8
0
100
AcDbPolyline
90
20
70
1
43
0.0
10
47.347722362222157
20
-114.95586739078745
10
47.347722362222186
20
-121.45569980239296
10
47.347722362222264
20
-130.59307315486379
42
0.41421356237308982
10
48.34772236222225
20
-131.59307315486382
10
52.54905598874263
20
-131.59307315486382
10
55.699987178063004
20
-131.59307315486382
42
0.41421356237309509
10
56.699987178063004
20
-130.59307315486382
10
56.699987178062997
20
-126.45569980239289
42
-0.41421356237309509
10
59.699987178062983
20
-123.4556998023929
10
61.097722362222136
20
-123.45569980239293
42
0.41421356237309509
10
65.347722362222143
20
-119.20569980239293
10
65.347722362222143
20
-94.061226542966594
42
0.41421356237309509
10
64.347722362222143
20
-93.061226542966594
10
63.497722362222
20
-93.061226542966608
42
-0.41421356237309392
10
56.497722362221992
20
-86.061226542966608
10
56.497722362221992
20
-77.605699802392991
42
0.41421356237309509
10
54.997722362221921
20
-76.105699802392934
10
49.347722362222157
20
-76.105699802392934
42
0.41421356237309509
10
47.347722362222136
20
-78.105699802392948
10
47.347722362222136
20
-105.96068383026703
0
LWPOLYLINE
5
101
100
AcDbEntity
8
0
100
AcDbPolyline
90
8
70
1
43
0.0
10
52.163977422494384
20
-107.56494303811159
42
0.41421356237308726
10
51.163977422494405
20
-108.56494303811159
10
51.163977422494391
20
-113.92536708821766
42
0.41421356237309509
10
52.163977422494384
20
-114.92536708821768
10
54.663977422494384
20
-114.92536708821766
42
0.41421356237311063
10
55.663977422494362
20
-113.92536708821766
10
55.663977422494348
20
-108.56494303811161
42
0.414213562373069
10
54.663977422494348
20
-107.56494303811159
0
CIRCLE
5
102
100
AcDbEntity
8
0
100
AcDbCircle
10
53.663977422494028
20
-119.12071066373913
30
0
40
1.3500000000000001
210
0
220
0
230
1
0
CIRCLE
5
103
100
AcDbEntity
8
0
100
AcDbCircle
10
53.663977422494028
20
-94.120710663739146
30
0
40
1.3500000000000001
210
0
220
0
230
1
0
CIRCLE
5
104
100
AcDbEntity
8
0
100
AcDbCircle
10
61.097722362222136
20
-119.20569980239293
30
0
40
1.7500000000000002
210
0
220
0
230
1
0
ARC
5
105
100
AcDbEntity
8
0
100
AcDbCircle
10
61.097722362222136
20
-119.20569980239293
30
0
40
4.2500000000000071
210
0
220
0
230
1
100
AcDbArc
50
-90
51
0
0
ENDSEC
0
SECTION
2
OBJECTS
0
DICTIONARY
5
C
100
AcDbDictionary
3
ACAD_GROUP
350
D
3
ACAD_MLINESTYLE
350
17
0
DICTIONARY
5
D
100
AcDbDictionary
0
DICTIONARY
5
1A
330
C
100
AcDbDictionary
0
DICTIONARY
5
17
100
AcDbDictionary
0
ENDSEC
0
EOF
