0
SECTION
2
HEADER
9
$INSUNITS
70
4
9
$ACADVER
1
AC1014
9
$HANDSEED
5
FFFF
0
ENDSEC
0
SECTION
2
TABLES
0
TABLE
2
VPORT
5
8
100
AcDbSymbolTable
0
ENDTAB
0
TABLE
2
LTYPE
5
5
100
AcDbSymbolTable
0
LTYPE
5
14
100
AcDbSymbolTableRecord
100
AcDbLinetypeTableRecord
2
BYBLOCK
70
0
0
LTYPE
5
15
100
AcDbSymbolTableRecord
100
AcDbLinetypeTableRecord
2
BYLAYER
70
0
0
ENDTAB
0
TABLE
2
LAYER
5
2
100
AcDbSymbolTable
70
2
0
LAYER
5
50
100
AcDbSymbolTableRecord
100
AcDbLayerTableRecord
2
0
70
0
6
CONTINUOUS
0
ENDTAB
0
TABLE
2
STYLE
5
3
100
AcDbSymbolTable
70
1
0
STYLE
5
11
100
AcDbSymbolTableRecord
100
AcDbTextStyleTableRecord
2
STANDARD
70
0
0
ENDTAB
0
TABLE
2
VIEW
5
6
100
AcDbSymbolTable
70
0
0
ENDTAB
0
TABLE
2
UCS
5
7
100
AcDbSymbolTable
70
0
0
ENDTAB
0
TABLE
2
APPID
5
9
100
AcDbSymbolTable
70
2
0
APPID
5
12
100
AcDbSymbolTableRecord
100
AcDbRegAppTableRecord
2
ACAD
70
0
0
ENDTAB
0
TABLE
2
DIMSTYLE
5
A
100
AcDbSymbolTable
70
1
0
ENDTAB
0
TABLE
2
BLOCK_RECORD
5
1
100
AcDbSymbolTable
70
1
0
BLOCK_RECORD
5
1F
100
AcDbSymbolTableRecord
100
AcDbBlockTableRecord
2
*MODEL_SPACE
0
BLOCK_RECORD
5
1B
100
AcDbSymbolTableRecord
100
AcDbBlockTableRecord
2
*PAPER_SPACE
0
ENDTAB
0
ENDSEC
0
SECTION
2
BLOCKS
0
BLOCK
5
20
100
AcDbEntity
100
AcDbBlockBegin
2
*MODEL_SPACE
0
ENDBLK
5
21
100
AcDbEntity
100
AcDbBlockEnd
0
BLOCK
5
1C
100
AcDbEntity
100
AcDbBlockBegin
2
*PAPER_SPACE
0
ENDBLK
5
1D
100
AcDbEntity
100
AcDbBlockEnd
0
ENDSEC
0
SECTION
2
ENTITIES
0
LWPOLYLINE
5
100
100
AcDbEntity
8
0
100
AcDbPolyline
90
4
70
1
43
0.0
10
1039.0594093993011
20
58.387822923214031
42
-0.99999999999999989
10
1036.0594093993011
20
58.387822923214046
10
1036.0594093993022
20
96.387822923214088
42
-0.99999999999999989
10
1039.0594093993025
20
96.387822923214017
0
LWPOLYLINE
5
101
100
AcDbEntity
8
0
100
AcDbPolyline
90
4
70
1
43
0.0
10
1142.9794093991318
20
58.387822923212596
42
-0.99999999999999989
10
1139.9794093991516
20
58.387822923212525
10
1139.9794093991316
20
96.387822923212582
42
-0.99999999999999989
10
1142.9794093991516
20
96.387822923212582
0
CIRCLE
5
102
100
AcDbEntity
8
0
100
AcDbCircle
10
1037.5594093992922
20
42.887822923219773
30
0
40
2.5499999999999545
210
0
220
-7.8886090522101181e-31
230
1
0
CIRCLE
5
103
100
AcDbEntity
8
0
100
AcDbCircle
10
1141.4794093991425
20
111.88782292320545
30
-2.2204460492503131e-15
40
2.5499999999999545
210
0
220
-7.8886090522101181e-31
230
1
0
CIRCLE
5
104
100
AcDbEntity
8
0
100
AcDbCircle
10
1141.4794093991432
20
42.887822923219723
30
0
40
2.5499999999999545
210
0
220
-7.8886090522101181e-31
230
1
0
CIRCLE
5
105
100
AcDbEntity
8
0
100
AcDbCircle
10
1115.2030254718602
20
77.387822923212539
30
0
40
2.5499999999999545
210
0
220
-7.8886090522101181e-31
230
1
0
CIRCLE
5
106
100
AcDbEntity
8
0
100
AcDbCircle
10
1062.4496161707461
20
77.387822923212454
30
0
40
2.5499999999999545
210
0
220
-7.8886090522101181e-31
230
1
0
LWPOLYLINE
5
107
100
AcDbEntity
8
0
100
AcDbPolyline
90
8
70
1
43
0.0
10
1079.2038009426872
20
115.88782292320708
42
-0.22620264418084879
10
1076.8728966022315
20
116.99920306848617
42
2.8226455033438915
10
1076.8728966022275
20
94.776442777932232
42
-0.22620264418075764
10
1079.2038009426822
20
95.887822923210493
10
1099.7545062988363
20
95.887822923210493
42
-0.22783702069815778
10
1102.0971072335167
20
94.761914932914067
42
2.8225749376697271
10
1102.2356196555659
20
116.98467522346796
42
-0.22456115026863094
10
1099.9165619087692
20
115.88782292320703
0
CIRCLE
5
108
100
AcDbEntity
8
0
100
AcDbCircle
10
1037.5594093992918
20
111.88782292320511
30
0
40
2.5499999999999545
210
0
220
-7.8886090522101181e-31
230
1
0
LWPOLYLINE
5
109
100
AcDbEntity
8
0
100
AcDbPolyline
90
8
70
1
43
0.0
10
1079.2227401789717
20
58.857371772406978
42
-0.22620264418080105
10
1076.8939481085922
20
59.973171200892423
42
2.8226455033433995
10
1076.8517957560043
20
37.750450887872148
42
-0.2262026441808036
10
1079.1848039801948
20
38.85740775131876
10
1099.8160786192761
20
38.818274074132944
42
-0.22620264418080713
10
1102.1448706896556
20
37.70247464564747
42
2.8226455033433977
10
1102.1870230422433
20
59.925194958667767
42
-0.22620264418080233
10
1099.854014818053
20
58.818238095221169
0
LWPOLYLINE
5
110
100
AcDbEntity
8
0
100
AcDbPolyline
90
20
70
1
43
0.0
10
1143.5194093991638
20
119.38782292308174
10
1146.8175427285521
20
115.45726067885367
42
-0.17632698070608929
10
1147.5194093991647
20
113.52889784984866
10
1147.5194093992159
20
41.24674799656254
42
-0.17632698070453348
10
1146.8175427286023
20
39.318385167538132
10
1143.5194093992159
20
35.387822923264366
10
1143.5194093992159
20
30.387822923212227
42
-0.41421356237309509
10
1140.5194093992159
20
27.387822923212255
10
1038.5194093993423
20
27.387822923212184
42
-0.4142135623730604
10
1035.5194093993423
20
30.387822923212227
10
1035.5194093993423
20
35.387822923264338
10
1032.2212760698624
20
39.318385167526436
42
-0.1763269807085282
10
1031.5194093992193
20
41.246747996586052
10
1031.5194093992193
20
113.52889784983458
42
-0.17632698070853653
10
1032.2212760698624
20
115.45726067889419
10
1035.5194093993455
20
119.38782292316048
10
1035.5194093993455
20
124.38782292321241
42
-0.41421356237306206
10
1038.5194093993455
20
127.38782292321221
10
1140.519409399164
20
127.38782292321245
42
-0.4142135623730604
10
1143.5194093991638
20
124.38782292321241
0
CIRCLE
5
111
100
AcDbEntity
8
0
100
AcDbCircle
10
1047.1594093992187
20
121.88782292321838
30
-2.2204460492503131e-15
40
1.5000000000000568
210
3.9412391827710832e-44
220
3.4037717804882759e-73
230
1
0
CIRCLE
5
112
100
AcDbEntity
8
0
100
AcDbCircle
10
1131.8794093992201
20
121.88782292320992
30
-2.2204460492503131e-15
40
1.5000000000000568
210
3.9412391827710832e-44
220
3.4037717804882759e-73
230
1
0
CIRCLE
5
113
100
AcDbEntity
8
0
100
AcDbCircle
10
1047.1594093990716
20
64.887822923209541
30
0
40
1.5000000000000568
210
3.9412391827710832e-44
220
3.4037717804882759e-73
230
1
0
CIRCLE
5
114
100
AcDbEntity
8
0
100
AcDbCircle
10
1099.8794093991432
20
32.887822923212212
30
0
40
1.5000000000000568
210
-2.5321674671061145e-44
220
1.4050109187792121e-73
230
1
0
CIRCLE
5
115
100
AcDbEntity
8
0
100
AcDbCircle
10
1099.8794093991426
20
64.887822923212227
30
2.2204460492503131e-15
40
1.5000000000000568
210
3.9412391827710832e-44
220
3.4037717804882759e-73
230
1
0
CIRCLE
5
116
100
AcDbEntity
8
0
100
AcDbCircle
10
1079.1594093990718
20
64.887822923208219
30
0
40
1.5000000000000568
210
3.9412391827710832e-44
220
3.4037717804882759e-73
230
1
0
CIRCLE
5
117
100
AcDbEntity
8
0
100
AcDbCircle
10
1099.8794093992176
20
89.88782292321244
30
0
40
1.5000000000000568
210
3.9412391827710832e-44
220
3.4037717804882759e-73
230
1
0
CIRCLE
5
118
100
AcDbEntity
8
0
100
AcDbCircle
10
1079.1594093992189
20
121.88782292321604
30
0
40
1.5000000000000568
210
3.9412391827710832e-44
220
3.4037717804882759e-73
230
1
0
CIRCLE
5
119
100
AcDbEntity
8
0
100
AcDbCircle
10
1047.1594093992164
20
89.887822923218465
30
-2.2204460492503131e-15
40
1.5000000000000568
210
3.9412391827710832e-44
220
3.4037717804882759e-73
230
1
0
CIRCLE
5
120
100
AcDbEntity
8
0
100
AcDbCircle
10
1131.8794093992176
20
89.887822923209995
30
0
40
1.5000000000000568
210
3.9412391827710832e-44
220
3.4037717804882759e-73
230
1
0
CIRCLE
5
121
100
AcDbEntity
8
0
100
AcDbCircle
10
1047.1594093990702
20
32.887822923209534
30
-2.2204460492503131e-15
40
1.5000000000000568
210
-2.5321674671061145e-44
220
1.4050109187792121e-73
230
1
0
CIRCLE
5
122
100
AcDbEntity
8
0
100
AcDbCircle
10
1131.8794093991432
20
32.887822923212823
30
-2.2204460492503131e-15
40
1.5000000000000568
210
-2.5321674671061145e-44
220
1.4050109187792121e-73
230
1
0
CIRCLE
5
123
100
AcDbEntity
8
0
100
AcDbCircle
10
1079.1594093990702
20
32.887822923208191
30
0
40
1.5000000000000568
210
-2.5321674671061145e-44
220
1.4050109187792121e-73
230
1
0
CIRCLE
5
124
100
AcDbEntity
8
0
100
AcDbCircle
10
1131.8794093991428
20
64.887822923212838
30
0
40
1.5000000000000568
210
3.9412391827710832e-44
220
3.4037717804882759e-73
230
1
0
CIRCLE
5
125
100
AcDbEntity
8
0
100
AcDbCircle
10
1079.1594093992164
20
89.887822923216135
30
0
40
1.5000000000000568
210
3.9412391827710832e-44
220
3.4037717804882759e-73
230
1
0
CIRCLE
5
126
100
AcDbEntity
8
0
100
AcDbCircle
10
1099.8794093992201
20
121.88782292321235
30
0
40
1.5000000000000568
210
3.9412391827710832e-44
220
3.4037717804882759e-73
230
1
0
ENDSEC
0
SECTION
2
OBJECTS
0
DICTIONARY
5
C
100
AcDbDictionary
3
ACAD_GROUP
350
D
3
ACAD_MLINESTYLE
350
17
0
DICTIONARY
5
D
100
AcDbDictionary
0
DICTIONARY
5
1A
330
C
100
AcDbDictionary
0
DICTIONARY
5
17
100
AcDbDictionary
0
ENDSEC
0
EOF
