<?xml version="1.0" standalone="no"?>
 <!DOCTYPE svg PUBLIC "-//W3C//DTD SVG 1.1//EN" 
 "http://www.w3.org/Graphics/SVG/1.1/DTD/svg11.dtd"> 
<svg
  xmlns:svg="http://www.w3.org/2000/svg"
  xmlns="http://www.w3.org/2000/svg"
  xmlns:xlink="http://www.w3.org/1999/xlink"
  version="1.1"
  width="5.717540cm" height="6.918960cm" viewBox="0 0 57175400 69189600">
<title>SVG Picture created as TentacleShield-brd.svg date 2022/07/07 18:32:56 </title>
  <desc>Picture generated by PCBNEW </desc>
<g style="fill:#000000; fill-opacity:1.000000;stroke:#000000; stroke-opacity:1.000000;
stroke-linecap:round; stroke-linejoin:round;"
 transform="translate(0 0) scale(1 1)">
</g>
<g style="fill:#000000; fill-opacity:0.0; 
stroke:#000000; stroke-width:0.000000; stroke-opacity:1; 
stroke-linecap:round; stroke-linejoin:round;">
<g >
</g>
<g style="fill:#000000; fill-opacity:0.0; 
stroke:#000000; stroke-width:1.000000; stroke-opacity:1; 
stroke-linecap:round; stroke-linejoin:round;">
</g>
<g style="fill:#000000; fill-opacity:1.0; 
stroke:#000000; stroke-width:1.000000; stroke-opacity:1; 
stroke-linecap:round; stroke-linejoin:round;">
<path style="fill:#000000; fill-opacity:1.0; 
stroke:#000000; stroke-width:1.000000; stroke-opacity:1; 
stroke-linecap:round; stroke-linejoin:round;fill-rule:evenodd;"
d="M 31638724.000000,44357625.000000
31638724.000000,42857625.000000
34638464.000000,42857625.000000
34638464.000000,44357625.000000
Z" /> 
<path style="fill:#000000; fill-opacity:1.0; 
stroke:#000000; stroke-width:1.000000; stroke-opacity:1; 
stroke-linecap:round; stroke-linejoin:round;fill-rule:evenodd;"
d="M 31638724.000000,33562625.000000
31638724.000000,32062625.000000
34638464.000000,32062625.000000
34638464.000000,33562625.000000
Z" /> 
<path style="fill:#000000; fill-opacity:1.0; 
stroke:#000000; stroke-width:1.000000; stroke-opacity:1; 
stroke-linecap:round; stroke-linejoin:round;fill-rule:evenodd;"
d="M 24271454.000000,41714055.000000
24271454.000000,40705675.000000
27009574.000000,40705675.000000
27009574.000000,41714055.000000
Z" /> 
<path style="fill:#000000; fill-opacity:1.0; 
stroke:#000000; stroke-width:1.000000; stroke-opacity:1; 
stroke-linecap:round; stroke-linejoin:round;fill-rule:evenodd;"
d="M 24271454.000000,39712535.000000
24271454.000000,38704155.000000
27009574.000000,38704155.000000
27009574.000000,39712535.000000
Z" /> 
<path style="fill:#000000; fill-opacity:1.0; 
stroke:#000000; stroke-width:1.000000; stroke-opacity:1; 
stroke-linecap:round; stroke-linejoin:round;fill-rule:evenodd;"
d="M 24271454.000000,37716095.000000
24271454.000000,36707715.000000
27009574.000000,36707715.000000
27009574.000000,37716095.000000
Z" /> 
<path style="fill:#000000; fill-opacity:1.0; 
stroke:#000000; stroke-width:1.000000; stroke-opacity:1; 
stroke-linecap:round; stroke-linejoin:round;fill-rule:evenodd;"
d="M 24271454.000000,35714575.000000
24271454.000000,34706195.000000
27009574.000000,34706195.000000
27009574.000000,35714575.000000
Z" /> 
</g>
<g >
</g>
<g style="fill:#000000; fill-opacity:1.0; 
stroke:#000000; stroke-width:1.000000; stroke-opacity:1; 
stroke-linecap:round; stroke-linejoin:round;">
<path style="fill:#000000; fill-opacity:1.0; 
stroke:#000000; stroke-width:1.000000; stroke-opacity:1; 
stroke-linecap:round; stroke-linejoin:round;fill-rule:evenodd;"
d="M 25100214.000000,55680125.000000
25100214.000000,53280125.000000
27500214.000000,53280125.000000
27500214.000000,55680125.000000
Z" /> 
<circle cx="29800214.000000" cy="54480125.000000" r="1200000.000000" /> 
</g>
<g style="fill:#000000; fill-opacity:1.0; 
stroke:#000000; stroke-width:21200.000000; stroke-opacity:1; 
stroke-linecap:round; stroke-linejoin:round;">
</g>
<g >
</g>
<g style="fill:#000000; fill-opacity:1.0; 
stroke:#000000; stroke-width:21200.000000; stroke-opacity:1; 
stroke-linecap:round; stroke-linejoin:round;">
</g>
<g style="fill:#000000; fill-opacity:1.0; 
stroke:#000000; stroke-width:1.000000; stroke-opacity:1; 
stroke-linecap:round; stroke-linejoin:round;">
<path style="fill:#000000; fill-opacity:1.0; 
stroke:#000000; stroke-width:1.000000; stroke-opacity:1; 
stroke-linecap:round; stroke-linejoin:round;fill-rule:evenodd;"
d="M 14449966.000000,7149980.000000
14449966.000000,8849980.000000
12749966.000000,8849980.000000
12749966.000000,7149980.000000
Z" /> 
<circle cx="16139966.000000" cy="7999980.000000" r="850000.000000" /> 
<circle cx="13599966.000000" cy="10539980.000000" r="850000.000000" /> 
<circle cx="16139966.000000" cy="10539980.000000" r="850000.000000" /> 
<circle cx="13599966.000000" cy="13079980.000000" r="850000.000000" /> 
<circle cx="16139966.000000" cy="13079980.000000" r="850000.000000" /> 
<circle cx="13599966.000000" cy="15619980.000000" r="850000.000000" /> 
<circle cx="16139966.000000" cy="15619980.000000" r="850000.000000" /> 
<circle cx="13599966.000000" cy="18159980.000000" r="850000.000000" /> 
<circle cx="16139966.000000" cy="18159980.000000" r="850000.000000" /> 
<circle cx="13599966.000000" cy="20699980.000000" r="850000.000000" /> 
<circle cx="16139966.000000" cy="20699980.000000" r="850000.000000" /> 
<circle cx="13599966.000000" cy="23239980.000000" r="850000.000000" /> 
<circle cx="16139966.000000" cy="23239980.000000" r="850000.000000" /> 
<circle cx="13599966.000000" cy="25779980.000000" r="850000.000000" /> 
<circle cx="16139966.000000" cy="25779980.000000" r="850000.000000" /> 
<circle cx="13599966.000000" cy="28319980.000000" r="850000.000000" /> 
<circle cx="16139966.000000" cy="28319980.000000" r="850000.000000" /> 
<circle cx="13599966.000000" cy="30859980.000000" r="850000.000000" /> 
<circle cx="16139966.000000" cy="30859980.000000" r="850000.000000" /> 
<circle cx="13599966.000000" cy="33399980.000000" r="850000.000000" /> 
<circle cx="16139966.000000" cy="33399980.000000" r="850000.000000" /> 
<circle cx="13599966.000000" cy="35939980.000000" r="850000.000000" /> 
<circle cx="16139966.000000" cy="35939980.000000" r="850000.000000" /> 
<circle cx="13599966.000000" cy="38479980.000000" r="850000.000000" /> 
<circle cx="16139966.000000" cy="38479980.000000" r="850000.000000" /> 
<circle cx="13599966.000000" cy="41019980.000000" r="850000.000000" /> 
<circle cx="16139966.000000" cy="41019980.000000" r="850000.000000" /> 
<circle cx="13599966.000000" cy="43559980.000000" r="850000.000000" /> 
<circle cx="16139966.000000" cy="43559980.000000" r="850000.000000" /> 
<circle cx="13599966.000000" cy="46099980.000000" r="850000.000000" /> 
<circle cx="16139966.000000" cy="46099980.000000" r="850000.000000" /> 
<circle cx="13599966.000000" cy="48639980.000000" r="850000.000000" /> 
<circle cx="16139966.000000" cy="48639980.000000" r="850000.000000" /> 
<circle cx="13599966.000000" cy="51179980.000000" r="850000.000000" /> 
<circle cx="16139966.000000" cy="51179980.000000" r="850000.000000" /> 
<circle cx="13599966.000000" cy="53719980.000000" r="850000.000000" /> 
<circle cx="16139966.000000" cy="53719980.000000" r="850000.000000" /> 
<circle cx="13599966.000000" cy="56259980.000000" r="850000.000000" /> 
<circle cx="16139966.000000" cy="56259980.000000" r="850000.000000" /> 
</g>
<g >
</g>
<g >
</g>
<g style="fill:#000000; fill-opacity:1.0; 
stroke:#000000; stroke-width:1.000000; stroke-opacity:1; 
stroke-linecap:round; stroke-linejoin:round;">
</g>
<g style="fill:#000000; fill-opacity:1.0; 
stroke:#000000; stroke-width:400000.000000; stroke-opacity:1; 
stroke-linecap:round; stroke-linejoin:round;">
</g>
<g style="fill:#000000; fill-opacity:0.0; 
stroke:#000000; stroke-width:400000.000000; stroke-opacity:1; 
stroke-linecap:round; stroke-linejoin:round;">
<path d="M16139966 7999980
L17880069 7999980
" />
<path d="M21940214 12060125
L21940214 29820125
" />
<path d="M21940214 29820125
L24340214 32220125
" />
<path d="M28301994 39208345
L25640514 39208345
" />
<path d="M24340214 32220125
L28290214 32220125
" />
<path d="M17880069 7999980
L21940214 12060125
" />
<path d="M28290214 32220125
L30100214 34030125
" />
<path d="M30100214 34030125
L30100214 37410125
" />
<path d="M30100214 37410125
L28301994 39208345
" />
<path d="M25640514 37211905
L28038434 37211905
" />
<path d="M28580214 36670125
L28580214 34210125
" />
<path d="M20380214 13400125
L17520069 10539980
" />
<path d="M17520069 10539980
L16139966 10539980
" />
<path d="M28038434 37211905
L28580214 36670125
" />
<path d="M27920214 33550125
L22990214 33550125
" />
<path d="M28580214 34210125
L27920214 33550125
" />
<path d="M22990214 33550125
L20380214 30940125
" />
<path d="M20380214 30940125
L20380214 13400125
" />
<path d="M16139966 13079980
L17190069 13079980
" />
<path d="M19060214 32051496
L22219103 35210385
" />
<path d="M17190069 13079980
L19060214 14950125
" />
<path d="M22219103 35210385
L25640514 35210385
" />
<path d="M19060214 14950125
L19060214 32051496
" />
<path d="M29800214 54480125
L29800214 52070125
" />
<path d="M29800214 52070125
L25640514 47910425
" />
<path d="M25640514 47910425
L25640514 41209865
" />
<path d="M11130214 58310125
L11870214 59050125
" />
<path d="M13599966 7999980
L13599966 10539980
" />
<path d="M11870214 59050125
L21730214 59050125
" />
<path d="M21730214 59050125
L26300214 54480125
" />
<path d="M11130214 11420125
L11130214 58310125
" />
<path d="M12010359 10539980
L11130214 11420125
" />
<path d="M13599966 10539980
L12010359 10539980
" />
</g>
<g >
</g>
<g style="fill:#000000; fill-opacity:0.0; 
stroke:#000000; stroke-width:400000.000000; stroke-opacity:1; 
stroke-linecap:round; stroke-linejoin:round;">
<g >
</g>
<g style="fill:#000000; fill-opacity:1.0; 
stroke:#000000; stroke-width:1.000000; stroke-opacity:1; 
stroke-linecap:round; stroke-linejoin:round;">
<path style="fill:#000000; fill-opacity:1.0; 
stroke:#000000; stroke-width:1.000000; stroke-opacity:1; 
stroke-linecap:round; stroke-linejoin:round;fill-rule:evenodd;"
d="M 12438321.000000,11268482.000000
12477633.000000,11308645.000000
12499953.000000,11345068.000000
12646216.000000,11513918.000000
12818092.000000,11656612.000000
12852452.000000,11676690.000000
12891921.000000,11699754.000000
12940645.000000,11751392.000000
12953716.000000,11821175.000000
12926985.000000,11886947.000000
12886528.000000,11920307.000000
12878423.000000,11924526.000000
12869704.000000,11930016.000000
12699399.000000,12057885.000000
12691692.000000,12064728.000000
12544556.000000,12218697.000000
12538070.000000,12226707.000000
12418064.000000,12402629.000000
12412966.000000,12411603.000000
12323304.000000,12604763.000000
12319741.000000,12614450.000000
12264355.000000,12814163.000000
12265878.000000,12822587.000000
12278258.000000,12825980.000000
13727966.000000,12825980.000000
13796087.000000,12845982.000000
13842580.000000,12899638.000000
13853966.000000,12951980.000000
13853966.000000,13207980.000000
13833964.000000,13276101.000000
13780308.000000,13322594.000000
13727966.000000,13333980.000000
12283191.000000,13333980.000000
12269660.000000,13337953.000000
12268223.000000,13347946.000000
12298531.000000,13482426.000000
12301611.000000,13492255.000000
12381736.000000,13689583.000000
12386379.000000,13698774.000000
12497660.000000,13880368.000000
12503743.000000,13888679.000000
12643179.000000,14049647.000000
12650546.000000,14056863.000000
12814400.000000,14192896.000000
12822847.000000,14198811.000000
12891935.000000,14239183.000000
12940659.000000,14290822.000000
12953730.000000,14360605.000000
12926999.000000,14426376.000000
12886550.000000,14459732.000000
12873573.000000,14466487.000000
12869440.000000,14469590.000000
12869437.000000,14469592.000000
12699066.000000,14597510.000000
12694931.000000,14600615.000000
12540595.000000,14762118.000000
12414709.000000,14946660.000000
12320654.000000,15149285.000000
12260955.000000,15364550.000000
12237217.000000,15586675.000000
12237514.000000,15591828.000000
12237514.000000,15591831.000000
12242977.000000,15686570.000000
12250076.000000,15809695.000000
12251213.000000,15814741.000000
12251214.000000,15814747.000000
12271085.000000,15902919.000000
12299188.000000,16027619.000000
12383232.000000,16234596.000000
12433985.000000,16317418.000000
12497257.000000,16420668.000000
12499953.000000,16425068.000000
12646216.000000,16593918.000000
12818092.000000,16736612.000000
12888561.000000,16777791.000000
12891411.000000,16779456.000000
12940135.000000,16831094.000000
12953206.000000,16900877.000000
12926475.000000,16966649.000000
12886021.000000,17000007.000000
12873573.000000,17006487.000000
12869440.000000,17009590.000000
12869437.000000,17009592.000000
12845213.000000,17027780.000000
12694931.000000,17140615.000000
12540595.000000,17302118.000000
12414709.000000,17486660.000000
12320654.000000,17689285.000000
12260955.000000,17904550.000000
12237217.000000,18126675.000000
12250076.000000,18349695.000000
12251213.000000,18354741.000000
12251214.000000,18354747.000000
12264563.000000,18413980.000000
12299188.000000,18567619.000000
12383232.000000,18774596.000000
12499953.000000,18965068.000000
12646216.000000,19133918.000000
12818092.000000,19276612.000000
12888561.000000,19317791.000000
12891411.000000,19319456.000000
12940135.000000,19371094.000000
12953206.000000,19440877.000000
12926475.000000,19506649.000000
12886021.000000,19540007.000000
12873573.000000,19546487.000000
12869440.000000,19549590.000000
12869437.000000,19549592.000000
12845213.000000,19567780.000000
12694931.000000,19680615.000000
12540595.000000,19842118.000000
12414709.000000,20026660.000000
12320654.000000,20229285.000000
12260955.000000,20444550.000000
12237217.000000,20666675.000000
12237514.000000,20671828.000000
12237514.000000,20671831.000000
12242977.000000,20766570.000000
12250076.000000,20889695.000000
12251213.000000,20894741.000000
12251214.000000,20894747.000000
12271085.000000,20982919.000000
12299188.000000,21107619.000000
12383232.000000,21314596.000000
12433985.000000,21397418.000000
12497257.000000,21500668.000000
12499953.000000,21505068.000000
12646216.000000,21673918.000000
12818092.000000,21816612.000000
12891411.000000,21859456.000000
12891921.000000,21859754.000000
12940645.000000,21911392.000000
12953716.000000,21981175.000000
12926985.000000,22046947.000000
12886528.000000,22080307.000000
12878423.000000,22084526.000000
12869704.000000,22090016.000000
12699399.000000,22217885.000000
12691692.000000,22224728.000000
12544556.000000,22378697.000000
12538070.000000,22386707.000000
12418064.000000,22562629.000000
12412966.000000,22571603.000000
12323304.000000,22764763.000000
12319741.000000,22774450.000000
12264355.000000,22974163.000000
12265878.000000,22982587.000000
12278258.000000,22985980.000000
13727966.000000,22985980.000000
13796087.000000,23005982.000000
13842580.000000,23059638.000000
13853966.000000,23111980.000000
13853966.000000,23367980.000000
13833964.000000,23436101.000000
13780308.000000,23482594.000000
13727966.000000,23493980.000000
12283191.000000,23493980.000000
12269660.000000,23497953.000000
12268223.000000,23507946.000000
12298531.000000,23642426.000000
12301611.000000,23652255.000000
12381736.000000,23849583.000000
12386379.000000,23858774.000000
12497660.000000,24040368.000000
12503743.000000,24048679.000000
12643179.000000,24209647.000000
12650546.000000,24216863.000000
12814400.000000,24352896.000000
12822847.000000,24358811.000000
12891935.000000,24399183.000000
12940659.000000,24450822.000000
12953730.000000,24520605.000000
12926999.000000,24586376.000000
12886550.000000,24619732.000000
12873573.000000,24626487.000000
12869440.000000,24629590.000000
12869437.000000,24629592.000000
12845213.000000,24647780.000000
12694931.000000,24760615.000000
12540595.000000,24922118.000000
12414709.000000,25106660.000000
12320654.000000,25309285.000000
12260955.000000,25524550.000000
12237217.000000,25746675.000000
12237514.000000,25751828.000000
12237514.000000,25751831.000000
12242977.000000,25846570.000000
12250076.000000,25969695.000000
12251213.000000,25974741.000000
12251214.000000,25974747.000000
12271085.000000,26062919.000000
12299188.000000,26187619.000000
12383232.000000,26394596.000000
12433985.000000,26477418.000000
12497257.000000,26580668.000000
12499953.000000,26585068.000000
12646216.000000,26753918.000000
12818092.000000,26896612.000000
12888561.000000,26937791.000000
12891411.000000,26939456.000000
12940135.000000,26991094.000000
12953206.000000,27060877.000000
12926475.000000,27126649.000000
12886021.000000,27160007.000000
12873573.000000,27166487.000000
12869440.000000,27169590.000000
12869437.000000,27169592.000000
12845213.000000,27187780.000000
12694931.000000,27300615.000000
12540595.000000,27462118.000000
12414709.000000,27646660.000000
12320654.000000,27849285.000000
12260955.000000,28064550.000000
12237217.000000,28286675.000000
12237514.000000,28291828.000000
12237514.000000,28291831.000000
12242977.000000,28386570.000000
12250076.000000,28509695.000000
12251213.000000,28514741.000000
12251214.000000,28514747.000000
12271085.000000,28602919.000000
12299188.000000,28727619.000000
12383232.000000,28934596.000000
12433985.000000,29017418.000000
12497257.000000,29120668.000000
12499953.000000,29125068.000000
12646216.000000,29293918.000000
12818092.000000,29436612.000000
12882870.000000,29474465.000000
12891411.000000,29479456.000000
12940135.000000,29531094.000000
12953206.000000,29600877.000000
12926475.000000,29666649.000000
12886021.000000,29700007.000000
12873573.000000,29706487.000000
12869440.000000,29709590.000000
12869437.000000,29709592.000000
12746280.000000,29802061.000000
12694931.000000,29840615.000000
12691359.000000,29844353.000000
12551825.000000,29990367.000000
12540595.000000,30002118.000000
12537686.000000,30006383.000000
12537680.000000,30006391.000000
12462609.000000,30116441.000000
12414709.000000,30186660.000000
12398969.000000,30220570.000000
12346521.000000,30333560.000000
12320654.000000,30389285.000000
12260955.000000,30604550.000000
12237217.000000,30826675.000000
12237514.000000,30831828.000000
12237514.000000,30831831.000000
12242977.000000,30926570.000000
12250076.000000,31049695.000000
12251213.000000,31054741.000000
12251214.000000,31054747.000000
12262566.000000,31105118.000000
12299188.000000,31267619.000000
12383232.000000,31474596.000000
12423543.000000,31540377.000000
12497257.000000,31660668.000000
12499953.000000,31665068.000000
12646216.000000,31833918.000000
12818092.000000,31976612.000000
12877178.000000,32011139.000000
12891411.000000,32019456.000000
12940135.000000,32071094.000000
12953206.000000,32140877.000000
12926475.000000,32206649.000000
12886021.000000,32240007.000000
12873573.000000,32246487.000000
12869440.000000,32249590.000000
12869437.000000,32249592.000000
12699066.000000,32377510.000000
12694931.000000,32380615.000000
12540595.000000,32542118.000000
12537686.000000,32546383.000000
12537680.000000,32546391.000000
12529335.000000,32558625.000000
12414709.000000,32726660.000000
12320654.000000,32929285.000000
12260955.000000,33144550.000000
12237217.000000,33366675.000000
12237514.000000,33371828.000000
12237514.000000,33371831.000000
12242977.000000,33466570.000000
12250076.000000,33589695.000000
12251213.000000,33594741.000000
12251214.000000,33594747.000000
12255441.000000,33613501.000000
12299188.000000,33807619.000000
12346157.000000,33923290.000000
12371335.000000,33985296.000000
12383232.000000,34014596.000000
12423624.000000,34080510.000000
12497257.000000,34200668.000000
12499953.000000,34205068.000000
12646216.000000,34373918.000000
12818092.000000,34516612.000000
12839295.000000,34529002.000000
12891411.000000,34559456.000000
12940135.000000,34611094.000000
12953206.000000,34680877.000000
12926475.000000,34746649.000000
12886021.000000,34780007.000000
12873573.000000,34786487.000000
12869440.000000,34789590.000000
12869437.000000,34789592.000000
12845213.000000,34807780.000000
12694931.000000,34920615.000000
12540595.000000,35082118.000000
12414709.000000,35266660.000000
12320654.000000,35469285.000000
12260955.000000,35684550.000000
12237217.000000,35906675.000000
12237514.000000,35911828.000000
12237514.000000,35911831.000000
12242977.000000,36006570.000000
12250076.000000,36129695.000000
12251213.000000,36134741.000000
12251214.000000,36134747.000000
12258075.000000,36165190.000000
12299188.000000,36347619.000000
12383232.000000,36554596.000000
12433985.000000,36637418.000000
12497257.000000,36740668.000000
12499953.000000,36745068.000000
12646216.000000,36913918.000000
12818092.000000,37056612.000000
12879882.000000,37092719.000000
12891411.000000,37099456.000000
12940135.000000,37151094.000000
12953206.000000,37220877.000000
12926475.000000,37286649.000000
12886021.000000,37320007.000000
12873573.000000,37326487.000000
12869440.000000,37329590.000000
12869437.000000,37329592.000000
12699066.000000,37457510.000000
12694931.000000,37460615.000000
12691359.000000,37464353.000000
12580767.000000,37580081.000000
12540595.000000,37622118.000000
12414709.000000,37806660.000000
12370601.000000,37901683.000000
12338500.000000,37970840.000000
12320654.000000,38009285.000000
12260955.000000,38224550.000000
12237217.000000,38446675.000000
12237514.000000,38451828.000000
12237514.000000,38451831.000000
12242977.000000,38546570.000000
12250076.000000,38669695.000000
12251213.000000,38674741.000000
12251214.000000,38674747.000000
12271085.000000,38762919.000000
12299188.000000,38887619.000000
12383232.000000,39094596.000000
12433985.000000,39177418.000000
12497257.000000,39280668.000000
12499953.000000,39285068.000000
12646216.000000,39453918.000000
12818092.000000,39596612.000000
12888561.000000,39637791.000000
12891411.000000,39639456.000000
12940135.000000,39691094.000000
12953206.000000,39760877.000000
12926475.000000,39826649.000000
12886021.000000,39860007.000000
12873573.000000,39866487.000000
12869440.000000,39869590.000000
12869437.000000,39869592.000000
12739329.000000,39967280.000000
12694931.000000,40000615.000000
12540595.000000,40162118.000000
12537686.000000,40166383.000000
12537680.000000,40166391.000000
12490013.000000,40236268.000000
12414709.000000,40346660.000000
12320654.000000,40549285.000000
12260955.000000,40764550.000000
12237217.000000,40986675.000000
12237514.000000,40991828.000000
12237514.000000,40991831.000000
12242977.000000,41086570.000000
12250076.000000,41209695.000000
12251213.000000,41214741.000000
12251214.000000,41214747.000000
12271085.000000,41302919.000000
12299188.000000,41427619.000000
12383232.000000,41634596.000000
12433985.000000,41717418.000000
12497257.000000,41820668.000000
12499953.000000,41825068.000000
12646216.000000,41993918.000000
12818092.000000,42136612.000000
12856133.000000,42158841.000000
12891411.000000,42179456.000000
12940135.000000,42231094.000000
12953206.000000,42300877.000000
12926475.000000,42366649.000000
12886021.000000,42400007.000000
12873573.000000,42406487.000000
12869440.000000,42409590.000000
12869437.000000,42409592.000000
12746493.000000,42501901.000000
12694931.000000,42540615.000000
12540595.000000,42702118.000000
12414709.000000,42886660.000000
12320654.000000,43089285.000000
12260955.000000,43304550.000000
12237217.000000,43526675.000000
12237514.000000,43531828.000000
12237514.000000,43531831.000000
12242977.000000,43626570.000000
12250076.000000,43749695.000000
12251213.000000,43754741.000000
12251214.000000,43754747.000000
12271085.000000,43842919.000000
12299188.000000,43967619.000000
12383232.000000,44174596.000000
12433985.000000,44257418.000000
12497257.000000,44360668.000000
12499953.000000,44365068.000000
12646216.000000,44533918.000000
12818092.000000,44676612.000000
12880960.000000,44713349.000000
12891411.000000,44719456.000000
12940135.000000,44771094.000000
12953206.000000,44840877.000000
12926475.000000,44906649.000000
12886021.000000,44940007.000000
12873573.000000,44946487.000000
12869440.000000,44949590.000000
12869437.000000,44949592.000000
12699066.000000,45077510.000000
12694931.000000,45080615.000000
12540595.000000,45242118.000000
12414709.000000,45426660.000000
12320654.000000,45629285.000000
12260955.000000,45844550.000000
12237217.000000,46066675.000000
12237514.000000,46071828.000000
12237514.000000,46071831.000000
12242977.000000,46166570.000000
12250076.000000,46289695.000000
12251213.000000,46294741.000000
12251214.000000,46294747.000000
12271085.000000,46382919.000000
12299188.000000,46507619.000000
12383232.000000,46714596.000000
12433985.000000,46797418.000000
12497257.000000,46900668.000000
12499953.000000,46905068.000000
12646216.000000,47073918.000000
12818092.000000,47216612.000000
12888561.000000,47257791.000000
12891411.000000,47259456.000000
12940135.000000,47311094.000000
12953206.000000,47380877.000000
12926475.000000,47446649.000000
12886021.000000,47480007.000000
12873573.000000,47486487.000000
12869440.000000,47489590.000000
12869437.000000,47489592.000000
12845213.000000,47507780.000000
12694931.000000,47620615.000000
12540595.000000,47782118.000000
12414709.000000,47966660.000000
12320654.000000,48169285.000000
12260955.000000,48384550.000000
12237217.000000,48606675.000000
12237514.000000,48611828.000000
12237514.000000,48611831.000000
12242977.000000,48706570.000000
12250076.000000,48829695.000000
12251213.000000,48834741.000000
12251214.000000,48834747.000000
12271085.000000,48922919.000000
12299188.000000,49047619.000000
12383232.000000,49254596.000000
12433985.000000,49337418.000000
12497257.000000,49440668.000000
12499953.000000,49445068.000000
12646216.000000,49613918.000000
12818092.000000,49756612.000000
12888561.000000,49797791.000000
12891411.000000,49799456.000000
12940135.000000,49851094.000000
12953206.000000,49920877.000000
12926475.000000,49986649.000000
12886021.000000,50020007.000000
12873573.000000,50026487.000000
12869440.000000,50029590.000000
12869437.000000,50029592.000000
12845213.000000,50047780.000000
12694931.000000,50160615.000000
12540595.000000,50322118.000000
12414709.000000,50506660.000000
12320654.000000,50709285.000000
12260955.000000,50924550.000000
12237217.000000,51146675.000000
12237514.000000,51151828.000000
12237514.000000,51151831.000000
12242977.000000,51246570.000000
12250076.000000,51369695.000000
12251213.000000,51374741.000000
12251214.000000,51374747.000000
12271085.000000,51462919.000000
12299188.000000,51587619.000000
12383232.000000,51794596.000000
12433985.000000,51877418.000000
12497257.000000,51980668.000000
12499953.000000,51985068.000000
12646216.000000,52153918.000000
12818092.000000,52296612.000000
12888561.000000,52337791.000000
12891411.000000,52339456.000000
12940135.000000,52391094.000000
12953206.000000,52460877.000000
12926475.000000,52526649.000000
12886021.000000,52560007.000000
12873573.000000,52566487.000000
12869440.000000,52569590.000000
12869437.000000,52569592.000000
12845213.000000,52587780.000000
12694931.000000,52700615.000000
12540595.000000,52862118.000000
12414709.000000,53046660.000000
12392444.000000,53094627.000000
12328682.000000,53231991.000000
12320654.000000,53249285.000000
12260955.000000,53464550.000000
12237217.000000,53686675.000000
12237514.000000,53691828.000000
12237514.000000,53691831.000000
12242977.000000,53786570.000000
12250076.000000,53909695.000000
12251213.000000,53914741.000000
12251214.000000,53914747.000000
12271085.000000,54002919.000000
12299188.000000,54127619.000000
12383232.000000,54334596.000000
12433985.000000,54417418.000000
12497257.000000,54520668.000000
12499953.000000,54525068.000000
12646216.000000,54693918.000000
12818092.000000,54836612.000000
12844677.000000,54852147.000000
12891411.000000,54879456.000000
12940135.000000,54931094.000000
12953206.000000,55000877.000000
12926475.000000,55066649.000000
12886021.000000,55100007.000000
12873573.000000,55106487.000000
12869440.000000,55109590.000000
12869437.000000,55109592.000000
12717646.000000,55223560.000000
12694931.000000,55240615.000000
12540595.000000,55402118.000000
12537686.000000,55406383.000000
12537680.000000,55406391.000000
12481439.000000,55488837.000000
12414709.000000,55586660.000000
12320654.000000,55789285.000000
12260955.000000,56004550.000000
12237217.000000,56226675.000000
12237514.000000,56231828.000000
12237514.000000,56231831.000000
12242977.000000,56326570.000000
12250076.000000,56449695.000000
12251213.000000,56454741.000000
12251214.000000,56454747.000000
12271085.000000,56542919.000000
12299188.000000,56667619.000000
12383232.000000,56874596.000000
12433985.000000,56957418.000000
12497257.000000,57060668.000000
12499953.000000,57065068.000000
12646216.000000,57233918.000000
12818092.000000,57376612.000000
13010966.000000,57489318.000000
13219658.000000,57569010.000000
13224726.000000,57570041.000000
13224729.000000,57570042.000000
13331983.000000,57591863.000000
13438563.000000,57613547.000000
13443738.000000,57613737.000000
13443740.000000,57613737.000000
13656639.000000,57621544.000000
13656643.000000,57621544.000000
13661803.000000,57621733.000000
13666923.000000,57621077.000000
13666925.000000,57621077.000000
13878254.000000,57594005.000000
13878255.000000,57594005.000000
13883382.000000,57593348.000000
13888332.000000,57591863.000000
14092395.000000,57530641.000000
14092400.000000,57530639.000000
14097350.000000,57529154.000000
14297960.000000,57430876.000000
14479826.000000,57301153.000000
14638062.000000,57143469.000000
14697560.000000,57060669.000000
14768419.000000,56962057.000000
14769742.000000,56963008.000000
14816611.000000,56919837.000000
14886546.000000,56907605.000000
14951992.000000,56935124.000000
14979841.000000,56966974.000000
15039953.000000,57065068.000000
15186216.000000,57233918.000000
15358092.000000,57376612.000000
15550966.000000,57489318.000000
15759658.000000,57569010.000000
15764726.000000,57570041.000000
15764729.000000,57570042.000000
15871983.000000,57591863.000000
15978563.000000,57613547.000000
15983738.000000,57613737.000000
15983740.000000,57613737.000000
16196639.000000,57621544.000000
16196643.000000,57621544.000000
16201803.000000,57621733.000000
16206923.000000,57621077.000000
16206925.000000,57621077.000000
16418254.000000,57594005.000000
16418255.000000,57594005.000000
16423382.000000,57593348.000000
16428332.000000,57591863.000000
16632395.000000,57530641.000000
16632400.000000,57530639.000000
16637350.000000,57529154.000000
16837960.000000,57430876.000000
17019826.000000,57301153.000000
17178062.000000,57143469.000000
17237560.000000,57060669.000000
17305401.000000,56966257.000000
17308419.000000,56962057.000000
17329286.000000,56919837.000000
17405102.000000,56766433.000000
17405103.000000,56766431.000000
17407396.000000,56761791.000000
17472336.000000,56548049.000000
17501495.000000,56326570.000000
17503122.000000,56259980.000000
17484818.000000,56037341.000000
17430397.000000,55820682.000000
17341320.000000,55615820.000000
17256794.000000,55485163.000000
17222788.000000,55432597.000000
17222786.000000,55432594.000000
17219980.000000,55428257.000000
17069636.000000,55263031.000000
17065585.000000,55259832.000000
17065581.000000,55259828.000000
16898380.000000,55127780.000000
16898376.000000,55127778.000000
16894325.000000,55124578.000000
16853019.000000,55101776.000000
16803050.000000,55051344.000000
16788278.000000,54981901.000000
16813394.000000,54915496.000000
16840746.000000,54888889.000000
16902931.000000,54844533.000000
17019826.000000,54761153.000000
17178062.000000,54603469.000000
17237560.000000,54520669.000000
17305401.000000,54426257.000000
17308419.000000,54422057.000000
17329286.000000,54379837.000000
17405102.000000,54226433.000000
17405103.000000,54226431.000000
17407396.000000,54221791.000000
17472336.000000,54008049.000000
17501495.000000,53786570.000000
17503122.000000,53719980.000000
17484818.000000,53497341.000000
17430397.000000,53280682.000000
17341320.000000,53075820.000000
17219980.000000,52888257.000000
17069636.000000,52723031.000000
17065585.000000,52719832.000000
17065581.000000,52719828.000000
16898380.000000,52587780.000000
16898376.000000,52587778.000000
16894325.000000,52584578.000000
16853019.000000,52561776.000000
16803050.000000,52511344.000000
16788278.000000,52441901.000000
16813394.000000,52375496.000000
16840746.000000,52348889.000000
16884569.000000,52317630.000000
17019826.000000,52221153.000000
17178062.000000,52063469.000000
17237560.000000,51980669.000000
17305401.000000,51886257.000000
17308419.000000,51882057.000000
17329286.000000,51839837.000000
17405102.000000,51686433.000000
17405103.000000,51686431.000000
17407396.000000,51681791.000000
17472336.000000,51468049.000000
17501495.000000,51246570.000000
17503122.000000,51179980.000000
17484818.000000,50957341.000000
17430397.000000,50740682.000000
17341320.000000,50535820.000000
17219980.000000,50348257.000000
17069636.000000,50183031.000000
17065585.000000,50179832.000000
17065581.000000,50179828.000000
16898380.000000,50047780.000000
16898376.000000,50047778.000000
16894325.000000,50044578.000000
16853019.000000,50021776.000000
16803050.000000,49971344.000000
16788278.000000,49901901.000000
16813394.000000,49835496.000000
16840746.000000,49808889.000000
16884569.000000,49777630.000000
17019826.000000,49681153.000000
17178062.000000,49523469.000000
17237560.000000,49440669.000000
17305401.000000,49346257.000000
17308419.000000,49342057.000000
17329286.000000,49299837.000000
17405102.000000,49146433.000000
17405103.000000,49146431.000000
17407396.000000,49141791.000000
17472336.000000,48928049.000000
17501495.000000,48706570.000000
17503122.000000,48639980.000000
17484818.000000,48417341.000000
17430397.000000,48200682.000000
17341320.000000,47995820.000000
17219980.000000,47808257.000000
17069636.000000,47643031.000000
17065585.000000,47639832.000000
17065581.000000,47639828.000000
16898380.000000,47507780.000000
16898376.000000,47507778.000000
16894325.000000,47504578.000000
16853019.000000,47481776.000000
16803050.000000,47431344.000000
16788278.000000,47361901.000000
16813394.000000,47295496.000000
16840746.000000,47268889.000000
16884569.000000,47237630.000000
17019826.000000,47141153.000000
17178062.000000,46983469.000000
17237560.000000,46900669.000000
17305401.000000,46806257.000000
17308419.000000,46802057.000000
17329286.000000,46759837.000000
17405102.000000,46606433.000000
17405103.000000,46606431.000000
17407396.000000,46601791.000000
17472336.000000,46388049.000000
17501495.000000,46166570.000000
17503122.000000,46099980.000000
17484818.000000,45877341.000000
17430397.000000,45660682.000000
17341320.000000,45455820.000000
17219980.000000,45268257.000000
17069636.000000,45103031.000000
17065585.000000,45099832.000000
17065581.000000,45099828.000000
16898380.000000,44967780.000000
16898376.000000,44967778.000000
16894325.000000,44964578.000000
16853019.000000,44941776.000000
16803050.000000,44891344.000000
16788278.000000,44821901.000000
16813394.000000,44755496.000000
16840746.000000,44728889.000000
16884569.000000,44697630.000000
17019826.000000,44601153.000000
17178062.000000,44443469.000000
17207649.000000,44402294.000000
31130725.000000,44402294.000000
31131095.000000,44409115.000000
31136619.000000,44459977.000000
31140245.000000,44475229.000000
31185400.000000,44595679.000000
31193938.000000,44611274.000000
31270439.000000,44713349.000000
31283000.000000,44725910.000000
31385075.000000,44802411.000000
31400670.000000,44810949.000000
31521118.000000,44856103.000000
31536373.000000,44859730.000000
31587238.000000,44865256.000000
31594052.000000,44865625.000000
32866479.000000,44865625.000000
32881718.000000,44861150.000000
32882923.000000,44859760.000000
32884594.000000,44852077.000000
32884594.000000,43879740.000000
32880119.000000,43864501.000000
32878729.000000,43863296.000000
32871046.000000,43861625.000000
31148840.000000,43861625.000000
31133601.000000,43866100.000000
31132396.000000,43867490.000000
31130725.000000,43875173.000000
31130725.000000,44402294.000000
17207649.000000,44402294.000000
17237560.000000,44360669.000000
17305401.000000,44266257.000000
17308419.000000,44262057.000000
17329286.000000,44219837.000000
17405102.000000,44066433.000000
17405103.000000,44066431.000000
17407396.000000,44061791.000000
17466852.000000,43866100.000000
17470831.000000,43853003.000000
17470831.000000,43853001.000000
17472336.000000,43848049.000000
17501495.000000,43626570.000000
17503122.000000,43559980.000000
17484818.000000,43337341.000000
17484358.000000,43335510.000000
31130724.000000,43335510.000000
31135199.000000,43350749.000000
31136589.000000,43351954.000000
31144272.000000,43353625.000000
32866479.000000,43353625.000000
32881718.000000,43349150.000000
32882923.000000,43347760.000000
32884594.000000,43340077.000000
32884594.000000,42367741.000000
32880119.000000,42352502.000000
32878729.000000,42351297.000000
32871046.000000,42349626.000000
31594055.000000,42349626.000000
31587234.000000,42349996.000000
31536372.000000,42355520.000000
31521120.000000,42359146.000000
31400670.000000,42404301.000000
31385075.000000,42412839.000000
31283000.000000,42489340.000000
31270439.000000,42501901.000000
31193938.000000,42603976.000000
31185400.000000,42619571.000000
31140246.000000,42740019.000000
31136619.000000,42755274.000000
31131093.000000,42806139.000000
31130724.000000,42812953.000000
31130724.000000,43335510.000000
17484358.000000,43335510.000000
17430397.000000,43120682.000000
17341320.000000,42915820.000000
17219980.000000,42728257.000000
17069636.000000,42563031.000000
17065585.000000,42559832.000000
17065581.000000,42559828.000000
16898380.000000,42427780.000000
16898376.000000,42427778.000000
16894325.000000,42424578.000000
16853019.000000,42401776.000000
16803050.000000,42351344.000000
16788278.000000,42281901.000000
16813394.000000,42215496.000000
16840746.000000,42188889.000000
16884569.000000,42157630.000000
17019826.000000,42061153.000000
17178062.000000,41903469.000000
17229663.000000,41831659.000000
17282071.000000,41758724.000000
23763455.000000,41758724.000000
23763825.000000,41765545.000000
23769349.000000,41816407.000000
23772975.000000,41831659.000000
23818130.000000,41952109.000000
23826668.000000,41967704.000000
23903169.000000,42069779.000000
23915730.000000,42082340.000000
24017805.000000,42158841.000000
24033400.000000,42167379.000000
24153848.000000,42212533.000000
24169103.000000,42216160.000000
24219968.000000,42221686.000000
24226782.000000,42222055.000000
25368399.000000,42222055.000000
25383638.000000,42217580.000000
25384843.000000,42216190.000000
25386514.000000,42208507.000000
25386514.000000,42203939.000000
25894514.000000,42203939.000000
25898989.000000,42219178.000000
25900379.000000,42220383.000000
25908062.000000,42222054.000000
27054243.000000,42222054.000000
27061064.000000,42221684.000000
27111926.000000,42216160.000000
27127178.000000,42212534.000000
27247628.000000,42167379.000000
27263223.000000,42158841.000000
27365298.000000,42082340.000000
27377859.000000,42069779.000000
27454360.000000,41967704.000000
27462898.000000,41952109.000000
27508052.000000,41831661.000000
27511679.000000,41816406.000000
27517205.000000,41765541.000000
27517574.000000,41758727.000000
27517574.000000,41481980.000000
27513099.000000,41466741.000000
27511709.000000,41465536.000000
27504026.000000,41463865.000000
25912629.000000,41463865.000000
25897390.000000,41468340.000000
25896185.000000,41469730.000000
25894514.000000,41477413.000000
25894514.000000,42203939.000000
25386514.000000,42203939.000000
25386514.000000,41481980.000000
25382039.000000,41466741.000000
25380649.000000,41465536.000000
25372966.000000,41463865.000000
23781570.000000,41463865.000000
23766331.000000,41468340.000000
23765126.000000,41469730.000000
23763455.000000,41477413.000000
23763455.000000,41758724.000000
17282071.000000,41758724.000000
17305401.000000,41726257.000000
17308419.000000,41722057.000000
17329286.000000,41679837.000000
17405102.000000,41526433.000000
17405103.000000,41526431.000000
17407396.000000,41521791.000000
17472336.000000,41308049.000000
17501495.000000,41086570.000000
17503122.000000,41019980.000000
17484818.000000,40797341.000000
17430397.000000,40580682.000000
17341320.000000,40375820.000000
17219980.000000,40188257.000000
17069636.000000,40023031.000000
17065585.000000,40019832.000000
17065581.000000,40019828.000000
16898380.000000,39887780.000000
16898376.000000,39887778.000000
16894325.000000,39884578.000000
16853019.000000,39861776.000000
16803050.000000,39811344.000000
16788278.000000,39741901.000000
16813394.000000,39675496.000000
16840746.000000,39648889.000000
16884569.000000,39617630.000000
17019826.000000,39521153.000000
17178062.000000,39363469.000000
17237560.000000,39280669.000000
17305401.000000,39186257.000000
17308419.000000,39182057.000000
17329286.000000,39139837.000000
17405102.000000,38986433.000000
17405103.000000,38986431.000000
17407396.000000,38981791.000000
17472336.000000,38768049.000000
17501495.000000,38546570.000000
17503122.000000,38479980.000000
17484818.000000,38257341.000000
17430397.000000,38040682.000000
17341320.000000,37835820.000000
17289656.000000,37755960.000000
17222788.000000,37652597.000000
17222786.000000,37652594.000000
17219980.000000,37648257.000000
17069636.000000,37483031.000000
17065585.000000,37479832.000000
17065581.000000,37479828.000000
16898380.000000,37347780.000000
16898376.000000,37347778.000000
16894325.000000,37344578.000000
16853019.000000,37321776.000000
16803050.000000,37271344.000000
16788278.000000,37201901.000000
16813394.000000,37135496.000000
16840746.000000,37108889.000000
16884569.000000,37077630.000000
17019826.000000,36981153.000000
17178062.000000,36823469.000000
17237560.000000,36740669.000000
17305401.000000,36646257.000000
17308419.000000,36642057.000000
17329286.000000,36599837.000000
17405102.000000,36446433.000000
17405103.000000,36446431.000000
17407396.000000,36441791.000000
17472336.000000,36228049.000000
17501495.000000,36006570.000000
17503122.000000,35939980.000000
17484818.000000,35717341.000000
17430397.000000,35500682.000000
17341320.000000,35295820.000000
17219980.000000,35108257.000000
17069636.000000,34943031.000000
17065585.000000,34939832.000000
17065581.000000,34939828.000000
16898380.000000,34807780.000000
16898376.000000,34807778.000000
16894325.000000,34804578.000000
16853019.000000,34781776.000000
16803050.000000,34731344.000000
16788278.000000,34661901.000000
16813394.000000,34595496.000000
16840746.000000,34568889.000000
16884569.000000,34537630.000000
17019826.000000,34441153.000000
17178062.000000,34283469.000000
17208287.000000,34241407.000000
17305401.000000,34106257.000000
17308419.000000,34102057.000000
17325376.000000,34067748.000000
17405102.000000,33906433.000000
17405103.000000,33906431.000000
17407396.000000,33901791.000000
17472336.000000,33688049.000000
17501495.000000,33466570.000000
17503122.000000,33399980.000000
17484818.000000,33177341.000000
17430397.000000,32960682.000000
17341320.000000,32755820.000000
17219980.000000,32568257.000000
17069636.000000,32403031.000000
17065585.000000,32399832.000000
17065581.000000,32399828.000000
16898380.000000,32267780.000000
16898376.000000,32267778.000000
16894325.000000,32264578.000000
16853019.000000,32241776.000000
16803050.000000,32191344.000000
16788278.000000,32121901.000000
16813394.000000,32055496.000000
16840746.000000,32028889.000000
16884569.000000,31997630.000000
17019826.000000,31901153.000000
17178062.000000,31743469.000000
17185859.000000,31732619.000000
17305401.000000,31566257.000000
17308419.000000,31562057.000000
17311805.000000,31555207.000000
17405102.000000,31366433.000000
17405103.000000,31366431.000000
17407396.000000,31361791.000000
17472336.000000,31148049.000000
17501495.000000,30926570.000000
17503122.000000,30859980.000000
17484818.000000,30637341.000000
17430397.000000,30420682.000000
17341320.000000,30215820.000000
17277029.000000,30116441.000000
17222788.000000,30032597.000000
17222786.000000,30032594.000000
17219980.000000,30028257.000000
17069636.000000,29863031.000000
17065585.000000,29859832.000000
17065581.000000,29859828.000000
16898380.000000,29727780.000000
16898376.000000,29727778.000000
16894325.000000,29724578.000000
16853019.000000,29701776.000000
16803050.000000,29651344.000000
16788278.000000,29581901.000000
16813394.000000,29515496.000000
16840746.000000,29488889.000000
16905543.000000,29442670.000000
17019826.000000,29361153.000000
17178062.000000,29203469.000000
17237560.000000,29120669.000000
17305401.000000,29026257.000000
17308419.000000,29022057.000000
17329286.000000,28979837.000000
17405102.000000,28826433.000000
17405103.000000,28826431.000000
17407396.000000,28821791.000000
17472336.000000,28608049.000000
17501495.000000,28386570.000000
17503122.000000,28319980.000000
17484818.000000,28097341.000000
17430397.000000,27880682.000000
17341320.000000,27675820.000000
17219980.000000,27488257.000000
17069636.000000,27323031.000000
17065585.000000,27319832.000000
17065581.000000,27319828.000000
16898380.000000,27187780.000000
16898376.000000,27187778.000000
16894325.000000,27184578.000000
16853019.000000,27161776.000000
16803050.000000,27111344.000000
16788278.000000,27041901.000000
16813394.000000,26975496.000000
16840746.000000,26948889.000000
16884569.000000,26917630.000000
17019826.000000,26821153.000000
17178062.000000,26663469.000000
17237560.000000,26580669.000000
17305401.000000,26486257.000000
17308419.000000,26482057.000000
17329286.000000,26439837.000000
17405102.000000,26286433.000000
17405103.000000,26286431.000000
17407396.000000,26281791.000000
17472336.000000,26068049.000000
17501495.000000,25846570.000000
17503122.000000,25779980.000000
17484818.000000,25557341.000000
17430397.000000,25340682.000000
17341320.000000,25135820.000000
17219980.000000,24948257.000000
17069636.000000,24783031.000000
17065585.000000,24779832.000000
17065581.000000,24779828.000000
16898380.000000,24647780.000000
16898376.000000,24647778.000000
16894325.000000,24644578.000000
16853019.000000,24621776.000000
16803050.000000,24571344.000000
16788278.000000,24501901.000000
16813394.000000,24435496.000000
16840746.000000,24408889.000000
16884569.000000,24377630.000000
17019826.000000,24281153.000000
17178062.000000,24123469.000000
17308419.000000,23942057.000000
17321961.000000,23914658.000000
17405102.000000,23746433.000000
17405103.000000,23746431.000000
17407396.000000,23741791.000000
17472336.000000,23528049.000000
17501495.000000,23306570.000000
17503122.000000,23239980.000000
17484818.000000,23017341.000000
17430397.000000,22800682.000000
17341320.000000,22595820.000000
17219980.000000,22408257.000000
17069636.000000,22243031.000000
17065585.000000,22239832.000000
17065581.000000,22239828.000000
16898380.000000,22107780.000000
16898376.000000,22107778.000000
16894325.000000,22104578.000000
16853019.000000,22081776.000000
16803050.000000,22031344.000000
16788278.000000,21961901.000000
16813394.000000,21895496.000000
16840746.000000,21868889.000000
16884569.000000,21837630.000000
17019826.000000,21741153.000000
17178062.000000,21583469.000000
17237560.000000,21500669.000000
17305401.000000,21406257.000000
17308419.000000,21402057.000000
17329286.000000,21359837.000000
17405102.000000,21206433.000000
17405103.000000,21206431.000000
17407396.000000,21201791.000000
17472336.000000,20988049.000000
17501495.000000,20766570.000000
17503122.000000,20699980.000000
17484818.000000,20477341.000000
17430397.000000,20260682.000000
17341320.000000,20055820.000000
17219980.000000,19868257.000000
17069636.000000,19703031.000000
17065585.000000,19699832.000000
17065581.000000,19699828.000000
16898380.000000,19567780.000000
16898376.000000,19567778.000000
16894325.000000,19564578.000000
16852535.000000,19541509.000000
16802564.000000,19491077.000000
16787792.000000,19421634.000000
16812908.000000,19355228.000000
16840260.000000,19328621.000000
17015294.000000,19203772.000000
17023166.000000,19197119.000000
17174018.000000,19046792.000000
17180696.000000,19038945.000000
17304969.000000,18866000.000000
17310279.000000,18857163.000000
17404636.000000,18666247.000000
17408435.000000,18656652.000000
17470343.000000,18452890.000000
17472521.000000,18442817.000000
17473952.000000,18431942.000000
17471741.000000,18417758.000000
17458583.000000,18413980.000000
16011966.000000,18413980.000000
15943845.000000,18393978.000000
15897352.000000,18340322.000000
15885966.000000,18287980.000000
15885966.000000,18031980.000000
15905968.000000,17963859.000000
15959624.000000,17917366.000000
16011966.000000,17905980.000000
17458310.000000,17905980.000000
17471841.000000,17902007.000000
17473146.000000,17892927.000000
17431180.000000,17725855.000000
17427860.000000,17716104.000000
17342938.000000,17520794.000000
17338071.000000,17511719.000000
17222392.000000,17332906.000000
17216102.000000,17324737.000000
17072772.000000,17167220.000000
17065239.000000,17160195.000000
16898105.000000,17028202.000000
16889522.000000,17022500.000000
16852568.000000,17002100.000000
16802597.000000,16951667.000000
16787825.000000,16882225.000000
16812941.000000,16815819.000000
16840293.000000,16789212.000000
16863763.000000,16772471.000000
17019826.000000,16661153.000000
17178062.000000,16503469.000000
17237560.000000,16420669.000000
17305401.000000,16326257.000000
17308419.000000,16322057.000000
17329286.000000,16279837.000000
17405102.000000,16126433.000000
17405103.000000,16126431.000000
17407396.000000,16121791.000000
17472336.000000,15908049.000000
17501495.000000,15686570.000000
17503122.000000,15619980.000000
17484818.000000,15397341.000000
17430397.000000,15180682.000000
17341320.000000,14975820.000000
17219980.000000,14788257.000000
17069636.000000,14623031.000000
17065585.000000,14619832.000000
17065581.000000,14619828.000000
16898380.000000,14487780.000000
16898376.000000,14487778.000000
16894325.000000,14484578.000000
16853019.000000,14461776.000000
16803050.000000,14411344.000000
16788278.000000,14341901.000000
16813394.000000,14275496.000000
16840746.000000,14248889.000000
16884569.000000,14217630.000000
17019826.000000,14121153.000000
17035637.000000,14105397.000000
17098008.000000,14071481.000000
17168815.000000,14076669.000000
17213672.000000,14105553.000000
18314809.000000,15206691.000000
18348835.000000,15269003.000000
18351714.000000,15295786.000000
18351714.000000,32022584.000000
18351422.000000,32031154.000000
18349763.000000,32055496.000000
18347489.000000,32088848.000000
18348794.000000,32096325.000000
18348794.000000,32096326.000000
18358475.000000,32151795.000000
18359437.000000,32158317.000000
18367112.000000,32221738.000000
18369795.000000,32228839.000000
18370436.000000,32231448.000000
18374899.000000,32247758.000000
18375664.000000,32250294.000000
18376971.000000,32257780.000000
18380025.000000,32264737.000000
18402656.000000,32316291.000000
18405147.000000,32322395.000000
18427727.000000,32382152.000000
18432031.000000,32388415.000000
18433268.000000,32390781.000000
18441513.000000,32405593.000000
18442846.000000,32407847.000000
18445899.000000,32414801.000000
18450521.000000,32420824.000000
18484793.000000,32465487.000000
18488673.000000,32470828.000000
18520553.000000,32517216.000000
18520558.000000,32517221.000000
18524857.000000,32523477.000000
18570830.000000,32564437.000000
18571384.000000,32564931.000000
18576660.000000,32569912.000000
21697653.000000,35690905.000000
21703507.000000,35697170.000000
21741542.000000,35740770.000000
21772759.000000,35762709.000000
21793800.000000,35777497.000000
21799096.000000,35781430.000000
21849385.000000,35820862.000000
21856307.000000,35823987.000000
21858555.000000,35825349.000000
21873288.000000,35833753.000000
21875627.000000,35835007.000000
21881842.000000,35839375.000000
21888918.000000,35842134.000000
21888922.000000,35842136.000000
21941372.000000,35862585.000000
21947437.000000,35865134.000000
22005676.000000,35891430.000000
22013141.000000,35892814.000000
22015685.000000,35893611.000000
22031951.000000,35898244.000000
22034531.000000,35898906.000000
22041612.000000,35901667.000000
22049145.000000,35902659.000000
22049146.000000,35902659.000000
22079653.000000,35906675.000000
22104960.000000,35910007.000000
22111458.000000,35911035.000000
22174290.000000,35922681.000000
22181870.000000,35922244.000000
22181871.000000,35922244.000000
22236501.000000,35919094.000000
22243754.000000,35918885.000000
23726039.000000,35918885.000000
23794160.000000,35938887.000000
23826864.000000,35969319.000000
23908193.000000,36077836.000000
23915373.000000,36083217.000000
23951535.000000,36110319.000000
23994050.000000,36167178.000000
23999076.000000,36237997.000000
23965016.000000,36300290.000000
23951536.000000,36311970.000000
23908193.000000,36344454.000000
23820839.000000,36461010.000000
23769709.000000,36597399.000000
23762954.000000,36659581.000000
23762954.000000,37764229.000000
23769709.000000,37826411.000000
23820839.000000,37962800.000000
23908193.000000,38079356.000000
23915373.000000,38084737.000000
23948146.000000,38109299.000000
23990661.000000,38166158.000000
23995687.000000,38236976.000000
23961627.000000,38299270.000000
23948147.000000,38310950.000000
23908193.000000,38340894.000000
23820839.000000,38457450.000000
23769709.000000,38593839.000000
23762954.000000,38656021.000000
23762954.000000,39760669.000000
23769709.000000,39822851.000000
23820839.000000,39959240.000000
23908193.000000,40075796.000000
23951952.000000,40108592.000000
23994467.000000,40165449.000000
23999493.000000,40236268.000000
23965434.000000,40298561.000000
23951952.000000,40310243.000000
23915730.000000,40337390.000000
23903169.000000,40349951.000000
23826668.000000,40452026.000000
23818130.000000,40467621.000000
23772976.000000,40588069.000000
23769349.000000,40603324.000000
23763823.000000,40654189.000000
23763454.000000,40661003.000000
23763454.000000,40937750.000000
23767929.000000,40952989.000000
23769319.000000,40954194.000000
23777002.000000,40955865.000000
27499458.000000,40955865.000000
27514697.000000,40951390.000000
27515902.000000,40950000.000000
27517573.000000,40942317.000000
27517573.000000,40661006.000000
27517203.000000,40654185.000000
27511679.000000,40603323.000000
27508053.000000,40588071.000000
27462898.000000,40467621.000000
27454360.000000,40452026.000000
27377859.000000,40349951.000000
27365298.000000,40337390.000000
27329076.000000,40310243.000000
27286561.000000,40253384.000000
27281535.000000,40182565.000000
27315595.000000,40120272.000000
27329070.000000,40108596.000000
27372835.000000,40075796.000000
27454164.000000,39967279.000000
27511022.000000,39924765.000000
27554989.000000,39916845.000000
28273082.000000,39916845.000000
28281652.000000,39917137.000000
28331770.000000,39920554.000000
28331774.000000,39920554.000000
28339346.000000,39921070.000000
28346823.000000,39919765.000000
28346824.000000,39919765.000000
28373302.000000,39915144.000000
28402297.000000,39910083.000000
28408815.000000,39909122.000000
28472236.000000,39901447.000000
28479337.000000,39898764.000000
28481946.000000,39898123.000000
28498256.000000,39893660.000000
28500792.000000,39892895.000000
28508278.000000,39891588.000000
28566794.000000,39865901.000000
28572898.000000,39863410.000000
28625542.000000,39843518.000000
28625543.000000,39843517.000000
28632650.000000,39840832.000000
28638913.000000,39836528.000000
28641279.000000,39835291.000000
28656091.000000,39827046.000000
28658345.000000,39825713.000000
28665299.000000,39822660.000000
28715996.000000,39783758.000000
28721326.000000,39779886.000000
28767714.000000,39748006.000000
28767719.000000,39748001.000000
28773975.000000,39743702.000000
28815430.000000,39697174.000000
28820410.000000,39691899.000000
30580742.000000,37931568.000000
30587007.000000,37925714.000000
30624878.000000,37892677.000000
30624879.000000,37892676.000000
30630599.000000,37887686.000000
30667350.000000,37835396.000000
30671242.000000,37830154.000000
30710690.000000,37779843.000000
30713814.000000,37772924.000000
30715202.000000,37770632.000000
30723571.000000,37755960.000000
30724836.000000,37753600.000000
30729204.000000,37747386.000000
30752417.000000,37687848.000000
30754973.000000,37681767.000000
30778132.000000,37630477.000000
30781259.000000,37623552.000000
30782644.000000,37616079.000000
30783448.000000,37613513.000000
30788069.000000,37597290.000000
30788734.000000,37594698.000000
30791496.000000,37587616.000000
30799836.000000,37524264.000000
30800868.000000,37517748.000000
30811125.000000,37462406.000000
30812509.000000,37454939.000000
30808923.000000,37392745.000000
30808714.000000,37385492.000000
30808714.000000,34059052.000000
30809006.000000,34050483.000000
30812424.000000,34000350.000000
30812424.000000,34000346.000000
30812940.000000,33992773.000000
30801950.000000,33929806.000000
30800989.000000,33923290.000000
30794228.000000,33867423.000000
30793316.000000,33859883.000000
30790633.000000,33852782.000000
30789992.000000,33850173.000000
30785527.000000,33833853.000000
30784762.000000,33831320.000000
30783457.000000,33823842.000000
30757766.000000,33765315.000000
30755281.000000,33759227.000000
30735386.000000,33706574.000000
30735385.000000,33706572.000000
30732701.000000,33699469.000000
30728400.000000,33693210.000000
30727163.000000,33690845.000000
30718941.000000,33676073.000000
30717586.000000,33673781.000000
30714530.000000,33666820.000000
30709905.000000,33660793.000000
30709903.000000,33660789.000000
30675621.000000,33616112.000000
30671743.000000,33610775.000000
30669351.000000,33607294.000000
31130725.000000,33607294.000000
31131095.000000,33614115.000000
31136619.000000,33664977.000000
31140245.000000,33680229.000000
31185400.000000,33800679.000000
31193938.000000,33816274.000000
31270439.000000,33918349.000000
31283000.000000,33930910.000000
31385075.000000,34007411.000000
31400670.000000,34015949.000000
31521118.000000,34061103.000000
31536373.000000,34064730.000000
31587238.000000,34070256.000000
31594052.000000,34070625.000000
32866479.000000,34070625.000000
32881718.000000,34066150.000000
32882923.000000,34064760.000000
32884594.000000,34057077.000000
32884594.000000,33084740.000000
32880119.000000,33069501.000000
32878729.000000,33068296.000000
32871046.000000,33066625.000000
31148840.000000,33066625.000000
31133601.000000,33071100.000000
31132396.000000,33072490.000000
31130725.000000,33080173.000000
31130725.000000,33607294.000000
30669351.000000,33607294.000000
30660728.000000,33594747.000000
30635571.000000,33558144.000000
30589052.000000,33516697.000000
30583777.000000,33511717.000000
29714732.000000,32642672.000000
28824956.000000,31752897.000000
28790931.000000,31690585.000000
28795995.000000,31619770.000000
28838542.000000,31562934.000000
28905062.000000,31538123.000000
28914062.000000,31537802.000000
31144650.000000,31538189.000000
31145013.000000,31538189.000000
31213130.000000,31558203.000000
31259614.000000,31611867.000000
31269705.000000,31682142.000000
31245817.000000,31739754.000000
31193938.000000,31808976.000000
31185400.000000,31824571.000000
31140246.000000,31945019.000000
31136619.000000,31960274.000000
31131093.000000,32011139.000000
31130724.000000,32017953.000000
31130724.000000,32540510.000000
31135199.000000,32555749.000000
31136589.000000,32556954.000000
31144272.000000,32558625.000000
33266594.000000,32558625.000000
33334715.000000,32578627.000000
33381208.000000,32632283.000000
33392594.000000,32684625.000000
33392594.000000,34052509.000000
33397069.000000,34067748.000000
33398459.000000,34068953.000000
33406142.000000,34070624.000000
34627452.000000,34070624.000000
34695573.000000,34090626.000000
34742066.000000,34144282.000000
34753452.000000,34196484.000000
34762384.000000,42223485.000000
34742458.000000,42291628.000000
34688854.000000,42338180.000000
34636384.000000,42349625.000000
33410709.000000,42349625.000000
33395470.000000,42354100.000000
33394265.000000,42355490.000000
33392594.000000,42363173.000000
33392594.000000,44847509.000000
33397069.000000,44862748.000000
33398459.000000,44863953.000000
33406142.000000,44865624.000000
34639465.000000,44865624.000000
34707586.000000,44885626.000000
34754079.000000,44939282.000000
34765465.000000,44991483.000000
34776417.000000,54833307.000000
34781655.000000,59540974.000000
34780155.000000,59560499.000000
34777900.000000,59574979.000000
34777900.000000,59574983.000000
34776519.000000,59583852.000000
34778177.000000,59596533.000000
34778760.000000,59623844.000000
34766088.000000,59768678.000000
34762275.000000,59790307.000000
34718737.000000,59952793.000000
34711225.000000,59973432.000000
34640132.000000,60125890.000000
34629156.000000,60144901.000000
34623119.000000,60153523.000000
34532667.000000,60282700.000000
34518549.000000,60299524.000000
34399611.000000,60418462.000000
34382787.000000,60432580.000000
34244992.000000,60529065.000000
34225971.000000,60540047.000000
34073518.000000,60611137.000000
34052881.000000,60618648.000000
33890393.000000,60662187.000000
33868773.000000,60665999.000000
33730799.000000,60678070.000000
33714336.000000,60677516.000000
33714331.000000,60677925.000000
33705363.000000,60677815.000000
33696490.000000,60676434.000000
33687588.000000,60677598.000000
33664794.000000,60680578.000000
33648508.000000,60681641.000000
11650873.000000,60690233.000000
11631446.000000,60688734.000000
11607868.000000,60685062.000000
11595195.000000,60686719.000000
11567876.000000,60687303.000000
11423033.000000,60674628.000000
11401408.000000,60670814.000000
11394020.000000,60668834.000000
11238922.000000,60627274.000000
11218294.000000,60619766.000000
11065832.000000,60548669.000000
11046820.000000,60537693.000000
10909017.000000,60441202.000000
10892193.000000,60427084.000000
10773255.000000,60308146.000000
10759137.000000,60291322.000000
10742503.000000,60267566.000000
10662646.000000,60153519.000000
10651667.000000,60134503.000000
10580573.000000,59982045.000000
10573063.000000,59961412.000000
10570754.000000,59952793.000000
10529525.000000,59798931.000000
10525711.000000,59777304.000000
10524332.000000,59761545.000000
10513639.000000,59639356.000000
10514193.000000,59622876.000000
10513786.000000,59622871.000000
10513896.000000,59613894.000000
10515277.000000,59605023.000000
10514113.000000,59596122.000000
10514113.000000,59596116.000000
10511159.000000,59573529.000000
10510095.000000,59557169.000000
10510199.000000,58996247.000000
10530214.000000,58928130.000000
10583878.000000,58881647.000000
10654154.000000,58871556.000000
10718729.000000,58901061.000000
10725294.000000,58907175.000000
11348764.000000,59530645.000000
11354618.000000,59536910.000000
11392653.000000,59580510.000000
11431545.000000,59607844.000000
11444933.000000,59617253.000000
11450228.000000,59621186.000000
11500496.000000,59660601.000000
11507412.000000,59663724.000000
11509698.000000,59665108.000000
11524379.000000,59673482.000000
11526739.000000,59674747.000000
11532953.000000,59679115.000000
11540032.000000,59681875.000000
11540034.000000,59681876.000000
11592489.000000,59702327.000000
11598558.000000,59704878.000000
11656787.000000,59731170.000000
11664254.000000,59732554.000000
11666809.000000,59733355.000000
11683062.000000,59737984.000000
11685642.000000,59738647.000000
11692723.000000,59741407.000000
11700254.000000,59742398.000000
11700256.000000,59742399.000000
11729875.000000,59746298.000000
11756075.000000,59749747.000000
11762573.000000,59750777.000000
11825400.000000,59762421.000000
11832980.000000,59761984.000000
11832981.000000,59761984.000000
11887606.000000,59758834.000000
11894860.000000,59758625.000000
21701302.000000,59758625.000000
21709872.000000,59758917.000000
21759990.000000,59762334.000000
21759994.000000,59762334.000000
21767566.000000,59762850.000000
21775043.000000,59761545.000000
21775044.000000,59761545.000000
21801522.000000,59756924.000000
21830517.000000,59751863.000000
21837035.000000,59750902.000000
21900456.000000,59743227.000000
21907557.000000,59740544.000000
21910166.000000,59739903.000000
21926476.000000,59735440.000000
21929012.000000,59734675.000000
21936498.000000,59733368.000000
21995014.000000,59707681.000000
22001118.000000,59705190.000000
22053762.000000,59685298.000000
22053763.000000,59685297.000000
22060870.000000,59682612.000000
22067133.000000,59678308.000000
22069499.000000,59677071.000000
22084311.000000,59668826.000000
22086565.000000,59667493.000000
22093519.000000,59664440.000000
22144216.000000,59625538.000000
22149546.000000,59621666.000000
22195934.000000,59589786.000000
22195939.000000,59589781.000000
22202195.000000,59585482.000000
22243650.000000,59538954.000000
22248630.000000,59533679.000000
25556779.000000,56225530.000000
25619091.000000,56191504.000000
25645874.000000,56188625.000000
27548348.000000,56188625.000000
27610530.000000,56181870.000000
27746919.000000,56130740.000000
27863475.000000,56043386.000000
27950829.000000,55926830.000000
27978325.000000,55853484.000000
28791600.000000,55853484.000000
28800313.000000,55865004.000000
28888800.000000,55929885.000000
28896719.000000,55934833.000000
29113091.000000,56048672.000000
29121665.000000,56052400.000000
29352496.000000,56133010.000000
29361505.000000,56135424.000000
29601732.000000,56181033.000000
29610989.000000,56182087.000000
29855321.000000,56191688.000000
29864634.000000,56191362.000000
30107692.000000,56164743.000000
30116869.000000,56163042.000000
30353321.000000,56100790.000000
30362140.000000,56097753.000000
30586798.000000,56001232.000000
30595070.000000,55996925.000000
30802991.000000,55868260.000000
30804834.000000,55866921.000000
30812252.000000,55855666.000000
30806188.000000,55845309.000000
29813026.000000,54852147.000000
29799082.000000,54844533.000000
29797249.000000,54844664.000000
29790634.000000,54848915.000000
28798258.000000,55841291.000000
28791600.000000,55853484.000000
27978325.000000,55853484.000000
28001959.000000,55790441.000000
28008714.000000,55728259.000000
28008714.000000,55255406.000000
28028716.000000,55187285.000000
28082372.000000,55140792.000000
28152646.000000,55130688.000000
28217226.000000,55160182.000000
28245706.000000,55195768.000000
28353448.000000,55396285.000000
28358459.000000,55404152.000000
28415387.000000,55480388.000000
28426645.000000,55488837.000000
28439064.000000,55482065.000000
29428192.000000,54492937.000000
29434570.000000,54481257.000000
30164622.000000,54481257.000000
30164753.000000,54483090.000000
30169004.000000,54489705.000000
31163946.000000,55484647.000000
31176326.000000,55491407.000000
31184667.000000,55485163.000000
31302914.000000,55301327.000000
31307361.000000,55293136.000000
31407786.000000,55070201.000000
31410981.000000,55061423.000000
31477349.000000,54826098.000000
31479207.000000,54816969.000000
31510258.000000,54572895.000000
31510739.000000,54566608.000000
31512920.000000,54483285.000000
31512769.000000,54476976.000000
31494535.000000,54231611.000000
31493158.000000,54222405.000000
31439193.000000,53983911.000000
31436469.000000,53975000.000000
31347847.000000,53747108.000000
31343833.000000,53738692.000000
31222498.000000,53526401.000000
31217288.000000,53518678.000000
31186001.000000,53478990.000000
31174077.000000,53470520.000000
31162542.000000,53477007.000000
30172236.000000,54467313.000000
30164622.000000,54481257.000000
29434570.000000,54481257.000000
29435806.000000,54478993.000000
29435675.000000,54477160.000000
29431424.000000,54470545.000000
28437042.000000,53476163.000000
28423734.000000,53468896.000000
28413695.000000,53476018.000000
28408795.000000,53481909.000000
28403382.000000,53489498.000000
28276536.000000,53698534.000000
28272296.000000,53706855.000000
28250911.000000,53757853.000000
28206123.000000,53812939.000000
28138662.000000,53835066.000000
28069948.000000,53817208.000000
28021797.000000,53765036.000000
28008714.000000,53709128.000000
28008714.000000,53231991.000000
28001959.000000,53169809.000000
27977679.000000,53105042.000000
28789544.000000,53105042.000000
28794117.000000,53114818.000000
29787402.000000,54108103.000000
29801346.000000,54115717.000000
29803179.000000,54115586.000000
29809794.000000,54111335.000000
30802702.000000,53118427.000000
30809086.000000,53106737.000000
30799674.000000,53094627.000000
30673358.000000,53006998.000000
30665330.000000,53002270.000000
30446024.000000,52894120.000000
30437391.000000,52890632.000000
30204502.000000,52816083.000000
30195452.000000,52813910.000000
29954105.000000,52774605.000000
29944816.000000,52773793.000000
29700328.000000,52770592.000000
29691017.000000,52771162.000000
29448736.000000,52804135.000000
29439617.000000,52806073.000000
29204882.000000,52874492.000000
29196129.000000,52877764.000000
28974083.000000,52980129.000000
28965928.000000,52984649.000000
28798682.000000,53094300.000000
28789544.000000,53105042.000000
27977679.000000,53105042.000000
27950829.000000,53033420.000000
27863475.000000,52916864.000000
27746919.000000,52829510.000000
27610530.000000,52778380.000000
27548348.000000,52771625.000000
25052080.000000,52771625.000000
24989898.000000,52778380.000000
24853509.000000,52829510.000000
24736953.000000,52916864.000000
24649599.000000,53033420.000000
24598469.000000,53169809.000000
24591714.000000,53231991.000000
24591714.000000,55134465.000000
24571712.000000,55202586.000000
24554809.000000,55223560.000000
21473649.000000,58304720.000000
21411337.000000,58338746.000000
21384554.000000,58341625.000000
12215874.000000,58341625.000000
12147753.000000,58321623.000000
12126779.000000,58304720.000000
11875619.000000,58053560.000000
11841593.000000,57991248.000000
11838714.000000,57964465.000000
11838714.000000,11765785.000000
11858716.000000,11697664.000000
11875619.000000,11676690.000000
12266924.000000,11285385.000000
12329236.000000,11251359.000000
12356019.000000,11248480.000000
12370200.000000,11248480.000000
Z" /> 
</g>
</g>
</g>
<g style="fill:#FFFFFF; fill-opacity:1.0; 
stroke:#FFFFFF; stroke-width:1.000000; stroke-opacity:1; 
stroke-linecap:round; stroke-linejoin:round;">
<circle cx="26300214.000000" cy="54480125.000000" r="600000.000000" /> 
</g>
<g style="fill:#FFFFFF; fill-opacity:1.0; 
stroke:#FFFFFF; stroke-width:21200.000000; stroke-opacity:1; 
stroke-linecap:round; stroke-linejoin:round;">
</g>
<g style="fill:#FFFFFF; fill-opacity:1.0; 
stroke:#FFFFFF; stroke-width:1.000000; stroke-opacity:1; 
stroke-linecap:round; stroke-linejoin:round;">
<circle cx="29800214.000000" cy="54480125.000000" r="600000.000000" /> 
</g>
<g style="fill:#FFFFFF; fill-opacity:1.0; 
stroke:#FFFFFF; stroke-width:21200.000000; stroke-opacity:1; 
stroke-linecap:round; stroke-linejoin:round;">
</g>
<g style="fill:#FFFFFF; fill-opacity:1.0; 
stroke:#FFFFFF; stroke-width:1.000000; stroke-opacity:1; 
stroke-linecap:round; stroke-linejoin:round;">
<circle cx="13599966.000000" cy="7999980.000000" r="500000.000000" /> 
</g>
<g style="fill:#FFFFFF; fill-opacity:1.0; 
stroke:#FFFFFF; stroke-width:21200.000000; stroke-opacity:1; 
stroke-linecap:round; stroke-linejoin:round;">
</g>
<g style="fill:#FFFFFF; fill-opacity:1.0; 
stroke:#FFFFFF; stroke-width:1.000000; stroke-opacity:1; 
stroke-linecap:round; stroke-linejoin:round;">
<circle cx="16139966.000000" cy="7999980.000000" r="500000.000000" /> 
</g>
<g style="fill:#FFFFFF; fill-opacity:1.0; 
stroke:#FFFFFF; stroke-width:21200.000000; stroke-opacity:1; 
stroke-linecap:round; stroke-linejoin:round;">
</g>
<g style="fill:#FFFFFF; fill-opacity:1.0; 
stroke:#FFFFFF; stroke-width:1.000000; stroke-opacity:1; 
stroke-linecap:round; stroke-linejoin:round;">
<circle cx="13599966.000000" cy="10539980.000000" r="500000.000000" /> 
</g>
<g style="fill:#FFFFFF; fill-opacity:1.0; 
stroke:#FFFFFF; stroke-width:21200.000000; stroke-opacity:1; 
stroke-linecap:round; stroke-linejoin:round;">
</g>
<g style="fill:#FFFFFF; fill-opacity:1.0; 
stroke:#FFFFFF; stroke-width:1.000000; stroke-opacity:1; 
stroke-linecap:round; stroke-linejoin:round;">
<circle cx="16139966.000000" cy="10539980.000000" r="500000.000000" /> 
</g>
<g style="fill:#FFFFFF; fill-opacity:1.0; 
stroke:#FFFFFF; stroke-width:21200.000000; stroke-opacity:1; 
stroke-linecap:round; stroke-linejoin:round;">
</g>
<g style="fill:#FFFFFF; fill-opacity:1.0; 
stroke:#FFFFFF; stroke-width:1.000000; stroke-opacity:1; 
stroke-linecap:round; stroke-linejoin:round;">
<circle cx="13599966.000000" cy="13079980.000000" r="500000.000000" /> 
</g>
<g style="fill:#FFFFFF; fill-opacity:1.0; 
stroke:#FFFFFF; stroke-width:21200.000000; stroke-opacity:1; 
stroke-linecap:round; stroke-linejoin:round;">
</g>
<g style="fill:#FFFFFF; fill-opacity:1.0; 
stroke:#FFFFFF; stroke-width:1.000000; stroke-opacity:1; 
stroke-linecap:round; stroke-linejoin:round;">
<circle cx="16139966.000000" cy="13079980.000000" r="500000.000000" /> 
</g>
<g style="fill:#FFFFFF; fill-opacity:1.0; 
stroke:#FFFFFF; stroke-width:21200.000000; stroke-opacity:1; 
stroke-linecap:round; stroke-linejoin:round;">
</g>
<g style="fill:#FFFFFF; fill-opacity:1.0; 
stroke:#FFFFFF; stroke-width:1.000000; stroke-opacity:1; 
stroke-linecap:round; stroke-linejoin:round;">
<circle cx="13599966.000000" cy="15619980.000000" r="500000.000000" /> 
</g>
<g style="fill:#FFFFFF; fill-opacity:1.0; 
stroke:#FFFFFF; stroke-width:21200.000000; stroke-opacity:1; 
stroke-linecap:round; stroke-linejoin:round;">
</g>
<g style="fill:#FFFFFF; fill-opacity:1.0; 
stroke:#FFFFFF; stroke-width:1.000000; stroke-opacity:1; 
stroke-linecap:round; stroke-linejoin:round;">
<circle cx="16139966.000000" cy="15619980.000000" r="500000.000000" /> 
</g>
<g style="fill:#FFFFFF; fill-opacity:1.0; 
stroke:#FFFFFF; stroke-width:21200.000000; stroke-opacity:1; 
stroke-linecap:round; stroke-linejoin:round;">
</g>
<g style="fill:#FFFFFF; fill-opacity:1.0; 
stroke:#FFFFFF; stroke-width:1.000000; stroke-opacity:1; 
stroke-linecap:round; stroke-linejoin:round;">
<circle cx="13599966.000000" cy="18159980.000000" r="500000.000000" /> 
</g>
<g style="fill:#FFFFFF; fill-opacity:1.0; 
stroke:#FFFFFF; stroke-width:21200.000000; stroke-opacity:1; 
stroke-linecap:round; stroke-linejoin:round;">
</g>
<g style="fill:#FFFFFF; fill-opacity:1.0; 
stroke:#FFFFFF; stroke-width:1.000000; stroke-opacity:1; 
stroke-linecap:round; stroke-linejoin:round;">
<circle cx="16139966.000000" cy="18159980.000000" r="500000.000000" /> 
</g>
<g style="fill:#FFFFFF; fill-opacity:1.0; 
stroke:#FFFFFF; stroke-width:21200.000000; stroke-opacity:1; 
stroke-linecap:round; stroke-linejoin:round;">
</g>
<g style="fill:#FFFFFF; fill-opacity:1.0; 
stroke:#FFFFFF; stroke-width:1.000000; stroke-opacity:1; 
stroke-linecap:round; stroke-linejoin:round;">
<circle cx="13599966.000000" cy="20699980.000000" r="500000.000000" /> 
</g>
<g style="fill:#FFFFFF; fill-opacity:1.0; 
stroke:#FFFFFF; stroke-width:21200.000000; stroke-opacity:1; 
stroke-linecap:round; stroke-linejoin:round;">
</g>
<g style="fill:#FFFFFF; fill-opacity:1.0; 
stroke:#FFFFFF; stroke-width:1.000000; stroke-opacity:1; 
stroke-linecap:round; stroke-linejoin:round;">
<circle cx="16139966.000000" cy="20699980.000000" r="500000.000000" /> 
</g>
<g style="fill:#FFFFFF; fill-opacity:1.0; 
stroke:#FFFFFF; stroke-width:21200.000000; stroke-opacity:1; 
stroke-linecap:round; stroke-linejoin:round;">
</g>
<g style="fill:#FFFFFF; fill-opacity:1.0; 
stroke:#FFFFFF; stroke-width:1.000000; stroke-opacity:1; 
stroke-linecap:round; stroke-linejoin:round;">
<circle cx="13599966.000000" cy="23239980.000000" r="500000.000000" /> 
</g>
<g style="fill:#FFFFFF; fill-opacity:1.0; 
stroke:#FFFFFF; stroke-width:21200.000000; stroke-opacity:1; 
stroke-linecap:round; stroke-linejoin:round;">
</g>
<g style="fill:#FFFFFF; fill-opacity:1.0; 
stroke:#FFFFFF; stroke-width:1.000000; stroke-opacity:1; 
stroke-linecap:round; stroke-linejoin:round;">
<circle cx="16139966.000000" cy="23239980.000000" r="500000.000000" /> 
</g>
<g style="fill:#FFFFFF; fill-opacity:1.0; 
stroke:#FFFFFF; stroke-width:21200.000000; stroke-opacity:1; 
stroke-linecap:round; stroke-linejoin:round;">
</g>
<g style="fill:#FFFFFF; fill-opacity:1.0; 
stroke:#FFFFFF; stroke-width:1.000000; stroke-opacity:1; 
stroke-linecap:round; stroke-linejoin:round;">
<circle cx="13599966.000000" cy="25779980.000000" r="500000.000000" /> 
</g>
<g style="fill:#FFFFFF; fill-opacity:1.0; 
stroke:#FFFFFF; stroke-width:21200.000000; stroke-opacity:1; 
stroke-linecap:round; stroke-linejoin:round;">
</g>
<g style="fill:#FFFFFF; fill-opacity:1.0; 
stroke:#FFFFFF; stroke-width:1.000000; stroke-opacity:1; 
stroke-linecap:round; stroke-linejoin:round;">
<circle cx="16139966.000000" cy="25779980.000000" r="500000.000000" /> 
</g>
<g style="fill:#FFFFFF; fill-opacity:1.0; 
stroke:#FFFFFF; stroke-width:21200.000000; stroke-opacity:1; 
stroke-linecap:round; stroke-linejoin:round;">
</g>
<g style="fill:#FFFFFF; fill-opacity:1.0; 
stroke:#FFFFFF; stroke-width:1.000000; stroke-opacity:1; 
stroke-linecap:round; stroke-linejoin:round;">
<circle cx="13599966.000000" cy="28319980.000000" r="500000.000000" /> 
</g>
<g style="fill:#FFFFFF; fill-opacity:1.0; 
stroke:#FFFFFF; stroke-width:21200.000000; stroke-opacity:1; 
stroke-linecap:round; stroke-linejoin:round;">
</g>
<g style="fill:#FFFFFF; fill-opacity:1.0; 
stroke:#FFFFFF; stroke-width:1.000000; stroke-opacity:1; 
stroke-linecap:round; stroke-linejoin:round;">
<circle cx="16139966.000000" cy="28319980.000000" r="500000.000000" /> 
</g>
<g style="fill:#FFFFFF; fill-opacity:1.0; 
stroke:#FFFFFF; stroke-width:21200.000000; stroke-opacity:1; 
stroke-linecap:round; stroke-linejoin:round;">
</g>
<g style="fill:#FFFFFF; fill-opacity:1.0; 
stroke:#FFFFFF; stroke-width:1.000000; stroke-opacity:1; 
stroke-linecap:round; stroke-linejoin:round;">
<circle cx="13599966.000000" cy="30859980.000000" r="500000.000000" /> 
</g>
<g style="fill:#FFFFFF; fill-opacity:1.0; 
stroke:#FFFFFF; stroke-width:21200.000000; stroke-opacity:1; 
stroke-linecap:round; stroke-linejoin:round;">
</g>
<g style="fill:#FFFFFF; fill-opacity:1.0; 
stroke:#FFFFFF; stroke-width:1.000000; stroke-opacity:1; 
stroke-linecap:round; stroke-linejoin:round;">
<circle cx="16139966.000000" cy="30859980.000000" r="500000.000000" /> 
</g>
<g style="fill:#FFFFFF; fill-opacity:1.0; 
stroke:#FFFFFF; stroke-width:21200.000000; stroke-opacity:1; 
stroke-linecap:round; stroke-linejoin:round;">
</g>
<g style="fill:#FFFFFF; fill-opacity:1.0; 
stroke:#FFFFFF; stroke-width:1.000000; stroke-opacity:1; 
stroke-linecap:round; stroke-linejoin:round;">
<circle cx="13599966.000000" cy="33399980.000000" r="500000.000000" /> 
</g>
<g style="fill:#FFFFFF; fill-opacity:1.0; 
stroke:#FFFFFF; stroke-width:21200.000000; stroke-opacity:1; 
stroke-linecap:round; stroke-linejoin:round;">
</g>
<g style="fill:#FFFFFF; fill-opacity:1.0; 
stroke:#FFFFFF; stroke-width:1.000000; stroke-opacity:1; 
stroke-linecap:round; stroke-linejoin:round;">
<circle cx="16139966.000000" cy="33399980.000000" r="500000.000000" /> 
</g>
<g style="fill:#FFFFFF; fill-opacity:1.0; 
stroke:#FFFFFF; stroke-width:21200.000000; stroke-opacity:1; 
stroke-linecap:round; stroke-linejoin:round;">
</g>
<g style="fill:#FFFFFF; fill-opacity:1.0; 
stroke:#FFFFFF; stroke-width:1.000000; stroke-opacity:1; 
stroke-linecap:round; stroke-linejoin:round;">
<circle cx="13599966.000000" cy="35939980.000000" r="500000.000000" /> 
</g>
<g style="fill:#FFFFFF; fill-opacity:1.0; 
stroke:#FFFFFF; stroke-width:21200.000000; stroke-opacity:1; 
stroke-linecap:round; stroke-linejoin:round;">
</g>
<g style="fill:#FFFFFF; fill-opacity:1.0; 
stroke:#FFFFFF; stroke-width:1.000000; stroke-opacity:1; 
stroke-linecap:round; stroke-linejoin:round;">
<circle cx="16139966.000000" cy="35939980.000000" r="500000.000000" /> 
</g>
<g style="fill:#FFFFFF; fill-opacity:1.0; 
stroke:#FFFFFF; stroke-width:21200.000000; stroke-opacity:1; 
stroke-linecap:round; stroke-linejoin:round;">
</g>
<g style="fill:#FFFFFF; fill-opacity:1.0; 
stroke:#FFFFFF; stroke-width:1.000000; stroke-opacity:1; 
stroke-linecap:round; stroke-linejoin:round;">
<circle cx="13599966.000000" cy="38479980.000000" r="500000.000000" /> 
</g>
<g style="fill:#FFFFFF; fill-opacity:1.0; 
stroke:#FFFFFF; stroke-width:21200.000000; stroke-opacity:1; 
stroke-linecap:round; stroke-linejoin:round;">
</g>
<g style="fill:#FFFFFF; fill-opacity:1.0; 
stroke:#FFFFFF; stroke-width:1.000000; stroke-opacity:1; 
stroke-linecap:round; stroke-linejoin:round;">
<circle cx="16139966.000000" cy="38479980.000000" r="500000.000000" /> 
</g>
<g style="fill:#FFFFFF; fill-opacity:1.0; 
stroke:#FFFFFF; stroke-width:21200.000000; stroke-opacity:1; 
stroke-linecap:round; stroke-linejoin:round;">
</g>
<g style="fill:#FFFFFF; fill-opacity:1.0; 
stroke:#FFFFFF; stroke-width:1.000000; stroke-opacity:1; 
stroke-linecap:round; stroke-linejoin:round;">
<circle cx="13599966.000000" cy="41019980.000000" r="500000.000000" /> 
</g>
<g style="fill:#FFFFFF; fill-opacity:1.0; 
stroke:#FFFFFF; stroke-width:21200.000000; stroke-opacity:1; 
stroke-linecap:round; stroke-linejoin:round;">
</g>
<g style="fill:#FFFFFF; fill-opacity:1.0; 
stroke:#FFFFFF; stroke-width:1.000000; stroke-opacity:1; 
stroke-linecap:round; stroke-linejoin:round;">
<circle cx="16139966.000000" cy="41019980.000000" r="500000.000000" /> 
</g>
<g style="fill:#FFFFFF; fill-opacity:1.0; 
stroke:#FFFFFF; stroke-width:21200.000000; stroke-opacity:1; 
stroke-linecap:round; stroke-linejoin:round;">
</g>
<g style="fill:#FFFFFF; fill-opacity:1.0; 
stroke:#FFFFFF; stroke-width:1.000000; stroke-opacity:1; 
stroke-linecap:round; stroke-linejoin:round;">
<circle cx="13599966.000000" cy="43559980.000000" r="500000.000000" /> 
</g>
<g style="fill:#FFFFFF; fill-opacity:1.0; 
stroke:#FFFFFF; stroke-width:21200.000000; stroke-opacity:1; 
stroke-linecap:round; stroke-linejoin:round;">
</g>
<g style="fill:#FFFFFF; fill-opacity:1.0; 
stroke:#FFFFFF; stroke-width:1.000000; stroke-opacity:1; 
stroke-linecap:round; stroke-linejoin:round;">
<circle cx="16139966.000000" cy="43559980.000000" r="500000.000000" /> 
</g>
<g style="fill:#FFFFFF; fill-opacity:1.0; 
stroke:#FFFFFF; stroke-width:21200.000000; stroke-opacity:1; 
stroke-linecap:round; stroke-linejoin:round;">
</g>
<g style="fill:#FFFFFF; fill-opacity:1.0; 
stroke:#FFFFFF; stroke-width:1.000000; stroke-opacity:1; 
stroke-linecap:round; stroke-linejoin:round;">
<circle cx="13599966.000000" cy="46099980.000000" r="500000.000000" /> 
</g>
<g style="fill:#FFFFFF; fill-opacity:1.0; 
stroke:#FFFFFF; stroke-width:21200.000000; stroke-opacity:1; 
stroke-linecap:round; stroke-linejoin:round;">
</g>
<g style="fill:#FFFFFF; fill-opacity:1.0; 
stroke:#FFFFFF; stroke-width:1.000000; stroke-opacity:1; 
stroke-linecap:round; stroke-linejoin:round;">
<circle cx="16139966.000000" cy="46099980.000000" r="500000.000000" /> 
</g>
<g style="fill:#FFFFFF; fill-opacity:1.0; 
stroke:#FFFFFF; stroke-width:21200.000000; stroke-opacity:1; 
stroke-linecap:round; stroke-linejoin:round;">
</g>
<g style="fill:#FFFFFF; fill-opacity:1.0; 
stroke:#FFFFFF; stroke-width:1.000000; stroke-opacity:1; 
stroke-linecap:round; stroke-linejoin:round;">
<circle cx="13599966.000000" cy="48639980.000000" r="500000.000000" /> 
</g>
<g style="fill:#FFFFFF; fill-opacity:1.0; 
stroke:#FFFFFF; stroke-width:21200.000000; stroke-opacity:1; 
stroke-linecap:round; stroke-linejoin:round;">
</g>
<g style="fill:#FFFFFF; fill-opacity:1.0; 
stroke:#FFFFFF; stroke-width:1.000000; stroke-opacity:1; 
stroke-linecap:round; stroke-linejoin:round;">
<circle cx="16139966.000000" cy="48639980.000000" r="500000.000000" /> 
</g>
<g style="fill:#FFFFFF; fill-opacity:1.0; 
stroke:#FFFFFF; stroke-width:21200.000000; stroke-opacity:1; 
stroke-linecap:round; stroke-linejoin:round;">
</g>
<g style="fill:#FFFFFF; fill-opacity:1.0; 
stroke:#FFFFFF; stroke-width:1.000000; stroke-opacity:1; 
stroke-linecap:round; stroke-linejoin:round;">
<circle cx="13599966.000000" cy="51179980.000000" r="500000.000000" /> 
</g>
<g style="fill:#FFFFFF; fill-opacity:1.0; 
stroke:#FFFFFF; stroke-width:21200.000000; stroke-opacity:1; 
stroke-linecap:round; stroke-linejoin:round;">
</g>
<g style="fill:#FFFFFF; fill-opacity:1.0; 
stroke:#FFFFFF; stroke-width:1.000000; stroke-opacity:1; 
stroke-linecap:round; stroke-linejoin:round;">
<circle cx="16139966.000000" cy="51179980.000000" r="500000.000000" /> 
</g>
<g style="fill:#FFFFFF; fill-opacity:1.0; 
stroke:#FFFFFF; stroke-width:21200.000000; stroke-opacity:1; 
stroke-linecap:round; stroke-linejoin:round;">
</g>
<g style="fill:#FFFFFF; fill-opacity:1.0; 
stroke:#FFFFFF; stroke-width:1.000000; stroke-opacity:1; 
stroke-linecap:round; stroke-linejoin:round;">
<circle cx="13599966.000000" cy="53719980.000000" r="500000.000000" /> 
</g>
<g style="fill:#FFFFFF; fill-opacity:1.0; 
stroke:#FFFFFF; stroke-width:21200.000000; stroke-opacity:1; 
stroke-linecap:round; stroke-linejoin:round;">
</g>
<g style="fill:#FFFFFF; fill-opacity:1.0; 
stroke:#FFFFFF; stroke-width:1.000000; stroke-opacity:1; 
stroke-linecap:round; stroke-linejoin:round;">
<circle cx="16139966.000000" cy="53719980.000000" r="500000.000000" /> 
</g>
<g style="fill:#FFFFFF; fill-opacity:1.0; 
stroke:#FFFFFF; stroke-width:21200.000000; stroke-opacity:1; 
stroke-linecap:round; stroke-linejoin:round;">
</g>
<g style="fill:#FFFFFF; fill-opacity:1.0; 
stroke:#FFFFFF; stroke-width:1.000000; stroke-opacity:1; 
stroke-linecap:round; stroke-linejoin:round;">
<circle cx="13599966.000000" cy="56259980.000000" r="500000.000000" /> 
</g>
<g style="fill:#FFFFFF; fill-opacity:1.0; 
stroke:#FFFFFF; stroke-width:21200.000000; stroke-opacity:1; 
stroke-linecap:round; stroke-linejoin:round;">
</g>
<g style="fill:#FFFFFF; fill-opacity:1.0; 
stroke:#FFFFFF; stroke-width:1.000000; stroke-opacity:1; 
stroke-linecap:round; stroke-linejoin:round;">
<circle cx="16139966.000000" cy="56259980.000000" r="500000.000000" /> 
</g>
<g style="fill:#FFFFFF; fill-opacity:1.0; 
stroke:#FFFFFF; stroke-width:21200.000000; stroke-opacity:1; 
stroke-linecap:round; stroke-linejoin:round;">
</g>
<g style="fill:#000000; fill-opacity:1.0; 
stroke:#000000; stroke-width:21200.000000; stroke-opacity:1; 
stroke-linecap:round; stroke-linejoin:round;">
</g>
<g style="fill:#000000; fill-opacity:0.0; 
stroke:#000000; stroke-width:800000.000000; stroke-opacity:1; 
stroke-linecap:round; stroke-linejoin:round;">
<path d="M24130210.000000 6050125.000000 A1599996.000000 1599996.000000 0.0 0 0 22530218.000000 4450129.000005" />
<path d="M33690214.000000 61190121.000000 A1599996.000000 1599996.000000 0.0 0 0 35290209.999995 59590129.000000" />
<path d="M25741582 31028753
L33660214 31030125
" />
<path d="M11611582 4450129
L22530218 4450129
" />
<path d="M24141586.000320 29428757.000000 A1600028.000000 1600028.000000 0.0 0 0 25741582.000000 31028752.999680" />
<path d="M33690214 61190125
L11601582 61198753
" />
<path d="M10001586.000320 59598757.000000 A1600028.000000 1600028.000000 0.0 0 0 11601582.000000 61198752.999680" />
<path d="M24130214 6050125
L24141586 29428757
" />
<path d="M35260213.999995 32630120.999990 A1600000.000000 1600000.000000 0.0 0 0 33660214.000000 31030125.000000" />
<path d="M10001586 59598757
L10011586 6050125
" />
<path d="M35290210 59590129
L35260210 32630121
" />
<path d="M11611581.999360 4450097.000320 A1600028.000000 1600028.000000 0.0 0 0 10011586.000000 6050125.000000" />
<g >
</g>
<g >
</g>
<g >
</g>
<g >
</g>
<g >
</g>
<g >
</g>
</g> 
</svg>
