0
SECTION
2
HEADER
9
$INSUNITS
70
4
9
$ACADVER
1
AC1014
9
$HANDSEED
5
FFFF
0
ENDSEC
0
SECTION
2
TABLES
0
TABLE
2
VPORT
5
8
100
AcDbSymbolTable
0
ENDTAB
0
TABLE
2
LTYPE
5
5
100
AcDbSymbolTable
0
LTYPE
5
14
100
AcDbSymbolTableRecord
100
AcDbLinetypeTableRecord
2
BYBLOCK
70
0
0
LTYPE
5
15
100
AcDbSymbolTableRecord
100
AcDbLinetypeTableRecord
2
BYLAYER
70
0
0
ENDTAB
0
TABLE
2
LAYER
5
2
100
AcDbSymbolTable
70
2
0
LAYER
5
50
100
AcDbSymbolTableRecord
100
AcDbLayerTableRecord
2
0
70
0
6
CONTINUOUS
0
ENDTAB
0
TABLE
2
STYLE
5
3
100
AcDbSymbolTable
70
1
0
STYLE
5
11
100
AcDbSymbolTableRecord
100
AcDbTextStyleTableRecord
2
STANDARD
70
0
0
ENDTAB
0
TABLE
2
VIEW
5
6
100
AcDbSymbolTable
70
0
0
ENDTAB
0
TABLE
2
UCS
5
7
100
AcDbSymbolTable
70
0
0
ENDTAB
0
TABLE
2
APPID
5
9
100
AcDbSymbolTable
70
2
0
APPID
5
12
100
AcDbSymbolTableRecord
100
AcDbRegAppTableRecord
2
ACAD
70
0
0
ENDTAB
0
TABLE
2
DIMSTYLE
5
A
100
AcDbSymbolTable
70
1
0
ENDTAB
0
TABLE
2
BLOCK_RECORD
5
1
100
AcDbSymbolTable
70
1
0
BLOCK_RECORD
5
1F
100
AcDbSymbolTableRecord
100
AcDbBlockTableRecord
2
*MODEL_SPACE
0
BLOCK_RECORD
5
1B
100
AcDbSymbolTableRecord
100
AcDbBlockTableRecord
2
*PAPER_SPACE
0
ENDTAB
0
ENDSEC
0
SECTION
2
BLOCKS
0
BLOCK
5
20
100
AcDbEntity
100
AcDbBlockBegin
2
*MODEL_SPACE
0
ENDBLK
5
21
100
AcDbEntity
100
AcDbBlockEnd
0
BLOCK
5
1C
100
AcDbEntity
100
AcDbBlockBegin
2
*PAPER_SPACE
0
ENDBLK
5
1D
100
AcDbEntity
100
AcDbBlockEnd
0
ENDSEC
0
SECTION
2
ENTITIES
0
CIRCLE
5
100
100
AcDbEntity
8
0
100
AcDbCircle
10
104.70953943760398
20
-16.680116861538206
30
0
40
4.0000000000000036
210
2.747757496009915e-73
220
5.2035571445774623e-44
230
1
0
CIRCLE
5
101
100
AcDbEntity
8
0
100
AcDbCircle
10
18.70953943760416
20
-52.680116861538231
30
0
40
4.0000000000000018
210
-3.2229981105404671e-62
220
-6.1629758219875893e-33
230
1
0
LWPOLYLINE
5
102
100
AcDbEntity
8
0
100
AcDbPolyline
90
8
70
1
43
0.0
10
-18.000000000002093
20
-58.514583534199417
42
-0.4142135623730957
10
-21.000000000002093
20
-55.514583534199424
10
-21.000000000002089
20
-6.5145835341994225
42
-0.4142135623730937
10
-18.000000000002103
20
-3.5145835341994229
10
125.9999999999979
20
-3.5145835341994291
42
-0.41421356237309348
10
128.9999999999979
20
-6.5145835341994207
10
128.99999999999793
20
-55.514583534199417
42
-0.4142135623730942
10
125.9999999999979
20
-58.514583534199424
0
CIRCLE
5
103
100
AcDbEntity
8
0
100
AcDbCircle
10
72.085786437624904
20
-53.245849424800895
30
0
40
2.2499999999999964
210
0
220
6.1629758220424158e-33
230
1
0
CIRCLE
5
104
100
AcDbEntity
8
0
100
AcDbCircle
10
-14.085786437628677
20
-39.245849424800838
30
0
40
2.2499999999999987
210
-1.5777218104420236e-30
220
3.2610372025077932e-45
230
1
0
CIRCLE
5
105
100
AcDbEntity
8
0
100
AcDbCircle
10
122.08578643762478
20
-9.5458494248008581
30
0
40
2.2499999999999964
210
0
220
6.1629758220424158e-33
230
1
0
CIRCLE
5
106
100
AcDbEntity
8
0
100
AcDbCircle
10
107.0857864376248
20
-53.245849424800859
30
0
40
2.2499999999999964
210
0
220
6.1629758220424158e-33
230
1
0
CIRCLE
5
107
100
AcDbEntity
8
0
100
AcDbCircle
10
-14.085786437628677
20
-9.5458494248008403
30
0
40
2.2500000000000009
210
0
220
6.1629758220424158e-33
230
1
0
CIRCLE
5
108
100
AcDbEntity
8
0
100
AcDbCircle
10
0.91421356237127782
20
-53.245849424800838
30
0
40
2.2500000000000004
210
0
220
3.2610372025077926e-45
230
1
0
CIRCLE
5
109
100
AcDbEntity
8
0
100
AcDbCircle
10
35.914213562371145
20
-53.245849424800895
30
0
40
2.2500000000000009
210
0
220
6.1629758220424158e-33
230
1
0
CIRCLE
5
110
100
AcDbEntity
8
0
100
AcDbCircle
10
122.0857864376248
20
-39.245849424800859
30
0
40
2.2499999999999964
210
0
220
6.1629758220424158e-33
230
1
0
CIRCLE
5
111
100
AcDbEntity
8
0
100
AcDbCircle
10
104.70953943760398
20
-16.680116861538206
30
0
40
4.0000000000000036
210
2.747757496009915e-73
220
5.2035571445774623e-44
230
1
0
CIRCLE
5
112
100
AcDbEntity
8
0
100
AcDbCircle
10
18.70953943760416
20
-52.680116861538231
30
0
40
4.0000000000000018
210
-3.2229981105404671e-62
220
-6.1629758219875893e-33
230
1
0
LWPOLYLINE
5
113
100
AcDbEntity
8
0
100
AcDbPolyline
90
8
70
1
43
0.0
10
-18.000000000002093
20
-58.514583534199417
42
-0.4142135623730957
10
-21.000000000002093
20
-55.514583534199424
10
-21.000000000002089
20
-6.5145835341994225
42
-0.4142135623730937
10
-18.000000000002103
20
-3.5145835341994229
10
125.9999999999979
20
-3.5145835341994291
42
-0.41421356237309348
10
128.9999999999979
20
-6.5145835341994207
10
128.99999999999793
20
-55.514583534199417
42
-0.4142135623730942
10
125.9999999999979
20
-58.514583534199424
0
CIRCLE
5
114
100
AcDbEntity
8
0
100
AcDbCircle
10
72.085786437624904
20
-53.245849424800895
30
0
40
2.2499999999999964
210
0
220
6.1629758220424158e-33
230
1
0
CIRCLE
5
115
100
AcDbEntity
8
0
100
AcDbCircle
10
-14.085786437628677
20
-39.245849424800838
30
0
40
2.2499999999999987
210
-1.5777218104420236e-30
220
3.2610372025077932e-45
230
1
0
CIRCLE
5
116
100
AcDbEntity
8
0
100
AcDbCircle
10
122.08578643762478
20
-9.5458494248008581
30
0
40
2.2499999999999964
210
0
220
6.1629758220424158e-33
230
1
0
CIRCLE
5
117
100
AcDbEntity
8
0
100
AcDbCircle
10
107.0857864376248
20
-53.245849424800859
30
0
40
2.2499999999999964
210
0
220
6.1629758220424158e-33
230
1
0
CIRCLE
5
118
100
AcDbEntity
8
0
100
AcDbCircle
10
-14.085786437628677
20
-9.5458494248008403
30
0
40
2.2500000000000009
210
0
220
6.1629758220424158e-33
230
1
0
CIRCLE
5
119
100
AcDbEntity
8
0
100
AcDbCircle
10
0.91421356237127782
20
-53.245849424800838
30
0
40
2.2500000000000004
210
0
220
3.2610372025077926e-45
230
1
0
CIRCLE
5
120
100
AcDbEntity
8
0
100
AcDbCircle
10
35.914213562371145
20
-53.245849424800895
30
0
40
2.2500000000000009
210
0
220
6.1629758220424158e-33
230
1
0
CIRCLE
5
121
100
AcDbEntity
8
0
100
AcDbCircle
10
122.0857864376248
20
-39.245849424800859
30
0
40
2.2499999999999964
210
0
220
6.1629758220424158e-33
230
1
0
ENDSEC
0
SECTION
2
OBJECTS
0
DICTIONARY
5
C
100
AcDbDictionary
3
ACAD_GROUP
350
D
3
ACAD_MLINESTYLE
350
17
0
DICTIONARY
5
D
100
AcDbDictionary
0
DICTIONARY
5
1A
330
C
100
AcDbDictionary
0
DICTIONARY
5
17
100
AcDbDictionary
0
ENDSEC
0
EOF
