0
SECTION
2
HEADER
9
$INSUNITS
70
4
9
$ACADVER
1
AC1014
9
$HANDSEED
5
FFFF
0
ENDSEC
0
SECTION
2
TABLES
0
TABLE
2
VPORT
5
8
100
AcDbSymbolTable
0
ENDTAB
0
TABLE
2
LTYPE
5
5
100
AcDbSymbolTable
0
LTYPE
5
14
100
AcDbSymbolTableRecord
100
AcDbLinetypeTableRecord
2
BYBLOCK
70
0
0
LTYPE
5
15
100
AcDbSymbolTableRecord
100
AcDbLinetypeTableRecord
2
BYLAYER
70
0
0
ENDTAB
0
TABLE
2
LAYER
5
2
100
AcDbSymbolTable
70
2
0
LAYER
5
50
100
AcDbSymbolTableRecord
100
AcDbLayerTableRecord
2
0
70
0
6
CONTINUOUS
0
ENDTAB
0
TABLE
2
STYLE
5
3
100
AcDbSymbolTable
70
1
0
STYLE
5
11
100
AcDbSymbolTableRecord
100
AcDbTextStyleTableRecord
2
STANDARD
70
0
0
ENDTAB
0
TABLE
2
VIEW
5
6
100
AcDbSymbolTable
70
0
0
ENDTAB
0
TABLE
2
UCS
5
7
100
AcDbSymbolTable
70
0
0
ENDTAB
0
TABLE
2
APPID
5
9
100
AcDbSymbolTable
70
2
0
APPID
5
12
100
AcDbSymbolTableRecord
100
AcDbRegAppTableRecord
2
ACAD
70
0
0
ENDTAB
0
TABLE
2
DIMSTYLE
5
A
100
AcDbSymbolTable
70
1
0
ENDTAB
0
TABLE
2
BLOCK_RECORD
5
1
100
AcDbSymbolTable
70
1
0
BLOCK_RECORD
5
1F
100
AcDbSymbolTableRecord
100
AcDbBlockTableRecord
2
*MODEL_SPACE
0
BLOCK_RECORD
5
1B
100
AcDbSymbolTableRecord
100
AcDbBlockTableRecord
2
*PAPER_SPACE
0
ENDTAB
0
ENDSEC
0
SECTION
2
BLOCKS
0
BLOCK
5
20
100
AcDbEntity
100
AcDbBlockBegin
2
*MODEL_SPACE
0
ENDBLK
5
21
100
AcDbEntity
100
AcDbBlockEnd
0
BLOCK
5
1C
100
AcDbEntity
100
AcDbBlockBegin
2
*PAPER_SPACE
0
ENDBLK
5
1D
100
AcDbEntity
100
AcDbBlockEnd
0
ENDSEC
0
SECTION
2
ENTITIES
0
LINE
5
100
100
AcDbEntity
8
0
100
AcDbLine
10
25.838437190700354
20
150.54766737730884
30
2.7511524069582787e-28
11
30.587795308091149
21
120.16792094379485
31
2.5966157882206469e-28
0
LINE
5
101
100
AcDbEntity
8
0
100
AcDbLine
10
30.587795308091149
20
120.16792094379485
30
2.5966157882206469e-28
11
30.103675544903883
21
120.09223702944371
31
7.8886090522101181e-30
0
LINE
5
102
100
AcDbEntity
8
0
100
AcDbLine
10
6.3719271535607858
20
116.38218065655835
30
7.8886090522101181e-30
11
5.8878073903735073
21
116.30649674220723
31
7.8990963426104142e-30
0
LINE
5
103
100
AcDbEntity
8
0
100
AcDbLine
10
5.8878073903735073
20
116.30649674220723
30
7.8990963426104142e-30
11
1.1384492729827556
21
146.68624317572127
31
2.3396196964416141e-29
0
LINE
5
104
100
AcDbEntity
8
0
100
AcDbLine
10
1.1384492729827556
20
146.68624317572127
30
2.3396196964416141e-29
11
25.838437190700354
21
150.54766737730884
31
2.7511524069582787e-28
0
ELLIPSE
5
105
100
AcDbEntity
8
0
100
AcDbEllipse
10
2.6692248216628212
20
58.632387212336717
30
-3.944304526105059e-30
11
0.21313309290657362
21
-1.3633272452929377
31
0.0
40
0.99999909160205558
41
0
42
6.2831853071795862
0
LWPOLYLINE
5
106
100
AcDbEntity
8
0
100
AcDbPolyline
90
4
70
1
43
0.0
10
17.088221097473483
20
2.5913544165471505
10
28.944215297977898
20
4.444838033309229
42
0.99999999999999989
10
28.171930457660409
20
9.3848356168526834
10
16.315936257155951
20
7.5313520000906919
42
0.99999999999999989
0
LWPOLYLINE
5
107
100
AcDbEntity
8
0
100
AcDbPolyline
90
8
70
1
43
0.0
10
9.5218845430639032
20
46.913332367675025
10
45.089867144577241
20
52.473783217961184
42
0.41421356237309653
10
46.756952241867651
20
54.758696187505592
10
45.521296497359614
20
62.6626923211752
42
0.41421356237309653
10
43.236383527815192
20
64.329777418465596
10
7.668400926301846
20
58.769326568179487
42
0.41421356237309481
10
6.0013158290114266
20
56.484413598635072
10
7.2369715735194751
20
48.5804174649654
42
0.41421356237309681
0
CIRCLE
5
108
100
AcDbEntity
8
0
100
AcDbCircle
10
44.908808530726049
20
17.568166990281011
30
-9.8607613152626476e-31
40
10.000000000000009
210
-4.8148248609680896e-35
220
-3.4077750053675494e-49
230
1
0
LWPOLYLINE
5
109
100
AcDbEntity
8
0
100
AcDbPolyline
90
8
70
1
43
0.0
10
12.116761606530764
20
30.314940486968787
10
47.684744208044108
20
35.87539133725501
42
0.41421356237309753
10
49.351829305334533
20
38.160304306799404
10
48.116173560826489
20
46.064300440469026
42
0.41421356237309392
10
45.831260591282081
20
47.731385537759408
10
10.263277989768724
20
42.170934687473263
42
0.41421356237309837
10
8.5961928924783049
20
39.886021717928841
10
9.8318486369863507
20
31.982025584259222
42
0.41421356237309914
0
LINE
5
110
100
AcDbEntity
8
0
100
AcDbLine
10
19.76475578598837
20
1.2878587085651816e-13
30
-9.8607613152626476e-31
11
52.870506347976885
21
5.1755226301180279
31
-9.5140939252729451e-31
0
LINE
5
111
100
AcDbEntity
8
0
100
AcDbLine
10
131.48863781538077
20
34.218714787900446
30
1.3465626466459287e-26
11
125.09164056091643
21
62.076835498711432
31
9.4251544804411426e-27
0
ARC
5
112
100
AcDbEntity
8
0
100
AcDbCircle
10
120.21846865377546
20
60.957820054916063
30
-2.0422622760040469e-26
40
5.0000000000000604
210
-5.6612758364837941e-27
220
-2.0191024959311522e-27
230
1
100
AcDbArc
50
12.932505463949438
51
102.93250546395028
0
LINE
5
113
100
AcDbEntity
8
0
100
AcDbLine
10
119.09945320998003
20
65.830991962056984
30
-2.0422837501229269e-26
11
89.850158989952789
21
59.114542680970871
31
5.0903437765802611e-26
0
LINE
5
114
100
AcDbEntity
8
0
100
AcDbLine
10
89.850158989952789
20
59.114542680970871
30
5.0903437765802611e-26
11
88.261798373547592
21
59.083187009178317
31
1.9193742233012875e-26
0
LINE
5
115
100
AcDbEntity
8
0
100
AcDbLine
10
88.261798373547592
20
59.083187009178317
30
1.9193742233012875e-26
11
60.125788106859311
21
61.578170370426065
31
4.1711713698340979e-27
0
LINE
5
116
100
AcDbEntity
8
0
100
AcDbLine
10
50.838334390408221
20
102.02386644268095
30
0
11
50.704893149463132
21
102.87743674912753
31
-7.8108496307054834e-31
0
ARC
5
117
100
AcDbEntity
8
0
100
AcDbCircle
10
47.740894599336997
20
102.41406584493703
30
1.1832913578315177e-29
40
3.0000000000000178
210
4.3524896228497344e-30
220
-6.1888734831311509e-31
230
1
100
AcDbArc
50
8.885303548826025
51
45.134624431726898
0
ARC
5
118
100
AcDbEntity
8
0
100
AcDbCircle
10
58.675267062667096
20
113.39994308952576
30
-6.705317694378616e-29
40
12.50000000000008
210
-7.8134110227701088e-30
220
-1.0515877557289091e-30
230
1
100
AcDbArc
50
188.88530354882667
51
225.13462443172557
0
LINE
5
119
100
AcDbEntity
8
0
100
AcDbLine
10
46.325273103808243
20
111.46923098873189
30
-1.6557906907811063e-28
11
43.734441140753631
21
128.04174797818203
31
-4.0236528398138131e-29
0
LINE
5
120
100
AcDbEntity
8
0
100
AcDbLine
10
43.734441140753631
20
128.04174797818203
30
-4.0236528398138131e-29
11
43.691434991600374
21
128.31929205522246
31
1.8447953306550626e-28
0
ARC
5
121
100
AcDbEntity
8
0
100
AcDbCircle
10
50.608882659202912
20
129.39116787430046
30
-1.8099328786551437e-25
40
7.0000000000302345
210
-4.2260083104975953e-28
220
1.9338244935646557e-28
230
1
100
AcDbArc
50
166.60425491441219
51
188.80807532855556
0
LINE
5
122
100
AcDbEntity
8
0
100
AcDbLine
10
43.799331058531521
20
131.01289751476673
30
2.6624055551209148e-29
11
43.931300703782711
21
131.56703063848678
31
2.4880968580917176e-29
0
LINE
5
123
100
AcDbEntity
8
0
100
AcDbLine
10
72.597523519818651
20
180.17132659420398
30
8.873900367284045e-28
11
72.618074445821946
21
180.17451101160503
31
-1.8570647786366856e-28
0
LINE
5
124
100
AcDbEntity
8
0
100
AcDbLine
10
72.618074445821946
20
180.17451101160503
30
-1.8570647786366856e-28
11
73.626758923893647
21
180.39022584556645
31
-1.240829748718957e-27
0
LINE
5
125
100
AcDbEntity
8
0
100
AcDbLine
10
73.626758923893647
20
180.39022584556645
30
-1.240829748718957e-27
11
75.233852123282816
21
180.29131861323543
31
1.3256707845364481e-27
0
ARC
5
126
100
AcDbEntity
8
0
100
AcDbCircle
10
75.540991896012045
20
185.28187621334473
30
-2.6860319392322837e-25
40
5.0000000000001119
210
1.5927402359443195e-25
220
4.4285527792417444e-26
230
1
100
AcDbArc
50
266.47822024431463
51
332.6164401274342
0
LINE
5
127
100
AcDbEntity
8
0
100
AcDbLine
10
79.980728874585367
20
182.98215110779648
30
-2.8024169065144758e-25
11
83.529671559643447
21
189.83356653813459
31
-5.1679344866217674e-28
0
ARC
5
128
100
AcDbEntity
8
0
100
AcDbCircle
10
79.089934581069713
20
192.13329164368298
30
1.4791141972898512e-29
40
5.0000000000004601
210
3.8672226774169942e-29
220
-1.5649264971440426e-28
230
1
100
AcDbArc
50
332.61644012743488
51
356.47822024431377
0
LINE
5
129
100
AcDbEntity
8
0
100
AcDbLine
10
84.080492181179366
20
191.82615187095365
30
-1.4646827895930503e-29
11
84.707060663500187
21
202.00694374186369
31
2.9425128062325944e-28
0
ARC
5
130
100
AcDbEntity
8
0
100
AcDbCircle
10
79.71650306339204
20
202.31408351459308
30
-6.0840897315171038e-28
40
4.9999999999989422
210
-1.4854881295219201e-28
220
5.2522942527374834e-28
230
1
100
AcDbArc
50
-3.521779755687906
51
13.393238365819329
0
LINE
5
131
100
AcDbEntity
8
0
100
AcDbLine
10
84.580519166638879
20
203.47224902407109
30
-5.9635218315228668e-28
11
81.737340612585939
21
215.41291394471241
31
1.1142679545546236e-27
0
ARC
5
132
100
AcDbEntity
8
0
100
AcDbCircle
10
76.87332450933792
20
214.25474843523415
30
1.2266787076186741e-27
40
5.000000000000111
210
6.1009853837340858e-29
220
-1.5916737024972062e-28
230
1
100
AcDbArc
50
13.393238365819025
51
86.47822024431369
0
LINE
5
133
100
AcDbEntity
8
0
100
AcDbLine
10
77.180464282067234
20
219.24530603534348
30
1.2217150764162862e-27
11
76.022449151181718
21
219.31657512641848
31
4.129857042890832e-28
0
LINE
5
134
100
AcDbEntity
8
0
100
AcDbLine
10
76.022449151181718
20
219.31657512641848
30
4.129857042890832e-28
11
74.99268421424631
21
218.75833466231373
31
-3.8421701139270842e-27
0
LINE
5
135
100
AcDbEntity
8
0
100
AcDbLine
10
74.99268421424631
20
218.75833466231373
30
-3.8421701139270842e-27
11
33.114300840579389
21
201.37551855216469
31
-3.8598871647826777e-27
0
LINE
5
136
100
AcDbEntity
8
0
100
AcDbLine
10
33.114300840579389
20
201.37551855216469
30
-3.8598871647826777e-27
11
32.378731787145782
21
201.26154028693963
31
1.764704480674781e-28
0
LINE
5
137
100
AcDbEntity
8
0
100
AcDbLine
10
32.378731787145782
20
201.26154028693963
30
1.764704480674781e-28
11
32.377200535969507
21
201.27142235503476
31
-7.6605285415969061e-29
0
LINE
5
138
100
AcDbEntity
8
0
100
AcDbLine
10
32.377200535969507
20
201.27142235503476
30
-7.6605285415969061e-29
11
32.387082604064901
21
201.27295360621105
31
-6.7655351572621852e-28
0
LINE
5
139
100
AcDbEntity
8
0
100
AcDbLine
10
32.387082604064901
20
201.27295360621105
30
-6.7655351572621852e-28
11
32.374045274215163
21
201.35709119470613
31
-5.7389630854828609e-28
0
LINE
5
140
100
AcDbEntity
8
0
100
AcDbLine
10
32.374045274215163
20
201.35709119470613
30
-5.7389630854828609e-28
11
-20.592702043775382
21
193.07663856232421
31
-2.5539371806530257e-28
0
LINE
5
141
100
AcDbEntity
8
0
100
AcDbLine
10
-20.592702043775382
20
193.07663856232421
30
-2.5539371806530257e-28
11
-21.327961165496625
21
192.96067778746379
31
-2.5249328261538309e-28
0
LINE
5
142
100
AcDbEntity
8
0
100
AcDbLine
10
-21.327961165496625
20
192.96067778746379
30
-2.5249328261538309e-28
11
-21.329519050875454
21
192.97055569175291
31
-8.5194940491099978e-31
0
LINE
5
143
100
AcDbEntity
8
0
100
AcDbLine
10
-21.329519050875454
20
192.97055569175291
30
-8.5194940491099978e-31
11
-21.319641146586243
21
192.97211357713184
31
-6.0037405313883483e-28
0
LINE
5
144
100
AcDbEntity
8
0
100
AcDbLine
10
-21.319641146586243
20
192.97211357713184
30
-6.0037405313883483e-28
11
-21.342367005104563
21
193.11620880928763
31
-7.3391611002289912e-28
0
LINE
5
145
100
AcDbEntity
8
0
100
AcDbLine
10
-21.342367005104563
20
193.11620880928763
30
-7.3391611002289912e-28
11
-21.977510520787593
21
193.01603768314925
31
-1.190829417541194e-28
0
LINE
5
146
100
AcDbEntity
8
0
100
AcDbLine
10
-21.977510520787593
20
193.01603768314925
30
-1.190829417541194e-28
11
-66.469343070948085
21
196.64608178376716
31
-1.4396153000599593e-27
0
LINE
5
147
100
AcDbEntity
8
0
100
AcDbLine
10
-66.469343070948085
20
196.64608178376716
30
-1.4396153000599593e-27
11
-67.619284613481895
21
196.86065457323701
31
2.4050254810592199e-28
0
LINE
5
148
100
AcDbEntity
8
0
100
AcDbLine
10
-67.619284613481895
20
196.86065457323701
30
2.4050254810592199e-28
11
-68.706895699192373
21
196.43677920520429
31
2.8164269875984231e-28
0
ELLIPSE
5
149
100
AcDbEntity
8
0
100
AcDbEllipse
10
-66.891258552775582
20
191.77808177431743
30
-6.51796322938861e-28
11
-4.6589714203560222
21
-1.8157439290597361
31
0.0
40
0.99994119095593348
41
4.7123889802820447
42
5.9879594870844608
0
LINE
5
150
100
AcDbEntity
8
0
100
AcDbLine
10
-71.876936745240045
20
191.39636889026184
30
-6.4737987167442382e-28
11
-70.942386949739699
21
179.18465199718531
31
1.2161284633833201e-28
0
ELLIPSE
5
151
100
AcDbEntity
8
0
100
AcDbEllipse
10
-65.956561201461483
20
179.56443677657251
30
-6.5869885585954486e-28
11
-1.8167912709255429
21
4.6616587699957437
31
0.0
40
0.99936474563549138
41
1.2753771892806418
42
1.5707963268106777
0
LINE
5
152
100
AcDbEntity
8
0
100
AcDbLine
10
-70.615258632349068
20
177.74879963015763
30
-6.7641644838305487e-28
11
-66.898914376421658
21
168.21312590176183
31
-2.4540815648964363e-27
0
ELLIPSE
5
153
100
AcDbEntity
8
0
100
AcDbEllipse
10
-62.240216945534861
20
170.02876304817892
30
1.7847977980625392e-28
11
1.8162259708883601
21
-4.6602082803999885
31
0.0
40
0.99967579784797389
41
4.7123889803625847
42
5.1289958869387542
0
LINE
5
154
100
AcDbEntity
8
0
100
AcDbLine
10
-65.765489329069183
20
166.48262284893494
30
2.0687566475998732e-28
11
-59.380136729227431
21
160.13179839716776
31
-2.3263115205258983e-28
0
LINE
5
155
100
AcDbEntity
8
0
100
AcDbLine
10
-56.174980637666096
20
159.46365698512403
30
4.3819451429478047e-28
11
-53.457314871434832
21
160.522814612318
31
1.4896396451767164e-27
0
LINE
5
156
100
AcDbEntity
8
0
100
AcDbLine
10
-53.457314871434832
20
160.522814612318
30
1.4896396451767164e-27
11
-52.430921035391506
21
160.62524975802717
31
8.869804756886684e-28
0
LINE
5
157
100
AcDbEntity
8
0
100
AcDbLine
10
-52.430921035391506
20
160.62524975802717
30
8.869804756886684e-28
11
-38.686447842268691
21
162.16666275327407
31
-1.7893728446454311e-27
0
ARC
5
158
100
AcDbEntity
8
0
100
AcDbCircle
10
-37.906303616090618
20
155.21027180772708
30
-6.9814190112059545e-28
40
7.0000000000661808
210
2.8775108790547112e-30
220
-5.5744917013580986e-30
230
1
100
AcDbArc
50
31.1663521812158
51
96.398860907389718
0
LINE
5
159
100
AcDbEntity
8
0
100
AcDbLine
10
-31.916625292793725
20
158.83294396848822
30
-6.9518270976101648e-28
11
-10.003315140221162
21
122.60176626654236
31
1.3335909306914976e-28
0
ARC
5
160
100
AcDbEntity
8
0
100
AcDbCircle
10
-15.992993464200769
20
118.97909410823688
30
-1.7580554133755469e-25
40
7.0000000001649143
210
4.2767636308246532e-28
220
3.1045134197178571e-29
230
1
100
AcDbArc
50
8.9625317178567414
51
31.166352151299375
0
LINE
5
161
100
AcDbEntity
8
0
100
AcDbLine
10
-9.0784604609036261
20
120.0696138707697
30
2.3074181477714595e-28
11
-9.034706273895166
21
119.79218673941291
31
2.1234057730880887e-28
0
LINE
5
162
100
AcDbEntity
8
0
100
AcDbLine
10
-9.034706273895166
20
119.79218673941291
30
2.1234057730880887e-28
11
-6.4438743108405916
21
103.21966974996278
31
1.8522053461160925e-28
0
ARC
5
163
100
AcDbEntity
8
0
100
AcDbCircle
10
-18.793868269699317
20
101.28895764916894
30
-6.7053176943786474e-29
40
12.49999999999995
210
3.0596978977808962e-31
220
-2.6766040431817002e-30
230
1
100
AcDbArc
50
-27.364017334072955
51
8.8853035488266006
0
ARC
5
164
100
AcDbEntity
8
0
100
AcDbCircle
10
-5.0282528153118111
20
94.164504606167867
30
1.1832913578315177e-29
40
3.0000000000000311
210
-2.742013580305247e-30
220
6.5526102363068815e-29
230
1
100
AcDbArc
50
152.63598266592615
51
188.88530354882641
0
LINE
5
165
100
AcDbEntity
8
0
100
AcDbLine
10
-7.992251365437923
20
93.701133701977355
30
7.3869797739939037e-30
11
-7.8588101244928055
21
92.847563395530827
31
8.1322391901751034e-31
0
LINE
5
166
100
AcDbEntity
8
0
100
AcDbLine
10
-4.3588208458251554
20
51.497095413249745
30
0
11
-5.1960053479150226
21
51.144520166935692
31
1.389859291151235e-27
0
LINE
5
167
100
AcDbEntity
8
0
100
AcDbLine
10
-30.390866113327615
20
40.533855253955402
30
3.7220380549376808e-26
11
-31.913009795670924
21
40.078936332234107
31
-4.6461040119405544e-26
0
LINE
5
168
100
AcDbEntity
8
0
100
AcDbLine
10
-31.913009795670924
20
40.078936332234107
30
-4.6461040119405544e-26
11
-61.816611946436623
21
37.547833492844276
31
-2.2241009980039337e-25
0
ARC
5
169
100
AcDbEntity
8
0
100
AcDbCircle
10
-61.39490948896281
20
32.565648526651188
30
-8.565846139342359e-26
40
4.9999999999999876
210
-5.7495128564012181e-26
220
2.2581618740004215e-26
230
1
100
AcDbArc
50
94.83810163369651
51
184.83810163369643
0
LINE
5
170
100
AcDbEntity
8
0
100
AcDbLine
10
-66.377094455155955
20
32.143946069177375
30
-7.4605206205757921e-26
11
-63.966377536439225
21
3.6626380347690768
31
6.6351376320339493e-27
0
LINE
5
171
100
AcDbEntity
8
0
100
AcDbLine
10
-55.465037820441403
20
6.3672178640672428e-10
30
-1.7288819658383535e-25
11
-58.665737981964
21
37.81452999307978
31
-1.7260375213848891e-25
0
LINE
5
172
100
AcDbEntity
8
0
100
AcDbLine
10
-27.740321109069832
20
3.5509373219611007e-10
30
3.5955956503743061e-26
11
-31.151937954499264
21
40.306395793094822
31
3.5769911671115254e-26
0
LINE
5
173
100
AcDbEntity
8
0
100
AcDbLine
10
-0.43351360069258438
20
9.0976115529883828e-11
30
8.3820323039621279e-28
11
-4.7774130968851534
21
51.320807790094875
31
8.3027610274511493e-28
0
LINE
5
174
100
AcDbEntity
8
0
100
AcDbLine
10
60.578211870651131
20
61.538051328907279
30
3.9419163729740189e-28
11
72.105037328702025
21
11.340172191359112
31
4.3781780239766155e-28
0
LINE
5
175
100
AcDbEntity
8
0
100
AcDbLine
10
50.771613769935783
20
102.45065159590425
30
-1.9798559828300785e-30
11
-7.9255307449655366
21
93.274348548754034
31
-1.9721522630525295e-30
0
LINE
5
176
100
AcDbEntity
8
0
100
AcDbLine
10
-20.955392652490712
20
193.01943711758372
30
1.320971005100708e-25
11
-9.7897003589819427
21
122.22241873784974
31
3.402850122283987e-25
0
LINE
5
177
100
AcDbEntity
8
0
100
AcDbLine
10
43.711688127646021
20
130.58645344448229
30
3.3465504137032861e-25
11
32.751457347910254
21
201.31929504514056
31
1.1420437932497741e-25
0
LINE
5
178
100
AcDbEntity
8
0
100
AcDbLine
10
73.122416684857697
20
180.2823684285855
30
1.0651162964439169e-28
11
75.507566682713971
21
219.03745489436616
31
2.4158865222393487e-28
0
LINE
5
179
100
AcDbEntity
8
0
100
AcDbLine
10
-67.044313842215132
20
196.75336817850228
30
4.1065448646202398e-28
11
-52.944117953413169
21
160.57403218517243
31
1.7847977980625392e-28
0
LINE
5
180
100
AcDbEntity
8
0
100
AcDbLine
10
89.055978681750148
20
59.098864845074687
30
3.7468042621680368e-27
11
98.108930284677726
21
19.67439606521377
31
3.9581095919464267e-27
0
LINE
5
181
100
AcDbEntity
8
0
100
AcDbLine
10
116.0175221703909
20
65.123295107579494
30
1.3708114527967253e-26
11
124.51079236178551
21
28.136168677866262
31
1.3449092357886725e-26
0
LINE
5
182
100
AcDbEntity
8
0
100
AcDbLine
10
6.3719271535607902
20
116.38218065655835
30
-1.9706720943486599e-30
11
30.103675544903883
21
120.09223702944371
31
-1.9245607285673981e-30
0
ARC
5
183
100
AcDbEntity
8
0
100
AcDbCircle
10
-59.980629563484726
20
4.000000000748142
30
1.2871251744812351e-26
40
4.0000000000000213
210
-1.6876236964629277e-27
220
1.4534199582507769e-27
230
1
100
AcDbArc
50
184.83810163369665
51
269.99999999999233
0
LINE
5
184
100
AcDbEntity
8
0
100
AcDbLine
10
-59.980629563485259
20
7.4812100958610017e-10
30
1.3330186983864227e-26
11
-55.980437323453359
21
7.4753758738665965e-10
31
-1.2611454207373258e-25
0
LINE
5
185
100
AcDbEntity
8
0
100
AcDbLine
10
52.870506347976885
20
5.1755226301180279
30
-9.5140939252729451e-31
11
128.81092756806041
21
29.514358072731071
31
-2.012260331923377e-26
0
ARC
5
186
100
AcDbEntity
8
0
100
AcDbCircle
10
127.59010028966802
20
33.323502432864117
30
1.3509243001909827e-26
40
4.0000000000000409
210
-1.1329799007479385e-27
220
-9.1923581201905406e-27
230
1
100
AcDbArc
50
-72.229392902345523
51
12.932505463949948
0
ARC
5
187
100
AcDbEntity
8
0
100
AcDbCircle
10
-6.4176855307542535
20
159.33805123828472
30
2.4158865222394675e-28
40
57.499999999999943
210
3.9979041602556041e-30
220
-5.5515648248931363e-31
230
1
100
AcDbArc
50
331.12016278200309
51
358.87525093880595
0
LINE
5
188
100
AcDbEntity
8
0
100
AcDbLine
10
51.07123574082992
20
158.20936570649835
30
-1.0976780541989854e-27
11
51.282458345793664
21
168.96786252919156
31
1.0134262626665079e-27
0
ARC
5
189
100
AcDbEntity
8
0
100
AcDbCircle
10
62.280338936879282
20
168.75194007963239
30
4.2499881268782011e-28
40
11.000000000000059
210
-4.905284593109289e-30
220
8.7913117900904327e-30
230
1
100
AcDbArc
50
92.279455244920072
51
178.875250938806
0
LINE
5
190
100
AcDbEntity
8
0
100
AcDbLine
10
61.842830379582878
20
179.74323601151838
30
3.2622479918799822e-28
11
72.597523519818651
21
180.17132659420398
31
8.873900367284045e-28
0
LINE
5
191
100
AcDbEntity
8
0
100
AcDbLine
10
-55.980437323453359
20
7.4753758738665965e-10
30
1.0006799190341687e-25
11
-54.949638317429041
21
5.2636672798200834e-10
31
1.0345680728669509e-25
0
ELLIPSE
5
192
100
AcDbEntity
8
0
100
AcDbEllipse
10
-57.264362925515648
20
162.25887544365634
30
4.3781780239766155e-28
11
-2.7953958740163221
21
-1.0894514321004916
31
0.0
40
0.9999365329663259
41
0.41646344878512731
42
1.5707963267948257
0
LINE
5
193
100
AcDbEntity
8
0
100
AcDbLine
10
-5.1960053479150226
20
51.144520166935692
30
1.389859291151235e-27
11
-30.390866113327615
21
40.533855253955402
31
3.7220380549376808e-26
0
LINE
5
194
100
AcDbEntity
8
0
100
AcDbLine
10
2.5676827255074031
20
140.78115535874826
30
-2.1404496512428081e-28
11
26.279671126516497
21
144.48812259227248
31
-2.1397852054119945e-28
0
ELLIPSE
5
195
100
AcDbEntity
8
0
100
AcDbEllipse
10
80.942188355017421
20
197.06047952239996
30
-3.5794563574403411e-28
11
-1.4974790268389848
21
0.087299024090782953
31
0.0
40
0.99998565212928225
41
0
42
6.2831853071795862
0
ELLIPSE
5
196
100
AcDbEntity
8
0
100
AcDbEllipse
10
-65.665642826752091
20
174.10811663735387
30
1.6763294235946501e-29
11
1.3993841897621173
21
0.54017445781308615
31
0.0
40
0.99998565212928547
41
0
42
6.2831853071795862
0
ELLIPSE
5
197
100
AcDbEntity
8
0
100
AcDbEllipse
10
3.2335171875739555
20
22.757733730242975
30
0
11
-0.2316854520952672
21
1.4819992750630606
31
0.0
40
0.99999909160205736
41
0
42
6.2831853071795862
0
ELLIPSE
5
198
100
AcDbEntity
8
0
100
AcDbEllipse
10
61.83269818896882
20
31.926005331569272
30
-9.8607613152626476e-31
11
-0.23168545209526664
21
1.4819992750630584
31
0.0
40
0.99999909160205724
41
0
42
6.2831853071795862
0
ELLIPSE
5
199
100
AcDbEntity
8
0
100
AcDbEllipse
10
107.06134122015462
20
42.311756341017748
30
-7.0879152334107911e-27
11
-4.7309704385463682
21
-1.0863618245314477
31
0.0
40
0.30901727228839387
41
0
42
6.2831853071795862
0
ELLIPSE
5
200
100
AcDbEntity
8
0
100
AcDbEllipse
10
124.14772575383104
20
46.235264178652784
30
-1.6459582787436411e-26
11
1.4620310049963754
21
0.33637300767362921
31
0.0
40
0.99984859431417594
41
0
42
6.2831853071795862
0
ELLIPSE
5
201
100
AcDbEntity
8
0
100
AcDbEllipse
10
-43.719231445442844
20
18.783555810705518
30
-3.8563465351729162e-26
11
4.8368023783800531
21
0.40939718691581117
31
0.0
40
0.30901727228866616
41
0
42
6.2831853071795862
0
LINE
5
202
100
AcDbEntity
8
0
100
AcDbLine
10
-54.949638317429041
20
5.2636672798200834e-10
30
1.0345680728669509e-25
11
-28.520645590266156
21
5.2259085947525818e-10
31
-2.1710053098121391e-25
0
LINE
5
203
100
AcDbEntity
8
0
100
AcDbLine
10
-28.520645590266156
20
5.2259085947525818e-10
30
-2.1710053098121391e-25
11
-26.959996627873384
21
1.877931143923206e-10
31
-2.118197808749426e-25
0
LINE
5
204
100
AcDbEntity
8
0
100
AcDbLine
10
-26.959996627873384
20
1.877931143923206e-10
30
-2.118197808749426e-25
11
-0.8670272013817204
21
1.8409052060519571e-10
31
-3.9443420817389746e-26
0
LINE
5
205
100
AcDbEntity
8
0
100
AcDbLine
10
-0.8670272013817204
20
1.8409052060519571e-10
30
-3.9443420817389746e-26
11
-2.6645352591003757e-14
21
1.4210854715202004e-13
31
-3.3073997342374432e-27
0
LINE
5
206
100
AcDbEntity
8
0
100
AcDbLine
10
-2.6645352591003757e-14
20
1.4210854715202004e-13
30
-3.3073997342374432e-27
11
19.76475578598837
21
1.2878587085651816e-13
31
-9.8607613152626476e-31
0
LINE
5
207
100
AcDbEntity
8
0
100
AcDbLine
10
60.125788106859311
20
61.578170370426065
30
4.1711713698340979e-27
11
50.838334390408221
21
102.02386644268095
31
0
0
LINE
5
208
100
AcDbEntity
8
0
100
AcDbLine
10
-7.8588101244928055
20
92.847563395530827
30
8.1322391901751034e-31
11
-4.3588208458251554
21
51.497095413249745
31
0
0
ELLIPSE
5
209
100
AcDbEntity
8
0
100
AcDbEllipse
10
-60.475474522762624
20
17.365272681580066
30
5.8731680469835855e-26
11
-1.4949351251261782
21
-0.1258984969176114
31
0.0
40
0.99984859431417072
41
0
42
6.2831853071795862
0
ENDSEC
0
SECTION
2
OBJECTS
0
DICTIONARY
5
C
100
AcDbDictionary
3
ACAD_GROUP
350
D
3
ACAD_MLINESTYLE
350
17
0
DICTIONARY
5
D
100
AcDbDictionary
0
DICTIONARY
5
1A
330
C
100
AcDbDictionary
0
DICTIONARY
5
17
100
AcDbDictionary
0
ENDSEC
0
EOF
