<?xml version="1.0" encoding="UTF-8" standalone="no"?>
<svg
   version="1.1"
   width="97.681725mm"
   height="19.763857mm"
   viewBox="0 0 97.681724 19.763858"
   id="svg2890"
   sodipodi:docname="i2c_bus_carriers_x5-F_Cu.svg"
   inkscape:export-filename="outline_03.png"
   inkscape:export-xdpi="1000"
   inkscape:export-ydpi="1000"
   inkscape:version="1.2.2 (b0a8486541, 2022-12-01)"
   xmlns:inkscape="http://www.inkscape.org/namespaces/inkscape"
   xmlns:sodipodi="http://sodipodi.sourceforge.net/DTD/sodipodi-0.dtd"
   xmlns="http://www.w3.org/2000/svg"
   xmlns:svg="http://www.w3.org/2000/svg">
  <defs
     id="defs2894" />
  <sodipodi:namedview
     id="namedview2892"
     pagecolor="#ffffff"
     bordercolor="#999999"
     borderopacity="1"
     inkscape:showpageshadow="0"
     inkscape:pageopacity="0"
     inkscape:pagecheckerboard="0"
     inkscape:deskcolor="#d1d1d1"
     inkscape:document-units="mm"
     showgrid="false"
     inkscape:zoom="3.0401574"
     inkscape:cx="163.97177"
     inkscape:cy="40.129501"
     inkscape:window-width="1916"
     inkscape:window-height="1041"
     inkscape:window-x="1366"
     inkscape:window-y="37"
     inkscape:window-maximized="1"
     inkscape:current-layer="layer2" />
  <title
     id="title2">SVG Image created as i2c_bus_carriers_x5-F_Cu.svg date 2023/07/03 12:18:49 </title>
  <desc
     id="desc4">Image generated by PCBNEW </desc>
  <g
     inkscape:groupmode="layer"
     id="layer2"
     inkscape:label="outline"
     style="display:inline;fill:#ffffff"
     transform="matrix(-1.0103826,0,0,1.0553485,97.878469,0.82214368)">
    <path
       style="fill:#000000;fill-opacity:1;stroke:#000000;stroke-width:0.792876;stroke-linecap:round;stroke-linejoin:round;stroke-dasharray:none;stroke-opacity:1"
       d="M 96.476241,17.551863 H 0.5911599 V -0.38258777 H 96.476241 Z"
       id="path2868" />
  </g>
  <g
     inkscape:groupmode="layer"
     id="layer4"
     inkscape:label="traces"
     style="display:inline"
     transform="translate(0.77958128,0.82328717)">
    <g
       style="fill:#ffffff;fill-opacity:0;stroke:#ffffff;stroke-width:0.6;stroke-linecap:round;stroke-linejoin:round;stroke-opacity:1"
       id="g2694"
       transform="translate(-95.95,-56.949999)">
      <path
         d="m 118,62 h 18"
         id="path2608"
         style="fill:#ffffff;stroke:#ffffff" />
      <path
         d="m 100,62 h 18"
         id="path2610"
         style="fill:#ffffff;stroke:#ffffff" />
      <path
         d="m 181.967,62 3.031,3.0309"
         id="path2612"
         style="fill:#ffffff;stroke:#ffffff" />
      <path
         d="m 154,62 h 18"
         id="path2614"
         style="fill:#ffffff;stroke:#ffffff" />
      <path
         d="m 136,62 h 18"
         id="path2616"
         style="fill:#ffffff;stroke:#ffffff" />
      <path
         d="M 184.998,65.0309 V 67"
         id="path2618"
         style="fill:#ffffff;stroke:#ffffff" />
      <path
         d="m 172,62 h 9.967"
         id="path2620"
         style="fill:#ffffff;stroke:#ffffff" />
      <path
         d="m 136,64.54 h 18"
         id="path2622"
         style="fill:#ffffff;stroke:#ffffff" />
      <path
         d="m 154,64.54 h 18"
         id="path2624"
         style="fill:#ffffff;stroke:#ffffff" />
      <path
         d="m 118,64.54 h 18"
         id="path2626"
         style="fill:#ffffff;stroke:#ffffff" />
      <path
         d="m 100,64.54 h 18"
         id="path2628"
         style="fill:#ffffff;stroke:#ffffff" />
      <path
         d="M 98.08,67.08 97,66"
         id="path2630"
         style="fill:#ffffff;stroke:#ffffff" />
      <path
         d="m 178.6022,59.5019 h 10.795"
         id="path2632"
         style="fill:#ffffff;stroke:#ffffff" />
      <path
         d="m 118,67.08 h 18"
         id="path2634"
         style="fill:#ffffff;stroke:#ffffff" />
      <path
         d="m 177.5019,59.5019 h 1.1003"
         id="path2636"
         style="fill:#ffffff;stroke:#ffffff" />
      <path
         d="M 100,67.08 H 98.08"
         id="path2638"
         style="fill:#ffffff;stroke:#ffffff" />
      <path
         d="m 136,67.08 h 18"
         id="path2640"
         style="fill:#ffffff;stroke:#ffffff" />
      <path
         d="m 99,58 h 77"
         id="path2642"
         style="fill:#ffffff;stroke:#ffffff" />
      <path
         d="m 189.3972,59.5019 v 5.1003"
         id="path2644"
         style="fill:#ffffff;stroke:#ffffff" />
      <path
         d="M 189.3972,64.6022 186.9995,67"
         id="path2646"
         style="fill:#ffffff;stroke:#ffffff" />
      <path
         d="m 100,67.08 h 18"
         id="path2648"
         style="fill:#ffffff;stroke:#ffffff" />
      <path
         d="m 154,67.08 h 18"
         id="path2650"
         style="fill:#ffffff;stroke:#ffffff" />
      <path
         d="M 97,66 V 60"
         id="path2652"
         style="fill:#ffffff;stroke:#ffffff" />
      <path
         d="m 97,60 2,-2"
         id="path2654"
         style="fill:#ffffff;stroke:#ffffff" />
      <path
         d="m 176,58 1.5019,1.5019"
         id="path2656"
         style="fill:#ffffff;stroke:#ffffff" />
      <path
         d="m 154,69.62 h 18"
         id="path2658"
         style="fill:#ffffff;stroke:#ffffff" />
      <path
         d="m 181,64 2.0015,2.0015"
         id="path2660"
         style="fill:#ffffff;stroke:#ffffff" />
      <path
         d="m 179,64 h 2"
         id="path2662"
         style="fill:#ffffff;stroke:#ffffff" />
      <path
         d="m 136,69.62 h 18"
         id="path2664"
         style="fill:#ffffff;stroke:#ffffff" />
      <path
         d="M 176,69 V 67"
         id="path2666"
         style="fill:#ffffff;stroke:#ffffff" />
      <path
         d="M 183.0015,66.0015 V 67"
         id="path2668"
         style="fill:#ffffff;stroke:#ffffff" />
      <path
         d="m 172,69.62 h 3.38"
         id="path2670"
         style="fill:#ffffff;stroke:#ffffff" />
      <path
         d="M 175.38,69.62 176,69"
         id="path2672"
         style="fill:#ffffff;stroke:#ffffff" />
      <path
         d="m 118,69.62 h 18"
         id="path2674"
         style="fill:#ffffff;stroke:#ffffff" />
      <path
         d="m 176,67 3,-3"
         id="path2676"
         style="fill:#ffffff;stroke:#ffffff" />
      <path
         d="m 100,69.62 h 18"
         id="path2678"
         style="fill:#ffffff;stroke:#ffffff" />
      <path
         d="m 154,72.16 h 18"
         id="path2680"
         style="fill:#ffffff;stroke:#ffffff" />
      <path
         d="m 118,72.16 h 18"
         id="path2682"
         style="fill:#ffffff;stroke:#ffffff" />
      <path
         d="M 181,70 V 67"
         id="path2684"
         style="fill:#ffffff;stroke:#ffffff" />
      <path
         d="m 100,72.16 h 18"
         id="path2686"
         style="fill:#ffffff;stroke:#ffffff" />
      <path
         d="m 136,72.16 h 18"
         id="path2688"
         style="fill:#ffffff;stroke:#ffffff" />
      <path
         d="M 178.84,72.16 181,70"
         id="path2690"
         style="fill:#ffffff;stroke:#ffffff" />
      <path
         d="m 172,72.16 h 6.84"
         id="path2692"
         style="fill:#ffffff;stroke:#ffffff" />
    </g>
    <g
       style="fill:#ffffff;fill-opacity:0;stroke:#ffffff;stroke-width:0.6;stroke-linecap:round;stroke-linejoin:round;stroke-opacity:1"
       id="g2712"
       transform="translate(-96.0002,-57.000499)">
      <g
         id="g2698"
         style="fill:#ffffff;stroke:#ffffff" />
      <g
         style="fill:#ffffff;fill-opacity:1;stroke:#ffffff;stroke-width:0;stroke-linecap:round;stroke-linejoin:round;stroke-opacity:1"
         id="g2710">
        <path
           style="fill:#ffffff;fill-opacity:1;fill-rule:evenodd;stroke:#ffffff;stroke-width:0;stroke-linecap:round;stroke-linejoin:round;stroke-opacity:1"
           d="m 116.387,65.8607 0.0935,0.0578 0.017,0.0169 0.007,0.0074 0.0589,0.0928 0.0215,0.1077 -0.0189,0.1083 -0.0251,0.0515 -0.0156,0.0255 -0.0994,0.2399 -0.0606,0.2526 v 0 l -0.0204,0.2589 v 0 l 0.0204,0.2589 v 0 l 0.0606,0.2526 0.0994,0.2399 0.0156,0.0255 0.0392,0.1026 -5e-4,0.1099 -0.0402,0.1023 -0.0349,0.0455 -0.007,0.0074 -0.0884,0.0651 -0.1061,0.0288 -0.024,0.001 h -14.558 l -0.108,-0.0202 -0.0935,-0.0578 -0.017,-0.0169 -0.007,-0.0074 -0.0589,-0.0928 -0.0215,-0.1077 0.0189,-0.1083 0.0251,-0.0516 0.0156,-0.0254 0.0994,-0.2399 0.0606,-0.2526 v 0 l 0.0204,-0.2589 v 0 l -0.0204,-0.2589 v 0 l -0.0606,-0.2526 -0.0994,-0.2399 -0.0156,-0.0255 -0.0392,-0.1026 5e-4,-0.1099 0.0402,-0.1023 0.0349,-0.0455 0.007,-0.0074 0.0885,-0.0652 0.106,-0.0287 0.024,-10e-4 h 14.558 z"
           id="path2700" />
        <path
           style="fill:#ffffff;fill-opacity:1;fill-rule:evenodd;stroke:#ffffff;stroke-width:0;stroke-linecap:round;stroke-linejoin:round;stroke-opacity:1"
           d="m 134.387,65.8607 0.0935,0.0578 0.017,0.0169 0.007,0.0074 0.0589,0.0928 0.0215,0.1077 -0.0189,0.1083 -0.0251,0.0515 -0.0156,0.0255 -0.0994,0.2399 -0.0606,0.2526 v 0 l -0.0204,0.2589 v 0 l 0.0204,0.2589 v 0 l 0.0606,0.2526 0.0994,0.2399 0.0156,0.0255 0.0392,0.1026 -5e-4,0.1099 -0.0402,0.1023 -0.0349,0.0455 -0.007,0.0074 -0.0884,0.0651 -0.1061,0.0288 -0.024,0.001 h -14.558 l -0.108,-0.0202 -0.0935,-0.0578 -0.017,-0.0169 -0.007,-0.0074 -0.0589,-0.0928 -0.0215,-0.1077 0.0189,-0.1083 0.0251,-0.0516 0.0156,-0.0254 0.0994,-0.2399 0.0606,-0.2526 v 0 l 0.0204,-0.2589 v 0 l -0.0204,-0.2589 v 0 l -0.0606,-0.2526 -0.0994,-0.2399 -0.0156,-0.0255 -0.0392,-0.1026 5e-4,-0.1099 0.0402,-0.1023 0.0349,-0.0455 0.007,-0.0074 0.0885,-0.0652 0.106,-0.0287 0.024,-10e-4 h 14.558 z"
           id="path2702" />
        <path
           style="fill:#ffffff;fill-opacity:1;fill-rule:evenodd;stroke:#ffffff;stroke-width:0;stroke-linecap:round;stroke-linejoin:round;stroke-opacity:1"
           d="m 152.387,65.8607 0.0935,0.0578 0.017,0.0169 0.007,0.0074 0.0589,0.0928 0.0215,0.1077 -0.0189,0.1083 -0.0251,0.0515 -0.0156,0.0255 -0.0994,0.2399 -0.0606,0.2526 v 0 l -0.0204,0.2589 v 0 l 0.0204,0.2589 v 0 l 0.0606,0.2526 0.0994,0.2399 0.0156,0.0255 0.0392,0.1026 -5e-4,0.1099 -0.0402,0.1023 -0.0349,0.0455 -0.007,0.0074 -0.0884,0.0651 -0.1061,0.0288 -0.024,0.001 h -14.558 l -0.108,-0.0202 -0.0935,-0.0578 -0.017,-0.0169 -0.007,-0.0074 -0.0589,-0.0928 -0.0215,-0.1077 0.0189,-0.1083 0.0251,-0.0516 0.0156,-0.0254 0.0994,-0.2399 0.0606,-0.2526 v 0 l 0.0204,-0.2589 v 0 l -0.0204,-0.2589 v 0 l -0.0606,-0.2526 -0.0994,-0.2399 -0.0156,-0.0255 -0.0392,-0.1026 5e-4,-0.1099 0.0402,-0.1023 0.0349,-0.0455 0.007,-0.0074 0.0885,-0.0652 0.106,-0.0287 0.024,-10e-4 h 14.558 z"
           id="path2704" />
        <path
           style="fill:#ffffff;fill-opacity:1;fill-rule:evenodd;stroke:#ffffff;stroke-width:0;stroke-linecap:round;stroke-linejoin:round;stroke-opacity:1"
           d="m 170.387,65.8607 0.0935,0.0578 0.017,0.0169 0.007,0.0074 0.0589,0.0928 0.0215,0.1077 -0.0189,0.1083 -0.0251,0.0515 -0.0156,0.0255 -0.0994,0.2399 -0.0606,0.2526 v 0 l -0.0204,0.2589 v 0 l 0.0204,0.2589 v 0 l 0.0606,0.2526 0.0994,0.2399 0.0156,0.0255 0.0392,0.1026 -5e-4,0.1099 -0.0402,0.1023 -0.0349,0.0455 -0.007,0.0074 -0.0884,0.0651 -0.1061,0.0288 -0.024,0.001 h -14.558 l -0.108,-0.0202 -0.0935,-0.0578 -0.017,-0.0169 -0.007,-0.0074 -0.0589,-0.0928 -0.0215,-0.1077 0.0189,-0.1083 0.0251,-0.0516 0.0156,-0.0254 0.0994,-0.2399 0.0606,-0.2526 v 0 l 0.0204,-0.2589 v 0 l -0.0204,-0.2589 v 0 l -0.0606,-0.2526 -0.0994,-0.2399 -0.0156,-0.0255 -0.0392,-0.1026 5e-4,-0.1099 0.0402,-0.1023 0.0349,-0.0455 0.007,-0.0074 0.0885,-0.0652 0.106,-0.0287 0.024,-10e-4 h 14.558 z"
           id="path2706" />
        <path
           style="fill:#ffffff;fill-opacity:1;fill-rule:evenodd;stroke:#ffffff;stroke-width:0;stroke-linecap:round;stroke-linejoin:round;stroke-opacity:1"
           d="m 177.3991,57.0207 0.0934,0.0578 0.0662,0.0877 0.0301,0.1057 -0.0102,0.1094 -0.0489,0.0984 -0.0566,0.057 -0.0488,0.0374 -0.0962,0.1254 v 0 l -0.0604,0.1459 -0.0155,0.1173 v 1.2392 h 2.7 v -1.2392 l -0.0154,-0.1173 -0.0605,-0.1459 -0.0961,-0.1254 -0.0488,-0.0374 -0.0734,-0.0818 -0.0389,-0.1027 9e-4,-0.1099 0.0404,-0.1022 0.0747,-0.0806 0.0987,-0.0482 0.0796,-0.0108 h 8.1727 l 0.108,0.0202 0.0934,0.0578 0.0662,0.0877 0.0301,0.1057 -0.0102,0.1094 -0.0489,0.0984 -0.0566,0.057 -0.0488,0.0374 -0.0962,0.1254 v 0 l -0.0604,0.1459 -0.0155,0.1173 v 1.2392 h 2.7 v -1.2392 l -0.0154,-0.1173 -0.0605,-0.1459 -0.0961,-0.1254 -0.0488,-0.0374 -0.0734,-0.0818 -0.0389,-0.1027 9e-4,-0.1099 0.0404,-0.1022 0.0747,-0.0806 0.0987,-0.0482 0.0796,-0.0108 h 0.9921 l 0.108,0.0202 0.0934,0.0578 0.0663,0.0877 0.03,0.1057 0.001,0.0276 v 17.401 l -0.0202,0.108 -0.0578,0.0934 -0.0877,0.0663 -0.1057,0.03 -0.0276,0.0013 h -95.401 l -0.108,-0.0202 -0.0934,-0.0578 -0.0663,-0.0877 -0.03,-0.1057 -0.0013,-0.0276 V 72.16 h 1.9442 l 0.0192,0.2799 0.057,0.2746 v 0 l 0.094,0.2643 v 0 l 0.129,0.2491 v 0 l 0.1618,0.2292 0.1915,0.205 0.1408,0.1145 0.0768,0.0625 v 0 l 0.2396,0.1458 v 0 0 l 0.2573,0.1117 0.2701,0.0757 0.139,0.0191 0.1389,0.0191 v 0 h 0.2806 l 0.2779,-0.0382 0.2701,-0.0757 0.2573,-0.1117 0.2396,-0.1458 0.2176,-0.177 0.0997,-0.1067 0.0884,-0.0651 0.1061,-0.0288 0.024,-0.001 h 14.558 l 0.108,0.0202 0.0935,0.0578 0.017,0.0169 0.0997,0.1067 v 0 l 0.1544,0.1256 0.0632,0.0514 v 0 l 0.2396,0.1458 v 0 0 l 0.2573,0.1117 0.2701,0.0757 0.139,0.0191 0.1389,0.0191 v 0 h 0.2806 l 0.2779,-0.0382 0.2701,-0.0757 0.2573,-0.1117 0.2396,-0.1458 0.2176,-0.177 0.0997,-0.1067 0.0884,-0.0651 0.1061,-0.0288 0.024,-0.001 h 14.558 l 0.108,0.0202 0.0935,0.0578 0.017,0.0169 0.0997,0.1067 v 0 l 0.1544,0.1256 0.0632,0.0514 v 0 l 0.2396,0.1458 v 0 0 l 0.2573,0.1117 0.2701,0.0757 0.139,0.0191 0.1389,0.0191 v 0 h 0.2806 l 0.2779,-0.0382 0.2701,-0.0757 0.2573,-0.1117 0.2396,-0.1458 0.2176,-0.177 0.0997,-0.1067 0.0884,-0.0651 0.1061,-0.0288 0.024,-0.001 h 14.558 l 0.108,0.0202 0.0935,0.0578 0.017,0.0169 0.0997,0.1067 v 0 l 0.1544,0.1256 0.0632,0.0514 v 0 l 0.2396,0.1458 v 0 0 l 0.2573,0.1117 0.2701,0.0757 0.139,0.0191 0.1389,0.0191 v 0 h 0.2806 l 0.2779,-0.0382 0.2701,-0.0757 0.2573,-0.1117 0.2396,-0.1458 0.2176,-0.177 0.0997,-0.1067 0.0884,-0.0651 0.1061,-0.0288 0.024,-0.001 h 14.558 l 0.108,0.0202 0.0935,0.0578 0.017,0.0169 0.0997,0.1067 v 0 l 0.1544,0.1256 0.0632,0.0514 v 0 l 0.2396,0.1458 v 0 0 l 0.2573,0.1117 0.2701,0.0757 0.139,0.0191 0.1389,0.0191 v 0 h 0.2806 l 0.2779,-0.0382 0.2701,-0.0757 0.2573,-0.1117 0.2396,-0.1458 0.2176,-0.177 0.0997,-0.1067 0.0884,-0.0651 0.1061,-0.0288 0.024,-0.001 h 4.9991 v 0 h 0.006 0.2276 v 0 l 0.0497,-0.0088 0.0129,-0.0017 0.0503,-0.0044 0.0487,-0.013 0.0128,-0.0029 0.0326,-0.0057 0.0171,-0.003 v 0 0 l 0.0474,-0.0173 0.0124,-0.0039 0.0488,-0.0131 0.0458,-0.0213 0.012,-0.005 0.0474,-0.0172 0.0438,-0.0253 0.0115,-0.006 0.0457,-0.0213 0.0414,-0.029 0.0109,-0.007 0.0438,-0.0252 0.0387,-0.0325 0.0103,-0.0079 0.0413,-0.029 0.1609,-0.1609 v 0 l 0.0171,-0.017 v 0 l 1.965,-1.965 v 0 L 181.8391,71 v 0 L 182,70.8391 l 0.029,-0.0413 0.008,-0.0104 0.0325,-0.0386 0.0252,-0.0437 0.007,-0.011 0.029,-0.0414 0.0213,-0.0457 0.006,-0.0116 0.0253,-0.0437 0.0172,-0.0474 0.005,-0.012 0.0213,-0.0458 0.0131,-0.0488 0.004,-0.0124 0.002,-0.005 0.0155,-0.0424 0.009,-0.0497 0.003,-0.0128 0.013,-0.0487 0.004,-0.0503 0.002,-0.0129 0.009,-0.0497 v -0.2276 -0.0066 0 -0.211 l 0.0202,-0.1081 0.0578,-0.0934 0.0877,-0.0662 0.1057,-0.0301 0.0276,-0.0012 h 0.9642 l 0.1194,-0.0107 0.1957,-0.0559 v 0 l 0.01,-0.004 0.1078,-0.0214 0.1082,0.0191 0.006,0.0022 0.01,0.0041 v 0 l 0.1957,0.0559 0.1193,0.0107 h 1.1245 l 0.1194,-0.0107 0.1956,-0.0559 0.1804,-0.0942 0.1577,-0.1286 8e-4,-0.0011 0.001,-0.0011 0.009,-0.0086 7e-4,8e-4 0.0733,-0.0621 0.1039,-0.0358 0.0443,-0.0018 v -0.0014 h 0.2533 v 0 V 67.3 h 0.6 v 1.6691 h 0.2435 v 0 l 0.1173,-0.0155 v 0 l 0.146,-0.0604 0.1253,-0.0962 v 0 l 0.0962,-0.1254 v 0 l 0.0604,-0.1459 0.0155,-0.1173 V 67.3 h -0.8042 -0.6 v -2.2691 h 0.6 V 66.7 h 0.8042 v -1.1084 l -0.0155,-0.1173 -0.0604,-0.146 -0.0962,-0.1253 v 0 l -0.1253,-0.0962 v 0 l -0.146,-0.0604 v 0 l -0.1173,-0.0155 h -0.2435 -0.6 v 0 h -0.1257 l -0.108,-0.0201 -0.0935,-0.0579 -0.0662,-0.0877 -0.0211,-0.0559 -0.001,-0.005 v -1e-4 l -0.0131,-0.0487 -0.003,-0.0127 -0.009,-0.0497 v 0 l -0.0172,-0.0475 -0.004,-0.0124 -0.0131,-0.0488 -0.0207,-0.0444 -6e-4,-0.0013 -0.005,-0.0121 -0.0173,-0.0474 -0.0252,-0.0437 -0.006,-0.0115 -0.0214,-0.0458 -0.006,-0.0079 -0.0234,-0.0334 -0.007,-0.011 -0.0253,-0.0437 v 0 l -0.0324,-0.0387 -0.008,-0.0104 -0.029,-0.0413 v 0 0 0 l -0.1609,-0.1609 v 0 l -0.005,-0.0047 v 0 L 182.9775,61.1713 182.8062,61 v 0 l -0.0414,-0.029 -0.0103,-0.0079 -0.0387,-0.0325 v 0 l -0.0437,-0.0252 -0.011,-0.007 -0.0413,-0.029 -0.0458,-0.0213 -0.0115,-0.006 -0.0438,-0.0253 v 0 l -0.0474,-0.0172 -0.0121,-0.005 -0.0457,-0.0213 -0.0487,-0.0131 -0.0125,-0.0039 -0.0196,-0.0072 -0.0278,-0.0101 v 0 l -0.0497,-0.0087 -0.0127,-0.0029 -0.01,-0.0026 -0.0391,-0.0104 v 0 l -0.0503,-0.0044 -0.0129,-0.0017 -0.0497,-0.0088 v 0 h -0.2276 -0.006 v 0 h -1.5959 l -0.108,-0.0202 -0.0934,-0.0578 -0.0662,-0.0877 -0.0301,-0.1057 -0.001,-0.0276 v -0.5986 h 8.095 v 1.2392 l 0.0155,0.1173 0.0604,0.146 0.0962,0.1253 v 0 l 0.1253,0.0962 h 1e-4 l 0.1459,0.0604 v 0 l 0.1173,0.0155 h 0.4893 v 0 -1.7999 h 0.6 v 1.7999 h 0.4894 v 0 l 0.1173,-0.0155 v 0 l 0.1459,-0.0604 0.1254,-0.0962 v 0 l 0.0961,-0.1253 v 0 l 0.0605,-0.146 0.0154,-0.1173 v -1.2392 h -1.05 -0.6 -1.05 -8.095 -2.7 v 0.5986 l -0.0202,0.108 -0.0578,0.0934 -0.0877,0.0663 -0.1057,0.03 -0.0276,0.0013 h -3.2322 l -0.108,-0.0202 -0.0935,-0.0578 -0.017,-0.0169 -0.0997,-0.1067 v 0 l -0.2175,-0.177 h -10e-5 v 0 0 l -0.2396,-0.1458 v 0 l -0.2573,-0.1117 v 0 0 l -0.2701,-0.0757 v 0 l -0.2779,-0.0382 v 0 h -0.2806 v 0 l -0.2779,0.0382 v 0 l -0.2701,0.0757 v 0 l -0.2573,0.1117 v 0 l -0.2396,0.1458 h -1e-4 l -0.2175,0.177 v 0 l -0.0997,0.1067 -0.0884,0.0651 -0.1061,0.0288 -0.024,10e-4 h -14.558 l -0.108,-0.0202 -0.0935,-0.0578 -0.017,-0.0169 -0.0997,-0.1067 v 0 l -0.2175,-0.177 h -10e-5 v 0 0 l -0.2396,-0.1458 v 0 l -0.2573,-0.1117 v 0 0 l -0.2701,-0.0757 v 0 l -0.2779,-0.0382 v 0 h -0.2806 v 0 l -0.2779,0.0382 v 0 l -0.2701,0.0757 v 0 l -0.2573,0.1117 v 0 l -0.2396,0.1458 h -1e-4 l -0.2175,0.177 v 0 l -0.0997,0.1067 -0.0884,0.0651 -0.1061,0.0288 -0.024,10e-4 h -14.558 l -0.108,-0.0202 -0.0935,-0.0578 -0.017,-0.0169 -0.0997,-0.1067 v 0 l -0.2175,-0.177 h -10e-5 v 0 0 l -0.2396,-0.1458 v 0 l -0.2573,-0.1117 v 0 0 l -0.2701,-0.0757 v 0 l -0.2779,-0.0382 v 0 h -0.2806 v 0 l -0.2779,0.0382 v 0 l -0.2701,0.0757 v 0 l -0.2573,0.1117 v 0 l -0.2396,0.1458 h -1e-4 l -0.2175,0.177 v 0 l -0.0997,0.1067 -0.0884,0.0651 -0.1061,0.0288 -0.024,10e-4 h -14.558 l -0.108,-0.0202 -0.0935,-0.0578 -0.017,-0.0169 -0.0997,-0.1067 v 0 l -0.2175,-0.177 h -1e-4 v 0 0 l -0.2396,-0.1458 v 0 l -0.2573,-0.1117 v 0 0 l -0.2701,-0.0757 v 0 l -0.2779,-0.0382 v 0 h -0.2806 v 0 l -0.2779,0.0382 v 0 l -0.2701,0.0757 v 0 l -0.2573,0.1117 v 0 l -0.2396,0.1458 h -10e-5 l -0.2175,0.177 v 0 l -0.0997,0.1067 -0.0884,0.0651 -0.1061,0.0288 -0.024,10e-4 h -14.558 l -0.108,-0.0202 -0.0935,-0.0578 -0.017,-0.0169 -0.0997,-0.1067 v 0 l -0.2175,-0.177 h -1e-4 v 0 0 l -0.2396,-0.1458 v 0 l -0.2573,-0.1117 v 0 0 l -0.2701,-0.0757 v 0 l -0.2779,-0.0382 v 0 h -0.2806 v 0 l -0.2779,0.0382 v 0 l -0.2701,0.0757 v 0 l -0.2573,0.1117 v 0 l -0.2396,0.1458 h -10e-5 l -0.2175,0.177 -0.1915,0.205 -0.1618,0.2292 v 0 l -0.129,0.2491 v 0 l -0.094,0.2643 v 0 L 97.964,61.7201 97.9448,62 l 0.0192,0.2799 0.057,0.2746 v 0 l 0.094,0.2643 v 0 l 0.129,0.2491 v 0 l 0.021,0.0297 0.0458,0.0999 0.0066,0.1096 -0.0335,0.1047 -0.0189,0.0306 -0.021,0.0297 v 0 l -0.129,0.2491 v 0 l -0.094,0.2643 v 0 l -0.057,0.2746 -0.0192,0.2799 0.0192,0.2799 0.057,0.2746 v 0 l 0.094,0.2643 v 0 l 0.1109,0.2141 0.0181,0.035 0.1618,0.2292 0.031,0.0331 0.0678,0.0726 0.0589,0.0928 0.0215,0.1077 -0.0189,0.1083 -0.0251,0.0515 -0.0156,0.0255 -0.0994,0.2399 -0.0606,0.2526 v 0 L 98.3449,67.08 v 0 l 0.0204,0.2589 v 0 l 0.0606,0.2526 0.0994,0.2399 0.0156,0.0255 0.0392,0.1026 -5e-4,0.1099 -0.0402,0.1023 -0.0349,0.0455 -0.0988,0.1057 v 0 0 l -0.0599,0.0849 -0.1019,0.1443 v 0 l -0.129,0.2491 v 0 l -0.094,0.2643 v 0 l -0.057,0.2746 -0.0192,0.2799 0.0192,0.2799 0.057,0.2746 v 0 l 0.094,0.2643 v 0 l 0.129,0.2491 v 0 l 0.021,0.0297 0.0458,0.0999 0.0066,0.1096 -0.0335,0.1047 -0.0189,0.0306 -0.021,0.0297 v 0 0 l -0.129,0.2491 v 0 l -0.094,0.2643 v 0 l -0.057,0.2746 -0.0192,0.2799 H 96.0005 V 57.2995 l 0.0202,-0.108 0.0578,-0.0934 0.0877,-0.0663 0.1057,-0.03 0.0276,-0.0013 h 80.9916 z"
           id="path2708" />
      </g>
    </g>
    <g
       style="fill:#ffffff;fill-opacity:1;stroke:#ffffff;stroke-width:0;stroke-linecap:round;stroke-linejoin:round;stroke-opacity:1"
       id="g2418"
       transform="translate(-95.95,-56.949999)">
      <circle
         cx="172"
         cy="62"
         r="1.05"
         id="circle2416"
         style="fill:#ffffff;stroke:#ffffff" />
    </g>
    <g
       style="fill:#ffffff;fill-opacity:1;stroke:#ffffff;stroke-width:0;stroke-linecap:round;stroke-linejoin:round;stroke-opacity:1"
       id="g2424"
       transform="translate(-95.95,-56.949999)">
      <circle
         cx="172"
         cy="64.540001"
         r="1.05"
         id="circle2422"
         style="fill:#ffffff;stroke:#ffffff" />
    </g>
    <g
       style="fill:#ffffff;fill-opacity:1;stroke:#ffffff;stroke-width:0;stroke-linecap:round;stroke-linejoin:round;stroke-opacity:1"
       id="g2430"
       transform="translate(-95.95,-56.949999)">
      <circle
         cx="172"
         cy="67.080002"
         r="1.05"
         id="circle2428"
         style="fill:#ffffff;stroke:#ffffff" />
    </g>
    <g
       style="fill:#ffffff;fill-opacity:1;stroke:#ffffff;stroke-width:0;stroke-linecap:round;stroke-linejoin:round;stroke-opacity:1"
       id="g2436"
       transform="translate(-95.95,-56.949999)">
      <circle
         cx="172"
         cy="69.620003"
         r="1.05"
         id="circle2434"
         style="fill:#ffffff;stroke:#ffffff" />
    </g>
    <g
       style="fill:#ffffff;fill-opacity:1;stroke:#ffffff;stroke-width:0;stroke-linecap:round;stroke-linejoin:round;stroke-opacity:1"
       id="g2442"
       transform="translate(-95.95,-56.949999)">
      <circle
         cx="172"
         cy="72.160004"
         r="1.05"
         id="circle2440"
         style="fill:#ffffff;stroke:#ffffff" />
    </g>
    <g
       style="fill:#ffffff;fill-opacity:1;stroke:#ffffff;stroke-width:0;stroke-linecap:round;stroke-linejoin:round;stroke-opacity:1"
       id="g2452"
       transform="translate(-95.95,-56.949999)">
      <circle
         cx="154"
         cy="62"
         r="1.05"
         id="circle2450"
         style="fill:#ffffff;stroke:#ffffff" />
    </g>
    <g
       style="fill:#ffffff;fill-opacity:1;stroke:#ffffff;stroke-width:0;stroke-linecap:round;stroke-linejoin:round;stroke-opacity:1"
       id="g2458"
       transform="translate(-95.95,-56.949999)">
      <circle
         cx="154"
         cy="64.540001"
         r="1.05"
         id="circle2456"
         style="fill:#ffffff;stroke:#ffffff" />
    </g>
    <g
       style="fill:#ffffff;fill-opacity:1;stroke:#ffffff;stroke-width:0;stroke-linecap:round;stroke-linejoin:round;stroke-opacity:1"
       id="g2464"
       transform="translate(-95.95,-56.949999)">
      <circle
         cx="154"
         cy="67.080002"
         r="1.05"
         id="circle2462"
         style="fill:#ffffff;stroke:#ffffff" />
    </g>
    <g
       style="fill:#ffffff;fill-opacity:1;stroke:#ffffff;stroke-width:0;stroke-linecap:round;stroke-linejoin:round;stroke-opacity:1"
       id="g2470"
       transform="translate(-95.95,-56.949999)">
      <circle
         cx="154"
         cy="69.620003"
         r="1.05"
         id="circle2468"
         style="fill:#ffffff;stroke:#ffffff" />
    </g>
    <g
       style="fill:#ffffff;fill-opacity:1;stroke:#ffffff;stroke-width:0;stroke-linecap:round;stroke-linejoin:round;stroke-opacity:1"
       id="g2476"
       transform="translate(-95.95,-56.949999)">
      <circle
         cx="154"
         cy="72.160004"
         r="1.05"
         id="circle2474"
         style="fill:#ffffff;stroke:#ffffff" />
    </g>
    <g
       style="fill:#ffffff;fill-opacity:1;stroke:#ffffff;stroke-width:0;stroke-linecap:round;stroke-linejoin:round;stroke-opacity:1"
       id="g2486"
       transform="translate(-95.95,-56.949999)">
      <circle
         cx="118"
         cy="62"
         r="1.05"
         id="circle2484"
         style="fill:#ffffff;stroke:#ffffff" />
    </g>
    <g
       style="fill:#ffffff;fill-opacity:1;stroke:#ffffff;stroke-width:0;stroke-linecap:round;stroke-linejoin:round;stroke-opacity:1"
       id="g2492"
       transform="translate(-95.95,-56.949999)">
      <circle
         cx="118"
         cy="64.540001"
         r="1.05"
         id="circle2490"
         style="fill:#ffffff;stroke:#ffffff" />
    </g>
    <g
       style="fill:#ffffff;fill-opacity:1;stroke:#ffffff;stroke-width:0;stroke-linecap:round;stroke-linejoin:round;stroke-opacity:1"
       id="g2498"
       transform="translate(-95.95,-56.949999)">
      <circle
         cx="118"
         cy="67.080002"
         r="1.05"
         id="circle2496"
         style="fill:#ffffff;stroke:#ffffff" />
    </g>
    <g
       style="fill:#ffffff;fill-opacity:1;stroke:#ffffff;stroke-width:0;stroke-linecap:round;stroke-linejoin:round;stroke-opacity:1"
       id="g2504"
       transform="translate(-95.95,-56.949999)">
      <circle
         cx="118"
         cy="69.620003"
         r="1.05"
         id="circle2502"
         style="fill:#ffffff;stroke:#ffffff" />
    </g>
    <g
       style="fill:#ffffff;fill-opacity:1;stroke:#ffffff;stroke-width:0;stroke-linecap:round;stroke-linejoin:round;stroke-opacity:1"
       id="g2510"
       transform="translate(-95.95,-56.949999)">
      <circle
         cx="118"
         cy="72.160004"
         r="1.05"
         id="circle2508"
         style="fill:#ffffff;stroke:#ffffff" />
    </g>
    <g
       style="fill:#ffffff;fill-opacity:1;stroke:#ffffff;stroke-width:0;stroke-linecap:round;stroke-linejoin:round;stroke-opacity:1"
       id="g2520"
       transform="translate(-95.95,-56.949999)">
      <circle
         cx="136"
         cy="62"
         r="1.05"
         id="circle2518"
         style="fill:#ffffff;stroke:#ffffff" />
    </g>
    <g
       style="fill:#ffffff;fill-opacity:1;stroke:#ffffff;stroke-width:0;stroke-linecap:round;stroke-linejoin:round;stroke-opacity:1"
       id="g2526"
       transform="translate(-95.95,-56.949999)">
      <circle
         cx="136"
         cy="64.540001"
         r="1.05"
         id="circle2524"
         style="fill:#ffffff;stroke:#ffffff" />
    </g>
    <g
       style="fill:#ffffff;fill-opacity:1;stroke:#ffffff;stroke-width:0;stroke-linecap:round;stroke-linejoin:round;stroke-opacity:1"
       id="g2532"
       transform="translate(-95.95,-56.949999)">
      <circle
         cx="136"
         cy="67.080002"
         r="1.05"
         id="circle2530"
         style="fill:#ffffff;stroke:#ffffff" />
    </g>
    <g
       style="fill:#ffffff;fill-opacity:1;stroke:#ffffff;stroke-width:0;stroke-linecap:round;stroke-linejoin:round;stroke-opacity:1"
       id="g2538"
       transform="translate(-95.95,-56.949999)">
      <circle
         cx="136"
         cy="69.620003"
         r="1.05"
         id="circle2536"
         style="fill:#ffffff;stroke:#ffffff" />
    </g>
    <g
       style="fill:#ffffff;fill-opacity:1;stroke:#ffffff;stroke-width:0;stroke-linecap:round;stroke-linejoin:round;stroke-opacity:1"
       id="g2544"
       transform="translate(-95.95,-56.949999)">
      <circle
         cx="136"
         cy="72.160004"
         r="1.05"
         id="circle2542"
         style="fill:#ffffff;stroke:#ffffff" />
    </g>
    <g
       style="fill:#ffffff;fill-opacity:1;stroke:#ffffff;stroke-width:0;stroke-linecap:round;stroke-linejoin:round;stroke-opacity:1"
       id="g2554"
       transform="translate(-95.95,-56.949999)">
      <circle
         cx="100"
         cy="62"
         r="1.05"
         id="circle2552"
         style="fill:#ffffff;stroke:#ffffff" />
    </g>
    <g
       style="fill:#ffffff;fill-opacity:1;stroke:#ffffff;stroke-width:0;stroke-linecap:round;stroke-linejoin:round;stroke-opacity:1"
       id="g2560"
       transform="translate(-95.95,-56.949999)">
      <circle
         cx="100"
         cy="64.540001"
         r="1.05"
         id="circle2558"
         style="fill:#ffffff;stroke:#ffffff" />
    </g>
    <g
       style="fill:#ffffff;fill-opacity:1;stroke:#ffffff;stroke-width:0;stroke-linecap:round;stroke-linejoin:round;stroke-opacity:1"
       id="g2566"
       transform="translate(-95.95,-56.949999)">
      <circle
         cx="100"
         cy="67.080002"
         r="1.05"
         id="circle2564"
         style="fill:#ffffff;stroke:#ffffff" />
    </g>
    <g
       style="fill:#ffffff;fill-opacity:1;stroke:#ffffff;stroke-width:0;stroke-linecap:round;stroke-linejoin:round;stroke-opacity:1"
       id="g2572"
       transform="translate(-95.95,-56.949999)">
      <circle
         cx="100"
         cy="69.620003"
         r="1.05"
         id="circle2570"
         style="fill:#ffffff;stroke:#ffffff" />
    </g>
    <g
       style="fill:#ffffff;fill-opacity:1;stroke:#ffffff;stroke-width:0;stroke-linecap:round;stroke-linejoin:round;stroke-opacity:1"
       id="g2578"
       transform="translate(-95.95,-56.949999)">
      <circle
         cx="100"
         cy="72.160004"
         r="1.05"
         id="circle2576"
         style="fill:#ffffff;stroke:#ffffff" />
    </g>
    <g
       style="fill:#ffffff;fill-opacity:1;stroke:#ffffff;stroke-width:0;stroke-linecap:round;stroke-linejoin:round;stroke-opacity:1"
       id="g2598"
       transform="translate(-95.95,-56.949999)">
      <path
         style="fill:#ffffff;fill-opacity:1;fill-rule:evenodd;stroke:#ffffff;stroke-width:0;stroke-linecap:round;stroke-linejoin:round;stroke-opacity:1"
         d="m 181.5042,68.3691 h -1.0084 v -2.7382 h 1.0084 z"
         id="path2586" />
      <path
         style="fill:#ffffff;fill-opacity:1;fill-rule:evenodd;stroke:#ffffff;stroke-width:0;stroke-linecap:round;stroke-linejoin:round;stroke-opacity:1"
         d="m 183.5057,68.3691 h -1.0084 v -2.7382 h 1.0084 z"
         id="path2588" />
      <path
         style="fill:#ffffff;fill-opacity:1;fill-rule:evenodd;stroke:#ffffff;stroke-width:0;stroke-linecap:round;stroke-linejoin:round;stroke-opacity:1"
         d="m 185.5022,68.3691 h -1.0084 v -2.7382 h 1.0084 z"
         id="path2590" />
      <path
         style="fill:#ffffff;fill-opacity:1;fill-rule:evenodd;stroke:#ffffff;stroke-width:0;stroke-linecap:round;stroke-linejoin:round;stroke-opacity:1"
         d="m 187.5037,68.3691 h -1.0084 v -2.7382 h 1.0084 z"
         id="path2592" />
      <path
         style="fill:#ffffff;fill-opacity:1;fill-rule:evenodd;stroke:#ffffff;stroke-width:0;stroke-linecap:round;stroke-linejoin:round;stroke-opacity:1"
         d="m 179.3522,61.0018 h -1.5 V 58.002 h 1.5 z"
         id="path2594" />
      <path
         style="fill:#ffffff;fill-opacity:1;fill-rule:evenodd;stroke:#ffffff;stroke-width:0;stroke-linecap:round;stroke-linejoin:round;stroke-opacity:1"
         d="m 190.1472,61.0018 h -1.5 V 58.002 h 1.5 z"
         id="path2596" />
    </g>
  </g>
  <g
     inkscape:groupmode="layer"
     id="layer3"
     inkscape:label="holes"
     style="display:inline"
     transform="translate(0.77958128,0.82328717)">
    <circle
       cx="76.049995"
       cy="5.0499997"
       r="0.69999999"
       id="circle2716"
       style="fill:#000000;fill-opacity:1;stroke:#000000;stroke-width:0;stroke-linecap:round;stroke-linejoin:round;stroke-dasharray:none;stroke-opacity:1" />
    <circle
       cx="76.049995"
       cy="7.5900006"
       r="0.69999999"
       id="circle2722"
       style="fill:#000000;fill-opacity:1;stroke:#000000;stroke-width:0;stroke-linecap:round;stroke-linejoin:round;stroke-dasharray:none;stroke-opacity:1" />
    <circle
       cx="76.049995"
       cy="10.130002"
       r="0.69999999"
       id="circle2728"
       style="fill:#000000;fill-opacity:1;stroke:#000000;stroke-width:0;stroke-linecap:round;stroke-linejoin:round;stroke-dasharray:none;stroke-opacity:1" />
    <circle
       cx="76.049995"
       cy="12.670003"
       r="0.69999999"
       id="circle2734"
       style="fill:#000000;fill-opacity:1;stroke:#000000;stroke-width:0;stroke-linecap:round;stroke-linejoin:round;stroke-dasharray:none;stroke-opacity:1" />
    <circle
       cx="76.049995"
       cy="15.210004"
       r="0.69999999"
       id="circle2740"
       style="fill:#000000;fill-opacity:1;stroke:#000000;stroke-width:0;stroke-linecap:round;stroke-linejoin:round;stroke-dasharray:none;stroke-opacity:1" />
    <circle
       cx="58.049995"
       cy="5.0499997"
       r="0.69999999"
       id="circle2746"
       style="fill:#000000;fill-opacity:1;stroke:#000000;stroke-width:0;stroke-linecap:round;stroke-linejoin:round;stroke-dasharray:none;stroke-opacity:1" />
    <circle
       cx="58.049995"
       cy="7.5900006"
       r="0.69999999"
       id="circle2752"
       style="fill:#000000;fill-opacity:1;stroke:#000000;stroke-width:0;stroke-linecap:round;stroke-linejoin:round;stroke-dasharray:none;stroke-opacity:1" />
    <circle
       cx="58.049995"
       cy="10.130002"
       r="0.69999999"
       id="circle2758"
       style="fill:#000000;fill-opacity:1;stroke:#000000;stroke-width:0;stroke-linecap:round;stroke-linejoin:round;stroke-dasharray:none;stroke-opacity:1" />
    <circle
       cx="58.049995"
       cy="12.670003"
       r="0.69999999"
       id="circle2764"
       style="fill:#000000;fill-opacity:1;stroke:#000000;stroke-width:0;stroke-linecap:round;stroke-linejoin:round;stroke-dasharray:none;stroke-opacity:1" />
    <circle
       cx="58.049995"
       cy="15.210004"
       r="0.69999999"
       id="circle2770"
       style="fill:#000000;fill-opacity:1;stroke:#000000;stroke-width:0;stroke-linecap:round;stroke-linejoin:round;stroke-dasharray:none;stroke-opacity:1" />
    <circle
       cx="22.049999"
       cy="5.0499997"
       r="0.69999999"
       id="circle2776"
       style="fill:#000000;fill-opacity:1;stroke:#000000;stroke-width:0;stroke-linecap:round;stroke-linejoin:round;stroke-dasharray:none;stroke-opacity:1" />
    <circle
       cx="22.049999"
       cy="7.5900006"
       r="0.69999999"
       id="circle2782"
       style="fill:#000000;fill-opacity:1;stroke:#000000;stroke-width:0;stroke-linecap:round;stroke-linejoin:round;stroke-dasharray:none;stroke-opacity:1" />
    <circle
       cx="22.049999"
       cy="10.130002"
       r="0.69999999"
       id="circle2788"
       style="fill:#000000;fill-opacity:1;stroke:#000000;stroke-width:0;stroke-linecap:round;stroke-linejoin:round;stroke-dasharray:none;stroke-opacity:1" />
    <circle
       cx="22.049999"
       cy="12.670003"
       r="0.69999999"
       id="circle2794"
       style="fill:#000000;fill-opacity:1;stroke:#000000;stroke-width:0;stroke-linecap:round;stroke-linejoin:round;stroke-dasharray:none;stroke-opacity:1" />
    <circle
       cx="22.049999"
       cy="15.210004"
       r="0.69999999"
       id="circle2800"
       style="fill:#000000;fill-opacity:1;stroke:#000000;stroke-width:0;stroke-linecap:round;stroke-linejoin:round;stroke-dasharray:none;stroke-opacity:1" />
    <circle
       cx="40.049999"
       cy="5.0499997"
       r="0.69999999"
       id="circle2806"
       style="fill:#000000;fill-opacity:1;stroke:#000000;stroke-width:0;stroke-linecap:round;stroke-linejoin:round;stroke-dasharray:none;stroke-opacity:1" />
    <circle
       cx="40.049999"
       cy="7.5900006"
       r="0.69999999"
       id="circle2812"
       style="fill:#000000;fill-opacity:1;stroke:#000000;stroke-width:0;stroke-linecap:round;stroke-linejoin:round;stroke-dasharray:none;stroke-opacity:1" />
    <circle
       cx="40.049999"
       cy="10.130002"
       r="0.69999999"
       id="circle2818"
       style="fill:#000000;fill-opacity:1;stroke:#000000;stroke-width:0;stroke-linecap:round;stroke-linejoin:round;stroke-dasharray:none;stroke-opacity:1" />
    <circle
       cx="40.049999"
       cy="12.670003"
       r="0.69999999"
       id="circle2824"
       style="fill:#000000;fill-opacity:1;stroke:#000000;stroke-width:0;stroke-linecap:round;stroke-linejoin:round;stroke-dasharray:none;stroke-opacity:1" />
    <circle
       cx="40.049999"
       cy="15.210004"
       r="0.69999999"
       id="circle2830"
       style="fill:#000000;fill-opacity:1;stroke:#000000;stroke-width:0;stroke-linecap:round;stroke-linejoin:round;stroke-dasharray:none;stroke-opacity:1" />
    <circle
       cx="4.0500002"
       cy="5.0499997"
       r="0.69999999"
       id="circle2836"
       style="fill:#000000;fill-opacity:1;stroke:#000000;stroke-width:0;stroke-linecap:round;stroke-linejoin:round;stroke-dasharray:none;stroke-opacity:1" />
    <circle
       cx="4.0500002"
       cy="7.5900006"
       r="0.69999999"
       id="circle2842"
       style="fill:#000000;fill-opacity:1;stroke:#000000;stroke-width:0;stroke-linecap:round;stroke-linejoin:round;stroke-dasharray:none;stroke-opacity:1" />
    <circle
       cx="4.0500002"
       cy="10.130002"
       r="0.69999999"
       id="circle2848"
       style="fill:#000000;fill-opacity:1;stroke:#000000;stroke-width:0;stroke-linecap:round;stroke-linejoin:round;stroke-dasharray:none;stroke-opacity:1" />
    <circle
       cx="4.0500002"
       cy="12.670003"
       r="0.69999999"
       id="circle2854"
       style="fill:#000000;fill-opacity:1;stroke:#000000;stroke-width:0;stroke-linecap:round;stroke-linejoin:round;stroke-dasharray:none;stroke-opacity:1" />
    <circle
       cx="4.0500002"
       cy="15.210004"
       r="0.69999999"
       id="circle2860"
       style="display:inline;fill:#000000;fill-opacity:1;stroke:#000000;stroke-width:0;stroke-linecap:round;stroke-linejoin:round;stroke-dasharray:none;stroke-opacity:1" />
  </g>
</svg>
