0
SECTION
2
HEADER
9
$INSUNITS
70
4
9
$ACADVER
1
AC1014
9
$HANDSEED
5
FFFF
0
ENDSEC
0
SECTION
2
TABLES
0
TABLE
2
VPORT
5
8
100
AcDbSymbolTable
0
ENDTAB
0
TABLE
2
LTYPE
5
5
100
AcDbSymbolTable
0
LTYPE
5
14
100
AcDbSymbolTableRecord
100
AcDbLinetypeTableRecord
2
BYBLOCK
70
0
0
LTYPE
5
15
100
AcDbSymbolTableRecord
100
AcDbLinetypeTableRecord
2
BYLAYER
70
0
0
ENDTAB
0
TABLE
2
LAYER
5
2
100
AcDbSymbolTable
70
2
0
LAYER
5
50
100
AcDbSymbolTableRecord
100
AcDbLayerTableRecord
2
0
70
0
6
CONTINUOUS
0
ENDTAB
0
TABLE
2
STYLE
5
3
100
AcDbSymbolTable
70
1
0
STYLE
5
11
100
AcDbSymbolTableRecord
100
AcDbTextStyleTableRecord
2
STANDARD
70
0
0
ENDTAB
0
TABLE
2
VIEW
5
6
100
AcDbSymbolTable
70
0
0
ENDTAB
0
TABLE
2
UCS
5
7
100
AcDbSymbolTable
70
0
0
ENDTAB
0
TABLE
2
APPID
5
9
100
AcDbSymbolTable
70
2
0
APPID
5
12
100
AcDbSymbolTableRecord
100
AcDbRegAppTableRecord
2
ACAD
70
0
0
ENDTAB
0
TABLE
2
DIMSTYLE
5
A
100
AcDbSymbolTable
70
1
0
ENDTAB
0
TABLE
2
BLOCK_RECORD
5
1
100
AcDbSymbolTable
70
1
0
BLOCK_RECORD
5
1F
100
AcDbSymbolTableRecord
100
AcDbBlockTableRecord
2
*MODEL_SPACE
0
BLOCK_RECORD
5
1B
100
AcDbSymbolTableRecord
100
AcDbBlockTableRecord
2
*PAPER_SPACE
0
ENDTAB
0
ENDSEC
0
SECTION
2
BLOCKS
0
BLOCK
5
20
100
AcDbEntity
100
AcDbBlockBegin
2
*MODEL_SPACE
0
ENDBLK
5
21
100
AcDbEntity
100
AcDbBlockEnd
0
BLOCK
5
1C
100
AcDbEntity
100
AcDbBlockBegin
2
*PAPER_SPACE
0
ENDBLK
5
1D
100
AcDbEntity
100
AcDbBlockEnd
0
ENDSEC
0
SECTION
2
ENTITIES
0
CIRCLE
5
100
100
AcDbEntity
8
0
100
AcDbCircle
10
-62.907892835777155
20
-4.3341223641306659
30
0
40
1.5000000000000047
210
-6.5549707484882136e-54
220
1.6860874781173388e-84
230
1
0
CIRCLE
5
101
100
AcDbEntity
8
0
100
AcDbCircle
10
-35.000000000000007
20
4.3499999999999872
30
0
40
7.7500000000000071
210
-1.995653869452408e-48
220
5.4253796255832468e-79
230
1
0
LWPOLYLINE
5
102
100
AcDbEntity
8
0
100
AcDbPolyline
90
8
70
1
43
0.0
10
-48.774332414037609
20
84.716891927181251
10
-48.774332414038497
20
50.716891927181258
42
0.41421356237308532
10
-45.824332414038629
20
47.766891927181298
10
-39.824332414038551
20
47.766891927181085
42
0.41421356237308932
10
-36.874332414038612
20
50.716891927180932
10
-36.874332414037646
20
84.716891927180939
42
0.41421356237309415
10
-39.824332414037514
20
87.66689192718097
10
-45.824332414037613
20
87.666891927181169
42
0.41421356237308887
0
LWPOLYLINE
5
103
100
AcDbEntity
8
0
100
AcDbPolyline
90
8
70
1
43
0.0
10
-56.6443324140375
20
87.666891927181439
10
-62.644332414037592
20
87.666891927181595
42
0.41421356237308182
10
-65.594332414037581
20
84.716891927181706
10
-65.59433241403849
20
50.716891927181784
42
0.41421356237309509
10
-62.64433241403863
20
47.766891927181689
10
-56.644332414038516
20
47.766891927181504
42
0.41421356237309592
10
-53.694332414038549
20
50.716891927181464
10
-53.694332414037632
20
84.716891927181379
42
0.4142135623730977
0
CIRCLE
5
104
100
AcDbEntity
8
0
100
AcDbCircle
10
16.47349295444662
20
8.8495337470224644
30
0
40
5.0000000000000044
210
-6.5549707486027806e-54
220
1.686087478146808e-84
230
1
0
CIRCLE
5
105
100
AcDbEntity
8
0
100
AcDbCircle
10
-5.3265070455533126
20
8.8495337470219617
30
0
40
5.0000000000000044
210
-6.5549707486027806e-54
220
1.686087478146808e-84
230
1
0
LWPOLYLINE
5
106
100
AcDbEntity
8
0
100
AcDbPolyline
90
4
70
1
43
0.0
10
-13.463533228512222
20
84.945432679692431
10
-13.463533228511196
20
72.945432679692729
42
0.99999999999999989
10
-9.4635332285112526
20
72.945432679693056
10
-9.4635332285122811
20
84.945432679692857
42
0.99999999999999989
0
CIRCLE
5
107
100
AcDbEntity
8
0
100
AcDbCircle
10
-19.463533228509625
20
55.145432679692561
30
0
40
9.4999999999999165
210
6.162975822039152e-33
220
-1.6754650678490717e-63
230
1
0
CIRCLE
5
108
100
AcDbEntity
8
0
100
AcDbCircle
10
9.6079036818287769
20
73.57808702902652
30
0
40
3.0000000000000044
210
-1.995653869452408e-48
220
-2.4651903288156624e-32
230
1
0
CIRCLE
5
109
100
AcDbEntity
8
0
100
AcDbCircle
10
18.607903681828795
20
73.578087029026605
30
0
40
3.0000000000000004
210
-1.9956538694524074e-48
220
5.4253796255832444e-79
230
1
0
CIRCLE
5
110
100
AcDbEntity
8
0
100
AcDbCircle
10
27.307839376843781
20
87.928134046504013
30
0
40
3.0000000000000004
210
-1.9956538694524074e-48
220
5.4253796255832444e-79
230
1
0
CIRCLE
5
111
100
AcDbEntity
8
0
100
AcDbCircle
10
14.107903681828819
20
60.578087029026605
30
0
40
4.0000000000000062
210
-1.995653869452408e-48
220
5.4253796255832444e-79
230
1
0
ELLIPSE
5
112
100
AcDbEntity
8
0
100
AcDbEllipse
10
-98.552069665305652
20
97.305387862189704
30
0
11
-3.5452312171753282
21
3.5452312171753446
31
0.0
40
0.99726468863423712
41
5.4991566716525284
42
7.0672139427066387
0
LINE
5
113
100
AcDbEntity
8
0
100
AcDbLine
10
-103.55893139529526
20
97.31910191840646
30
-4.351909670233364e-32
11
-103.55893139529528
21
-5.6946027340479155
31
0
0
ELLIPSE
5
114
100
AcDbEntity
8
0
100
AcDbEllipse
10
-98.552069665305666
20
-5.6808886778311951
30
0
11
-3.5452312171753357
21
-3.5452312171753375
31
0.0
40
0.99726468863423734
41
5.4991566716525302
42
7.0672139427066352
0
LINE
5
115
100
AcDbEntity
8
0
100
AcDbLine
10
-98.565783721522422
20
-10.687750407820806
30
8.7277250359386417e-32
11
43.447920930931986
21
-10.687750407820813
31
-8.8817841970012523e-15
0
ELLIPSE
5
116
100
AcDbEntity
8
0
100
AcDbEllipse
10
43.434206874715251
20
-5.6808886778311951
30
0
11
3.5452312171753282
21
-3.5452312171753446
31
0.0
40
0.99726468863423712
41
5.4991566716525346
42
7.067213942706644
0
LINE
5
117
100
AcDbEntity
8
0
100
AcDbLine
10
48.441068604704853
20
-5.6946027340479288
30
4.3519096702333782e-32
11
48.441068604704832
21
97.319101918406432
31
0
0
ELLIPSE
5
118
100
AcDbEntity
8
0
100
AcDbEllipse
10
43.434206874715215
20
97.305387862189704
30
0
11
3.5452312171753357
21
3.5452312171753375
31
0.0
40
0.99726468863423734
41
5.4991566716525311
42
7.0672139427066369
0
LINE
5
119
100
AcDbEntity
8
0
100
AcDbLine
10
43.447920930931971
20
102.31224959217931
30
-8.7277250359386417e-32
11
-98.565783721522365
21
102.31224959217931
31
4.351909670233359e-32
0
CIRCLE
5
120
100
AcDbEntity
8
0
100
AcDbCircle
10
-62.907892835777155
20
-4.3341223641306668
30
0
40
1.5000000000000047
210
-6.5549707484882136e-54
220
1.6860874781173388e-84
230
1
0
CIRCLE
5
121
100
AcDbEntity
8
0
100
AcDbCircle
10
-36.169790495672721
20
90.854103207236761
30
8.8817841970012523e-15
40
1.75
210
-6.1629758220393819e-33
220
1.1884348231529362e-62
230
1
0
CIRCLE
5
122
100
AcDbEntity
8
0
100
AcDbCircle
10
-66.261372481663201
20
90.854103207237259
30
8.8817841970012523e-15
40
1.75
210
-6.1629758220393819e-33
220
1.1884348231529362e-62
230
1
0
CIRCLE
5
123
100
AcDbEntity
8
0
100
AcDbCircle
10
-36.169790495672125
20
41.114247253548449
30
0
40
1.75
210
-6.1629758220393846e-33
220
1.1979303906880816e-62
230
1
0
CIRCLE
5
124
100
AcDbEntity
8
0
100
AcDbCircle
10
-35.000000000000007
20
4.3499999999999863
30
0
40
7.7500000000000071
210
-1.995653869452408e-48
220
5.4253796255832468e-79
230
1
0
LWPOLYLINE
5
125
100
AcDbEntity
8
0
100
AcDbPolyline
90
8
70
1
43
0.0
10
-48.774332414038497
20
50.716891927181251
10
-48.774332414037609
20
84.716891927181251
42
-0.41421356237308976
10
-45.824332414037613
20
87.666891927181169
10
-39.824332414037521
20
87.66689192718097
42
-0.41421356237309331
10
-36.874332414037646
20
84.716891927180939
10
-36.874332414038612
20
50.716891927180932
42
-0.41421356237308837
10
-39.824332414038544
20
47.766891927181085
10
-45.824332414038629
20
47.766891927181298
42
-0.41421356237308621
0
LWPOLYLINE
5
126
100
AcDbEntity
8
0
100
AcDbPolyline
90
8
70
1
43
0.0
10
-62.644332414037592
20
87.666891927181609
10
-56.6443324140375
20
87.666891927181439
42
-0.41421356237309415
10
-53.694332414037625
20
84.716891927181379
10
-53.694332414038541
20
50.716891927181472
42
-0.4142135623730977
10
-56.644332414038523
20
47.766891927181504
10
-62.64433241403863
20
47.766891927181696
42
-0.41421356237309592
10
-65.59433241403849
20
50.716891927181777
10
-65.594332414037581
20
84.71689192718172
42
-0.41421356237308266
0
CIRCLE
5
127
100
AcDbEntity
8
0
100
AcDbCircle
10
16.47349295444662
20
8.8495337470224698
30
0
40
5.0000000000000044
210
-6.5549707486027806e-54
220
1.686087478146808e-84
230
1
0
CIRCLE
5
128
100
AcDbEntity
8
0
100
AcDbCircle
10
-5.3265070455533126
20
8.849533747021967
30
0
40
5.0000000000000044
210
-6.5549707486027806e-54
220
1.686087478146808e-84
230
1
0
LWPOLYLINE
5
129
100
AcDbEntity
8
0
100
AcDbPolyline
90
4
70
1
43
0.0
10
-13.463533228511196
20
72.945432679692729
10
-13.463533228512226
20
84.945432679692459
42
-0.99999999999999989
10
-9.4635332285122793
20
84.945432679692885
10
-9.4635332285112543
20
72.94543267969307
42
-0.99999999999999989
0
CIRCLE
5
130
100
AcDbEntity
8
0
100
AcDbCircle
10
-19.463533228509625
20
55.145432679692561
30
0
40
9.4999999999999165
210
6.162975822039152e-33
220
-1.6754650678490717e-63
230
1
0
CIRCLE
5
131
100
AcDbEntity
8
0
100
AcDbCircle
10
9.6079036818287769
20
73.57808702902652
30
0
40
3.0000000000000044
210
-1.995653869452408e-48
220
-2.4651903288156624e-32
230
1
0
CIRCLE
5
132
100
AcDbEntity
8
0
100
AcDbCircle
10
18.607903681828795
20
73.578087029026605
30
0
40
3.0000000000000004
210
-1.9956538694524074e-48
220
5.4253796255832444e-79
230
1
0
CIRCLE
5
133
100
AcDbEntity
8
0
100
AcDbCircle
10
27.307839376843781
20
87.928134046504013
30
0
40
3.0000000000000004
210
-1.9956538694524074e-48
220
5.4253796255832444e-79
230
1
0
CIRCLE
5
134
100
AcDbEntity
8
0
100
AcDbCircle
10
14.107903681828819
20
60.578087029026605
30
0
40
4.0000000000000062
210
-1.995653869452408e-48
220
5.4253796255832444e-79
230
1
0
ELLIPSE
5
135
100
AcDbEntity
8
0
100
AcDbEllipse
10
-101.99958953912848
20
-12.610915892876378
30
-8.8817841970012523e-15
11
-0.48539625330242864
21
-0.12130285186589236
31
0.0
40
0.99935281962456313
41
6.0384484817812139
42
7.6089402568745719
0
LINE
5
136
100
AcDbEntity
8
0
100
AcDbLine
10
-102.49989431127788
20
-12.611068174523227
30
-8.8817841970012523e-15
11
-102.49989431127787
21
104.23556735888177
31
-8.8817841970012523e-15
0
ELLIPSE
5
137
100
AcDbEntity
8
0
100
AcDbEllipse
10
-101.99958953912846
20
104.2354150772349
30
-8.8817841970012523e-15
11
-0.48539625330242864
21
0.12130285186589236
31
0.0
40
0.99935281962456313
41
4.9574303574846033
42
6.5279221325779249
0
LINE
5
138
100
AcDbEntity
8
0
100
AcDbLine
10
-101.99974190779574
20
104.73543411642777
30
-8.8817841970012523e-15
11
46.881879117205386
21
104.73543411642778
31
-8.8817841970012523e-15
0
ELLIPSE
5
139
100
AcDbEntity
8
0
100
AcDbEllipse
10
46.881726748538085
20
104.2354150772349
30
-8.8817841970012523e-15
11
0.48539625330242864
21
0.12130285186589236
31
0.0
40
0.99935281962456313
41
6.0384484817812414
42
7.6089402568745488
0
LINE
5
140
100
AcDbEntity
8
0
100
AcDbLine
10
47.382031520687491
20
104.23556735888175
30
-8.8817841970012523e-15
11
47.382031520687434
21
-12.611068174523208
31
-8.8817841970012523e-15
0
ELLIPSE
5
141
100
AcDbEntity
8
0
100
AcDbEllipse
10
46.881726748538043
20
-12.610915892876378
30
0
11
0.48539625330242864
21
-0.12130285186589236
31
0.0
40
0.99935281962456313
41
4.9574303574846272
42
6.5279221325779888
0
LINE
5
142
100
AcDbEntity
8
0
100
AcDbLine
10
46.881879117205344
20
-13.110934932069247
30
7.4804219561806384e-34
11
-101.99974190779578
21
-13.110934932069247
31
-8.8817841970012523e-15
0
CIRCLE
5
143
100
AcDbEntity
8
0
100
AcDbCircle
10
-97.558931395295247
20
83.312249592179285
30
0
40
3.5480168120420439
210
-2.2984069664122229e-46
220
4.4657652419525794e-76
230
1
0
CIRCLE
5
144
100
AcDbEntity
8
0
100
AcDbCircle
10
42.441068604704824
20
8.3122495921792261
30
0
40
3.5480168120420439
210
-2.2984069664122229e-46
220
4.4657652419525794e-76
230
1
0
CIRCLE
5
145
100
AcDbEntity
8
0
100
AcDbCircle
10
42.441068604704824
20
83.312249592179285
30
0
40
3.5480168120420439
210
-2.2984069664122229e-46
220
4.4657652419525794e-76
230
1
0
CIRCLE
5
146
100
AcDbEntity
8
0
100
AcDbCircle
10
-97.558931395295247
20
8.3122495921792261
30
0
40
3.5480168120420439
210
-2.2984069664122229e-46
220
4.4657652419525794e-76
230
1
0
ENDSEC
0
SECTION
2
OBJECTS
0
DICTIONARY
5
C
100
AcDbDictionary
3
ACAD_GROUP
350
D
3
ACAD_MLINESTYLE
350
17
0
DICTIONARY
5
D
100
AcDbDictionary
0
DICTIONARY
5
1A
330
C
100
AcDbDictionary
0
DICTIONARY
5
17
100
AcDbDictionary
0
ENDSEC
0
EOF
