0
SECTION
2
HEADER
9
$INSUNITS
70
4
9
$ACADVER
1
AC1014
9
$HANDSEED
5
FFFF
0
ENDSEC
0
SECTION
2
TABLES
0
TABLE
2
VPORT
5
8
100
AcDbSymbolTable
0
ENDTAB
0
TABLE
2
LTYPE
5
5
100
AcDbSymbolTable
0
LTYPE
5
14
100
AcDbSymbolTableRecord
100
AcDbLinetypeTableRecord
2
BYBLOCK
70
0
0
LTYPE
5
15
100
AcDbSymbolTableRecord
100
AcDbLinetypeTableRecord
2
BYLAYER
70
0
0
ENDTAB
0
TABLE
2
LAYER
5
2
100
AcDbSymbolTable
70
2
0
LAYER
5
50
100
AcDbSymbolTableRecord
100
AcDbLayerTableRecord
2
0
70
0
6
CONTINUOUS
0
ENDTAB
0
TABLE
2
STYLE
5
3
100
AcDbSymbolTable
70
1
0
STYLE
5
11
100
AcDbSymbolTableRecord
100
AcDbTextStyleTableRecord
2
STANDARD
70
0
0
ENDTAB
0
TABLE
2
VIEW
5
6
100
AcDbSymbolTable
70
0
0
ENDTAB
0
TABLE
2
UCS
5
7
100
AcDbSymbolTable
70
0
0
ENDTAB
0
TABLE
2
APPID
5
9
100
AcDbSymbolTable
70
2
0
APPID
5
12
100
AcDbSymbolTableRecord
100
AcDbRegAppTableRecord
2
ACAD
70
0
0
ENDTAB
0
TABLE
2
DIMSTYLE
5
A
100
AcDbSymbolTable
70
1
0
ENDTAB
0
TABLE
2
BLOCK_RECORD
5
1
100
AcDbSymbolTable
70
1
0
BLOCK_RECORD
5
1F
100
AcDbSymbolTableRecord
100
AcDbBlockTableRecord
2
*MODEL_SPACE
0
BLOCK_RECORD
5
1B
100
AcDbSymbolTableRecord
100
AcDbBlockTableRecord
2
*PAPER_SPACE
0
ENDTAB
0
ENDSEC
0
SECTION
2
BLOCKS
0
BLOCK
5
20
100
AcDbEntity
100
AcDbBlockBegin
2
*MODEL_SPACE
0
ENDBLK
5
21
100
AcDbEntity
100
AcDbBlockEnd
0
BLOCK
5
1C
100
AcDbEntity
100
AcDbBlockBegin
2
*PAPER_SPACE
0
ENDBLK
5
1D
100
AcDbEntity
100
AcDbBlockEnd
0
ENDSEC
0
SECTION
2
ENTITIES
0
LWPOLYLINE
5
100
100
AcDbEntity
8
0
100
AcDbPolyline
90
23
70
1
43
0.0
10
45.432586372451709
20
-9.6109349320692612
42
-0.26794919243113091
10
45.865599074343926
20
-9.8609349320692594
42
0.26794919243112142
10
46.298611776236143
20
-10.110934932069258
10
52.29861177623615
20
-10.110934932069258
42
0.4142135623730937
10
52.798611776236157
20
-9.6109349320692594
10
52.79861177623615
20
-9.1109349320692612
42
0.4142135623730937
10
52.29861177623615
20
-8.610934932069263
10
41.298611776236143
20
-8.6109349320692612
42
0.41421356237309437
10
40.798611776236143
20
-9.1109349320692612
10
40.798611776236136
20
-11.610934932069256
42
-0.41421356237309637
10
40.298611776236129
20
-12.110934932069259
10
-43.382031520687462
20
-12.110934932069242
42
-0.41421356237309587
10
-46.382031520687441
20
-9.1109349320692701
10
-46.382031520687512
20
100.73543411642777
42
-0.41421356237309681
10
-43.382031520687505
20
103.73543411642777
10
98.499894311277885
20
103.73543411642774
42
-0.41421356237309681
10
101.49989431127787
20
100.73543411642777
10
101.4998943112779
20
-9.1109349320692683
42
-0.4142135623730957
10
98.499894311277899
20
-12.110934932069268
10
44.959952313073202
20
-12.110934932069259
42
-0.41421356237307944
10
44.459952313073217
20
-11.610934932069261
10
44.459952313073209
20
-10.110934932069258
42
-0.41421356237309637
10
44.959952313073202
20
-9.6109349320692594
0
LWPOLYLINE
5
101
100
AcDbEntity
8
0
100
AcDbPolyline
90
4
70
1
43
0.0
10
56.242892835777134
20
-1.3941223641308598
10
56.242892835777134
20
-6.89412236413086
10
68.742892835777127
20
-6.89412236413086
10
68.742892835777127
20
-1.3941223641308598
0
CIRCLE
5
102
100
AcDbEntity
8
0
100
AcDbCircle
10
73.112892835777131
20
-4.3465273641307158
30
0
40
2.0000000000000018
210
2.6802502375907063e-49
220
-5.2688949056750327e-82
230
1
0
CIRCLE
5
103
100
AcDbEntity
8
0
100
AcDbCircle
10
52.402892835777081
20
-4.3341223641306472
30
0
40
2.0000000000000018
210
2.6802502375907063e-49
220
-5.2688949056750327e-82
230
1
0
LWPOLYLINE
5
104
100
AcDbEntity
8
0
100
AcDbPolyline
90
29
70
1
43
0.0
10
33.87028334033225
20
82.112015536906981
42
-0.41421356237301565
10
31.870283340332804
20
84.112015536906966
10
31.870283340332797
20
89.945432679691933
10
30.913533228512463
20
89.945432679691947
42
0.41421356237310608
10
28.913533228512613
20
91.945432679692118
10
10.013533228512641
20
91.945432679693766
42
0.41421356237308493
10
8.0135332285124665
20
89.94543267969398
10
8.0135332285083543
20
41.945432679693944
42
0.4142135623730947
10
10.013533228508182
20
39.945432679693759
10
28.913533228508182
20
39.945432679692146
42
0.41421356237309109
10
30.913533228508356
20
41.945432679691955
10
31.870283340332207
20
41.945432679691947
10
31.8702833403322
20
41.114740098208493
42
0.32246411054270585
10
34.805203975252759
20
37.037172400789565
42
-0.32246411054270463
10
36.170283340332105
20
35.140629285710979
10
36.170283340332105
20
10.695988517533701
42
-0.37662754046690866
10
34.429569796478326
20
8.7128671058044205
42
1.3941549772061614
10
38.102811729819848
20
1.2302949868148698
42
-0.19820689422059237
10
39.513180697919765
20
1.8122472535489018
10
88.565855923971156
20
1.812247253548906
42
0.41421356237309537
10
90.565855923971142
20
3.8122472535489083
10
90.565855923971142
20
37.30182259724193
42
0.41421356237309509
10
88.565855923971156
20
39.301822597241937
10
73.170098805074076
20
39.301822597241923
42
-0.221011669255505
10
71.641363220244671
20
40.012261620910721
10
42.359228727070921
20
74.725347563407468
42
-0.17699839279109042
10
41.887964311900312
20
76.014908539739125
10
41.887964311901285
20
80.112015536904835
42
0.41421356237308399
10
39.887964311901847
20
82.112015536905304
0
LWPOLYLINE
5
105
100
AcDbEntity
8
0
100
AcDbPolyline
90
8
70
1
43
0.0
10
84.49989431127797
20
54.284017292531132
10
95.999894311277984
20
54.28401729253175
42
0.41421356237307944
10
97.99989431127787
20
56.284017292531743
10
97.99989431127787
20
67.284017292531061
42
0.41421356237309509
10
95.999894311277885
20
69.284017292531061
10
84.49989431127787
20
69.284017292531033
42
0.41421356237309509
10
82.49989431127787
20
67.284017292531033
10
82.49989431127787
20
56.284017292531139
42
0.41421356237311063
0
CIRCLE
5
106
100
AcDbEntity
8
0
100
AcDbCircle
10
36.169790495672828
20
90.85410320723679
30
-8.8817841970012523e-15
40
2.2499999999999964
210
6.1629758220391561e-33
220
-4.6644650001016082e-65
230
1
0
CIRCLE
5
107
100
AcDbEntity
8
0
100
AcDbCircle
10
96.751924543953038
20
47.81964763739758
30
8.8817841970012523e-15
40
1.9999999999999929
210
-6.1629758220391534e-33
220
4.6644650001016065e-65
230
1
0
CIRCLE
5
108
100
AcDbEntity
8
0
100
AcDbCircle
10
24.041293279993496
20
12.369619262184639
30
0
40
2.0000000000000018
210
1.0319116723532642e-48
220
-7.8100515365895565e-81
230
1
0
CIRCLE
5
109
100
AcDbEntity
8
0
100
AcDbCircle
10
-5.5364550152023151
20
29.104875774143867
30
0
40
2
210
1.0319116723532646e-48
220
2.4651903288156619e-32
230
1
0
CIRCLE
5
110
100
AcDbEntity
8
0
100
AcDbCircle
10
-5.5364550152023178
20
-5.2338233326754633
30
0
40
2
210
-2.4123274197039117e-49
220
2.4651903288156619e-32
230
1
0
CIRCLE
5
111
100
AcDbEntity
8
0
100
AcDbCircle
10
-35.114203310398139
20
12.369619262184646
30
0
40
2.0000000000000018
210
1.0319116723532642e-48
220
-7.8100515365895565e-81
230
1
0
LWPOLYLINE
5
112
100
AcDbEntity
8
0
100
AcDbPolyline
90
4
70
1
43
0.0
10
5.3265070455535852
20
19.949533747021857
10
-16.473492954446339
20
19.949533747022397
42
0.99999999999999989
10
-16.47349295444689
20
-2.2504662529775308
10
5.3265070455530346
20
-2.2504662529780695
42
0.99999999999999989
0
CIRCLE
5
113
100
AcDbEntity
8
0
100
AcDbCircle
10
-42.441068604704824
20
83.312249592179271
30
0
40
1.6999999999999993
210
-4.6214122728757257e-62
220
-1.5684009027403994e-107
230
1
0
CIRCLE
5
114
100
AcDbEntity
8
0
100
AcDbCircle
10
97.558931395295247
20
8.3122495921792172
30
0
40
1.6999999999999993
210
-4.6214122728757257e-62
220
-1.5684009027403994e-107
230
1
0
CIRCLE
5
115
100
AcDbEntity
8
0
100
AcDbCircle
10
97.558931395295247
20
83.312249592179271
30
0
40
1.6999999999999993
210
-4.6214122728757257e-62
220
-1.5684009027403994e-107
230
1
0
CIRCLE
5
116
100
AcDbEntity
8
0
100
AcDbCircle
10
-42.441068604704824
20
8.3122495921792172
30
0
40
1.6999999999999993
210
-4.6214122728757257e-62
220
-1.5684009027403994e-107
230
1
0
LWPOLYLINE
5
117
100
AcDbEntity
8
0
100
AcDbPolyline
90
18
70
1
43
0.0
10
-27.168735107106713
20
51.578087029026712
42
-0.41421356237309048
10
-25.168735107106723
20
49.578087029026712
10
-25.168735107106723
20
35.322231956496601
42
0.41421356237309509
10
-23.16873510710672
20
33.322231956496594
10
-11.897136065719177
20
33.322231956496594
42
0.41421356237309509
10
-9.8971360657191774
20
35.322231956496594
10
-9.8971360657191738
20
49.578087029026577
42
-0.41421356237309892
10
-7.8971360657191623
20
51.578087029026577
10
-5.1079168951462517
20
51.578087029026563
42
0.41421291735699162
10
-2.1079168951535241
20
54.578080422356862
10
-2.1078310084431573
20
93.578082624582336
42
0.41421356237310003
10
-5.1078244017662584
20
96.578089231244746
10
-14.660543078474104
20
96.578110268463476
42
0.5222329678670603
10
-20.405105724997981
20
96.578122919272971
10
-29.957824401706024
20
96.5781439564919
42
0.41421356237309026
10
-32.957831008368395
20
93.578150563168919
10
-32.95791689519929
20
54.578093635696384
42
0.41421420738948955
10
-29.957916895206562
20
51.578087029026719
0
CIRCLE
5
118
100
AcDbEntity
8
0
100
AcDbCircle
10
-37.531150232887434
20
68.093141849265294
30
0
40
2.0000000000000018
210
1.0319116723532642e-48
220
-7.8100515365895565e-81
230
1
0
CIRCLE
5
119
100
AcDbEntity
8
0
100
AcDbCircle
10
2.4687701635131738
20
48.094383016255584
30
0
40
2
210
9.3810131224680304e-50
220
2.4651903288156619e-32
230
1
0
CIRCLE
5
120
100
AcDbEntity
8
0
100
AcDbCircle
10
2.468772042662815
20
88.094290613901507
30
0
40
2
210
9.3810131224680304e-50
220
2.4651903288156619e-32
230
1
0
CIRCLE
5
121
100
AcDbEntity
8
0
100
AcDbCircle
10
30.540336816109551
20
96.223922565842344
30
-8.8817841970012523e-15
40
2.0000000000000018
210
1.0319116723532642e-48
220
-7.8100515365895565e-81
230
1
0
CIRCLE
5
122
100
AcDbEntity
8
0
100
AcDbCircle
10
30.540336816109527
20
35.823922565842054
30
0
40
2.0000000000000018
210
1.0319116723532642e-48
220
-7.8100515365895565e-81
230
1
0
CIRCLE
5
123
100
AcDbEntity
8
0
100
AcDbCircle
10
17.926507045553578
20
23.349533747021503
30
0
40
3.0000000000000027
210
1.0319116723532644e-48
220
-7.8100515365895574e-81
230
1
0
CIRCLE
5
124
100
AcDbEntity
8
0
100
AcDbCircle
10
17.926507045553095
20
0.34953374702164308
30
0
40
2.9999999999999982
210
-1.8432469463750056e-50
220
-2.4919303296128304e-84
230
1
0
CIRCLE
5
125
100
AcDbEntity
8
0
100
AcDbCircle
10
-29.073492954446269
20
23.349533747022662
30
0
40
2.9999999999999982
210
1.0319116723532644e-48
220
-7.8100515365895574e-81
230
1
0
CIRCLE
5
126
100
AcDbEntity
8
0
100
AcDbCircle
10
-29.073492954446742
20
0.34953374702280993
30
0
40
2.9999999999999982
210
-1.8432469463750056e-50
220
-2.4919303296128304e-84
230
1
0
LWPOLYLINE
5
127
100
AcDbEntity
8
0
100
AcDbPolyline
90
4
70
1
43
0.0
10
70.558852041012841
20
62.284017292531068
10
70.558852041012784
20
67.284017292531061
10
66.558852041012784
20
67.284017292531061
10
66.558852041012784
20
62.284017292531068
0
CIRCLE
5
128
100
AcDbEntity
8
0
100
AcDbCircle
10
66.260879637003256
20
90.853610362577228
30
-8.8817841970012523e-15
40
2.2499999999999964
210
6.1629758220391561e-33
220
-4.6644650001016082e-65
230
1
0
LWPOLYLINE
5
129
100
AcDbEntity
8
0
100
AcDbPolyline
90
4
70
1
43
0.0
10
74.058852041012429
20
88.28401729252991
10
74.058852041012685
20
71.284017292531061
10
88.058852041012557
20
71.284017292531061
10
88.058852041012273
20
88.284017292530109
0
LWPOLYLINE
5
130
100
AcDbEntity
8
0
100
AcDbPolyline
90
14
70
1
43
0.0
10
43.215581337181924
20
97.153610362576686
42
-0.26794919243112142
10
42.215581337181938
20
95.421559555007818
42
0.26794919243111787
10
41.215581337181945
20
93.689508747438964
10
41.215581337181874
20
90.171762815426575
42
0.4142135623731002
10
43.215581337181874
20
88.171762815426547
10
59.215581337181774
20
88.171762815426547
42
0.41421356237309509
10
61.21558133718176
20
90.171762815426533
10
61.21558133718176
20
93.689508747439305
42
0.26794919243112575
10
60.215581337181739
20
95.421559555008173
42
-0.26794919243113102
10
59.215581337181717
20
97.153610362577069
10
59.215581337181725
20
98.235434116427768
42
0.41421356237309509
10
57.215581337181725
20
100.23543411642777
10
45.215581337181938
20
100.23543411642777
42
0.41421356237309509
10
43.215581337181931
20
98.235434116427768
0
ENDSEC
0
SECTION
2
OBJECTS
0
DICTIONARY
5
C
100
AcDbDictionary
3
ACAD_GROUP
350
D
3
ACAD_MLINESTYLE
350
17
0
DICTIONARY
5
D
100
AcDbDictionary
0
DICTIONARY
5
1A
330
C
100
AcDbDictionary
0
DICTIONARY
5
17
100
AcDbDictionary
0
ENDSEC
0
EOF
