0
SECTION
2
HEADER
9
$INSUNITS
70
4
9
$ACADVER
1
AC1014
9
$HANDSEED
5
FFFF
0
ENDSEC
0
SECTION
2
TABLES
0
TABLE
2
VPORT
5
8
100
AcDbSymbolTable
0
ENDTAB
0
TABLE
2
LTYPE
5
5
100
AcDbSymbolTable
0
LTYPE
5
14
100
AcDbSymbolTableRecord
100
AcDbLinetypeTableRecord
2
BYBLOCK
70
0
0
LTYPE
5
15
100
AcDbSymbolTableRecord
100
AcDbLinetypeTableRecord
2
BYLAYER
70
0
0
ENDTAB
0
TABLE
2
LAYER
5
2
100
AcDbSymbolTable
70
2
0
LAYER
5
50
100
AcDbSymbolTableRecord
100
AcDbLayerTableRecord
2
0
70
0
6
CONTINUOUS
0
ENDTAB
0
TABLE
2
STYLE
5
3
100
AcDbSymbolTable
70
1
0
STYLE
5
11
100
AcDbSymbolTableRecord
100
AcDbTextStyleTableRecord
2
STANDARD
70
0
0
ENDTAB
0
TABLE
2
VIEW
5
6
100
AcDbSymbolTable
70
0
0
ENDTAB
0
TABLE
2
UCS
5
7
100
AcDbSymbolTable
70
0
0
ENDTAB
0
TABLE
2
APPID
5
9
100
AcDbSymbolTable
70
2
0
APPID
5
12
100
AcDbSymbolTableRecord
100
AcDbRegAppTableRecord
2
ACAD
70
0
0
ENDTAB
0
TABLE
2
DIMSTYLE
5
A
100
AcDbSymbolTable
70
1
0
ENDTAB
0
TABLE
2
BLOCK_RECORD
5
1
100
AcDbSymbolTable
70
1
0
BLOCK_RECORD
5
1F
100
AcDbSymbolTableRecord
100
AcDbBlockTableRecord
2
*MODEL_SPACE
0
BLOCK_RECORD
5
1B
100
AcDbSymbolTableRecord
100
AcDbBlockTableRecord
2
*PAPER_SPACE
0
ENDTAB
0
ENDSEC
0
SECTION
2
BLOCKS
0
BLOCK
5
20
100
AcDbEntity
100
AcDbBlockBegin
2
*MODEL_SPACE
0
ENDBLK
5
21
100
AcDbEntity
100
AcDbBlockEnd
0
BLOCK
5
1C
100
AcDbEntity
100
AcDbBlockBegin
2
*PAPER_SPACE
0
ENDBLK
5
1D
100
AcDbEntity
100
AcDbBlockEnd
0
ENDSEC
0
SECTION
2
ENTITIES
0
LWPOLYLINE
5
100
100
AcDbEntity
8
0
100
AcDbPolyline
90
8
70
1
43
0.0
10
-65.794332414037626
20
84.716891927181607
42
-0.41421356237308182
10
-62.644332414037635
20
87.866891927181499
10
-56.644332414037535
20
87.866891927181342
42
-0.4142135623730917
10
-53.494332414037665
20
84.716891927181294
10
-53.494332414038581
20
50.716891927181365
42
-0.4142135623730942
10
-56.644332414038558
20
47.566891927181416
10
-62.644332414038658
20
47.566891927181622
42
-0.41421356237309248
10
-65.794332414038522
20
50.716891927181685
0
LWPOLYLINE
5
101
100
AcDbEntity
8
0
100
AcDbPolyline
90
8
70
1
43
0.0
10
-48.974332414037647
20
84.716891927181166
42
-0.41421356237309248
10
-45.824332414037642
20
87.866891927181058
10
-39.824332414037563
20
87.866891927180859
42
-0.41421356237309248
10
-36.674332414037693
20
84.716891927180853
10
-36.674332414038645
20
50.716891927180853
42
-0.41421356237308804
10
-39.824332414038579
20
47.566891927181004
10
-45.824332414038679
20
47.56689192718121
42
-0.41421356237308349
10
-48.974332414038535
20
50.716891927181166
0
LWPOLYLINE
5
102
100
AcDbEntity
8
0
100
AcDbPolyline
90
8
70
1
43
0.0
10
-66.26087963700391
20
38.214740098208026
42
-0.4142135623731022
10
-69.160879637003902
20
41.114740098208017
10
-69.160879637003106
20
90.853610362577086
42
-0.41421356237309592
10
-66.260879637003171
20
93.75361036257695
10
-36.170283340332709
20
93.753610362576509
42
-0.41421356237308604
10
-33.27028334033281
20
90.853610362576589
10
-33.270283340332284
20
41.114740098208308
42
-0.41421356237309509
10
-36.170283340332141
20
38.214740098208395
0
LWPOLYLINE
5
103
100
AcDbEntity
8
0
100
AcDbPolyline
90
4
70
1
43
0.0
10
-9.6635332285112767
20
72.945432679692829
42
-0.99999999999999989
10
-13.263533228511221
20
72.94543267969253
10
-13.263533228512243
20
84.945432679692217
42
-0.99999999999999989
10
-9.6635332285122981
20
84.945432679692544
0
CIRCLE
5
104
100
AcDbEntity
8
0
100
AcDbCircle
10
-19.463533228509661
20
55.145432679692362
30
0
40
9.2999999999999101
210
1.8141607012560447e-44
220
-3.4516885395892673e-73
230
1
0
LWPOLYLINE
5
105
100
AcDbEntity
8
0
100
AcDbPolyline
90
8
70
1
43
0.0
10
-28.913533228508101
20
39.945432679691912
42
-0.41421356237309509
10
-30.913533228508278
20
41.945432679691734
10
-30.913533228512375
20
89.945432679691763
42
-0.41421356237308726
10
-28.913533228512524
20
91.945432679691919
10
-10.01353322851255
20
91.945432679693525
42
-0.41421356237310675
10
-8.0135332285123582
20
89.945432679693695
10
-8.0135332285082761
20
41.94543267969371
42
-0.41421356237309698
10
-10.013533228508109
20
39.945432679693504
0
CIRCLE
5
106
100
AcDbEntity
8
0
100
AcDbCircle
10
9.60790368182872
20
73.578087029026392
30
0
40
2.8000000000000034
210
-1.291364851803747e-47
220
2.3192432935541708e-80
230
1
0
CIRCLE
5
107
100
AcDbEntity
8
0
100
AcDbCircle
10
18.607903681828731
20
73.578087029026477
30
0
40
2.8000000000000003
210
-1.2913648518037402e-47
220
2.3192432935540453e-80
230
1
0
LWPOLYLINE
5
108
100
AcDbEntity
8
0
100
AcDbPolyline
90
4
70
1
43
0.0
10
25.157839376843697
20
90.078134046503834
10
25.157839376843704
20
85.778134046503865
10
29.457839376843701
20
85.77813404650388
10
29.457839376843701
20
90.078134046503862
0
CIRCLE
5
109
100
AcDbEntity
8
0
100
AcDbCircle
10
14.107903681828748
20
60.578087029026484
30
0
40
3.3000000000000047
210
-1.2913648518037798e-47
220
1.97215226305253e-31
230
1
0
LWPOLYLINE
5
110
100
AcDbEntity
8
0
100
AcDbPolyline
90
12
70
1
43
0.0
10
5.1079168951462259
20
52.578087014125281
42
-0.41421291735698929
10
3.1079168802499222
20
54.578082624579949
10
3.1078309935394408
20
93.578084826805409
42
-0.41421356237310331
10
5.1078266039893272
20
95.578089246148195
10
15.241538756486877
20
95.578111547943152
42
-0.65465367070792957
10
19.824114451431491
20
95.578121639797985
10
29.957826603929085
20
95.578143971395448
42
-0.41421356237310736
10
31.957831023271893
20
93.578148360945605
10
31.957916910102874
20
54.578091433473183
42
-0.4142142073894996
10
29.957916895206566
20
52.578087014125501
10
19.824206944877488
20
52.57808702902657
42
-0.65465367070797897
10
15.241631249921635
20
52.578087029026534
0
CIRCLE
5
111
100
AcDbEntity
8
0
100
AcDbCircle
10
16.473492954446574
20
8.8495337470223756
30
0
40
5.3000000000000025
210
3.7447101384102827e-46
220
6.1051274014020199e-77
230
1
0
CIRCLE
5
112
100
AcDbEntity
8
0
100
AcDbCircle
10
16.473492954446574
20
8.8495337470223756
30
0
40
9.0999999999999623
210
3.7447101384102827e-46
220
6.105127401402026e-77
230
1
0
CIRCLE
5
113
100
AcDbEntity
8
0
100
AcDbCircle
10
-5.3265070455533579
20
8.8495337470218729
30
0
40
5.3000000000000043
210
-9.8607613152626103e-32
220
-1.6076332180426549e-62
230
1
0
CIRCLE
5
114
100
AcDbEntity
8
0
100
AcDbCircle
10
-5.3265070455533579
20
8.8495337470218729
30
0
40
9.0999999999999606
210
3.7447101384102819e-46
220
-1.9721522630525295e-31
230
1
0
ENDSEC
0
SECTION
2
OBJECTS
0
DICTIONARY
5
C
100
AcDbDictionary
3
ACAD_GROUP
350
D
3
ACAD_MLINESTYLE
350
17
0
DICTIONARY
5
D
100
AcDbDictionary
0
DICTIONARY
5
1A
330
C
100
AcDbDictionary
0
DICTIONARY
5
17
100
AcDbDictionary
0
ENDSEC
0
EOF
