%TF.GenerationSoftware,KiCad,Pcbnew,(5.0.2-5)-5*%
%TF.CreationDate,2019-04-17T13:51:17+02:00*%
%TF.ProjectId,PowerSupply,506f7765-7253-4757-9070-6c792e6b6963,rev?*%
%TF.SameCoordinates,Original*%
%TF.FileFunction,Copper,L2,Bot*%
%TF.FilePolarity,Positive*%
%FSLAX46Y46*%
G04 Gerber Fmt 4.6, Leading zero omitted, Abs format (unit mm)*
G04 Created by KiCad (PCBNEW (5.0.2-5)-5) date 2019 April 17, Wednesday 13:51:17*
%MOMM*%
%LPD*%
G01*
G04 APERTURE LIST*
%ADD10C,2.200000*%
%ADD11C,2.500000*%
%ADD12C,2.600000*%
%ADD13R,2.600000X2.600000*%
%ADD14C,1.800000*%
%ADD15R,1.800000X1.800000*%
%ADD16O,1.600000X1.600000*%
%ADD17C,1.600000*%
%ADD18C,0.800000*%
%ADD19C,0.400000*%
G04 APERTURE END LIST*
D10*
X145930000Y-83780000D03*
X145930000Y-94530000D03*
X184430000Y-94530000D03*
X184430000Y-86530000D03*
D11*
X127880000Y-96820000D03*
X127880000Y-74220000D03*
D12*
X139800000Y-106100000D03*
D13*
X134800000Y-106100000D03*
D12*
X180040000Y-106300000D03*
D13*
X175040000Y-106300000D03*
D10*
X139900000Y-94950000D03*
X139900000Y-75900000D03*
X172920000Y-75900000D03*
X172920000Y-88600000D03*
D14*
X163800000Y-103100000D03*
D15*
X161260000Y-103100000D03*
D16*
X166820000Y-109900000D03*
D17*
X159200000Y-109900000D03*
D18*
X139800000Y-95050000D02*
X139900000Y-94950000D01*
X139800000Y-106100000D02*
X139800000Y-95050000D01*
X145930000Y-88920000D02*
X139900000Y-94950000D01*
X145930000Y-83780000D02*
X145930000Y-88920000D01*
X180040000Y-98920000D02*
X184430000Y-94530000D01*
X180040000Y-106300000D02*
X180040000Y-98920000D01*
X174019999Y-76999999D02*
X180299999Y-76999999D01*
X188200000Y-84900000D02*
X188200000Y-90760000D01*
X188200000Y-90760000D02*
X184430000Y-94530000D01*
X180299999Y-76999999D02*
X188200000Y-84900000D01*
X172920000Y-75900000D02*
X174019999Y-76999999D01*
X166820000Y-109900000D02*
X176440000Y-109900000D01*
X176440000Y-109900000D02*
X180040000Y-106300000D01*
X138220000Y-74220000D02*
X139900000Y-75900000D01*
X127880000Y-74220000D02*
X138220000Y-74220000D01*
X139900000Y-75900000D02*
X147400000Y-75900000D01*
X147400000Y-75900000D02*
X150700000Y-79200000D01*
X150700000Y-89760000D02*
X145930000Y-94530000D01*
X150700000Y-79200000D02*
X150700000Y-89760000D01*
X127880000Y-101280000D02*
X132700000Y-106100000D01*
X132700000Y-106100000D02*
X134800000Y-106100000D01*
X127880000Y-96820000D02*
X127880000Y-101280000D01*
X182360000Y-88600000D02*
X184430000Y-86530000D01*
X172920000Y-88600000D02*
X182360000Y-88600000D01*
X172920000Y-88600000D02*
X172920000Y-91720000D01*
X172920000Y-91720000D02*
X175040000Y-93840000D01*
X175040000Y-93840000D02*
X175040000Y-106300000D01*
D19*
X173840000Y-107500000D02*
X175040000Y-106300000D01*
D18*
X167000000Y-106300000D02*
X175040000Y-106300000D01*
X163800000Y-103100000D02*
X167000000Y-106300000D01*
X161260000Y-107840000D02*
X159200000Y-109900000D01*
X161260000Y-103100000D02*
X161260000Y-107840000D01*
M02*
