%TF.GenerationSoftware,KiCad,Pcbnew,(5.0.2-5)-5*%
%TF.CreationDate,2019-04-17T13:51:17+02:00*%
%TF.ProjectId,PowerSupply,506f7765-7253-4757-9070-6c792e6b6963,rev?*%
%TF.SameCoordinates,Original*%
%TF.FileFunction,Legend,Top*%
%TF.FilePolarity,Positive*%
%FSLAX46Y46*%
G04 Gerber Fmt 4.6, Leading zero omitted, Abs format (unit mm)*
G04 Created by KiCad (PCBNEW (5.0.2-5)-5) date 2019 April 17, Wednesday 13:51:17*
%MOMM*%
%LPD*%
G01*
G04 APERTURE LIST*
%ADD10C,0.150000*%
%ADD11C,0.300000*%
%ADD12C,0.120000*%
%ADD13C,0.010000*%
G04 APERTURE END LIST*
D10*
G36*
X143900000Y-105900000D02*
X145000000Y-106600000D01*
X145000000Y-105200000D01*
X143900000Y-105900000D01*
G37*
X143900000Y-105900000D02*
X145000000Y-106600000D01*
X145000000Y-105200000D01*
X143900000Y-105900000D01*
G36*
X183900000Y-106500000D02*
X185000000Y-107200000D01*
X185000000Y-105800000D01*
X183900000Y-106500000D01*
G37*
X183900000Y-106500000D02*
X185000000Y-107200000D01*
X185000000Y-105800000D01*
X183900000Y-106500000D01*
G36*
X159200000Y-101800000D02*
X158100000Y-101100000D01*
X158100000Y-102500000D01*
X159200000Y-101800000D01*
G37*
X159200000Y-101800000D02*
X158100000Y-101100000D01*
X158100000Y-102500000D01*
X159200000Y-101800000D01*
D11*
X155071428Y-101078571D02*
X155357142Y-101078571D01*
X155500000Y-101150000D01*
X155642857Y-101292857D01*
X155714285Y-101578571D01*
X155714285Y-102078571D01*
X155642857Y-102364285D01*
X155500000Y-102507142D01*
X155357142Y-102578571D01*
X155071428Y-102578571D01*
X154928571Y-102507142D01*
X154785714Y-102364285D01*
X154714285Y-102078571D01*
X154714285Y-101578571D01*
X154785714Y-101292857D01*
X154928571Y-101150000D01*
X155071428Y-101078571D01*
X156357142Y-102578571D02*
X156357142Y-101078571D01*
X157214285Y-102578571D01*
X157214285Y-101078571D01*
X199578571Y-101428571D02*
X199578571Y-101285714D01*
X199650000Y-101142857D01*
X199721428Y-101071428D01*
X199864285Y-101000000D01*
X200150000Y-100928571D01*
X200507142Y-100928571D01*
X200792857Y-101000000D01*
X200935714Y-101071428D01*
X201007142Y-101142857D01*
X201078571Y-101285714D01*
X201078571Y-101428571D01*
X201007142Y-101571428D01*
X200935714Y-101642857D01*
X200792857Y-101714285D01*
X200507142Y-101785714D01*
X200150000Y-101785714D01*
X199864285Y-101714285D01*
X199721428Y-101642857D01*
X199650000Y-101571428D01*
X199578571Y-101428571D01*
X200078571Y-99642857D02*
X201078571Y-99642857D01*
X199507142Y-100000000D02*
X200578571Y-100357142D01*
X200578571Y-99428571D01*
X199507142Y-97785714D02*
X201435714Y-99071428D01*
X199721428Y-97357142D02*
X199650000Y-97285714D01*
X199578571Y-97142857D01*
X199578571Y-96785714D01*
X199650000Y-96642857D01*
X199721428Y-96571428D01*
X199864285Y-96500000D01*
X200007142Y-96500000D01*
X200221428Y-96571428D01*
X201078571Y-97428571D01*
X201078571Y-96500000D01*
X199578571Y-95571428D02*
X199578571Y-95428571D01*
X199650000Y-95285714D01*
X199721428Y-95214285D01*
X199864285Y-95142857D01*
X200150000Y-95071428D01*
X200507142Y-95071428D01*
X200792857Y-95142857D01*
X200935714Y-95214285D01*
X201007142Y-95285714D01*
X201078571Y-95428571D01*
X201078571Y-95571428D01*
X201007142Y-95714285D01*
X200935714Y-95785714D01*
X200792857Y-95857142D01*
X200507142Y-95928571D01*
X200150000Y-95928571D01*
X199864285Y-95857142D01*
X199721428Y-95785714D01*
X199650000Y-95714285D01*
X199578571Y-95571428D01*
X201078571Y-93642857D02*
X201078571Y-94500000D01*
X201078571Y-94071428D02*
X199578571Y-94071428D01*
X199792857Y-94214285D01*
X199935714Y-94357142D01*
X200007142Y-94500000D01*
X201078571Y-92928571D02*
X201078571Y-92642857D01*
X201007142Y-92500000D01*
X200935714Y-92428571D01*
X200721428Y-92285714D01*
X200435714Y-92214285D01*
X199864285Y-92214285D01*
X199721428Y-92285714D01*
X199650000Y-92357142D01*
X199578571Y-92500000D01*
X199578571Y-92785714D01*
X199650000Y-92928571D01*
X199721428Y-93000000D01*
X199864285Y-93071428D01*
X200221428Y-93071428D01*
X200364285Y-93000000D01*
X200435714Y-92928571D01*
X200507142Y-92785714D01*
X200507142Y-92500000D01*
X200435714Y-92357142D01*
X200364285Y-92285714D01*
X200221428Y-92214285D01*
D10*
G36*
X136300000Y-92800000D02*
X135200000Y-92100000D01*
X135200000Y-93500000D01*
X136300000Y-92800000D01*
G37*
X136300000Y-92800000D02*
X135200000Y-92100000D01*
X135200000Y-93500000D01*
X136300000Y-92800000D01*
G36*
X139050000Y-93250000D02*
X139750000Y-92150000D01*
X138350000Y-92150000D01*
X139050000Y-93250000D01*
G37*
X139050000Y-93250000D02*
X139750000Y-92150000D01*
X138350000Y-92150000D01*
X139050000Y-93250000D01*
G36*
X147900000Y-83700000D02*
X149000000Y-84400000D01*
X149000000Y-83000000D01*
X147900000Y-83700000D01*
G37*
X147900000Y-83700000D02*
X149000000Y-84400000D01*
X149000000Y-83000000D01*
X147900000Y-83700000D01*
G36*
X147600000Y-94500000D02*
X148700000Y-95200000D01*
X148700000Y-93800000D01*
X147600000Y-94500000D01*
G37*
X147600000Y-94500000D02*
X148700000Y-95200000D01*
X148700000Y-93800000D01*
X147600000Y-94500000D01*
G36*
X122900000Y-85100000D02*
X121800000Y-84400000D01*
X121800000Y-85800000D01*
X122900000Y-85100000D01*
G37*
X122900000Y-85100000D02*
X121800000Y-84400000D01*
X121800000Y-85800000D01*
X122900000Y-85100000D01*
G36*
X184400000Y-96300000D02*
X183700000Y-97400000D01*
X185100000Y-97400000D01*
X184400000Y-96300000D01*
G37*
X184400000Y-96300000D02*
X183700000Y-97400000D01*
X185100000Y-97400000D01*
X184400000Y-96300000D01*
G36*
X184400000Y-88300000D02*
X183700000Y-89400000D01*
X185100000Y-89400000D01*
X184400000Y-88300000D01*
G37*
X184400000Y-88300000D02*
X183700000Y-89400000D01*
X185100000Y-89400000D01*
X184400000Y-88300000D01*
G36*
X172900000Y-90500000D02*
X172200000Y-91600000D01*
X173600000Y-91600000D01*
X172900000Y-90500000D01*
G37*
X172900000Y-90500000D02*
X172200000Y-91600000D01*
X173600000Y-91600000D01*
X172900000Y-90500000D01*
G36*
X172900000Y-77700000D02*
X172200000Y-78800000D01*
X173600000Y-78800000D01*
X172900000Y-77700000D01*
G37*
X172900000Y-77700000D02*
X172200000Y-78800000D01*
X173600000Y-78800000D01*
X172900000Y-77700000D01*
G36*
X175100000Y-112300000D02*
X174400000Y-113400000D01*
X175800000Y-113400000D01*
X175100000Y-112300000D01*
G37*
X175100000Y-112300000D02*
X174400000Y-113400000D01*
X175800000Y-113400000D01*
X175100000Y-112300000D01*
G36*
X180100000Y-112200000D02*
X179400000Y-113300000D01*
X180800000Y-113300000D01*
X180100000Y-112200000D01*
G37*
X180100000Y-112200000D02*
X179400000Y-113300000D01*
X180800000Y-113300000D01*
X180100000Y-112200000D01*
D11*
X175821428Y-115314285D02*
X175821428Y-114600000D01*
X175107142Y-114528571D01*
X175178571Y-114600000D01*
X175250000Y-114742857D01*
X175250000Y-115100000D01*
X175178571Y-115242857D01*
X175107142Y-115314285D01*
X174964285Y-115385714D01*
X174607142Y-115385714D01*
X174464285Y-115314285D01*
X174392857Y-115242857D01*
X174321428Y-115100000D01*
X174321428Y-114742857D01*
X174392857Y-114600000D01*
X174464285Y-114528571D01*
X175821428Y-115814285D02*
X174321428Y-116314285D01*
X175821428Y-116814285D01*
X180850000Y-114857142D02*
X180921428Y-114714285D01*
X180921428Y-114500000D01*
X180850000Y-114285714D01*
X180707142Y-114142857D01*
X180564285Y-114071428D01*
X180278571Y-114000000D01*
X180064285Y-114000000D01*
X179778571Y-114071428D01*
X179635714Y-114142857D01*
X179492857Y-114285714D01*
X179421428Y-114500000D01*
X179421428Y-114642857D01*
X179492857Y-114857142D01*
X179564285Y-114928571D01*
X180064285Y-114928571D01*
X180064285Y-114642857D01*
X179421428Y-115571428D02*
X180921428Y-115571428D01*
X179421428Y-116428571D01*
X180921428Y-116428571D01*
X179421428Y-117142857D02*
X180921428Y-117142857D01*
X180921428Y-117500000D01*
X180850000Y-117714285D01*
X180707142Y-117857142D01*
X180564285Y-117928571D01*
X180278571Y-118000000D01*
X180064285Y-118000000D01*
X179778571Y-117928571D01*
X179635714Y-117857142D01*
X179492857Y-117714285D01*
X179421428Y-117500000D01*
X179421428Y-117142857D01*
D10*
G36*
X139100000Y-77900000D02*
X138500000Y-78800000D01*
X139700000Y-78800000D01*
X139100000Y-77900000D01*
G37*
X139100000Y-77900000D02*
X138500000Y-78800000D01*
X139700000Y-78800000D01*
X139100000Y-77900000D01*
D11*
X146435714Y-106175000D02*
X147150000Y-106175000D01*
X146292857Y-106603571D02*
X146792857Y-105103571D01*
X147292857Y-106603571D01*
X148650000Y-106460714D02*
X148578571Y-106532142D01*
X148364285Y-106603571D01*
X148221428Y-106603571D01*
X148007142Y-106532142D01*
X147864285Y-106389285D01*
X147792857Y-106246428D01*
X147721428Y-105960714D01*
X147721428Y-105746428D01*
X147792857Y-105460714D01*
X147864285Y-105317857D01*
X148007142Y-105175000D01*
X148221428Y-105103571D01*
X148364285Y-105103571D01*
X148578571Y-105175000D01*
X148650000Y-105246428D01*
X143935714Y-109153571D02*
X143935714Y-107653571D01*
X144650000Y-108153571D02*
X144650000Y-109153571D01*
X144650000Y-108296428D02*
X144721428Y-108225000D01*
X144864285Y-108153571D01*
X145078571Y-108153571D01*
X145221428Y-108225000D01*
X145292857Y-108367857D01*
X145292857Y-109153571D01*
X146007142Y-108153571D02*
X146007142Y-109653571D01*
X146007142Y-108225000D02*
X146150000Y-108153571D01*
X146435714Y-108153571D01*
X146578571Y-108225000D01*
X146650000Y-108296428D01*
X146721428Y-108439285D01*
X146721428Y-108867857D01*
X146650000Y-109010714D01*
X146578571Y-109082142D01*
X146435714Y-109153571D01*
X146150000Y-109153571D01*
X146007142Y-109082142D01*
X148007142Y-108153571D02*
X148007142Y-109153571D01*
X147364285Y-108153571D02*
X147364285Y-108939285D01*
X147435714Y-109082142D01*
X147578571Y-109153571D01*
X147792857Y-109153571D01*
X147935714Y-109082142D01*
X148007142Y-109010714D01*
X148507142Y-108153571D02*
X149078571Y-108153571D01*
X148721428Y-107653571D02*
X148721428Y-108939285D01*
X148792857Y-109082142D01*
X148935714Y-109153571D01*
X149078571Y-109153571D01*
X186757142Y-105803571D02*
X186042857Y-105803571D01*
X185971428Y-106517857D01*
X186042857Y-106446428D01*
X186185714Y-106375000D01*
X186542857Y-106375000D01*
X186685714Y-106446428D01*
X186757142Y-106517857D01*
X186828571Y-106660714D01*
X186828571Y-107017857D01*
X186757142Y-107160714D01*
X186685714Y-107232142D01*
X186542857Y-107303571D01*
X186185714Y-107303571D01*
X186042857Y-107232142D01*
X185971428Y-107160714D01*
X187257142Y-105803571D02*
X187757142Y-107303571D01*
X188257142Y-105803571D01*
X188757142Y-107303571D02*
X188757142Y-105803571D01*
X189114285Y-105803571D01*
X189328571Y-105875000D01*
X189471428Y-106017857D01*
X189542857Y-106160714D01*
X189614285Y-106446428D01*
X189614285Y-106660714D01*
X189542857Y-106946428D01*
X189471428Y-107089285D01*
X189328571Y-107232142D01*
X189114285Y-107303571D01*
X188757142Y-107303571D01*
X191114285Y-107160714D02*
X191042857Y-107232142D01*
X190828571Y-107303571D01*
X190685714Y-107303571D01*
X190471428Y-107232142D01*
X190328571Y-107089285D01*
X190257142Y-106946428D01*
X190185714Y-106660714D01*
X190185714Y-106446428D01*
X190257142Y-106160714D01*
X190328571Y-106017857D01*
X190471428Y-105875000D01*
X190685714Y-105803571D01*
X190828571Y-105803571D01*
X191042857Y-105875000D01*
X191114285Y-105946428D01*
X184364285Y-108353571D02*
X184650000Y-108353571D01*
X184792857Y-108425000D01*
X184935714Y-108567857D01*
X185007142Y-108853571D01*
X185007142Y-109353571D01*
X184935714Y-109639285D01*
X184792857Y-109782142D01*
X184650000Y-109853571D01*
X184364285Y-109853571D01*
X184221428Y-109782142D01*
X184078571Y-109639285D01*
X184007142Y-109353571D01*
X184007142Y-108853571D01*
X184078571Y-108567857D01*
X184221428Y-108425000D01*
X184364285Y-108353571D01*
X186292857Y-108853571D02*
X186292857Y-109853571D01*
X185650000Y-108853571D02*
X185650000Y-109639285D01*
X185721428Y-109782142D01*
X185864285Y-109853571D01*
X186078571Y-109853571D01*
X186221428Y-109782142D01*
X186292857Y-109710714D01*
X186792857Y-108853571D02*
X187364285Y-108853571D01*
X187007142Y-108353571D02*
X187007142Y-109639285D01*
X187078571Y-109782142D01*
X187221428Y-109853571D01*
X187364285Y-109853571D01*
X187864285Y-108853571D02*
X187864285Y-110353571D01*
X187864285Y-108925000D02*
X188007142Y-108853571D01*
X188292857Y-108853571D01*
X188435714Y-108925000D01*
X188507142Y-108996428D01*
X188578571Y-109139285D01*
X188578571Y-109567857D01*
X188507142Y-109710714D01*
X188435714Y-109782142D01*
X188292857Y-109853571D01*
X188007142Y-109853571D01*
X187864285Y-109782142D01*
X189864285Y-108853571D02*
X189864285Y-109853571D01*
X189221428Y-108853571D02*
X189221428Y-109639285D01*
X189292857Y-109782142D01*
X189435714Y-109853571D01*
X189650000Y-109853571D01*
X189792857Y-109782142D01*
X189864285Y-109710714D01*
X190364285Y-108853571D02*
X190935714Y-108853571D01*
X190578571Y-108353571D02*
X190578571Y-109639285D01*
X190650000Y-109782142D01*
X190792857Y-109853571D01*
X190935714Y-109853571D01*
D10*
X142070000Y-98230000D02*
X142070000Y-72350000D01*
X188230000Y-98230000D02*
X142070000Y-98230000D01*
X188230000Y-72340000D02*
X188230000Y-98230000D01*
X142080000Y-72340000D02*
X188230000Y-72340000D01*
D12*
X123280000Y-98820000D02*
X123280000Y-72220000D01*
X123280000Y-98820000D02*
X132480000Y-98820000D01*
X132480000Y-72220000D02*
X123280000Y-72220000D01*
X132480000Y-72220000D02*
X132480000Y-98820000D01*
X132000000Y-110900000D02*
X132580000Y-110900000D01*
X132000000Y-110260000D02*
X132000000Y-110900000D01*
X138542000Y-107092000D02*
X138147000Y-107488000D01*
X141188000Y-104446000D02*
X140808000Y-104826000D01*
X138793000Y-107374000D02*
X138413000Y-107754000D01*
X141454000Y-104712000D02*
X141059000Y-105108000D01*
X133252000Y-107381000D02*
X133146000Y-107488000D01*
X136188000Y-104446000D02*
X136081000Y-104553000D01*
X133518000Y-107647000D02*
X133412000Y-107754000D01*
X136454000Y-104712000D02*
X136347000Y-104819000D01*
X142360000Y-101540000D02*
X142360000Y-110660000D01*
X132240000Y-101540000D02*
X132240000Y-110700000D01*
X132240000Y-110700000D02*
X142360000Y-110700000D01*
X132240000Y-101540000D02*
X142360000Y-101540000D01*
X132240000Y-109600000D02*
X142360000Y-109600000D01*
X132240000Y-110100000D02*
X142360000Y-110100000D01*
X141980000Y-106100000D02*
G75*
G03X141980000Y-106100000I-2180000J0D01*
G01*
X136980000Y-106100000D02*
G75*
G03X136980000Y-106100000I-2180000J0D01*
G01*
X172240000Y-111200000D02*
X172740000Y-111200000D01*
X172240000Y-110460000D02*
X172240000Y-111200000D01*
X178813000Y-107323000D02*
X178766000Y-107369000D01*
X181110000Y-105025000D02*
X181075000Y-105061000D01*
X179006000Y-107539000D02*
X178971000Y-107574000D01*
X181315000Y-105231000D02*
X181268000Y-105277000D01*
X182600000Y-101039000D02*
X182600000Y-110960000D01*
X172480000Y-101039000D02*
X172480000Y-110960000D01*
X172480000Y-110960000D02*
X182600000Y-110960000D01*
X172480000Y-101039000D02*
X182600000Y-101039000D01*
X172480000Y-103999000D02*
X182600000Y-103999000D01*
X172480000Y-108900000D02*
X182600000Y-108900000D01*
X172480000Y-110400000D02*
X182600000Y-110400000D01*
X181720000Y-106300000D02*
G75*
G03X181720000Y-106300000I-1680000J0D01*
G01*
X175068805Y-107980253D02*
G75*
G02X174356000Y-107835000I-28805J1680253D01*
G01*
X173504574Y-106983042D02*
G75*
G02X173505000Y-105616000I1535426J683042D01*
G01*
X174356958Y-104764574D02*
G75*
G02X175724000Y-104765000I683042J-1535426D01*
G01*
X176575426Y-105616958D02*
G75*
G02X176575000Y-106984000I-1535426J-683042D01*
G01*
X175723318Y-107834756D02*
G75*
G02X175040000Y-107980000I-683318J1534756D01*
G01*
D10*
X137070000Y-99030000D02*
X137070000Y-73070000D01*
X175730000Y-99030000D02*
X137070000Y-99030000D01*
X175730000Y-73060000D02*
X175730000Y-99030000D01*
X137070000Y-73070000D02*
X175730000Y-73060000D01*
X141153994Y-94950000D02*
G75*
G03X141153994Y-94950000I-1253994J0D01*
G01*
X141153994Y-75900000D02*
G75*
G03X141153994Y-75900000I-1253994J0D01*
G01*
X174173994Y-88590000D02*
G75*
G03X174173994Y-88590000I-1253994J0D01*
G01*
X174163994Y-75900000D02*
G75*
G03X174163994Y-75900000I-1253994J0D01*
G01*
D12*
X160970000Y-104180000D02*
X160970000Y-104336000D01*
X160970000Y-101864000D02*
X160970000Y-102020000D01*
X163571130Y-104179837D02*
G75*
G02X161489039Y-104180000I-1041130J1079837D01*
G01*
X163571130Y-102020163D02*
G75*
G03X161489039Y-102020000I-1041130J-1079837D01*
G01*
X164202335Y-104178608D02*
G75*
G02X160970000Y-104335516I-1672335J1078608D01*
G01*
X164202335Y-102021392D02*
G75*
G03X160970000Y-101864484I-1672335J-1078608D01*
G01*
X166220000Y-111210000D02*
X166220000Y-110880000D01*
X159800000Y-111210000D02*
X166220000Y-111210000D01*
X159800000Y-110880000D02*
X159800000Y-111210000D01*
X166220000Y-108590000D02*
X166220000Y-108920000D01*
X159800000Y-108590000D02*
X166220000Y-108590000D01*
X159800000Y-108920000D02*
X159800000Y-108590000D01*
D13*
G36*
X142427669Y-114226577D02*
X142462492Y-114228077D01*
X142493173Y-114230685D01*
X142516870Y-114234372D01*
X142517394Y-114234488D01*
X142589322Y-114255533D01*
X142656140Y-114285178D01*
X142717360Y-114323042D01*
X142772497Y-114368746D01*
X142821063Y-114421910D01*
X142862572Y-114482153D01*
X142883099Y-114519940D01*
X142895440Y-114545413D01*
X142905566Y-114568113D01*
X142913709Y-114589439D01*
X142920104Y-114610793D01*
X142924984Y-114633576D01*
X142928583Y-114659189D01*
X142931136Y-114689034D01*
X142932875Y-114724511D01*
X142934034Y-114767022D01*
X142934848Y-114817968D01*
X142935011Y-114831090D01*
X142937049Y-115000000D01*
X142580720Y-115000000D01*
X142580720Y-114852870D01*
X142580675Y-114809857D01*
X142580490Y-114775685D01*
X142580085Y-114749037D01*
X142579379Y-114728593D01*
X142578293Y-114713036D01*
X142576748Y-114701047D01*
X142574664Y-114691308D01*
X142571961Y-114682501D01*
X142570129Y-114677434D01*
X142554523Y-114647602D01*
X142531294Y-114618566D01*
X142502832Y-114592836D01*
X142471528Y-114572926D01*
X142469872Y-114572099D01*
X142452235Y-114563916D01*
X142437672Y-114558961D01*
X142422383Y-114556443D01*
X142402568Y-114555568D01*
X142390326Y-114555500D01*
X142366238Y-114555950D01*
X142348439Y-114557786D01*
X142333081Y-114561738D01*
X142316314Y-114568534D01*
X142312635Y-114570215D01*
X142282626Y-114588394D01*
X142253892Y-114613565D01*
X142229172Y-114642862D01*
X142211210Y-114673424D01*
X142209102Y-114678349D01*
X142197180Y-114707900D01*
X142197180Y-115978114D01*
X142213779Y-116011833D01*
X142235740Y-116047025D01*
X142263654Y-116076873D01*
X142295666Y-116099694D01*
X142324818Y-116112347D01*
X142369483Y-116121146D01*
X142413647Y-116120314D01*
X142455998Y-116110224D01*
X142495221Y-116091249D01*
X142530003Y-116063760D01*
X142542124Y-116050761D01*
X142551877Y-116038944D01*
X142559835Y-116027747D01*
X142566180Y-116016011D01*
X142571093Y-116002577D01*
X142574758Y-115986288D01*
X142577356Y-115965984D01*
X142579068Y-115940507D01*
X142580078Y-115908699D01*
X142580565Y-115869400D01*
X142580714Y-115821452D01*
X142580720Y-115804989D01*
X142580720Y-115635000D01*
X142936320Y-115635000D01*
X142936320Y-115817214D01*
X142936192Y-115873153D01*
X142935734Y-115920196D01*
X142934833Y-115959605D01*
X142933376Y-115992641D01*
X142931251Y-116020566D01*
X142928345Y-116044642D01*
X142924546Y-116066130D01*
X142919740Y-116086292D01*
X142913814Y-116106391D01*
X142909268Y-116120140D01*
X142882943Y-116182043D01*
X142847774Y-116240875D01*
X142804889Y-116295505D01*
X142755419Y-116344804D01*
X142700491Y-116387644D01*
X142641233Y-116422896D01*
X142580720Y-116448760D01*
X142535390Y-116461396D01*
X142483992Y-116470522D01*
X142430113Y-116475795D01*
X142377336Y-116476872D01*
X142329249Y-116473411D01*
X142326492Y-116473038D01*
X142256182Y-116458155D01*
X142188903Y-116433702D01*
X142125167Y-116399951D01*
X142065484Y-116357174D01*
X142010364Y-116305644D01*
X142008216Y-116303355D01*
X141967794Y-116254942D01*
X141935233Y-116204047D01*
X141909299Y-116148417D01*
X141888760Y-116085802D01*
X141888428Y-116084580D01*
X141886843Y-116078641D01*
X141885416Y-116072762D01*
X141884138Y-116066401D01*
X141882999Y-116059012D01*
X141881989Y-116050052D01*
X141881099Y-116038977D01*
X141880318Y-116025243D01*
X141879638Y-116008306D01*
X141879048Y-115987622D01*
X141878538Y-115962649D01*
X141878100Y-115932840D01*
X141877722Y-115897654D01*
X141877396Y-115856545D01*
X141877112Y-115808970D01*
X141876859Y-115754385D01*
X141876629Y-115692247D01*
X141876411Y-115622011D01*
X141876196Y-115543133D01*
X141875974Y-115455070D01*
X141875786Y-115378460D01*
X141875554Y-115268053D01*
X141875420Y-115167615D01*
X141875386Y-115076955D01*
X141875453Y-114995883D01*
X141875622Y-114924208D01*
X141875894Y-114861740D01*
X141876270Y-114808287D01*
X141876750Y-114763659D01*
X141877337Y-114727666D01*
X141878031Y-114700117D01*
X141878833Y-114680821D01*
X141879717Y-114669800D01*
X141893276Y-114603198D01*
X141916042Y-114539642D01*
X141947338Y-114479831D01*
X141986485Y-114424463D01*
X142032804Y-114374240D01*
X142085619Y-114329859D01*
X142144249Y-114292022D01*
X142208019Y-114261427D01*
X142276248Y-114238775D01*
X142303860Y-114232257D01*
X142326800Y-114229026D01*
X142356979Y-114227022D01*
X142391549Y-114226216D01*
X142427669Y-114226577D01*
X142427669Y-114226577D01*
G37*
X142427669Y-114226577D02*
X142462492Y-114228077D01*
X142493173Y-114230685D01*
X142516870Y-114234372D01*
X142517394Y-114234488D01*
X142589322Y-114255533D01*
X142656140Y-114285178D01*
X142717360Y-114323042D01*
X142772497Y-114368746D01*
X142821063Y-114421910D01*
X142862572Y-114482153D01*
X142883099Y-114519940D01*
X142895440Y-114545413D01*
X142905566Y-114568113D01*
X142913709Y-114589439D01*
X142920104Y-114610793D01*
X142924984Y-114633576D01*
X142928583Y-114659189D01*
X142931136Y-114689034D01*
X142932875Y-114724511D01*
X142934034Y-114767022D01*
X142934848Y-114817968D01*
X142935011Y-114831090D01*
X142937049Y-115000000D01*
X142580720Y-115000000D01*
X142580720Y-114852870D01*
X142580675Y-114809857D01*
X142580490Y-114775685D01*
X142580085Y-114749037D01*
X142579379Y-114728593D01*
X142578293Y-114713036D01*
X142576748Y-114701047D01*
X142574664Y-114691308D01*
X142571961Y-114682501D01*
X142570129Y-114677434D01*
X142554523Y-114647602D01*
X142531294Y-114618566D01*
X142502832Y-114592836D01*
X142471528Y-114572926D01*
X142469872Y-114572099D01*
X142452235Y-114563916D01*
X142437672Y-114558961D01*
X142422383Y-114556443D01*
X142402568Y-114555568D01*
X142390326Y-114555500D01*
X142366238Y-114555950D01*
X142348439Y-114557786D01*
X142333081Y-114561738D01*
X142316314Y-114568534D01*
X142312635Y-114570215D01*
X142282626Y-114588394D01*
X142253892Y-114613565D01*
X142229172Y-114642862D01*
X142211210Y-114673424D01*
X142209102Y-114678349D01*
X142197180Y-114707900D01*
X142197180Y-115978114D01*
X142213779Y-116011833D01*
X142235740Y-116047025D01*
X142263654Y-116076873D01*
X142295666Y-116099694D01*
X142324818Y-116112347D01*
X142369483Y-116121146D01*
X142413647Y-116120314D01*
X142455998Y-116110224D01*
X142495221Y-116091249D01*
X142530003Y-116063760D01*
X142542124Y-116050761D01*
X142551877Y-116038944D01*
X142559835Y-116027747D01*
X142566180Y-116016011D01*
X142571093Y-116002577D01*
X142574758Y-115986288D01*
X142577356Y-115965984D01*
X142579068Y-115940507D01*
X142580078Y-115908699D01*
X142580565Y-115869400D01*
X142580714Y-115821452D01*
X142580720Y-115804989D01*
X142580720Y-115635000D01*
X142936320Y-115635000D01*
X142936320Y-115817214D01*
X142936192Y-115873153D01*
X142935734Y-115920196D01*
X142934833Y-115959605D01*
X142933376Y-115992641D01*
X142931251Y-116020566D01*
X142928345Y-116044642D01*
X142924546Y-116066130D01*
X142919740Y-116086292D01*
X142913814Y-116106391D01*
X142909268Y-116120140D01*
X142882943Y-116182043D01*
X142847774Y-116240875D01*
X142804889Y-116295505D01*
X142755419Y-116344804D01*
X142700491Y-116387644D01*
X142641233Y-116422896D01*
X142580720Y-116448760D01*
X142535390Y-116461396D01*
X142483992Y-116470522D01*
X142430113Y-116475795D01*
X142377336Y-116476872D01*
X142329249Y-116473411D01*
X142326492Y-116473038D01*
X142256182Y-116458155D01*
X142188903Y-116433702D01*
X142125167Y-116399951D01*
X142065484Y-116357174D01*
X142010364Y-116305644D01*
X142008216Y-116303355D01*
X141967794Y-116254942D01*
X141935233Y-116204047D01*
X141909299Y-116148417D01*
X141888760Y-116085802D01*
X141888428Y-116084580D01*
X141886843Y-116078641D01*
X141885416Y-116072762D01*
X141884138Y-116066401D01*
X141882999Y-116059012D01*
X141881989Y-116050052D01*
X141881099Y-116038977D01*
X141880318Y-116025243D01*
X141879638Y-116008306D01*
X141879048Y-115987622D01*
X141878538Y-115962649D01*
X141878100Y-115932840D01*
X141877722Y-115897654D01*
X141877396Y-115856545D01*
X141877112Y-115808970D01*
X141876859Y-115754385D01*
X141876629Y-115692247D01*
X141876411Y-115622011D01*
X141876196Y-115543133D01*
X141875974Y-115455070D01*
X141875786Y-115378460D01*
X141875554Y-115268053D01*
X141875420Y-115167615D01*
X141875386Y-115076955D01*
X141875453Y-114995883D01*
X141875622Y-114924208D01*
X141875894Y-114861740D01*
X141876270Y-114808287D01*
X141876750Y-114763659D01*
X141877337Y-114727666D01*
X141878031Y-114700117D01*
X141878833Y-114680821D01*
X141879717Y-114669800D01*
X141893276Y-114603198D01*
X141916042Y-114539642D01*
X141947338Y-114479831D01*
X141986485Y-114424463D01*
X142032804Y-114374240D01*
X142085619Y-114329859D01*
X142144249Y-114292022D01*
X142208019Y-114261427D01*
X142276248Y-114238775D01*
X142303860Y-114232257D01*
X142326800Y-114229026D01*
X142356979Y-114227022D01*
X142391549Y-114226216D01*
X142427669Y-114226577D01*
G36*
X141161957Y-114201785D02*
X141230711Y-114212993D01*
X141296231Y-114231285D01*
X141332193Y-114245208D01*
X141370759Y-114263122D01*
X141402748Y-114281197D01*
X141431529Y-114301678D01*
X141460468Y-114326810D01*
X141473793Y-114339600D01*
X141519877Y-114390644D01*
X141557166Y-114445136D01*
X141586641Y-114504725D01*
X141607355Y-114564271D01*
X141612785Y-114584813D01*
X141618338Y-114608882D01*
X141623646Y-114634443D01*
X141628338Y-114659459D01*
X141632045Y-114681895D01*
X141634399Y-114699716D01*
X141635029Y-114710885D01*
X141634438Y-114713534D01*
X141628925Y-114715109D01*
X141614874Y-114718147D01*
X141593761Y-114722380D01*
X141567060Y-114727538D01*
X141536245Y-114733354D01*
X141502792Y-114739558D01*
X141468173Y-114745881D01*
X141433865Y-114752056D01*
X141401340Y-114757813D01*
X141372074Y-114762883D01*
X141347541Y-114766998D01*
X141329215Y-114769889D01*
X141318572Y-114771287D01*
X141317070Y-114771375D01*
X141308116Y-114768793D01*
X141305640Y-114759374D01*
X141305640Y-114759351D01*
X141303783Y-114742746D01*
X141298773Y-114719597D01*
X141291447Y-114692705D01*
X141282643Y-114664869D01*
X141273200Y-114638888D01*
X141263955Y-114617563D01*
X141262096Y-114613899D01*
X141236944Y-114574581D01*
X141207687Y-114544557D01*
X141174315Y-114523821D01*
X141136819Y-114512367D01*
X141095188Y-114510190D01*
X141071346Y-114512812D01*
X141038462Y-114520716D01*
X141011766Y-114533673D01*
X140987818Y-114553482D01*
X140981922Y-114559646D01*
X140958749Y-114589456D01*
X140941799Y-114622535D01*
X140930583Y-114660437D01*
X140924614Y-114704712D01*
X140923288Y-114746000D01*
X140926686Y-114800589D01*
X140936926Y-114852611D01*
X140954574Y-114903564D01*
X140980195Y-114954944D01*
X141014354Y-115008252D01*
X141030557Y-115030480D01*
X141054856Y-115061245D01*
X141080873Y-115090870D01*
X141110077Y-115120819D01*
X141143937Y-115152554D01*
X141183921Y-115187537D01*
X141211660Y-115210860D01*
X141247607Y-115240992D01*
X141277579Y-115266823D01*
X141303638Y-115290267D01*
X141327844Y-115313242D01*
X141352257Y-115337662D01*
X141378938Y-115365444D01*
X141386317Y-115373259D01*
X141448174Y-115442601D01*
X141500832Y-115509711D01*
X141544775Y-115575437D01*
X141580486Y-115640627D01*
X141608448Y-115706128D01*
X141629144Y-115772789D01*
X141638712Y-115815980D01*
X141642912Y-115848550D01*
X141644948Y-115887985D01*
X141644909Y-115931245D01*
X141642884Y-115975287D01*
X141638963Y-116017070D01*
X141633236Y-116053553D01*
X141631479Y-116061720D01*
X141612374Y-116127350D01*
X141586361Y-116189866D01*
X141554259Y-116248048D01*
X141516889Y-116300674D01*
X141475068Y-116346526D01*
X141429615Y-116384383D01*
X141403572Y-116401233D01*
X141341571Y-116431801D01*
X141273854Y-116454873D01*
X141201835Y-116470192D01*
X141126923Y-116477506D01*
X141050532Y-116476557D01*
X141009009Y-116472501D01*
X140935238Y-116458518D01*
X140867316Y-116436241D01*
X140805182Y-116405640D01*
X140748772Y-116366686D01*
X140701651Y-116323204D01*
X140653030Y-116264668D01*
X140611684Y-116199178D01*
X140577714Y-116126976D01*
X140551221Y-116048303D01*
X140532305Y-115963399D01*
X140523285Y-115897088D01*
X140521268Y-115875710D01*
X140519955Y-115858504D01*
X140519500Y-115847701D01*
X140519739Y-115845166D01*
X140524916Y-115844498D01*
X140538740Y-115843272D01*
X140559721Y-115841595D01*
X140586370Y-115839569D01*
X140617194Y-115837302D01*
X140650704Y-115834895D01*
X140685409Y-115832456D01*
X140719818Y-115830087D01*
X140752441Y-115827894D01*
X140781788Y-115825981D01*
X140806366Y-115824453D01*
X140824687Y-115823414D01*
X140835260Y-115822970D01*
X140836125Y-115822961D01*
X140841053Y-115823946D01*
X140844840Y-115828073D01*
X140848144Y-115837099D01*
X140851620Y-115852781D01*
X140855612Y-115875030D01*
X140864727Y-115918885D01*
X140876640Y-115962245D01*
X140890430Y-116002243D01*
X140905175Y-116036013D01*
X140910698Y-116046373D01*
X140929114Y-116073178D01*
X140953062Y-116100104D01*
X140979512Y-116124130D01*
X141005430Y-116142234D01*
X141008729Y-116144063D01*
X141046395Y-116158606D01*
X141086676Y-116164027D01*
X141127687Y-116160313D01*
X141167543Y-116147452D01*
X141172402Y-116145175D01*
X141195094Y-116131234D01*
X141219310Y-116111633D01*
X141242188Y-116089114D01*
X141260865Y-116066419D01*
X141270023Y-116051669D01*
X141281993Y-116020501D01*
X141290313Y-115982718D01*
X141294728Y-115941280D01*
X141294982Y-115899149D01*
X141290822Y-115859285D01*
X141287852Y-115844588D01*
X141272340Y-115796724D01*
X141248507Y-115747510D01*
X141217551Y-115699149D01*
X141189956Y-115664276D01*
X141182339Y-115656299D01*
X141168100Y-115642209D01*
X141148073Y-115622800D01*
X141123087Y-115598864D01*
X141093974Y-115571195D01*
X141061566Y-115540587D01*
X141026694Y-115507832D01*
X140993011Y-115476353D01*
X140955475Y-115441169D01*
X140918755Y-115406391D01*
X140883830Y-115372971D01*
X140851683Y-115341865D01*
X140823294Y-115314024D01*
X140799644Y-115290405D01*
X140781713Y-115271959D01*
X140772240Y-115261675D01*
X140723249Y-115203487D01*
X140682199Y-115149028D01*
X140648300Y-115096826D01*
X140620763Y-115045412D01*
X140598800Y-114993315D01*
X140581621Y-114939063D01*
X140568618Y-114882127D01*
X140564603Y-114859776D01*
X140561813Y-114839930D01*
X140560115Y-114820125D01*
X140559374Y-114797899D01*
X140559456Y-114770788D01*
X140560227Y-114736330D01*
X140560378Y-114730931D01*
X140562524Y-114680902D01*
X140566138Y-114638596D01*
X140571637Y-114601628D01*
X140579439Y-114567616D01*
X140589964Y-114534175D01*
X140599234Y-114509686D01*
X140628999Y-114447866D01*
X140666490Y-114390869D01*
X140710714Y-114339799D01*
X140760679Y-114295757D01*
X140815395Y-114259845D01*
X140831735Y-114251245D01*
X140890061Y-114227358D01*
X140954019Y-114210446D01*
X141021837Y-114200533D01*
X141091741Y-114197639D01*
X141161957Y-114201785D01*
X141161957Y-114201785D01*
G37*
X141161957Y-114201785D02*
X141230711Y-114212993D01*
X141296231Y-114231285D01*
X141332193Y-114245208D01*
X141370759Y-114263122D01*
X141402748Y-114281197D01*
X141431529Y-114301678D01*
X141460468Y-114326810D01*
X141473793Y-114339600D01*
X141519877Y-114390644D01*
X141557166Y-114445136D01*
X141586641Y-114504725D01*
X141607355Y-114564271D01*
X141612785Y-114584813D01*
X141618338Y-114608882D01*
X141623646Y-114634443D01*
X141628338Y-114659459D01*
X141632045Y-114681895D01*
X141634399Y-114699716D01*
X141635029Y-114710885D01*
X141634438Y-114713534D01*
X141628925Y-114715109D01*
X141614874Y-114718147D01*
X141593761Y-114722380D01*
X141567060Y-114727538D01*
X141536245Y-114733354D01*
X141502792Y-114739558D01*
X141468173Y-114745881D01*
X141433865Y-114752056D01*
X141401340Y-114757813D01*
X141372074Y-114762883D01*
X141347541Y-114766998D01*
X141329215Y-114769889D01*
X141318572Y-114771287D01*
X141317070Y-114771375D01*
X141308116Y-114768793D01*
X141305640Y-114759374D01*
X141305640Y-114759351D01*
X141303783Y-114742746D01*
X141298773Y-114719597D01*
X141291447Y-114692705D01*
X141282643Y-114664869D01*
X141273200Y-114638888D01*
X141263955Y-114617563D01*
X141262096Y-114613899D01*
X141236944Y-114574581D01*
X141207687Y-114544557D01*
X141174315Y-114523821D01*
X141136819Y-114512367D01*
X141095188Y-114510190D01*
X141071346Y-114512812D01*
X141038462Y-114520716D01*
X141011766Y-114533673D01*
X140987818Y-114553482D01*
X140981922Y-114559646D01*
X140958749Y-114589456D01*
X140941799Y-114622535D01*
X140930583Y-114660437D01*
X140924614Y-114704712D01*
X140923288Y-114746000D01*
X140926686Y-114800589D01*
X140936926Y-114852611D01*
X140954574Y-114903564D01*
X140980195Y-114954944D01*
X141014354Y-115008252D01*
X141030557Y-115030480D01*
X141054856Y-115061245D01*
X141080873Y-115090870D01*
X141110077Y-115120819D01*
X141143937Y-115152554D01*
X141183921Y-115187537D01*
X141211660Y-115210860D01*
X141247607Y-115240992D01*
X141277579Y-115266823D01*
X141303638Y-115290267D01*
X141327844Y-115313242D01*
X141352257Y-115337662D01*
X141378938Y-115365444D01*
X141386317Y-115373259D01*
X141448174Y-115442601D01*
X141500832Y-115509711D01*
X141544775Y-115575437D01*
X141580486Y-115640627D01*
X141608448Y-115706128D01*
X141629144Y-115772789D01*
X141638712Y-115815980D01*
X141642912Y-115848550D01*
X141644948Y-115887985D01*
X141644909Y-115931245D01*
X141642884Y-115975287D01*
X141638963Y-116017070D01*
X141633236Y-116053553D01*
X141631479Y-116061720D01*
X141612374Y-116127350D01*
X141586361Y-116189866D01*
X141554259Y-116248048D01*
X141516889Y-116300674D01*
X141475068Y-116346526D01*
X141429615Y-116384383D01*
X141403572Y-116401233D01*
X141341571Y-116431801D01*
X141273854Y-116454873D01*
X141201835Y-116470192D01*
X141126923Y-116477506D01*
X141050532Y-116476557D01*
X141009009Y-116472501D01*
X140935238Y-116458518D01*
X140867316Y-116436241D01*
X140805182Y-116405640D01*
X140748772Y-116366686D01*
X140701651Y-116323204D01*
X140653030Y-116264668D01*
X140611684Y-116199178D01*
X140577714Y-116126976D01*
X140551221Y-116048303D01*
X140532305Y-115963399D01*
X140523285Y-115897088D01*
X140521268Y-115875710D01*
X140519955Y-115858504D01*
X140519500Y-115847701D01*
X140519739Y-115845166D01*
X140524916Y-115844498D01*
X140538740Y-115843272D01*
X140559721Y-115841595D01*
X140586370Y-115839569D01*
X140617194Y-115837302D01*
X140650704Y-115834895D01*
X140685409Y-115832456D01*
X140719818Y-115830087D01*
X140752441Y-115827894D01*
X140781788Y-115825981D01*
X140806366Y-115824453D01*
X140824687Y-115823414D01*
X140835260Y-115822970D01*
X140836125Y-115822961D01*
X140841053Y-115823946D01*
X140844840Y-115828073D01*
X140848144Y-115837099D01*
X140851620Y-115852781D01*
X140855612Y-115875030D01*
X140864727Y-115918885D01*
X140876640Y-115962245D01*
X140890430Y-116002243D01*
X140905175Y-116036013D01*
X140910698Y-116046373D01*
X140929114Y-116073178D01*
X140953062Y-116100104D01*
X140979512Y-116124130D01*
X141005430Y-116142234D01*
X141008729Y-116144063D01*
X141046395Y-116158606D01*
X141086676Y-116164027D01*
X141127687Y-116160313D01*
X141167543Y-116147452D01*
X141172402Y-116145175D01*
X141195094Y-116131234D01*
X141219310Y-116111633D01*
X141242188Y-116089114D01*
X141260865Y-116066419D01*
X141270023Y-116051669D01*
X141281993Y-116020501D01*
X141290313Y-115982718D01*
X141294728Y-115941280D01*
X141294982Y-115899149D01*
X141290822Y-115859285D01*
X141287852Y-115844588D01*
X141272340Y-115796724D01*
X141248507Y-115747510D01*
X141217551Y-115699149D01*
X141189956Y-115664276D01*
X141182339Y-115656299D01*
X141168100Y-115642209D01*
X141148073Y-115622800D01*
X141123087Y-115598864D01*
X141093974Y-115571195D01*
X141061566Y-115540587D01*
X141026694Y-115507832D01*
X140993011Y-115476353D01*
X140955475Y-115441169D01*
X140918755Y-115406391D01*
X140883830Y-115372971D01*
X140851683Y-115341865D01*
X140823294Y-115314024D01*
X140799644Y-115290405D01*
X140781713Y-115271959D01*
X140772240Y-115261675D01*
X140723249Y-115203487D01*
X140682199Y-115149028D01*
X140648300Y-115096826D01*
X140620763Y-115045412D01*
X140598800Y-114993315D01*
X140581621Y-114939063D01*
X140568618Y-114882127D01*
X140564603Y-114859776D01*
X140561813Y-114839930D01*
X140560115Y-114820125D01*
X140559374Y-114797899D01*
X140559456Y-114770788D01*
X140560227Y-114736330D01*
X140560378Y-114730931D01*
X140562524Y-114680902D01*
X140566138Y-114638596D01*
X140571637Y-114601628D01*
X140579439Y-114567616D01*
X140589964Y-114534175D01*
X140599234Y-114509686D01*
X140628999Y-114447866D01*
X140666490Y-114390869D01*
X140710714Y-114339799D01*
X140760679Y-114295757D01*
X140815395Y-114259845D01*
X140831735Y-114251245D01*
X140890061Y-114227358D01*
X140954019Y-114210446D01*
X141021837Y-114200533D01*
X141091741Y-114197639D01*
X141161957Y-114201785D01*
G36*
X140856536Y-111739704D02*
X140857708Y-111739821D01*
X140865330Y-111741969D01*
X140881745Y-111747637D01*
X140906316Y-111756573D01*
X140938403Y-111768527D01*
X140977368Y-111783246D01*
X141022573Y-111800481D01*
X141073379Y-111819979D01*
X141129148Y-111841489D01*
X141189241Y-111864760D01*
X141253020Y-111889541D01*
X141319845Y-111915581D01*
X141389080Y-111942628D01*
X141460085Y-111970431D01*
X141532221Y-111998739D01*
X141604851Y-112027300D01*
X141677335Y-112055864D01*
X141749035Y-112084178D01*
X141819314Y-112111993D01*
X141887531Y-112139056D01*
X141953049Y-112165116D01*
X142015229Y-112189923D01*
X142073433Y-112213224D01*
X142127023Y-112234769D01*
X142175359Y-112254306D01*
X142217803Y-112271584D01*
X142253716Y-112286353D01*
X142282461Y-112298359D01*
X142303399Y-112307353D01*
X142315891Y-112313083D01*
X142319094Y-112314871D01*
X142336992Y-112334515D01*
X142348292Y-112359528D01*
X142352418Y-112387095D01*
X142348792Y-112414402D01*
X142342600Y-112429595D01*
X142338534Y-112435871D01*
X142329002Y-112449858D01*
X142314401Y-112470992D01*
X142295131Y-112498707D01*
X142271591Y-112532438D01*
X142244180Y-112571620D01*
X142213295Y-112615688D01*
X142179337Y-112664076D01*
X142142704Y-112716219D01*
X142103794Y-112771552D01*
X142063007Y-112829510D01*
X142020740Y-112889528D01*
X141977394Y-112951041D01*
X141933367Y-113013483D01*
X141889057Y-113076289D01*
X141844864Y-113138893D01*
X141801185Y-113200732D01*
X141758421Y-113261239D01*
X141716969Y-113319850D01*
X141677228Y-113375998D01*
X141639598Y-113429120D01*
X141604477Y-113478650D01*
X141572264Y-113524022D01*
X141543357Y-113564671D01*
X141518156Y-113600033D01*
X141497059Y-113629542D01*
X141480465Y-113652632D01*
X141468773Y-113668740D01*
X141462381Y-113677298D01*
X141461464Y-113678412D01*
X141443061Y-113693565D01*
X141422804Y-113702749D01*
X141410423Y-113704600D01*
X141396512Y-113700134D01*
X141382139Y-113688373D01*
X141369707Y-113671766D01*
X141362484Y-113655735D01*
X141359978Y-113647594D01*
X141354795Y-113630580D01*
X141347193Y-113605549D01*
X141337431Y-113573353D01*
X141325768Y-113534849D01*
X141312462Y-113490890D01*
X141297772Y-113442329D01*
X141281957Y-113390023D01*
X141265276Y-113334824D01*
X141256514Y-113305820D01*
X141239645Y-113250040D01*
X141223614Y-113197152D01*
X141208664Y-113147954D01*
X141195039Y-113103244D01*
X141182985Y-113063820D01*
X141172745Y-113030482D01*
X141164563Y-113004025D01*
X141158685Y-112985250D01*
X141155354Y-112974954D01*
X141154690Y-112973187D01*
X141148742Y-112973097D01*
X141134504Y-112975700D01*
X141113373Y-112980618D01*
X141086741Y-112987469D01*
X141056004Y-112995872D01*
X141022557Y-113005447D01*
X140987794Y-113015813D01*
X140953110Y-113026590D01*
X140922100Y-113036663D01*
X140773765Y-113091206D01*
X140630799Y-113154346D01*
X140492913Y-113226238D01*
X140359822Y-113307038D01*
X140231237Y-113396904D01*
X140165341Y-113447842D01*
X140047709Y-113548313D01*
X139937054Y-113655937D01*
X139833680Y-113770241D01*
X139737893Y-113890753D01*
X139649996Y-114017002D01*
X139570295Y-114148515D01*
X139499094Y-114284821D01*
X139436697Y-114425447D01*
X139383411Y-114569922D01*
X139339538Y-114717774D01*
X139335535Y-114733300D01*
X139301826Y-114886228D01*
X139278208Y-115039886D01*
X139264664Y-115193958D01*
X139261180Y-115348126D01*
X139267740Y-115502072D01*
X139284328Y-115655480D01*
X139310929Y-115808033D01*
X139347527Y-115959414D01*
X139394107Y-116109304D01*
X139404204Y-116137920D01*
X139461443Y-116282315D01*
X139527303Y-116421654D01*
X139601436Y-116555657D01*
X139683494Y-116684040D01*
X139773128Y-116806521D01*
X139869991Y-116922819D01*
X139973734Y-117032652D01*
X140084009Y-117135736D01*
X140200469Y-117231791D01*
X140322764Y-117320534D01*
X140450547Y-117401683D01*
X140583470Y-117474955D01*
X140721185Y-117540070D01*
X140863343Y-117596744D01*
X141009597Y-117644696D01*
X141159598Y-117683643D01*
X141312998Y-117713304D01*
X141356440Y-117719896D01*
X141496341Y-117735516D01*
X141639349Y-117743120D01*
X141782903Y-117742686D01*
X141924443Y-117734196D01*
X142009220Y-117724985D01*
X142163491Y-117700112D01*
X142316114Y-117665375D01*
X142466421Y-117621018D01*
X142613746Y-117567290D01*
X142757424Y-117504436D01*
X142896789Y-117432705D01*
X143031174Y-117352342D01*
X143052753Y-117338315D01*
X143175675Y-117251818D01*
X143293516Y-117157517D01*
X143405308Y-117056315D01*
X143510082Y-116949118D01*
X143606869Y-116836831D01*
X143653327Y-116777254D01*
X143743629Y-116649076D01*
X143825056Y-116516502D01*
X143897493Y-116379959D01*
X143960823Y-116239877D01*
X144014930Y-116096683D01*
X144059700Y-115950804D01*
X144095017Y-115802668D01*
X144120765Y-115652704D01*
X144136828Y-115501339D01*
X144143091Y-115349002D01*
X144139438Y-115196119D01*
X144125753Y-115043119D01*
X144124551Y-115033471D01*
X144099956Y-114879522D01*
X144065585Y-114727815D01*
X144021657Y-114578851D01*
X143968389Y-114433128D01*
X143906000Y-114291146D01*
X143834709Y-114153403D01*
X143754734Y-114020401D01*
X143666293Y-113892637D01*
X143574772Y-113776735D01*
X143560073Y-113758408D01*
X143549507Y-113743512D01*
X143544070Y-113733547D01*
X143543888Y-113730271D01*
X143551795Y-113723564D01*
X143566487Y-113711826D01*
X143587075Y-113695725D01*
X143612673Y-113675932D01*
X143642392Y-113653117D01*
X143675344Y-113627950D01*
X143710643Y-113601100D01*
X143747400Y-113573239D01*
X143784728Y-113545035D01*
X143821738Y-113517159D01*
X143857543Y-113490281D01*
X143891256Y-113465070D01*
X143921989Y-113442197D01*
X143948854Y-113422332D01*
X143970963Y-113406144D01*
X143987428Y-113394303D01*
X143997363Y-113387481D01*
X143999981Y-113386053D01*
X144006051Y-113390957D01*
X144017335Y-113402817D01*
X144032896Y-113420504D01*
X144051794Y-113442887D01*
X144073092Y-113468838D01*
X144095851Y-113497227D01*
X144119132Y-113526925D01*
X144141997Y-113556803D01*
X144143371Y-113558624D01*
X144243576Y-113699906D01*
X144335173Y-113846336D01*
X144417982Y-113997480D01*
X144491820Y-114152905D01*
X144556507Y-114312177D01*
X144611861Y-114474862D01*
X144657701Y-114640527D01*
X144693844Y-114808739D01*
X144711681Y-114916687D01*
X144722257Y-114995589D01*
X144730251Y-115070941D01*
X144735877Y-115145844D01*
X144739350Y-115223399D01*
X144740884Y-115306707D01*
X144741004Y-115340360D01*
X144737251Y-115498393D01*
X144725800Y-115651238D01*
X144706365Y-115800659D01*
X144678659Y-115948416D01*
X144642396Y-116096274D01*
X144597288Y-116245995D01*
X144590165Y-116267460D01*
X144530049Y-116430905D01*
X144461124Y-116589503D01*
X144383653Y-116742974D01*
X144297899Y-116891042D01*
X144204127Y-117033429D01*
X144102600Y-117169856D01*
X143993582Y-117300047D01*
X143877338Y-117423724D01*
X143754130Y-117540609D01*
X143624223Y-117650424D01*
X143487881Y-117752892D01*
X143345367Y-117847735D01*
X143196946Y-117934675D01*
X143042881Y-118013435D01*
X142883436Y-118083736D01*
X142852500Y-118096137D01*
X142691613Y-118154625D01*
X142529556Y-118203501D01*
X142365363Y-118242990D01*
X142198066Y-118273314D01*
X142026699Y-118294697D01*
X141973660Y-118299459D01*
X141947884Y-118301118D01*
X141914476Y-118302584D01*
X141875133Y-118303839D01*
X141831556Y-118304866D01*
X141785444Y-118305650D01*
X141738497Y-118306173D01*
X141692413Y-118306419D01*
X141648893Y-118306371D01*
X141609636Y-118306013D01*
X141576342Y-118305327D01*
X141550709Y-118304297D01*
X141541860Y-118303695D01*
X141446365Y-118295037D01*
X141358897Y-118285384D01*
X141277342Y-118274400D01*
X141199587Y-118261749D01*
X141123521Y-118247098D01*
X141047029Y-118230110D01*
X140990680Y-118216287D01*
X140820237Y-118167791D01*
X140653797Y-118109981D01*
X140491574Y-118042967D01*
X140333782Y-117966859D01*
X140180638Y-117881768D01*
X140032357Y-117787804D01*
X139889153Y-117685078D01*
X139771480Y-117590868D01*
X139740994Y-117564291D01*
X139705515Y-117531796D01*
X139666500Y-117494843D01*
X139625408Y-117454894D01*
X139583696Y-117413407D01*
X139542824Y-117371845D01*
X139504248Y-117331669D01*
X139469428Y-117294338D01*
X139439821Y-117261314D01*
X139424038Y-117242820D01*
X139313695Y-117102332D01*
X139212608Y-116957742D01*
X139120824Y-116809168D01*
X139038391Y-116656728D01*
X138965357Y-116500540D01*
X138901769Y-116340720D01*
X138847675Y-116177387D01*
X138803123Y-116010659D01*
X138768161Y-115840653D01*
X138742835Y-115667487D01*
X138729762Y-115529754D01*
X138727886Y-115495310D01*
X138726606Y-115453140D01*
X138725896Y-115405053D01*
X138725728Y-115352860D01*
X138726076Y-115298374D01*
X138726914Y-115243404D01*
X138728215Y-115189761D01*
X138729952Y-115139256D01*
X138732098Y-115093701D01*
X138734628Y-115054905D01*
X138737134Y-115027940D01*
X138757129Y-114878363D01*
X138782639Y-114735589D01*
X138814140Y-114597597D01*
X138852107Y-114462368D01*
X138897014Y-114327882D01*
X138910427Y-114291340D01*
X138976027Y-114130162D01*
X139050199Y-113974234D01*
X139132668Y-113823805D01*
X139223162Y-113679125D01*
X139321409Y-113540442D01*
X139427134Y-113408007D01*
X139540066Y-113282067D01*
X139659931Y-113162873D01*
X139786455Y-113050673D01*
X139919367Y-112945717D01*
X140058393Y-112848254D01*
X140203259Y-112758534D01*
X140353694Y-112676805D01*
X140509424Y-112603317D01*
X140670175Y-112538318D01*
X140835676Y-112482059D01*
X140919188Y-112457545D01*
X140945738Y-112449889D01*
X140968401Y-112442853D01*
X140985558Y-112436980D01*
X140995595Y-112432813D01*
X140997531Y-112431247D01*
X140995941Y-112425767D01*
X140991618Y-112411410D01*
X140984815Y-112389006D01*
X140975786Y-112359387D01*
X140964786Y-112323387D01*
X140952069Y-112281837D01*
X140937889Y-112235570D01*
X140922501Y-112185416D01*
X140906159Y-112132210D01*
X140902281Y-112119590D01*
X140881955Y-112053375D01*
X140864486Y-111996149D01*
X140849717Y-111947199D01*
X140837489Y-111905812D01*
X140827647Y-111871274D01*
X140820033Y-111842872D01*
X140814489Y-111819892D01*
X140810858Y-111801622D01*
X140808982Y-111787347D01*
X140808705Y-111776355D01*
X140809869Y-111767932D01*
X140812317Y-111761365D01*
X140815891Y-111755941D01*
X140820434Y-111750946D01*
X140820878Y-111750499D01*
X140830704Y-111742360D01*
X140841075Y-111739201D01*
X140856536Y-111739704D01*
X140856536Y-111739704D01*
G37*
X140856536Y-111739704D02*
X140857708Y-111739821D01*
X140865330Y-111741969D01*
X140881745Y-111747637D01*
X140906316Y-111756573D01*
X140938403Y-111768527D01*
X140977368Y-111783246D01*
X141022573Y-111800481D01*
X141073379Y-111819979D01*
X141129148Y-111841489D01*
X141189241Y-111864760D01*
X141253020Y-111889541D01*
X141319845Y-111915581D01*
X141389080Y-111942628D01*
X141460085Y-111970431D01*
X141532221Y-111998739D01*
X141604851Y-112027300D01*
X141677335Y-112055864D01*
X141749035Y-112084178D01*
X141819314Y-112111993D01*
X141887531Y-112139056D01*
X141953049Y-112165116D01*
X142015229Y-112189923D01*
X142073433Y-112213224D01*
X142127023Y-112234769D01*
X142175359Y-112254306D01*
X142217803Y-112271584D01*
X142253716Y-112286353D01*
X142282461Y-112298359D01*
X142303399Y-112307353D01*
X142315891Y-112313083D01*
X142319094Y-112314871D01*
X142336992Y-112334515D01*
X142348292Y-112359528D01*
X142352418Y-112387095D01*
X142348792Y-112414402D01*
X142342600Y-112429595D01*
X142338534Y-112435871D01*
X142329002Y-112449858D01*
X142314401Y-112470992D01*
X142295131Y-112498707D01*
X142271591Y-112532438D01*
X142244180Y-112571620D01*
X142213295Y-112615688D01*
X142179337Y-112664076D01*
X142142704Y-112716219D01*
X142103794Y-112771552D01*
X142063007Y-112829510D01*
X142020740Y-112889528D01*
X141977394Y-112951041D01*
X141933367Y-113013483D01*
X141889057Y-113076289D01*
X141844864Y-113138893D01*
X141801185Y-113200732D01*
X141758421Y-113261239D01*
X141716969Y-113319850D01*
X141677228Y-113375998D01*
X141639598Y-113429120D01*
X141604477Y-113478650D01*
X141572264Y-113524022D01*
X141543357Y-113564671D01*
X141518156Y-113600033D01*
X141497059Y-113629542D01*
X141480465Y-113652632D01*
X141468773Y-113668740D01*
X141462381Y-113677298D01*
X141461464Y-113678412D01*
X141443061Y-113693565D01*
X141422804Y-113702749D01*
X141410423Y-113704600D01*
X141396512Y-113700134D01*
X141382139Y-113688373D01*
X141369707Y-113671766D01*
X141362484Y-113655735D01*
X141359978Y-113647594D01*
X141354795Y-113630580D01*
X141347193Y-113605549D01*
X141337431Y-113573353D01*
X141325768Y-113534849D01*
X141312462Y-113490890D01*
X141297772Y-113442329D01*
X141281957Y-113390023D01*
X141265276Y-113334824D01*
X141256514Y-113305820D01*
X141239645Y-113250040D01*
X141223614Y-113197152D01*
X141208664Y-113147954D01*
X141195039Y-113103244D01*
X141182985Y-113063820D01*
X141172745Y-113030482D01*
X141164563Y-113004025D01*
X141158685Y-112985250D01*
X141155354Y-112974954D01*
X141154690Y-112973187D01*
X141148742Y-112973097D01*
X141134504Y-112975700D01*
X141113373Y-112980618D01*
X141086741Y-112987469D01*
X141056004Y-112995872D01*
X141022557Y-113005447D01*
X140987794Y-113015813D01*
X140953110Y-113026590D01*
X140922100Y-113036663D01*
X140773765Y-113091206D01*
X140630799Y-113154346D01*
X140492913Y-113226238D01*
X140359822Y-113307038D01*
X140231237Y-113396904D01*
X140165341Y-113447842D01*
X140047709Y-113548313D01*
X139937054Y-113655937D01*
X139833680Y-113770241D01*
X139737893Y-113890753D01*
X139649996Y-114017002D01*
X139570295Y-114148515D01*
X139499094Y-114284821D01*
X139436697Y-114425447D01*
X139383411Y-114569922D01*
X139339538Y-114717774D01*
X139335535Y-114733300D01*
X139301826Y-114886228D01*
X139278208Y-115039886D01*
X139264664Y-115193958D01*
X139261180Y-115348126D01*
X139267740Y-115502072D01*
X139284328Y-115655480D01*
X139310929Y-115808033D01*
X139347527Y-115959414D01*
X139394107Y-116109304D01*
X139404204Y-116137920D01*
X139461443Y-116282315D01*
X139527303Y-116421654D01*
X139601436Y-116555657D01*
X139683494Y-116684040D01*
X139773128Y-116806521D01*
X139869991Y-116922819D01*
X139973734Y-117032652D01*
X140084009Y-117135736D01*
X140200469Y-117231791D01*
X140322764Y-117320534D01*
X140450547Y-117401683D01*
X140583470Y-117474955D01*
X140721185Y-117540070D01*
X140863343Y-117596744D01*
X141009597Y-117644696D01*
X141159598Y-117683643D01*
X141312998Y-117713304D01*
X141356440Y-117719896D01*
X141496341Y-117735516D01*
X141639349Y-117743120D01*
X141782903Y-117742686D01*
X141924443Y-117734196D01*
X142009220Y-117724985D01*
X142163491Y-117700112D01*
X142316114Y-117665375D01*
X142466421Y-117621018D01*
X142613746Y-117567290D01*
X142757424Y-117504436D01*
X142896789Y-117432705D01*
X143031174Y-117352342D01*
X143052753Y-117338315D01*
X143175675Y-117251818D01*
X143293516Y-117157517D01*
X143405308Y-117056315D01*
X143510082Y-116949118D01*
X143606869Y-116836831D01*
X143653327Y-116777254D01*
X143743629Y-116649076D01*
X143825056Y-116516502D01*
X143897493Y-116379959D01*
X143960823Y-116239877D01*
X144014930Y-116096683D01*
X144059700Y-115950804D01*
X144095017Y-115802668D01*
X144120765Y-115652704D01*
X144136828Y-115501339D01*
X144143091Y-115349002D01*
X144139438Y-115196119D01*
X144125753Y-115043119D01*
X144124551Y-115033471D01*
X144099956Y-114879522D01*
X144065585Y-114727815D01*
X144021657Y-114578851D01*
X143968389Y-114433128D01*
X143906000Y-114291146D01*
X143834709Y-114153403D01*
X143754734Y-114020401D01*
X143666293Y-113892637D01*
X143574772Y-113776735D01*
X143560073Y-113758408D01*
X143549507Y-113743512D01*
X143544070Y-113733547D01*
X143543888Y-113730271D01*
X143551795Y-113723564D01*
X143566487Y-113711826D01*
X143587075Y-113695725D01*
X143612673Y-113675932D01*
X143642392Y-113653117D01*
X143675344Y-113627950D01*
X143710643Y-113601100D01*
X143747400Y-113573239D01*
X143784728Y-113545035D01*
X143821738Y-113517159D01*
X143857543Y-113490281D01*
X143891256Y-113465070D01*
X143921989Y-113442197D01*
X143948854Y-113422332D01*
X143970963Y-113406144D01*
X143987428Y-113394303D01*
X143997363Y-113387481D01*
X143999981Y-113386053D01*
X144006051Y-113390957D01*
X144017335Y-113402817D01*
X144032896Y-113420504D01*
X144051794Y-113442887D01*
X144073092Y-113468838D01*
X144095851Y-113497227D01*
X144119132Y-113526925D01*
X144141997Y-113556803D01*
X144143371Y-113558624D01*
X144243576Y-113699906D01*
X144335173Y-113846336D01*
X144417982Y-113997480D01*
X144491820Y-114152905D01*
X144556507Y-114312177D01*
X144611861Y-114474862D01*
X144657701Y-114640527D01*
X144693844Y-114808739D01*
X144711681Y-114916687D01*
X144722257Y-114995589D01*
X144730251Y-115070941D01*
X144735877Y-115145844D01*
X144739350Y-115223399D01*
X144740884Y-115306707D01*
X144741004Y-115340360D01*
X144737251Y-115498393D01*
X144725800Y-115651238D01*
X144706365Y-115800659D01*
X144678659Y-115948416D01*
X144642396Y-116096274D01*
X144597288Y-116245995D01*
X144590165Y-116267460D01*
X144530049Y-116430905D01*
X144461124Y-116589503D01*
X144383653Y-116742974D01*
X144297899Y-116891042D01*
X144204127Y-117033429D01*
X144102600Y-117169856D01*
X143993582Y-117300047D01*
X143877338Y-117423724D01*
X143754130Y-117540609D01*
X143624223Y-117650424D01*
X143487881Y-117752892D01*
X143345367Y-117847735D01*
X143196946Y-117934675D01*
X143042881Y-118013435D01*
X142883436Y-118083736D01*
X142852500Y-118096137D01*
X142691613Y-118154625D01*
X142529556Y-118203501D01*
X142365363Y-118242990D01*
X142198066Y-118273314D01*
X142026699Y-118294697D01*
X141973660Y-118299459D01*
X141947884Y-118301118D01*
X141914476Y-118302584D01*
X141875133Y-118303839D01*
X141831556Y-118304866D01*
X141785444Y-118305650D01*
X141738497Y-118306173D01*
X141692413Y-118306419D01*
X141648893Y-118306371D01*
X141609636Y-118306013D01*
X141576342Y-118305327D01*
X141550709Y-118304297D01*
X141541860Y-118303695D01*
X141446365Y-118295037D01*
X141358897Y-118285384D01*
X141277342Y-118274400D01*
X141199587Y-118261749D01*
X141123521Y-118247098D01*
X141047029Y-118230110D01*
X140990680Y-118216287D01*
X140820237Y-118167791D01*
X140653797Y-118109981D01*
X140491574Y-118042967D01*
X140333782Y-117966859D01*
X140180638Y-117881768D01*
X140032357Y-117787804D01*
X139889153Y-117685078D01*
X139771480Y-117590868D01*
X139740994Y-117564291D01*
X139705515Y-117531796D01*
X139666500Y-117494843D01*
X139625408Y-117454894D01*
X139583696Y-117413407D01*
X139542824Y-117371845D01*
X139504248Y-117331669D01*
X139469428Y-117294338D01*
X139439821Y-117261314D01*
X139424038Y-117242820D01*
X139313695Y-117102332D01*
X139212608Y-116957742D01*
X139120824Y-116809168D01*
X139038391Y-116656728D01*
X138965357Y-116500540D01*
X138901769Y-116340720D01*
X138847675Y-116177387D01*
X138803123Y-116010659D01*
X138768161Y-115840653D01*
X138742835Y-115667487D01*
X138729762Y-115529754D01*
X138727886Y-115495310D01*
X138726606Y-115453140D01*
X138725896Y-115405053D01*
X138725728Y-115352860D01*
X138726076Y-115298374D01*
X138726914Y-115243404D01*
X138728215Y-115189761D01*
X138729952Y-115139256D01*
X138732098Y-115093701D01*
X138734628Y-115054905D01*
X138737134Y-115027940D01*
X138757129Y-114878363D01*
X138782639Y-114735589D01*
X138814140Y-114597597D01*
X138852107Y-114462368D01*
X138897014Y-114327882D01*
X138910427Y-114291340D01*
X138976027Y-114130162D01*
X139050199Y-113974234D01*
X139132668Y-113823805D01*
X139223162Y-113679125D01*
X139321409Y-113540442D01*
X139427134Y-113408007D01*
X139540066Y-113282067D01*
X139659931Y-113162873D01*
X139786455Y-113050673D01*
X139919367Y-112945717D01*
X140058393Y-112848254D01*
X140203259Y-112758534D01*
X140353694Y-112676805D01*
X140509424Y-112603317D01*
X140670175Y-112538318D01*
X140835676Y-112482059D01*
X140919188Y-112457545D01*
X140945738Y-112449889D01*
X140968401Y-112442853D01*
X140985558Y-112436980D01*
X140995595Y-112432813D01*
X140997531Y-112431247D01*
X140995941Y-112425767D01*
X140991618Y-112411410D01*
X140984815Y-112389006D01*
X140975786Y-112359387D01*
X140964786Y-112323387D01*
X140952069Y-112281837D01*
X140937889Y-112235570D01*
X140922501Y-112185416D01*
X140906159Y-112132210D01*
X140902281Y-112119590D01*
X140881955Y-112053375D01*
X140864486Y-111996149D01*
X140849717Y-111947199D01*
X140837489Y-111905812D01*
X140827647Y-111871274D01*
X140820033Y-111842872D01*
X140814489Y-111819892D01*
X140810858Y-111801622D01*
X140808982Y-111787347D01*
X140808705Y-111776355D01*
X140809869Y-111767932D01*
X140812317Y-111761365D01*
X140815891Y-111755941D01*
X140820434Y-111750946D01*
X140820878Y-111750499D01*
X140830704Y-111742360D01*
X140841075Y-111739201D01*
X140856536Y-111739704D01*
G36*
X133351698Y-112421451D02*
X133398653Y-112446027D01*
X133462097Y-112564825D01*
X133451187Y-112688035D01*
X133404165Y-112757834D01*
X133282371Y-112834554D01*
X133155840Y-112826886D01*
X133087299Y-112788448D01*
X133029605Y-112702512D01*
X133011687Y-112584970D01*
X133037491Y-112478922D01*
X133056630Y-112453436D01*
X133133883Y-112419355D01*
X133246488Y-112408385D01*
X133351698Y-112421451D01*
X133351698Y-112421451D01*
G37*
X133351698Y-112421451D02*
X133398653Y-112446027D01*
X133462097Y-112564825D01*
X133451187Y-112688035D01*
X133404165Y-112757834D01*
X133282371Y-112834554D01*
X133155840Y-112826886D01*
X133087299Y-112788448D01*
X133029605Y-112702512D01*
X133011687Y-112584970D01*
X133037491Y-112478922D01*
X133056630Y-112453436D01*
X133133883Y-112419355D01*
X133246488Y-112408385D01*
X133351698Y-112421451D01*
G36*
X131821344Y-112442658D02*
X131902735Y-112529500D01*
X131920333Y-112613993D01*
X131885681Y-112736125D01*
X131798717Y-112815432D01*
X131684930Y-112842040D01*
X131569810Y-112806075D01*
X131524727Y-112767249D01*
X131460346Y-112647952D01*
X131469818Y-112534901D01*
X131543605Y-112448985D01*
X131672171Y-112411093D01*
X131687500Y-112410750D01*
X131821344Y-112442658D01*
X131821344Y-112442658D01*
G37*
X131821344Y-112442658D02*
X131902735Y-112529500D01*
X131920333Y-112613993D01*
X131885681Y-112736125D01*
X131798717Y-112815432D01*
X131684930Y-112842040D01*
X131569810Y-112806075D01*
X131524727Y-112767249D01*
X131460346Y-112647952D01*
X131469818Y-112534901D01*
X131543605Y-112448985D01*
X131672171Y-112411093D01*
X131687500Y-112410750D01*
X131821344Y-112442658D01*
G36*
X137303978Y-112949348D02*
X137431284Y-113043145D01*
X137470678Y-113090563D01*
X137498440Y-113145314D01*
X137517092Y-113223008D01*
X137529153Y-113339257D01*
X137537144Y-113509670D01*
X137543283Y-113736946D01*
X137557066Y-114326333D01*
X137127333Y-114326333D01*
X137127333Y-113847966D01*
X137124112Y-113613687D01*
X137111693Y-113451343D01*
X137085944Y-113348354D01*
X137042734Y-113292139D01*
X136977930Y-113270118D01*
X136936833Y-113268000D01*
X136859880Y-113277807D01*
X136806555Y-113315615D01*
X136772727Y-113394004D01*
X136754262Y-113525555D01*
X136747029Y-113722848D01*
X136746333Y-113847966D01*
X136746333Y-114326333D01*
X136323000Y-114326333D01*
X136323000Y-112929333D01*
X136534666Y-112929333D01*
X136655421Y-112936058D01*
X136732059Y-112953254D01*
X136746333Y-112966715D01*
X136781461Y-112977434D01*
X136869811Y-112960224D01*
X136914105Y-112946294D01*
X137122940Y-112909237D01*
X137303978Y-112949348D01*
X137303978Y-112949348D01*
G37*
X137303978Y-112949348D02*
X137431284Y-113043145D01*
X137470678Y-113090563D01*
X137498440Y-113145314D01*
X137517092Y-113223008D01*
X137529153Y-113339257D01*
X137537144Y-113509670D01*
X137543283Y-113736946D01*
X137557066Y-114326333D01*
X137127333Y-114326333D01*
X137127333Y-113847966D01*
X137124112Y-113613687D01*
X137111693Y-113451343D01*
X137085944Y-113348354D01*
X137042734Y-113292139D01*
X136977930Y-113270118D01*
X136936833Y-113268000D01*
X136859880Y-113277807D01*
X136806555Y-113315615D01*
X136772727Y-113394004D01*
X136754262Y-113525555D01*
X136747029Y-113722848D01*
X136746333Y-113847966D01*
X136746333Y-114326333D01*
X136323000Y-114326333D01*
X136323000Y-112929333D01*
X136534666Y-112929333D01*
X136655421Y-112936058D01*
X136732059Y-112953254D01*
X136746333Y-112966715D01*
X136781461Y-112977434D01*
X136869811Y-112960224D01*
X136914105Y-112946294D01*
X137122940Y-112909237D01*
X137303978Y-112949348D01*
G36*
X134799000Y-113057809D02*
X134780472Y-113145551D01*
X134720752Y-113265258D01*
X134613634Y-113427864D01*
X134504618Y-113576392D01*
X134210236Y-113966500D01*
X134504618Y-113978937D01*
X134799000Y-113991375D01*
X134799000Y-114326333D01*
X133613666Y-114326333D01*
X133613666Y-114213637D01*
X133643414Y-114115171D01*
X133731332Y-113960533D01*
X133875429Y-113753126D01*
X133910000Y-113706696D01*
X134026404Y-113550033D01*
X134121316Y-113418876D01*
X134184636Y-113327417D01*
X134206333Y-113290225D01*
X134167710Y-113278905D01*
X134066660Y-113270900D01*
X133931166Y-113268000D01*
X133656000Y-113268000D01*
X133656000Y-112929333D01*
X134799000Y-112929333D01*
X134799000Y-113057809D01*
X134799000Y-113057809D01*
G37*
X134799000Y-113057809D02*
X134780472Y-113145551D01*
X134720752Y-113265258D01*
X134613634Y-113427864D01*
X134504618Y-113576392D01*
X134210236Y-113966500D01*
X134504618Y-113978937D01*
X134799000Y-113991375D01*
X134799000Y-114326333D01*
X133613666Y-114326333D01*
X133613666Y-114213637D01*
X133643414Y-114115171D01*
X133731332Y-113960533D01*
X133875429Y-113753126D01*
X133910000Y-113706696D01*
X134026404Y-113550033D01*
X134121316Y-113418876D01*
X134184636Y-113327417D01*
X134206333Y-113290225D01*
X134167710Y-113278905D01*
X134066660Y-113270900D01*
X133931166Y-113268000D01*
X133656000Y-113268000D01*
X133656000Y-112929333D01*
X134799000Y-112929333D01*
X134799000Y-113057809D01*
G36*
X133444333Y-114326333D02*
X133021000Y-114326333D01*
X133021000Y-112929333D01*
X133444333Y-112929333D01*
X133444333Y-114326333D01*
X133444333Y-114326333D01*
G37*
X133444333Y-114326333D02*
X133021000Y-114326333D01*
X133021000Y-112929333D01*
X133444333Y-112929333D01*
X133444333Y-114326333D01*
G36*
X131899166Y-112950500D02*
X131910798Y-113638416D01*
X131922430Y-114326333D01*
X131497000Y-114326333D01*
X131497000Y-112924694D01*
X131899166Y-112950500D01*
X131899166Y-112950500D01*
G37*
X131899166Y-112950500D02*
X131910798Y-113638416D01*
X131922430Y-114326333D01*
X131497000Y-114326333D01*
X131497000Y-112924694D01*
X131899166Y-112950500D01*
G36*
X128713299Y-112947778D02*
X128743570Y-113063918D01*
X128745333Y-113116231D01*
X128740754Y-113227958D01*
X128711692Y-113285830D01*
X128635160Y-113317665D01*
X128565416Y-113333952D01*
X128385500Y-113373833D01*
X128361560Y-114326333D01*
X127941000Y-114326333D01*
X127941000Y-112918849D01*
X128184416Y-112939573D01*
X128336143Y-112945066D01*
X128466107Y-112937045D01*
X128522715Y-112924836D01*
X128641436Y-112902926D01*
X128713299Y-112947778D01*
X128713299Y-112947778D01*
G37*
X128713299Y-112947778D02*
X128743570Y-113063918D01*
X128745333Y-113116231D01*
X128740754Y-113227958D01*
X128711692Y-113285830D01*
X128635160Y-113317665D01*
X128565416Y-113333952D01*
X128385500Y-113373833D01*
X128361560Y-114326333D01*
X127941000Y-114326333D01*
X127941000Y-112918849D01*
X128184416Y-112939573D01*
X128336143Y-112945066D01*
X128466107Y-112937045D01*
X128522715Y-112924836D01*
X128641436Y-112902926D01*
X128713299Y-112947778D01*
G36*
X125315390Y-112943835D02*
X125408003Y-113001840D01*
X125467480Y-113038508D01*
X125530740Y-113025380D01*
X125591257Y-112989099D01*
X125735776Y-112933507D01*
X125912802Y-112917783D01*
X126082712Y-112942342D01*
X126175104Y-112983002D01*
X126257102Y-113070584D01*
X126316212Y-113215089D01*
X126354083Y-113423914D01*
X126372359Y-113704454D01*
X126374666Y-113879412D01*
X126374666Y-114326333D01*
X125911605Y-114326333D01*
X125899719Y-113807750D01*
X125894096Y-113590892D01*
X125887033Y-113444351D01*
X125875583Y-113353794D01*
X125856798Y-113304883D01*
X125827731Y-113283283D01*
X125790253Y-113275333D01*
X125703043Y-113272743D01*
X125642020Y-113301517D01*
X125602732Y-113373188D01*
X125580723Y-113499286D01*
X125571539Y-113691343D01*
X125570333Y-113844683D01*
X125570333Y-114326333D01*
X125147000Y-114326333D01*
X125147000Y-113844683D01*
X125143118Y-113604056D01*
X125128539Y-113437253D01*
X125098857Y-113333669D01*
X125049668Y-113282694D01*
X124976568Y-113273722D01*
X124914716Y-113285245D01*
X124869866Y-113298922D01*
X124839814Y-113323142D01*
X124821597Y-113372773D01*
X124812253Y-113462682D01*
X124808819Y-113607736D01*
X124808333Y-113819139D01*
X124808333Y-114326333D01*
X124385000Y-114326333D01*
X124385000Y-112929333D01*
X124575500Y-112929333D01*
X124689122Y-112936759D01*
X124757268Y-112955549D01*
X124766000Y-112966715D01*
X124801179Y-112977237D01*
X124889839Y-112959974D01*
X124937037Y-112945169D01*
X125138461Y-112909309D01*
X125315390Y-112943835D01*
X125315390Y-112943835D01*
G37*
X125315390Y-112943835D02*
X125408003Y-113001840D01*
X125467480Y-113038508D01*
X125530740Y-113025380D01*
X125591257Y-112989099D01*
X125735776Y-112933507D01*
X125912802Y-112917783D01*
X126082712Y-112942342D01*
X126175104Y-112983002D01*
X126257102Y-113070584D01*
X126316212Y-113215089D01*
X126354083Y-113423914D01*
X126372359Y-113704454D01*
X126374666Y-113879412D01*
X126374666Y-114326333D01*
X125911605Y-114326333D01*
X125899719Y-113807750D01*
X125894096Y-113590892D01*
X125887033Y-113444351D01*
X125875583Y-113353794D01*
X125856798Y-113304883D01*
X125827731Y-113283283D01*
X125790253Y-113275333D01*
X125703043Y-113272743D01*
X125642020Y-113301517D01*
X125602732Y-113373188D01*
X125580723Y-113499286D01*
X125571539Y-113691343D01*
X125570333Y-113844683D01*
X125570333Y-114326333D01*
X125147000Y-114326333D01*
X125147000Y-113844683D01*
X125143118Y-113604056D01*
X125128539Y-113437253D01*
X125098857Y-113333669D01*
X125049668Y-113282694D01*
X124976568Y-113273722D01*
X124914716Y-113285245D01*
X124869866Y-113298922D01*
X124839814Y-113323142D01*
X124821597Y-113372773D01*
X124812253Y-113462682D01*
X124808819Y-113607736D01*
X124808333Y-113819139D01*
X124808333Y-114326333D01*
X124385000Y-114326333D01*
X124385000Y-112929333D01*
X124575500Y-112929333D01*
X124689122Y-112936759D01*
X124757268Y-112955549D01*
X124766000Y-112966715D01*
X124801179Y-112977237D01*
X124889839Y-112959974D01*
X124937037Y-112945169D01*
X125138461Y-112909309D01*
X125315390Y-112943835D01*
G36*
X135748306Y-112937583D02*
X135892410Y-112988317D01*
X136024972Y-113100809D01*
X136126640Y-113271703D01*
X136185397Y-113476864D01*
X136195070Y-113596083D01*
X136196000Y-113776000D01*
X135772666Y-113776000D01*
X135594967Y-113779324D01*
X135453998Y-113788287D01*
X135367676Y-113801375D01*
X135349333Y-113811772D01*
X135377541Y-113864862D01*
X135426750Y-113917605D01*
X135544256Y-113974085D01*
X135694428Y-113982680D01*
X135839731Y-113942839D01*
X135872590Y-113924145D01*
X135944448Y-113886704D01*
X135999716Y-113900428D01*
X136066956Y-113964325D01*
X136133525Y-114063837D01*
X136125366Y-114149230D01*
X136038943Y-114228911D01*
X135932061Y-114284851D01*
X135695607Y-114357010D01*
X135469571Y-114348772D01*
X135263053Y-114273416D01*
X135096328Y-114157729D01*
X134989405Y-114002671D01*
X134935646Y-113795442D01*
X134926065Y-113623510D01*
X134951459Y-113410246D01*
X135362304Y-113410246D01*
X135367167Y-113454206D01*
X135446521Y-113475408D01*
X135561000Y-113479666D01*
X135702608Y-113470433D01*
X135767154Y-113441749D01*
X135772666Y-113424633D01*
X135738545Y-113331788D01*
X135653568Y-113280819D01*
X135543812Y-113278252D01*
X135435354Y-113330614D01*
X135426750Y-113338061D01*
X135362304Y-113410246D01*
X134951459Y-113410246D01*
X134955272Y-113378230D01*
X135048228Y-113180476D01*
X135212727Y-113014234D01*
X135228304Y-113002487D01*
X135372168Y-112939615D01*
X135556753Y-112917740D01*
X135748306Y-112937583D01*
X135748306Y-112937583D01*
G37*
X135748306Y-112937583D02*
X135892410Y-112988317D01*
X136024972Y-113100809D01*
X136126640Y-113271703D01*
X136185397Y-113476864D01*
X136195070Y-113596083D01*
X136196000Y-113776000D01*
X135772666Y-113776000D01*
X135594967Y-113779324D01*
X135453998Y-113788287D01*
X135367676Y-113801375D01*
X135349333Y-113811772D01*
X135377541Y-113864862D01*
X135426750Y-113917605D01*
X135544256Y-113974085D01*
X135694428Y-113982680D01*
X135839731Y-113942839D01*
X135872590Y-113924145D01*
X135944448Y-113886704D01*
X135999716Y-113900428D01*
X136066956Y-113964325D01*
X136133525Y-114063837D01*
X136125366Y-114149230D01*
X136038943Y-114228911D01*
X135932061Y-114284851D01*
X135695607Y-114357010D01*
X135469571Y-114348772D01*
X135263053Y-114273416D01*
X135096328Y-114157729D01*
X134989405Y-114002671D01*
X134935646Y-113795442D01*
X134926065Y-113623510D01*
X134951459Y-113410246D01*
X135362304Y-113410246D01*
X135367167Y-113454206D01*
X135446521Y-113475408D01*
X135561000Y-113479666D01*
X135702608Y-113470433D01*
X135767154Y-113441749D01*
X135772666Y-113424633D01*
X135738545Y-113331788D01*
X135653568Y-113280819D01*
X135543812Y-113278252D01*
X135435354Y-113330614D01*
X135426750Y-113338061D01*
X135362304Y-113410246D01*
X134951459Y-113410246D01*
X134955272Y-113378230D01*
X135048228Y-113180476D01*
X135212727Y-113014234D01*
X135228304Y-113002487D01*
X135372168Y-112939615D01*
X135556753Y-112917740D01*
X135748306Y-112937583D01*
G36*
X132417750Y-112598930D02*
X132539196Y-112609980D01*
X132599968Y-112635375D01*
X132623921Y-112694231D01*
X132631972Y-112770583D01*
X132648668Y-112876128D01*
X132686641Y-112921011D01*
X132748388Y-112929333D01*
X132814997Y-112938999D01*
X132844598Y-112983796D01*
X132851644Y-113087426D01*
X132851666Y-113098666D01*
X132845890Y-113207765D01*
X132818643Y-113256255D01*
X132755049Y-113267939D01*
X132745833Y-113268000D01*
X132694424Y-113271342D01*
X132663125Y-113292587D01*
X132646947Y-113348564D01*
X132640901Y-113456100D01*
X132640000Y-113625021D01*
X132640000Y-113982042D01*
X132756416Y-113995438D01*
X132838631Y-114018790D01*
X132875910Y-114081480D01*
X132886557Y-114152560D01*
X132880364Y-114269723D01*
X132844223Y-114331829D01*
X132747855Y-114359190D01*
X132610647Y-114362656D01*
X132472640Y-114343373D01*
X132401412Y-114319154D01*
X132320354Y-114258377D01*
X132265289Y-114159554D01*
X132232457Y-114009500D01*
X132218101Y-113795031D01*
X132216666Y-113671119D01*
X132215537Y-113485678D01*
X132209603Y-113368413D01*
X132195039Y-113302842D01*
X132168025Y-113272479D01*
X132124738Y-113260841D01*
X132121416Y-113260360D01*
X132055516Y-113234973D01*
X132029256Y-113167309D01*
X132026166Y-113098666D01*
X132036470Y-112994692D01*
X132077571Y-112948006D01*
X132121416Y-112936972D01*
X132183926Y-112914708D01*
X132211273Y-112855181D01*
X132216666Y-112754736D01*
X132216666Y-112586027D01*
X132417750Y-112598930D01*
X132417750Y-112598930D01*
G37*
X132417750Y-112598930D02*
X132539196Y-112609980D01*
X132599968Y-112635375D01*
X132623921Y-112694231D01*
X132631972Y-112770583D01*
X132648668Y-112876128D01*
X132686641Y-112921011D01*
X132748388Y-112929333D01*
X132814997Y-112938999D01*
X132844598Y-112983796D01*
X132851644Y-113087426D01*
X132851666Y-113098666D01*
X132845890Y-113207765D01*
X132818643Y-113256255D01*
X132755049Y-113267939D01*
X132745833Y-113268000D01*
X132694424Y-113271342D01*
X132663125Y-113292587D01*
X132646947Y-113348564D01*
X132640901Y-113456100D01*
X132640000Y-113625021D01*
X132640000Y-113982042D01*
X132756416Y-113995438D01*
X132838631Y-114018790D01*
X132875910Y-114081480D01*
X132886557Y-114152560D01*
X132880364Y-114269723D01*
X132844223Y-114331829D01*
X132747855Y-114359190D01*
X132610647Y-114362656D01*
X132472640Y-114343373D01*
X132401412Y-114319154D01*
X132320354Y-114258377D01*
X132265289Y-114159554D01*
X132232457Y-114009500D01*
X132218101Y-113795031D01*
X132216666Y-113671119D01*
X132215537Y-113485678D01*
X132209603Y-113368413D01*
X132195039Y-113302842D01*
X132168025Y-113272479D01*
X132124738Y-113260841D01*
X132121416Y-113260360D01*
X132055516Y-113234973D01*
X132029256Y-113167309D01*
X132026166Y-113098666D01*
X132036470Y-112994692D01*
X132077571Y-112948006D01*
X132121416Y-112936972D01*
X132183926Y-112914708D01*
X132211273Y-112855181D01*
X132216666Y-112754736D01*
X132216666Y-112586027D01*
X132417750Y-112598930D01*
G36*
X130808099Y-112489617D02*
X131017511Y-112582170D01*
X131170367Y-112730119D01*
X131259579Y-112928302D01*
X131270810Y-112983242D01*
X131296411Y-113141000D01*
X131079205Y-113141000D01*
X130949835Y-113136565D01*
X130884545Y-113118166D01*
X130862986Y-113078158D01*
X130862000Y-113059405D01*
X130824375Y-112959352D01*
X130730189Y-112874466D01*
X130607478Y-112823407D01*
X130502834Y-112820318D01*
X130382750Y-112859556D01*
X130301775Y-112931726D01*
X130253329Y-113050513D01*
X130230833Y-113229602D01*
X130227000Y-113393980D01*
X130238402Y-113640054D01*
X130275877Y-113813225D01*
X130344324Y-113922570D01*
X130448644Y-113977164D01*
X130547572Y-113987666D01*
X130681126Y-113959586D01*
X130792717Y-113888324D01*
X130856053Y-113793350D01*
X130862000Y-113754833D01*
X130884659Y-113714900D01*
X130963113Y-113695396D01*
X131073666Y-113691333D01*
X131199514Y-113695012D01*
X131262306Y-113712797D01*
X131283556Y-113754809D01*
X131285333Y-113790906D01*
X131254257Y-113910531D01*
X131173465Y-114051486D01*
X131061607Y-114185159D01*
X130984897Y-114251784D01*
X130835233Y-114320643D01*
X130640204Y-114354012D01*
X130432035Y-114350291D01*
X130242949Y-114307879D01*
X130201645Y-114290673D01*
X130006543Y-114155062D01*
X129868423Y-113957873D01*
X129786974Y-113698474D01*
X129761805Y-113395000D01*
X129786108Y-113101545D01*
X129861048Y-112867614D01*
X129958502Y-112717460D01*
X130126966Y-112564729D01*
X130325241Y-112480946D01*
X130549213Y-112457619D01*
X130808099Y-112489617D01*
X130808099Y-112489617D01*
G37*
X130808099Y-112489617D02*
X131017511Y-112582170D01*
X131170367Y-112730119D01*
X131259579Y-112928302D01*
X131270810Y-112983242D01*
X131296411Y-113141000D01*
X131079205Y-113141000D01*
X130949835Y-113136565D01*
X130884545Y-113118166D01*
X130862986Y-113078158D01*
X130862000Y-113059405D01*
X130824375Y-112959352D01*
X130730189Y-112874466D01*
X130607478Y-112823407D01*
X130502834Y-112820318D01*
X130382750Y-112859556D01*
X130301775Y-112931726D01*
X130253329Y-113050513D01*
X130230833Y-113229602D01*
X130227000Y-113393980D01*
X130238402Y-113640054D01*
X130275877Y-113813225D01*
X130344324Y-113922570D01*
X130448644Y-113977164D01*
X130547572Y-113987666D01*
X130681126Y-113959586D01*
X130792717Y-113888324D01*
X130856053Y-113793350D01*
X130862000Y-113754833D01*
X130884659Y-113714900D01*
X130963113Y-113695396D01*
X131073666Y-113691333D01*
X131199514Y-113695012D01*
X131262306Y-113712797D01*
X131283556Y-113754809D01*
X131285333Y-113790906D01*
X131254257Y-113910531D01*
X131173465Y-114051486D01*
X131061607Y-114185159D01*
X130984897Y-114251784D01*
X130835233Y-114320643D01*
X130640204Y-114354012D01*
X130432035Y-114350291D01*
X130242949Y-114307879D01*
X130201645Y-114290673D01*
X130006543Y-114155062D01*
X129868423Y-113957873D01*
X129786974Y-113698474D01*
X129761805Y-113395000D01*
X129786108Y-113101545D01*
X129861048Y-112867614D01*
X129958502Y-112717460D01*
X130126966Y-112564729D01*
X130325241Y-112480946D01*
X130549213Y-112457619D01*
X130808099Y-112489617D01*
G36*
X129422666Y-112754868D02*
X129428915Y-112864736D01*
X129458794Y-112916362D01*
X129529004Y-112935888D01*
X129539083Y-112937104D01*
X129618118Y-112957279D01*
X129650199Y-113011184D01*
X129655500Y-113098666D01*
X129646793Y-113200259D01*
X129607339Y-113245629D01*
X129539083Y-113260228D01*
X129422666Y-113273623D01*
X129422666Y-113982042D01*
X129539083Y-113995438D01*
X129621298Y-114018790D01*
X129658576Y-114081480D01*
X129669223Y-114152560D01*
X129664015Y-114268984D01*
X129611520Y-114335816D01*
X129497978Y-114364443D01*
X129408826Y-114368018D01*
X129268176Y-114347196D01*
X129150059Y-114270739D01*
X129123076Y-114244923D01*
X129066714Y-114184689D01*
X129030730Y-114126670D01*
X129010559Y-114050665D01*
X129001633Y-113936474D01*
X128999387Y-113763896D01*
X128999333Y-113697534D01*
X128998351Y-113504911D01*
X128993089Y-113381016D01*
X128980077Y-113309914D01*
X128955842Y-113275668D01*
X128916911Y-113262345D01*
X128904083Y-113260360D01*
X128838183Y-113234973D01*
X128811923Y-113167309D01*
X128808833Y-113098666D01*
X128819354Y-112994338D01*
X128860697Y-112947626D01*
X128901684Y-112937286D01*
X128967517Y-112908946D01*
X128999448Y-112832921D01*
X129007517Y-112767953D01*
X129019636Y-112673581D01*
X129051263Y-112626002D01*
X129126246Y-112606384D01*
X129221583Y-112598930D01*
X129422666Y-112586027D01*
X129422666Y-112754868D01*
X129422666Y-112754868D01*
G37*
X129422666Y-112754868D02*
X129428915Y-112864736D01*
X129458794Y-112916362D01*
X129529004Y-112935888D01*
X129539083Y-112937104D01*
X129618118Y-112957279D01*
X129650199Y-113011184D01*
X129655500Y-113098666D01*
X129646793Y-113200259D01*
X129607339Y-113245629D01*
X129539083Y-113260228D01*
X129422666Y-113273623D01*
X129422666Y-113982042D01*
X129539083Y-113995438D01*
X129621298Y-114018790D01*
X129658576Y-114081480D01*
X129669223Y-114152560D01*
X129664015Y-114268984D01*
X129611520Y-114335816D01*
X129497978Y-114364443D01*
X129408826Y-114368018D01*
X129268176Y-114347196D01*
X129150059Y-114270739D01*
X129123076Y-114244923D01*
X129066714Y-114184689D01*
X129030730Y-114126670D01*
X129010559Y-114050665D01*
X129001633Y-113936474D01*
X128999387Y-113763896D01*
X128999333Y-113697534D01*
X128998351Y-113504911D01*
X128993089Y-113381016D01*
X128980077Y-113309914D01*
X128955842Y-113275668D01*
X128916911Y-113262345D01*
X128904083Y-113260360D01*
X128838183Y-113234973D01*
X128811923Y-113167309D01*
X128808833Y-113098666D01*
X128819354Y-112994338D01*
X128860697Y-112947626D01*
X128901684Y-112937286D01*
X128967517Y-112908946D01*
X128999448Y-112832921D01*
X129007517Y-112767953D01*
X129019636Y-112673581D01*
X129051263Y-112626002D01*
X129126246Y-112606384D01*
X129221583Y-112598930D01*
X129422666Y-112586027D01*
X129422666Y-112754868D01*
G36*
X127396416Y-112948736D02*
X127565909Y-113043192D01*
X127672546Y-113187140D01*
X127692802Y-113268264D01*
X127711560Y-113413397D01*
X127726712Y-113601882D01*
X127736069Y-113810020D01*
X127750545Y-114330874D01*
X127496522Y-114326003D01*
X127317379Y-114327624D01*
X127137812Y-114337109D01*
X127052000Y-114345596D01*
X126866110Y-114346478D01*
X126745615Y-114304789D01*
X126636366Y-114211013D01*
X126547734Y-114079976D01*
X126503213Y-113948334D01*
X126501666Y-113924166D01*
X126505278Y-113910025D01*
X126954878Y-113910025D01*
X126968906Y-113948273D01*
X127045624Y-114018027D01*
X127151476Y-114015395D01*
X127231916Y-113971070D01*
X127292775Y-113885783D01*
X127306000Y-113824249D01*
X127287798Y-113757969D01*
X127217805Y-113734755D01*
X127182023Y-113733666D01*
X127053467Y-113758426D01*
X126972623Y-113822377D01*
X126954878Y-113910025D01*
X126505278Y-113910025D01*
X126534711Y-113794816D01*
X126617849Y-113661037D01*
X126727087Y-113559380D01*
X126749763Y-113546219D01*
X126863906Y-113503734D01*
X127015717Y-113467116D01*
X127087713Y-113455382D01*
X127228582Y-113430639D01*
X127293009Y-113398766D01*
X127289198Y-113350940D01*
X127239476Y-113292190D01*
X127139604Y-113231233D01*
X127049343Y-113253440D01*
X126999842Y-113310333D01*
X126930649Y-113364651D01*
X126823618Y-113395368D01*
X126706041Y-113401918D01*
X126605212Y-113383738D01*
X126548425Y-113340264D01*
X126544000Y-113319752D01*
X126583516Y-113182417D01*
X126691809Y-113064212D01*
X126853494Y-112975024D01*
X127053189Y-112924737D01*
X127170396Y-112917238D01*
X127396416Y-112948736D01*
X127396416Y-112948736D01*
G37*
X127396416Y-112948736D02*
X127565909Y-113043192D01*
X127672546Y-113187140D01*
X127692802Y-113268264D01*
X127711560Y-113413397D01*
X127726712Y-113601882D01*
X127736069Y-113810020D01*
X127750545Y-114330874D01*
X127496522Y-114326003D01*
X127317379Y-114327624D01*
X127137812Y-114337109D01*
X127052000Y-114345596D01*
X126866110Y-114346478D01*
X126745615Y-114304789D01*
X126636366Y-114211013D01*
X126547734Y-114079976D01*
X126503213Y-113948334D01*
X126501666Y-113924166D01*
X126505278Y-113910025D01*
X126954878Y-113910025D01*
X126968906Y-113948273D01*
X127045624Y-114018027D01*
X127151476Y-114015395D01*
X127231916Y-113971070D01*
X127292775Y-113885783D01*
X127306000Y-113824249D01*
X127287798Y-113757969D01*
X127217805Y-113734755D01*
X127182023Y-113733666D01*
X127053467Y-113758426D01*
X126972623Y-113822377D01*
X126954878Y-113910025D01*
X126505278Y-113910025D01*
X126534711Y-113794816D01*
X126617849Y-113661037D01*
X126727087Y-113559380D01*
X126749763Y-113546219D01*
X126863906Y-113503734D01*
X127015717Y-113467116D01*
X127087713Y-113455382D01*
X127228582Y-113430639D01*
X127293009Y-113398766D01*
X127289198Y-113350940D01*
X127239476Y-113292190D01*
X127139604Y-113231233D01*
X127049343Y-113253440D01*
X126999842Y-113310333D01*
X126930649Y-113364651D01*
X126823618Y-113395368D01*
X126706041Y-113401918D01*
X126605212Y-113383738D01*
X126548425Y-113340264D01*
X126544000Y-113319752D01*
X126583516Y-113182417D01*
X126691809Y-113064212D01*
X126853494Y-112975024D01*
X127053189Y-112924737D01*
X127170396Y-112917238D01*
X127396416Y-112948736D01*
G36*
X123753915Y-112487980D02*
X123958120Y-112583079D01*
X124106238Y-112735633D01*
X124191147Y-112939916D01*
X124202475Y-113006854D01*
X124185149Y-113041455D01*
X124120569Y-113054391D01*
X123990133Y-113056333D01*
X123988229Y-113056333D01*
X123854251Y-113052592D01*
X123781388Y-113034933D01*
X123746194Y-112993702D01*
X123732777Y-112951144D01*
X123672750Y-112861256D01*
X123567212Y-112813098D01*
X123444808Y-112807541D01*
X123334185Y-112845458D01*
X123263986Y-112927718D01*
X123260800Y-112936789D01*
X123253283Y-113002537D01*
X123284452Y-113059959D01*
X123365576Y-113117687D01*
X123507924Y-113184357D01*
X123665591Y-113246932D01*
X123821635Y-113314924D01*
X123955730Y-113388071D01*
X124037425Y-113449291D01*
X124157406Y-113623669D01*
X124201834Y-113797989D01*
X124179380Y-113963526D01*
X124098715Y-114111558D01*
X123968507Y-114233360D01*
X123797426Y-114320210D01*
X123594144Y-114363383D01*
X123367329Y-114354156D01*
X123185069Y-114306917D01*
X122973987Y-114194583D01*
X122827746Y-114033852D01*
X122774552Y-113918769D01*
X122747045Y-113797120D01*
X122772189Y-113727334D01*
X122861117Y-113696556D01*
X122971533Y-113691333D01*
X123092082Y-113697068D01*
X123157141Y-113724742D01*
X123195655Y-113790059D01*
X123206099Y-113818588D01*
X123279108Y-113917516D01*
X123397102Y-113976393D01*
X123531513Y-113991151D01*
X123653773Y-113957719D01*
X123724346Y-113892416D01*
X123748494Y-113809254D01*
X123707254Y-113731506D01*
X123594814Y-113653723D01*
X123405360Y-113570459D01*
X123364448Y-113555136D01*
X123125462Y-113451323D01*
X122961665Y-113338870D01*
X122863591Y-113207780D01*
X122821775Y-113048061D01*
X122818666Y-112978918D01*
X122828762Y-112837533D01*
X122868581Y-112741127D01*
X122935083Y-112667259D01*
X123085372Y-112547631D01*
X123235841Y-112481772D01*
X123421045Y-112456723D01*
X123500550Y-112455200D01*
X123753915Y-112487980D01*
X123753915Y-112487980D01*
G37*
X123753915Y-112487980D02*
X123958120Y-112583079D01*
X124106238Y-112735633D01*
X124191147Y-112939916D01*
X124202475Y-113006854D01*
X124185149Y-113041455D01*
X124120569Y-113054391D01*
X123990133Y-113056333D01*
X123988229Y-113056333D01*
X123854251Y-113052592D01*
X123781388Y-113034933D01*
X123746194Y-112993702D01*
X123732777Y-112951144D01*
X123672750Y-112861256D01*
X123567212Y-112813098D01*
X123444808Y-112807541D01*
X123334185Y-112845458D01*
X123263986Y-112927718D01*
X123260800Y-112936789D01*
X123253283Y-113002537D01*
X123284452Y-113059959D01*
X123365576Y-113117687D01*
X123507924Y-113184357D01*
X123665591Y-113246932D01*
X123821635Y-113314924D01*
X123955730Y-113388071D01*
X124037425Y-113449291D01*
X124157406Y-113623669D01*
X124201834Y-113797989D01*
X124179380Y-113963526D01*
X124098715Y-114111558D01*
X123968507Y-114233360D01*
X123797426Y-114320210D01*
X123594144Y-114363383D01*
X123367329Y-114354156D01*
X123185069Y-114306917D01*
X122973987Y-114194583D01*
X122827746Y-114033852D01*
X122774552Y-113918769D01*
X122747045Y-113797120D01*
X122772189Y-113727334D01*
X122861117Y-113696556D01*
X122971533Y-113691333D01*
X123092082Y-113697068D01*
X123157141Y-113724742D01*
X123195655Y-113790059D01*
X123206099Y-113818588D01*
X123279108Y-113917516D01*
X123397102Y-113976393D01*
X123531513Y-113991151D01*
X123653773Y-113957719D01*
X123724346Y-113892416D01*
X123748494Y-113809254D01*
X123707254Y-113731506D01*
X123594814Y-113653723D01*
X123405360Y-113570459D01*
X123364448Y-113555136D01*
X123125462Y-113451323D01*
X122961665Y-113338870D01*
X122863591Y-113207780D01*
X122821775Y-113048061D01*
X122818666Y-112978918D01*
X122828762Y-112837533D01*
X122868581Y-112741127D01*
X122935083Y-112667259D01*
X123085372Y-112547631D01*
X123235841Y-112481772D01*
X123421045Y-112456723D01*
X123500550Y-112455200D01*
X123753915Y-112487980D01*
G36*
X136323000Y-117374333D02*
X135857333Y-117374333D01*
X135857333Y-115427000D01*
X136323000Y-115427000D01*
X136323000Y-117374333D01*
X136323000Y-117374333D01*
G37*
X136323000Y-117374333D02*
X135857333Y-117374333D01*
X135857333Y-115427000D01*
X136323000Y-115427000D01*
X136323000Y-117374333D01*
G36*
X129832206Y-115969243D02*
X129838514Y-115972707D01*
X129875457Y-116042865D01*
X129881200Y-116182598D01*
X129880496Y-116193195D01*
X129867151Y-116308658D01*
X129840700Y-116360133D01*
X129788388Y-116368298D01*
X129773579Y-116366537D01*
X129659056Y-116375921D01*
X129593662Y-116399776D01*
X129555563Y-116427127D01*
X129530628Y-116471191D01*
X129516113Y-116548198D01*
X129509274Y-116674376D01*
X129507365Y-116865953D01*
X129507333Y-116910156D01*
X129507333Y-117374333D01*
X129084000Y-117374333D01*
X129084000Y-115977333D01*
X129274500Y-115977333D01*
X129395820Y-115987005D01*
X129459806Y-116012736D01*
X129465000Y-116024850D01*
X129486053Y-116049481D01*
X129517916Y-116030687D01*
X129619514Y-115979996D01*
X129738540Y-115956935D01*
X129832206Y-115969243D01*
X129832206Y-115969243D01*
G37*
X129832206Y-115969243D02*
X129838514Y-115972707D01*
X129875457Y-116042865D01*
X129881200Y-116182598D01*
X129880496Y-116193195D01*
X129867151Y-116308658D01*
X129840700Y-116360133D01*
X129788388Y-116368298D01*
X129773579Y-116366537D01*
X129659056Y-116375921D01*
X129593662Y-116399776D01*
X129555563Y-116427127D01*
X129530628Y-116471191D01*
X129516113Y-116548198D01*
X129509274Y-116674376D01*
X129507365Y-116865953D01*
X129507333Y-116910156D01*
X129507333Y-117374333D01*
X129084000Y-117374333D01*
X129084000Y-115977333D01*
X129274500Y-115977333D01*
X129395820Y-115987005D01*
X129459806Y-116012736D01*
X129465000Y-116024850D01*
X129486053Y-116049481D01*
X129517916Y-116030687D01*
X129619514Y-115979996D01*
X129738540Y-115956935D01*
X129832206Y-115969243D01*
G36*
X126187248Y-116318351D02*
X126226632Y-116486292D01*
X126259380Y-116577419D01*
X126290853Y-116590408D01*
X126326411Y-116523936D01*
X126371416Y-116376680D01*
X126400882Y-116265619D01*
X126475654Y-115977333D01*
X126794414Y-115977333D01*
X126880874Y-116267647D01*
X126923829Y-116419255D01*
X126954779Y-116542551D01*
X126967305Y-116611870D01*
X126967333Y-116613369D01*
X126975919Y-116660295D01*
X126998608Y-116635937D01*
X127030793Y-116551585D01*
X127067866Y-116418530D01*
X127094333Y-116302109D01*
X127157833Y-115998500D01*
X127358916Y-115985597D01*
X127493105Y-115986377D01*
X127556208Y-116009151D01*
X127560000Y-116020258D01*
X127549815Y-116080760D01*
X127522280Y-116204795D01*
X127481926Y-116374107D01*
X127433282Y-116570438D01*
X127380879Y-116775532D01*
X127329247Y-116971131D01*
X127282915Y-117138978D01*
X127279164Y-117152083D01*
X127215325Y-117374333D01*
X127027829Y-117374333D01*
X126910900Y-117364860D01*
X126846331Y-117340250D01*
X126840333Y-117327988D01*
X126828149Y-117248479D01*
X126796797Y-117130957D01*
X126754073Y-116997657D01*
X126707774Y-116870813D01*
X126665698Y-116772658D01*
X126635640Y-116725426D01*
X126629025Y-116725418D01*
X126602301Y-116780713D01*
X126560886Y-116894480D01*
X126513066Y-117043698D01*
X126505941Y-117067416D01*
X126414563Y-117374333D01*
X126235864Y-117374165D01*
X126057166Y-117373997D01*
X125883127Y-116698010D01*
X125826336Y-116471141D01*
X125780040Y-116273932D01*
X125747296Y-116120453D01*
X125731161Y-116024775D01*
X125731432Y-115999678D01*
X125783987Y-115985865D01*
X125888959Y-115978014D01*
X125933672Y-115977333D01*
X126113567Y-115977333D01*
X126187248Y-116318351D01*
X126187248Y-116318351D01*
G37*
X126187248Y-116318351D02*
X126226632Y-116486292D01*
X126259380Y-116577419D01*
X126290853Y-116590408D01*
X126326411Y-116523936D01*
X126371416Y-116376680D01*
X126400882Y-116265619D01*
X126475654Y-115977333D01*
X126794414Y-115977333D01*
X126880874Y-116267647D01*
X126923829Y-116419255D01*
X126954779Y-116542551D01*
X126967305Y-116611870D01*
X126967333Y-116613369D01*
X126975919Y-116660295D01*
X126998608Y-116635937D01*
X127030793Y-116551585D01*
X127067866Y-116418530D01*
X127094333Y-116302109D01*
X127157833Y-115998500D01*
X127358916Y-115985597D01*
X127493105Y-115986377D01*
X127556208Y-116009151D01*
X127560000Y-116020258D01*
X127549815Y-116080760D01*
X127522280Y-116204795D01*
X127481926Y-116374107D01*
X127433282Y-116570438D01*
X127380879Y-116775532D01*
X127329247Y-116971131D01*
X127282915Y-117138978D01*
X127279164Y-117152083D01*
X127215325Y-117374333D01*
X127027829Y-117374333D01*
X126910900Y-117364860D01*
X126846331Y-117340250D01*
X126840333Y-117327988D01*
X126828149Y-117248479D01*
X126796797Y-117130957D01*
X126754073Y-116997657D01*
X126707774Y-116870813D01*
X126665698Y-116772658D01*
X126635640Y-116725426D01*
X126629025Y-116725418D01*
X126602301Y-116780713D01*
X126560886Y-116894480D01*
X126513066Y-117043698D01*
X126505941Y-117067416D01*
X126414563Y-117374333D01*
X126235864Y-117374165D01*
X126057166Y-117373997D01*
X125883127Y-116698010D01*
X125826336Y-116471141D01*
X125780040Y-116273932D01*
X125747296Y-116120453D01*
X125731161Y-116024775D01*
X125731432Y-115999678D01*
X125783987Y-115985865D01*
X125888959Y-115978014D01*
X125933672Y-115977333D01*
X126113567Y-115977333D01*
X126187248Y-116318351D01*
G36*
X123231416Y-115512596D02*
X123550851Y-115526978D01*
X123797408Y-115571649D01*
X123978849Y-115651091D01*
X124102933Y-115769786D01*
X124177422Y-115932216D01*
X124204225Y-116074471D01*
X124196448Y-116303736D01*
X124118544Y-116487611D01*
X123973540Y-116623329D01*
X123764462Y-116708125D01*
X123494339Y-116739234D01*
X123476519Y-116739333D01*
X123199666Y-116739333D01*
X123199666Y-117374333D01*
X122776333Y-117374333D01*
X122776333Y-115892666D01*
X123199666Y-115892666D01*
X123199666Y-116400666D01*
X123367008Y-116400666D01*
X123505637Y-116388438D01*
X123625919Y-116358469D01*
X123638586Y-116353172D01*
X123740440Y-116266931D01*
X123771873Y-116141503D01*
X123750467Y-116042063D01*
X123699850Y-115959928D01*
X123613113Y-115913321D01*
X123470975Y-115894321D01*
X123386704Y-115892666D01*
X123199666Y-115892666D01*
X122776333Y-115892666D01*
X122776333Y-115511666D01*
X123231416Y-115512596D01*
X123231416Y-115512596D01*
G37*
X123231416Y-115512596D02*
X123550851Y-115526978D01*
X123797408Y-115571649D01*
X123978849Y-115651091D01*
X124102933Y-115769786D01*
X124177422Y-115932216D01*
X124204225Y-116074471D01*
X124196448Y-116303736D01*
X124118544Y-116487611D01*
X123973540Y-116623329D01*
X123764462Y-116708125D01*
X123494339Y-116739234D01*
X123476519Y-116739333D01*
X123199666Y-116739333D01*
X123199666Y-117374333D01*
X122776333Y-117374333D01*
X122776333Y-115892666D01*
X123199666Y-115892666D01*
X123199666Y-116400666D01*
X123367008Y-116400666D01*
X123505637Y-116388438D01*
X123625919Y-116358469D01*
X123638586Y-116353172D01*
X123740440Y-116266931D01*
X123771873Y-116141503D01*
X123750467Y-116042063D01*
X123699850Y-115959928D01*
X123613113Y-115913321D01*
X123470975Y-115894321D01*
X123386704Y-115892666D01*
X123199666Y-115892666D01*
X122776333Y-115892666D01*
X122776333Y-115511666D01*
X123231416Y-115512596D01*
G36*
X132767000Y-117379573D02*
X132523583Y-117374201D01*
X132345742Y-117375504D01*
X132166545Y-117384850D01*
X132089666Y-117392327D01*
X131951121Y-117398292D01*
X131833813Y-117384912D01*
X131806384Y-117376189D01*
X131713214Y-117322789D01*
X131646109Y-117245765D01*
X131601199Y-117132121D01*
X131574611Y-116968860D01*
X131562474Y-116742987D01*
X131560500Y-116550824D01*
X131560500Y-115998500D01*
X131962666Y-115972694D01*
X131963314Y-116451263D01*
X131966585Y-116648233D01*
X131974959Y-116816480D01*
X131987110Y-116936419D01*
X131999504Y-116985890D01*
X132067924Y-117023522D01*
X132178772Y-117028223D01*
X132322500Y-117014500D01*
X132343666Y-116506500D01*
X132364833Y-115998500D01*
X132565916Y-115985597D01*
X132767000Y-115972694D01*
X132767000Y-117379573D01*
X132767000Y-117379573D01*
G37*
X132767000Y-117379573D02*
X132523583Y-117374201D01*
X132345742Y-117375504D01*
X132166545Y-117384850D01*
X132089666Y-117392327D01*
X131951121Y-117398292D01*
X131833813Y-117384912D01*
X131806384Y-117376189D01*
X131713214Y-117322789D01*
X131646109Y-117245765D01*
X131601199Y-117132121D01*
X131574611Y-116968860D01*
X131562474Y-116742987D01*
X131560500Y-116550824D01*
X131560500Y-115998500D01*
X131962666Y-115972694D01*
X131963314Y-116451263D01*
X131966585Y-116648233D01*
X131974959Y-116816480D01*
X131987110Y-116936419D01*
X131999504Y-116985890D01*
X132067924Y-117023522D01*
X132178772Y-117028223D01*
X132322500Y-117014500D01*
X132343666Y-116506500D01*
X132364833Y-115998500D01*
X132565916Y-115985597D01*
X132767000Y-115972694D01*
X132767000Y-117379573D01*
G36*
X130951081Y-115536058D02*
X131155082Y-115631323D01*
X131303111Y-115784029D01*
X131387814Y-115987916D01*
X131399142Y-116054854D01*
X131381816Y-116089455D01*
X131317236Y-116102391D01*
X131186800Y-116104333D01*
X131184895Y-116104333D01*
X131050918Y-116100592D01*
X130978055Y-116082933D01*
X130942861Y-116041702D01*
X130929444Y-115999144D01*
X130869416Y-115909256D01*
X130763878Y-115861098D01*
X130641475Y-115855541D01*
X130530852Y-115893458D01*
X130460653Y-115975718D01*
X130457466Y-115984789D01*
X130449950Y-116050537D01*
X130481119Y-116107959D01*
X130562243Y-116165687D01*
X130704591Y-116232357D01*
X130862258Y-116294932D01*
X131018302Y-116362924D01*
X131152397Y-116436071D01*
X131234092Y-116497291D01*
X131354072Y-116671669D01*
X131398501Y-116845989D01*
X131376047Y-117011526D01*
X131295381Y-117159558D01*
X131165173Y-117281360D01*
X130994093Y-117368210D01*
X130790811Y-117411383D01*
X130563996Y-117402156D01*
X130381736Y-117354917D01*
X130170654Y-117242583D01*
X130024413Y-117081852D01*
X129971218Y-116966769D01*
X129943712Y-116845120D01*
X129968856Y-116775334D01*
X130057783Y-116744556D01*
X130168200Y-116739333D01*
X130288749Y-116745068D01*
X130353807Y-116772742D01*
X130392322Y-116838059D01*
X130402765Y-116866588D01*
X130475774Y-116965516D01*
X130593768Y-117024393D01*
X130728180Y-117039151D01*
X130850440Y-117005719D01*
X130921013Y-116940416D01*
X130945161Y-116857254D01*
X130903921Y-116779506D01*
X130791481Y-116701723D01*
X130602027Y-116618459D01*
X130561115Y-116603136D01*
X130318412Y-116496616D01*
X130152179Y-116380022D01*
X130054236Y-116245002D01*
X130016406Y-116083206D01*
X130015333Y-116045874D01*
X130052134Y-115843112D01*
X130158453Y-115683250D01*
X130328162Y-115571157D01*
X130555135Y-115511704D01*
X130698174Y-115503200D01*
X130951081Y-115536058D01*
X130951081Y-115536058D01*
G37*
X130951081Y-115536058D02*
X131155082Y-115631323D01*
X131303111Y-115784029D01*
X131387814Y-115987916D01*
X131399142Y-116054854D01*
X131381816Y-116089455D01*
X131317236Y-116102391D01*
X131186800Y-116104333D01*
X131184895Y-116104333D01*
X131050918Y-116100592D01*
X130978055Y-116082933D01*
X130942861Y-116041702D01*
X130929444Y-115999144D01*
X130869416Y-115909256D01*
X130763878Y-115861098D01*
X130641475Y-115855541D01*
X130530852Y-115893458D01*
X130460653Y-115975718D01*
X130457466Y-115984789D01*
X130449950Y-116050537D01*
X130481119Y-116107959D01*
X130562243Y-116165687D01*
X130704591Y-116232357D01*
X130862258Y-116294932D01*
X131018302Y-116362924D01*
X131152397Y-116436071D01*
X131234092Y-116497291D01*
X131354072Y-116671669D01*
X131398501Y-116845989D01*
X131376047Y-117011526D01*
X131295381Y-117159558D01*
X131165173Y-117281360D01*
X130994093Y-117368210D01*
X130790811Y-117411383D01*
X130563996Y-117402156D01*
X130381736Y-117354917D01*
X130170654Y-117242583D01*
X130024413Y-117081852D01*
X129971218Y-116966769D01*
X129943712Y-116845120D01*
X129968856Y-116775334D01*
X130057783Y-116744556D01*
X130168200Y-116739333D01*
X130288749Y-116745068D01*
X130353807Y-116772742D01*
X130392322Y-116838059D01*
X130402765Y-116866588D01*
X130475774Y-116965516D01*
X130593768Y-117024393D01*
X130728180Y-117039151D01*
X130850440Y-117005719D01*
X130921013Y-116940416D01*
X130945161Y-116857254D01*
X130903921Y-116779506D01*
X130791481Y-116701723D01*
X130602027Y-116618459D01*
X130561115Y-116603136D01*
X130318412Y-116496616D01*
X130152179Y-116380022D01*
X130054236Y-116245002D01*
X130016406Y-116083206D01*
X130015333Y-116045874D01*
X130052134Y-115843112D01*
X130158453Y-115683250D01*
X130328162Y-115571157D01*
X130555135Y-115511704D01*
X130698174Y-115503200D01*
X130951081Y-115536058D01*
G36*
X128529476Y-115997527D02*
X128696200Y-116079248D01*
X128719426Y-116097957D01*
X128825483Y-116239924D01*
X128893667Y-116435272D01*
X128914666Y-116632140D01*
X128914666Y-116824000D01*
X128512500Y-116824000D01*
X128313493Y-116827137D01*
X128187759Y-116837571D01*
X128124099Y-116856833D01*
X128110333Y-116879033D01*
X128146920Y-116961787D01*
X128240389Y-117016264D01*
X128366298Y-117037748D01*
X128500206Y-117021524D01*
X128602798Y-116974049D01*
X128666296Y-116939904D01*
X128720367Y-116953036D01*
X128795691Y-117021975D01*
X128803164Y-117029750D01*
X128915561Y-117147067D01*
X128816059Y-117240544D01*
X128649164Y-117345836D01*
X128441143Y-117403237D01*
X128224180Y-117407214D01*
X128068021Y-117369107D01*
X127872453Y-117248247D01*
X127733047Y-117069695D01*
X127656962Y-116844799D01*
X127644666Y-116697742D01*
X127669912Y-116488257D01*
X128087604Y-116488257D01*
X128095017Y-116516441D01*
X128158123Y-116526425D01*
X128274503Y-116527666D01*
X128413630Y-116519966D01*
X128480795Y-116494810D01*
X128491333Y-116469350D01*
X128458434Y-116379376D01*
X128376910Y-116332408D01*
X128272522Y-116331011D01*
X128171030Y-116377752D01*
X128120604Y-116432416D01*
X128087604Y-116488257D01*
X127669912Y-116488257D01*
X127676499Y-116433610D01*
X127770949Y-116224362D01*
X127926441Y-116072307D01*
X128132834Y-115981977D01*
X128329692Y-115962732D01*
X128529476Y-115997527D01*
X128529476Y-115997527D01*
G37*
X128529476Y-115997527D02*
X128696200Y-116079248D01*
X128719426Y-116097957D01*
X128825483Y-116239924D01*
X128893667Y-116435272D01*
X128914666Y-116632140D01*
X128914666Y-116824000D01*
X128512500Y-116824000D01*
X128313493Y-116827137D01*
X128187759Y-116837571D01*
X128124099Y-116856833D01*
X128110333Y-116879033D01*
X128146920Y-116961787D01*
X128240389Y-117016264D01*
X128366298Y-117037748D01*
X128500206Y-117021524D01*
X128602798Y-116974049D01*
X128666296Y-116939904D01*
X128720367Y-116953036D01*
X128795691Y-117021975D01*
X128803164Y-117029750D01*
X128915561Y-117147067D01*
X128816059Y-117240544D01*
X128649164Y-117345836D01*
X128441143Y-117403237D01*
X128224180Y-117407214D01*
X128068021Y-117369107D01*
X127872453Y-117248247D01*
X127733047Y-117069695D01*
X127656962Y-116844799D01*
X127644666Y-116697742D01*
X127669912Y-116488257D01*
X128087604Y-116488257D01*
X128095017Y-116516441D01*
X128158123Y-116526425D01*
X128274503Y-116527666D01*
X128413630Y-116519966D01*
X128480795Y-116494810D01*
X128491333Y-116469350D01*
X128458434Y-116379376D01*
X128376910Y-116332408D01*
X128272522Y-116331011D01*
X128171030Y-116377752D01*
X128120604Y-116432416D01*
X128087604Y-116488257D01*
X127669912Y-116488257D01*
X127676499Y-116433610D01*
X127770949Y-116224362D01*
X127926441Y-116072307D01*
X128132834Y-115981977D01*
X128329692Y-115962732D01*
X128529476Y-115997527D01*
G36*
X125241111Y-116008784D02*
X125315501Y-116043437D01*
X125477841Y-116166873D01*
X125579976Y-116320878D01*
X125634030Y-116526151D01*
X125642807Y-116602192D01*
X125650170Y-116774424D01*
X125630462Y-116907106D01*
X125577082Y-117042843D01*
X125573336Y-117050629D01*
X125443419Y-117229146D01*
X125264751Y-117350584D01*
X125056251Y-117408747D01*
X124836842Y-117397437D01*
X124682177Y-117342517D01*
X124515335Y-117216205D01*
X124398558Y-117041848D01*
X124332327Y-116837351D01*
X124325041Y-116733451D01*
X124757246Y-116733451D01*
X124772624Y-116872992D01*
X124804773Y-116967146D01*
X124809716Y-116973833D01*
X124903560Y-117028605D01*
X125022942Y-117029064D01*
X125131363Y-116978517D01*
X125165766Y-116941580D01*
X125215455Y-116819448D01*
X125228116Y-116669691D01*
X125207444Y-116519878D01*
X125157132Y-116397578D01*
X125084040Y-116331516D01*
X124966738Y-116321952D01*
X124854878Y-116365858D01*
X124785502Y-116448172D01*
X124783601Y-116453681D01*
X124760338Y-116582391D01*
X124757246Y-116733451D01*
X124325041Y-116733451D01*
X124317127Y-116620620D01*
X124353439Y-116409562D01*
X124441747Y-116222083D01*
X124582532Y-116076088D01*
X124646976Y-116036708D01*
X124834132Y-115977582D01*
X125044736Y-115968400D01*
X125241111Y-116008784D01*
X125241111Y-116008784D01*
G37*
X125241111Y-116008784D02*
X125315501Y-116043437D01*
X125477841Y-116166873D01*
X125579976Y-116320878D01*
X125634030Y-116526151D01*
X125642807Y-116602192D01*
X125650170Y-116774424D01*
X125630462Y-116907106D01*
X125577082Y-117042843D01*
X125573336Y-117050629D01*
X125443419Y-117229146D01*
X125264751Y-117350584D01*
X125056251Y-117408747D01*
X124836842Y-117397437D01*
X124682177Y-117342517D01*
X124515335Y-117216205D01*
X124398558Y-117041848D01*
X124332327Y-116837351D01*
X124325041Y-116733451D01*
X124757246Y-116733451D01*
X124772624Y-116872992D01*
X124804773Y-116967146D01*
X124809716Y-116973833D01*
X124903560Y-117028605D01*
X125022942Y-117029064D01*
X125131363Y-116978517D01*
X125165766Y-116941580D01*
X125215455Y-116819448D01*
X125228116Y-116669691D01*
X125207444Y-116519878D01*
X125157132Y-116397578D01*
X125084040Y-116331516D01*
X124966738Y-116321952D01*
X124854878Y-116365858D01*
X124785502Y-116448172D01*
X124783601Y-116453681D01*
X124760338Y-116582391D01*
X124757246Y-116733451D01*
X124325041Y-116733451D01*
X124317127Y-116620620D01*
X124353439Y-116409562D01*
X124441747Y-116222083D01*
X124582532Y-116076088D01*
X124646976Y-116036708D01*
X124834132Y-115977582D01*
X125044736Y-115968400D01*
X125241111Y-116008784D01*
G36*
X136955570Y-116337288D02*
X137002197Y-116494689D01*
X137041935Y-116612717D01*
X137068753Y-116674161D01*
X137075147Y-116678630D01*
X137094742Y-116631953D01*
X137130364Y-116524356D01*
X137175290Y-116376472D01*
X137189022Y-116329258D01*
X137284284Y-115998500D01*
X137502142Y-115985704D01*
X137635995Y-115983559D01*
X137703053Y-115999891D01*
X137720000Y-116034411D01*
X137706201Y-116092126D01*
X137668353Y-116214137D01*
X137611777Y-116385331D01*
X137541795Y-116590596D01*
X137463728Y-116814819D01*
X137382899Y-117042886D01*
X137304630Y-117259686D01*
X137234241Y-117450106D01*
X137177055Y-117599032D01*
X137138393Y-117691353D01*
X137131940Y-117704392D01*
X137059141Y-117798888D01*
X136990586Y-117858995D01*
X136895340Y-117899045D01*
X136769700Y-117921491D01*
X136648989Y-117923240D01*
X136568531Y-117901199D01*
X136562888Y-117896444D01*
X136543213Y-117838089D01*
X136534677Y-117736119D01*
X136534666Y-117732402D01*
X136546626Y-117634252D01*
X136598796Y-117587783D01*
X136659364Y-117571643D01*
X136747775Y-117546998D01*
X136806299Y-117507313D01*
X136834724Y-117441993D01*
X136832834Y-117340443D01*
X136800418Y-117192069D01*
X136737261Y-116986274D01*
X136643151Y-116712466D01*
X136641998Y-116709193D01*
X136563995Y-116485883D01*
X136496990Y-116290410D01*
X136445668Y-116136737D01*
X136414713Y-116038824D01*
X136407666Y-116010709D01*
X136445868Y-115992103D01*
X136544043Y-115979987D01*
X136631136Y-115977333D01*
X136854606Y-115977333D01*
X136955570Y-116337288D01*
X136955570Y-116337288D01*
G37*
X136955570Y-116337288D02*
X137002197Y-116494689D01*
X137041935Y-116612717D01*
X137068753Y-116674161D01*
X137075147Y-116678630D01*
X137094742Y-116631953D01*
X137130364Y-116524356D01*
X137175290Y-116376472D01*
X137189022Y-116329258D01*
X137284284Y-115998500D01*
X137502142Y-115985704D01*
X137635995Y-115983559D01*
X137703053Y-115999891D01*
X137720000Y-116034411D01*
X137706201Y-116092126D01*
X137668353Y-116214137D01*
X137611777Y-116385331D01*
X137541795Y-116590596D01*
X137463728Y-116814819D01*
X137382899Y-117042886D01*
X137304630Y-117259686D01*
X137234241Y-117450106D01*
X137177055Y-117599032D01*
X137138393Y-117691353D01*
X137131940Y-117704392D01*
X137059141Y-117798888D01*
X136990586Y-117858995D01*
X136895340Y-117899045D01*
X136769700Y-117921491D01*
X136648989Y-117923240D01*
X136568531Y-117901199D01*
X136562888Y-117896444D01*
X136543213Y-117838089D01*
X136534677Y-117736119D01*
X136534666Y-117732402D01*
X136546626Y-117634252D01*
X136598796Y-117587783D01*
X136659364Y-117571643D01*
X136747775Y-117546998D01*
X136806299Y-117507313D01*
X136834724Y-117441993D01*
X136832834Y-117340443D01*
X136800418Y-117192069D01*
X136737261Y-116986274D01*
X136643151Y-116712466D01*
X136641998Y-116709193D01*
X136563995Y-116485883D01*
X136496990Y-116290410D01*
X136445668Y-116136737D01*
X136414713Y-116038824D01*
X136407666Y-116010709D01*
X136445868Y-115992103D01*
X136544043Y-115979987D01*
X136631136Y-115977333D01*
X136854606Y-115977333D01*
X136955570Y-116337288D01*
G36*
X135193763Y-115974819D02*
X135200403Y-115974849D01*
X135372114Y-116014741D01*
X135513672Y-116125445D01*
X135617606Y-116296201D01*
X135676449Y-116516247D01*
X135687004Y-116675833D01*
X135658543Y-116938682D01*
X135579834Y-117150762D01*
X135457974Y-117305314D01*
X135300057Y-117395579D01*
X135113181Y-117414799D01*
X134951816Y-117376101D01*
X134845121Y-117335535D01*
X134832643Y-117619517D01*
X134820166Y-117903500D01*
X134649297Y-117916075D01*
X134534297Y-117917168D01*
X134458167Y-117904414D01*
X134448214Y-117898436D01*
X134439473Y-117849080D01*
X134431724Y-117727562D01*
X134425354Y-117546386D01*
X134420750Y-117318055D01*
X134418298Y-117055072D01*
X134418000Y-116921994D01*
X134418000Y-116714698D01*
X134842841Y-116714698D01*
X134852871Y-116855587D01*
X134876131Y-116958104D01*
X134892133Y-116984866D01*
X134985940Y-117030566D01*
X135100263Y-117029460D01*
X135195504Y-116985293D01*
X135220843Y-116953783D01*
X135256029Y-116829051D01*
X135262182Y-116669186D01*
X135240919Y-116514047D01*
X135198766Y-116410086D01*
X135104963Y-116335240D01*
X134990795Y-116319464D01*
X134892133Y-116366800D01*
X134862472Y-116439805D01*
X134846042Y-116565938D01*
X134842841Y-116714698D01*
X134418000Y-116714698D01*
X134418000Y-115975766D01*
X134746083Y-115974999D01*
X134923243Y-115974703D01*
X135083215Y-115974639D01*
X135193763Y-115974819D01*
X135193763Y-115974819D01*
G37*
X135193763Y-115974819D02*
X135200403Y-115974849D01*
X135372114Y-116014741D01*
X135513672Y-116125445D01*
X135617606Y-116296201D01*
X135676449Y-116516247D01*
X135687004Y-116675833D01*
X135658543Y-116938682D01*
X135579834Y-117150762D01*
X135457974Y-117305314D01*
X135300057Y-117395579D01*
X135113181Y-117414799D01*
X134951816Y-117376101D01*
X134845121Y-117335535D01*
X134832643Y-117619517D01*
X134820166Y-117903500D01*
X134649297Y-117916075D01*
X134534297Y-117917168D01*
X134458167Y-117904414D01*
X134448214Y-117898436D01*
X134439473Y-117849080D01*
X134431724Y-117727562D01*
X134425354Y-117546386D01*
X134420750Y-117318055D01*
X134418298Y-117055072D01*
X134418000Y-116921994D01*
X134418000Y-116714698D01*
X134842841Y-116714698D01*
X134852871Y-116855587D01*
X134876131Y-116958104D01*
X134892133Y-116984866D01*
X134985940Y-117030566D01*
X135100263Y-117029460D01*
X135195504Y-116985293D01*
X135220843Y-116953783D01*
X135256029Y-116829051D01*
X135262182Y-116669186D01*
X135240919Y-116514047D01*
X135198766Y-116410086D01*
X135104963Y-116335240D01*
X134990795Y-116319464D01*
X134892133Y-116366800D01*
X134862472Y-116439805D01*
X134846042Y-116565938D01*
X134842841Y-116714698D01*
X134418000Y-116714698D01*
X134418000Y-115975766D01*
X134746083Y-115974999D01*
X134923243Y-115974703D01*
X135083215Y-115974639D01*
X135193763Y-115974819D01*
G36*
X133805323Y-115973026D02*
X133876303Y-115981620D01*
X133929105Y-115998067D01*
X133979560Y-116022910D01*
X134106724Y-116135700D01*
X134193998Y-116303488D01*
X134241758Y-116506793D01*
X134250378Y-116726133D01*
X134220231Y-116942027D01*
X134151693Y-117134992D01*
X134045137Y-117285547D01*
X133954020Y-117352294D01*
X133754433Y-117412447D01*
X133548351Y-117388474D01*
X133510589Y-117375381D01*
X133402000Y-117334095D01*
X133402000Y-117924666D01*
X133210171Y-117924666D01*
X133078151Y-117913022D01*
X133004663Y-117881457D01*
X132997635Y-117870703D01*
X132992026Y-117813933D01*
X132988059Y-117685724D01*
X132985861Y-117499288D01*
X132985558Y-117267841D01*
X132987279Y-117004594D01*
X132988380Y-116907619D01*
X132990810Y-116714698D01*
X133403508Y-116714698D01*
X133413538Y-116855587D01*
X133436798Y-116958104D01*
X133452800Y-116984866D01*
X133546607Y-117030566D01*
X133660930Y-117029460D01*
X133756171Y-116985293D01*
X133781510Y-116953783D01*
X133816446Y-116834672D01*
X133825301Y-116681995D01*
X133809713Y-116530743D01*
X133771321Y-116415903D01*
X133755272Y-116393416D01*
X133651846Y-116328638D01*
X133534905Y-116323086D01*
X133452800Y-116366800D01*
X133423139Y-116439805D01*
X133406708Y-116565938D01*
X133403508Y-116714698D01*
X132990810Y-116714698D01*
X132999833Y-115998500D01*
X133317333Y-115984810D01*
X133542436Y-115975576D01*
X133699567Y-115971330D01*
X133805323Y-115973026D01*
X133805323Y-115973026D01*
G37*
X133805323Y-115973026D02*
X133876303Y-115981620D01*
X133929105Y-115998067D01*
X133979560Y-116022910D01*
X134106724Y-116135700D01*
X134193998Y-116303488D01*
X134241758Y-116506793D01*
X134250378Y-116726133D01*
X134220231Y-116942027D01*
X134151693Y-117134992D01*
X134045137Y-117285547D01*
X133954020Y-117352294D01*
X133754433Y-117412447D01*
X133548351Y-117388474D01*
X133510589Y-117375381D01*
X133402000Y-117334095D01*
X133402000Y-117924666D01*
X133210171Y-117924666D01*
X133078151Y-117913022D01*
X133004663Y-117881457D01*
X132997635Y-117870703D01*
X132992026Y-117813933D01*
X132988059Y-117685724D01*
X132985861Y-117499288D01*
X132985558Y-117267841D01*
X132987279Y-117004594D01*
X132988380Y-116907619D01*
X132990810Y-116714698D01*
X133403508Y-116714698D01*
X133413538Y-116855587D01*
X133436798Y-116958104D01*
X133452800Y-116984866D01*
X133546607Y-117030566D01*
X133660930Y-117029460D01*
X133756171Y-116985293D01*
X133781510Y-116953783D01*
X133816446Y-116834672D01*
X133825301Y-116681995D01*
X133809713Y-116530743D01*
X133771321Y-116415903D01*
X133755272Y-116393416D01*
X133651846Y-116328638D01*
X133534905Y-116323086D01*
X133452800Y-116366800D01*
X133423139Y-116439805D01*
X133406708Y-116565938D01*
X133403508Y-116714698D01*
X132990810Y-116714698D01*
X132999833Y-115998500D01*
X133317333Y-115984810D01*
X133542436Y-115975576D01*
X133699567Y-115971330D01*
X133805323Y-115973026D01*
D10*
X187478571Y-84378571D02*
X185978571Y-84378571D01*
X187050000Y-83878571D01*
X185978571Y-83378571D01*
X187478571Y-83378571D01*
X185978571Y-82807142D02*
X187478571Y-82450000D01*
X186407142Y-82164285D01*
X187478571Y-81878571D01*
X185978571Y-81521428D01*
X186907142Y-80950000D02*
X186907142Y-79807142D01*
X187478571Y-79092857D02*
X185978571Y-79092857D01*
X187478571Y-77521428D02*
X186764285Y-78021428D01*
X187478571Y-78378571D02*
X185978571Y-78378571D01*
X185978571Y-77807142D01*
X186050000Y-77664285D01*
X186121428Y-77592857D01*
X186264285Y-77521428D01*
X186478571Y-77521428D01*
X186621428Y-77592857D01*
X186692857Y-77664285D01*
X186764285Y-77807142D01*
X186764285Y-78378571D01*
X187478571Y-76878571D02*
X185978571Y-76878571D01*
X187050000Y-76378571D01*
X185978571Y-75878571D01*
X187478571Y-75878571D01*
X187478571Y-74378571D02*
X187478571Y-75235714D01*
X187478571Y-74807142D02*
X185978571Y-74807142D01*
X186192857Y-74950000D01*
X186335714Y-75092857D01*
X186407142Y-75235714D01*
X185978571Y-73450000D02*
X185978571Y-73307142D01*
X186050000Y-73164285D01*
X186121428Y-73092857D01*
X186264285Y-73021428D01*
X186550000Y-72950000D01*
X186907142Y-72950000D01*
X187192857Y-73021428D01*
X187335714Y-73092857D01*
X187407142Y-73164285D01*
X187478571Y-73307142D01*
X187478571Y-73450000D01*
X187407142Y-73592857D01*
X187335714Y-73664285D01*
X187192857Y-73735714D01*
X186907142Y-73807142D01*
X186550000Y-73807142D01*
X186264285Y-73735714D01*
X186121428Y-73664285D01*
X186050000Y-73592857D01*
X185978571Y-73450000D01*
X182452380Y-89390476D02*
X181452380Y-89390476D01*
X182166666Y-89057142D01*
X181452380Y-88723809D01*
X182452380Y-88723809D01*
X181452380Y-88342857D02*
X182452380Y-88104761D01*
X181738095Y-87914285D01*
X182452380Y-87723809D01*
X181452380Y-87485714D01*
X182357142Y-87104761D02*
X182404761Y-87057142D01*
X182452380Y-87104761D01*
X182404761Y-87152380D01*
X182357142Y-87104761D01*
X182452380Y-87104761D01*
X181833333Y-87104761D02*
X181880952Y-87057142D01*
X181928571Y-87104761D01*
X181880952Y-87152380D01*
X181833333Y-87104761D01*
X181928571Y-87104761D01*
X181452380Y-86771428D02*
X182452380Y-86438095D01*
X181452380Y-86104761D01*
X182071428Y-85771428D02*
X182071428Y-85009523D01*
X182452380Y-85390476D02*
X181690476Y-85390476D01*
X182752380Y-97390476D02*
X181752380Y-97390476D01*
X182466666Y-97057142D01*
X181752380Y-96723809D01*
X182752380Y-96723809D01*
X181752380Y-96342857D02*
X182752380Y-96104761D01*
X182038095Y-95914285D01*
X182752380Y-95723809D01*
X181752380Y-95485714D01*
X182657142Y-95104761D02*
X182704761Y-95057142D01*
X182752380Y-95104761D01*
X182704761Y-95152380D01*
X182657142Y-95104761D01*
X182752380Y-95104761D01*
X182133333Y-95104761D02*
X182180952Y-95057142D01*
X182228571Y-95104761D01*
X182180952Y-95152380D01*
X182133333Y-95104761D01*
X182228571Y-95104761D01*
X181752380Y-94771428D02*
X182752380Y-94438095D01*
X181752380Y-94104761D01*
X182371428Y-93771428D02*
X182371428Y-93009523D01*
X148652380Y-93100000D02*
X147652380Y-93100000D01*
X148366666Y-92766666D01*
X147652380Y-92433333D01*
X148652380Y-92433333D01*
X147652380Y-92052380D02*
X148652380Y-91814285D01*
X147938095Y-91623809D01*
X148652380Y-91433333D01*
X147652380Y-91195238D01*
X148557142Y-90814285D02*
X148604761Y-90766666D01*
X148652380Y-90814285D01*
X148604761Y-90861904D01*
X148557142Y-90814285D01*
X148652380Y-90814285D01*
X148033333Y-90814285D02*
X148080952Y-90766666D01*
X148128571Y-90814285D01*
X148080952Y-90861904D01*
X148033333Y-90814285D01*
X148128571Y-90814285D01*
X148366666Y-90385714D02*
X148366666Y-89909523D01*
X148652380Y-90480952D02*
X147652380Y-90147619D01*
X148652380Y-89814285D01*
X148557142Y-88909523D02*
X148604761Y-88957142D01*
X148652380Y-89100000D01*
X148652380Y-89195238D01*
X148604761Y-89338095D01*
X148509523Y-89433333D01*
X148414285Y-89480952D01*
X148223809Y-89528571D01*
X148080952Y-89528571D01*
X147890476Y-89480952D01*
X147795238Y-89433333D01*
X147700000Y-89338095D01*
X147652380Y-89195238D01*
X147652380Y-89100000D01*
X147700000Y-88957142D01*
X147747619Y-88909523D01*
X147604761Y-87766666D02*
X148890476Y-88623809D01*
X148652380Y-86957142D02*
X148652380Y-87433333D01*
X147652380Y-87433333D01*
X149052380Y-82419047D02*
X148052380Y-82419047D01*
X148766666Y-82085714D01*
X148052380Y-81752380D01*
X149052380Y-81752380D01*
X148052380Y-81371428D02*
X149052380Y-81133333D01*
X148338095Y-80942857D01*
X149052380Y-80752380D01*
X148052380Y-80514285D01*
X148957142Y-80133333D02*
X149004761Y-80085714D01*
X149052380Y-80133333D01*
X149004761Y-80180952D01*
X148957142Y-80133333D01*
X149052380Y-80133333D01*
X148433333Y-80133333D02*
X148480952Y-80085714D01*
X148528571Y-80133333D01*
X148480952Y-80180952D01*
X148433333Y-80133333D01*
X148528571Y-80133333D01*
X148766666Y-79704761D02*
X148766666Y-79228571D01*
X149052380Y-79800000D02*
X148052380Y-79466666D01*
X149052380Y-79133333D01*
X148957142Y-78228571D02*
X149004761Y-78276190D01*
X149052380Y-78419047D01*
X149052380Y-78514285D01*
X149004761Y-78657142D01*
X148909523Y-78752380D01*
X148814285Y-78800000D01*
X148623809Y-78847619D01*
X148480952Y-78847619D01*
X148290476Y-78800000D01*
X148195238Y-78752380D01*
X148100000Y-78657142D01*
X148052380Y-78514285D01*
X148052380Y-78419047D01*
X148100000Y-78276190D01*
X148147619Y-78228571D01*
X148004761Y-77085714D02*
X149290476Y-77942857D01*
X149052380Y-76752380D02*
X148052380Y-76752380D01*
X149052380Y-76180952D01*
X148052380Y-76180952D01*
X122228571Y-93266666D02*
X122228571Y-93600000D01*
X122752380Y-93600000D02*
X121752380Y-93600000D01*
X121752380Y-93123809D01*
X121752380Y-92742857D02*
X122561904Y-92742857D01*
X122657142Y-92695238D01*
X122704761Y-92647619D01*
X122752380Y-92552380D01*
X122752380Y-92361904D01*
X122704761Y-92266666D01*
X122657142Y-92219047D01*
X122561904Y-92171428D01*
X121752380Y-92171428D01*
X122704761Y-91742857D02*
X122752380Y-91600000D01*
X122752380Y-91361904D01*
X122704761Y-91266666D01*
X122657142Y-91219047D01*
X122561904Y-91171428D01*
X122466666Y-91171428D01*
X122371428Y-91219047D01*
X122323809Y-91266666D01*
X122276190Y-91361904D01*
X122228571Y-91552380D01*
X122180952Y-91647619D01*
X122133333Y-91695238D01*
X122038095Y-91742857D01*
X121942857Y-91742857D01*
X121847619Y-91695238D01*
X121800000Y-91647619D01*
X121752380Y-91552380D01*
X121752380Y-91314285D01*
X121800000Y-91171428D01*
X122228571Y-90742857D02*
X122228571Y-90409523D01*
X122752380Y-90266666D02*
X122752380Y-90742857D01*
X121752380Y-90742857D01*
X121752380Y-90266666D01*
X122657142Y-89838095D02*
X122704761Y-89790476D01*
X122752380Y-89838095D01*
X122704761Y-89885714D01*
X122657142Y-89838095D01*
X122752380Y-89838095D01*
X122133333Y-89838095D02*
X122180952Y-89790476D01*
X122228571Y-89838095D01*
X122180952Y-89885714D01*
X122133333Y-89838095D01*
X122228571Y-89838095D01*
X122752380Y-88838095D02*
X122752380Y-89409523D01*
X122752380Y-89123809D02*
X121752380Y-89123809D01*
X121895238Y-89219047D01*
X121990476Y-89314285D01*
X122038095Y-89409523D01*
X122657142Y-88409523D02*
X122704761Y-88361904D01*
X122752380Y-88409523D01*
X122704761Y-88457142D01*
X122657142Y-88409523D01*
X122752380Y-88409523D01*
X121752380Y-87504761D02*
X121752380Y-87695238D01*
X121800000Y-87790476D01*
X121847619Y-87838095D01*
X121990476Y-87933333D01*
X122180952Y-87980952D01*
X122561904Y-87980952D01*
X122657142Y-87933333D01*
X122704761Y-87885714D01*
X122752380Y-87790476D01*
X122752380Y-87600000D01*
X122704761Y-87504761D01*
X122657142Y-87457142D01*
X122561904Y-87409523D01*
X122323809Y-87409523D01*
X122228571Y-87457142D01*
X122180952Y-87504761D01*
X122133333Y-87600000D01*
X122133333Y-87790476D01*
X122180952Y-87885714D01*
X122228571Y-87933333D01*
X122323809Y-87980952D01*
X122466666Y-87028571D02*
X122466666Y-86552380D01*
X122752380Y-87123809D02*
X121752380Y-86790476D01*
X122752380Y-86457142D01*
X136966666Y-100492380D02*
X136966666Y-101206666D01*
X136919047Y-101349523D01*
X136823809Y-101444761D01*
X136680952Y-101492380D01*
X136585714Y-101492380D01*
X137966666Y-101492380D02*
X137395238Y-101492380D01*
X137680952Y-101492380D02*
X137680952Y-100492380D01*
X137585714Y-100635238D01*
X137490476Y-100730476D01*
X137395238Y-100778095D01*
X177206666Y-99492380D02*
X177206666Y-100206666D01*
X177159047Y-100349523D01*
X177063809Y-100444761D01*
X176920952Y-100492380D01*
X176825714Y-100492380D01*
X177635238Y-99587619D02*
X177682857Y-99540000D01*
X177778095Y-99492380D01*
X178016190Y-99492380D01*
X178111428Y-99540000D01*
X178159047Y-99587619D01*
X178206666Y-99682857D01*
X178206666Y-99778095D01*
X178159047Y-99920952D01*
X177587619Y-100492380D01*
X178206666Y-100492380D01*
X134978571Y-91350000D02*
X134978571Y-90492857D01*
X136478571Y-90921428D02*
X134978571Y-90921428D01*
X136478571Y-89992857D02*
X134978571Y-89992857D01*
X136050000Y-89492857D01*
X134978571Y-88992857D01*
X136478571Y-88992857D01*
X136478571Y-88278571D02*
X134978571Y-88278571D01*
X134978571Y-87707142D01*
X135050000Y-87564285D01*
X135121428Y-87492857D01*
X135264285Y-87421428D01*
X135478571Y-87421428D01*
X135621428Y-87492857D01*
X135692857Y-87564285D01*
X135764285Y-87707142D01*
X135764285Y-88278571D01*
X136407142Y-86850000D02*
X136478571Y-86635714D01*
X136478571Y-86278571D01*
X136407142Y-86135714D01*
X136335714Y-86064285D01*
X136192857Y-85992857D01*
X136050000Y-85992857D01*
X135907142Y-86064285D01*
X135835714Y-86135714D01*
X135764285Y-86278571D01*
X135692857Y-86564285D01*
X135621428Y-86707142D01*
X135550000Y-86778571D01*
X135407142Y-86850000D01*
X135264285Y-86850000D01*
X135121428Y-86778571D01*
X135050000Y-86707142D01*
X134978571Y-86564285D01*
X134978571Y-86207142D01*
X135050000Y-85992857D01*
X135907142Y-85350000D02*
X135907142Y-84207142D01*
X136478571Y-82707142D02*
X136478571Y-83564285D01*
X136478571Y-83135714D02*
X134978571Y-83135714D01*
X135192857Y-83278571D01*
X135335714Y-83421428D01*
X135407142Y-83564285D01*
X134978571Y-81778571D02*
X134978571Y-81635714D01*
X135050000Y-81492857D01*
X135121428Y-81421428D01*
X135264285Y-81350000D01*
X135550000Y-81278571D01*
X135907142Y-81278571D01*
X136192857Y-81350000D01*
X136335714Y-81421428D01*
X136407142Y-81492857D01*
X136478571Y-81635714D01*
X136478571Y-81778571D01*
X136407142Y-81921428D01*
X136335714Y-81992857D01*
X136192857Y-82064285D01*
X135907142Y-82135714D01*
X135550000Y-82135714D01*
X135264285Y-82064285D01*
X135121428Y-81992857D01*
X135050000Y-81921428D01*
X134978571Y-81778571D01*
X136478571Y-79850000D02*
X136478571Y-80707142D01*
X136478571Y-80278571D02*
X134978571Y-80278571D01*
X135192857Y-80421428D01*
X135335714Y-80564285D01*
X135407142Y-80707142D01*
X134978571Y-78921428D02*
X134978571Y-78778571D01*
X135050000Y-78635714D01*
X135121428Y-78564285D01*
X135264285Y-78492857D01*
X135550000Y-78421428D01*
X135907142Y-78421428D01*
X136192857Y-78492857D01*
X136335714Y-78564285D01*
X136407142Y-78635714D01*
X136478571Y-78778571D01*
X136478571Y-78921428D01*
X136407142Y-79064285D01*
X136335714Y-79135714D01*
X136192857Y-79207142D01*
X135907142Y-79278571D01*
X135550000Y-79278571D01*
X135264285Y-79207142D01*
X135121428Y-79135714D01*
X135050000Y-79064285D01*
X134978571Y-78921428D01*
X134978571Y-77064285D02*
X134978571Y-77778571D01*
X135692857Y-77850000D01*
X135621428Y-77778571D01*
X135550000Y-77635714D01*
X135550000Y-77278571D01*
X135621428Y-77135714D01*
X135692857Y-77064285D01*
X135835714Y-76992857D01*
X136192857Y-76992857D01*
X136335714Y-77064285D01*
X136407142Y-77135714D01*
X136478571Y-77278571D01*
X136478571Y-77635714D01*
X136407142Y-77778571D01*
X136335714Y-77850000D01*
X170152380Y-91771428D02*
X170152380Y-91200000D01*
X171152380Y-91485714D02*
X170152380Y-91485714D01*
X171152380Y-90866666D02*
X170152380Y-90866666D01*
X170152380Y-90485714D01*
X170200000Y-90390476D01*
X170247619Y-90342857D01*
X170342857Y-90295238D01*
X170485714Y-90295238D01*
X170580952Y-90342857D01*
X170628571Y-90390476D01*
X170676190Y-90485714D01*
X170676190Y-90866666D01*
X171057142Y-89866666D02*
X171104761Y-89819047D01*
X171152380Y-89866666D01*
X171104761Y-89914285D01*
X171057142Y-89866666D01*
X171152380Y-89866666D01*
X170533333Y-89866666D02*
X170580952Y-89819047D01*
X170628571Y-89866666D01*
X170580952Y-89914285D01*
X170533333Y-89866666D01*
X170628571Y-89866666D01*
X170152380Y-89533333D02*
X171152380Y-89200000D01*
X170152380Y-88866666D01*
X170771428Y-88533333D02*
X170771428Y-87771428D01*
X171152380Y-88152380D02*
X170390476Y-88152380D01*
X170052380Y-78871428D02*
X170052380Y-78300000D01*
X171052380Y-78585714D02*
X170052380Y-78585714D01*
X171052380Y-77966666D02*
X170052380Y-77966666D01*
X170052380Y-77585714D01*
X170100000Y-77490476D01*
X170147619Y-77442857D01*
X170242857Y-77395238D01*
X170385714Y-77395238D01*
X170480952Y-77442857D01*
X170528571Y-77490476D01*
X170576190Y-77585714D01*
X170576190Y-77966666D01*
X170957142Y-76966666D02*
X171004761Y-76919047D01*
X171052380Y-76966666D01*
X171004761Y-77014285D01*
X170957142Y-76966666D01*
X171052380Y-76966666D01*
X170433333Y-76966666D02*
X170480952Y-76919047D01*
X170528571Y-76966666D01*
X170480952Y-77014285D01*
X170433333Y-76966666D01*
X170528571Y-76966666D01*
X170052380Y-76633333D02*
X171052380Y-76300000D01*
X170052380Y-75966666D01*
X170671428Y-75633333D02*
X170671428Y-74871428D01*
X140152380Y-83480952D02*
X140152380Y-82909523D01*
X141152380Y-83195238D02*
X140152380Y-83195238D01*
X141152380Y-82576190D02*
X140152380Y-82576190D01*
X140152380Y-82195238D01*
X140200000Y-82100000D01*
X140247619Y-82052380D01*
X140342857Y-82004761D01*
X140485714Y-82004761D01*
X140580952Y-82052380D01*
X140628571Y-82100000D01*
X140676190Y-82195238D01*
X140676190Y-82576190D01*
X141057142Y-81576190D02*
X141104761Y-81528571D01*
X141152380Y-81576190D01*
X141104761Y-81623809D01*
X141057142Y-81576190D01*
X141152380Y-81576190D01*
X140533333Y-81576190D02*
X140580952Y-81528571D01*
X140628571Y-81576190D01*
X140580952Y-81623809D01*
X140533333Y-81576190D01*
X140628571Y-81576190D01*
X140866666Y-81147619D02*
X140866666Y-80671428D01*
X141152380Y-81242857D02*
X140152380Y-80909523D01*
X141152380Y-80576190D01*
X141057142Y-79671428D02*
X141104761Y-79719047D01*
X141152380Y-79861904D01*
X141152380Y-79957142D01*
X141104761Y-80100000D01*
X141009523Y-80195238D01*
X140914285Y-80242857D01*
X140723809Y-80290476D01*
X140580952Y-80290476D01*
X140390476Y-80242857D01*
X140295238Y-80195238D01*
X140200000Y-80100000D01*
X140152380Y-79957142D01*
X140152380Y-79861904D01*
X140200000Y-79719047D01*
X140247619Y-79671428D01*
X140104761Y-78528571D02*
X141390476Y-79385714D01*
X141152380Y-77719047D02*
X141152380Y-78195238D01*
X140152380Y-78195238D01*
X140302380Y-93150000D02*
X140302380Y-92578571D01*
X141302380Y-92864285D02*
X140302380Y-92864285D01*
X141302380Y-92245238D02*
X140302380Y-92245238D01*
X140302380Y-91864285D01*
X140350000Y-91769047D01*
X140397619Y-91721428D01*
X140492857Y-91673809D01*
X140635714Y-91673809D01*
X140730952Y-91721428D01*
X140778571Y-91769047D01*
X140826190Y-91864285D01*
X140826190Y-92245238D01*
X141207142Y-91245238D02*
X141254761Y-91197619D01*
X141302380Y-91245238D01*
X141254761Y-91292857D01*
X141207142Y-91245238D01*
X141302380Y-91245238D01*
X140683333Y-91245238D02*
X140730952Y-91197619D01*
X140778571Y-91245238D01*
X140730952Y-91292857D01*
X140683333Y-91245238D01*
X140778571Y-91245238D01*
X141016666Y-90816666D02*
X141016666Y-90340476D01*
X141302380Y-90911904D02*
X140302380Y-90578571D01*
X141302380Y-90245238D01*
X141207142Y-89340476D02*
X141254761Y-89388095D01*
X141302380Y-89530952D01*
X141302380Y-89626190D01*
X141254761Y-89769047D01*
X141159523Y-89864285D01*
X141064285Y-89911904D01*
X140873809Y-89959523D01*
X140730952Y-89959523D01*
X140540476Y-89911904D01*
X140445238Y-89864285D01*
X140350000Y-89769047D01*
X140302380Y-89626190D01*
X140302380Y-89530952D01*
X140350000Y-89388095D01*
X140397619Y-89340476D01*
X140254761Y-88197619D02*
X141540476Y-89054761D01*
X141302380Y-87864285D02*
X140302380Y-87864285D01*
X141302380Y-87292857D01*
X140302380Y-87292857D01*
X161791904Y-100592380D02*
X161791904Y-99592380D01*
X162030000Y-99592380D01*
X162172857Y-99640000D01*
X162268095Y-99735238D01*
X162315714Y-99830476D01*
X162363333Y-100020952D01*
X162363333Y-100163809D01*
X162315714Y-100354285D01*
X162268095Y-100449523D01*
X162172857Y-100544761D01*
X162030000Y-100592380D01*
X161791904Y-100592380D01*
X163315714Y-100592380D02*
X162744285Y-100592380D01*
X163030000Y-100592380D02*
X163030000Y-99592380D01*
X162934761Y-99735238D01*
X162839523Y-99830476D01*
X162744285Y-99878095D01*
X162843333Y-108042380D02*
X162510000Y-107566190D01*
X162271904Y-108042380D02*
X162271904Y-107042380D01*
X162652857Y-107042380D01*
X162748095Y-107090000D01*
X162795714Y-107137619D01*
X162843333Y-107232857D01*
X162843333Y-107375714D01*
X162795714Y-107470952D01*
X162748095Y-107518571D01*
X162652857Y-107566190D01*
X162271904Y-107566190D01*
X163795714Y-108042380D02*
X163224285Y-108042380D01*
X163510000Y-108042380D02*
X163510000Y-107042380D01*
X163414761Y-107185238D01*
X163319523Y-107280476D01*
X163224285Y-107328095D01*
M02*
