0
SECTION
2
HEADER
9
$INSUNITS
70
4
9
$ACADVER
1
AC1014
9
$HANDSEED
5
FFFF
0
ENDSEC
0
SECTION
2
TABLES
0
TABLE
2
VPORT
5
8
100
AcDbSymbolTable
0
ENDTAB
0
TABLE
2
LTYPE
5
5
100
AcDbSymbolTable
0
LTYPE
5
14
100
AcDbSymbolTableRecord
100
AcDbLinetypeTableRecord
2
BYBLOCK
70
0
0
LTYPE
5
15
100
AcDbSymbolTableRecord
100
AcDbLinetypeTableRecord
2
BYLAYER
70
0
0
ENDTAB
0
TABLE
2
LAYER
5
2
100
AcDbSymbolTable
70
2
0
LAYER
5
50
100
AcDbSymbolTableRecord
100
AcDbLayerTableRecord
2
0
70
0
6
CONTINUOUS
0
ENDTAB
0
TABLE
2
STYLE
5
3
100
AcDbSymbolTable
70
1
0
STYLE
5
11
100
AcDbSymbolTableRecord
100
AcDbTextStyleTableRecord
2
STANDARD
70
0
0
ENDTAB
0
TABLE
2
VIEW
5
6
100
AcDbSymbolTable
70
0
0
ENDTAB
0
TABLE
2
UCS
5
7
100
AcDbSymbolTable
70
0
0
ENDTAB
0
TABLE
2
APPID
5
9
100
AcDbSymbolTable
70
2
0
APPID
5
12
100
AcDbSymbolTableRecord
100
AcDbRegAppTableRecord
2
ACAD
70
0
0
ENDTAB
0
TABLE
2
DIMSTYLE
5
A
100
AcDbSymbolTable
70
1
0
ENDTAB
0
TABLE
2
BLOCK_RECORD
5
1
100
AcDbSymbolTable
70
1
0
BLOCK_RECORD
5
1F
100
AcDbSymbolTableRecord
100
AcDbBlockTableRecord
2
*MODEL_SPACE
0
BLOCK_RECORD
5
1B
100
AcDbSymbolTableRecord
100
AcDbBlockTableRecord
2
*PAPER_SPACE
0
ENDTAB
0
ENDSEC
0
SECTION
2
BLOCKS
0
BLOCK
5
20
100
AcDbEntity
100
AcDbBlockBegin
2
*MODEL_SPACE
0
ENDBLK
5
21
100
AcDbEntity
100
AcDbBlockEnd
0
BLOCK
5
1C
100
AcDbEntity
100
AcDbBlockBegin
2
*PAPER_SPACE
0
ENDBLK
5
1D
100
AcDbEntity
100
AcDbBlockEnd
0
ENDSEC
0
SECTION
2
ENTITIES
0
ARC
5
100
100
AcDbEntity
8
0
100
AcDbCircle
10
-22.5
20
-6.0000000000000577
30
1.7960978851819555e-47
40
2.0000000000000018
210
9.2970082326757994e-32
220
6.1629758220391602e-33
230
1
100
AcDbArc
50
90
51
180
0
LINE
5
101
100
AcDbEntity
8
0
100
AcDbLine
10
-24.499999999999993
20
-6.0000000000000568
30
0
11
-24.499999999999993
21
-57.000000000000057
31
1.8899962903668083e-110
0
ARC
5
102
100
AcDbEntity
8
0
100
AcDbCircle
10
-22.499999999999979
20
-57.000000000000043
30
2.6000655099776879e-46
40
2.0000000000000151
210
2.6522587125648822e-33
220
4.651653742031355e-35
230
1
100
AcDbArc
50
180
51
269.9999999999996
0
LINE
5
103
100
AcDbEntity
8
0
100
AcDbLine
10
-22.499999999999993
20
-59.00000000000005
30
0
11
98.500000000000014
21
-59.00000000000005
31
1.3425819607134802e-47
0
ARC
5
104
100
AcDbEntity
8
0
100
AcDbCircle
10
98.5
20
-57.000000000000057
30
3.0790249460262094e-47
40
2.0000000000000018
210
2.6522587125649999e-33
220
8.1616647894876513e-48
230
1
100
AcDbArc
50
-89.999999999999588
51
0
0
LINE
5
105
100
AcDbEntity
8
0
100
AcDbLine
10
100.5
20
-57.000000000000057
30
0
11
100.5
21
-6.0000000000000497
31
1.2325951644078309e-30
0
LINE
5
106
100
AcDbEntity
8
0
100
AcDbLine
10
98.500000000000014
20
-4.0000000000000577
30
0
11
92.5
21
-4.0000000000000604
31
-4.9978942886215059e-48
0
LINE
5
107
100
AcDbEntity
8
0
100
AcDbLine
10
92.5
20
-4.0000000000000604
30
0
11
92.5
21
-6.5000000000000746
31
9.2646876978765627e-112
0
LINE
5
108
100
AcDbEntity
8
0
100
AcDbLine
10
92.5
20
-6.5000000000000746
30
9.2646876978765627e-112
11
91.5
21
-6.5000000000000737
31
-5.5019015040637114e-47
0
LINE
5
109
100
AcDbEntity
8
0
100
AcDbLine
10
91.5
20
-6.5000000000000737
30
-5.5019015040637114e-47
11
91.5
21
-6.0000000000000728
31
-1.8529375395753039e-112
0
LINE
5
110
100
AcDbEntity
8
0
100
AcDbLine
10
91.5
20
-6.0000000000000728
30
-1.8529375395753039e-112
11
72.5
21
-6.0000000000000728
31
4.4649456466246996e-47
0
LINE
5
111
100
AcDbEntity
8
0
100
AcDbLine
10
10.500000000000016
20
-4.0000000000000604
30
0
11
10.500000000000016
21
-6.5000000000000746
31
9.2646876978765627e-112
0
LINE
5
112
100
AcDbEntity
8
0
100
AcDbLine
10
10.500000000000016
20
-6.5000000000000746
30
9.2646876978765627e-112
11
9.5000000000000107
21
-6.5000000000000737
31
0
0
LINE
5
113
100
AcDbEntity
8
0
100
AcDbLine
10
9.5000000000000107
20
-6.5000000000000737
30
0
11
9.5000000000000107
21
-6.0000000000000728
31
-1.8529375395753039e-112
0
LINE
5
114
100
AcDbEntity
8
0
100
AcDbLine
10
9.5000000000000107
20
-6.0000000000000728
30
-1.8529375395753039e-112
11
-9.4999999999999929
21
-6.0000000000000728
31
0
0
LINE
5
115
100
AcDbEntity
8
0
100
AcDbLine
10
-9.4999999999999929
20
-6.0000000000000728
30
0
11
-9.4999999999999929
21
-6.5000000000000737
31
1.8529375395753039e-112
0
LINE
5
116
100
AcDbEntity
8
0
100
AcDbLine
10
-9.4999999999999929
20
-6.5000000000000737
30
1.8529375395753039e-112
11
-10.499999999999991
21
-6.5000000000000737
31
0
0
LINE
5
117
100
AcDbEntity
8
0
100
AcDbLine
10
-10.499999999999991
20
-6.5000000000000737
30
0
11
-10.499999999999991
21
-4.0000000000000604
31
-9.2646876978765627e-112
0
LWPOLYLINE
5
118
100
AcDbEntity
8
0
100
AcDbPolyline
90
6
70
1
43
0.0
10
7.5
20
21.261946710584549
42
-0.41421356237309698
10
9.5000000000000089
20
19.261946710584549
10
9.500000000000032
20
-3.7380532894154044
10
-9.5000000000000249
20
-3.7380532894153706
10
-9.5000000000000142
20
19.261946710584496
42
-0.4142135623730932
10
-7.5000000000000338
20
21.261946710584489
0
LWPOLYLINE
5
119
100
AcDbEntity
8
0
100
AcDbPolyline
90
4
70
1
43
0.0
10
-9.5000000000000249
20
-3.7380532894153689
10
9.500000000000032
20
-3.7380532894154044
10
9.5000000000000107
20
-6.0000000000000728
10
-9.4999999999999929
20
-6.0000000000000746
0
LWPOLYLINE
5
120
100
AcDbEntity
8
0
100
AcDbPolyline
90
6
70
1
43
0.0
10
72.500000000000028
20
19.261946710584478
42
-0.41421356237309309
10
74.500000000000028
20
21.261946710584478
10
89.500000000000043
20
21.261946710584425
42
-0.41421356237309598
10
91.5
20
19.261946710584461
10
91.5
20
-3.7380532894154754
10
72.5
20
-3.738053289415475
0
LWPOLYLINE
5
121
100
AcDbEntity
8
0
100
AcDbPolyline
90
4
70
1
43
0.0
10
72.5
20
-3.7380532894154754
10
91.5
20
-3.7380532894154754
10
91.5
20
-6.0000000000000728
10
72.5
20
-6.0000000000000746
0
CIRCLE
5
122
100
AcDbEntity
8
0
100
AcDbCircle
10
91.090754930735812
20
-18.652460000000026
30
0
40
2.2499999999999964
210
2.0663145413401615e-110
220
-2.536527064222734e-79
230
1
0
CIRCLE
5
123
100
AcDbEntity
8
0
100
AcDbCircle
10
80.258336210771944
20
-52.65246000000004
30
0
40
2.2499999999999964
210
2.0663145413401615e-110
220
-2.536527064222734e-79
230
1
0
CIRCLE
5
124
100
AcDbEntity
8
0
100
AcDbCircle
10
-15.090754930736516
20
-18.65246000000004
30
0
40
2.2500000000000009
210
-6.0771633572862712e-64
220
-2.5365270642227352e-79
230
1
0
CIRCLE
5
125
100
AcDbEntity
8
0
100
AcDbCircle
10
-4.2583362107726321
20
-52.652460000000055
30
0
40
2.2500000000000009
210
-6.0771633572862712e-64
220
-2.5365270642227352e-79
230
1
0
CIRCLE
5
126
100
AcDbEntity
8
0
100
AcDbCircle
10
54.092208088460048
20
-52.652460183045243
30
0
40
2.2499999999999964
210
2.0663145413401615e-110
220
-2.536527064222734e-79
230
1
0
CIRCLE
5
127
100
AcDbEntity
8
0
100
AcDbCircle
10
21.907791911539949
20
-52.652460183045243
30
0
40
2.2500000000000009
210
-6.0771633572862712e-64
220
-2.5365270642227352e-79
230
1
0
ARC
5
128
100
AcDbEntity
8
0
100
AcDbCircle
10
98.500000000000014
20
-6.0000000000000497
30
8.8949609551868271e-47
40
1.9999999999999929
210
-6.1629758220391766e-31
220
-1.2325951644078304e-32
230
1
100
AcDbArc
50
0
51
90
0
LINE
5
129
100
AcDbEntity
8
0
100
AcDbLine
10
72.5
20
-6.0000000000000728
30
4.4649456466246996e-47
11
72.5
21
-6.5000000000000737
31
1.8529375395753039e-112
0
LINE
5
130
100
AcDbEntity
8
0
100
AcDbLine
10
72.5
20
-6.5000000000000737
30
1.8529375395753039e-112
11
71.500000000000028
21
-6.5000000000000737
31
0
0
LINE
5
131
100
AcDbEntity
8
0
100
AcDbLine
10
71.500000000000028
20
-6.5000000000000737
30
0
11
71.500000000000028
21
-4.0000000000000604
31
-9.2646876978765627e-112
0
CIRCLE
5
132
100
AcDbEntity
8
0
100
AcDbCircle
10
-3.1086244689504131e-14
20
12.961946710585039
30
0
40
3.8429042511311273
210
-4.8433726978776965e-46
220
-1.2017802852976352e-30
230
1
0
CIRCLE
5
133
100
AcDbEntity
8
0
100
AcDbCircle
10
82
20
12.961946710584595
30
0
40
3.8429042511311273
210
8.1462349465360162e-32
220
2.9027616121804419e-30
230
1
0
CIRCLE
5
134
100
AcDbEntity
8
0
100
AcDbCircle
10
82
20
12.961946710584595
30
0
40
2.871688611425629
210
8.1462349465357217e-32
220
1.522255028043671e-30
230
1
0
CIRCLE
5
135
100
AcDbEntity
8
0
100
AcDbCircle
10
82
20
12.961946710584595
30
0
40
1.9999999999999929
210
8.1462349465358443e-32
220
2.588449845256445e-30
230
1
0
CIRCLE
5
136
100
AcDbEntity
8
0
100
AcDbCircle
10
81.999999999999901
20
12.961946710584222
30
0
40
2.871688611425629
210
8.1462349465362877e-32
220
1.522255028043671e-30
230
1
0
CIRCLE
5
137
100
AcDbEntity
8
0
100
AcDbCircle
10
81.999999999999901
20
12.961946710584222
30
0
40
3.8429042511311273
210
8.1462349465365832e-32
220
2.9027616121804419e-30
230
1
0
CIRCLE
5
138
100
AcDbEntity
8
0
100
AcDbCircle
10
-1.1546319456101603e-13
20
12.961946710585341
30
0
40
2.871688611425629
210
8.1462349465335584e-32
220
1.522255028043671e-30
230
1
0
CIRCLE
5
139
100
AcDbEntity
8
0
100
AcDbCircle
10
-1.1546319456101603e-13
20
12.961946710585341
30
0
40
3.8429042511311273
210
8.146234946533854e-32
220
2.9027616121804419e-30
230
1
0
CIRCLE
5
140
100
AcDbEntity
8
0
100
AcDbCircle
10
-3.1086244689504131e-14
20
12.961946710585039
30
0
40
2.871688611425629
210
5.8248131544791568e-45
220
1.5222550280436712e-30
230
1
0
CIRCLE
5
141
100
AcDbEntity
8
0
100
AcDbCircle
10
-3.1086244689504131e-14
20
12.961946710585039
30
0
40
1.9999999999999929
210
1.0133386457027093e-44
220
2.588449845256445e-30
230
1
0
CIRCLE
5
142
100
AcDbEntity
8
0
100
AcDbCircle
10
-14.475999999998592
20
-49.803204636892929
30
0
40
3.2499999999999996
210
0
220
1.7361539204956369e-46
230
1
0
CIRCLE
5
143
100
AcDbEntity
8
0
100
AcDbCircle
10
71.524000000001564
20
-13.803204636893065
30
0
40
3.2500000000000018
210
0
220
1.7361539204956367e-46
230
1
0
LINE
5
144
100
AcDbEntity
8
0
100
AcDbLine
10
71.500000000000028
20
-4.0000000000000604
30
-9.2646876978765627e-112
11
10.500000000000016
21
-4.0000000000000604
31
0
0
LINE
5
145
100
AcDbEntity
8
0
100
AcDbLine
10
-10.499999999999991
20
-4.0000000000000604
30
-9.2646876978765627e-112
11
-22.5
21
-4.000000000000056
31
-1.2325951644078315e-32
0
ENDSEC
0
SECTION
2
OBJECTS
0
DICTIONARY
5
C
100
AcDbDictionary
3
ACAD_GROUP
350
D
3
ACAD_MLINESTYLE
350
17
0
DICTIONARY
5
D
100
AcDbDictionary
0
DICTIONARY
5
1A
330
C
100
AcDbDictionary
0
DICTIONARY
5
17
100
AcDbDictionary
0
ENDSEC
0
EOF
