0
SECTION
2
HEADER
9
$INSUNITS
70
4
9
$ACADVER
1
AC1014
9
$HANDSEED
5
FFFF
0
ENDSEC
0
SECTION
2
TABLES
0
TABLE
2
VPORT
5
8
100
AcDbSymbolTable
0
ENDTAB
0
TABLE
2
LTYPE
5
5
100
AcDbSymbolTable
0
LTYPE
5
14
100
AcDbSymbolTableRecord
100
AcDbLinetypeTableRecord
2
BYBLOCK
70
0
0
LTYPE
5
15
100
AcDbSymbolTableRecord
100
AcDbLinetypeTableRecord
2
BYLAYER
70
0
0
ENDTAB
0
TABLE
2
LAYER
5
2
100
AcDbSymbolTable
70
2
0
LAYER
5
50
100
AcDbSymbolTableRecord
100
AcDbLayerTableRecord
2
0
70
0
6
CONTINUOUS
0
ENDTAB
0
TABLE
2
STYLE
5
3
100
AcDbSymbolTable
70
1
0
STYLE
5
11
100
AcDbSymbolTableRecord
100
AcDbTextStyleTableRecord
2
STANDARD
70
0
0
ENDTAB
0
TABLE
2
VIEW
5
6
100
AcDbSymbolTable
70
0
0
ENDTAB
0
TABLE
2
UCS
5
7
100
AcDbSymbolTable
70
0
0
ENDTAB
0
TABLE
2
APPID
5
9
100
AcDbSymbolTable
70
2
0
APPID
5
12
100
AcDbSymbolTableRecord
100
AcDbRegAppTableRecord
2
ACAD
70
0
0
ENDTAB
0
TABLE
2
DIMSTYLE
5
A
100
AcDbSymbolTable
70
1
0
ENDTAB
0
TABLE
2
BLOCK_RECORD
5
1
100
AcDbSymbolTable
70
1
0
BLOCK_RECORD
5
1F
100
AcDbSymbolTableRecord
100
AcDbBlockTableRecord
2
*MODEL_SPACE
0
BLOCK_RECORD
5
1B
100
AcDbSymbolTableRecord
100
AcDbBlockTableRecord
2
*PAPER_SPACE
0
ENDTAB
0
ENDSEC
0
SECTION
2
BLOCKS
0
BLOCK
5
20
100
AcDbEntity
100
AcDbBlockBegin
2
*MODEL_SPACE
0
ENDBLK
5
21
100
AcDbEntity
100
AcDbBlockEnd
0
BLOCK
5
1C
100
AcDbEntity
100
AcDbBlockBegin
2
*PAPER_SPACE
0
ENDBLK
5
1D
100
AcDbEntity
100
AcDbBlockEnd
0
ENDSEC
0
SECTION
2
ENTITIES
0
LWPOLYLINE
5
100
100
AcDbEntity
8
0
100
AcDbPolyline
90
36
70
1
43
0.0
10
19
20
8.8170540923213832
42
-0.38998327874277544
10
22.33834779078245
20
5.7462207589879988
42
0.38998327874277411
10
24.979130371550696
20
3.3170540923213632
10
44.999999999999972
20
3.3170540923213752
42
0.3899832787427735
10
47.64078258076821
20
5.7462207589879934
42
-0.38998327874277083
10
50.979130371550681
20
8.8170540923214009
10
100.99999999999993
20
8.8170540923213832
42
-0.41421356237310292
10
104.35000000000004
20
5.4670540923213897
10
104.35000000000008
20
-6.5329459076786121
42
0.41421356237309875
10
106.99999999999997
20
-9.1829459076786026
10
108.99999999999997
20
-9.1829459076786417
42
-0.4142135623730952
10
112.35000000000001
20
-12.532945907678616
10
112.35000000000005
20
-76.532945907678638
42
-0.41421356237310125
10
108.99999999999997
20
-79.882945907678717
10
107.00000000000004
20
-79.882945907678703
42
0.41421356237308521
10
104.35000000000008
20
-82.532945907678709
10
104.35000000000015
20
-94.53294590767868
42
-0.41421356237309659
10
101.00000000000001
20
-97.882945907678732
10
50.99999999999995
20
-97.882945907678703
42
-0.3899832787427755
10
47.661652209217465
20
-94.812112574345292
42
0.38998327874275712
10
45.020869628449262
20
-92.382945907678732
10
24.999999999999943
20
-92.38294590767876
42
0.38998327874277583
10
22.359217419231818
20
-94.812112574345448
42
-0.38998327874277094
10
19.02086962844924
20
-97.882945907678703
10
-31
20
-97.882945907678675
42
-0.41421356237308882
10
-34.349999999999937
20
-94.532945907678666
10
-34.349999999999937
20
-82.532945907678652
42
0.41421356237309892
10
-36.999999999999929
20
-79.882945907678703
10
-39.000000000000007
20
-79.882945907678717
42
-0.41421356237308959
10
-42.350000000000023
20
-76.532945907678695
10
-42.349999999999994
20
-12.532945907678648
42
-0.41421356237309209
10
-39.000000000000007
20
-9.182945907678624
10
-37.000000000000014
20
-9.182945907678624
42
0.41421356237309881
10
-34.350000000000009
20
-6.5329459076786609
10
-34.350000000000058
20
5.467054092321332
42
-0.41421356237310025
10
-30.999999999999964
20
8.8170540923213796
0
LWPOLYLINE
5
101
100
AcDbEntity
8
0
100
AcDbPolyline
90
36
70
1
43
0.0
10
24.979130371550703
20
3.3170540923213689
42
-0.38998327874277527
10
22.33834779078245
20
5.7462207589879997
42
0.38998327874277539
10
19
20
8.8170540923213743
10
-30.999999999999964
20
8.8170540923213796
42
0.41421356237310025
10
-34.35000000000003
20
5.467054092321332
10
-34.350000000000016
20
-6.5329459076786609
42
-0.41421356237309837
10
-37.000000000000014
20
-9.182945907678624
10
-39.000000000000007
20
-9.182945907678624
42
0.41421356237309209
10
-42.349999999999987
20
-12.532945907678652
10
-42.350000000000009
20
-76.53294590767868
42
0.41421356237309037
10
-39.000000000000007
20
-79.882945907678675
10
-36.999999999999929
20
-79.882945907678703
42
-0.41421356237309509
10
-34.349999999999937
20
-82.532945907678652
10
-34.349999999999937
20
-94.532945907678666
42
0.41421356237308882
10
-31
20
-97.882945907678689
10
19.02086962844924
20
-97.882945907678703
42
0.38998327874277072
10
22.35921741923179
20
-94.812112574345448
42
-0.38998327874277883
10
24.999999999999943
20
-92.38294590767876
10
45.020869628449248
20
-92.38294590767876
42
-0.3899832787427619
10
47.661652209217465
20
-94.812112574345292
42
0.3899832787427755
10
50.99999999999995
20
-97.882945907678675
10
101.00000000000003
20
-97.882945907678732
42
0.41421356237309509
10
104.35000000000015
20
-94.53294590767868
10
104.35000000000009
20
-82.532945907678709
42
-0.41421356237308521
10
107.00000000000004
20
-79.882945907678689
10
108.99999999999997
20
-79.882945907678703
42
0.41421356237310125
10
112.35000000000005
20
-76.532945907678638
10
112.35000000000001
20
-12.532945907678625
42
0.41421356237309598
10
108.99999999999997
20
-9.1829459076786097
10
107
20
-9.182945907678592
42
-0.41421356237309792
10
104.35000000000008
20
-6.5329459076786121
10
104.35000000000004
20
5.4670540923213897
42
0.41421356237310292
10
100.99999999999993
20
8.8170540923214151
10
50.979130371550674
20
8.8170540923214009
42
0.38998327874277017
10
47.640782580768231
20
5.7462207589879908
42
-0.38998327874277311
10
44.999999999999972
20
3.3170540923213769
0
ENDSEC
0
SECTION
2
OBJECTS
0
DICTIONARY
5
C
100
AcDbDictionary
3
ACAD_GROUP
350
D
3
ACAD_MLINESTYLE
350
17
0
DICTIONARY
5
D
100
AcDbDictionary
0
DICTIONARY
5
1A
330
C
100
AcDbDictionary
0
DICTIONARY
5
17
100
AcDbDictionary
0
ENDSEC
0
EOF
