0
SECTION
2
HEADER
9
$INSUNITS
70
4
9
$ACADVER
1
AC1014
9
$HANDSEED
5
FFFF
0
ENDSEC
0
SECTION
2
TABLES
0
TABLE
2
VPORT
5
8
100
AcDbSymbolTable
0
ENDTAB
0
TABLE
2
LTYPE
5
5
100
AcDbSymbolTable
0
LTYPE
5
14
100
AcDbSymbolTableRecord
100
AcDbLinetypeTableRecord
2
BYBLOCK
70
0
0
LTYPE
5
15
100
AcDbSymbolTableRecord
100
AcDbLinetypeTableRecord
2
BYLAYER
70
0
0
ENDTAB
0
TABLE
2
LAYER
5
2
100
AcDbSymbolTable
70
2
0
LAYER
5
50
100
AcDbSymbolTableRecord
100
AcDbLayerTableRecord
2
0
70
0
6
CONTINUOUS
0
ENDTAB
0
TABLE
2
STYLE
5
3
100
AcDbSymbolTable
70
1
0
STYLE
5
11
100
AcDbSymbolTableRecord
100
AcDbTextStyleTableRecord
2
STANDARD
70
0
0
ENDTAB
0
TABLE
2
VIEW
5
6
100
AcDbSymbolTable
70
0
0
ENDTAB
0
TABLE
2
UCS
5
7
100
AcDbSymbolTable
70
0
0
ENDTAB
0
TABLE
2
APPID
5
9
100
AcDbSymbolTable
70
2
0
APPID
5
12
100
AcDbSymbolTableRecord
100
AcDbRegAppTableRecord
2
ACAD
70
0
0
ENDTAB
0
TABLE
2
DIMSTYLE
5
A
100
AcDbSymbolTable
70
1
0
ENDTAB
0
TABLE
2
BLOCK_RECORD
5
1
100
AcDbSymbolTable
70
1
0
BLOCK_RECORD
5
1F
100
AcDbSymbolTableRecord
100
AcDbBlockTableRecord
2
*MODEL_SPACE
0
BLOCK_RECORD
5
1B
100
AcDbSymbolTableRecord
100
AcDbBlockTableRecord
2
*PAPER_SPACE
0
ENDTAB
0
ENDSEC
0
SECTION
2
BLOCKS
0
BLOCK
5
20
100
AcDbEntity
100
AcDbBlockBegin
2
*MODEL_SPACE
0
ENDBLK
5
21
100
AcDbEntity
100
AcDbBlockEnd
0
BLOCK
5
1C
100
AcDbEntity
100
AcDbBlockBegin
2
*PAPER_SPACE
0
ENDBLK
5
1D
100
AcDbEntity
100
AcDbBlockEnd
0
ENDSEC
0
SECTION
2
ENTITIES
0
CIRCLE
5
100
100
AcDbEntity
8
0
100
AcDbCircle
10
-56.790293399166252
20
-89.023893421169177
30
0
40
2.2499999999999964
210
0
220
-0
230
1
0
CIRCLE
5
101
100
AcDbEntity
8
0
100
AcDbCircle
10
-204.79029339916627
20
-89.023893421169191
30
0
40
2.2499999999999787
210
0
220
-0
230
1
0
CIRCLE
5
102
100
AcDbEntity
8
0
100
AcDbCircle
10
-56.79029339916621
20
-171.02389342116919
30
0
40
2.2499999999999964
210
0
220
-0
230
1
0
CIRCLE
5
103
100
AcDbEntity
8
0
100
AcDbCircle
10
-204.79029339916627
20
-171.02389342116919
30
0
40
2.2500000000000142
210
0
220
-0
230
1
0
LWPOLYLINE
5
104
100
AcDbEntity
8
0
100
AcDbPolyline
90
4
70
1
43
0.0
10
-44.704506961539288
20
-68.523893421169134
10
-44.704506961539252
20
-201.52389342116922
10
-216.87607983679317
20
-201.52389342116919
10
-216.87607983679317
20
-68.523893421169163
0
LWPOLYLINE
5
105
100
AcDbEntity
8
0
100
AcDbPolyline
90
4
70
1
43
0.0
10
-87.790293399163858
20
-268.92378684233853
10
-87.790293399163886
20
-256.92378684233853
42
0.99999999999999989
10
-93.790293399168689
20
-256.92378684233853
10
-93.790293399168533
20
-268.92378684233853
42
0.99999999999999989
0
LWPOLYLINE
5
106
100
AcDbEntity
8
0
100
AcDbPolyline
90
4
70
1
43
0.0
10
-173.79029339916622
20
-256.92378684233859
42
-0.99999999999999989
10
-167.79029339916576
20
-256.92378684233864
10
-167.7902933991659
20
-268.92378684233853
42
-0.99999999999999989
10
-173.79029339916656
20
-268.92378684233853
0
LWPOLYLINE
5
107
100
AcDbEntity
8
0
100
AcDbPolyline
90
4
70
1
43
0.0
10
-173.79029339916639
20
-223.92378684233861
10
-173.7902933991663
20
-235.92378684233859
42
0.99999999999999989
10
-167.79029339916644
20
-235.92378684233864
10
-167.79029339916622
20
-223.92378684233853
42
0.99999999999999989
0
LWPOLYLINE
5
108
100
AcDbEntity
8
0
100
AcDbPolyline
90
4
70
1
43
0.0
10
-120.79029339916627
20
-249.42378684233844
10
-90.790293399166217
20
-249.4237868423387
42
0.99999999999999989
10
-90.790293399166188
20
-243.42378684233847
10
-120.79029339916619
20
-243.42378684233842
42
0.99999999999999989
0
LWPOLYLINE
5
109
100
AcDbEntity
8
0
100
AcDbPolyline
90
4
70
1
43
0.0
10
-140.79029339916627
20
-243.4237868423385
42
-0.99999999999999989
10
-140.79029339916627
20
-249.42378684233844
10
-170.79029339916622
20
-249.42378684233844
42
-0.99999999999999989
10
-170.7902933991663
20
-243.42378684233842
0
LWPOLYLINE
5
110
100
AcDbEntity
8
0
100
AcDbPolyline
90
4
70
1
43
0.0
10
-115.79029339916625
20
-220.92378684233853
10
-145.79029339916627
20
-220.92378684233853
42
0.99999999999999989
10
-145.79029339916627
20
-226.92378684233861
10
-115.79029339916627
20
-226.92378684233861
42
0.99999999999999989
0
LWPOLYLINE
5
111
100
AcDbEntity
8
0
100
AcDbPolyline
90
4
70
1
43
0.0
10
-115.79029339916629
20
-265.92378684233853
42
-0.99999999999999989
10
-115.79029339916625
20
-271.92378684233853
10
-145.7902933991663
20
-271.92378684233853
42
-0.99999999999999989
10
-145.79029339916622
20
-265.92378684233847
0
LWPOLYLINE
5
112
100
AcDbEntity
8
0
100
AcDbPolyline
90
4
70
1
43
0.0
10
-87.790293399166217
20
-235.92378684233864
42
-0.99999999999999989
10
-93.790293399166103
20
-235.92378684233859
10
-93.790293399166302
20
-223.92378684233853
42
-0.99999999999999989
10
-87.79029339916616
20
-223.92378684233861
0
ARC
5
113
100
AcDbEntity
8
0
100
AcDbCircle
10
-196.87494365051549
20
-280.9237868423387
30
2.8937021042054309e-57
40
8.0000000000001688
210
-2.2420775429196931e-44
220
6.4719358889755874e-58
230
1
100
AcDbArc
50
57.164458474316724
51
89.99999999999919
0
LINE
5
114
100
AcDbEntity
8
0
100
AcDbLine
10
-192.53710746266381
20
-274.20194355293012
30
9.7257651016464561e-44
11
-173.25456485315402
21
-286.64563013174705
31
0
0
ARC
5
115
100
AcDbEntity
8
0
100
AcDbCircle
10
-168.91672866530246
20
-279.92378684233853
30
0
40
8.0000000000000533
210
-1.325649845509137e-30
220
8.5548734546225667e-31
230
1
100
AcDbArc
50
237.16445847431714
51
270.00000000000023
0
LINE
5
116
100
AcDbEntity
8
0
100
AcDbLine
10
-168.91672866530243
20
-287.92378684233859
30
6.843898763698136e-30
11
-92.663858133030118
21
-287.92378684233859
31
0
0
ARC
5
117
100
AcDbEntity
8
0
100
AcDbCircle
10
-92.663858133030331
20
-279.92378684233807
30
0
40
8.0000000000005045
210
-8.946414883173754e-44
220
-2.3838037898755333e-57
230
1
100
AcDbArc
50
270.00000000000153
51
302.8355415256832
0
LINE
5
118
100
AcDbEntity
8
0
100
AcDbLine
10
-88.326021945178482
20
-286.64563013174694
30
2.1210397528148205e-29
11
-69.043479335668692
21
-274.20194355293012
31
0
0
ARC
5
119
100
AcDbEntity
8
0
100
AcDbCircle
10
-64.705643147817099
20
-280.9237868423383
30
-5.8460420308550962e-44
40
7.9999999999997939
210
1.3256498455091214e-30
220
8.5548734546228277e-31
230
1
100
AcDbArc
50
90.000000000000099
51
122.83554152568431
0
CIRCLE
5
120
100
AcDbEntity
8
0
100
AcDbCircle
10
-24.283571961539323
20
-249.47624684233858
30
0
40
2.2500000000000142
210
0
220
-0
230
1
0
CIRCLE
5
121
100
AcDbEntity
8
0
100
AcDbCircle
10
-9.2835719615393231
20
-263.47624684233858
30
0
40
2.2500000000000142
210
0
220
-0
230
1
0
LINE
5
122
100
AcDbEntity
8
0
100
AcDbLine
10
2.8761061249556263
20
-272.92378684233859
30
-6.8332078065784544e-40
11
-8.7815848750443593
21
-247.92378684233856
31
0
0
LINE
5
123
100
AcDbEntity
8
0
100
AcDbLine
10
-8.7815848750443593
20
-247.92378684233856
30
0
11
-23.781584875044359
21
-237.92378684233856
31
0
0
LINE
5
124
100
AcDbEntity
8
0
100
AcDbLine
10
-23.781584875044359
20
-237.92378684233856
30
0
11
-37.304506961539339
21
-208.92378684233859
31
0
0
CIRCLE
5
125
100
AcDbEntity
8
0
100
AcDbCircle
10
17.247953221505945
20
-126.24482830428975
30
0
40
2.2499999999999964
210
0
220
-0
230
1
0
CIRCLE
5
126
100
AcDbEntity
8
0
100
AcDbCircle
10
17.247953221505945
20
-143.80295853804859
30
0
40
2.2499999999999964
210
0
220
-0
230
1
0
CIRCLE
5
127
100
AcDbEntity
8
0
100
AcDbCircle
10
-26.45204687001673
20
-81.544828421169186
30
0
40
2.2499999999999964
210
0
220
-0
230
1
0
CIRCLE
5
128
100
AcDbEntity
8
0
100
AcDbCircle
10
-26.452046961539288
20
-188.50295842116921
30
0
40
2.2500000000000142
210
0
220
-0
230
1
0
LINE
5
129
100
AcDbEntity
8
0
100
AcDbLine
10
-37.304506961539339
20
-201.52389342116922
30
0
11
-8.3045069615393174
21
-188.00097133467432
31
0
0
LINE
5
130
100
AcDbEntity
8
0
100
AcDbLine
10
-8.3045069615393174
20
-188.00097133467432
30
0
11
1.695493038460647
21
-173.00097133467432
31
0
0
LINE
5
131
100
AcDbEntity
8
0
100
AcDbLine
10
1.695493038460647
20
-173.00097133467432
30
0
11
26.695493038460647
21
-161.34327996153911
31
0
0
LINE
5
132
100
AcDbEntity
8
0
100
AcDbLine
10
26.695493038460647
20
-161.34327996153911
30
0
11
26.695493038460647
21
-108.70450696153912
31
0
0
LINE
5
133
100
AcDbEntity
8
0
100
AcDbLine
10
26.695493038460647
20
-108.70450696153912
30
0
11
1.695493038460647
21
-97.046815507664107
31
0
0
LINE
5
134
100
AcDbEntity
8
0
100
AcDbLine
10
1.695493038460647
20
-97.046815507664107
30
0
11
-8.3045069615393174
21
-82.046815507664107
31
0
0
LINE
5
135
100
AcDbEntity
8
0
100
AcDbLine
10
-8.3045069615393174
20
-82.046815507664107
30
0
11
-37.304506961539303
21
-68.523893421169163
31
0
0
CIRCLE
5
136
100
AcDbEntity
8
0
100
AcDbCircle
10
-9.2835719615392875
20
-6.5714334211690506
30
0
40
2.2499999999999787
210
0
220
-0
230
1
0
CIRCLE
5
137
100
AcDbEntity
8
0
100
AcDbCircle
10
-24.283571961539288
20
-20.571433421169107
30
0
40
2.2500000000000142
210
0
220
-0
230
1
0
LINE
5
138
100
AcDbEntity
8
0
100
AcDbLine
10
-23.781584875044359
20
-32.123893421169058
30
0
11
-8.7815848750443593
21
-22.12389342116909
31
0
0
LINE
5
139
100
AcDbEntity
8
0
100
AcDbLine
10
-8.7815848750443593
20
-22.12389342116909
30
0
11
2.8761065788305373
21
2.8761065788309814
31
0
0
LINE
5
140
100
AcDbEntity
8
0
100
AcDbLine
10
-37.304506961539339
20
-61.123893421169072
30
0
11
-23.781584875044359
21
-32.123893421169058
31
0
0
CIRCLE
5
141
100
AcDbEntity
8
0
100
AcDbCircle
10
-278.8285400198385
20
-126.24482830428977
30
0
40
2.2499999999999787
210
0
220
-0
230
1
0
CIRCLE
5
142
100
AcDbEntity
8
0
100
AcDbCircle
10
-235.12853983679324
20
-188.50295842116921
30
0
40
2.2500000000000142
210
0
220
-0
230
1
0
CIRCLE
5
143
100
AcDbEntity
8
0
100
AcDbCircle
10
-278.8285400198385
20
-143.80295853804859
30
0
40
2.2499999999999787
210
0
220
-0
230
1
0
CIRCLE
5
144
100
AcDbEntity
8
0
100
AcDbCircle
10
-235.1285399283158
20
-81.544828421169186
30
0
40
2.2500000000000142
210
0
220
-0
230
1
0
LINE
5
145
100
AcDbEntity
8
0
100
AcDbLine
10
-253.2760798367932
20
-188.00097133467432
30
0
11
-224.2760798367932
21
-201.52389342116922
31
0
0
LINE
5
146
100
AcDbEntity
8
0
100
AcDbLine
10
-224.27607983679323
20
-68.523893421169191
30
0
11
-253.2760798367932
21
-82.046815507664093
31
0
0
LINE
5
147
100
AcDbEntity
8
0
100
AcDbLine
10
-253.2760798367932
20
-82.046815507664093
30
0
11
-263.2760798367932
21
-97.046815507664107
31
0
0
LINE
5
148
100
AcDbEntity
8
0
100
AcDbLine
10
-263.2760798367932
20
-97.046815507664107
30
0
11
-288.2760798367932
21
-108.70450696153911
31
0
0
LINE
5
149
100
AcDbEntity
8
0
100
AcDbLine
10
-288.2760798367932
20
-108.70450696153911
30
0
11
-288.2760798367932
21
-161.34327996153905
31
0
0
LINE
5
150
100
AcDbEntity
8
0
100
AcDbLine
10
-288.2760798367932
20
-161.34327996153905
30
0
11
-263.2760798367932
21
-173.00097133467432
31
0
0
LINE
5
151
100
AcDbEntity
8
0
100
AcDbLine
10
-263.2760798367932
20
-173.00097133467432
30
0
11
-253.2760798367932
21
-188.00097133467432
31
0
0
CIRCLE
5
152
100
AcDbEntity
8
0
100
AcDbCircle
10
-252.29701483679321
20
-263.47624684233858
30
0
40
2.2500000000000142
210
0
220
-0
230
1
0
CIRCLE
5
153
100
AcDbEntity
8
0
100
AcDbCircle
10
-237.29701483679321
20
-249.47624684233858
30
0
40
2.2500000000000142
210
0
220
-0
230
1
0
LINE
5
154
100
AcDbEntity
8
0
100
AcDbLine
10
-224.2760798367932
20
-208.92378684233859
30
2.5243548967072378e-28
11
-237.79900192328819
21
-237.92378684233856
31
0
0
LINE
5
155
100
AcDbEntity
8
0
100
AcDbLine
10
-237.79900192328819
20
-237.92378684233856
30
0
11
-252.79900192328819
21
-247.92378684233856
31
0
0
LINE
5
156
100
AcDbEntity
8
0
100
AcDbLine
10
-252.79900192328819
20
-247.92378684233856
30
0
11
-264.45669292328819
21
-272.92378684233859
31
0
0
CIRCLE
5
157
100
AcDbEntity
8
0
100
AcDbCircle
10
-237.29701483679324
20
-20.571433421169093
30
0
40
2.2500000000000142
210
0
220
-0
230
1
0
CIRCLE
5
158
100
AcDbEntity
8
0
100
AcDbCircle
10
-252.29701483679324
20
-6.5714334211690542
30
0
40
2.2499999999999787
210
0
220
-0
230
1
0
LINE
5
159
100
AcDbEntity
8
0
100
AcDbLine
10
-37.304506961539339
20
-208.92378684233859
30
0
11
-44.704506961539288
21
-208.92378684233853
31
0
0
LINE
5
160
100
AcDbEntity
8
0
100
AcDbLine
10
-37.304506961539339
20
-201.52389342116922
30
0
11
-44.704506961539252
21
-201.52389342116922
31
0
0
LINE
5
161
100
AcDbEntity
8
0
100
AcDbLine
10
-44.704506961539288
20
-208.92378684233853
30
0
11
-44.704506961539252
21
-201.52389342116922
31
0
0
LINE
5
162
100
AcDbEntity
8
0
100
AcDbLine
10
-216.87607983679322
20
-208.92378684233853
30
0
11
-224.2760798367932
21
-208.92378684233859
31
2.5243548967072378e-28
0
LINE
5
163
100
AcDbEntity
8
0
100
AcDbLine
10
-216.87607983679322
20
-208.92378684233853
30
0
11
-216.87607983679317
21
-201.52389342116919
31
0
0
LINE
5
164
100
AcDbEntity
8
0
100
AcDbLine
10
-216.87607983679317
20
-201.52389342116919
30
0
11
-224.2760798367932
21
-201.52389342116922
31
0
0
LINE
5
165
100
AcDbEntity
8
0
100
AcDbLine
10
-224.27607983679323
20
-68.523893421169191
30
0
11
-216.87607983679317
21
-68.523893421169163
31
3.1066436854481137e-29
0
LINE
5
166
100
AcDbEntity
8
0
100
AcDbLine
10
-216.87607983679317
20
-68.523893421169163
30
3.1066436854481137e-29
11
-216.87607983679322
21
-61.123893421169143
31
0
0
LINE
5
167
100
AcDbEntity
8
0
100
AcDbLine
10
-216.87607983679322
20
-61.123893421169143
30
0
11
-224.2760798367932
21
-61.123893421169058
31
0
0
LINE
5
168
100
AcDbEntity
8
0
100
AcDbLine
10
-37.304506961539303
20
-68.523893421169163
30
0
11
-44.704506961539288
21
-68.523893421169134
31
0
0
LINE
5
169
100
AcDbEntity
8
0
100
AcDbLine
10
-44.704506961539288
20
-68.523893421169134
30
0
11
-44.704506836793207
21
-61.123893421169093
31
0
0
LINE
5
170
100
AcDbEntity
8
0
100
AcDbLine
10
-37.304506961539339
20
-61.123893421169072
30
0
11
-44.704506836793207
21
-61.123893421169093
31
0
0
CIRCLE
5
171
100
AcDbEntity
8
0
100
AcDbCircle
10
-237.29701483679324
20
-20.571433421169075
30
0
40
2.2500000000000142
210
0
220
-0
230
1
0
CIRCLE
5
172
100
AcDbEntity
8
0
100
AcDbCircle
10
-252.29701483679324
20
-6.5714334211690364
30
0
40
2.2499999999999787
210
0
220
-0
230
1
0
LINE
5
173
100
AcDbEntity
8
0
100
AcDbLine
10
-224.2760798367932
20
-61.123893421169058
30
0
11
-237.79900192328819
21
-32.123893421169036
31
0
0
LINE
5
174
100
AcDbEntity
8
0
100
AcDbLine
10
-237.79900192328819
20
-32.123893421169036
30
0
11
-252.79900192328819
21
-22.123893421169075
31
0
0
LINE
5
175
100
AcDbEntity
8
0
100
AcDbLine
10
-252.79900192328819
20
-22.123893421169075
30
0
11
-264.45669337716305
21
2.8761065788309992
31
0
0
LINE
5
176
100
AcDbEntity
8
0
100
AcDbLine
10
2.8761065788305373
20
2.8761065788309814
30
0
11
-264.45669337716305
21
2.8761065788309992
31
0
0
LINE
5
177
100
AcDbEntity
8
0
100
AcDbLine
10
-44.704506899166248
20
-64.823893421169117
30
0
11
-216.87607983679322
21
-64.82389342116916
31
1.5533218427240568e-29
0
LINE
5
178
100
AcDbEntity
8
0
100
AcDbLine
10
-220.57607983679318
20
-61.123893421169115
30
0
11
-220.57607983679318
21
2.8761065788309965
31
0
0
LINE
5
179
100
AcDbEntity
8
0
100
AcDbLine
10
-41.004506899166273
20
-61.123893421169086
30
0
11
-41.004506899166273
21
2.8761065788309841
31
0
0
LINE
5
180
100
AcDbEntity
8
0
100
AcDbLine
10
2.8761061249556263
20
-272.92378684233859
30
-6.8332078065784544e-40
11
-64.705643147817113
21
-272.92378684233847
31
-6.8438987636981332e-30
0
LINE
5
181
100
AcDbEntity
8
0
100
AcDbLine
10
-196.87494365051538
20
-272.92378684233859
30
-6.8748603405293663e-40
11
-264.45669292328819
21
-272.92378684233859
31
0
0
LINE
5
182
100
AcDbEntity
8
0
100
AcDbLine
10
-220.57607983679318
20
-208.92378684233853
30
1.2621774483536189e-28
11
-220.57607983679318
21
-272.92378684233859
31
1.2621774483536189e-28
0
LINE
5
183
100
AcDbEntity
8
0
100
AcDbLine
10
-41.004506961539313
20
-208.92378684233853
30
0
11
-41.004506961539377
21
-272.92378684233853
31
0
0
LINE
5
184
100
AcDbEntity
8
0
100
AcDbLine
10
-44.704506961539266
20
-205.22384013175389
30
0
11
-216.87607983679322
21
-205.22384013175386
31
0
0
LINE
5
185
100
AcDbEntity
8
0
100
AcDbLine
10
-220.57607983679318
20
-201.52389342116919
30
0
11
-220.57607983679318
21
-68.523893421169163
31
1.5533218427240568e-29
0
LINE
5
186
100
AcDbEntity
8
0
100
AcDbLine
10
-41.004506961539292
20
-201.52389342116922
30
0
11
-41.004506961539292
21
-68.523893421169149
31
0
0
ENDSEC
0
SECTION
2
OBJECTS
0
DICTIONARY
5
C
100
AcDbDictionary
3
ACAD_GROUP
350
D
3
ACAD_MLINESTYLE
350
17
0
DICTIONARY
5
D
100
AcDbDictionary
0
DICTIONARY
5
1A
330
C
100
AcDbDictionary
0
DICTIONARY
5
17
100
AcDbDictionary
0
ENDSEC
0
EOF
