999
dxfrw 0.6.3
  0
SECTION
  2
HEADER
  9
$ACADVER
  1
AC1021
  9
$DWGCODEPAGE
  3
ANSI_1252
  9
$INSBASE
 10
0
 20
0
 30
0
  9
$EXTMIN
 10
2.763341892814196
 20
10.47312985927533
 30
0
  9
$EXTMAX
 10
371.7231670480214
 20
535.4044891115323
 30
0
  9
$LIMMIN
 10
0
 20
0
  9
$LIMMAX
 10
12
 20
9
  9
$ORTHOMODE
 70
    0
  9
$REGENMODE
 70
    1
  9
$FILLMODE
 70
    1
  9
$QTEXTMODE
 70
    0
  9
$MIRRTEXT
 70
    1
  9
$LTSCALE
 40
1
  9
$ATTMODE
 70
    1
  9
$TEXTSIZE
 40
0.2
  9
$TRACEWID
 40
0.05
  9
$TEXTSTYLE
  7
Standard
  9
$CLAYER
  8
0
  9
$CELTYPE
  6
ByLayer
  9
$CECOLOR
 62
  256
  9
$CELTSCALE
 40
1
  9
$DISPSILH
 70
    0
  9
$DIMSCALE
 40
1
  9
$DIMASZ
 40
0.18
  9
$DIMEXO
 40
0.0625
  9
$DIMDLI
 40
0.38
  9
$DIMRND
 40
0
  9
$DIMDLE
 40
0
  9
$DIMEXE
 40
0.18
  9
$DIMTP
 40
0
  9
$DIMTM
 40
0
  9
$DIMTXT
 40
0.18
  9
$DIMCEN
 40
0.09
  9
$DIMTSZ
 40
0
  9
$DIMTOL
 70
    0
  9
$DIMLIM
 70
    0
  9
$DIMTIH
 70
    1
  9
$DIMTOH
 70
    1
  9
$DIMSE1
 70
    0
  9
$DIMSE2
 70
    0
  9
$DIMTAD
 70
    0
  9
$DIMZIN
 70
    0
  9
$DIMBLK
  1

  9
$DIMASO
 70
    1
  9
$DIMSHO
 70
    1
  9
$DIMPOST
  1

  9
$DIMAPOST
  1

  9
$DIMALT
 70
    0
  9
$DIMALTD
 70
    2
  9
$DIMALTF
 40
25.4
  9
$DIMLFAC
 40
1
  9
$DIMTOFL
 70
    0
  9
$DIMTVP
 40
0
  9
$DIMTIX
 70
    0
  9
$DIMSOXD
 70
    0
  9
$DIMSAH
 70
    0
  9
$DIMBLK1
  1

  9
$DIMBLK2
  1

  9
$DIMSTYLE
  2
STANDARD_ACAD
  9
$DIMCLRD
 70
    0
  9
$DIMCLRE
 70
    0
  9
$DIMCLRT
 70
    0
  9
$DIMTFAC
 40
1
  9
$DIMGAP
 40
0.09
  9
$DIMJUST
 70
    0
  9
$DIMSD1
 70
    0
  9
$DIMSD2
 70
    0
  9
$DIMTOLJ
 70
    1
  9
$DIMTZIN
 70
    0
  9
$DIMALTZ
 70
    0
  9
$DIMALTTZ
 70
    0
  9
$DIMUPT
 70
    0
  9
$DIMDEC
 70
    4
  9
$DIMTDEC
 70
    4
  9
$DIMALTU
 70
    2
  9
$DIMALTTD
 70
    2
  9
$DIMTXSTY
  7
Standard
  9
$DIMAUNIT
 70
    0
  9
$DIMADEC
 70
    0
  9
$DIMALTRND
 40
0
  9
$DIMAZIN
 70
    0
  9
$DIMDSEP
 70
   46
  9
$DIMATFIT
 70
    3
  9
$DIMFRAC
 70
    0
  9
$DIMLDRBLK
  1

  9
$DIMLUNIT
 70
    2
  9
$DIMLWD
 70
   -2
  9
$DIMLWE
 70
   -2
  9
$DIMTMOVE
 70
    2
  9
$DIMFXL
 40
1
  9
$DIMFXLON
 70
    0
  9
$DIMJOGANG
 40
0.7854
  9
$DIMTFILL
 70
    0
  9
$DIMTFILLCLR
 70
    0
  9
$DIMARCSYM
 70
    0
  9
$DIMLTYPE
  6

  9
$DIMLTEX1
  6

  9
$DIMLTEX2
  6

  9
$LUNITS
 70
    2
  9
$LUPREC
 70
    3
  9
$SKETCHINC
 40
0.1
  9
$FILLETRAD
 40
0.5
  9
$AUNITS
 70
    0
  9
$AUPREC
 70
    0
  9
$MENU
  1
.
  9
$ELEVATION
 40
0
  9
$PELEVATION
 40
0
  9
$THICKNESS
 40
0
  9
$LIMCHECK
 70
    0
  9
$CHAMFERA
 40
0
  9
$CHAMFERB
 40
0
  9
$CHAMFERC
 40
0
  9
$CHAMFERD
 40
0
  9
$SKPOLY
 70
    0
  9
$USRTIMER
 70
    1
  9
$ANGBASE
 50
0
  9
$ANGDIR
 70
    0
  9
$PDMODE
 70
    0
  9
$PDSIZE
 40
0
  9
$PLINEWID
 40
0
  9
$SPLFRAME
 70
    0
  9
$SPLINETYPE
 70
    6
  9
$SPLINESEGS
 70
    8
  9
$HANDSEED
  5
20000
  9
$SURFTAB1
 70
    6
  9
$SURFTAB2
 70
    6
  9
$SURFTYPE
 70
    6
  9
$SURFU
 70
    6
  9
$SURFV
 70
    6
  9
$UCSBASE
  2

  9
$UCSNAME
  2

  9
$UCSORG
 10
0
 20
0
 30
0
  9
$UCSXDIR
 10
1
 20
0
 30
0
  9
$UCSYDIR
 10
0
 20
1
 30
0
  9
$UCSORTHOREF
  2

  9
$UCSORTHOVIEW
 70
    0
  9
$UCSORGTOP
 10
0
 20
0
 30
0
  9
$UCSORGBOTTOM
 10
0
 20
0
 30
0
  9
$UCSORGLEFT
 10
0
 20
0
 30
0
  9
$UCSORGRIGHT
 10
0
 20
0
 30
0
  9
$UCSORGFRONT
 10
0
 20
0
 30
0
  9
$UCSORGBACK
 10
0
 20
0
 30
0
  9
$PUCSBASE
  2

  9
$PUCSNAME
  2

  9
$PUCSORG
 10
0
 20
0
 30
0
  9
$PUCSXDIR
 10
1
 20
0
 30
0
  9
$PUCSYDIR
 10
0
 20
1
 30
0
  9
$PUCSORTHOREF
  2

  9
$PUCSORTHOVIEW
 70
    0
  9
$PUCSORGTOP
 10
0
 20
0
 30
0
  9
$PUCSORGBOTTOM
 10
0
 20
0
 30
0
  9
$PUCSORGLEFT
 10
0
 20
0
 30
0
  9
$PUCSORGRIGHT
 10
0
 20
0
 30
0
  9
$PUCSORGFRONT
 10
0
 20
0
 30
0
  9
$PUCSORGBACK
 10
0
 20
0
 30
0
  9
$USERI1
 70
    0
  9
$USERI2
 70
    0
  9
$USERI3
 70
    0
  9
$USERI4
 70
    0
  9
$USERI5
 70
    0
  9
$USERR1
 40
0
  9
$USERR2
 40
0
  9
$USERR3
 40
0
  9
$USERR4
 40
0
  9
$USERR5
 40
0
  9
$WORLDVIEW
 70
    1
  9
$SHADEDGE
 70
    3
  9
$SHADEDIF
 70
   70
  9
$TILEMODE
 70
    1
  9
$MAXACTVP
 70
   64
  9
$PINSBASE
 10
0
 20
0
 30
0
  9
$PLIMCHECK
 70
    0
  9
$PEXTMIN
 10
1e+20
 20
1e+20
 30
1e+20
  9
$PEXTMAX
 10
-1e+20
 20
-1e+20
 30
-1e+20
  9
$GRIDMODE
 70
    0
  9
$SNAPSTYLE
 70
    0
  9
$PLIMMIN
 10
0
 20
0
  9
$PLIMMAX
 10
12
 20
9
  9
$UNITMODE
 70
    0
  9
$VISRETAIN
 70
    1
  9
$PLINEGEN
 70
    0
  9
$PSLTSCALE
 70
    1
  9
$TREEDEPTH
 70
 3020
  9
$CMLSTYLE
  2
Standard
  9
$CMLJUST
 70
    0
  9
$CMLSCALE
 40
1
  9
$PROXYGRAPHICS
 70
    1
  9
$MEASUREMENT
 70
    1
  9
$CELWEIGHT
370
   -1
  9
$ENDCAPS
280
    0
  9
$JOINSTYLE
280
    0
  9
$LWDISPLAY
290
    0
  9
$INSUNITS
 70
    4
  9
$HYPERLINKBASE
  1

  9
$STYLESHEET
  1

  9
$XEDIT
290
    1
  9
$CEPSNTYPE
380
    0
  9
$PSTYLEMODE
290
    1
  9
$EXTNAMES
290
    1
  9
$PSVPSCALE
 40
0
  9
$OLESTARTUP
290
    0
  9
$SORTENTS
280
  127
  9
$INDEXCTL
280
    0
  9
$HIDETEXT
280
    1
  9
$XCLIPFRAME
290
    0
  9
$HALOGAP
280
    0
  9
$OBSCOLOR
 70
  257
  9
$OBSLTYPE
280
    0
  9
$INTERSECTIONDISPLAY
280
    0
  9
$INTERSECTIONCOLOR
 70
  257
  9
$DIMASSOC
280
    2
  9
$PROJECTNAME
  1

  9
$CAMERADISPLAY
290
    0
  9
$LENSLENGTH
 40
50
  9
$CAMERAHEIGHT
 40
0
  9
$STEPSPERSEC
 40
2
  9
$STEPSIZE
 40
50
  9
$3DDWFPREC
 40
2
  9
$PSOLWIDTH
 40
5
  9
$PSOLHEIGHT
 40
80
  9
$LOFTANG1
 40
1.570796326794897
  9
$LOFTANG2
 40
1.570796326794897
  9
$LOFTMAG1
 40
0
  9
$LOFTMAG2
 40
0
  9
$LOFTPARAM
 70
    7
  9
$LOFTNORMALS
280
    1
  9
$LATITUDE
 40
1
  9
$LONGITUDE
 40
1
  9
$NORTHDIRECTION
 40
0
  9
$TIMEZONE
 70
-8000
  9
$LIGHTGLYPHDISPLAY
280
    1
  9
$TILEMODELIGHTSYNCH
280
    1
  9
$SOLIDHIST
280
    1
  9
$SHOWHIST
280
    1
  9
$DWFFRAME
280
    2
  9
$DGNFRAME
280
    0
  9
$REALWORLDSCALE
290
    1
  9
$INTERFERECOLOR
 62
    1
  9
$CSHADOW
280
    0
  9
$SHADOWPLANELOCATION
 40
0
  0
ENDSEC
  0
SECTION
  2
CLASSES
  0
ENDSEC
  0
SECTION
  2
TABLES
  0
TABLE
  2
VPORT
  5
8
330
0
100
AcDbSymbolTable
 70
    1
  0
VPORT
  5
31
330
2
100
AcDbSymbolTableRecord
100
AcDbViewportTableRecord
  2
*ACTIVE
 70
    0
 10
0
 20
0
 11
1
 21
1
 12
235.6522482704345
 22
107.6193018317106
 13
0
 23
0
 14
10
 24
10
 15
10
 25
10
 16
0
 26
0
 36
1
 17
0
 27
0
 37
0
 40
297.6094503232995
 41
1.910950661853189
 42
50
 43
0
 44
0
 50
0
 51
0
 71
    0
 72
  100
 73
    1
 74
    3
 75
    0
 76
    0
 77
    0
 78
    0
281
    0
 65
    1
110
0
120
0
130
0
111
1
121
0
131
0
112
0
122
1
132
0
 79
    0
146
0
348
10020
 60
    7
 61
    5
292
1
282
    1
141
0
142
0
 63
  250
421
3358443
  0
ENDTAB
  0
TABLE
  2
LTYPE
  5
5
330
0
100
AcDbSymbolTable
 70
    4
  0
LTYPE
  5
14
330
5
100
AcDbSymbolTableRecord
100
AcDbLinetypeTableRecord
  2
ByBlock
 70
    0
  3

 72
   65
 73
    0
 40
0
  0
LTYPE
  5
15
330
5
100
AcDbSymbolTableRecord
100
AcDbLinetypeTableRecord
  2
ByLayer
 70
    0
  3

 72
   65
 73
    0
 40
0
  0
LTYPE
  5
16
330
5
100
AcDbSymbolTableRecord
100
AcDbLinetypeTableRecord
  2
Continuous
 70
    0
  3
Solid line
 72
   65
 73
    0
 40
0
  0
LTYPE
  5
32
330
5
100
AcDbSymbolTableRecord
100
AcDbLinetypeTableRecord
  2
DOT
 70
    0
  3
Dot . . . . . . . . . . . . . . . . . . . . . .
 72
   65
 73
    2
 40
6.35
 49
0
 74
    0
 49
-6.35
 74
    0
  0
LTYPE
  5
33
330
5
100
AcDbSymbolTableRecord
100
AcDbLinetypeTableRecord
  2
DOTTINY
 70
    0
  3
Dot (.15x) .....................................
 72
   65
 73
    2
 40
0.9525
 49
0
 74
    0
 49
-0.9525
 74
    0
  0
LTYPE
  5
34
330
5
100
AcDbSymbolTableRecord
100
AcDbLinetypeTableRecord
  2
DOT2
 70
    0
  3
Dot (.5x) .....................................
 72
   65
 73
    2
 40
3.175
 49
0
 74
    0
 49
-3.175
 74
    0
  0
LTYPE
  5
35
330
5
100
AcDbSymbolTableRecord
100
AcDbLinetypeTableRecord
  2
DOTX2
 70
    0
  3
Dot (2x) .  .  .  .  .  .  .  .  .  .  .  .  .
 72
   65
 73
    2
 40
12.7
 49
0
 74
    0
 49
-12.7
 74
    0
  0
LTYPE
  5
36
330
5
100
AcDbSymbolTableRecord
100
AcDbLinetypeTableRecord
  2
DASHED
 70
    0
  3
Dashed _ _ _ _ _ _ _ _ _ _ _ _ _ _ _ _ _
 72
   65
 73
    2
 40
19.05
 49
12.7
 74
    0
 49
-6.35
 74
    0
  0
LTYPE
  5
37
330
5
100
AcDbSymbolTableRecord
100
AcDbLinetypeTableRecord
  2
DASHEDTINY
 70
    0
  3
Dashed (.15x) _ _ _ _ _ _ _ _ _ _ _ _ _ _ _ _ _
 72
   65
 73
    2
 40
2.8575
 49
1.905
 74
    0
 49
-0.9525
 74
    0
  0
LTYPE
  5
38
330
5
100
AcDbSymbolTableRecord
100
AcDbLinetypeTableRecord
  2
DASHED2
 70
    0
  3
Dashed (.5x) _ _ _ _ _ _ _ _ _ _ _ _ _ _ _ _ _
 72
   65
 73
    2
 40
9.524999999999999
 49
6.35
 74
    0
 49
-3.175
 74
    0
  0
LTYPE
  5
39
330
5
100
AcDbSymbolTableRecord
100
AcDbLinetypeTableRecord
  2
DASHEDX2
 70
    0
  3
Dashed (2x) ____  ____  ____  ____  ____  ___
 72
   65
 73
    2
 40
38.09999999999999
 49
25.4
 74
    0
 49
-12.7
 74
    0
  0
LTYPE
  5
3A
330
5
100
AcDbSymbolTableRecord
100
AcDbLinetypeTableRecord
  2
DASHDOT
 70
    0
  3
Dash dot __ . __ . __ . __ . __ . __ . __ . __
 72
   65
 73
    4
 40
25.4
 49
12.7
 74
    0
 49
-6.35
 74
    0
 49
0
 74
    0
 49
-6.35
 74
    0
  0
LTYPE
  5
3B
330
5
100
AcDbSymbolTableRecord
100
AcDbLinetypeTableRecord
  2
DASHDOTTINY
 70
    0
  3
Dash dot (.15x) _._._._._._._._._._._._._._._.
 72
   65
 73
    4
 40
3.81
 49
1.905
 74
    0
 49
-0.9525
 74
    0
 49
0
 74
    0
 49
-0.9525
 74
    0
  0
LTYPE
  5
3C
330
5
100
AcDbSymbolTableRecord
100
AcDbLinetypeTableRecord
  2
DASHDOT2
 70
    0
  3
Dash dot (.5x) _._._._._._._._._._._._._._._.
 72
   65
 73
    4
 40
12.7
 49
6.35
 74
    0
 49
-3.175
 74
    0
 49
0
 74
    0
 49
-3.175
 74
    0
  0
LTYPE
  5
3D
330
5
100
AcDbSymbolTableRecord
100
AcDbLinetypeTableRecord
  2
DASHDOTX2
 70
    0
  3
Dash dot (2x) ____  .  ____  .  ____  .  ___
 72
   65
 73
    4
 40
50.8
 49
25.4
 74
    0
 49
-12.7
 74
    0
 49
0
 74
    0
 49
-12.7
 74
    0
  0
LTYPE
  5
3E
330
5
100
AcDbSymbolTableRecord
100
AcDbLinetypeTableRecord
  2
DIVIDE
 70
    0
  3
Divide ____ . . ____ . . ____ . . ____ . . ____
 72
   65
 73
    6
 40
31.75
 49
12.7
 74
    0
 49
-6.35
 74
    0
 49
0
 74
    0
 49
-6.35
 74
    0
 49
0
 74
    0
 49
-6.35
 74
    0
  0
LTYPE
  5
3F
330
5
100
AcDbSymbolTableRecord
100
AcDbLinetypeTableRecord
  2
DIVIDETINY
 70
    0
  3
Divide (.15x) __..__..__..__..__..__..__..__.._
 72
   65
 73
    6
 40
4.7625
 49
1.905
 74
    0
 49
-0.9525
 74
    0
 49
0
 74
    0
 49
-0.9525
 74
    0
 49
0
 74
    0
 49
-0.9525
 74
    0
  0
LTYPE
  5
40
330
5
100
AcDbSymbolTableRecord
100
AcDbLinetypeTableRecord
  2
DIVIDE2
 70
    0
  3
Divide (.5x) __..__..__..__..__..__..__..__.._
 72
   65
 73
    6
 40
15.875
 49
6.35
 74
    0
 49
-3.175
 74
    0
 49
0
 74
    0
 49
-3.175
 74
    0
 49
0
 74
    0
 49
-3.175
 74
    0
  0
LTYPE
  5
41
330
5
100
AcDbSymbolTableRecord
100
AcDbLinetypeTableRecord
  2
DIVIDEX2
 70
    0
  3
Divide (2x) ________  .  .  ________  .  .  _
 72
   65
 73
    6
 40
63.5
 49
25.4
 74
    0
 49
-12.7
 74
    0
 49
0
 74
    0
 49
-12.7
 74
    0
 49
0
 74
    0
 49
-12.7
 74
    0
  0
LTYPE
  5
42
330
5
100
AcDbSymbolTableRecord
100
AcDbLinetypeTableRecord
  2
BORDER
 70
    0
  3
Border __ __ . __ __ . __ __ . __ __ . __ __ .
 72
   65
 73
    6
 40
44.45
 49
12.7
 74
    0
 49
-6.35
 74
    0
 49
12.7
 74
    0
 49
-6.35
 74
    0
 49
0
 74
    0
 49
-6.35
 74
    0
  0
LTYPE
  5
43
330
5
100
AcDbSymbolTableRecord
100
AcDbLinetypeTableRecord
  2
BORDERTINY
 70
    0
  3
Border (.15x) __.__.__.__.__.__.__.__.__.__.__.
 72
   65
 73
    6
 40
6.6675
 49
1.905
 74
    0
 49
-0.9525
 74
    0
 49
1.905
 74
    0
 49
-0.9525
 74
    0
 49
0
 74
    0
 49
-0.9525
 74
    0
  0
LTYPE
  5
44
330
5
100
AcDbSymbolTableRecord
100
AcDbLinetypeTableRecord
  2
BORDER2
 70
    0
  3
Border (.5x) __.__.__.__.__.__.__.__.__.__.__.
 72
   65
 73
    6
 40
22.225
 49
6.35
 74
    0
 49
-3.175
 74
    0
 49
6.35
 74
    0
 49
-3.175
 74
    0
 49
0
 74
    0
 49
-3.175
 74
    0
  0
LTYPE
  5
45
330
5
100
AcDbSymbolTableRecord
100
AcDbLinetypeTableRecord
  2
BORDERX2
 70
    0
  3
Border (2x) ____  ____  .  ____  ____  .  ___
 72
   65
 73
    6
 40
88.89999999999999
 49
25.4
 74
    0
 49
-12.7
 74
    0
 49
25.4
 74
    0
 49
-12.7
 74
    0
 49
0
 74
    0
 49
-12.7
 74
    0
  0
LTYPE
  5
46
330
5
100
AcDbSymbolTableRecord
100
AcDbLinetypeTableRecord
  2
CENTER
 70
    0
  3
Center ____ _ ____ _ ____ _ ____ _ ____ _ ____
 72
   65
 73
    4
 40
50.8
 49
31.75
 74
    0
 49
-6.35
 74
    0
 49
6.35
 74
    0
 49
-6.35
 74
    0
  0
LTYPE
  5
47
330
5
100
AcDbSymbolTableRecord
100
AcDbLinetypeTableRecord
  2
CENTERTINY
 70
    0
  3
Center (.15x) ___ _ ___ _ ___ _ ___ _ ___ _ ___
 72
   65
 73
    4
 40
7.619999999999999
 49
4.7625
 74
    0
 49
-0.9525
 74
    0
 49
0.9525
 74
    0
 49
-0.9525
 74
    0
  0
LTYPE
  5
48
330
5
100
AcDbSymbolTableRecord
100
AcDbLinetypeTableRecord
  2
CENTER2
 70
    0
  3
Center (.5x) ___ _ ___ _ ___ _ ___ _ ___ _ ___
 72
   65
 73
    4
 40
28.575
 49
19.05
 74
    0
 49
-3.175
 74
    0
 49
3.175
 74
    0
 49
-3.175
 74
    0
  0
LTYPE
  5
49
330
5
100
AcDbSymbolTableRecord
100
AcDbLinetypeTableRecord
  2
CENTERX2
 70
    0
  3
Center (2x) ________  __  ________  __  _____
 72
   65
 73
    4
 40
101.6
 49
63.5
 74
    0
 49
-12.7
 74
    0
 49
12.7
 74
    0
 49
-12.7
 74
    0
  0
ENDTAB
  0
TABLE
  2
LAYER
  5
2
330
0
100
AcDbSymbolTable
 70
    1
  0
LAYER
  5
10
330
2
100
AcDbSymbolTableRecord
100
AcDbLayerTableRecord
  2
0
 70
    0
 62
    1
  6
CONTINUOUS
370
   -3
390
F
  0
LAYER
  5
4A
330
2
100
AcDbSymbolTableRecord
100
AcDbLayerTableRecord
  2
PYDXF
 70
    0
 62
    5
  6
CONTINUOUS
370
   -3
390
F
  0
ENDTAB
  0
TABLE
  2
STYLE
  5
3
330
0
100
AcDbSymbolTable
 70
    3
  0
STYLE
  5
4B
330
2
100
AcDbSymbolTableRecord
100
AcDbTextStyleTableRecord
  2
Standard
 70
    0
 40
0
 41
1
 50
0
 71
    0
 42
1
  3
txt
  4

  0
ENDTAB
  0
TABLE
  2
VIEW
  5
6
330
0
100
AcDbSymbolTable
 70
    0
  0
ENDTAB
  0
TABLE
  2
UCS
  5
7
330
0
100
AcDbSymbolTable
 70
    0
  0
ENDTAB
  0
TABLE
  2
APPID
  5
9
330
0
100
AcDbSymbolTable
 70
    1
  0
APPID
  5
12
330
9
100
AcDbSymbolTableRecord
100
AcDbRegAppTableRecord
  2
ACAD
 70
    0
  0
APPID
  5
4C
330
9
100
AcDbSymbolTableRecord
100
AcDbRegAppTableRecord
  2
LibreCad
 70
    0
  0
ENDTAB
  0
TABLE
  2
DIMSTYLE
  5
A
330
0
100
AcDbSymbolTable
 70
    1
100
AcDbDimStyleTable
 71
    1
  0
DIMSTYLE
105
4D
330
A
100
AcDbSymbolTableRecord
100
AcDbDimStyleTableRecord
  2
Standard
 70
    0
 40
1
 41
0.18
 42
0.0625
 43
0.38
 44
0.18
 45
0
 46
0
 47
0
 48
0
 49
1
140
0.18
141
0.09
142
0
143
25.4
144
1
145
0
146
1
147
0.09
148
0
 71
    0
 72
    0
 73
    1
 74
    1
 75
    0
 76
    0
 77
    0
 78
    0
 79
    0
170
    0
171
    2
172
    0
173
    0
174
    0
175
    0
176
    0
177
    0
178
    0
179
    0
271
    4
272
    4
273
    2
274
    2
275
    0
276
    0
277
    2
278
   46
279
    0
280
    0
281
    0
282
    0
283
    1
284
    0
285
    0
286
    0
288
    0
289
    3
340
Standard
341

371
   -2
372
   -2
  0
ENDTAB
  0
TABLE
  2
BLOCK_RECORD
  5
1
330
0
100
AcDbSymbolTable
 70
    2
  0
BLOCK_RECORD
  5
1F
330
1
100
AcDbSymbolTableRecord
100
AcDbBlockTableRecord
  2
*Model_Space
 70
    0
280
    1
281
    0
  0
BLOCK_RECORD
  5
1E
330
1
100
AcDbSymbolTableRecord
100
AcDbBlockTableRecord
  2
*Paper_Space
 70
    0
280
    1
281
    0
  0
ENDTAB
  0
ENDSEC
  0
SECTION
  2
BLOCKS
  0
BLOCK
  5
20
330
1F
100
AcDbEntity
  8
0
100
AcDbBlockBegin
  2
*Model_Space
 70
    0
 10
0
 20
0
 30
0
  3
*Model_Space
  1

  0
ENDBLK
  5
21
330
1F
100
AcDbEntity
  8
0
100
AcDbBlockEnd
  0
BLOCK
  5
1C
330
1B
100
AcDbEntity
  8
0
100
AcDbBlockBegin
  2
*Paper_Space
 70
    0
 10
0
 20
0
 30
0
  3
*Paper_Space
  1

  0
ENDBLK
  5
1D
330
1F
100
AcDbEntity
  8
0
100
AcDbBlockEnd
  0
ENDSEC
  0
SECTION
  2
ENTITIES
  0
LWPOLYLINE
  5
4E
100
AcDbEntity
  8
0
  6
ByBlock
 62
  256
370
   -1
100
AcDbPolyline
 90
    4
 70
    1
 43
0
 10
156.155696074743
 20
79.47555737493246
 10
156.155696074743
 20
83.32118420598715
 10
185.3658477471063
 20
83.32118420598715
 10
185.3658477471063
 20
79.47555737493246
  0
LWPOLYLINE
  5
4F
100
AcDbEntity
  8
0
  6
ByBlock
 62
  256
370
   -1
100
AcDbPolyline
 90
   68
 70
    1
 43
0
 10
215.5509826348016
 20
76.14361767766684
 10
215.4191695854852
 20
76.28903393743246
 10
215.273745696325
 20
76.4208546161434
 10
215.1160995171258
 20
76.53776745794028
 10
214.9477492973992
 20
76.63867383001059
 10
214.770327727575
 20
76.72258191106528
 10
214.5855285332391
 20
76.78871350286215
 10
214.3951369927117
 20
76.83639721868246
 10
214.200991790075
 20
76.8651905536434
 10
214.0049621269891
 20
76.8748341083309
 10
210.0049621269891
 20
76.8748341083309
 10
209.8089248345086
 20
76.8651905536434
 10
209.6147796318719
 20
76.83639721868246
 10
209.4243880913446
 20
76.78871350286215
 10
209.2395888970086
 20
76.72258191106528
 10
209.0621673271844
 20
76.63867383001059
 10
208.8938171074578
 20
76.53776745794028
 10
208.7361709282586
 20
76.4208546161434
 10
208.5907470390985
 20
76.28903393743246
 10
208.4589416191766
 20
76.14361767766684
 10
208.3420211479852
 20
75.98596386907309
 10
208.2411147759149
 20
75.81761364934653
 10
208.1571990654656
 20
75.64019970891684
 10
208.0910751030633
 20
75.4554005145809
 10
208.0433837578485
 20
75.26500134465903
 10
208.0145904228875
 20
75.07086377141684
 10
208.0049621269891
 20
74.8748341083309
 10
208.0049621269891
 20
70.8748341083309
 10
208.0145904228875
 20
70.6787891864559
 10
208.0433837578485
 20
70.48465161321371
 10
208.0910751030633
 20
70.29425244329184
 10
208.1571990654656
 20
70.1094532489559
 10
208.2411147759149
 20
69.93203930852621
 10
208.3420211479852
 20
69.76368908879965
 10
208.4589416191766
 20
69.6060352802059
 10
208.5907470390985
 20
69.46061902044028
 10
208.7361709282586
 20
69.3288136005184
 10
208.8938171074578
 20
69.21188549993246
 10
209.0621673271844
 20
69.11097912786215
 10
209.2395888970086
 20
69.02707104680746
 10
209.4243880913446
 20
68.96093945501059
 10
209.6147796318719
 20
68.91325573919028
 10
209.8089248345086
 20
68.88446240422934
 10
210.0049621269891
 20
68.8748341083309
 10
214.0049621269891
 20
68.8748341083309
 10
214.200991790075
 20
68.88446240422934
 10
214.3951369927117
 20
68.91325573919028
 10
214.5855285332391
 20
68.96093945501059
 10
214.770327727575
 20
69.02707104680746
 10
214.9477492973992
 20
69.11097912786215
 10
215.1160995171258
 20
69.21188549993246
 10
215.273745696325
 20
69.3288136005184
 10
215.4191695854852
 20
69.46061902044028
 10
215.5509826348016
 20
69.6060352802059
 10
215.6678954765985
 20
69.76368908879965
 10
215.7688018486688
 20
69.93203930852621
 10
215.852717559118
 20
70.1094532489559
 10
215.9188415215203
 20
70.29425244329184
 10
215.9665252373406
 20
70.48465161321371
 10
215.9953262016961
 20
70.6787891864559
 10
216.0049621269891
 20
70.8748341083309
 10
216.0049621269891
 20
74.8748341083309
 10
215.9953262016961
 20
75.07086377141684
 10
215.9665252373406
 20
75.26500134465903
 10
215.9188415215203
 20
75.4554005145809
 10
215.852717559118
 20
75.64019970891684
 10
215.7688018486688
 20
75.81761364934653
 10
215.6678954765985
 20
75.98596386907309
  0
LWPOLYLINE
  5
50
100
AcDbEntity
  8
PYDXF
  6
ByBlock
 62
  256
370
   -1
100
AcDbPolyline
 90
  355
 70
    1
 43
0
 10
127.3488952324578
 20
19.81942944524496
 10
130.169612090368
 20
82.56488232610434
 10
130.1792442009637
 20
82.76091198919028
 10
130.2080413506219
 20
82.95506482122153
 10
130.2557326958367
 20
83.14544873235434
 10
130.3218528435418
 20
83.33024792669028
 10
130.405768553991
 20
83.50767712590903
 10
130.5066711113641
 20
83.67601208684653
 10
130.6235915825555
 20
83.83366589544028
 10
130.7553970024774
 20
83.97909741399496
 10
130.9008247063348
 20
84.11090283391684
 10
131.058470885534
 20
84.22783093450278
 10
131.2268172905633
 20
84.32872204778403
 10
131.4042464897821
 20
84.41264538762778
 10
131.5890418694207
 20
84.47876172063559
 10
131.7794295952508
 20
84.5264454364559
 10
131.9735786125848
 20
84.5552540302059
 10
132.169612090368
 20
84.56488232610434
 10
132.4398147270867
 20
84.56488232610434
 10
132.9141799614617
 20
84.57711987493246
 10
133.3857108757684
 20
84.61363415715903
 10
133.8535186455438
 20
84.67416577336996
 10
134.3167182610223
 20
84.75840954778403
 10
134.7744247124383
 20
84.86610608098715
 10
135.2257491753289
 20
84.99695019719809
 10
135.6698066399285
 20
85.15068249700278
 10
136.1057120964715
 20
85.3269825458309
 10
136.5325767204949
 20
85.52562146184653
 10
136.949511687536
 20
85.74626355169028
 10
137.3556319878289
 20
85.98867993352621
 10
137.7500564263055
 20
86.25255017278403
 10
137.7604476616571
 20
86.25956921575278
 10
137.862483184118
 20
86.30137829778403
 10
137.9776870415399
 20
86.3025684833309
 10
138.0871078179071
 20
86.25880627629965
 10
138.1159621880242
 20
86.2373829364559
 10
139.2424880669305
 20
85.2919483661434
 10
139.4483596489617
 20
85.22206311223715
 10
139.6473647759149
 20
85.3096485614559
 10
140.8948928520867
 20
86.5574512958309
 10
140.9824630425164
 20
86.75648694036215
 10
140.9125777886102
 20
86.96238903997153
 10
139.9673263237664
 20
88.08915905950278
 10
139.9278518364617
 20
88.14976696965903
 10
139.9020034477899
 20
88.22825818059653
 10
139.8975936577508
 20
88.29820446965903
 10
139.9105941460321
 20
88.37077527044028
 10
139.9521743462274
 20
88.4551563739559
 10
140.2159949944207
 20
88.84965710637778
 10
140.4583503411004
 20
89.25587658879965
 10
140.6789657280633
 20
89.67289929387778
 10
140.8775512383172
 20
90.09984021184653
 10
141.0538283989617
 20
90.5358448505184
 10
141.2075187370965
 20
90.97999768254965
 10
141.3383361504266
 20
91.43141369817465
 10
141.4460021660516
 20
91.88920788762778
 10
141.5302306816766
 20
92.35251049993246
 10
141.5907432244012
 20
92.82042126653403
 10
141.6272575066278
 20
93.29203991887778
 10
141.6394950554559
 20
93.76649670598715
 10
141.6394950554559
 20
94.0371876239559
 10
141.6491233513543
 20
94.2332325458309
 10
141.6779205010125
 20
94.42738537786215
 10
141.7256080315301
 20
94.6177540302059
 10
141.7917319939324
 20
94.8025684833309
 10
141.8756438896844
 20
94.97999768254965
 10
141.9765464470574
 20
95.14833264348715
 10
142.0934631035516
 20
95.3059864520809
 10
142.2252723381707
 20
95.45140271184653
 10
142.3706962273309
 20
95.5832081317684
 10
142.5283424065301
 20
95.70013623235434
 10
142.6966888115594
 20
95.80104260442465
 10
142.8741141960809
 20
95.88495068547934
 10
143.0589095757196
 20
95.95106701848715
 10
143.2493011162469
 20
95.99876599309653
 10
143.4434463188836
 20
96.02757458684653
 10
143.6394797966668
 20
96.0371876239559
 10
196.7699996636102
 20
96.0371876239559
 10
197.0287963555047
 20
96.0031300067684
 10
197.2699767754266
 20
95.90321545598715
 10
197.4770843193719
 20
95.74431042669028
 10
197.6360046074578
 20
95.53720288274496
 10
197.73590389945
 20
95.29602246282309
 10
197.8199721977899
 20
95.03720288274496
 10
198.7199737236688
 20
92.61931042669028
 10
198.8040496514031
 20
92.36049084661215
 10
198.9039489433953
 20
92.11931042669028
 10
199.0628692314813
 20
91.91220288274496
 10
199.2699767754266
 20
91.75328259465903
 10
199.5111571953485
 20
91.65338330266684
 10
199.7699767754266
 20
91.61931042669028
 10
217.2262298271844
 20
91.61931042669028
 10
217.485041777868
 20
91.65338330266684
 10
217.7262298271844
 20
91.75328259465903
 10
217.9333297417352
 20
91.91220288274496
 10
218.0922500298211
 20
92.11931042669028
 10
218.1921493218133
 20
92.36049084661215
 10
218.2762252495477
 20
92.61931042669028
 10
219.1762267754266
 20
95.03720288274496
 10
219.260302703161
 20
95.29602246282309
 10
219.3602019951531
 20
95.53720288274496
 10
219.5191222832391
 20
95.74431042669028
 10
219.7262298271844
 20
95.90321545598715
 10
219.9674102471063
 20
96.0031300067684
 10
220.2261993096063
 20
96.0371876239559
 10
228.7184325859735
 20
96.0371876239559
 10
228.9144622490594
 20
96.02757458684653
 10
229.1086150810906
 20
95.99876599309653
 10
229.2989989922235
 20
95.95106701848715
 10
229.4837981865594
 20
95.88495068547934
 10
229.6612273857781
 20
95.80104260442465
 10
229.8295623467156
 20
95.70013623235434
 10
229.9872161553094
 20
95.5832081317684
 10
230.1326476738641
 20
95.45140271184653
 10
230.264453093786
 20
95.3059864520809
 10
230.3813659355828
 20
95.14833264348715
 10
230.4822723076531
 20
94.97999768254965
 10
230.5661956474969
 20
94.8025684833309
 10
230.6323119805047
 20
94.6177540302059
 10
230.679995696325
 20
94.42738537786215
 10
230.708804290075
 20
94.2332325458309
 10
230.7184325859735
 20
94.0371876239559
 10
230.7184325859735
 20
93.76649670598715
 10
230.7306548760125
 20
93.29203991887778
 10
230.7671844170281
 20
92.82042126653403
 10
230.827685515661
 20
92.3524952411434
 10
230.911914031286
 20
91.88920788762778
 10
231.019580046911
 20
91.43141369817465
 10
231.1503936455438
 20
90.97998242376059
 10
231.3040954277703
 20
90.53581433294028
 10
231.4803649590203
 20
90.09982495305746
 10
231.6789580986688
 20
89.67286877629965
 10
231.8995696709344
 20
89.25584607122153
 10
232.141909758825
 20
88.84965710637778
 10
232.4057342217156
 20
88.4551563739559
 10
232.436343352575
 20
88.40052990911215
 10
232.457827727575
 20
88.3239307880184
 10
232.4594756767938
 20
88.2539844989559
 10
232.4427520439813
 20
88.17958264348715
 10
232.4069854424188
 20
88.11058239934653
 10
232.3905975029656
 20
88.08915905950278
 10
231.4453460381219
 20
86.96238903997153
 10
231.3754607842156
 20
86.75648694036215
 10
231.4630157158563
 20
86.5574512958309
 10
232.7105437920281
 20
85.3096485614559
 10
232.9095489189813
 20
85.22206311223715
 10
233.1154205010125
 20
85.2919483661434
 10
234.2419463799188
 20
86.2373829364559
 10
234.3327666924188
 20
86.28969006536215
 10
234.4446136162469
 20
86.30742077825278
 10
234.5601836846063
 20
86.28007702825278
 10
234.6078826592156
 20
86.25255017278403
 10
235.0022918389031
 20
85.98866467473715
 10
235.4084197685906
 20
85.74626355169028
 10
235.8253509209344
 20
85.52560620305746
 10
236.2522002861688
 20
85.3269825458309
 10
236.6881133721063
 20
85.15065197942465
 10
237.1321746514031
 20
84.99693493840903
 10
237.5834991142938
 20
84.86609082219809
 10
238.0412017510125
 20
84.75840954778403
 10
238.5043975517938
 20
84.6741505145809
 10
238.9722015068719
 20
84.61363415715903
 10
239.4437286064813
 20
84.5771046161434
 10
240.1883269951531
 20
84.57377820012778
 10
240.3843566582391
 20
84.56328015325278
 10
240.5785094902703
 20
84.53361706731528
 10
240.7688934014031
 20
84.48509411809653
 10
240.95367733695
 20
84.41813855169028
 10
241.1311065361688
 20
84.33342175481528
 10
241.2994567558953
 20
84.2317677020809
 10
241.4570953057
 20
84.11415295598715
 10
241.6025268242547
 20
83.98170666692465
 10
241.7343322441766
 20
83.83568005559653
 10
241.8512450859735
 20
83.67750744817465
 10
241.9521514580438
 20
83.50871472356528
 10
242.0360747978875
 20
83.33091931340903
 10
242.1021911308953
 20
83.1458302020809
 10
242.1498748467156
 20
82.95521740911215
 10
242.1786834404656
 20
82.7609425067684
 10
242.188296477575
 20
82.56486706731528
 10
242.273745696325
 20
80.66432385442465
 10
242.503222625036
 20
75.55946545598715
 10
242.4774657890985
 20
74.95535473821371
 10
242.3466979668328
 20
74.36961560247153
 10
242.1148711846063
 20
73.8200245380184
 10
241.7890197441766
 20
73.32328991887778
 10
241.3790771172235
 20
72.89450268743246
 10
240.8974792168328
 20
72.54667859075278
 10
240.3588439629266
 20
72.29039196965903
 10
239.7795745537469
 20
72.13345532415121
 10
239.1772491142938
 20
72.08059887883871
 10
235.766894500036
 20
72.08059887883871
 10
235.1645538017938
 20
72.02774243352621
 10
234.5852843926141
 20
71.8708057880184
 10
234.0466491387078
 20
71.61451916692465
 10
233.5650512383172
 20
71.26669507024496
 10
233.1551086113641
 20
70.83790783879965
 10
232.8292571709344
 20
70.34117321965903
 10
232.5974303887078
 20
69.7915821552059
 10
232.4666625664422
 20
69.20584301946371
 10
232.4409209892938
 20
68.60173230169028
 10
232.5431243584344
 20
66.32827954290121
 10
232.7229339287469
 20
62.32827954290121
 10
232.76813046195
 20
61.32304577825278
 10
232.848193328161
 20
60.7189503192684
 10
233.0316344902703
 20
60.13321118352621
 10
233.3128844902703
 20
59.58362011907309
 10
233.6833831474969
 20
59.0868702411434
 10
234.131884734411
 20
58.65808300969809
 10
234.6447631523797
 20
58.3102589130184
 10
235.2064239189813
 20
58.05398755071371
 10
235.7998229668328
 20
57.89703564641684
 10
236.4068938896844
 20
57.8441944598934
 10
239.8172485039422
 20
57.8441944598934
 10
240.4243346855828
 20
57.7913380145809
 10
241.0177184746453
 20
57.63438611028403
 10
241.5793792412469
 20
57.37809948919028
 10
242.0922576592156
 20
57.03029065129965
 10
242.5407592461297
 20
56.60148816106528
 10
242.9112579033563
 20
56.10475354192465
 10
243.1925079033563
 20
55.55516247747153
 10
243.3759490654656
 20
54.96942334172934
 10
243.4560119316766
 20
54.36532788274496
 10
243.6328155205438
 20
50.43225293157309
 10
245.0090057060906
 20
19.81944470403403
 10
244.8884612724969
 20
19.82620434758871
 10
244.42633358695
 20
19.80026440618246
 10
243.9819671318719
 20
19.72343640325278
 10
243.5724212334344
 20
19.59868054387778
 10
243.2134734795281
 20
19.43080334661215
 10
242.9188720390985
 20
19.22622876165121
 10
242.6999847099969
 20
18.99283032415121
 10
242.5651733086297
 20
18.7395802020809
 10
242.5196563408563
 20
18.47621350286215
 10
242.5651733086297
 20
18.21283154485445
 10
242.6999847099969
 20
17.95958142278403
 10
242.9188720390985
 20
17.72618298528403
 10
243.2134734795281
 20
17.5216084003232
 10
243.5724212334344
 20
17.3537159442684
 10
243.9819671318719
 20
17.2289600848934
 10
244.42633358695
 20
17.15214734075278
 10
244.8884612724969
 20
17.12620739934653
 10
245.1294738457391
 20
17.1397266864559
 10
245.188296477575
 20
15.83128552434653
 10
245.1738616631219
 20
15.5372334003232
 10
245.1306487724969
 20
15.24601941106528
 10
245.0591155693719
 20
14.96043591497153
 10
244.9599334404656
 20
14.68324475286215
 10
244.8340636894891
 20
14.41710095403403
 10
244.6827117607781
 20
14.16456799504965
 10
244.5073272392938
 20
13.92811779973715
 10
244.309619109411
 20
13.7099628925107
 10
244.0914794609735
 20
13.51225476262778
 10
243.8550140068719
 20
13.3368702411434
 10
243.6024963066766
 20
13.18553357122153
 10
243.3363525078485
 20
13.0596485614559
 10
243.05914608695
 20
12.96046643254965
 10
242.7735625908563
 20
12.88893322942465
 10
242.4823486015985
 20
12.84573559758871
 10
242.188296477575
 20
12.83128552434653
 10
151.3017570183465
 20
12.8313007831357
 10
151.2077209160516
 20
12.84367566106528
 10
151.1200744316766
 20
12.87997632024496
 10
151.0448142693231
 20
12.93773083684653
 10
150.9870635674188
 20
13.01298718450278
 10
150.9507590935418
 20
13.10063366887778
 10
150.9383765862176
 20
13.19468884465903
 10
150.9383765862176
 20
20.55850415227621
 10
150.9383765862176
 20
22.19510083196371
 10
150.9259940788934
 20
22.28915600774496
 10
150.8896896050164
 20
22.37680249211996
 10
150.8319389031121
 20
22.45205883977621
 10
150.7566749260614
 20
22.50981335637778
 10
150.6690322563836
 20
22.54611401555746
 10
150.5749770806024
 20
22.55850415227621
 10
148.7273208306024
 20
22.55850415227621
 10
147.5941611931512
 20
22.55850415227621
 10
141.5731231377313
 20
22.55850415227621
 10
141.47906796195
 20
22.54611401555746
 10
141.3914252922723
 20
22.50981335637778
 10
141.3161613152215
 20
22.45205883977621
 10
141.2584106133172
 20
22.37680249211996
 10
141.2221061394403
 20
22.28915600774496
 10
141.209723632116
 20
22.19510083196371
 10
141.209723632116
 20
20.55850415227621
 10
141.209723632116
 20
20.11570935247153
 10
141.2221061394403
 20
20.02165417669028
 10
141.2584106133172
 20
19.93400769231528
 10
141.3161613152215
 20
19.85875134465903
 10
141.3914252922723
 20
19.80101208684653
 10
141.47906796195
 20
19.76469616887778
 10
141.5731231377313
 20
19.7523212909482
 10
147.230761687536
 20
19.7523212909482
 10
147.3248168633172
 20
19.76469616887778
 10
147.4124633476922
 20
19.80101208684653
 10
147.4877235100457
 20
19.85875134465903
 10
147.54547421195
 20
19.93400769231528
 10
147.581778685827
 20
20.02165417669028
 10
147.5941611931512
 20
20.57631115911215
 10
147.5941611931512
 20
20.6557178973934
 10
147.6065437004754
 20
20.74977307317465
 10
147.6428481743524
 20
20.83741955754965
 10
147.7005988762567
 20
20.9126759052059
 10
147.7758590386102
 20
20.9704151630184
 10
147.8635055229852
 20
21.00673108098715
 10
147.9575606987664
 20
21.0191212177059
 10
148.0176421807
 20
21.0191212177059
 10
148.2013198540399
 20
20.99492077825278
 10
148.3724815056512
 20
20.9240284442684
 10
148.5194579765985
 20
20.8112354755184
 10
148.6322395012567
 20
20.6642628192684
 10
148.7031394646356
 20
20.49310498235445
 10
148.7273208306024
 20
20.30943493840903
 10
148.7273208306024
 20
13.19468884465903
 10
148.7149383232781
 20
13.10063366887778
 10
148.6786300347039
 20
13.01298718450278
 10
148.6208831474969
 20
12.93773083684653
 10
148.5456191704461
 20
12.87997632024496
 10
148.4579726860711
 20
12.84367566106528
 10
148.3639365837762
 20
12.8313007831357
 10
130.1696082756707
 20
12.8313007831357
 10
129.8755561516473
 20
12.84575085637778
 10
129.5843383476922
 20
12.88893322942465
 10
129.2987548515985
 20
12.96046643254965
 10
129.0215598747918
 20
13.0596485614559
 10
128.7554160759637
 20
13.18553357122153
 10
128.5028983757684
 20
13.33688549993246
 10
128.2664291069696
 20
13.51227002141695
 10
128.0482894585321
 20
13.70997815129965
 10
127.850577513952
 20
13.92811779973715
 10
127.6752006218621
 20
14.16458325383871
 10
127.5238448784539
 20
14.41710095403403
 10
127.3979713127801
 20
14.68324475286215
 10
127.2987891838739
 20
14.96043591497153
 10
127.2272521660516
 20
15.24601941106528
 10
127.1840545342156
 20
15.53724865911215
 10
127.1696082756707
 20
15.8313007831357
 10
127.2284309075067
 20
17.13974194524496
 10
127.4696075127313
 20
17.12620739934653
 10
127.9317390129754
 20
17.15214734075278
 10
128.3761092827508
 20
17.2289600848934
 10
128.7856437370965
 20
17.3537159442684
 10
129.1446029350946
 20
17.5216084003232
 10
129.4391929314324
 20
17.72618298528403
 10
129.6580917046258
 20
17.95958142278403
 10
129.7928916619012
 20
18.21283154485445
 10
129.8384086296746
 20
18.47621350286215
 10
129.7928916619012
 20
18.7395802020809
 10
129.6580917046258
 20
18.99283032415121
 10
129.4391929314324
 20
19.22622876165121
 10
129.1446029350946
 20
19.43080334661215
 10
128.7856437370965
 20
19.59868054387778
 10
128.3761092827508
 20
19.72343640325278
 10
127.9317390129754
 20
19.80026440618246
 10
127.4696075127313
 20
19.82620434758871
  0
LWPOLYLINE
  5
51
100
AcDbEntity
  8
0
  6
ByBlock
 62
  256
370
   -1
100
AcDbPolyline
 90
    5
 70
    1
 43
0
 10
192.249446074743
 20
28.55043225286215
 10
156.1557113335321
 20
28.5504169940732
 10
156.1557113335321
 20
29.6632862567684
 10
156.1557113335321
 20
32.39604382512778
 10
192.2494384453485
 20
32.3960743427059
  0
ENDSEC
  0
SECTION
  2
OBJECTS
  0
DICTIONARY
  5
C
330
0
100
AcDbDictionary
281
    1
  3
ACAD_GROUP
350
D
  0
DICTIONARY
  5
D
330
C
100
AcDbDictionary
281
    1
  0
PLOTSETTINGS
  5
52
100
AcDbPlotSettings
  6
1x1
 40
0
 41
0
 42
0
 43
0
  0
ENDSEC
  0
EOF
