0
SECTION
2
HEADER
9
$INSUNITS
70
4
9
$ACADVER
1
AC1014
9
$HANDSEED
5
FFFF
0
ENDSEC
0
SECTION
2
TABLES
0
TABLE
2
VPORT
5
8
100
AcDbSymbolTable
0
ENDTAB
0
TABLE
2
LTYPE
5
5
100
AcDbSymbolTable
0
LTYPE
5
14
100
AcDbSymbolTableRecord
100
AcDbLinetypeTableRecord
2
BYBLOCK
70
0
0
LTYPE
5
15
100
AcDbSymbolTableRecord
100
AcDbLinetypeTableRecord
2
BYLAYER
70
0
0
ENDTAB
0
TABLE
2
LAYER
5
2
100
AcDbSymbolTable
70
2
0
LAYER
5
50
100
AcDbSymbolTableRecord
100
AcDbLayerTableRecord
2
0
70
0
6
CONTINUOUS
0
ENDTAB
0
TABLE
2
STYLE
5
3
100
AcDbSymbolTable
70
1
0
STYLE
5
11
100
AcDbSymbolTableRecord
100
AcDbTextStyleTableRecord
2
STANDARD
70
0
0
ENDTAB
0
TABLE
2
VIEW
5
6
100
AcDbSymbolTable
70
0
0
ENDTAB
0
TABLE
2
UCS
5
7
100
AcDbSymbolTable
70
0
0
ENDTAB
0
TABLE
2
APPID
5
9
100
AcDbSymbolTable
70
2
0
APPID
5
12
100
AcDbSymbolTableRecord
100
AcDbRegAppTableRecord
2
ACAD
70
0
0
ENDTAB
0
TABLE
2
DIMSTYLE
5
A
100
AcDbSymbolTable
70
1
0
ENDTAB
0
TABLE
2
BLOCK_RECORD
5
1
100
AcDbSymbolTable
70
1
0
BLOCK_RECORD
5
1F
100
AcDbSymbolTableRecord
100
AcDbBlockTableRecord
2
*MODEL_SPACE
0
BLOCK_RECORD
5
1B
100
AcDbSymbolTableRecord
100
AcDbBlockTableRecord
2
*PAPER_SPACE
0
ENDTAB
0
ENDSEC
0
SECTION
2
BLOCKS
0
BLOCK
5
20
100
AcDbEntity
100
AcDbBlockBegin
2
*MODEL_SPACE
0
ENDBLK
5
21
100
AcDbEntity
100
AcDbBlockEnd
0
BLOCK
5
1C
100
AcDbEntity
100
AcDbBlockBegin
2
*PAPER_SPACE
0
ENDBLK
5
1D
100
AcDbEntity
100
AcDbBlockEnd
0
ENDSEC
0
SECTION
2
ENTITIES
0
LWPOLYLINE
5
100
100
AcDbEntity
8
0
100
AcDbPolyline
90
14
70
1
43
0.0
10
28.683141663677617
20
-83.474809212438487
42
-0.28207344515128213
10
33.771596778253723
20
-75.172733842181628
42
0.28207344515128141
10
35.683141663677688
20
-72.053950369579326
10
35.683141663677681
20
-20.895668055297499
42
0.2820734451512788
10
33.771596778253752
20
-17.776884582695224
42
-0.2820734451512788
10
28.683141663677695
20
-9.4748092124384407
10
28.683141663677702
20
-4.2916675487607332
42
0.41421356237309542
10
25.183141663677699
20
-0.79166754876072587
10
6.7498682177022937
20
-0.79166754876073386
42
0.41421356237309503
10
3.2498682177022937
20
-4.2916675487607314
10
3.2498682177023017
20
-88.657950876116146
42
0.41421356237309509
10
6.7498682177023017
20
-92.157950876116132
10
25.183141663677617
20
-92.157950876116132
42
0.41421356237309509
10
28.68314166367761
20
-88.657950876116146
0
LWPOLYLINE
5
101
100
AcDbEntity
8
0
100
AcDbPolyline
90
24
70
1
43
0.0
10
-54.799999999999983
20
-9.4748092124384442
10
-54.799999999999997
20
2.5251907875615638
42
-0.41421356237309465
10
-51.999999999999993
20
5.3251907875615601
10
32.000000000000014
20
5.3251907875615672
42
-0.4142135623730952
10
34.800000000000004
20
2.525190787561562
10
34.79999999999999
20
-9.474809212438446
42
0.41421356237309259
10
37.999999999999979
20
-12.674809212438438
10
38.999999999999979
20
-12.674809212438443
42
-0.41421356237309875
10
41.799999999999983
20
-15.474809212438441
10
41.799999999999983
20
-77.47480921243843
42
-0.41421356237309365
10
38.999999999999972
20
-80.27480921243847
10
37.999999999999943
20
-80.274809212438427
42
0.41421356237309948
10
34.799999999999898
20
-83.474809212438444
10
34.799999999999926
20
-95.47480921243843
42
-0.41421356237309781
10
31.99999999999994
20
-98.274809212438441
10
-51.999999999999993
20
-98.274809212438413
42
-0.41421356237309226
10
-54.799999999999997
20
-95.47480921243843
10
-54.799999999999983
20
-83.47480921243843
42
0.41421356237309825
10
-57.999999999999986
20
-80.274809212438427
10
-59.000000000000014
20
-80.274809212438427
42
-0.41421356237309315
10
-61.800000000000004
20
-77.47480921243843
10
-61.800000000000011
20
-15.474809212438441
42
-0.41421356237309337
10
-59.000000000000021
20
-12.674809212438443
10
-57.999999999999986
20
-12.674809212438447
42
0.4142135623730947
0
ENDSEC
0
SECTION
2
OBJECTS
0
DICTIONARY
5
C
100
AcDbDictionary
3
ACAD_GROUP
350
D
3
ACAD_MLINESTYLE
350
17
0
DICTIONARY
5
D
100
AcDbDictionary
0
DICTIONARY
5
1A
330
C
100
AcDbDictionary
0
DICTIONARY
5
17
100
AcDbDictionary
0
ENDSEC
0
EOF
