0
SECTION
2
HEADER
9
$INSUNITS
70
4
9
$ACADVER
1
AC1014
9
$HANDSEED
5
FFFF
0
ENDSEC
0
SECTION
2
TABLES
0
TABLE
2
VPORT
5
8
100
AcDbSymbolTable
0
ENDTAB
0
TABLE
2
LTYPE
5
5
100
AcDbSymbolTable
0
LTYPE
5
14
100
AcDbSymbolTableRecord
100
AcDbLinetypeTableRecord
2
BYBLOCK
70
0
0
LTYPE
5
15
100
AcDbSymbolTableRecord
100
AcDbLinetypeTableRecord
2
BYLAYER
70
0
0
ENDTAB
0
TABLE
2
LAYER
5
2
100
AcDbSymbolTable
70
2
0
LAYER
5
50
100
AcDbSymbolTableRecord
100
AcDbLayerTableRecord
2
0
70
0
6
CONTINUOUS
0
ENDTAB
0
TABLE
2
STYLE
5
3
100
AcDbSymbolTable
70
1
0
STYLE
5
11
100
AcDbSymbolTableRecord
100
AcDbTextStyleTableRecord
2
STANDARD
70
0
0
ENDTAB
0
TABLE
2
VIEW
5
6
100
AcDbSymbolTable
70
0
0
ENDTAB
0
TABLE
2
UCS
5
7
100
AcDbSymbolTable
70
0
0
ENDTAB
0
TABLE
2
APPID
5
9
100
AcDbSymbolTable
70
2
0
APPID
5
12
100
AcDbSymbolTableRecord
100
AcDbRegAppTableRecord
2
ACAD
70
0
0
ENDTAB
0
TABLE
2
DIMSTYLE
5
A
100
AcDbSymbolTable
70
1
0
ENDTAB
0
TABLE
2
BLOCK_RECORD
5
1
100
AcDbSymbolTable
70
1
0
BLOCK_RECORD
5
1F
100
AcDbSymbolTableRecord
100
AcDbBlockTableRecord
2
*MODEL_SPACE
0
BLOCK_RECORD
5
1B
100
AcDbSymbolTableRecord
100
AcDbBlockTableRecord
2
*PAPER_SPACE
0
ENDTAB
0
ENDSEC
0
SECTION
2
BLOCKS
0
BLOCK
5
20
100
AcDbEntity
100
AcDbBlockBegin
2
*MODEL_SPACE
0
ENDBLK
5
21
100
AcDbEntity
100
AcDbBlockEnd
0
BLOCK
5
1C
100
AcDbEntity
100
AcDbBlockBegin
2
*PAPER_SPACE
0
ENDBLK
5
1D
100
AcDbEntity
100
AcDbBlockEnd
0
ENDSEC
0
SECTION
2
ENTITIES
0
CIRCLE
5
100
100
AcDbEntity
8
0
100
AcDbCircle
10
49.247535849256977
20
59.988815728127733
30
0
40
1.999999999999984
210
0
220
-0
230
1
0
CIRCLE
5
101
100
AcDbEntity
8
0
100
AcDbCircle
10
-36.991615788862035
20
-61.216553642966602
30
0
40
1.749999999999998
210
0
220
-0
230
1
0
CIRCLE
5
102
100
AcDbEntity
8
0
100
AcDbCircle
10
-36.991615788862035
20
-41.919678304072114
30
0
40
1.7500000000000027
210
0
220
-0
230
1
0
CIRCLE
5
103
100
AcDbEntity
8
0
100
AcDbCircle
10
43.980437352097574
20
-34.804545509322878
30
0
40
1.749999999999998
210
0
220
-0
230
1
0
CIRCLE
5
104
100
AcDbEntity
8
0
100
AcDbCircle
10
1.4804373520975833
20
-44.804545509322878
30
0
40
1.7500000000000004
210
0
220
-0
230
1
0
CIRCLE
5
105
100
AcDbEntity
8
0
100
AcDbCircle
10
1.4804373520975833
20
-24.804545509322882
30
0
40
1.7500000000000004
210
0
220
-0
230
1
0
CIRCLE
5
106
100
AcDbEntity
8
0
100
AcDbCircle
10
26.480437352097578
20
-44.804545509322878
30
0
40
1.749999999999998
210
0
220
-0
230
1
0
CIRCLE
5
107
100
AcDbEntity
8
0
100
AcDbCircle
10
13.980437352097578
20
-44.804545509322878
30
0
40
1.7500000000000004
210
0
220
-0
230
1
0
CIRCLE
5
108
100
AcDbEntity
8
0
100
AcDbCircle
10
13.980437352097578
20
-24.804545509322882
30
0
40
1.7500000000000004
210
0
220
-0
230
1
0
CIRCLE
5
109
100
AcDbEntity
8
0
100
AcDbCircle
10
26.480437352097578
20
-24.804545509322882
30
0
40
1.749999999999998
210
0
220
-0
230
1
0
CIRCLE
5
110
100
AcDbEntity
8
0
100
AcDbCircle
10
38.63084477545587
20
54.054829905852777
30
0
40
1.5000000000000036
210
0
220
-0
230
1
0
CIRCLE
5
111
100
AcDbEntity
8
0
100
AcDbCircle
10
38.63084477545587
20
22.362696585466409
30
0
40
1.5000000000000036
210
0
220
-0
230
1
0
CIRCLE
5
112
100
AcDbEntity
8
0
100
AcDbCircle
10
-52.948564081625058
20
-15.948564081625051
30
0
40
2.0000000000000018
210
0
220
-0
230
1
0
LWPOLYLINE
5
113
100
AcDbEntity
8
0
100
AcDbPolyline
90
72
70
1
43
0.0
10
-9.5410927399904928
20
81.948564081625051
42
-0.41421356237309537
10
-7.5410927399904981
20
83.948564081625037
10
5.5410927399904697
20
83.948564081625051
42
-0.41421356237309537
10
7.5410927399904626
20
81.948564081625065
10
7.5410927399904644
20
75.948564081625037
42
0.41421356237309509
10
9.5410927399904644
20
73.948564081625037
10
38.541092739990461
20
73.948564081625022
42
0.41421356237309509
10
40.541092739990461
20
75.948564081625022
10
40.541092739990454
20
81.948564081625065
42
-0.41421356237309243
10
42.541092739990461
20
83.948564081625051
10
43.848564081625028
20
83.948564081625037
42
-0.41421356237309243
10
45.848564081625028
20
81.948564081625065
10
45.848564081625028
20
81.749999999999986
42
0.13496971754874457
10
47.380941817802608
20
76.176665821876867
10
45.941659993697719
20
74.737383997772014
42
0.10531490996721711
10
49.737383997771865
20
70.94165999369784
10
51.176665821876746
20
72.380941817802707
42
0.13496971754874529
10
56.749999999999936
20
70.848564081625113
10
56.948564081625072
20
70.848564081625099
42
-0.4142135623730937
10
58.948564081625065
20
68.848564081625113
10
58.948564081625094
20
-68.848564081625071
42
-0.41421356237309109
10
56.948564081625086
20
-70.848564081625071
10
56.749999999999964
20
-70.848564081625071
42
0.13496971754874862
10
51.176665821876739
20
-72.380941817802665
10
49.737383997771857
20
-70.941659993697812
42
0.10531490996721951
10
45.941659993697712
20
-74.737383997772014
10
47.380941817802608
20
-76.176665821876867
42
0.13496971754874709
10
45.848564081625049
20
-81.749999999999986
10
45.848564081625049
20
-81.948564081625079
42
-0.41421356237309509
10
43.848564081625057
20
-83.948564081625079
10
42.541092739990454
20
-83.948564081625079
42
-0.41421356237309509
10
40.541092739990461
20
-81.948564081625079
10
40.541092739990461
20
-75.948564081625037
42
0.41421356237309509
10
38.541092739990461
20
-73.948564081625037
10
9.5410927399904626
20
-73.948564081625022
42
0.41421356237309509
10
7.5410927399904626
20
-75.948564081625022
10
7.5410927399904555
20
-81.948564081625079
42
-0.41421356237309537
10
5.5410927399904608
20
-83.948564081625079
10
-7.5410927399904981
20
-83.948564081625079
42
-0.41421356237309537
10
-9.5410927399904981
20
-81.948564081625079
10
-9.5410927399904981
20
-75.948564081625022
42
0.41421356237309509
10
-11.541092739990496
20
-73.948564081625037
10
-38.541092739990496
20
-73.948564081625022
42
0.41421356237309509
10
-40.541092739990496
20
-75.948564081625022
10
-40.541092739990489
20
-81.948564081625079
42
-0.41421356237309243
10
-42.541092739990496
20
-83.948564081625079
10
-43.848564081625057
20
-83.948564081625079
42
-0.41421356237309509
10
-45.848564081625049
20
-81.948564081625079
10
-45.848564081625049
20
-81.75
42
0.13496971754874568
10
-47.380941817802587
20
-76.176665821876881
10
-45.941659993697698
20
-74.737383997772056
42
0.10531490996721951
10
-49.737383997771843
20
-70.941659993697854
10
-51.176665821876732
20
-72.380941817802707
42
0.13496971754874915
10
-56.749999999999936
20
-70.848564081625085
10
-56.948564081625072
20
-70.848564081625099
42
-0.41421356237308854
10
-58.948564081625065
20
-68.848564081625085
10
-58.948564081625072
20
68.848564081625085
42
-0.41421356237309243
10
-56.948564081625079
20
70.848564081625085
10
-56.749999999999936
20
70.848564081625085
42
0.13496971754874698
10
-51.176665821876739
20
72.380941817802693
10
-49.737383997771857
20
70.94165999369784
42
0.10531490996721758
10
-45.941659993697726
20
74.737383997772
10
-47.380941817802622
20
76.176665821876867
42
0.13496971754874534
10
-45.848564081625049
20
81.749999999999986
10
-45.848564081625042
20
81.948564081625065
42
-0.41421356237309243
10
-43.848564081625049
20
83.948564081625037
10
-42.541092739990496
20
83.948564081625037
42
-0.41421356237309243
10
-40.541092739990496
20
81.948564081625051
10
-40.541092739990496
20
75.948564081625022
42
0.41421356237309509
10
-38.541092739990496
20
73.948564081625022
10
-11.541092739990496
20
73.948564081625022
42
0.41421356237309509
10
-9.5410927399904981
20
75.948564081625022
0
LWPOLYLINE
5
114
100
AcDbEntity
8
0
100
AcDbPolyline
90
8
70
1
43
0.0
10
-16.721139881892167
20
-2.690345155951146
10
-11.721139881892164
20
-2.690345155951146
42
0.41421356237309509
10
-11.221139881892164
20
-2.1903451559511455
10
-11.221139881892165
20
-1.1903451559511471
42
0.41421356237309515
10
-11.721139881892167
20
-0.69034515595114643
10
-16.721139881892167
20
-0.69034515595114687
42
0.41421356237309509
10
-17.221139881892164
20
-1.1903451559511469
10
-17.221139881892167
20
-2.1903451559511455
42
0.41421356237309509
0
LWPOLYLINE
5
115
100
AcDbEntity
8
0
100
AcDbPolyline
90
8
70
1
43
0.0
10
-17.221139881892164
20
-15.190345155951146
10
-17.221139881892164
20
-16.190345155951146
42
0.41421356237309509
10
-16.721139881892167
20
-16.690345155951146
10
-11.721139881892164
20
-16.690345155951146
42
0.41421356237309509
10
-11.221139881892164
20
-16.190345155951146
10
-11.221139881892165
20
-15.190345155951146
42
0.41421356237309509
10
-11.721139881892167
20
-14.690345155951148
10
-16.721139881892167
20
-14.690345155951146
42
0.41421356237309509
0
CIRCLE
5
116
100
AcDbEntity
8
0
100
AcDbCircle
10
-40.837741888266279
20
43.962973514488617
30
0
40
2.1509999999999962
210
0
220
-0
230
1
0
CIRCLE
5
117
100
AcDbEntity
8
0
100
AcDbCircle
10
-20.517741888266343
20
23.68964712103843
30
0
40
2.150999999999994
210
0
220
-0
230
1
0
CIRCLE
5
118
100
AcDbEntity
8
0
100
AcDbCircle
10
-20.517741888266343
20
43.962973514488667
30
0
40
2.150999999999994
210
0
220
-0
230
1
0
CIRCLE
5
119
100
AcDbEntity
8
0
100
AcDbCircle
10
-40.791068281716591
20
23.68964712103843
30
0
40
2.1509999999999962
210
0
220
-0
230
1
0
CIRCLE
5
120
100
AcDbEntity
8
0
100
AcDbCircle
10
-45
20
0
30
0
40
2.0000000000000018
210
0
220
-0
230
1
0
LWPOLYLINE
5
121
100
AcDbEntity
8
0
100
AcDbPolyline
90
8
70
1
43
0.0
10
-15.837696965469181
20
-39.304545509322878
10
38.964540174200984
20
-39.304545509322885
42
0.41421356237309509
10
40.964540174200991
20
-37.304545509322878
10
40.964540174200991
20
-32.304545509322871
42
0.41421356237309509
10
38.964540174200984
20
-30.304545509322871
10
-15.837696965469181
20
-30.304545509322871
42
0.41421356237309509
10
-17.837696965469181
20
-32.304545509322871
10
-17.837696965469181
20
-37.304545509322871
42
0.41421356237309509
0
CIRCLE
5
122
100
AcDbEntity
8
0
100
AcDbCircle
10
-4.0410927399904981
20
-79.257585432302392
30
0
40
1.9999999999999829
210
0
220
-0
230
1
0
LWPOLYLINE
5
123
100
AcDbEntity
8
0
100
AcDbPolyline
90
8
70
1
43
0.0
10
51.497552496717589
20
-51.221746951494183
10
51.497552496717589
20
-56.22174695149419
42
0.41421356237309509
10
51.997552496717589
20
-56.72174695149419
10
52.997552496717589
20
-56.721746951494197
42
0.41421356237309509
10
53.497552496717589
20
-56.221746951494197
10
53.497552496717589
20
-51.22174695149419
42
0.41421356237309509
10
52.997552496717589
20
-50.721746951494197
10
51.997552496717589
20
-50.721746951494183
42
0.41421356237309509
0
LWPOLYLINE
5
124
100
AcDbEntity
8
0
100
AcDbPolyline
90
8
70
1
43
0.0
10
8.7788601181078363
20
-1.1903451559511469
10
8.7788601181078363
20
-2.1903451559511455
42
0.41421356237309509
10
9.2788601181078363
20
-2.690345155951146
10
14.278860118107835
20
-2.6903451559511455
42
0.41421356237309509
10
14.778860118107836
20
-2.1903451559511455
10
14.778860118107835
20
-1.1903451559511471
42
0.41421356237309515
10
14.278860118107835
20
-0.69034515595114643
10
9.2788601181078363
20
-0.69034515595114698
42
0.41421356237309509
0
LWPOLYLINE
5
125
100
AcDbEntity
8
0
100
AcDbPolyline
90
8
70
1
43
0.0
10
8.7788601181078363
20
-15.190345155951146
10
8.7788601181078363
20
-16.190345155951146
42
0.41421356237309509
10
9.2788601181078363
20
-16.690345155951146
10
14.278860118107836
20
-16.690345155951146
42
0.41421356237309509
10
14.778860118107836
20
-16.190345155951146
10
14.778860118107836
20
-15.190345155951146
42
0.41421356237309509
10
14.278860118107836
20
-14.690345155951148
10
9.2788601181078363
20
-14.690345155951146
42
0.41421356237309509
0
LWPOLYLINE
5
126
100
AcDbEntity
8
0
100
AcDbPolyline
90
8
70
1
43
0.0
10
52.997552496717589
20
-15.529441799739308
10
51.997552496717589
20
-15.529441799739308
42
0.41421356237309509
10
51.497552496717589
20
-16.02944179973931
10
51.497552496717589
20
-21.02944179973931
42
0.41421356237309509
10
51.997552496717589
20
-21.52944179973931
10
52.997552496717589
20
-21.529441799739306
42
0.41421356237309509
10
53.497552496717589
20
-21.02944179973931
10
53.497552496717589
20
-16.02944179973931
42
0.41421356237309509
0
LWPOLYLINE
5
127
100
AcDbEntity
8
0
100
AcDbPolyline
90
8
70
1
43
0.0
10
45.164940140557796
20
-56.72174695149419
10
46.027277372653259
20
-56.72174695149419
42
0.41421356237309509
10
46.527277372653259
20
-56.221746951494197
10
46.527277372653259
20
-51.22174695149419
42
0.41421356237309509
10
46.027277372653259
20
-50.721746951494197
10
45.164940140557796
20
-50.721746951494183
42
0.41421356237309509
10
44.664940140557796
20
-51.221746951494183
10
44.664940140557796
20
-56.22174695149419
42
0.41421356237309509
0
LWPOLYLINE
5
128
100
AcDbEntity
8
0
100
AcDbPolyline
90
8
70
1
43
0.0
10
46.527277372653259
20
-21.02944179973931
10
46.527277372653259
20
-16.02944179973931
42
0.41421356237309509
10
46.027277372653259
20
-15.52944179973931
10
45.164940140557796
20
-15.529441799739308
42
0.41421356237309509
10
44.664940140557796
20
-16.02944179973931
10
44.664940140557796
20
-21.02944179973931
42
0.41421356237309509
10
45.164940140557796
20
-21.52944179973931
10
46.027277372653259
20
-21.529441799739306
42
0.41421356237309509
0
CIRCLE
5
129
100
AcDbEntity
8
0
100
AcDbCircle
10
-4.0410927399904812
20
79.257585432302392
30
0
40
1.9999999999999996
210
0
220
-0
230
1
0
CIRCLE
5
130
100
AcDbEntity
8
0
100
AcDbCircle
10
11.280844775454998
20
54.262696585466415
30
0
40
1.4999999999999991
210
0
220
-0
230
1
0
CIRCLE
5
131
100
AcDbEntity
8
0
100
AcDbCircle
10
11.280844775455861
20
22.362696585466402
30
0
40
1.5000000000000013
210
0
220
-0
230
1
0
CIRCLE
5
132
100
AcDbEntity
8
0
100
AcDbCircle
10
45
20
0
30
0
40
2.0000000000000018
210
0
220
-0
230
1
0
CIRCLE
5
133
100
AcDbEntity
8
0
100
AcDbCircle
10
0
20
-69.999999999999986
30
0
40
2.0000000000000018
210
0
220
-0
230
1
0
CIRCLE
5
134
100
AcDbEntity
8
0
100
AcDbCircle
10
-1.7144488953513282e-14
20
69.999999999999986
30
0
40
2.0000000000000018
210
0
220
-0
230
1
0
ENDSEC
0
SECTION
2
OBJECTS
0
DICTIONARY
5
C
100
AcDbDictionary
3
ACAD_GROUP
350
D
3
ACAD_MLINESTYLE
350
17
0
DICTIONARY
5
D
100
AcDbDictionary
0
DICTIONARY
5
1A
330
C
100
AcDbDictionary
0
DICTIONARY
5
17
100
AcDbDictionary
0
ENDSEC
0
EOF
