0
SECTION
2
HEADER
9
$INSUNITS
70
4
9
$ACADVER
1
AC1014
9
$HANDSEED
5
FFFF
0
ENDSEC
0
SECTION
2
TABLES
0
TABLE
2
VPORT
5
8
100
AcDbSymbolTable
0
ENDTAB
0
TABLE
2
LTYPE
5
5
100
AcDbSymbolTable
0
LTYPE
5
14
100
AcDbSymbolTableRecord
100
AcDbLinetypeTableRecord
2
BYBLOCK
70
0
0
LTYPE
5
15
100
AcDbSymbolTableRecord
100
AcDbLinetypeTableRecord
2
BYLAYER
70
0
0
ENDTAB
0
TABLE
2
LAYER
5
2
100
AcDbSymbolTable
70
2
0
LAYER
5
50
100
AcDbSymbolTableRecord
100
AcDbLayerTableRecord
2
0
70
0
6
CONTINUOUS
0
ENDTAB
0
TABLE
2
STYLE
5
3
100
AcDbSymbolTable
70
1
0
STYLE
5
11
100
AcDbSymbolTableRecord
100
AcDbTextStyleTableRecord
2
STANDARD
70
0
0
ENDTAB
0
TABLE
2
VIEW
5
6
100
AcDbSymbolTable
70
0
0
ENDTAB
0
TABLE
2
UCS
5
7
100
AcDbSymbolTable
70
0
0
ENDTAB
0
TABLE
2
APPID
5
9
100
AcDbSymbolTable
70
2
0
APPID
5
12
100
AcDbSymbolTableRecord
100
AcDbRegAppTableRecord
2
ACAD
70
0
0
ENDTAB
0
TABLE
2
DIMSTYLE
5
A
100
AcDbSymbolTable
70
1
0
ENDTAB
0
TABLE
2
BLOCK_RECORD
5
1
100
AcDbSymbolTable
70
1
0
BLOCK_RECORD
5
1F
100
AcDbSymbolTableRecord
100
AcDbBlockTableRecord
2
*MODEL_SPACE
0
BLOCK_RECORD
5
1B
100
AcDbSymbolTableRecord
100
AcDbBlockTableRecord
2
*PAPER_SPACE
0
ENDTAB
0
ENDSEC
0
SECTION
2
BLOCKS
0
BLOCK
5
20
100
AcDbEntity
100
AcDbBlockBegin
2
*MODEL_SPACE
0
ENDBLK
5
21
100
AcDbEntity
100
AcDbBlockEnd
0
BLOCK
5
1C
100
AcDbEntity
100
AcDbBlockBegin
2
*PAPER_SPACE
0
ENDBLK
5
1D
100
AcDbEntity
100
AcDbBlockEnd
0
ENDSEC
0
SECTION
2
ENTITIES
0
CIRCLE
5
100
100
AcDbEntity
8
0
100
AcDbCircle
10
1129.4564632458105
20
72.215512006086101
30
0
40
1.7000000000000171
210
0
220
-0
230
1
0
CIRCLE
5
101
100
AcDbEntity
8
0
100
AcDbCircle
10
1047.4564632458105
20
72.215512006086101
30
0
40
1.7000000000000171
210
0
220
-0
230
1
0
LINE
5
102
100
AcDbEntity
8
0
100
AcDbLine
10
1103.4665994564516
20
98.621638702895055
30
0
11
1103.4728918577027
21
111.96153232416874
31
0
0
ARC
5
103
100
AcDbEntity
8
0
100
AcDbCircle
10
1104.4728917464633
20
111.9610606472864
30
0
40
1.0000000000000382
210
0
220
0
230
1
100
AcDbArc
50
-0.027026303049350973
51
179.97297490436648
0
LINE
5
104
100
AcDbEntity
8
0
100
AcDbLine
10
1105.4728916352137
20
111.96058894933066
30
0
11
1105.4665992339528
21
98.620695306983563
31
0
0
ARC
5
105
100
AcDbEntity
8
0
100
AcDbCircle
10
1104.4665993452022
20
98.621167004939309
30
0
40
1.0000000000000382
210
0
220
0
230
1
100
AcDbArc
50
179.97297369695067
51
359.97297369695065
0
CIRCLE
5
106
100
AcDbEntity
8
0
100
AcDbCircle
10
1062.9843231601826
20
77.73055612844324
30
0
40
1.5882380000000751
210
0
220
-0
230
1
0
CIRCLE
5
107
100
AcDbEntity
8
0
100
AcDbCircle
10
1062.9919665697028
20
122.7305575292899
30
0
40
1.5882380000000751
210
0
220
-0
230
1
0
LINE
5
108
100
AcDbEntity
8
0
100
AcDbLine
10
1103.7895557385937
20
76.811427252772205
30
0
11
1103.7955461599709
21
89.511123397211634
31
0
0
ARC
5
109
100
AcDbEntity
8
0
100
AcDbCircle
10
1104.7955460487115
20
89.510651678182413
30
0
40
1.0000000000000382
210
0
220
0
230
1
100
AcDbArc
50
-0.027026303062836526
51
179.9729724895079
0
LINE
5
110
100
AcDbEntity
8
0
100
AcDbLine
10
1105.7955459374621
20
89.51017998022661
30
0
11
1105.7895555160949
21
76.810483856860586
31
0
0
ARC
5
111
100
AcDbEntity
8
0
100
AcDbCircle
10
1104.7895556273443
20
76.810955554816388
30
0
40
1.0000000000000382
210
0
220
0
230
1
100
AcDbArc
50
179.9729736969372
51
359.97297369693712
0
LWPOLYLINE
5
112
100
AcDbEntity
8
0
100
AcDbPolyline
90
4
70
1
43
0.0
10
1113.6381825689725
20
111.95646123479605
10
1113.6321919925604
20
99.256436413693734
42
0.99999999999999989
10
1115.6321917700616
20
99.255493017782243
10
1115.638182346474
20
111.95551783888455
42
0.99999999999999989
0
LWPOLYLINE
5
113
100
AcDbEntity
8
0
100
AcDbPolyline
90
4
70
1
43
0.0
10
1087.7814430436651
20
71.618858697762775
10
1100.2814416530466
20
71.612962473315861
10
1100.2847435387371
20
78.612961694569478
10
1087.7847449293556
20
78.618857919016406
0
CIRCLE
5
114
100
AcDbEntity
8
0
100
AcDbCircle
10
1115.9919842583779
20
122.75555753207237
30
0
40
1.5882380000000751
210
0
220
-0
230
1
0
LINE
5
115
100
AcDbEntity
8
0
100
AcDbLine
10
1115.8501798081638
20
90.170469781527999
30
0
11
1115.8438873574241
21
76.830471244329658
31
0
0
ARC
5
116
100
AcDbEntity
8
0
100
AcDbCircle
10
1114.8438874686835
20
76.830942963358751
30
0
40
1.0000000000000382
210
0
220
0
230
1
100
AcDbArc
50
179.9729736969372
51
359.97297248953487
0
LINE
5
117
100
AcDbEntity
8
0
100
AcDbLine
10
1113.8438875799329
20
76.831414661314568
30
0
11
1113.8501800306628
21
90.171413177439518
31
0
0
ARC
5
118
100
AcDbEntity
8
0
100
AcDbCircle
10
1114.8501799194132
20
90.170941479483758
30
0
40
1.0000000000000382
210
0
220
0
230
1
100
AcDbArc
50
-0.027026303049350973
51
179.97297369695067
0
LINE
5
119
100
AcDbEntity
8
0
100
AcDbLine
10
1121.4024988608985
20
92.689620278205055
30
0
11
1121.399238867752
21
79.989155606272973
31
0
0
ARC
5
120
100
AcDbEntity
8
0
100
AcDbCircle
10
1120.3992389006951
20
79.989412289246644
30
0
40
0.99999999999998312
210
0
220
0
230
1
100
AcDbArc
50
179.98529314879534
51
359.98529314879534
0
LINE
5
121
100
AcDbEntity
8
0
100
AcDbLine
10
1119.3992389336383
20
79.989668972220315
30
0
11
1119.402498926785
21
92.690133644152439
31
0
0
ARC
5
122
100
AcDbEntity
8
0
100
AcDbCircle
10
1120.4024988938415
20
92.68987696117874
30
0
40
1.0000000000001255
210
0
220
0
230
1
100
AcDbArc
50
-0.014706851204655659
51
179.98529314879534
0
CIRCLE
5
123
100
AcDbEntity
8
0
100
AcDbCircle
10
1131.1860526607645
20
116.51671962412789
30
0
40
1.5999999999999659
210
0
220
-0
230
1
0
LINE
5
124
100
AcDbEntity
8
0
100
AcDbLine
10
1046.9402504202203
20
117.32392564599726
30
0
11
1046.9369905464491
21
104.62392604330113
31
0
0
ARC
5
125
100
AcDbEntity
8
0
100
AcDbCircle
10
1045.9369905793972
20
104.62418274734831
30
0
40
1.0000000000005518
210
0
220
0
230
1
100
AcDbArc
50
179.98529314879534
51
359.9852919413683
0
LINE
5
126
100
AcDbEntity
8
0
100
AcDbLine
10
1044.9369906123397
20
104.62443943032196
30
0
11
1044.9402504861066
21
117.3244390119448
31
0
0
ARC
5
127
100
AcDbEntity
8
0
100
AcDbCircle
10
1045.9402504531633
20
117.32418232897096
30
0
40
1.0000000000001255
210
0
220
0
230
1
100
AcDbArc
50
-0.014706851204655659
51
179.98529314879534
0
CIRCLE
5
128
100
AcDbEntity
8
0
100
AcDbCircle
10
1107.0833754110733
20
64.457481790379759
30
0
40
2.0000000000000284
210
0
220
-0
230
1
0
LINE
5
129
100
AcDbEntity
8
0
100
AcDbLine
10
1093.9121266390557
20
101.22628670258746
30
0
11
1093.914082563321
21
108.84628647263456
31
0
0
ARC
5
130
100
AcDbEntity
8
0
100
AcDbCircle
10
1094.9140825303723
20
108.84602976858744
30
0
40
0.99999999999984113
210
0
220
0
230
1
100
AcDbArc
50
-0.014706851204655659
51
179.98529194136827
0
LINE
5
131
100
AcDbEntity
8
0
100
AcDbLine
10
1095.914082497429
20
108.84577308561374
30
0
11
1095.9121265731696
21
101.22577333664005
31
0
0
ARC
5
132
100
AcDbEntity
8
0
100
AcDbCircle
10
1094.9121266061127
20
101.22603001961375
30
0
40
0.99999999999998312
210
0
220
0
230
1
100
AcDbArc
50
179.98529314879534
51
359.98529314879534
0
CIRCLE
5
133
100
AcDbEntity
8
0
100
AcDbCircle
10
1083.2968725931803
20
80.784592316387815
30
0
40
1.5999999999999659
210
0
220
-0
230
1
0
LINE
5
134
100
AcDbEntity
8
0
100
AcDbLine
10
1055.4410665417836
20
87.012255857023547
30
0
11
1055.4443263089522
21
99.711840150054826
31
0
0
ARC
5
135
100
AcDbEntity
8
0
100
AcDbCircle
10
1056.444326276009
20
99.711583467081113
30
0
40
1.0000000000001255
210
0
220
0
230
1
100
AcDbArc
50
-0.014706851204655659
51
179.98529314879534
0
LINE
5
136
100
AcDbEntity
8
0
100
AcDbLine
10
1057.4443262430659
20
99.711326784107413
30
0
11
1057.4410664758973
21
87.01174249107612
31
0
0
ARC
5
137
100
AcDbEntity
8
0
100
AcDbCircle
10
1056.4410665088403
20
87.011999174049848
30
0
40
0.99999999999998312
210
0
220
0
230
1
100
AcDbArc
50
179.98529314879534
51
359.98529314879534
0
CIRCLE
5
138
100
AcDbEntity
8
0
100
AcDbCircle
10
1045.7268738308524
20
80.794235895710329
30
0
40
1.5999999999999659
210
0
220
-0
230
1
0
LINE
5
139
100
AcDbEntity
8
0
100
AcDbLine
10
1119.434662596205
20
97.599800053310801
30
0
11
1119.4379225714349
21
110.30019492221501
31
0
0
ARC
5
140
100
AcDbEntity
8
0
100
AcDbCircle
10
1120.4379225384919
20
110.29993823924131
30
0
40
0.99999999999984113
210
0
220
0
230
1
100
AcDbArc
50
-0.014706851204655659
51
179.98529314879534
0
LINE
5
141
100
AcDbEntity
8
0
100
AcDbLine
10
1121.4379225055486
20
110.29968155626761
30
0
11
1121.434662530319
21
97.599286687363374
31
0
0
ARC
5
142
100
AcDbEntity
8
0
100
AcDbCircle
10
1120.434662563262
20
97.599543370337074
30
0
40
0.99999999999998312
210
0
220
0
230
1
100
AcDbArc
50
179.98529314879534
51
359.98529314879534
0
CIRCLE
5
143
100
AcDbEntity
8
0
100
AcDbCircle
10
1071.5233754110714
20
36.517481790382774
30
0
40
2.0000000000000284
210
0
220
-0
230
1
0
LINE
5
144
100
AcDbEntity
8
0
100
AcDbLine
10
1131.9588037111441
20
92.687065623112289
30
0
11
1131.955543718529
21
79.986603022906962
31
0
0
ARC
5
145
100
AcDbEntity
8
0
100
AcDbCircle
10
1130.9555437514721
20
79.986859705880676
30
0
40
1.0000000000001255
210
0
220
0
230
1
100
AcDbArc
50
179.98529314879534
51
359.98529314879534
0
LINE
5
146
100
AcDbEntity
8
0
100
AcDbLine
10
1129.9555437844151
20
79.987116388854403
30
0
11
1129.9588037770307
21
92.687578989059773
31
0
0
ARC
5
147
100
AcDbEntity
8
0
100
AcDbCircle
10
1130.9588037440874
20
92.687322306086045
30
0
40
0.99999999999984113
210
0
220
0
230
1
100
AcDbArc
50
-0.014706851204655659
51
179.98529314879534
0
CIRCLE
5
148
100
AcDbEntity
8
0
100
AcDbCircle
10
1093.6160538984363
20
116.52636320345037
30
0
40
1.5999999999999659
210
0
220
-0
230
1
0
LINE
5
149
100
AcDbEntity
8
0
100
AcDbLine
10
1046.9594106454801
20
99.633790633894534
30
0
11
1046.9561506347882
21
86.933257607946047
31
0
0
ARC
5
150
100
AcDbEntity
8
0
100
AcDbCircle
10
1045.9561506677367
20
86.93351431199315
30
0
40
1.0000000000001255
210
0
220
0
230
1
100
AcDbArc
50
179.98529314879534
51
359.9852919413683
0
LINE
5
151
100
AcDbEntity
8
0
100
AcDbLine
10
1044.9561507006795
20
86.933770994966835
30
0
11
1044.9594107113662
21
99.634303999841919
31
0
0
ARC
5
152
100
AcDbEntity
8
0
100
AcDbCircle
10
1045.9594106784232
20
99.634047316868234
30
0
40
0.99999999999998312
210
0
220
0
230
1
100
AcDbArc
50
-0.014706851204655659
51
179.98529314879534
0
CIRCLE
5
153
100
AcDbEntity
8
0
100
AcDbCircle
10
1071.5233754110736
20
64.457481790382687
30
0
40
2.0000000000000284
210
0
220
-0
230
1
0
LINE
5
154
100
AcDbEntity
8
0
100
AcDbLine
10
1083.0007998525612
20
96.084668817250702
30
0
11
1082.9988439283013
21
88.464669068277018
31
0
0
ARC
5
155
100
AcDbEntity
8
0
100
AcDbCircle
10
1081.9988439612443
20
88.464925751250718
30
0
40
0.99999999999984113
210
0
220
0
230
1
100
AcDbArc
50
179.98529314879534
51
359.98529314879534
0
LINE
5
156
100
AcDbEntity
8
0
100
AcDbLine
10
1080.9988439941876
20
88.465182434224431
30
0
11
1081.0007999184472
21
96.0851821831981
31
0
0
ARC
5
157
100
AcDbEntity
8
0
100
AcDbCircle
10
1082.000799885504
20
96.084925500224401
30
0
40
1.0000000000001255
210
0
220
0
230
1
100
AcDbArc
50
-0.014706851204655659
51
179.98529314879534
0
CIRCLE
5
158
100
AcDbEntity
8
0
100
AcDbCircle
10
1093.7569159796308
20
80.92632587377814
30
0
40
1.5999999999999659
210
0
220
-0
230
1
0
LINE
5
159
100
AcDbEntity
8
0
100
AcDbLine
10
1057.4962500724732
20
117.32121610052617
30
0
11
1057.4929901987016
21
104.62121649782999
31
0
0
ARC
5
160
100
AcDbEntity
8
0
100
AcDbCircle
10
1056.4929902316499
20
104.62147320187712
30
0
40
1.0000000000001255
210
0
220
0
230
1
100
AcDbArc
50
179.98529314879534
51
359.9852919413683
0
LINE
5
161
100
AcDbEntity
8
0
100
AcDbLine
10
1055.4929902645929
20
104.62172988485085
30
0
11
1055.4962501383593
21
117.32172946647364
31
0
0
ARC
5
162
100
AcDbEntity
8
0
100
AcDbCircle
10
1056.4962501054165
20
117.32147278349993
30
0
40
0.99999999999984113
210
0
220
0
230
1
100
AcDbArc
50
-0.014706851204655659
51
179.98529314879534
0
CIRCLE
5
163
100
AcDbEntity
8
0
100
AcDbCircle
10
1083.1560105119861
20
116.38462964605993
30
0
40
1.5999999999999659
210
0
220
-0
230
1
0
LWPOLYLINE
5
164
100
AcDbEntity
8
0
100
AcDbPolyline
90
4
70
1
43
0.0
10
1129.9804766669695
20
110.37702887269873
10
1129.9772167932028
20
97.677029291075925
42
0.99999999999999989
10
1131.9772167273165
20
97.676515925128427
10
1131.9804766010827
20
110.37651550675125
42
0.99999999999999989
0
CIRCLE
5
165
100
AcDbEntity
8
0
100
AcDbCircle
10
1107.0833754110711
20
36.51748179037984
30
0
40
2.0000000000000284
210
0
220
-0
230
1
0
CIRCLE
5
166
100
AcDbEntity
8
0
100
AcDbCircle
10
1047.4564632458089
20
125.07274902138107
30
0
40
1.6999999999999993
210
0
220
-0
230
1
0
CIRCLE
5
167
100
AcDbEntity
8
0
100
AcDbCircle
10
1129.4564632458087
20
31.072749021381068
30
0
40
1.7000000000000004
210
0
220
-0
230
1
0
CIRCLE
5
168
100
AcDbEntity
8
0
100
AcDbCircle
10
1047.4564632458089
20
31.072749021381071
30
0
40
1.6999999999999993
210
0
220
-0
230
1
0
CIRCLE
5
169
100
AcDbEntity
8
0
100
AcDbCircle
10
1129.4564632458087
20
125.07274902138107
30
0
40
1.7000000000000004
210
0
220
-0
230
1
0
LWPOLYLINE
5
170
100
AcDbEntity
8
0
100
AcDbPolyline
90
24
70
1
43
0.0
10
1071.8002302207881
20
26.925135637070944
42
-0.19567280004475329
10
1069.7055329272555
20
26.072749021381078
10
1045.4564632458089
20
26.072749021381028
42
-0.41421356237307466
10
1042.4564632458089
20
29.072749021381075
10
1042.4564632458089
20
127.07274902138107
42
-0.41421356237307422
10
1045.4564632458089
20
130.07274902138107
10
1069.7055329272557
20
130.07274902138104
42
-0.19567280004474741
10
1071.8002302207881
20
129.22036240569105
10
1076.1062888310689
20
125.02040286798052
42
0.19567280004475407
10
1078.2009861246015
20
124.16801625229058
10
1098.7119403670163
20
124.16801625229058
42
0.19567280004477361
10
1100.8066376605489
20
125.02040286798071
10
1105.1126962708295
20
129.22036240569105
42
-0.19567280004479215
10
1107.2073935643621
20
130.07274902138107
10
1131.4564632458089
20
130.0727490213811
42
-0.4142135623730604
10
1134.4564632458087
20
127.07274902138107
10
1134.4564632458087
20
29.072749021381075
42
-0.41421356237307466
10
1131.4564632458089
20
26.072749021381071
10
1107.2073935643621
20
26.072749021381018
42
-0.19567280004475168
10
1105.1126962708295
20
26.925135637071094
10
1100.8066376605489
20
31.125095174781499
42
0.19567280004477045
10
1098.7119403670163
20
31.97748179047155
10
1078.2009861246015
20
31.977481790471536
42
0.19567280004475734
10
1076.1062888310689
20
31.125095174781556
0
ENDSEC
0
SECTION
2
OBJECTS
0
DICTIONARY
5
C
100
AcDbDictionary
3
ACAD_GROUP
350
D
3
ACAD_MLINESTYLE
350
17
0
DICTIONARY
5
D
100
AcDbDictionary
0
DICTIONARY
5
1A
330
C
100
AcDbDictionary
0
DICTIONARY
5
17
100
AcDbDictionary
0
ENDSEC
0
EOF
