0
SECTION
2
HEADER
9
$INSUNITS
70
4
9
$ACADVER
1
AC1014
9
$HANDSEED
5
FFFF
0
ENDSEC
0
SECTION
2
TABLES
0
TABLE
2
VPORT
5
8
100
AcDbSymbolTable
0
ENDTAB
0
TABLE
2
LTYPE
5
5
100
AcDbSymbolTable
0
LTYPE
5
14
100
AcDbSymbolTableRecord
100
AcDbLinetypeTableRecord
2
BYBLOCK
70
0
0
LTYPE
5
15
100
AcDbSymbolTableRecord
100
AcDbLinetypeTableRecord
2
BYLAYER
70
0
0
ENDTAB
0
TABLE
2
LAYER
5
2
100
AcDbSymbolTable
70
2
0
LAYER
5
50
100
AcDbSymbolTableRecord
100
AcDbLayerTableRecord
2
0
70
0
6
CONTINUOUS
0
ENDTAB
0
TABLE
2
STYLE
5
3
100
AcDbSymbolTable
70
1
0
STYLE
5
11
100
AcDbSymbolTableRecord
100
AcDbTextStyleTableRecord
2
STANDARD
70
0
0
ENDTAB
0
TABLE
2
VIEW
5
6
100
AcDbSymbolTable
70
0
0
ENDTAB
0
TABLE
2
UCS
5
7
100
AcDbSymbolTable
70
0
0
ENDTAB
0
TABLE
2
APPID
5
9
100
AcDbSymbolTable
70
2
0
APPID
5
12
100
AcDbSymbolTableRecord
100
AcDbRegAppTableRecord
2
ACAD
70
0
0
ENDTAB
0
TABLE
2
DIMSTYLE
5
A
100
AcDbSymbolTable
70
1
0
ENDTAB
0
TABLE
2
BLOCK_RECORD
5
1
100
AcDbSymbolTable
70
1
0
BLOCK_RECORD
5
1F
100
AcDbSymbolTableRecord
100
AcDbBlockTableRecord
2
*MODEL_SPACE
0
BLOCK_RECORD
5
1B
100
AcDbSymbolTableRecord
100
AcDbBlockTableRecord
2
*PAPER_SPACE
0
ENDTAB
0
ENDSEC
0
SECTION
2
BLOCKS
0
BLOCK
5
20
100
AcDbEntity
100
AcDbBlockBegin
2
*MODEL_SPACE
0
ENDBLK
5
21
100
AcDbEntity
100
AcDbBlockEnd
0
BLOCK
5
1C
100
AcDbEntity
100
AcDbBlockBegin
2
*PAPER_SPACE
0
ENDBLK
5
1D
100
AcDbEntity
100
AcDbBlockEnd
0
ENDSEC
0
SECTION
2
ENTITIES
0
CIRCLE
5
100
100
AcDbEntity
8
0
100
AcDbCircle
10
1088.4304506350854
20
38.145085062474003
30
0
40
1.7499999999999716
210
-1.2621774483536228e-29
220
9.5082083399931511e-59
230
1
0
CIRCLE
5
101
100
AcDbEntity
8
0
100
AcDbCircle
10
1088.7563826840801
20
70.357937473673758
30
0
40
1.7499999999999716
210
-1.2621774483536228e-29
220
9.5082083399931511e-59
230
1
0
CIRCLE
5
102
100
AcDbEntity
8
0
100
AcDbCircle
10
1129.4564632458062
20
31.072749021381206
30
8.8817841970012523e-15
40
1.7000000000000171
210
-6.4676679001939146e-47
220
7.9720161788327731e-79
230
1
0
CIRCLE
5
103
100
AcDbEntity
8
0
100
AcDbCircle
10
1047.4564632458062
20
72.215512006086328
30
0
40
1.7000000000000171
210
-6.4676679001939146e-47
220
7.9720161788327731e-79
230
1
0
CIRCLE
5
104
100
AcDbEntity
8
0
100
AcDbCircle
10
1047.4564632458068
20
31.072749021381256
30
0
40
1.7499999999999716
210
-1.2621774483536189e-29
220
1.5557538194426462e-61
230
1
0
CIRCLE
5
105
100
AcDbEntity
8
0
100
AcDbCircle
10
1129.4564632458062
20
72.215512006086328
30
0
40
1.7000000000000171
210
-6.4676679001939146e-47
220
7.9720161788327731e-79
230
1
0
LWPOLYLINE
5
106
100
AcDbEntity
8
0
100
AcDbPolyline
90
24
70
1
43
0.0
10
1134.4564632458059
20
64.077822143506509
42
-0.41421356237302481
10
1132.4564632458059
20
62.077822143506509
10
1120.0501348895273
20
62.077822143506509
42
0.41421356237309509
10
1118.0501348895273
20
60.077822143506509
10
1118.0501348895273
20
49.851176411924286
42
0.41421356237309509
10
1120.0501348895275
20
47.851176411924293
10
1132.4564632458059
20
47.851176411924399
42
-0.41421356237302481
10
1134.4564632458062
20
45.851176411924286
10
1134.4564632458062
20
29.072749021381213
42
-0.41421356237309453
10
1131.4564632458062
20
26.07274902138121
10
1107.2073935643593
20
26.07274902138127
42
-0.19567280004475007
10
1105.1126962708267
20
26.925135637071229
10
1100.8066376605464
20
31.125095174781634
42
0.19567280004474827
10
1098.7119403670138
20
31.977481790471678
10
1078.2009861245988
20
31.977481790471685
42
0.19567280004477478
10
1076.1062888310662
20
31.125095174781752
10
1071.8002302207854
20
26.925135637071197
42
-0.19567280004475515
10
1069.7055329272528
20
26.07274902138122
10
1045.4564632458062
20
26.072749021381245
42
-0.4142135623730942
10
1042.4564632458062
20
29.072749021381206
10
1042.4564632458062
20
73.07038432678398
42
-0.4142135623730942
10
1045.4564632458062
20
76.070384326783966
10
1131.4564632458059
20
76.070384326784151
42
-0.41421356237307339
10
1134.4564632458062
20
73.07038432678398
0
LWPOLYLINE
5
107
100
AcDbEntity
8
0
100
AcDbPolyline
90
8
70
1
43
0.0
10
1099.299184136514
20
49.851176411924286
10
1099.299184136514
20
60.077822143506509
42
0.41421356237309509
10
1097.299184136514
20
62.077822143506516
10
1071.0501348895266
20
62.077822143506509
42
0.41421356237309509
10
1069.0501348895266
20
60.077822143506509
10
1069.0501348895266
20
49.851176411924286
42
0.41421356237309509
10
1071.0501348895266
20
47.851176411924293
10
1097.299184136514
20
47.851176411924286
42
0.41421356237309509
0
ENDSEC
0
SECTION
2
OBJECTS
0
DICTIONARY
5
C
100
AcDbDictionary
3
ACAD_GROUP
350
D
3
ACAD_MLINESTYLE
350
17
0
DICTIONARY
5
D
100
AcDbDictionary
0
DICTIONARY
5
1A
330
C
100
AcDbDictionary
0
DICTIONARY
5
17
100
AcDbDictionary
0
ENDSEC
0
EOF
