999
dxfrw 0.6.3
  0
SECTION
  2
HEADER
  9
$ACADVER
  1
AC1021
  9
$DWGCODEPAGE
  3
ANSI_1252
  9
$INSBASE
 10
0
 20
0
 30
0
  9
$EXTMIN
 10
2.763341892814196
 20
10.47312985927533
 30
0
  9
$EXTMAX
 10
371.7231670480214
 20
535.4044891115323
 30
0
  9
$LIMMIN
 10
0
 20
0
  9
$LIMMAX
 10
12
 20
9
  9
$ORTHOMODE
 70
    0
  9
$REGENMODE
 70
    1
  9
$FILLMODE
 70
    1
  9
$QTEXTMODE
 70
    0
  9
$MIRRTEXT
 70
    1
  9
$LTSCALE
 40
1
  9
$ATTMODE
 70
    1
  9
$TEXTSIZE
 40
0.2
  9
$TRACEWID
 40
0.05
  9
$TEXTSTYLE
  7
Standard
  9
$CLAYER
  8
0
  9
$CELTYPE
  6
ByLayer
  9
$CECOLOR
 62
  256
  9
$CELTSCALE
 40
1
  9
$DISPSILH
 70
    0
  9
$DIMSCALE
 40
1
  9
$DIMASZ
 40
0.18
  9
$DIMEXO
 40
0.0625
  9
$DIMDLI
 40
0.38
  9
$DIMRND
 40
0
  9
$DIMDLE
 40
0
  9
$DIMEXE
 40
0.18
  9
$DIMTP
 40
0
  9
$DIMTM
 40
0
  9
$DIMTXT
 40
0.18
  9
$DIMCEN
 40
0.09
  9
$DIMTSZ
 40
0
  9
$DIMTOL
 70
    0
  9
$DIMLIM
 70
    0
  9
$DIMTIH
 70
    1
  9
$DIMTOH
 70
    1
  9
$DIMSE1
 70
    0
  9
$DIMSE2
 70
    0
  9
$DIMTAD
 70
    0
  9
$DIMZIN
 70
    0
  9
$DIMBLK
  1

  9
$DIMASO
 70
    1
  9
$DIMSHO
 70
    1
  9
$DIMPOST
  1

  9
$DIMAPOST
  1

  9
$DIMALT
 70
    0
  9
$DIMALTD
 70
    2
  9
$DIMALTF
 40
25.4
  9
$DIMLFAC
 40
1
  9
$DIMTOFL
 70
    0
  9
$DIMTVP
 40
0
  9
$DIMTIX
 70
    0
  9
$DIMSOXD
 70
    0
  9
$DIMSAH
 70
    0
  9
$DIMBLK1
  1

  9
$DIMBLK2
  1

  9
$DIMSTYLE
  2
STANDARD_ACAD
  9
$DIMCLRD
 70
    0
  9
$DIMCLRE
 70
    0
  9
$DIMCLRT
 70
    0
  9
$DIMTFAC
 40
1
  9
$DIMGAP
 40
0.09
  9
$DIMJUST
 70
    0
  9
$DIMSD1
 70
    0
  9
$DIMSD2
 70
    0
  9
$DIMTOLJ
 70
    1
  9
$DIMTZIN
 70
    0
  9
$DIMALTZ
 70
    0
  9
$DIMALTTZ
 70
    0
  9
$DIMUPT
 70
    0
  9
$DIMDEC
 70
    4
  9
$DIMTDEC
 70
    4
  9
$DIMALTU
 70
    2
  9
$DIMALTTD
 70
    2
  9
$DIMTXSTY
  7
Standard
  9
$DIMAUNIT
 70
    0
  9
$DIMADEC
 70
    0
  9
$DIMALTRND
 40
0
  9
$DIMAZIN
 70
    0
  9
$DIMDSEP
 70
   46
  9
$DIMATFIT
 70
    3
  9
$DIMFRAC
 70
    0
  9
$DIMLDRBLK
  1

  9
$DIMLUNIT
 70
    2
  9
$DIMLWD
 70
   -2
  9
$DIMLWE
 70
   -2
  9
$DIMTMOVE
 70
    2
  9
$DIMFXL
 40
1
  9
$DIMFXLON
 70
    0
  9
$DIMJOGANG
 40
0.7854
  9
$DIMTFILL
 70
    0
  9
$DIMTFILLCLR
 70
    0
  9
$DIMARCSYM
 70
    0
  9
$DIMLTYPE
  6

  9
$DIMLTEX1
  6

  9
$DIMLTEX2
  6

  9
$LUNITS
 70
    2
  9
$LUPREC
 70
    3
  9
$SKETCHINC
 40
0.1
  9
$FILLETRAD
 40
0.5
  9
$AUNITS
 70
    0
  9
$AUPREC
 70
    0
  9
$MENU
  1
.
  9
$ELEVATION
 40
0
  9
$PELEVATION
 40
0
  9
$THICKNESS
 40
0
  9
$LIMCHECK
 70
    0
  9
$CHAMFERA
 40
0
  9
$CHAMFERB
 40
0
  9
$CHAMFERC
 40
0
  9
$CHAMFERD
 40
0
  9
$SKPOLY
 70
    0
  9
$USRTIMER
 70
    1
  9
$ANGBASE
 50
0
  9
$ANGDIR
 70
    0
  9
$PDMODE
 70
    0
  9
$PDSIZE
 40
0
  9
$PLINEWID
 40
0
  9
$SPLFRAME
 70
    0
  9
$SPLINETYPE
 70
    6
  9
$SPLINESEGS
 70
    8
  9
$HANDSEED
  5
20000
  9
$SURFTAB1
 70
    6
  9
$SURFTAB2
 70
    6
  9
$SURFTYPE
 70
    6
  9
$SURFU
 70
    6
  9
$SURFV
 70
    6
  9
$UCSBASE
  2

  9
$UCSNAME
  2

  9
$UCSORG
 10
0
 20
0
 30
0
  9
$UCSXDIR
 10
1
 20
0
 30
0
  9
$UCSYDIR
 10
0
 20
1
 30
0
  9
$UCSORTHOREF
  2

  9
$UCSORTHOVIEW
 70
    0
  9
$UCSORGTOP
 10
0
 20
0
 30
0
  9
$UCSORGBOTTOM
 10
0
 20
0
 30
0
  9
$UCSORGLEFT
 10
0
 20
0
 30
0
  9
$UCSORGRIGHT
 10
0
 20
0
 30
0
  9
$UCSORGFRONT
 10
0
 20
0
 30
0
  9
$UCSORGBACK
 10
0
 20
0
 30
0
  9
$PUCSBASE
  2

  9
$PUCSNAME
  2

  9
$PUCSORG
 10
0
 20
0
 30
0
  9
$PUCSXDIR
 10
1
 20
0
 30
0
  9
$PUCSYDIR
 10
0
 20
1
 30
0
  9
$PUCSORTHOREF
  2

  9
$PUCSORTHOVIEW
 70
    0
  9
$PUCSORGTOP
 10
0
 20
0
 30
0
  9
$PUCSORGBOTTOM
 10
0
 20
0
 30
0
  9
$PUCSORGLEFT
 10
0
 20
0
 30
0
  9
$PUCSORGRIGHT
 10
0
 20
0
 30
0
  9
$PUCSORGFRONT
 10
0
 20
0
 30
0
  9
$PUCSORGBACK
 10
0
 20
0
 30
0
  9
$USERI1
 70
    0
  9
$USERI2
 70
    0
  9
$USERI3
 70
    0
  9
$USERI4
 70
    0
  9
$USERI5
 70
    0
  9
$USERR1
 40
0
  9
$USERR2
 40
0
  9
$USERR3
 40
0
  9
$USERR4
 40
0
  9
$USERR5
 40
0
  9
$WORLDVIEW
 70
    1
  9
$SHADEDGE
 70
    3
  9
$SHADEDIF
 70
   70
  9
$TILEMODE
 70
    1
  9
$MAXACTVP
 70
   64
  9
$PINSBASE
 10
0
 20
0
 30
0
  9
$PLIMCHECK
 70
    0
  9
$PEXTMIN
 10
1e+20
 20
1e+20
 30
1e+20
  9
$PEXTMAX
 10
-1e+20
 20
-1e+20
 30
-1e+20
  9
$GRIDMODE
 70
    0
  9
$SNAPSTYLE
 70
    0
  9
$PLIMMIN
 10
0
 20
0
  9
$PLIMMAX
 10
12
 20
9
  9
$UNITMODE
 70
    0
  9
$VISRETAIN
 70
    1
  9
$PLINEGEN
 70
    0
  9
$PSLTSCALE
 70
    1
  9
$TREEDEPTH
 70
 3020
  9
$CMLSTYLE
  2
Standard
  9
$CMLJUST
 70
    0
  9
$CMLSCALE
 40
1
  9
$PROXYGRAPHICS
 70
    1
  9
$MEASUREMENT
 70
    1
  9
$CELWEIGHT
370
   -1
  9
$ENDCAPS
280
    0
  9
$JOINSTYLE
280
    0
  9
$LWDISPLAY
290
    0
  9
$INSUNITS
 70
    4
  9
$HYPERLINKBASE
  1

  9
$STYLESHEET
  1

  9
$XEDIT
290
    1
  9
$CEPSNTYPE
380
    0
  9
$PSTYLEMODE
290
    1
  9
$EXTNAMES
290
    1
  9
$PSVPSCALE
 40
0
  9
$OLESTARTUP
290
    0
  9
$SORTENTS
280
  127
  9
$INDEXCTL
280
    0
  9
$HIDETEXT
280
    1
  9
$XCLIPFRAME
290
    0
  9
$HALOGAP
280
    0
  9
$OBSCOLOR
 70
  257
  9
$OBSLTYPE
280
    0
  9
$INTERSECTIONDISPLAY
280
    0
  9
$INTERSECTIONCOLOR
 70
  257
  9
$DIMASSOC
280
    2
  9
$PROJECTNAME
  1

  9
$CAMERADISPLAY
290
    0
  9
$LENSLENGTH
 40
50
  9
$CAMERAHEIGHT
 40
0
  9
$STEPSPERSEC
 40
2
  9
$STEPSIZE
 40
50
  9
$3DDWFPREC
 40
2
  9
$PSOLWIDTH
 40
5
  9
$PSOLHEIGHT
 40
80
  9
$LOFTANG1
 40
1.570796326794897
  9
$LOFTANG2
 40
1.570796326794897
  9
$LOFTMAG1
 40
0
  9
$LOFTMAG2
 40
0
  9
$LOFTPARAM
 70
    7
  9
$LOFTNORMALS
280
    1
  9
$LATITUDE
 40
1
  9
$LONGITUDE
 40
1
  9
$NORTHDIRECTION
 40
0
  9
$TIMEZONE
 70
-8000
  9
$LIGHTGLYPHDISPLAY
280
    1
  9
$TILEMODELIGHTSYNCH
280
    1
  9
$SOLIDHIST
280
    1
  9
$SHOWHIST
280
    1
  9
$DWFFRAME
280
    2
  9
$DGNFRAME
280
    0
  9
$REALWORLDSCALE
290
    1
  9
$INTERFERECOLOR
 62
    1
  9
$CSHADOW
280
    0
  9
$SHADOWPLANELOCATION
 40
0
  0
ENDSEC
  0
SECTION
  2
CLASSES
  0
ENDSEC
  0
SECTION
  2
TABLES
  0
TABLE
  2
VPORT
  5
8
330
0
100
AcDbSymbolTable
 70
    1
  0
VPORT
  5
31
330
2
100
AcDbSymbolTableRecord
100
AcDbViewportTableRecord
  2
*ACTIVE
 70
    0
 10
0
 20
0
 11
1
 21
1
 12
304.3536468470875
 22
213.0774794052373
 13
0
 23
0
 14
10
 24
10
 15
10
 25
10
 16
0
 26
0
 36
1
 17
0
 27
0
 37
0
 40
497.3802960273938
 41
1.910950661853189
 42
50
 43
0
 44
0
 50
0
 51
0
 71
    0
 72
  100
 73
    1
 74
    3
 75
    0
 76
    0
 77
    0
 78
    0
281
    0
 65
    1
110
0
120
0
130
0
111
1
121
0
131
0
112
0
122
1
132
0
 79
    0
146
0
348
10020
 60
    7
 61
    5
292
1
282
    1
141
0
142
0
 63
  250
421
3358443
  0
ENDTAB
  0
TABLE
  2
LTYPE
  5
5
330
0
100
AcDbSymbolTable
 70
    4
  0
LTYPE
  5
14
330
5
100
AcDbSymbolTableRecord
100
AcDbLinetypeTableRecord
  2
ByBlock
 70
    0
  3

 72
   65
 73
    0
 40
0
  0
LTYPE
  5
15
330
5
100
AcDbSymbolTableRecord
100
AcDbLinetypeTableRecord
  2
ByLayer
 70
    0
  3

 72
   65
 73
    0
 40
0
  0
LTYPE
  5
16
330
5
100
AcDbSymbolTableRecord
100
AcDbLinetypeTableRecord
  2
Continuous
 70
    0
  3
Solid line
 72
   65
 73
    0
 40
0
  0
LTYPE
  5
32
330
5
100
AcDbSymbolTableRecord
100
AcDbLinetypeTableRecord
  2
DOT
 70
    0
  3
Dot . . . . . . . . . . . . . . . . . . . . . .
 72
   65
 73
    2
 40
6.35
 49
0
 74
    0
 49
-6.35
 74
    0
  0
LTYPE
  5
33
330
5
100
AcDbSymbolTableRecord
100
AcDbLinetypeTableRecord
  2
DOTTINY
 70
    0
  3
Dot (.15x) .....................................
 72
   65
 73
    2
 40
0.9525
 49
0
 74
    0
 49
-0.9525
 74
    0
  0
LTYPE
  5
34
330
5
100
AcDbSymbolTableRecord
100
AcDbLinetypeTableRecord
  2
DOT2
 70
    0
  3
Dot (.5x) .....................................
 72
   65
 73
    2
 40
3.175
 49
0
 74
    0
 49
-3.175
 74
    0
  0
LTYPE
  5
35
330
5
100
AcDbSymbolTableRecord
100
AcDbLinetypeTableRecord
  2
DOTX2
 70
    0
  3
Dot (2x) .  .  .  .  .  .  .  .  .  .  .  .  .
 72
   65
 73
    2
 40
12.7
 49
0
 74
    0
 49
-12.7
 74
    0
  0
LTYPE
  5
36
330
5
100
AcDbSymbolTableRecord
100
AcDbLinetypeTableRecord
  2
DASHED
 70
    0
  3
Dashed _ _ _ _ _ _ _ _ _ _ _ _ _ _ _ _ _
 72
   65
 73
    2
 40
19.05
 49
12.7
 74
    0
 49
-6.35
 74
    0
  0
LTYPE
  5
37
330
5
100
AcDbSymbolTableRecord
100
AcDbLinetypeTableRecord
  2
DASHEDTINY
 70
    0
  3
Dashed (.15x) _ _ _ _ _ _ _ _ _ _ _ _ _ _ _ _ _
 72
   65
 73
    2
 40
2.8575
 49
1.905
 74
    0
 49
-0.9525
 74
    0
  0
LTYPE
  5
38
330
5
100
AcDbSymbolTableRecord
100
AcDbLinetypeTableRecord
  2
DASHED2
 70
    0
  3
Dashed (.5x) _ _ _ _ _ _ _ _ _ _ _ _ _ _ _ _ _
 72
   65
 73
    2
 40
9.524999999999999
 49
6.35
 74
    0
 49
-3.175
 74
    0
  0
LTYPE
  5
39
330
5
100
AcDbSymbolTableRecord
100
AcDbLinetypeTableRecord
  2
DASHEDX2
 70
    0
  3
Dashed (2x) ____  ____  ____  ____  ____  ___
 72
   65
 73
    2
 40
38.09999999999999
 49
25.4
 74
    0
 49
-12.7
 74
    0
  0
LTYPE
  5
3A
330
5
100
AcDbSymbolTableRecord
100
AcDbLinetypeTableRecord
  2
DASHDOT
 70
    0
  3
Dash dot __ . __ . __ . __ . __ . __ . __ . __
 72
   65
 73
    4
 40
25.4
 49
12.7
 74
    0
 49
-6.35
 74
    0
 49
0
 74
    0
 49
-6.35
 74
    0
  0
LTYPE
  5
3B
330
5
100
AcDbSymbolTableRecord
100
AcDbLinetypeTableRecord
  2
DASHDOTTINY
 70
    0
  3
Dash dot (.15x) _._._._._._._._._._._._._._._.
 72
   65
 73
    4
 40
3.81
 49
1.905
 74
    0
 49
-0.9525
 74
    0
 49
0
 74
    0
 49
-0.9525
 74
    0
  0
LTYPE
  5
3C
330
5
100
AcDbSymbolTableRecord
100
AcDbLinetypeTableRecord
  2
DASHDOT2
 70
    0
  3
Dash dot (.5x) _._._._._._._._._._._._._._._.
 72
   65
 73
    4
 40
12.7
 49
6.35
 74
    0
 49
-3.175
 74
    0
 49
0
 74
    0
 49
-3.175
 74
    0
  0
LTYPE
  5
3D
330
5
100
AcDbSymbolTableRecord
100
AcDbLinetypeTableRecord
  2
DASHDOTX2
 70
    0
  3
Dash dot (2x) ____  .  ____  .  ____  .  ___
 72
   65
 73
    4
 40
50.8
 49
25.4
 74
    0
 49
-12.7
 74
    0
 49
0
 74
    0
 49
-12.7
 74
    0
  0
LTYPE
  5
3E
330
5
100
AcDbSymbolTableRecord
100
AcDbLinetypeTableRecord
  2
DIVIDE
 70
    0
  3
Divide ____ . . ____ . . ____ . . ____ . . ____
 72
   65
 73
    6
 40
31.75
 49
12.7
 74
    0
 49
-6.35
 74
    0
 49
0
 74
    0
 49
-6.35
 74
    0
 49
0
 74
    0
 49
-6.35
 74
    0
  0
LTYPE
  5
3F
330
5
100
AcDbSymbolTableRecord
100
AcDbLinetypeTableRecord
  2
DIVIDETINY
 70
    0
  3
Divide (.15x) __..__..__..__..__..__..__..__.._
 72
   65
 73
    6
 40
4.7625
 49
1.905
 74
    0
 49
-0.9525
 74
    0
 49
0
 74
    0
 49
-0.9525
 74
    0
 49
0
 74
    0
 49
-0.9525
 74
    0
  0
LTYPE
  5
40
330
5
100
AcDbSymbolTableRecord
100
AcDbLinetypeTableRecord
  2
DIVIDE2
 70
    0
  3
Divide (.5x) __..__..__..__..__..__..__..__.._
 72
   65
 73
    6
 40
15.875
 49
6.35
 74
    0
 49
-3.175
 74
    0
 49
0
 74
    0
 49
-3.175
 74
    0
 49
0
 74
    0
 49
-3.175
 74
    0
  0
LTYPE
  5
41
330
5
100
AcDbSymbolTableRecord
100
AcDbLinetypeTableRecord
  2
DIVIDEX2
 70
    0
  3
Divide (2x) ________  .  .  ________  .  .  _
 72
   65
 73
    6
 40
63.5
 49
25.4
 74
    0
 49
-12.7
 74
    0
 49
0
 74
    0
 49
-12.7
 74
    0
 49
0
 74
    0
 49
-12.7
 74
    0
  0
LTYPE
  5
42
330
5
100
AcDbSymbolTableRecord
100
AcDbLinetypeTableRecord
  2
BORDER
 70
    0
  3
Border __ __ . __ __ . __ __ . __ __ . __ __ .
 72
   65
 73
    6
 40
44.45
 49
12.7
 74
    0
 49
-6.35
 74
    0
 49
12.7
 74
    0
 49
-6.35
 74
    0
 49
0
 74
    0
 49
-6.35
 74
    0
  0
LTYPE
  5
43
330
5
100
AcDbSymbolTableRecord
100
AcDbLinetypeTableRecord
  2
BORDERTINY
 70
    0
  3
Border (.15x) __.__.__.__.__.__.__.__.__.__.__.
 72
   65
 73
    6
 40
6.6675
 49
1.905
 74
    0
 49
-0.9525
 74
    0
 49
1.905
 74
    0
 49
-0.9525
 74
    0
 49
0
 74
    0
 49
-0.9525
 74
    0
  0
LTYPE
  5
44
330
5
100
AcDbSymbolTableRecord
100
AcDbLinetypeTableRecord
  2
BORDER2
 70
    0
  3
Border (.5x) __.__.__.__.__.__.__.__.__.__.__.
 72
   65
 73
    6
 40
22.225
 49
6.35
 74
    0
 49
-3.175
 74
    0
 49
6.35
 74
    0
 49
-3.175
 74
    0
 49
0
 74
    0
 49
-3.175
 74
    0
  0
LTYPE
  5
45
330
5
100
AcDbSymbolTableRecord
100
AcDbLinetypeTableRecord
  2
BORDERX2
 70
    0
  3
Border (2x) ____  ____  .  ____  ____  .  ___
 72
   65
 73
    6
 40
88.89999999999999
 49
25.4
 74
    0
 49
-12.7
 74
    0
 49
25.4
 74
    0
 49
-12.7
 74
    0
 49
0
 74
    0
 49
-12.7
 74
    0
  0
LTYPE
  5
46
330
5
100
AcDbSymbolTableRecord
100
AcDbLinetypeTableRecord
  2
CENTER
 70
    0
  3
Center ____ _ ____ _ ____ _ ____ _ ____ _ ____
 72
   65
 73
    4
 40
50.8
 49
31.75
 74
    0
 49
-6.35
 74
    0
 49
6.35
 74
    0
 49
-6.35
 74
    0
  0
LTYPE
  5
47
330
5
100
AcDbSymbolTableRecord
100
AcDbLinetypeTableRecord
  2
CENTERTINY
 70
    0
  3
Center (.15x) ___ _ ___ _ ___ _ ___ _ ___ _ ___
 72
   65
 73
    4
 40
7.619999999999999
 49
4.7625
 74
    0
 49
-0.9525
 74
    0
 49
0.9525
 74
    0
 49
-0.9525
 74
    0
  0
LTYPE
  5
48
330
5
100
AcDbSymbolTableRecord
100
AcDbLinetypeTableRecord
  2
CENTER2
 70
    0
  3
Center (.5x) ___ _ ___ _ ___ _ ___ _ ___ _ ___
 72
   65
 73
    4
 40
28.575
 49
19.05
 74
    0
 49
-3.175
 74
    0
 49
3.175
 74
    0
 49
-3.175
 74
    0
  0
LTYPE
  5
49
330
5
100
AcDbSymbolTableRecord
100
AcDbLinetypeTableRecord
  2
CENTERX2
 70
    0
  3
Center (2x) ________  __  ________  __  _____
 72
   65
 73
    4
 40
101.6
 49
63.5
 74
    0
 49
-12.7
 74
    0
 49
12.7
 74
    0
 49
-12.7
 74
    0
  0
ENDTAB
  0
TABLE
  2
LAYER
  5
2
330
0
100
AcDbSymbolTable
 70
    1
  0
LAYER
  5
10
330
2
100
AcDbSymbolTableRecord
100
AcDbLayerTableRecord
  2
0
 70
    0
 62
    1
  6
CONTINUOUS
370
   -3
390
F
  0
LAYER
  5
4A
330
2
100
AcDbSymbolTableRecord
100
AcDbLayerTableRecord
  2
PYDXF
 70
    0
 62
    5
  6
CONTINUOUS
370
   -3
390
F
  0
ENDTAB
  0
TABLE
  2
STYLE
  5
3
330
0
100
AcDbSymbolTable
 70
    3
  0
STYLE
  5
4B
330
2
100
AcDbSymbolTableRecord
100
AcDbTextStyleTableRecord
  2
Standard
 70
    0
 40
0
 41
1
 50
0
 71
    0
 42
1
  3
txt
  4

  0
ENDTAB
  0
TABLE
  2
VIEW
  5
6
330
0
100
AcDbSymbolTable
 70
    0
  0
ENDTAB
  0
TABLE
  2
UCS
  5
7
330
0
100
AcDbSymbolTable
 70
    0
  0
ENDTAB
  0
TABLE
  2
APPID
  5
9
330
0
100
AcDbSymbolTable
 70
    1
  0
APPID
  5
12
330
9
100
AcDbSymbolTableRecord
100
AcDbRegAppTableRecord
  2
ACAD
 70
    0
  0
APPID
  5
4C
330
9
100
AcDbSymbolTableRecord
100
AcDbRegAppTableRecord
  2
LibreCad
 70
    0
  0
ENDTAB
  0
TABLE
  2
DIMSTYLE
  5
A
330
0
100
AcDbSymbolTable
 70
    1
100
AcDbDimStyleTable
 71
    1
  0
DIMSTYLE
105
4D
330
A
100
AcDbSymbolTableRecord
100
AcDbDimStyleTableRecord
  2
Standard
 70
    0
 40
1
 41
0.18
 42
0.0625
 43
0.38
 44
0.18
 45
0
 46
0
 47
0
 48
0
 49
1
140
0.18
141
0.09
142
0
143
25.4
144
1
145
0
146
1
147
0.09
148
0
 71
    0
 72
    0
 73
    1
 74
    1
 75
    0
 76
    0
 77
    0
 78
    0
 79
    0
170
    0
171
    2
172
    0
173
    0
174
    0
175
    0
176
    0
177
    0
178
    0
179
    0
271
    4
272
    4
273
    2
274
    2
275
    0
276
    0
277
    2
278
   46
279
    0
280
    0
281
    0
282
    0
283
    1
284
    0
285
    0
286
    0
288
    0
289
    3
340
Standard
341

371
   -2
372
   -2
  0
ENDTAB
  0
TABLE
  2
BLOCK_RECORD
  5
1
330
0
100
AcDbSymbolTable
 70
    2
  0
BLOCK_RECORD
  5
1F
330
1
100
AcDbSymbolTableRecord
100
AcDbBlockTableRecord
  2
*Model_Space
 70
    0
280
    1
281
    0
  0
BLOCK_RECORD
  5
1E
330
1
100
AcDbSymbolTableRecord
100
AcDbBlockTableRecord
  2
*Paper_Space
 70
    0
280
    1
281
    0
  0
ENDTAB
  0
ENDSEC
  0
SECTION
  2
BLOCKS
  0
BLOCK
  5
20
330
1F
100
AcDbEntity
  8
0
100
AcDbBlockBegin
  2
*Model_Space
 70
    0
 10
0
 20
0
 30
0
  3
*Model_Space
  1

  0
ENDBLK
  5
21
330
1F
100
AcDbEntity
  8
0
100
AcDbBlockEnd
  0
BLOCK
  5
1C
330
1B
100
AcDbEntity
  8
0
100
AcDbBlockBegin
  2
*Paper_Space
 70
    0
 10
0
 20
0
 30
0
  3
*Paper_Space
  1

  0
ENDBLK
  5
1D
330
1F
100
AcDbEntity
  8
0
100
AcDbBlockEnd
  0
ENDSEC
  0
SECTION
  2
ENTITIES
  0
LWPOLYLINE
  5
4E
100
AcDbEntity
  8
0
  6
ByBlock
 62
  256
370
   -1
100
AcDbPolyline
 90
   33
 70
    1
 43
0
 10
113.3931903730388
 20
66.58235227138471
 10
113.6962642560954
 20
66.83110105068158
 10
113.9449901472087
 20
67.13417111904096
 10
114.129808415031
 20
67.47993527919721
 10
114.2436199079509
 20
67.85511838466596
 10
114.2820491682048
 20
68.24531613857221
 10
114.2436199079509
 20
68.63548337490033
 10
114.129808415031
 20
69.01066648036908
 10
113.9449901472087
 20
69.35643064052533
 10
113.6962642560954
 20
69.65950070888471
 10
113.3931903730388
 20
69.90824948818158
 10
113.0474147687908
 20
70.09306394130658
 10
112.672231663322
 20
70.20686399013471
 10
112.2820491682048
 20
70.24531613857221
 10
111.8918666730876
 20
70.20686399013471
 10
111.5166835676189
 20
70.09306394130658
 10
111.1709079633708
 20
69.90824948818158
 10
110.8678340803142
 20
69.65950070888471
 10
110.6191081892009
 20
69.35643064052533
 10
110.4342899213786
 20
69.01066648036908
 10
110.3204784284587
 20
68.63548337490033
 10
110.2820491682048
 20
68.24531613857221
 10
110.3204784284587
 20
67.85511838466596
 10
110.4342899213786
 20
67.47993527919721
 10
110.6191081892009
 20
67.13417111904096
 10
110.8678340803142
 20
66.83110105068158
 10
111.1709079633708
 20
66.58235227138471
 10
111.5166835676189
 20
66.39753781825971
 10
111.8918666730876
 20
66.28373776943158
 10
112.2820491682048
 20
66.24531613857221
 10
112.672231663322
 20
66.28373776943158
 10
113.0474147687908
 20
66.39753781825971
 10
113.3546369050623
 20
66.56174976805704
  0
LWPOLYLINE
  5
4F
100
AcDbEntity
  8
0
  6
ByBlock
 62
  256
370
   -1
100
AcDbPolyline
 90
   32
 70
    1
 43
0
 10
54.92452048168138
 20
102.859024634666
 10
54.59286688671068
 20
102.8263403084941
 10
54.27395819530443
 20
102.7295995858378
 10
53.98005102977709
 20
102.5725256112285
 10
53.72244070873217
 20
102.3610998299785
 10
53.5110225568767
 20
102.1034704354472
 10
53.35392569408373
 20
101.8095861581035
 10
53.25718497142748
 20
101.4906774666972
 10
53.2245235334392
 20
101.1590124276347
 10
53.25718497142748
 20
100.8273473885722
 10
53.35392569408373
 20
100.508438697166
 10
53.5110225568767
 20
100.2145544198222
 10
53.72244070873217
 20
99.95692502529096
 10
53.98005102977709
 20
99.74549924404096
 10
54.27395819530443
 20
99.58842526943158
 10
54.59286688671068
 20
99.49168454677533
 10
54.92452048168138
 20
99.45900022060346
 10
55.25617407665209
 20
99.49168454677533
 10
55.57508276805834
 20
99.58842526943158
 10
55.86898993358568
 20
99.74549924404096
 10
56.1266002546306
 20
99.95692502529096
 10
56.33801840648607
 20
100.2145544198222
 10
56.49511526927904
 20
100.508438697166
 10
56.59185599193529
 20
100.8273473885722
 10
56.62452124462084
 20
101.1590124276347
 10
56.59185599193529
 20
101.4906774666972
 10
56.49511526927904
 20
101.8095861581035
 10
56.33801840648607
 20
102.1034704354472
 10
56.1266002546306
 20
102.3610998299785
 10
55.86898993358568
 20
102.5725256112285
 10
55.57508276805834
 20
102.7295995858378
 10
55.25617407665209
 20
102.8263403084941
  0
LWPOLYLINE
  5
50
100
AcDbEntity
  8
0
  6
ByBlock
 62
  256
370
   -1
100
AcDbPolyline
 90
   32
 70
    1
 43
0
 10
83.96809576854662
 20
169.2240759041972
 10
83.63644217357592
 20
169.1913915780253
 10
83.31753348216967
 20
169.0946508553691
 10
83.02362631664232
 20
168.9375768807597
 10
82.7660159955974
 20
168.7261510995097
 10
82.55459784374193
 20
168.4685217049785
 10
82.39750098094896
 20
168.1746374276347
 10
82.30076025829271
 20
167.8557287362285
 10
82.26809500560717
 20
167.524063697166
 10
82.30076025829271
 20
167.1923986581035
 10
82.39750098094896
 20
166.8734899666972
 10
82.55459784374193
 20
166.5796056893535
 10
82.7660159955974
 20
166.3219762948222
 10
83.02362631664232
 20
166.1105505135722
 10
83.31753348216967
 20
165.9534765389628
 10
83.63644217357592
 20
165.8567358163066
 10
83.96809576854662
 20
165.8240514901347
 10
84.29974936351732
 20
165.8567358163066
 10
84.61865805492357
 20
165.9534765389628
 10
84.91256522045092
 20
166.1105505135722
 10
85.17017554149584
 20
166.3219762948222
 10
85.38159369335131
 20
166.5796056893535
 10
85.53869055614427
 20
166.8734899666972
 10
85.63543127880052
 20
167.1923986581035
 10
85.66809653148607
 20
167.524063697166
 10
85.63543127880052
 20
167.8557287362285
 10
85.53869055614427
 20
168.1746374276347
 10
85.38159369335131
 20
168.4685217049785
 10
85.17017554149584
 20
168.7261510995097
 10
84.91256522045092
 20
168.9375768807597
 10
84.61865805492357
 20
169.0946508553691
 10
84.29974936351732
 20
169.1913915780253
  0
LWPOLYLINE
  5
51
100
AcDbEntity
  8
0
  6
ByBlock
 62
  256
370
   -1
100
AcDbPolyline
 90
   33
 70
    1
 43
0
 10
34.92452048168138
 20
102.859024634666
 10
34.59287070140795
 20
102.8263403084941
 10
34.2739620100017
 20
102.7295995858378
 10
33.98004721507982
 20
102.5725256112285
 10
33.72244070873217
 20
102.3610998299785
 10
33.5110225568767
 20
102.1034704354472
 10
33.35392569408373
 20
101.8095861581035
 10
33.25718497142748
 20
101.4906774666972
 10
33.2245235334392
 20
101.1590124276347
 10
33.25718497142748
 20
100.8273473885722
 10
33.33187979027787
 20
100.5811301780084
 10
33.35392569408373
 20
100.508438697166
 10
33.5110225568767
 20
100.2145544198222
 10
33.72244070873217
 20
99.95692502529096
 10
33.98004721507982
 20
99.74549924404096
 10
34.2739620100017
 20
99.58842526943158
 10
34.59287070140795
 20
99.49168454677533
 10
34.92452048168138
 20
99.45900022060346
 10
35.25617026195482
 20
99.49168454677533
 10
35.57507895336107
 20
99.58842526943158
 10
35.86899374828295
 20
99.74549924404096
 10
36.1266002546306
 20
99.95692502529096
 10
36.33801840648607
 20
100.2145544198222
 10
36.49511526927904
 20
100.508438697166
 10
36.59185599193529
 20
100.8273473885722
 10
36.62451742992357
 20
101.1590124276347
 10
36.59185599193529
 20
101.4906774666972
 10
36.49511526927904
 20
101.8095861581035
 10
36.33801840648607
 20
102.1034704354472
 10
36.1266002546306
 20
102.3610998299785
 10
35.86899374828295
 20
102.5725256112285
 10
35.57507895336107
 20
102.7295995858378
 10
35.25617026195482
 20
102.8263403084941
  0
LWPOLYLINE
  5
52
100
AcDbEntity
  8
0
  6
ByBlock
 62
  256
370
   -1
100
AcDbPolyline
 90
   33
 70
    1
 43
0
 10
11.04526327953295
 20
70.24531613857221
 10
10.65508078441576
 20
70.20686399013471
 10
10.27989767894701
 20
70.09306394130658
 10
9.934118260001696
 20
69.90824948818158
 10
9.631048191642321
 20
69.65950070888471
 10
9.38232230052904
 20
69.35643064052533
 10
9.197500218009509
 20
69.01066648036908
 10
9.083692539786853
 20
68.63548337490033
 10
9.045263279532946
 20
68.24531613857221
 10
9.083692539786853
 20
67.85511838466596
 10
9.197500218009509
 20
67.47993527919721
 10
9.38232230052904
 20
67.13417111904096
 10
9.631048191642321
 20
66.83110105068158
 10
9.934118260001696
 20
66.58235227138471
 10
10.27989767894701
 20
66.39753781825971
 10
10.65508078441576
 20
66.28373776943158
 10
11.04526327953295
 20
66.24531613857221
 10
11.43544577465013
 20
66.28373776943158
 10
11.81062888011888
 20
66.39753781825971
 10
12.1564082990642
 20
66.58235227138471
 10
12.45947836742357
 20
66.83110105068158
 10
12.70820425853685
 20
67.13417111904096
 10
12.89302634105638
 20
67.47993527919721
 10
13.00683401927904
 20
67.85511838466596
 10
13.04526327953295
 20
68.24531613857221
 10
13.00683401927904
 20
68.63548337490033
 10
12.89302634105638
 20
69.01066648036908
 10
12.70820425853685
 20
69.35643064052533
 10
12.45947836742357
 20
69.65950070888471
 10
12.1564082990642
 20
69.90824948818158
 10
11.81062888011888
 20
70.09306394130658
 10
11.52736471996263
 20
70.17900144130658
 10
11.43544577465013
 20
70.20686399013471
  0
LWPOLYLINE
  5
53
100
AcDbEntity
  8
0
  6
ByBlock
 62
  256
370
   -1
100
AcDbPolyline
 90
   48
 70
    1
 43
0
 10
32.59989737377123
 20
159.0930944588847
 10
32.3692760358806
 20
159.1085973885722
 10
32.13865469798998
 20
159.0930944588847
 10
31.91744040355638
 20
159.0478674081035
 10
31.7076778303142
 20
158.974991431541
 10
31.51137350902513
 20
158.8764501717753
 10
31.33057211742357
 20
158.7543188241191
 10
31.16729544506029
 20
158.6105810311503
 10
31.0235729108806
 20
158.4473119881816
 10
30.90143393382982
 20
158.266495337791
 10
30.80290793285326
 20
158.070206275291
 10
30.73002432689623
 20
157.8604284432597
 10
30.68480490550951
 20
157.6392370370097
 10
30.66927908763842
 20
157.4086156991191
 10
30.68480490550951
 20
157.1779943612285
 10
30.73002432689623
 20
156.9567724374003
 10
30.80290793285326
 20
156.7469946053691
 10
30.90143393382982
 20
156.5507055428691
 10
31.0235729108806
 20
156.3698888924785
 10
31.16729544506029
 20
156.2066198495097
 10
31.33057211742357
 20
156.0629125741191
 10
31.51137350902513
 20
155.9407507088847
 10
31.7076778303142
 20
155.8422399666972
 10
31.91744040355638
 20
155.7693639901347
 10
32.13865469798998
 20
155.7241369393535
 10
32.3692760358806
 20
155.7086034920878
 10
32.59989737377123
 20
155.7241369393535
 10
32.82111166820482
 20
155.7693639901347
 10
33.03088187084154
 20
155.8422399666972
 10
33.22717856273607
 20
155.9407507088847
 10
33.40797995433763
 20
156.0629125741191
 10
33.57125662670092
 20
156.2066198495097
 10
33.7149791608806
 20
156.3698888924785
 10
33.83711813793138
 20
156.5507055428691
 10
33.93564413890795
 20
156.7469946053691
 10
34.00853537425951
 20
156.9567724374003
 10
34.05375479564623
 20
157.1779943612285
 10
34.06928061351732
 20
157.4086156991191
 10
34.05375479564623
 20
157.6392370370097
 10
34.00853537425951
 20
157.8604284432597
 10
33.93564413890795
 20
158.070206275291
 10
33.83711813793138
 20
158.266495337791
 10
33.7149791608806
 20
158.4473119881816
 10
33.57125662670092
 20
158.6105810311503
 10
33.40797995433763
 20
158.7543188241191
 10
33.22717856273607
 20
158.8764501717753
 10
33.03088187084154
 20
158.974991431541
 10
32.82111166820482
 20
159.0478674081035
  0
LWPOLYLINE
  5
54
100
AcDbEntity
  8
0
  6
ByBlock
 62
  256
370
   -1
100
AcDbPolyline
 90
   48
 70
    1
 43
0
 10
32.36926840648607
 20
127.3550573495097
 10
32.13864706859545
 20
127.3705907967753
 10
31.91743277416185
 20
127.4157873299785
 10
31.70767020091967
 20
127.4886938241191
 10
31.5113658796306
 20
127.5872350838847
 10
31.33056448802904
 20
127.709366431541
 10
31.16728781566576
 20
127.8530737069316
 10
31.02356528148607
 20
128.0163732674785
 10
30.90142630443529
 20
128.197159400291
 10
30.80290030345873
 20
128.393448462791
 10
30.7300166975017
 20
128.6032262948222
 10
30.68479727611498
 20
128.8244482186503
 10
30.66927145824388
 20
129.055069556541
 10
30.68479727611498
 20
129.2856908944316
 10
30.7300166975017
 20
129.5069128182597
 10
30.80290030345873
 20
129.7166601327128
 10
30.90142630443529
 20
129.912979712791
 10
31.02356528148607
 20
130.0937658456035
 10
31.16728781566576
 20
130.2570348885722
 10
31.33056448802904
 20
130.400772681541
 10
31.5113658796306
 20
130.5229040291972
 10
31.70767020091967
 20
130.6214147713847
 10
31.91743277416185
 20
130.6943212655253
 10
32.13864706859545
 20
130.7395177987285
 10
32.36926840648607
 20
130.7550512459941
 10
32.5998897443767
 20
130.7395177987285
 10
32.82110403881029
 20
130.6943212655253
 10
33.03087424144701
 20
130.6214147713847
 10
33.22717093334154
 20
130.5229040291972
 10
33.4079723249431
 20
130.400772681541
 10
33.57124899730638
 20
130.2570348885722
 10
33.71497153148607
 20
130.0937658456035
 10
33.83711050853685
 20
129.912979712791
 10
33.93563650951342
 20
129.7166601327128
 10
34.00852774486498
 20
129.5069128182597
 10
34.0537471662517
 20
129.2856908944316
 10
34.06927298412279
 20
129.055069556541
 10
34.0537471662517
 20
128.8244482186503
 10
34.00852774486498
 20
128.6032262948222
 10
33.93563650951342
 20
128.393448462791
 10
33.83711050853685
 20
128.197159400291
 10
33.71497153148607
 20
128.0163732674785
 10
33.57124899730638
 20
127.8530737069316
 10
33.4079723249431
 20
127.709366431541
 10
33.22717093334154
 20
127.5872350838847
 10
33.03087424144701
 20
127.4886938241191
 10
32.82110403881029
 20
127.4157873299785
 10
32.5998897443767
 20
127.3705907967753
  0
LWPOLYLINE
  5
55
100
AcDbEntity
  8
0
  6
ByBlock
 62
  256
370
   -1
100
AcDbPolyline
 90
   48
 70
    1
 43
0
 10
65.07826422557787
 20
159.0930944588847
 10
65.2994747053142
 20
159.0478674081035
 10
65.50924490795092
 20
158.974991431541
 10
65.70554541454271
 20
158.8764501717753
 10
65.88634299144701
 20
158.754288306541
 10
66.04961966381029
 20
158.6105810311503
 10
66.19333838329271
 20
158.4473119881816
 10
66.31547736034349
 20
158.266495337791
 10
66.41400717601732
 20
158.070206275291
 10
66.48689459667162
 20
157.8604284432597
 10
66.53211401805834
 20
157.6392370370097
 10
66.54763983592943
 20
157.408585181541
 10
66.53211401805834
 20
157.1779943612285
 10
66.48689459667162
 20
156.9567724374003
 10
66.41400717601732
 20
156.7469946053691
 10
66.31547736034349
 20
156.5507055428691
 10
66.19333838329271
 20
156.3698888924785
 10
66.04961966381029
 20
156.2066198495097
 10
65.88634299144701
 20
156.0629125741191
 10
65.70554159984545
 20
155.9407507088847
 10
65.50924109325365
 20
155.8422399666972
 10
65.29947089061693
 20
155.7693639901347
 10
65.0782604108806
 20
155.7241369393535
 10
64.84763907298998
 20
155.7086034920878
 10
64.61701392040209
 20
155.7241369393535
 10
64.39580344066576
 20
155.7693639901347
 10
64.18603705272631
 20
155.8422399666972
 10
63.98973654613451
 20
155.9407507088847
 10
63.80893515453295
 20
156.0629125741191
 10
63.64565848216967
 20
156.2066198495097
 10
63.50193594798998
 20
156.3698888924785
 10
63.3797969709392
 20
156.5507055428691
 10
63.28127096996263
 20
156.7469946053691
 10
63.20838354930834
 20
156.9567724374003
 10
63.16316412792162
 20
157.1779943612285
 10
63.14763831005052
 20
157.4086156991191
 10
63.16316412792162
 20
157.6392370370097
 10
63.20838354930834
 20
157.8604284432597
 10
63.28127096996263
 20
158.070206275291
 10
63.3797969709392
 20
158.266495337791
 10
63.50193594798998
 20
158.4473119881816
 10
63.64565848216967
 20
158.6105810311503
 10
63.80893515453295
 20
158.754288306541
 10
63.98973654613451
 20
158.8764501717753
 10
64.18603705272631
 20
158.974991431541
 10
64.39580344066576
 20
159.0478674081035
 10
64.61701773509935
 20
159.0930944588847
 10
64.84764288768724
 20
159.1085973885722
  0
LWPOLYLINE
  5
56
100
AcDbEntity
  8
0
  6
ByBlock
 62
  256
370
   -1
100
AcDbPolyline
 90
   48
 70
    1
 43
0
 10
61.77269171581224
 20
26.57408200771283
 10
61.4906253705974
 20
26.55506955654096
 10
61.22005652294115
 20
26.49971066982221
 10
60.96346854076342
 20
26.41053830654096
 10
60.72334097728685
 20
26.28993283779096
 10
60.50215720043138
 20
26.14048825771283
 10
60.30240820751146
 20
25.96461545497846
 10
60.12657736644701
 20
25.76481687099408
 10
59.97714041576342
 20
25.54359494716596
 10
59.8565921674724
 20
25.30342160732221
 10
59.76740836009935
 20
25.04676877529096
 10
59.71207617626146
 20
24.77613889247846
 10
59.69307898387865
 20
24.49403440029096
 10
59.71207617626146
 20
24.21192990810346
 10
59.76740836009935
 20
23.94130002529096
 10
59.8565921674724
 20
23.68464719325971
 10
59.97714041576342
 20
23.44447385341596
 10
60.12657736644701
 20
23.22325192958783
 10
60.30240820751146
 20
23.02345334560346
 10
60.50215720043138
 20
22.84758054286908
 10
60.72334097728685
 20
22.69810544521283
 10
60.96346854076342
 20
22.57753049404096
 10
61.22005652294115
 20
22.48832761318158
 10
61.4906253705974
 20
22.43299924404096
 10
61.77269171581224
 20
22.41398679286908
 10
62.05475043163256
 20
22.43296872646283
 10
62.32531546459154
 20
22.48829709560346
 10
62.58190726146654
 20
22.57753049404096
 10
62.8220348249431
 20
22.69810544521283
 10
63.04321478710131
 20
22.84755002529096
 10
63.24296378002123
 20
23.02342282802533
 10
63.41879843578295
 20
23.22322141200971
 10
63.56823538646654
 20
23.44444333583783
 10
63.68878744945482
 20
23.68464719325971
 10
63.77797125682787
 20
23.94126950771283
 10
63.83330344066576
 20
24.21189939052533
 10
63.85230063304857
 20
24.49403440029096
 10
63.83330725536302
 20
24.77613889247846
 10
63.77797507152513
 20
25.04676877529096
 10
63.68878744945482
 20
25.30342160732221
 10
63.56823538646654
 20
25.54359494716596
 10
63.41879843578295
 20
25.76481687099408
 10
63.24296378002123
 20
25.96461545497846
 10
63.04321478710131
 20
26.14048825771283
 10
62.8220348249431
 20
26.28996335536908
 10
62.58190726146654
 20
26.41053830654096
 10
62.32531927928881
 20
26.49974118740033
 10
62.05475043163256
 20
26.55506955654096
  0
LWPOLYLINE
  5
57
100
AcDbEntity
  8
0
  6
ByBlock
 62
  256
370
   -1
100
AcDbPolyline
 90
   50
 70
    1
 43
0
 10
64.84763525829271
 20
130.7550512459941
 10
64.61701010570482
 20
130.7395177987285
 10
64.39580344066576
 20
130.6943212655253
 10
64.18603705272631
 20
130.6214147713847
 10
63.98973654613451
 20
130.5229040291972
 10
63.80893515453295
 20
130.400772681541
 10
63.64565848216967
 20
130.2570348885722
 10
63.50193594798998
 20
130.0937658456035
 10
63.3797969709392
 20
129.912979712791
 10
63.28127096996263
 20
129.7166601327128
 10
63.26341134922916
 20
129.6652682559766
 10
63.20838354930834
 20
129.5069128182597
 10
63.16316412792162
 20
129.2856908944316
 10
63.14763831005052
 20
129.055069556541
 10
63.16316412792162
 20
128.8244482186503
 10
63.20137213573412
 20
128.6375280526347
 10
63.20838354930834
 20
128.6032262948222
 10
63.28127096996263
 20
128.393448462791
 10
63.3797969709392
 20
128.197159400291
 10
63.50193594798998
 20
128.0163732674785
 10
63.64565848216967
 20
127.8530737069316
 10
63.80893515453295
 20
127.709366431541
 10
63.98973654613451
 20
127.5872350838847
 10
64.18603705272631
 20
127.4886938241191
 10
64.39580344066576
 20
127.4157873299785
 10
64.61701010570482
 20
127.3705907967753
 10
64.84763907298998
 20
127.3550573495097
 10
65.0782604108806
 20
127.3705907967753
 10
65.29947089061693
 20
127.4157873299785
 10
65.50923727855638
 20
127.4886938241191
 10
65.70554159984545
 20
127.5872045663066
 10
65.88634299144701
 20
127.709366431541
 10
66.04961966381029
 20
127.8530737069316
 10
66.19333456859545
 20
128.0163427499003
 10
66.31547354564623
 20
128.197159400291
 10
66.41400336132006
 20
128.393448462791
 10
66.48689078197435
 20
128.6032262948222
 10
66.53211020336107
 20
128.8244177010722
 10
66.54763602123217
 20
129.055069556541
 10
66.53211020336107
 20
129.2856603768535
 10
66.48689078197435
 20
129.5068823006816
 10
66.41400336132006
 20
129.7166601327128
 10
66.31547354564623
 20
129.9129491952128
 10
66.19333456859545
 20
130.0937658456035
 10
66.04961584911302
 20
130.2570348885722
 10
65.88633917674974
 20
130.400772681541
 10
65.70553778514818
 20
130.5229040291972
 10
65.50923727855638
 20
130.6214147713847
 10
65.29946707591967
 20
130.6943212655253
 10
65.07825659618334
 20
130.7395177987285
  0
LWPOLYLINE
  5
58
100
AcDbEntity
  8
0
  6
ByBlock
 62
  256
370
   -1
100
AcDbPolyline
 90
   66
 70
    1
 43
0
 10
18.1152706037517
 20
134.5859228280253
 10
18.27718924388842
 20
134.558243384666
 10
18.4356822858806
 20
134.5150915291972
 10
18.5892696271892
 20
134.4568639901347
 10
18.73652457103685
 20
134.3840490487285
 10
18.87606619701342
 20
134.2973791268535
 10
19.00658224925951
 20
134.197647681541
 10
19.1268672834392
 20
134.0857702401347
 10
19.23579977855638
 20
133.9628149178691
 10
19.33235739574388
 20
133.8299108651347
 10
19.41562460765795
 20
133.6883398202128
 10
19.48485373363451
 20
133.5393530038066
 10
19.53937338695482
 20
133.384415259666
 10
19.57868002757982
 20
133.2249303963847
 10
19.59657062282804
 20
133.1024521426176
 10
19.60242270336107
 20
133.062393775291
 10
19.61035727367357
 20
132.8983007577128
 10
19.60242270336107
 20
132.7342382577128
 10
19.57868002757982
 20
132.5717016366191
 10
19.53937338695482
 20
132.4121862557597
 10
19.48485373363451
 20
132.2572485116191
 10
19.41562460765795
 20
132.108292212791
 10
19.33235739574388
 20
131.966690650291
 10
19.23579977855638
 20
131.8337865975566
 10
19.1268672834392
 20
131.710831275291
 10
19.00658224925951
 20
131.5989538338847
 10
18.87606619701342
 20
131.4992223885722
 10
18.73652457103685
 20
131.4125524666972
 10
18.5892696271892
 20
131.3397680428691
 10
18.4356822858806
 20
131.2815099862285
 10
18.27718924388842
 20
131.2383581307597
 10
18.1152706037517
 20
131.2107092049785
 10
17.95143698558763
 20
131.1988073495097
 10
17.78721426830248
 20
131.202774634666
 10
17.62415121898607
 20
131.2225805428691
 10
17.46375082836107
 20
131.2580114510722
 10
17.3075313459392
 20
131.3087927010722
 10
17.15692709789232
 20
131.3743749764628
 10
17.01336478099779
 20
131.4542089608378
 10
16.87817953929857
 20
131.5475317147441
 10
16.75263022289232
 20
131.653458228416
 10
16.63788412914232
 20
131.7710119393535
 10
16.53502463207201
 20
131.899063697166
 10
16.44500540599779
 20
132.0364843514628
 10
16.36867331371263
 20
132.1819311288066
 10
16.30672263011888
 20
132.3340612557597
 10
16.25975607738451
 20
132.4914709237285
 10
16.22819327220873
 20
132.6526647713847
 10
16.21233939037279
 20
132.8161779549785
 10
16.21233939037279
 20
132.9804235604472
 10
16.22819327220873
 20
133.143936744041
 10
16.25975607738451
 20
133.3051305916972
 10
16.30672263011888
 20
133.462540259666
 10
16.36867331371263
 20
133.6147009041972
 10
16.44500540599779
 20
133.760147681541
 10
16.53502463207201
 20
133.8975378182597
 10
16.63788412914232
 20
134.0256200936503
 10
16.75263022289232
 20
134.1431738045878
 10
16.87817953929857
 20
134.2491003182597
 10
17.01336478099779
 20
134.3423925545878
 10
17.15692709789232
 20
134.4222265389628
 10
17.3075313459392
 20
134.4878393319316
 10
17.46375082836107
 20
134.5385900643535
 10
17.62415121898607
 20
134.5740514901347
 10
17.78721426830248
 20
134.5938268807597
 10
17.95143698558763
 20
134.597794165916
  0
LWPOLYLINE
  5
59
100
AcDbEntity
  8
0
  6
ByBlock
 62
  256
370
   -1
100
AcDbPolyline
 90
   65
 70
    1
 43
0
 10
18.1152706037517
 20
153.8827978280253
 10
17.95143698558763
 20
153.894669165916
 10
17.78721426830248
 20
153.8907018807597
 10
17.62415121898607
 20
153.8709264901347
 10
17.46375082836107
 20
153.8354650643535
 10
17.3075313459392
 20
153.7847143319316
 10
17.15692709789232
 20
153.7191015389628
 10
17.01336478099779
 20
153.6392675545878
 10
16.87817953929857
 20
153.5459753182597
 10
16.75263022289232
 20
153.4400488045878
 10
16.63788412914232
 20
153.3224950936503
 10
16.53502463207201
 20
153.1944128182597
 10
16.44500540599779
 20
153.057022681541
 10
16.36867331371263
 20
152.9115759041972
 10
16.30672263011888
 20
152.759415259666
 10
16.25975607738451
 20
152.6020055916972
 10
16.22819327220873
 20
152.440811744041
 10
16.21233939037279
 20
152.2772985604472
 10
16.21233939037279
 20
152.1130529549785
 10
16.22819327220873
 20
151.9495397713847
 10
16.25975607738451
 20
151.7883459237285
 10
16.30672263011888
 20
151.6309362557597
 10
16.36867331371263
 20
151.4788061288066
 10
16.44500540599779
 20
151.3333593514628
 10
16.53502463207201
 20
151.195938697166
 10
16.63788412914232
 20
151.0678869393535
 10
16.75263022289232
 20
150.950333228416
 10
16.87817953929857
 20
150.8444067147441
 10
17.01336478099779
 20
150.7510839608378
 10
17.15692709789232
 20
150.6712499764628
 10
17.3075313459392
 20
150.6056677010722
 10
17.46375082836107
 20
150.5548864510722
 10
17.62415121898607
 20
150.5194555428691
 10
17.78721426830248
 20
150.499649634666
 10
17.95143698558763
 20
150.4956823495097
 10
18.1152706037517
 20
150.5075842049785
 10
18.27718924388842
 20
150.5352331307597
 10
18.4356822858806
 20
150.5783849862285
 10
18.5892696271892
 20
150.6366430428691
 10
18.73652457103685
 20
150.7094274666972
 10
18.87606619701342
 20
150.7960973885722
 10
19.00658224925951
 20
150.8958288338847
 10
19.1268672834392
 20
151.007706275291
 10
19.23579977855638
 20
151.1306615975566
 10
19.33235739574388
 20
151.263565650291
 10
19.41562460765795
 20
151.405167212791
 10
19.48485373363451
 20
151.5541235116191
 10
19.53937338695482
 20
151.7090612557597
 10
19.57868002757982
 20
151.8685766366191
 10
19.60242270336107
 20
152.0311132577128
 10
19.61035727367357
 20
152.1951757577128
 10
19.60242270336107
 20
152.359268775291
 10
19.57868002757982
 20
152.5218053963847
 10
19.53937338695482
 20
152.681290259666
 10
19.48485373363451
 20
152.8362280038066
 10
19.41562460765795
 20
152.9852148202128
 10
19.33235739574388
 20
153.1267858651347
 10
19.23579977855638
 20
153.2596899178691
 10
19.1268672834392
 20
153.3826452401347
 10
19.00658224925951
 20
153.494522681541
 10
18.87606619701342
 20
153.5942541268535
 10
18.73652457103685
 20
153.6809240487285
 10
18.5892696271892
 20
153.7537389901347
 10
18.4356822858806
 20
153.8119665291972
 10
18.27718924388842
 20
153.855118384666
  0
LWPOLYLINE
  5
5A
100
AcDbEntity
  8
0
  6
ByBlock
 62
  256
370
   -1
100
AcDbPolyline
 90
   96
 70
    1
 43
0
 10
16.78130148754076
 20
96.57545529872846
 10
16.64394949779467
 20
96.57090817958783
 10
16.5079479108806
 20
96.55741941005658
 10
16.3736934553142
 20
96.53511106044721
 10
16.24159811840013
 20
96.50419675380658
 10
16.11205099925951
 20
96.46479856044721
 10
15.98547171459154
 20
96.41713010341596
 10
15.86225699291185
 20
96.36131345302533
 10
15.7428111921306
 20
96.29756223232221
 10
15.62753867015795
 20
96.22599851161908
 10
15.51685141429857
 20
96.14680539638471
 10
15.41113852367357
 20
96.06016599208783
 10
15.31081198558763
 20
95.96623288661908
 10
15.21689413890795
 20
95.86589108974408
 10
15.13026999340013
 20
95.76014768154096
 10
15.05110739574388
 20
95.64942990810346
 10
14.97955893382982
 20
95.53413449794721
 10
14.9158077131267
 20
95.41465817958783
 10
14.86001395091967
 20
95.29142819911908
 10
14.81233786449388
 20
95.16481076747846
 10
14.77295492992357
 20
95.03523313075971
 10
14.74204062328295
 20
94.90312253505658
 10
14.71974753246263
 20
94.76881467372846
 10
14.70625113353685
 20
94.63279782802533
 10
14.70171164379076
 20
94.49540769130658
 10
14.70625113353685
 20
94.35804807216596
 10
14.71974753246263
 20
94.22200070888471
 10
14.74204062328295
 20
94.08772336513471
 10
14.77295492992357
 20
93.95558225185346
 10
14.81233786449388
 20
93.82603513271283
 10
14.86001395091967
 20
93.69941770107221
 10
14.9158077131267
 20
93.57618772060346
 10
14.97955893382982
 20
93.45671140224408
 10
15.05110739574388
 20
93.34141599208783
 10
15.13026999340013
 20
93.23069821865033
 10
15.21689413890795
 20
93.12495481044721
 10
15.31081198558763
 20
93.02461301357221
 10
15.41113089427904
 20
92.93067990810346
 10
15.51683615550951
 20
92.84404050380658
 10
15.62753104076342
 20
92.76484738857221
 10
15.74280356273607
 20
92.69328366786908
 10
15.86224936351732
 20
92.62950192958783
 10
15.98546408519701
 20
92.57371579677533
 10
16.11204336986498
 20
92.52601682216596
 10
16.24158285961107
 20
92.48661862880658
 10
16.37368582591967
 20
92.45570432216596
 10
16.50794028148607
 20
92.43339597255658
 10
16.64394186840013
 20
92.41990720302533
 10
16.78130148754076
 20
92.41536008388471
 10
16.91866110668138
 20
92.41990720302533
 10
17.05466269359545
 20
92.43339597255658
 10
17.18890951976732
 20
92.45570432216596
 10
17.32101248607592
 20
92.48661862880658
 10
17.45055197582201
 20
92.52601682216596
 10
17.57713888988451
 20
92.57371579677533
 10
17.7003536115642
 20
92.62950192958783
 10
17.81979941234545
 20
92.69328366786908
 10
17.93506430492357
 20
92.76484738857221
 10
18.04575156078295
 20
92.84404050380658
 10
18.15146445140795
 20
92.93067990810346
 10
18.25179861888842
 20
93.02461301357221
 10
18.34570883617357
 20
93.12495481044721
 10
18.43233298168138
 20
93.23069821865033
 10
18.51149557933763
 20
93.34141599208783
 10
18.5830440412517
 20
93.45671140224408
 10
18.64679526195482
 20
93.57618772060346
 10
18.70259665355638
 20
93.69941770107221
 10
18.75026511058763
 20
93.82603513271283
 10
18.78964804515795
 20
93.95558225185346
 10
18.82056235179857
 20
94.08772336513471
 10
18.84285544261888
 20
94.22200070888471
 10
18.8563594709392
 20
94.35804807216596
 10
18.86089133129076
 20
94.49540769130658
 10
18.8563594709392
 20
94.63279782802533
 10
18.84285544261888
 20
94.76881467372846
 10
18.82056235179857
 20
94.90312253505658
 10
18.78964804515795
 20
95.03523313075971
 10
18.75026511058763
 20
95.16481076747846
 10
18.70259665355638
 20
95.29142819911908
 10
18.64679526195482
 20
95.41465817958783
 10
18.5830440412517
 20
95.53413449794721
 10
18.51149557933763
 20
95.64942990810346
 10
18.43233298168138
 20
95.76014768154096
 10
18.34570883617357
 20
95.86589108974408
 10
18.25179861888842
 20
95.96623288661908
 10
18.15147971019701
 20
96.06016599208783
 10
18.04576681957201
 20
96.14680539638471
 10
17.93507956371263
 20
96.22599851161908
 10
17.81980704173998
 20
96.29753171474408
 10
17.70036124095873
 20
96.36131345302533
 10
17.57714651927904
 20
96.41713010341596
 10
17.45056723461107
 20
96.46479856044721
 10
17.32102011547045
 20
96.50419675380658
 10
17.18892477855638
 20
96.53511106044721
 10
17.05467032298998
 20
96.55741941005658
 10
16.91866110668138
 20
96.57090817958783
  0
LWPOLYLINE
  5
5B
100
AcDbEntity
  8
0
  6
ByBlock
 62
  256
370
   -1
100
AcDbPolyline
 90
   96
 70
    1
 43
0
 10
106.7640743146892
 20
92.41536008388471
 10
106.9014263044353
 20
92.41990720302533
 10
107.0374317060466
 20
92.43339597255658
 10
107.1716823469158
 20
92.45570432216596
 10
107.3037853132244
 20
92.48661862880658
 10
107.4333248029704
 20
92.52601682216596
 10
107.5599079023357
 20
92.57368527919721
 10
107.6831188093181
 20
92.62950192958783
 10
107.8025646100994
 20
92.69328366786908
 10
107.917837132072
 20
92.76484738857221
 10
108.0285282026286
 20
92.84404050380658
 10
108.1342372785564
 20
92.93067990810346
 10
108.2345676313396
 20
93.02461301357221
 10
108.3284778486247
 20
93.12495481044721
 10
108.4151058088298
 20
93.23069821865033
 10
108.4942722211833
 20
93.34141599208783
 10
108.5658168684001
 20
93.45671140224408
 10
108.6295719038005
 20
93.57615720302533
 10
108.6853694807048
 20
93.69941770107221
 10
108.7330417524333
 20
93.82600461513471
 10
108.7724246870036
 20
93.95558225185346
 10
108.8033428083415
 20
94.08772336513471
 10
108.8256397138591
 20
94.22200070888471
 10
108.8391399274822
 20
94.35801755458783
 10
108.8436870466228
 20
94.49540769130658
 10
108.8391475568767
 20
94.63279782802533
 10
108.8256511579509
 20
94.76881467372846
 10
108.8033542524333
 20
94.90309201747846
 10
108.7724323163982
 20
95.03523313075971
 10
108.7330531965251
 20
95.16481076747846
 10
108.6853809247966
 20
95.29139768154096
 10
108.6295795331951
 20
95.41465817958783
 10
108.5658283124919
 20
95.53413449794721
 10
108.4942798505779
 20
95.64942990810346
 10
108.4151134382244
 20
95.76014768154096
 10
108.3284892927165
 20
95.86589108974408
 10
108.2345676313396
 20
95.96623288661908
 10
108.1342449079509
 20
96.06016599208783
 10
108.0285358320232
 20
96.14680539638471
 10
107.9178447614665
 20
96.22596799404096
 10
107.8025760541911
 20
96.29753171474408
 10
107.6831302534099
 20
96.36131345302533
 10
107.5599155317302
 20
96.41713010341596
 10
107.4333362470622
 20
96.46479856044721
 10
107.3037929426189
 20
96.50419675380658
 10
107.1716937910076
 20
96.53511106044721
 10
107.0374393354411
 20
96.55741941005658
 10
106.9014377485271
 20
96.57090817958783
 10
106.7640743146892
 20
96.57545529872846
 10
106.6267261396404
 20
96.57090817958783
 10
106.4907283674236
 20
96.55741941005658
 10
106.3564739118572
 20
96.53511106044721
 10
106.2243747602458
 20
96.50419675380658
 10
106.0948314558025
 20
96.46479856044721
 10
105.9682521711345
 20
96.41713010341596
 10
105.8450336347576
 20
96.36131345302533
 10
105.725584019279
 20
96.29753171474408
 10
105.6103076826091
 20
96.22596799404096
 10
105.4996127973552
 20
96.14680539638471
 10
105.3938922773357
 20
96.06016599208783
 10
105.2935619245525
 20
95.96623288661908
 10
105.1996517072673
 20
95.86589108974408
 10
105.1130275617595
 20
95.76014768154096
 10
105.033861149406
 20
95.64942990810346
 10
104.9623165021892
 20
95.53413449794721
 10
104.8985614667888
 20
95.41465817958783
 10
104.8427638898845
 20
95.29142819911908
 10
104.795091618156
 20
95.16481076747846
 10
104.7557124982829
 20
95.03523313075971
 10
104.7247905622478
 20
94.90309201747846
 10
104.7024936567302
 20
94.76881467372846
 10
104.6889972578044
 20
94.63279782802533
 10
104.6844615827556
 20
94.49540769130658
 10
104.6890010725017
 20
94.35801755458783
 10
104.7024974714275
 20
94.22200070888471
 10
104.7247943769451
 20
94.08772336513471
 10
104.7557163129802
 20
93.95558225185346
 10
104.7950954328533
 20
93.82600461513471
 10
104.8427677045818
 20
93.69941770107221
 10
104.8985690961833
 20
93.57615720302533
 10
104.9623203168865
 20
93.45671140224408
 10
105.0338687788005
 20
93.34141599208783
 10
105.113035191154
 20
93.23069821865033
 10
105.1996555219646
 20
93.12495481044721
 10
105.2935619245525
 20
93.02461301357221
 10
105.3938922773357
 20
92.93067990810346
 10
105.4996127973552
 20
92.84404050380658
 10
105.6103076826091
 20
92.76484738857221
 10
105.725584019279
 20
92.69328366786908
 10
105.8450336347576
 20
92.62950192958783
 10
105.9682521711345
 20
92.57368527919721
 10
106.0948314558025
 20
92.52601682216596
 10
106.2243747602458
 20
92.48661862880658
 10
106.3564739118572
 20
92.45570432216596
 10
106.4907283674236
 20
92.43339597255658
 10
106.6267261396404
 20
92.41990720302533
  0
LWPOLYLINE
  5
5C
100
AcDbEntity
  8
PYDXF
  6
ByBlock
 62
  256
370
   -1
100
AcDbPolyline
 90
  509
 70
    1
 43
0
 10
120.782037724113
 20
89.06745969325971
 10
120.7820339094158
 20
23.94538938075971
 10
120.7724056135173
 20
23.74931394130658
 10
120.7436084638591
 20
23.55503903896283
 10
120.6959209333415
 20
23.36442624599408
 10
120.6297969709392
 20
23.17933713466596
 10
120.54588126049
 20
23.00154172450971
 10
120.4449787031169
 20
22.83274899990033
 10
120.3280620466228
 20
22.67457639247846
 10
120.1962566267009
 20
22.52854978115033
 10
120.0508327375408
 20
22.39610349208783
 10
119.8931865583415
 20
22.27848874599408
 10
119.7248401533122
 20
22.17683469325971
 10
119.5474147687908
 20
22.09211789638471
 10
119.3626193891521
 20
22.02516232997846
 10
119.1722354780193
 20
21.97663938075971
 10
118.9780902753826
 20
21.94697629482221
 10
118.7820529829021
 20
21.93647824794721
 10
118.0374698530193
 20
21.93315183193158
 10
117.5659427534099
 20
21.89662229091596
 10
117.0981349836345
 20
21.83610593349408
 10
116.634935368156
 20
21.75184690029096
 10
116.17722891674
 20
21.64418088466596
 10
115.7259044538494
 20
21.51332150966596
 10
115.2818469892497
 20
21.35960446865033
 10
114.8459415327068
 20
21.18330441982221
 10
114.4190807233806
 20
20.98466550380658
 10
114.0021457563396
 20
20.76402341396283
 10
113.5960254560466
 20
20.52162229091596
 10
113.2016010175701
 20
20.25773679286908
 10
113.1539173017497
 20
20.23020993740033
 10
113.0383319746013
 20
20.20286618740033
 10
112.9264850507732
 20
20.22056638271283
 10
112.8356647382732
 20
20.27287351161908
 10
111.7091579328533
 20
21.21833859950971
 10
111.503286350822
 20
21.28825437099408
 10
111.3042812238689
 20
21.20066892177533
 10
110.0567340742107
 20
19.95286618740033
 10
109.9691791425701
 20
19.75383054286908
 10
110.0390643964763
 20
19.54789792568158
 10
110.9843158613201
 20
18.42115842372846
 10
111.0007038007732
 20
18.39973508388471
 10
111.0364704023357
 20
18.33073483974408
 10
111.0531940351482
 20
18.25630246669721
 10
111.0515460859294
 20
18.18635617763471
 10
111.0300769697185
 20
18.10975705654096
 10
110.9994678388591
 20
18.05516110927533
 10
110.7356471906658
 20
17.66066037685346
 10
110.4932918439861
 20
17.25444089443158
 10
110.2726802717204
 20
16.83741818935346
 10
110.0740947614665
 20
16.41044675380658
 10
109.897817600822
 20
15.97444211513471
 10
109.7441272626872
 20
15.53031980068158
 10
109.6133098493572
 20
15.07887326747846
 10
109.5056438337322
 20
14.62107907802533
 10
109.4214153181072
 20
14.15779172450971
 10
109.3609027753826
 20
13.68989621669721
 10
109.324388493156
 20
13.21827756435346
 10
109.3121509443279
 20
12.74379025966596
 10
109.3121509443279
 20
12.47312985927533
 10
109.3025188337322
 20
12.27711545497846
 10
109.273721684074
 20
12.08296262294721
 10
109.2260303388591
 20
11.89256345302533
 10
109.159910191154
 20
11.70777951747846
 10
109.0759944807048
 20
11.53035031825971
 10
108.9750919233318
 20
11.36201535732221
 10
108.8581714521404
 20
11.20436154872846
 10
108.7263660322185
 20
11.05891477138471
 10
108.5809383283611
 20
10.92710935146283
 10
108.4232921491619
 20
10.81019650966596
 10
108.2549457441326
 20
10.70930539638471
 10
108.0775165449138
 20
10.62538205654096
 10
107.8927211652751
 20
10.55925046474408
 10
107.7023334394451
 20
10.51155149013471
 10
107.5081844221111
 20
10.48277341396283
 10
107.3121509443279
 20
10.47312985927533
 10
105.3578395734783
 20
10.47312985927533
 10
104.3228549848552
 20
10.60939084560346
 10
103.3581294904704
 20
11.00898801357221
 10
102.5297031293865
 20
11.64466916591596
 10
101.8940296064372
 20
12.47309934169721
 10
101.494424809074
 20
13.43782102138471
 10
101.3581294904704
 20
14.47309934169721
 10
101.3581294904704
 20
17.47309934169721
 10
101.3581294904704
 20
23.47309934169721
 10
101.2218341718669
 20
24.50837766200971
 10
100.8222293745036
 20
25.47309934169721
 10
100.1865558515544
 20
26.30152951747846
 10
99.35812949047045
 20
26.93721066982221
 10
98.39340399608568
 20
27.33680783779096
 10
97.35812949047045
 20
27.47309934169721
 10
73.09956930980638
 20
27.47309934169721
 10
72.06429480419115
 20
27.33680783779096
 10
71.09956930980638
 20
26.93721066982221
 10
70.2711429487224
 20
26.30152951747846
 10
69.63546942577318
 20
25.47309934169721
 10
69.23586844310717
 20
24.50837766200971
 10
69.09956930980638
 20
23.47309934169721
 10
69.09956930980638
 20
21.47309934169721
 10
68.96327399120287
 20
20.43782102138471
 10
68.56367300853685
 20
19.47309934169721
 10
67.92799948558763
 20
18.64466916591596
 10
67.09956930980638
 20
18.00898801357221
 10
66.13484763011888
 20
17.60939084560346
 10
65.09956930980638
 20
17.47309934169721
 10
58.53777884349779
 20
17.47309934169721
 10
57.50250052318529
 20
17.60939084560346
 10
56.53777884349779
 20
18.00898801357221
 10
55.70935248241381
 20
18.64466916591596
 10
55.07367514476732
 20
19.47309934169721
 10
54.67407797679857
 20
20.43782102138471
 10
54.53777884349779
 20
21.47309934169721
 10
54.53777884349779
 20
23.47309934169721
 10
54.40147971019701
 20
24.50837766200971
 10
54.00188254222826
 20
25.47309934169721
 10
53.36620901927904
 20
26.30152951747846
 10
52.53777884349779
 20
26.93721066982221
 10
51.57305716381029
 20
27.33680783779096
 10
50.53777884349779
 20
27.47309934169721
 10
26.27919577465013
 20
27.47309934169721
 10
25.24391745433763
 20
27.33680783779096
 10
24.27919577465013
 20
26.93721066982221
 10
23.45076559886888
 20
26.30152951747846
 10
22.8150997053142
 20
25.47309934169721
 10
22.41548727855638
 20
24.50837766200971
 10
22.27919577465013
 20
23.47309934169721
 10
22.27919577465013
 20
17.47309934169721
 10
22.27919577465013
 20
14.47309934169721
 10
22.14290427074388
 20
13.43782102138471
 10
21.74329184398607
 20
12.47309934169721
 10
21.10762595043138
 20
11.64466916591596
 10
20.27919577465013
 20
11.00898801357221
 10
19.31447409496263
 20
10.60939084560346
 10
18.27948569164232
 20
10.47312985927533
 10
16.23323630199388
 20
10.47312985927533
 10
16.03719900951342
 20
10.48277341396283
 10
15.8430538068767
 20
10.51155149013471
 10
15.65266226634935
 20
10.55925046474408
 10
15.46786307201342
 20
10.62538205654096
 10
15.2904415021892
 20
10.70930539638471
 10
15.12209128246263
 20
10.81019650966596
 10
14.96443747386888
 20
10.92710935146283
 10
14.81901358470873
 20
11.05891477138471
 10
14.68720053539232
 20
11.20436154872846
 10
14.57028769359545
 20
11.36201535732221
 10
14.46938132152513
 20
11.53035031825971
 10
14.38546561107592
 20
11.70777951747846
 10
14.31934164867357
 20
11.89256345302533
 10
14.27165030345873
 20
12.08296262294721
 10
14.24284933910326
 20
12.27711545497846
 10
14.23322104320482
 20
12.47312985927533
 10
14.23322104320482
 20
12.74379025966596
 10
14.2209834943767
 20
13.21824704677533
 10
14.18446921215013
 20
13.68989621669721
 10
14.12395285472826
 20
14.15779172450971
 10
14.03972433910326
 20
14.62107907802533
 10
13.93205832347826
 20
15.07887326747846
 10
13.80124472484545
 20
15.53028928310346
 10
13.64755820140795
 20
15.97444211513471
 10
13.47127341136888
 20
16.41044675380658
 10
13.27269553050951
 20
16.83741818935346
 10
13.05208395824388
 20
17.25444089443158
 10
12.8097286115642
 20
17.66066037685346
 10
12.54590414867357
 20
18.05516110927533
 10
12.50432394847826
 20
18.13954221279096
 10
12.49132346019701
 20
18.21211301357221
 10
12.49573325023607
 20
18.28202878505658
 10
12.52158163890795
 20
18.36055051357221
 10
12.56105612621263
 20
18.42115842372846
 10
13.50630759105638
 20
19.54789792568158
 10
13.57619284496263
 20
19.75383054286908
 10
13.48862265453295
 20
19.95286618740033
 10
12.24109457836107
 20
21.20066892177533
 10
12.04208945140795
 20
21.28825437099408
 10
11.8362178693767
 20
21.21833859950971
 10
10.70969199047045
 20
20.27287351161908
 10
10.68083762035326
 20
20.25148068935346
 10
10.57141684398607
 20
20.20768796474408
 10
10.4562129865642
 20
20.20890866786908
 10
10.35417746410326
 20
20.25068723232221
 10
10.3437862287517
 20
20.25773679286908
 10
9.949361790275134
 20
20.52162229091596
 10
9.543249119376696
 20
20.76402341396283
 10
9.126310337638415
 20
20.98469602138471
 10
8.699445713614978
 20
21.18330441982221
 10
8.263540257072009
 20
21.35963498622846
 10
7.819478977775134
 20
21.51335202724408
 10
7.368154514884509
 20
21.64418088466596
 10
6.910451878165759
 20
21.75187741786908
 10
6.447256077384509
 20
21.83613645107221
 10
5.979444492911853
 20
21.89665280849408
 10
5.507909763907946
 20
21.93318234950971
 10
5.033544529532946
 20
21.94538938075971
 10
4.763341892814196
 20
21.94538938075971
 10
4.567312229728259
 20
21.95503293544721
 10
4.373159397697009
 20
21.98384152919721
 10
4.182775486564196
 20
22.03150998622846
 10
3.997976292228259
 20
22.09764157802533
 10
3.820547093009509
 20
22.18156491786908
 10
3.652196873282946
 20
22.28245603115033
 10
3.494558323478259
 20
22.39936887294721
 10
3.349126804923571
 20
22.53120481044721
 10
3.217321385001696
 20
22.67662107021283
 10
3.10040091381029
 20
22.83427487880658
 10
2.999502171134509
 20
23.00260983974408
 10
2.915578831290759
 20
23.18003903896283
 10
2.849462498282946
 20
23.36482297450971
 10
2.801771153068103
 20
23.55522214443158
 10
2.772970188712634
 20
23.74937497646283
 10
2.763341892814196
 20
23.94538938075971
 10
2.763345707511462
 20
89.06745969325971
 10
4.435293186759509
 20
89.06745969325971
 10
7.983312595939196
 20
89.06745969325971
 10
8.135488499259509
 20
89.08543454677533
 10
8.281827915763415
 20
89.13871823818158
 10
8.41668509349779
 20
89.22520505458783
 10
8.534894932364978
 20
89.34162961513471
 10
8.631902683829821
 20
89.48347531825971
 10
8.703985203361071
 20
89.64531003505658
 10
8.748373020743884
 20
89.82090817958783
 10
8.76336478099779
 20
90.00352536708783
 10
8.76336478099779
 20
92.06745969325971
 10
8.76336478099779
 20
94.13139401943158
 10
8.751867283439196
 20
94.32554685146283
 10
8.717802036857165
 20
94.53529416591596
 10
8.662481297111071
 20
94.75257932216596
 10
8.588033665275134
 20
94.96907102138471
 10
8.497320164298571
 20
95.17643796474408
 10
8.393827427482165
 20
95.36668454677533
 10
8.281530369376696
 20
95.53254758388471
 10
8.164747227286853
 20
95.66761838466596
 10
3.361967075919665
 20
100.482803931541
 10
3.230192173575915
 20
100.5998998788066
 10
3.073507298087634
 20
100.7124792245097
 10
2.897932041739978
 20
100.8162389901347
 10
2.763341892814196
 20
100.8814550545878
 10
2.763349522208728
 20
165.0454260018535
 10
2.772985447501696
 20
165.2414404061503
 10
2.801778782462634
 20
165.4355932381816
 10
2.849470127677478
 20
165.6259924081035
 10
2.915594090079821
 20
165.8107763436503
 10
2.999502171134509
 20
165.9882055428691
 10
3.100408543204821
 20
166.1565405038066
 10
3.217329014396228
 20
166.3141943124003
 10
3.349134434318103
 20
166.459610572166
 10
3.494558323478259
 20
166.591446509666
 10
3.652212132072009
 20
166.7083593514628
 10
3.82055472240404
 20
166.8092504647441
 10
3.99798392162279
 20
166.8931738045878
 10
4.182775486564196
 20
166.9593053963847
 10
4.37316702709154
 20
167.006973853416
 10
4.567312229728259
 20
167.035782447166
 10
4.763349522208728
 20
167.0454260018535
 10
5.033552158927478
 20
167.0454260018535
 10
5.507917393302478
 20
167.0576330331035
 10
5.979452122306384
 20
167.0941625741191
 10
6.447256077384509
 20
167.154678931541
 10
6.910451878165759
 20
167.2389379647441
 10
7.36816214427904
 20
167.3466344979472
 10
7.819486607169665
 20
167.4774938729472
 10
8.263540257072009
 20
167.6312109139628
 10
8.699453343009509
 20
167.807510962791
 10
9.126317967032946
 20
168.0061498788066
 10
9.543249119376696
 20
168.2267919686503
 10
9.949369419669665
 20
168.4691930916972
 10
10.34379385814623
 20
168.7330785897441
 10
10.35418509349779
 20
168.7400976327128
 10
10.45622061595873
 20
168.7819067147441
 10
10.5714244733806
 20
168.783096900291
 10
10.68084524974779
 20
168.7393346932597
 10
10.70969961986498
 20
168.717911353416
 10
11.83622549877123
 20
167.7724767831035
 10
12.04209708080248
 20
167.7025915291972
 10
12.2411022077556
 20
167.790176978416
 10
13.48863028392748
 20
169.037979712791
 10
13.57620047435717
 20
169.2370153573222
 10
13.50631522045092
 20
169.4429174569316
 10
12.56106375560717
 20
170.5696874764628
 10
12.52158926830248
 20
170.6302953866191
 10
12.4957408796306
 20
170.7087865975566
 10
12.49133108959154
 20
170.7787328866191
 10
12.50433157787279
 20
170.8513036874003
 10
12.5459117780681
 20
170.935684790916
 10
12.8097286115642
 20
171.3301855233378
 10
13.05208395824388
 20
171.7364050057597
 10
13.27270315990404
 20
172.1534277108378
 10
13.47128867015795
 20
172.5803686288066
 10
13.64756583080248
 20
173.0163732674785
 10
13.80125998363451
 20
173.4605260995097
 10
13.93207358226732
 20
173.9119421151347
 10
14.03973959789232
 20
174.3697363045878
 10
14.12396811351732
 20
174.8330236581035
 10
14.1844844709392
 20
175.3009496834941
 10
14.22099875316576
 20
175.7725683358378
 10
14.23323630199388
 20
176.2470251229472
 10
14.23323630199388
 20
176.517716040916
 10
14.24286459789232
 20
176.713760962791
 10
14.27165793285326
 20
176.9079137948222
 10
14.31934164867357
 20
177.098282447166
 10
14.38547324047045
 20
177.283096900291
 10
14.46938132152513
 20
177.4605260995097
 10
14.57028769359545
 20
177.6288610604472
 10
14.68720053539232
 20
177.786514869041
 10
14.8190059553142
 20
177.9319311288066
 10
14.96443747386888
 20
178.0637365487285
 10
15.12207602367357
 20
178.1806799081035
 10
15.29042624340013
 20
178.2815710213847
 10
15.46785544261888
 20
178.3654943612285
 10
15.65264700756029
 20
178.4315954354472
 10
15.84303854808763
 20
178.4792944100566
 10
16.03718375072435
 20
178.5081030038066
 10
16.23306082591967
 20
178.517716040916
 10
18.00981711254076
 20
178.517716040916
 10
18.40188406810717
 20
178.4984594491191
 10
18.79018210277513
 20
178.4408727791972
 10
19.17095755443529
 20
178.3454748299785
 10
19.54054831371263
 20
178.2132421639628
 10
19.89540671215013
 20
178.0453954842753
 10
20.23209952220873
 20
177.8435827401347
 10
20.54739188060717
 20
177.609757056541
 10
20.83824728832201
 20
177.3461462166972
 10
21.10185812816576
 20
177.0552831795878
 10
21.33569907054857
 20
176.7400060799785
 10
21.53750418529467
 20
176.4033056405253
 10
21.7053356061931
 20
176.0484472420878
 10
21.83757590160326
 20
175.678848853416
 10
21.93295859203295
 20
175.2980810311503
 10
21.99056052074388
 20
174.9097753670878
 10
22.00981711254076
 20
174.517716040916
 10
22.00981711254076
 20
169.559219947166
 10
22.02907370433763
 20
169.1671606209941
 10
22.08667563304857
 20
168.7788549569316
 10
22.18205832347826
 20
168.398087134666
 10
22.31429861888842
 20
168.0284887459941
 10
22.48213003978685
 20
167.6736303475566
 10
22.68393515453295
 20
167.3369299081035
 10
22.91777609691576
 20
167.0216528084941
 10
23.18138693675951
 20
166.7307897713847
 10
23.47224234447435
 20
166.467178931541
 10
23.78753470287279
 20
166.2333532479472
 10
24.12422751293138
 20
166.0315405038066
 10
24.47908591136888
 20
165.8636938241191
 10
24.84867667064623
 20
165.7314611581035
 10
25.22945212230638
 20
165.6360632088847
 10
25.61775015697435
 20
165.5784765389628
 10
26.00981711254076
 20
165.559219947166
 10
50.44600485668138
 20
165.559219947166
 10
50.83807181224779
 20
165.5784765389628
 10
51.22636984691576
 20
165.6360632088847
 10
51.60714529857592
 20
165.7314611581035
 10
51.97673605785326
 20
165.8636938241191
 10
52.33159445629076
 20
166.0315405038066
 10
52.66828726634935
 20
166.2333532479472
 10
52.98357962474779
 20
166.467178931541
 10
53.27443503246263
 20
166.7307897713847
 10
53.53804587230638
 20
167.0216528084941
 10
53.7718868146892
 20
167.3369299081035
 10
53.97369192943529
 20
167.6736303475566
 10
54.14152335033373
 20
168.0284887459941
 10
54.27376364574388
 20
168.398087134666
 10
54.36914633617357
 20
168.7788549569316
 10
54.42674445018724
 20
169.1671606209941
 10
54.44600485668138
 20
169.559219947166
 10
54.44600485668138
 20
174.517716040916
 10
54.46526526317552
 20
174.9097753670878
 10
54.5228633771892
 20
175.2980810311503
 10
54.61824606761888
 20
175.678848853416
 10
54.75048636302904
 20
176.0484472420878
 10
54.91831778392748
 20
176.4033056405253
 10
55.12012671337084
 20
176.7400060799785
 10
55.35396384105638
 20
177.0552831795878
 10
55.6175784955974
 20
177.3461462166972
 10
55.90843008861498
 20
177.609757056541
 10
56.22372244701342
 20
177.8435827401347
 10
56.56041907176927
 20
178.0453954842753
 10
56.91526984081224
 20
178.2132421639628
 10
57.28486441478685
 20
178.3454748299785
 10
57.66564368114427
 20
178.4408727791972
 10
58.05393790111498
 20
178.4984594491191
 10
58.44600485668138
 20
178.517716040916
 10
69.28597067699388
 20
178.517716040916
 10
70.14329336986498
 20
178.517716040916
 10
70.14329336986498
 20
178.5081335213847
 10
73.47725485668138
 20
178.5081335213847
 10
73.78627203807787
 20
178.4591833260722
 10
74.06503867015795
 20
178.3171545174785
 10
74.28627203807787
 20
178.0959020760722
 10
74.42831229076342
 20
177.8171545174785
 10
74.47725485668138
 20
177.5081335213847
 10
74.47725485668138
 20
174.0471044686503
 10
74.50172613964037
 20
173.8925939706035
 10
74.57274435863451
 20
173.7532201913066
 10
74.6833629499431
 20
173.6425939706035
 10
74.82274435863451
 20
173.5715795663066
 10
74.97725485668138
 20
173.5471044686503
 10
91.12333678111986
 20
173.5471044686503
 10
93.22936056957201
 20
173.5471044686503
 10
93.38387106761888
 20
173.5715795663066
 10
93.52325247631029
 20
173.6425939706035
 10
93.63387106761888
 20
173.7532201913066
 10
93.70488928661302
 20
173.8925939706035
 10
93.72936056957201
 20
174.0471044686503
 10
93.72936056957201
 20
177.5081335213847
 10
93.77830313548998
 20
177.8171545174785
 10
93.92034338817552
 20
178.0959020760722
 10
94.14157675609545
 20
178.3171545174785
 10
94.42034338817552
 20
178.4591833260722
 10
94.72936056957201
 20
178.5081335213847
 10
99.17548941478685
 20
178.5081335213847
 10
99.17548941478685
 20
178.517716040916
 10
107.3121662031169
 20
178.517716040916
 10
107.5081996809001
 20
178.5081030038066
 10
107.7023486982341
 20
178.4792944100566
 10
107.8927364240642
 20
178.4315954354472
 10
108.0775318037029
 20
178.3654943612285
 10
108.2549610029216
 20
178.2815710213847
 10
108.4233074079509
 20
178.1806799081035
 10
108.5809535871501
 20
178.0637365487285
 10
108.7263812910076
 20
177.9319311288066
 10
108.8581867109294
 20
177.786514869041
 10
108.9751071821208
 20
177.6288610604472
 10
109.0760097394939
 20
177.4605260995097
 10
109.1599254499431
 20
177.283096900291
 10
109.2260455976482
 20
177.098282447166
 10
109.273736942863
 20
176.9079137948222
 10
109.3025340925212
 20
176.713760962791
 10
109.3121662031169
 20
176.517716040916
 10
109.3121662031169
 20
176.2470251229472
 10
109.3243999372478
 20
175.7725683358378
 10
109.3609142194744
 20
175.3009496834941
 10
109.421426762199
 20
174.8330236581035
 10
109.505655277824
 20
174.3697363045878
 10
109.613321293449
 20
173.9119421151347
 10
109.744138706779
 20
173.4605260995097
 10
109.8978290449138
 20
173.0163427499003
 10
110.0741062055583
 20
172.5803381112285
 10
110.2726917158122
 20
172.1533971932597
 10
110.4932994733806
 20
171.7363744881816
 10
110.7356548200603
 20
171.3301855233378
 10
110.9994792829509
 20
170.935684790916
 10
111.0300884138103
 20
170.8810583260722
 10
111.0515575300212
 20
170.8044592049785
 10
111.05320547924
 20
170.734512915916
 10
111.0364818464275
 20
170.6601110604472
 10
111.000715244865
 20
170.5911108163066
 10
110.9843273054119
 20
170.5696874764628
 10
110.0390758405681
 20
169.4429174569316
 10
109.9691905866619
 20
169.2370153573222
 10
110.0567455183025
 20
169.037979712791
 10
111.3042888532634
 20
167.790176978416
 10
111.5032939802165
 20
167.7025915291972
 10
111.7091655622478
 20
167.7724767831035
 10
112.835676182365
 20
168.717911353416
 10
112.926496494865
 20
168.7702184823222
 10
113.0383434186931
 20
168.7879491952128
 10
113.1539287458415
 20
168.7606054452128
 10
113.2016124616619
 20
168.7330785897441
 10
113.5960292707439
 20
168.4691930916972
 10
114.0021495710369
 20
168.2267919686503
 10
114.4190845380779
 20
168.0061193612285
 10
114.845945347404
 20
167.807510962791
 10
115.281850803947
 20
167.6311803963847
 10
115.7259082685466
 20
167.4774633553691
 10
116.1772327314372
 20
167.3466344979472
 10
116.6349391828533
 20
167.2389379647441
 10
117.0981387983318
 20
167.154678931541
 10
117.5659465681072
 20
167.0941625741191
 10
118.0374736677165
 20
167.0576330331035
 10
118.7820606122966
 20
167.0543066170878
 10
118.9780979047771
 20
167.0438085702128
 10
119.1722431074138
 20
167.0141454842753
 10
119.3626270185466
 20
166.9656225350566
 10
119.5474223981853
 20
166.8986669686503
 10
119.7248477827068
 20
166.8139501717753
 10
119.8931941877361
 20
166.712296119041
 10
120.0508403669353
 20
166.5946813729472
 10
120.1962642560954
 20
166.4622350838847
 10
120.3280696760173
 20
166.3162084725566
 10
120.4449863325115
 20
166.1580358651347
 10
120.5458888898845
 20
165.9892431405253
 10
120.6298046003337
 20
165.8114477303691
 10
120.6959285627361
 20
165.626358619041
 10
120.7436160932536
 20
165.4357458260722
 10
120.7724132429119
 20
165.2414709237285
 10
120.7820415388103
 20
165.0453954842753
 10
120.782037724113
 20
100.8813635018535
 10
120.6476116071697
 20
100.8162389901347
 10
120.472036350822
 20
100.7124792245097
 10
120.3153514753337
 20
100.5998998788066
 10
120.18357657299
 20
100.482803931541
 10
115.3807964216228
 20
95.66761838466596
 10
115.2640132795329
 20
95.53254758388471
 10
115.1517162214275
 20
95.36668454677533
 10
115.0482234846111
 20
95.17643796474408
 10
114.9575099836345
 20
94.96907102138471
 10
114.8830623517986
 20
94.75257932216596
 10
114.8277416120525
 20
94.53529416591596
 10
114.793683994865
 20
94.32554685146283
 10
114.7821788679119
 20
94.13139401943158
 10
114.7821788679119
 20
92.06745969325971
 10
114.7821788679119
 20
90.00352536708783
 10
114.7971629987712
 20
89.82090817958783
 10
114.8415584455486
 20
89.64531003505658
 10
114.9136409650798
 20
89.48347531825971
 10
115.0106487165447
 20
89.34162961513471
 10
115.1288585554119
 20
89.22520505458783
 10
115.2637157331462
 20
89.13871823818158
 10
115.4100475202556
 20
89.08543454677533
 10
115.5622310529704
 20
89.06745969325971
  0
LWPOLYLINE
  5
5D
100
AcDbEntity
  8
0
  6
ByBlock
 62
  256
370
   -1
100
AcDbPolyline
 90
    3
 70
    0
 43
0
 10
82.55459784374193
 20
166.5796056893535
 10
82.41211890087084
 20
166.8461462166972
 10
82.39750098094896
 20
166.8734899666972
  0
LWPOLYLINE
  5
5E
100
AcDbEntity
  8
0
  6
ByBlock
 62
  256
370
   -1
100
AcDbPolyline
 90
   49
 70
    1
 43
0
 10
62.05476187572435
 20
162.4357458260722
 10
61.77269934520677
 20
162.4167638924785
 10
61.4906368146892
 20
162.4357763436503
 10
61.22006796703295
 20
162.491104712791
 10
60.96347617015795
 20
162.5803075936503
 10
60.78218268260912
 20
162.6713415291972
 10
60.72334860668138
 20
162.7008825448222
 10
60.50216864452318
 20
162.8503576424785
 10
60.30241965160326
 20
163.0262304452128
 10
60.12658499584154
 20
163.2260290291972
 10
59.97715185985521
 20
163.4472509530253
 10
59.85659979686693
 20
163.6874242928691
 10
59.76741598949388
 20
163.9440771249003
 10
59.71208762035326
 20
164.2147070077128
 10
59.69309042797045
 20
164.4968114999003
 10
59.71208762035326
 20
164.7789159920878
 10
59.76741598949388
 20
165.0495458749003
 10
59.85659979686693
 20
165.3061681893535
 10
59.97715185985521
 20
165.5463720467753
 10
60.12658499584154
 20
165.7675939706035
 10
60.30241965160326
 20
165.9673925545878
 10
60.50216864452318
 20
166.1432653573222
 10
60.72334860668138
 20
166.2927404549785
 10
60.96347617015795
 20
166.4132848885722
 10
61.22006796703295
 20
166.5025182870097
 10
61.4906368146892
 20
166.5578466561503
 10
61.77270315990404
 20
166.5768591073222
 10
62.05476187572435
 20
166.5578466561503
 10
62.32532690868334
 20
166.5025182870097
 10
62.58191870555834
 20
166.4133154061503
 10
62.82204245433763
 20
166.2927404549785
 10
63.0432262311931
 20
166.1432653573222
 10
63.24297522411302
 20
165.9673925545878
 10
63.41880987987474
 20
165.7675939706035
 10
63.56824683055834
 20
165.5463720467753
 10
63.68879889354662
 20
165.3061987069316
 10
63.77798270091967
 20
165.0495458749003
 10
63.83331869945482
 20
164.778946509666
 10
63.85231207714037
 20
164.4968114999003
 10
63.83331488475756
 20
164.2146764901347
 10
63.77798270091967
 20
163.9440466073222
 10
63.68879889354662
 20
163.687393775291
 10
63.56824683055834
 20
163.4472204354472
 10
63.41880987987474
 20
163.2259985116191
 10
63.24297522411302
 20
163.0261999276347
 10
63.04322241649584
 20
162.8503576424785
 10
62.82204245433763
 20
162.7008825448222
 10
62.58191489086107
 20
162.5802770760722
 10
62.32532690868334
 20
162.491104712791
  0
LWPOLYLINE
  5
5F
100
AcDbEntity
  8
0
  6
ByBlock
 62
  256
370
   -1
100
AcDbPolyline
 90
   84
 70
    0
 43
0
 10
36.0116100202556
 20
131.7903600838847
 10
35.72752951488451
 20
132.3478857186503
 10
35.2850704084392
 20
132.7903600838847
 10
34.72752951488451
 20
133.0744177010722
 10
34.10949515209154
 20
133.1723180916972
 10
30.89961813793138
 20
133.1723180916972
 10
30.28158377513842
 20
133.2702184823222
 10
29.72405051097826
 20
133.5542760995097
 10
29.28158377513842
 20
133.9967504647441
 10
28.99750326976732
 20
134.5542760995097
 10
28.91901303314125
 20
135.0498512049897
 10
28.89961813793138
 20
135.1723180916972
 10
28.89961813793138
 20
151.0183263924785
 10
28.91937788798509
 20
151.1430823123217
 10
28.97810934886888
 20
151.5139013436503
 10
28.99750326976732
 20
151.636368384666
 10
29.28158377513842
 20
152.1939245370097
 10
29.72405051097826
 20
152.636368384666
 10
30.28158377513842
 20
152.9204565194316
 10
30.89961813793138
 20
153.0183263924785
 10
34.10949515209154
 20
153.0183263924785
 10
34.72752951488451
 20
153.1162267831035
 10
35.2850704084392
 20
153.4003149178691
 10
35.72752951488451
 20
153.8427587655253
 10
36.0116100202556
 20
154.4003149178691
 10
36.10949515209154
 20
155.0183263924785
 10
36.10949515209154
 20
157.8525243905253
 10
36.10949515209154
 20
158.5529333260722
 10
36.20738028392748
 20
159.1709753182597
 10
36.49146078929857
 20
159.7285009530253
 10
36.93391989574388
 20
160.1709753182597
 10
37.49146078929857
 20
160.4550329354472
 10
38.10949515209154
 20
160.5529333260722
 10
42.34021567211107
 20
160.5529333260722
 10
54.91646002635912
 20
160.5529333260722
 10
59.06990240917162
 20
160.5529333260722
 10
59.68793677196459
 20
160.4550329354472
 10
60.24547385082201
 20
160.1709753182597
 10
60.68793677196459
 20
159.7285009530253
 10
60.97201727733568
 20
159.1709753182597
 10
61.06990240917162
 20
158.5529333260722
 10
61.06990240917162
 20
157.8525243905253
 10
61.06990240917162
 20
155.7317663338847
 10
61.06990240917162
 20
155.0183263924785
 10
61.16779135570482
 20
154.4003149178691
 10
61.45186804637865
 20
153.8427587655253
 10
61.89433096752123
 20
153.4003149178691
 10
62.45186804637865
 20
153.1162267831035
 10
63.06990240917162
 20
153.0183263924785
 10
66.89961813793138
 20
153.0183263924785
 10
67.51765250072435
 20
152.9204565194316
 10
68.07518957958177
 20
152.636368384666
 10
68.51765250072435
 20
152.1939245370097
 10
68.80173300609545
 20
151.636368384666
 10
68.89961813793138
 20
151.0183263924785
 10
68.89961813793138
 20
135.1723180916972
 10
68.80173300609545
 20
134.5542760995097
 10
68.51765250072435
 20
133.9967504647441
 10
68.07518957958177
 20
133.5542760995097
 10
67.51765250072435
 20
133.2702184823222
 10
66.89961813793138
 20
133.1723180916972
 10
63.06990240917162
 20
133.1723180916972
 10
62.45186804637865
 20
133.0744177010722
 10
61.89433096752123
 20
132.7903600838847
 10
61.45186804637865
 20
132.3478857186503
 10
61.16779135570482
 20
131.7903600838847
 10
61.06990240917162
 20
131.1723180916972
 10
61.06990240917162
 20
130.4417577889628
 10
61.06990240917162
 20
127.5529333260722
 10
60.97201727733568
 20
126.9348913338847
 10
60.68793677196459
 20
126.3773656991191
 10
60.24547385082201
 20
125.9348913338847
 10
59.68793677196459
 20
125.6508337166972
 10
59.06990240917162
 20
125.5529333260722
 10
38.10949515209154
 20
125.5529333260722
 10
37.49146078929857
 20
125.6508337166972
 10
36.93391989574388
 20
125.9348913338847
 10
36.49146078929857
 20
126.3773656991191
 10
36.20738028392748
 20
126.9348913338847
 10
36.10949515209154
 20
127.5529333260722
 10
36.10949515209154
 20
130.4417577889628
 10
36.10949515209154
 20
131.1723180916972
 10
36.01160620555834
 20
131.7903600838847
 10
35.72752951488451
 20
132.3478857186503
  0
ENDSEC
  0
SECTION
  2
OBJECTS
  0
DICTIONARY
  5
C
330
0
100
AcDbDictionary
281
    1
  3
ACAD_GROUP
350
D
  0
DICTIONARY
  5
D
330
C
100
AcDbDictionary
281
    1
  0
PLOTSETTINGS
  5
60
100
AcDbPlotSettings
  6
1x1
 40
0
 41
0
 42
0
 43
0
  0
ENDSEC
  0
EOF
